<svg viewBox="0 0 637 39" fill="none" xmlns="http://www.w3.org/2000/svg">
<path d="M21.14 6.94001L21.9 6.85002H23.33C23.6651 6.86881 23.9989 6.90553 24.33 6.96002L24.7 5.34001C24.7287 5.22274 24.73 5.10047 24.704 4.98259C24.678 4.86471 24.6253 4.75437 24.55 4.66001C24.4735 4.56433 24.3759 4.48751 24.265 4.4355C24.154 4.38348 24.0326 4.35765 23.91 4.36001H21.53C21.4076 4.3584 21.2864 4.38456 21.1756 4.43652C21.0647 4.48848 20.9671 4.5649 20.89 4.66001C20.8148 4.75437 20.7621 4.86471 20.7361 4.98259C20.7101 5.10047 20.7114 5.22274 20.74 5.34001L21.14 6.94001Z" fill="#FF5561"/>
<path d="M17.5399 8.89002C16.4317 9.58676 15.5115 10.5448 14.8599 11.68V11.68C14.547 12.2354 14.3115 12.8309 14.1599 13.45C14.1599 13.45 14.1599 13.45 14.1599 13.45C14.1599 13.45 14.1599 13.54 14.1599 13.59C14.1599 13.59 14.1599 13.67 14.1599 13.71V13.78V13.89V14.07C14.158 14.0966 14.158 14.1234 14.1599 14.15V14.23C16.1629 14.4107 18.1812 14.3199 20.1599 13.96C22.0808 13.6127 23.9405 12.9861 25.6799 12.1L25.8199 12.03L26.1999 11.8C26.5057 11.6116 26.7996 11.4046 27.0799 11.18L27.4299 10.89L28.6799 9.79002L27.6999 11.34C27.6009 11.5117 27.4799 11.6697 27.3399 11.81L27.1799 11.98C26.9505 12.2244 26.7068 12.4548 26.4499 12.67C27.9248 13.5792 29.6007 14.1115 31.3299 14.22C31.2207 13.3524 30.9457 12.5138 30.5199 11.75V11.75C29.8782 10.6231 28.9722 9.66901 27.8799 8.97002C27.3725 8.63991 26.8331 8.36184 26.2699 8.14002V8.14002L26.0799 8.06002L25.8799 7.99002C25.439 7.80729 24.9842 7.66015 24.5199 7.55002V7.55002C23.3426 7.33945 22.1372 7.33945 20.9599 7.55002C19.7435 7.75823 18.5808 8.20699 17.5399 8.87002V8.89002Z" fill="#FF5561"/>
<path d="M13.5899 11.45C13.4943 11.412 13.3927 11.3917 13.2899 11.39C13.1494 11.3922 13.0117 11.4301 12.8898 11.5C12.7833 11.5597 12.6919 11.6431 12.6226 11.7436C12.5532 11.8441 12.5078 11.9592 12.4899 12.08L12.1398 14.46C12.1217 14.5788 12.1312 14.7001 12.1676 14.8146C12.204 14.9291 12.2664 15.0336 12.3499 15.12C12.4339 15.2088 12.5369 15.2774 12.6512 15.3207C12.7655 15.364 12.8881 15.3808 13.0099 15.37H13.3999C13.3999 15.31 13.3999 15.24 13.3999 15.17C13.3999 15.1 13.3999 15.06 13.3999 15.01V14.55C13.3999 14.48 13.3999 14.42 13.3999 14.35C13.3974 14.3301 13.3974 14.3099 13.3999 14.29V13.97C13.3999 13.97 13.3999 13.89 13.3999 13.86V13.79V13.65C13.5281 12.9757 13.7502 12.3226 14.0599 11.71L13.5899 11.45Z" fill="#FF5561"/>
<path d="M27.3099 15.4501C27.2399 15.4501 27.1799 15.6101 27.1799 15.7901C27.1799 15.9701 27.2299 16.1301 27.3099 16.1301C27.3899 16.1301 27.4399 15.9701 27.4399 15.7901C27.4399 15.6101 27.3899 15.4501 27.3099 15.4501Z" fill="#FF5561"/>
<path d="M17.4301 8.24999C18.3916 7.67531 19.4429 7.26629 20.54 7.03999L20.1601 5.48C20.1298 5.36226 20.0737 5.25273 19.9959 5.15933C19.918 5.06594 19.8204 4.99102 19.7101 4.93999C19.6025 4.89432 19.4869 4.87052 19.37 4.87C19.2415 4.87128 19.1149 4.90207 19.0001 4.96L16.8401 6.06C16.7331 6.11656 16.6399 6.19611 16.5673 6.29293C16.4947 6.38975 16.4444 6.50144 16.4201 6.62C16.3971 6.73801 16.4014 6.85971 16.4326 6.97581C16.4638 7.09192 16.521 7.19937 16.6001 7.28999L17.4301 8.24999Z" fill="#FF5561"/>
<path d="M18.23 15.7901C18.23 15.9801 18.29 16.1301 18.36 16.1301C18.43 16.1301 18.49 15.9701 18.49 15.7901C18.49 15.6101 18.43 15.4501 18.36 15.4501C18.29 15.4501 18.23 15.6101 18.23 15.7901Z" fill="#FF5561"/>
<path d="M25.8 12.91L25.64 12.8C23.8954 13.667 22.037 14.2831 20.12 14.6301C18.7608 14.8789 17.3818 15.0027 16 15C15.33 15 14.66 15 14 14.91V14.98C14 14.98 14 15.0701 14 15.1301C14 15.1901 14 15.42 14 15.58V15.76C14.49 19.55 18.2 22.55 22.7 22.55C27.2 22.55 30.92 19.55 31.37 15.76V15.58C31.37 15.42 31.37 15.2701 31.37 15.1301V14.82C29.3546 14.7152 27.4068 14.0579 25.74 12.9201M16.96 19.75C16.45 19.75 16.03 19.47 16.03 19.12C16.03 18.77 16.45 18.4901 16.96 18.4901C17.47 18.4901 17.89 18.78 17.89 19.12C17.89 19.46 17.47 19.75 16.96 19.75ZM18.23 17.4901C17.99 17.4901 17.8 16.97 17.8 16.34C17.8 15.71 17.99 15.19 18.23 15.19C18.47 15.19 18.66 15.7 18.66 16.34C18.66 16.98 18.47 17.4901 18.23 17.4901ZM24.33 18.3101C23.8432 18.6002 23.2867 18.7523 22.72 18.75C22.1469 18.7529 21.5838 18.6009 21.09 18.3101C21.0462 18.2825 21.0103 18.244 20.9858 18.1985C20.9613 18.1529 20.9489 18.1018 20.95 18.05V18.05C20.9511 17.9976 20.9655 17.9464 20.9918 17.901C21.0181 17.8557 21.0555 17.8178 21.1004 17.7908C21.1454 17.7638 21.1964 17.7487 21.2488 17.7468C21.3012 17.7449 21.3532 17.7564 21.4 17.7801C21.8102 17.9898 22.2643 18.0992 22.725 18.0992C23.1857 18.0992 23.6398 17.9898 24.05 17.7801C24.0961 17.7557 24.1477 17.7438 24.1997 17.7455C24.2518 17.7472 24.3025 17.7624 24.3469 17.7897C24.3913 17.8169 24.4279 17.8552 24.453 17.9009C24.4781 17.9466 24.4908 17.998 24.49 18.05C24.4921 18.102 24.4802 18.1535 24.4556 18.1992C24.4309 18.2449 24.3945 18.2832 24.35 18.3101M27.21 17.4901C26.97 17.4901 26.78 16.97 26.78 16.34C26.78 15.71 26.97 15.19 27.21 15.19C27.45 15.19 27.64 15.7 27.64 16.34C27.64 16.98 27.44 17.4901 27.21 17.4901ZM28.48 19.75C27.97 19.75 27.54 19.47 27.54 19.12C27.54 18.77 27.96 18.4901 28.48 18.4901C29 18.4901 29.41 18.78 29.41 19.12C29.41 19.46 28.99 19.75 28.48 19.75Z" fill="#FF5561"/>
<path d="M25.7701 7.28001H25.8701H25.9901H26.0401L26.2001 7.33001L26.3801 7.40001L26.5701 7.47001L26.7601 7.55001L26.9301 7.62001L27.0701 7.69001H27.1401H27.2501L27.3501 7.74001H27.4201L27.5501 7.81001L27.8901 8.01001L28.7601 7.01001C28.838 6.91775 28.894 6.80905 28.9239 6.69206C28.9538 6.57507 28.9569 6.45283 28.9328 6.33449C28.9088 6.21615 28.8583 6.10479 28.785 6.00877C28.7118 5.91274 28.6178 5.83453 28.5101 5.78001L26.3501 4.69001C26.2397 4.63536 26.1182 4.60693 25.9951 4.60693C25.8719 4.60693 25.7504 4.63536 25.6401 4.69001C25.5285 4.73918 25.4298 4.81352 25.3517 4.9072C25.2736 5.00089 25.2183 5.11138 25.1901 5.23001L24.8101 6.80001C25.0701 6.86001 25.3301 6.93001 25.5801 7.00001H25.6301" fill="#FF5561"/>
<path d="M0 0L22.75 39L45.49 0H0ZM32.56 16H32.43H31.96C31.6958 17.892 30.7413 19.6195 29.28 20.85C27.4318 22.3827 25.1061 23.2216 22.705 23.2216C20.3039 23.2216 17.9782 22.3827 16.13 20.85C14.6716 19.6213 13.7174 17.8981 13.45 16.01H13.06H12.93C12.7432 16.0076 12.5588 15.9684 12.3872 15.8946C12.2156 15.8208 12.0602 15.7139 11.93 15.58C11.7843 15.4274 11.6753 15.2437 11.6112 15.0427C11.5471 14.8417 11.5296 14.6288 11.56 14.42L11.92 12.04C11.9518 11.832 12.0304 11.6339 12.15 11.4606C12.2695 11.2874 12.4268 11.1436 12.61 11.04C12.7089 10.9869 12.8128 10.9433 12.92 10.91C12.781 10.6796 12.7134 10.4132 12.7259 10.1444C12.7383 9.87559 12.8303 9.61654 12.99 9.4L14.4 7.4C14.5242 7.22774 14.686 7.086 14.8731 6.98551C15.0603 6.88503 15.2678 6.82842 15.48 6.82C15.593 6.80745 15.707 6.80745 15.82 6.82C15.8037 6.7106 15.8037 6.5994 15.82 6.49001C15.8587 6.27783 15.9455 6.07734 16.0738 5.90398C16.202 5.73061 16.3684 5.58899 16.56 5.49001L18.7 4.43C18.8919 4.33779 19.1021 4.28992 19.315 4.28992C19.5279 4.28992 19.7381 4.33779 19.93 4.43C20.0334 4.47837 20.1308 4.53879 20.22 4.61C20.3344 4.36453 20.5167 4.15691 20.7453 4.01162C20.9738 3.86633 21.2392 3.78943 21.51 3.79H23.94C24.154 3.78919 24.3653 3.83745 24.5577 3.93106C24.7502 4.02467 24.9186 4.16115 25.05 4.33C25.1222 4.41489 25.1828 4.50906 25.23 4.61C25.3192 4.53879 25.4166 4.47837 25.52 4.43C25.7119 4.33779 25.9221 4.28992 26.135 4.28992C26.3479 4.28992 26.5581 4.33779 26.75 4.43L28.92 5.55C29.12 5.64286 29.2951 5.78198 29.4307 5.95586C29.5663 6.12974 29.6586 6.3334 29.7 6.55C29.7163 6.6594 29.7163 6.77061 29.7 6.88C29.813 6.86762 29.927 6.86762 30.04 6.88C30.2519 6.88987 30.4589 6.94709 30.6458 7.04745C30.8327 7.14782 30.9947 7.2888 31.12 7.46001L32.53 9.46001C32.6329 9.61974 32.7012 9.79925 32.7305 9.98699C32.7598 10.1747 32.7494 10.3665 32.7 10.55C32.6679 10.6577 32.6243 10.7616 32.57 10.86C32.6773 10.8931 32.7812 10.9367 32.88 10.99C33.0637 11.093 33.2214 11.2366 33.341 11.41C33.4606 11.5833 33.5389 11.7817 33.57 11.99L33.93 14.37C33.9587 14.5691 33.9442 14.772 33.8875 14.9649C33.8308 15.1579 33.7331 15.3363 33.6012 15.4882C33.4693 15.64 33.3063 15.7616 33.1231 15.8448C32.94 15.9279 32.7411 15.9706 32.54 15.97" fill="#FF5561"/>
<path d="M30.96 11.1901L31.68 10.9001C31.7913 10.8552 31.8911 10.7861 31.9724 10.6979C32.0537 10.6097 32.1143 10.5046 32.15 10.3901C32.186 10.2738 32.1939 10.1506 32.173 10.0307C32.1522 9.91072 32.1032 9.79743 32.03 9.7001L30.62 7.7001C30.5486 7.60155 30.4556 7.52061 30.3482 7.46342C30.2407 7.40623 30.1217 7.37432 30 7.3701C29.8776 7.36454 29.7554 7.38685 29.6428 7.43535C29.5303 7.48385 29.4301 7.55728 29.35 7.6501L28.54 8.5801C29.5195 9.25892 30.3471 10.1341 30.97 11.1501" fill="#FF5561"/>
<path d="M13.81 10.9001L14.46 11.1601C15.0872 10.1267 15.9255 9.23729 16.92 8.55007L16.14 7.65007C16.0637 7.56383 15.9698 7.49506 15.8645 7.44846C15.7592 7.40186 15.6451 7.37854 15.53 7.38008V7.38008C15.4082 7.38355 15.2889 7.41514 15.1813 7.47238C15.0738 7.52963 14.9809 7.61099 14.91 7.71008L13.5 9.71008C13.429 9.80852 13.3814 9.92181 13.3606 10.0414C13.3399 10.161 13.3467 10.2837 13.3804 10.4003C13.4141 10.5169 13.4739 10.6243 13.5553 10.7143C13.6366 10.8044 13.7374 10.8747 13.85 10.9201" fill="#FF5561"/>
<path d="M33 12.08C32.9816 11.9596 32.9362 11.8449 32.8672 11.7444C32.7983 11.644 32.7076 11.5604 32.6019 11.4998C32.4962 11.4393 32.3782 11.4033 32.2566 11.3947C32.1351 11.3861 32.0132 11.405 31.9 11.45L31.25 11.71C31.4675 12.1383 31.6417 12.5872 31.77 13.05V13.17C31.7723 13.1933 31.7723 13.2168 31.77 13.24V13.34C31.7723 13.37 31.7723 13.4001 31.77 13.43V13.52C31.77 13.52 31.77 13.59 31.77 13.62C31.7682 13.6467 31.7682 13.6734 31.77 13.7V13.81V13.89C31.77 13.89 31.77 13.97 31.77 14C31.7719 14.0267 31.7719 14.0534 31.77 14.08C31.77 14.08 31.77 14.16 31.77 14.21C31.77 14.26 31.77 14.21 31.77 14.28C31.77 14.35 31.77 14.41 31.77 14.47C31.77 14.53 31.77 14.79 31.77 14.94V15.1C31.77 15.17 31.77 15.23 31.77 15.29H32.24C32.3618 15.3016 32.4846 15.2851 32.5991 15.2418C32.7135 15.1984 32.8164 15.1294 32.9 15.04C32.9828 14.9532 33.0448 14.8486 33.0812 14.7343C33.1176 14.6199 33.1274 14.4988 33.11 14.38L33 12.08Z" fill="#FF5561"/>
<path d="M69.1499 19.2301C70.0124 18.9751 70.809 18.5353 71.4843 17.9413C72.1595 17.3472 72.6972 16.6131 73.0599 15.7901L73.4199 14.6801H73.1899L72.6899 14.8401C72.1299 15.0001 71.3899 15.2101 70.5399 15.4801L69.5399 18.5401C69.4551 18.7877 69.3264 19.018 69.1599 19.2201" fill="#6FD5CA"/>
<path d="M64.95 18.3701C64.68 19.2001 65.36 19.8601 66.47 19.8601C66.986 19.8789 67.4964 19.7483 67.9399 19.484C68.3834 19.2197 68.7411 18.8329 68.97 18.3701L69.8 15.8401C68.2184 16.3728 66.6691 16.9972 65.16 17.7101L64.95 18.3701Z" fill="#6FD5CA"/>
<path d="M44.9199 0L67.6599 39L90.4099 0H44.9199ZM74.8699 12.14H69.2399C69.2399 12.14 71.0299 12.14 71.3399 11.2L72.3399 8.2C72.6099 7.37 71.9299 6.71001 70.8199 6.71001C70.3042 6.69241 69.7943 6.82353 69.351 7.08772C68.9078 7.3519 68.5498 7.73802 68.3199 8.2L65.4899 16.79C66.2799 16.44 67.1099 16.09 68.0099 15.79C69.8999 15.07 71.5699 14.58 72.5599 14.31L74.3799 13.75L73.6399 16C72.8599 18.39 69.6399 20.34 66.3599 20.34C65.0216 20.4119 63.706 19.9722 62.6799 19.11C62.0761 19.4805 61.4981 19.8914 60.9499 20.34H59.8199C60.5637 19.6715 61.367 19.0723 62.2199 18.55C61.9763 18.1769 61.8232 17.7521 61.7728 17.3094C61.7225 16.8666 61.7763 16.4183 61.9299 16L63.6999 10.62C64.4899 8.23 67.6999 6.28001 70.9799 6.28001C74.2599 6.28001 76.1999 8.22 75.4099 10.62L74.8699 12.14Z" fill="#6FD5CA"/>
<path d="M62.4498 16.1501C62.3228 16.4867 62.2766 16.8485 62.3148 17.2062C62.353 17.564 62.4746 17.9078 62.6698 18.2101L62.8298 18.4601L63.0398 18.6601C63.4548 19.045 63.9552 19.326 64.4998 19.4801C64.3904 19.2872 64.324 19.073 64.305 18.8521C64.286 18.6312 64.3149 18.4088 64.3898 18.2001L65.5398 14.6901H62.9298L62.4498 16.1501Z" fill="#6FD5CA"/>
<path d="M111.54 6.94002L112.31 6.85002H113.7C114.035 6.86862 114.369 6.90534 114.7 6.96002L115.1 5.35002C115.128 5.2327 115.129 5.1106 115.103 4.99284C115.077 4.87509 115.025 4.76473 114.95 4.67002C114.872 4.57545 114.775 4.49942 114.664 4.44752C114.553 4.39561 114.432 4.36913 114.31 4.37002H111.88C111.758 4.36913 111.637 4.39561 111.526 4.44752C111.415 4.49942 111.318 4.57545 111.24 4.67002C111.165 4.76473 111.113 4.87509 111.087 4.99284C111.061 5.1106 111.062 5.2327 111.09 5.35002L111.54 6.94002Z" fill="#FFCC00"/>
<path d="M107.95 8.89002C106.845 9.58804 105.929 10.5459 105.28 11.68V11.68C104.968 12.2349 104.736 12.8307 104.59 13.45V13.45V13.59V13.71V13.78C104.59 13.78 104.59 13.85 104.59 13.89V14.15C104.59 14.15 104.59 14.2 104.59 14.23C106.593 14.4111 108.611 14.3203 110.59 13.96C112.511 13.6127 114.37 12.9861 116.11 12.1L116.25 12.03L116.63 11.8C116.935 11.6102 117.228 11.4032 117.51 11.18L117.86 10.89L119.1 9.79003L118.32 11.25C118.218 11.4195 118.097 11.5771 117.96 11.72L117.8 11.89C117.575 12.1352 117.334 12.3656 117.08 12.58C118.551 13.4884 120.224 14.0207 121.95 14.13C121.839 13.2629 121.564 12.4247 121.14 11.66V11.66C120.498 10.5331 119.592 9.57902 118.5 8.88003C117.992 8.55033 117.453 8.27228 116.89 8.05003L116.7 7.97003L116.51 7.90003C116.072 7.75325 115.624 7.6396 115.17 7.56003V7.56003C113.993 7.34946 112.787 7.34946 111.61 7.56003V7.56003C110.397 7.76848 109.237 8.21727 108.2 8.88003L107.95 8.89002Z" fill="#FFCC00"/>
<path d="M104 11.45C103.904 11.4123 103.803 11.3919 103.7 11.39C103.559 11.3918 103.422 11.4297 103.3 11.5C103.193 11.5591 103.101 11.6423 103.032 11.743C102.962 11.8436 102.917 11.959 102.9 12.08L102.55 14.46C102.531 14.5788 102.54 14.7004 102.577 14.815C102.613 14.9296 102.676 15.0341 102.76 15.12C102.843 15.2094 102.946 15.2784 103.061 15.3217C103.175 15.3651 103.298 15.3816 103.42 15.37H103.82C103.82 15.31 103.82 15.24 103.82 15.17V14.92C103.82 14.82 103.82 14.72 103.82 14.62V14.42C103.82 14.42 103.82 14.42 103.82 14.36V14.04C103.818 14.0034 103.818 13.9667 103.82 13.93V13.86V13.72C103.953 13.0457 104.179 12.3929 104.49 11.78L104 11.45Z" fill="#FFCC00"/>
<path d="M117.7 15.4501C117.63 15.4501 117.57 15.6101 117.57 15.7901C117.57 15.9701 117.63 16.1301 117.7 16.1301C117.77 16.1301 117.83 15.9701 117.83 15.7901C117.83 15.6101 117.77 15.4501 117.7 15.4501Z" fill="#FFCC00"/>
<path d="M107.84 8.24999C108.802 7.67531 109.853 7.26629 110.95 7.03999L110.57 5.48C110.54 5.36196 110.485 5.25212 110.407 5.15864C110.329 5.06515 110.231 4.99042 110.12 4.93999C110.012 4.89457 109.897 4.87079 109.78 4.87C109.651 4.87092 109.525 4.90173 109.41 4.96L107.25 6.06C107.143 6.11599 107.049 6.19537 106.976 6.29228C106.904 6.3892 106.854 6.50119 106.83 6.62C106.806 6.73799 106.81 6.85988 106.841 6.97611C106.873 7.09235 106.93 7.19977 107.01 7.28999L107.84 8.24999Z" fill="#FFCC00"/>
<path d="M108.64 15.7901C108.64 15.9801 108.7 16.1301 108.77 16.1301C108.84 16.1301 108.9 15.9701 108.9 15.7901C108.9 15.6101 108.84 15.4501 108.77 15.4501C108.7 15.4501 108.64 15.6101 108.64 15.7901Z" fill="#FFCC00"/>
<path d="M116.21 12.91L116.05 12.8C114.306 13.6681 112.447 14.2843 110.53 14.6301C109.174 14.8787 107.798 15.0025 106.42 15C105.75 15 105.08 15 104.42 14.91V15.12C104.42 15.25 104.42 15.41 104.42 15.57V15.75C104.87 19.56 108.59 22.54 113.09 22.54C117.59 22.54 121.31 19.54 121.76 15.75V15.57C121.76 15.41 121.76 15.26 121.76 15.12C121.76 14.98 121.76 15.02 121.76 14.97C121.76 14.92 121.76 14.8601 121.76 14.8101C119.748 14.7034 117.804 14.0461 116.14 12.91M107.3 19.7401C106.79 19.7401 106.37 19.46 106.37 19.11C106.37 18.76 106.79 18.48 107.3 18.48C107.81 18.48 108.24 18.77 108.24 19.11C108.24 19.45 107.82 19.7401 107.3 19.7401ZM108.57 17.48C108.33 17.48 108.14 16.96 108.14 16.33C108.14 15.7 108.33 15.18 108.57 15.18C108.81 15.18 109 15.69 109 16.33C109 16.97 108.81 17.48 108.57 17.48ZM114.67 18.3C114.178 18.5854 113.619 18.7357 113.05 18.7357C112.481 18.7357 111.922 18.5854 111.43 18.3C111.386 18.2725 111.35 18.234 111.326 18.1885C111.301 18.1429 111.289 18.0918 111.29 18.04V18.04C111.291 17.9876 111.305 17.9364 111.332 17.891C111.358 17.8457 111.395 17.8077 111.44 17.7808C111.485 17.7538 111.536 17.7387 111.589 17.7368C111.641 17.7349 111.693 17.7464 111.74 17.7701C112.149 17.979 112.601 18.0879 113.06 18.0879C113.519 18.0879 113.971 17.979 114.38 17.7701C114.426 17.7486 114.477 17.7389 114.528 17.7419C114.579 17.7449 114.629 17.7604 114.672 17.7872C114.716 17.8139 114.752 17.8509 114.778 17.8951C114.804 17.9392 114.818 17.989 114.82 18.04C114.822 18.092 114.81 18.1435 114.785 18.1892C114.761 18.2349 114.724 18.2732 114.68 18.3M117.53 17.48C117.3 17.48 117.11 16.96 117.11 16.33C117.11 15.7 117.3 15.18 117.53 15.18C117.76 15.18 117.96 15.69 117.96 16.33C117.96 16.97 117.77 17.48 117.53 17.48ZM118.8 19.7401C118.29 19.7401 117.87 19.46 117.87 19.11C117.87 18.76 118.29 18.48 118.8 18.48C119.31 18.48 119.74 18.77 119.74 19.11C119.74 19.45 119.32 19.7401 118.8 19.7401Z" fill="#FFCC00"/>
<path d="M116.18 7.28008H116.28H116.39H116.44L116.6 7.33007L116.78 7.40007L116.97 7.47007L117.15 7.55008L117.32 7.62008L117.46 7.69008H117.52H117.63L117.73 7.74008H117.8L117.94 7.81008L118.29 8.01007L119.15 7.01007C119.228 6.91907 119.285 6.81159 119.316 6.69561C119.348 6.57962 119.352 6.4581 119.33 6.34008C119.306 6.22127 119.256 6.10928 119.184 6.01236C119.111 5.91545 119.017 5.83607 118.91 5.78008L116.75 4.69008C116.642 4.6354 116.523 4.60563 116.402 4.60298C116.281 4.60032 116.161 4.62484 116.05 4.67473C115.94 4.72462 115.842 4.79861 115.764 4.89125C115.686 4.9839 115.63 5.09285 115.6 5.21008L115.21 6.78008C115.47 6.84008 115.73 6.91008 115.99 6.98008" fill="#FFCC00"/>
<path d="M90.4099 0L113.16 39L135.9 0H90.4099ZM122.97 16H122.84H122.37C122.087 17.8579 121.138 19.5496 119.7 20.76C117.853 22.2946 115.527 23.1346 113.125 23.1346C110.723 23.1346 108.397 22.2946 106.55 20.76C105.092 19.5307 104.138 17.8078 103.87 15.92H103.48H103.35C102.973 15.913 102.614 15.7587 102.35 15.49C102.204 15.3374 102.095 15.1537 102.031 14.9527C101.967 14.7517 101.95 14.5388 101.98 14.33L102.34 11.95C102.372 11.742 102.45 11.5438 102.57 11.3706C102.689 11.1974 102.847 11.0536 103.03 10.95C103.129 10.8974 103.233 10.8539 103.34 10.82C103.286 10.7216 103.242 10.6176 103.21 10.51C103.152 10.3071 103.141 10.0938 103.178 9.88596C103.214 9.67817 103.297 9.48128 103.42 9.31001L104.84 7.31001C104.964 7.1372 105.125 6.99506 105.313 6.89451C105.5 6.79396 105.708 6.73769 105.92 6.73C106.033 6.71703 106.147 6.71703 106.26 6.73C106.248 6.62034 106.248 6.50966 106.26 6.4C106.299 6.18782 106.385 5.98734 106.514 5.81398C106.642 5.64062 106.808 5.49899 107 5.4L109.16 4.31001C109.352 4.21779 109.562 4.16991 109.775 4.16991C109.988 4.16991 110.198 4.21779 110.39 4.31001C110.504 4.3756 110.608 4.45634 110.7 4.55C110.747 4.44906 110.808 4.3549 110.88 4.27C111.011 4.10115 111.18 3.96467 111.372 3.87106C111.565 3.77745 111.776 3.7292 111.99 3.73H114.42C114.689 3.73133 114.952 3.80912 115.179 3.9543C115.405 4.09948 115.586 4.30607 115.7 4.55C115.789 4.47789 115.886 4.4174 115.99 4.37C116.182 4.27708 116.392 4.22881 116.605 4.22881C116.818 4.22881 117.028 4.27708 117.22 4.37L119.32 5.55C119.512 5.64838 119.679 5.78983 119.807 5.96329C119.935 6.13676 120.022 6.33756 120.06 6.55C120.072 6.65966 120.072 6.77034 120.06 6.88C120.173 6.86729 120.287 6.86729 120.4 6.88C120.612 6.88915 120.819 6.94607 121.006 7.04649C121.193 7.14692 121.355 7.28827 121.48 7.46001L122.89 9.46001C123.014 9.63095 123.097 9.82786 123.133 10.0358C123.17 10.2437 123.158 10.4572 123.1 10.66C123.068 10.7677 123.024 10.8716 122.97 10.97C123.077 11.0031 123.181 11.0467 123.28 11.1C123.463 11.2036 123.62 11.3474 123.74 11.5206C123.859 11.6938 123.938 11.892 123.97 12.1L124.33 14.48C124.359 14.6791 124.344 14.882 124.287 15.0749C124.231 15.2679 124.133 15.4463 124.001 15.5982C123.869 15.75 123.706 15.8716 123.523 15.9548C123.34 16.0379 123.141 16.0806 122.94 16.08" fill="#FFCC00"/>
<path d="M121.36 11.19L122.08 10.9C122.191 10.8551 122.291 10.786 122.372 10.6978C122.454 10.6096 122.514 10.5045 122.55 10.39C122.584 10.2734 122.59 10.1507 122.569 10.0312C122.549 9.91162 122.501 9.79837 122.43 9.69999L121.02 7.69999C120.947 7.60274 120.853 7.52297 120.745 7.46649C120.637 7.41001 120.518 7.37822 120.397 7.37344C120.275 7.36865 120.154 7.39099 120.042 7.43882C119.93 7.48665 119.83 7.55878 119.75 7.64999L118.94 8.57999C119.921 9.25656 120.749 10.1322 121.37 11.15" fill="#FFCC00"/>
<path d="M104.22 10.9001L104.87 11.1601C105.496 10.1258 106.334 9.23613 107.33 8.55007L106.55 7.65007C106.474 7.56383 106.38 7.49506 106.274 7.44846C106.169 7.40186 106.055 7.37854 105.94 7.38008V7.38008C105.818 7.38355 105.699 7.41514 105.591 7.47238C105.484 7.52963 105.391 7.61099 105.32 7.71008L103.9 9.71008C103.829 9.80846 103.781 9.92171 103.76 10.0412C103.74 10.1608 103.746 10.2835 103.78 10.4001C103.814 10.5156 103.874 10.6217 103.955 10.7102C104.037 10.7987 104.138 10.8671 104.25 10.9101" fill="#FFCC00"/>
<path d="M123.41 12.08C123.392 11.9592 123.347 11.8441 123.277 11.7436C123.208 11.6431 123.116 11.5597 123.01 11.5C122.899 11.4468 122.778 11.4192 122.655 11.4192C122.532 11.4192 122.411 11.4468 122.3 11.5L121.65 11.76C121.864 12.1886 122.035 12.6375 122.16 13.1V13.22V13.29V13.39V13.48C122.158 13.51 122.158 13.54 122.16 13.57V13.67C122.162 13.6967 122.162 13.7234 122.16 13.75V13.86V13.94C122.158 13.9766 122.158 14.0134 122.16 14.05C122.158 14.0766 122.158 14.1034 122.16 14.13V14.26C122.162 14.2833 122.162 14.3067 122.16 14.33C122.16 14.39 122.16 14.46 122.16 14.52C122.16 14.58 122.16 14.84 122.16 14.99C122.16 15.14 122.16 15.09 122.16 15.15C122.16 15.21 122.16 15.28 122.16 15.34H122.63C122.752 15.3516 122.875 15.3351 122.989 15.2917C123.103 15.2484 123.206 15.1794 123.29 15.09C123.373 15.0036 123.436 14.8991 123.472 14.7846C123.509 14.6701 123.518 14.5488 123.5 14.43L123.41 12.08Z" fill="#FFCC00"/>
<path d="M293.48 6.94002L294.25 6.85002H295.7C296.035 6.86862 296.369 6.90534 296.7 6.96002L297.1 5.35002C297.128 5.2327 297.129 5.1106 297.103 4.99284C297.077 4.87509 297.025 4.76473 296.95 4.67002C296.872 4.57545 296.775 4.49942 296.664 4.44752C296.553 4.39561 296.432 4.36913 296.31 4.37002H293.88C293.758 4.36913 293.637 4.39561 293.526 4.44752C293.415 4.49942 293.318 4.57545 293.24 4.67002C293.165 4.76473 293.113 4.87509 293.087 4.99284C293.061 5.1106 293.062 5.2327 293.09 5.35002L293.48 6.94002Z" fill="#FF5561"/>
<path d="M289.89 8.88999C288.786 9.58801 287.869 10.5459 287.22 11.68V11.68C286.908 12.2349 286.676 12.8307 286.53 13.45V13.45V13.59V13.71V13.78C286.53 13.78 286.53 13.85 286.53 13.89V14.15C286.53 14.15 286.53 14.2 286.53 14.23C288.533 14.4111 290.551 14.3203 292.53 13.96C294.451 13.6127 296.311 12.9861 298.05 12.1L298.19 12.03L298.57 11.8C298.875 11.6102 299.169 11.4032 299.45 11.18L299.8 10.89L301.04 9.78999L300.26 11.25C300.158 11.4195 300.037 11.5771 299.9 11.72L299.74 11.89C299.515 12.1351 299.275 12.3656 299.02 12.58C300.427 13.4911 302.032 14.0533 303.7 14.22V14.22C303.589 13.3528 303.314 12.5147 302.89 11.75V11.75C302.248 10.623 301.342 9.66899 300.25 8.97C299.742 8.6403 299.203 8.36224 298.64 8.13999V8.13999L298.45 8.06L298.26 7.99C297.823 7.84322 297.375 7.72956 296.92 7.65V7.65C295.743 7.43942 294.537 7.43942 293.36 7.65V7.65C292.147 7.85845 290.987 8.30723 289.95 8.97L289.89 8.88999Z" fill="#FF5561"/>
<path d="M285.94 11.45C285.844 11.4123 285.743 11.3919 285.64 11.39C285.499 11.3918 285.362 11.4297 285.24 11.5C285.133 11.5591 285.041 11.6423 284.972 11.743C284.902 11.8436 284.857 11.959 284.84 12.08L284.49 14.46C284.471 14.5788 284.48 14.7004 284.516 14.815C284.553 14.9296 284.616 15.0341 284.7 15.12C284.783 15.2094 284.886 15.2784 285.001 15.3217C285.115 15.3651 285.238 15.3816 285.36 15.37H285.76C285.76 15.31 285.76 15.24 285.76 15.17V14.92C285.76 14.82 285.76 14.72 285.76 14.62V14.42C285.76 14.42 285.76 14.42 285.76 14.36V14.04C285.758 14.0034 285.758 13.9667 285.76 13.93V13.86V13.72C285.893 13.0457 286.119 12.3929 286.43 11.78L285.94 11.45Z" fill="#FF5561"/>
<path d="M299.7 15.4501C299.63 15.4501 299.57 15.6101 299.57 15.7901C299.57 15.9701 299.63 16.1301 299.7 16.1301C299.77 16.1301 299.83 15.9701 299.83 15.7901C299.83 15.6101 299.77 15.4501 299.7 15.4501Z" fill="#FF5561"/>
<path d="M289.79 8.24999C290.752 7.67531 291.803 7.26629 292.9 7.03999L292.52 5.48C292.49 5.36196 292.434 5.25212 292.357 5.15864C292.279 5.06515 292.181 4.99042 292.07 4.93999C291.962 4.89457 291.847 4.87079 291.73 4.87C291.601 4.87092 291.475 4.90173 291.36 4.96L289.2 6.06C289.093 6.11599 288.999 6.19537 288.926 6.29228C288.854 6.3892 288.804 6.50119 288.78 6.62C288.756 6.73799 288.76 6.85988 288.791 6.97611C288.823 7.09235 288.88 7.19977 288.96 7.28999L289.79 8.24999Z" fill="#FF5561"/>
<path d="M290.58 15.7901C290.58 15.9801 290.64 16.1301 290.71 16.1301C290.78 16.1301 290.84 15.9701 290.84 15.7901C290.84 15.6101 290.78 15.4501 290.71 15.4501C290.64 15.4501 290.58 15.6101 290.58 15.7901Z" fill="#FF5561"/>
<path d="M298.15 12.91L297.99 12.8C296.246 13.6681 294.387 14.2843 292.47 14.6301C291.114 14.8787 289.738 15.0025 288.36 15C287.69 15 287.02 15 286.36 14.91V15.12C286.36 15.25 286.36 15.41 286.36 15.57V15.75C286.81 19.56 290.53 22.54 295.03 22.54C299.53 22.54 303.25 19.54 303.7 15.75V15.57C303.7 15.41 303.7 15.26 303.7 15.12C303.7 14.98 303.7 15.02 303.7 14.97C303.7 14.92 303.7 14.8601 303.7 14.8101C301.688 14.7034 299.744 14.0461 298.08 12.91M289.24 19.7401C288.73 19.7401 288.31 19.46 288.31 19.11C288.31 18.76 288.73 18.48 289.24 18.48C289.75 18.48 290.18 18.77 290.18 19.11C290.18 19.45 289.76 19.7401 289.24 19.7401ZM290.51 17.48C290.27 17.48 290.08 16.96 290.08 16.33C290.08 15.7 290.27 15.18 290.51 15.18C290.75 15.18 290.94 15.69 290.94 16.33C290.94 16.97 290.75 17.48 290.51 17.48ZM296.61 18.3C296.118 18.5854 295.559 18.7357 294.99 18.7357C294.421 18.7357 293.862 18.5854 293.37 18.3C293.326 18.2725 293.29 18.234 293.266 18.1885C293.241 18.1429 293.229 18.0918 293.23 18.04V18.04C293.231 17.9876 293.245 17.9364 293.272 17.891C293.298 17.8457 293.335 17.8077 293.38 17.7808C293.425 17.7538 293.476 17.7387 293.529 17.7368C293.581 17.7349 293.633 17.7464 293.68 17.7701C294.089 17.979 294.541 18.0879 295 18.0879C295.459 18.0879 295.911 17.979 296.32 17.7701C296.366 17.7486 296.417 17.7389 296.468 17.7419C296.519 17.7449 296.569 17.7604 296.612 17.7872C296.656 17.8139 296.692 17.8509 296.718 17.8951C296.744 17.9392 296.758 17.989 296.76 18.04C296.762 18.092 296.75 18.1435 296.725 18.1892C296.701 18.2349 296.664 18.2732 296.62 18.3M299.47 17.48C299.24 17.48 299.05 16.96 299.05 16.33C299.05 15.7 299.24 15.18 299.47 15.18C299.7 15.18 299.9 15.69 299.9 16.33C299.9 16.97 299.71 17.48 299.47 17.48ZM300.74 19.7401C300.23 19.7401 299.81 19.46 299.81 19.11C299.81 18.76 300.23 18.48 300.74 18.48C301.25 18.48 301.68 18.77 301.68 19.11C301.68 19.45 301.26 19.7401 300.74 19.7401Z" fill="#FF5561"/>
<path d="M298.12 7.28008H298.22H298.33H298.38L298.54 7.33007L298.72 7.40007L298.91 7.47007L299.09 7.55008L299.26 7.62008L299.4 7.69008H299.46H299.57L299.67 7.74008H299.74L299.88 7.81008L300.23 8.01007L301.09 7.01007C301.168 6.91907 301.225 6.81159 301.256 6.69561C301.287 6.57962 301.292 6.4581 301.27 6.34008C301.246 6.22127 301.196 6.10928 301.124 6.01236C301.051 5.91545 300.957 5.83607 300.85 5.78008L298.69 4.69008C298.582 4.6354 298.463 4.60563 298.342 4.60298C298.221 4.60032 298.101 4.62484 297.99 4.67473C297.88 4.72462 297.782 4.79861 297.704 4.89125C297.626 4.9839 297.57 5.09285 297.54 5.21008L297.15 6.78008C297.41 6.84008 297.67 6.91008 297.93 6.98008" fill="#FF5561"/>
<path d="M272.35 0L295.1 39L317.84 0H272.35ZM304.91 16H304.78H304.31C304.045 17.8917 303.09 19.6189 301.63 20.85C299.782 22.3846 297.456 23.2246 295.055 23.2246C292.653 23.2246 290.327 22.3846 288.48 20.85C287.022 19.6207 286.068 17.8978 285.8 16.01H285.41H285.28C284.903 16.003 284.544 15.8487 284.28 15.58C284.134 15.4274 284.025 15.2437 283.961 15.0427C283.897 14.8417 283.879 14.6288 283.91 14.42L284.27 12.04C284.302 11.832 284.38 11.6339 284.5 11.4606C284.619 11.2874 284.777 11.1436 284.96 11.04C285.059 10.9874 285.163 10.9439 285.27 10.91C285.216 10.8116 285.172 10.7076 285.14 10.6C285.082 10.3971 285.071 10.1838 285.107 9.97597C285.144 9.76817 285.227 9.57128 285.35 9.4L286.77 7.4C286.894 7.2272 287.055 7.08506 287.242 6.98451C287.43 6.88396 287.637 6.82768 287.85 6.82C287.963 6.80703 288.077 6.80703 288.19 6.82C288.178 6.71034 288.178 6.59967 288.19 6.49001C288.229 6.27783 288.315 6.07734 288.444 5.90398C288.572 5.73061 288.738 5.58899 288.93 5.49001L291.09 4.4C291.282 4.30779 291.492 4.25992 291.705 4.25992C291.918 4.25992 292.128 4.30779 292.32 4.4C292.423 4.44838 292.521 4.50879 292.61 4.58C292.657 4.47906 292.718 4.38489 292.79 4.3C292.921 4.13115 293.09 3.99467 293.282 3.90106C293.475 3.80745 293.686 3.7592 293.9 3.76H296.33C296.599 3.76133 296.862 3.83912 297.089 3.9843C297.315 4.12948 297.496 4.33607 297.61 4.58C297.698 4.50789 297.796 4.44739 297.9 4.4C298.092 4.30708 298.302 4.25881 298.515 4.25881C298.728 4.25881 298.938 4.30708 299.13 4.4L301.27 5.55C301.462 5.64838 301.629 5.78983 301.757 5.96329C301.885 6.13676 301.972 6.33756 302.01 6.55C302.022 6.65966 302.022 6.77034 302.01 6.88C302.123 6.86729 302.237 6.86729 302.35 6.88C302.562 6.88915 302.769 6.94607 302.956 7.04649C303.143 7.14692 303.305 7.28827 303.43 7.46001L304.84 9.46001C304.964 9.63095 305.047 9.82786 305.083 10.0358C305.12 10.2437 305.108 10.4572 305.05 10.66C305.018 10.7677 304.974 10.8716 304.92 10.97C305.027 11.0031 305.131 11.0467 305.23 11.1C305.413 11.2036 305.57 11.3474 305.69 11.5206C305.809 11.6938 305.888 11.892 305.92 12.1L306.28 14.48C306.309 14.6791 306.294 14.882 306.237 15.0749C306.181 15.2679 306.083 15.4463 305.951 15.5982C305.819 15.75 305.656 15.8716 305.473 15.9548C305.29 16.0379 305.091 16.0806 304.89 16.08" fill="#FF5561"/>
<path d="M303.31 11.19L304.03 10.9C304.141 10.8551 304.241 10.786 304.322 10.6978C304.404 10.6096 304.464 10.5045 304.5 10.39C304.534 10.2734 304.54 10.1507 304.519 10.0312C304.499 9.91162 304.451 9.79837 304.38 9.69999L302.97 7.69999C302.897 7.60274 302.803 7.52297 302.695 7.46649C302.587 7.41001 302.468 7.37822 302.347 7.37344C302.225 7.36865 302.104 7.39099 301.992 7.43882C301.88 7.48665 301.78 7.55878 301.7 7.64999L300.89 8.57999C301.871 9.25656 302.699 10.1322 303.32 11.15" fill="#FF5561"/>
<path d="M286.17 10.9001L286.82 11.1601C287.446 10.1258 288.284 9.23613 289.28 8.55007L288.5 7.65007C288.424 7.56383 288.33 7.49506 288.224 7.44846C288.119 7.40186 288.005 7.37854 287.89 7.38008C287.768 7.38355 287.649 7.41514 287.541 7.47238C287.434 7.52963 287.341 7.61099 287.27 7.71008L285.85 9.71008C285.779 9.80846 285.731 9.92171 285.71 10.0412C285.69 10.1608 285.696 10.2835 285.73 10.4001C285.764 10.5156 285.824 10.6217 285.905 10.7102C285.987 10.7987 286.087 10.8671 286.2 10.9101" fill="#FF5561"/>
<path d="M305.35 12.08C305.332 11.9592 305.287 11.8441 305.217 11.7436C305.148 11.6431 305.057 11.5597 304.95 11.5C304.839 11.4468 304.718 11.4192 304.595 11.4192C304.472 11.4192 304.351 11.4468 304.24 11.5L303.59 11.76C303.804 12.1886 303.975 12.6375 304.1 13.1V13.1V13.22V13.29V13.39V13.48C304.099 13.51 304.099 13.54 304.1 13.57V13.67C304.102 13.6967 304.102 13.7234 304.1 13.75V13.86V13.94C304.098 13.9766 304.098 14.0134 304.1 14.05C304.098 14.0766 304.098 14.1034 304.1 14.13V14.26C304.102 14.2833 304.102 14.3067 304.1 14.33C304.1 14.39 304.1 14.46 304.1 14.52C304.1 14.58 304.1 14.84 304.1 14.99C304.1 15.14 304.1 15.09 304.1 15.15C304.1 15.21 304.1 15.28 304.1 15.34H304.57C304.692 15.3516 304.815 15.3351 304.929 15.2917C305.044 15.2484 305.147 15.1794 305.23 15.09C305.314 15.0036 305.376 14.8991 305.412 14.7846C305.449 14.6701 305.458 14.5488 305.44 14.43L305.35 12.08Z" fill="#FF5561"/>
<path d="M201.95 6.94002L202.72 6.85002H204.15C204.485 6.86862 204.819 6.90534 205.15 6.96002L205.55 5.35002C205.578 5.2327 205.579 5.1106 205.553 4.99284C205.527 4.87509 205.475 4.76473 205.4 4.67002C205.322 4.57545 205.225 4.49942 205.114 4.44752C205.003 4.39561 204.882 4.36913 204.76 4.37002H202.33C202.208 4.36913 202.087 4.39561 201.976 4.44752C201.865 4.49942 201.768 4.57545 201.69 4.67002C201.615 4.76473 201.563 4.87509 201.537 4.99284C201.511 5.1106 201.512 5.2327 201.54 5.35002L201.95 6.94002Z" fill="#6FD5CA"/>
<path d="M198.36 8.89008C197.259 9.58936 196.346 10.5472 195.7 11.6801C195.388 12.2349 195.156 12.8307 195.01 13.4501V13.5901V13.7101V13.7801C195.01 13.7801 195.01 13.8501 195.01 13.8901V14.1501C195.01 14.1501 195.01 14.2001 195.01 14.2301C197.013 14.4112 199.031 14.3204 201.01 13.9601C202.931 13.6128 204.791 12.9861 206.53 12.1001L206.67 12.0301L207.05 11.8001C207.355 11.6102 207.649 11.4032 207.93 11.1801L208.28 10.8901L209.52 9.79008L208.74 11.2501C208.638 11.4196 208.517 11.5772 208.38 11.7201L208.22 11.8901C207.995 12.1352 207.755 12.3657 207.5 12.5801C208.972 13.4884 210.644 14.0208 212.37 14.1301C212.259 13.2629 211.984 12.4248 211.56 11.6601V11.6601C210.85 10.5251 209.867 9.58645 208.7 8.93008C208.192 8.60038 207.653 8.32233 207.09 8.10008V8.10008L206.9 8.02008L206.71 7.95008C206.272 7.8033 205.825 7.68964 205.37 7.61008V7.61008C204.193 7.39951 202.987 7.39951 201.81 7.61008V7.61008C200.597 7.81853 199.437 8.26732 198.4 8.93008L198.36 8.89008Z" fill="#6FD5CA"/>
<path d="M194.41 11.45C194.314 11.4123 194.213 11.3919 194.11 11.39C193.969 11.3918 193.832 11.4297 193.71 11.5C193.603 11.5591 193.511 11.6423 193.442 11.743C193.372 11.8436 193.327 11.959 193.31 12.08L192.96 14.46C192.941 14.5788 192.95 14.7004 192.986 14.815C193.023 14.9296 193.086 15.0341 193.17 15.12C193.253 15.2094 193.356 15.2784 193.471 15.3217C193.585 15.3651 193.708 15.3816 193.83 15.37H194.23C194.23 15.31 194.23 15.24 194.23 15.17V14.92C194.23 14.82 194.23 14.72 194.23 14.62V14.42C194.23 14.42 194.23 14.42 194.23 14.36V14.04C194.228 14.0034 194.228 13.9667 194.23 13.93V13.86V13.72C194.363 13.0457 194.589 12.3929 194.9 11.78L194.41 11.45Z" fill="#6FD5CA"/>
<path d="M208.13 15.4501C208.06 15.4501 208 15.6101 208 15.7901C208 15.9701 208.06 16.1301 208.13 16.1301C208.2 16.1301 208.26 15.9701 208.26 15.7901C208.26 15.6101 208.2 15.4501 208.13 15.4501Z" fill="#6FD5CA"/>
<path d="M198.25 8.24999C199.212 7.67531 200.263 7.26629 201.36 7.03999L200.98 5.48C200.95 5.36196 200.894 5.25212 200.817 5.15864C200.739 5.06515 200.641 4.99042 200.53 4.93999C200.422 4.89457 200.307 4.87079 200.19 4.87C200.061 4.87092 199.935 4.90173 199.82 4.96L197.7 6.06C197.593 6.11599 197.499 6.19537 197.426 6.29228C197.354 6.3892 197.304 6.50119 197.28 6.62C197.256 6.73799 197.26 6.85988 197.291 6.97611C197.323 7.09235 197.38 7.19977 197.46 7.28999L198.25 8.24999Z" fill="#6FD5CA"/>
<path d="M199.05 15.7901C199.05 15.9801 199.11 16.1301 199.18 16.1301C199.25 16.1301 199.31 15.9701 199.31 15.7901C199.31 15.6101 199.25 15.4501 199.18 15.4501C199.11 15.4501 199.05 15.6101 199.05 15.7901Z" fill="#6FD5CA"/>
<path d="M206.62 12.91L206.46 12.8C204.716 13.6681 202.857 14.2843 200.94 14.6301C199.584 14.8787 198.208 15.0025 196.83 15C196.16 15 195.49 15 194.83 14.91V15.12C194.83 15.25 194.83 15.41 194.83 15.57V15.75C195.28 19.56 199 22.54 203.5 22.54C208 22.54 211.72 19.54 212.17 15.75V15.57C212.17 15.41 212.17 15.26 212.17 15.12C212.17 14.98 212.17 15.02 212.17 14.97C212.17 14.92 212.17 14.8601 212.17 14.8101C210.158 14.7034 208.214 14.0461 206.55 12.91M197.71 19.7401C197.2 19.7401 196.78 19.46 196.78 19.11C196.78 18.76 197.2 18.48 197.71 18.48C198.22 18.48 198.65 18.77 198.65 19.11C198.65 19.45 198.23 19.7401 197.71 19.7401ZM198.98 17.48C198.74 17.48 198.55 16.96 198.55 16.33C198.55 15.7 198.74 15.18 198.98 15.18C199.22 15.18 199.41 15.69 199.41 16.33C199.41 16.97 199.22 17.48 198.98 17.48ZM205.08 18.3C204.588 18.5854 204.029 18.7357 203.46 18.7357C202.891 18.7357 202.332 18.5854 201.84 18.3C201.796 18.2725 201.76 18.234 201.736 18.1885C201.711 18.1429 201.699 18.0918 201.7 18.04V18.04C201.701 17.9876 201.715 17.9364 201.742 17.891C201.768 17.8457 201.805 17.8077 201.85 17.7808C201.895 17.7538 201.946 17.7387 201.999 17.7368C202.051 17.7349 202.103 17.7464 202.15 17.7701C202.558 17.979 203.011 18.0879 203.47 18.0879C203.929 18.0879 204.381 17.979 204.79 17.7701C204.836 17.7486 204.887 17.7389 204.938 17.7419C204.989 17.7449 205.039 17.7604 205.082 17.7872C205.126 17.8139 205.162 17.8509 205.188 17.8951C205.214 17.9392 205.228 17.989 205.23 18.04C205.232 18.092 205.22 18.1435 205.195 18.1892C205.171 18.2349 205.134 18.2732 205.09 18.3M207.94 17.48C207.71 17.48 207.52 16.96 207.52 16.33C207.52 15.7 207.71 15.18 207.94 15.18C208.17 15.18 208.37 15.69 208.37 16.33C208.37 16.97 208.18 17.48 207.94 17.48ZM209.21 19.7401C208.7 19.7401 208.28 19.46 208.28 19.11C208.28 18.76 208.7 18.48 209.21 18.48C209.72 18.48 210.15 18.77 210.15 19.11C210.15 19.45 209.73 19.7401 209.21 19.7401Z" fill="#6FD5CA"/>
<path d="M206.59 7.28008H206.69H206.8H206.85L207.01 7.33007L207.19 7.40007L207.38 7.47007L207.56 7.55008L207.73 7.62008L207.87 7.69008H207.93H208.04L208.14 7.74008H208.21L208.35 7.81008L208.7 8.01007L209.56 7.01007C209.638 6.91907 209.695 6.81159 209.726 6.69561C209.757 6.57962 209.762 6.4581 209.74 6.34008C209.716 6.22127 209.666 6.10928 209.593 6.01236C209.521 5.91545 209.427 5.83607 209.32 5.78008L207.16 4.69008C207.052 4.6354 206.933 4.60563 206.812 4.60298C206.691 4.60032 206.571 4.62484 206.46 4.67473C206.35 4.72462 206.252 4.79861 206.174 4.89125C206.096 4.9839 206.04 5.09285 206.01 5.21008L205.62 6.78008C205.88 6.84008 206.14 6.91008 206.4 6.98008" fill="#6FD5CA"/>
<path d="M180.82 0L203.57 39L226.31 0H180.82ZM213.38 16H213.25H212.78C212.515 17.8917 211.561 19.6189 210.1 20.85C208.253 22.3846 205.927 23.2246 203.525 23.2246C201.123 23.2246 198.797 22.3846 196.95 20.85C195.492 19.6207 194.538 17.8978 194.27 16.01H193.88H193.7C193.323 16.003 192.964 15.8487 192.7 15.58C192.554 15.4274 192.445 15.2437 192.381 15.0427C192.317 14.8417 192.3 14.6288 192.33 14.42L192.69 12.04C192.722 11.832 192.801 11.6339 192.92 11.4606C193.04 11.2874 193.197 11.1436 193.38 11.04C193.479 10.9874 193.583 10.9439 193.69 10.91C193.636 10.8116 193.592 10.7076 193.56 10.6C193.502 10.3971 193.491 10.1838 193.528 9.97597C193.564 9.76817 193.647 9.57128 193.77 9.4L195.19 7.4C195.314 7.2272 195.475 7.08506 195.663 6.98451C195.85 6.88396 196.058 6.82768 196.27 6.82C196.383 6.80703 196.497 6.80703 196.61 6.82C196.598 6.71034 196.598 6.59967 196.61 6.49001C196.649 6.27783 196.736 6.07734 196.864 5.90398C196.992 5.73061 197.158 5.58899 197.35 5.49001L199.51 4.4C199.702 4.30779 199.912 4.25992 200.125 4.25992C200.338 4.25992 200.548 4.30779 200.74 4.4C200.843 4.44838 200.941 4.50879 201.03 4.58C201.077 4.47906 201.138 4.38489 201.21 4.3C201.342 4.13115 201.51 3.99467 201.702 3.90106C201.895 3.80745 202.106 3.7592 202.32 3.76H204.75C205.019 3.76133 205.282 3.83912 205.509 3.9843C205.736 4.12948 205.916 4.33607 206.03 4.58C206.119 4.50789 206.216 4.44739 206.32 4.4C206.512 4.30708 206.722 4.25881 206.935 4.25881C207.148 4.25881 207.358 4.30708 207.55 4.4L209.7 5.55C209.892 5.64838 210.059 5.78983 210.187 5.96329C210.316 6.13676 210.402 6.33756 210.44 6.55C210.452 6.65966 210.452 6.77034 210.44 6.88C210.553 6.86729 210.667 6.86729 210.78 6.88C210.992 6.88915 211.199 6.94607 211.386 7.04649C211.573 7.14692 211.735 7.28827 211.86 7.46001L213.27 9.46001C213.394 9.63095 213.477 9.82786 213.514 10.0358C213.55 10.2437 213.538 10.4572 213.48 10.66C213.448 10.7677 213.404 10.8716 213.35 10.97C213.457 11.0031 213.561 11.0467 213.66 11.1C213.843 11.2036 214.001 11.3474 214.12 11.5206C214.24 11.6938 214.318 11.892 214.35 12.1L214.71 14.48C214.739 14.6791 214.724 14.882 214.668 15.0749C214.611 15.2679 214.513 15.4463 214.381 15.5982C214.249 15.75 214.086 15.8716 213.903 15.9548C213.72 16.0379 213.521 16.0806 213.32 16.08" fill="#6FD5CA"/>
<path d="M211.78 11.19L212.5 10.9C212.611 10.8551 212.711 10.786 212.792 10.6978C212.873 10.6096 212.934 10.5045 212.97 10.39C213.003 10.2734 213.01 10.1507 212.989 10.0312C212.969 9.91162 212.921 9.79837 212.85 9.69999L211.44 7.69999C211.367 7.60274 211.273 7.52297 211.165 7.46649C211.057 7.41001 210.938 7.37822 210.817 7.37344C210.695 7.36865 210.574 7.39099 210.462 7.43882C210.35 7.48665 210.25 7.55878 210.17 7.64999L209.36 8.57999C210.341 9.25656 211.169 10.1322 211.79 11.15" fill="#6FD5CA"/>
<path d="M194.64 10.9001L195.29 11.1601C195.901 10.1308 196.723 9.24152 197.7 8.55007L196.92 7.65007C196.844 7.56383 196.75 7.49506 196.644 7.44846C196.539 7.40186 196.425 7.37854 196.31 7.38008V7.38008C196.188 7.38355 196.069 7.41514 195.961 7.47238C195.854 7.52963 195.761 7.61099 195.69 7.71008L194.27 9.71008C194.199 9.80846 194.151 9.92171 194.13 10.0412C194.11 10.1608 194.116 10.2835 194.15 10.4001C194.184 10.5156 194.244 10.6217 194.325 10.7102C194.407 10.7987 194.508 10.8671 194.62 10.9101" fill="#6FD5CA"/>
<path d="M213.82 12.08C213.802 11.9592 213.756 11.8441 213.687 11.7436C213.618 11.6431 213.526 11.5597 213.42 11.5C213.309 11.4468 213.188 11.4192 213.065 11.4192C212.942 11.4192 212.821 11.4468 212.71 11.5L212.06 11.76C212.274 12.1886 212.445 12.6375 212.57 13.1V13.1V13.22V13.29V13.39V13.48C212.568 13.51 212.568 13.54 212.57 13.57V13.67C212.572 13.6967 212.572 13.7234 212.57 13.75V13.86V13.94C212.567 13.9766 212.567 14.0134 212.57 14.05C212.567 14.0766 212.567 14.1034 212.57 14.13V14.26C212.572 14.2833 212.572 14.3067 212.57 14.33C212.57 14.39 212.57 14.46 212.57 14.52C212.57 14.58 212.57 14.84 212.57 14.99C212.57 15.14 212.57 15.09 212.57 15.15C212.57 15.21 212.57 15.28 212.57 15.34H213.04C213.162 15.3516 213.284 15.3351 213.399 15.2917C213.513 15.2484 213.616 15.1794 213.7 15.09C213.783 15.0036 213.846 14.8991 213.882 14.7846C213.919 14.6701 213.928 14.5488 213.91 14.43L213.82 12.08Z" fill="#6FD5CA"/>
<path d="M159.56 19.2301C160.423 18.9764 161.22 18.537 161.896 17.9428C162.571 17.3486 163.109 16.6138 163.47 15.7901L163.84 14.6801H163.61L163.11 14.8401C162.55 15.0001 161.81 15.2101 160.96 15.4801L159.96 18.5401C159.875 18.7877 159.747 19.018 159.58 19.2201" fill="#FF5561"/>
<path d="M155.36 18.3701C155.09 19.2001 155.77 19.8601 156.88 19.8601C157.396 19.8777 157.906 19.7466 158.349 19.4824C158.792 19.2182 159.15 18.8321 159.38 18.3701L160.21 15.8401C158.628 16.3722 157.079 16.9966 155.57 17.7101L155.36 18.3701Z" fill="#FF5561"/>
<path d="M135.33 0L158.07 39L180.82 0H135.33ZM165.28 12.14H159.65C159.65 12.14 161.44 12.14 161.75 11.2L162.75 8.2C163.02 7.37 162.34 6.71001 161.23 6.71001C160.714 6.69116 160.203 6.82175 159.76 7.08608C159.316 7.35041 158.959 7.73722 158.73 8.2L155.9 16.79C156.686 16.4367 157.526 16.1033 158.42 15.79C160.31 15.07 161.98 14.58 162.97 14.31L164.78 13.75L164.04 16C163.25 18.39 160.04 20.34 156.76 20.34C155.422 20.4099 154.107 19.9704 153.08 19.11C152.48 19.4816 151.905 19.8925 151.36 20.34H150.2C150.944 19.6724 151.748 19.0733 152.6 18.55C152.356 18.1769 152.203 17.7521 152.153 17.3094C152.102 16.8666 152.156 16.4183 152.31 16L154.08 10.64C154.86 8.25 158.08 6.3 161.36 6.3C164.64 6.3 166.58 8.24 165.79 10.64L165.28 12.14Z" fill="#FF5561"/>
<path d="M152.86 16.1501C152.734 16.4875 152.69 16.8496 152.73 17.2074C152.77 17.5652 152.893 17.9087 153.09 18.2101L153.25 18.4601L153.45 18.6601C153.865 19.0447 154.366 19.3256 154.91 19.4801C154.801 19.2872 154.734 19.073 154.715 18.8521C154.696 18.6312 154.725 18.4088 154.8 18.2001L155.95 14.6901H153.33L152.86 16.1501Z" fill="#FF5561"/>
<path d="M342.06 19.2301C342.922 18.9751 343.719 18.5353 344.394 17.9413C345.069 17.3472 345.607 16.6131 345.97 15.7901L346.33 14.6801H346.1L345.6 14.8401C345.04 15.0001 344.3 15.2101 343.45 15.4801L342.45 18.5401C342.365 18.7877 342.236 19.018 342.07 19.2201" fill="#6FD5CA"/>
<path d="M337.86 18.3701C337.59 19.2001 338.27 19.8601 339.38 19.8601C339.896 19.8789 340.406 19.7483 340.85 19.484C341.293 19.2197 341.651 18.8329 341.88 18.3701L342.71 15.8401C341.128 16.3728 339.579 16.9972 338.07 17.7101L337.86 18.3701Z" fill="#6FD5CA"/>
<path d="M317.84 0L340.58 39L363.33 0H317.84ZM347.79 12.14H342.16C342.16 12.14 343.95 12.14 344.26 11.2L345.26 8.2C345.53 7.37 344.85 6.71001 343.74 6.71001C343.224 6.69241 342.714 6.82353 342.271 7.08772C341.828 7.3519 341.47 7.73802 341.24 8.2L338.41 16.79C339.2 16.44 340.03 16.09 340.93 15.79C342.82 15.07 344.49 14.58 345.48 14.31L347.3 13.75L346.56 16C345.78 18.39 342.56 20.34 339.28 20.34C337.942 20.4119 336.626 19.9722 335.6 19.11C334.996 19.4805 334.418 19.8914 333.87 20.34H332.7C333.444 19.6715 334.247 19.0723 335.1 18.55C334.856 18.1769 334.703 17.7521 334.653 17.3094C334.603 16.8666 334.656 16.4183 334.81 16L336.58 10.64C337.37 8.25 340.58 6.3 343.86 6.3C347.14 6.3 349.08 8.24 348.29 10.64L347.79 12.14Z" fill="#6FD5CA"/>
<path d="M335.36 16.1501C335.233 16.4867 335.187 16.8485 335.225 17.2062C335.263 17.564 335.385 17.9078 335.58 18.2101L335.74 18.4601L335.95 18.6601C336.365 19.045 336.865 19.326 337.41 19.4801C337.301 19.2872 337.234 19.073 337.215 18.8521C337.196 18.6312 337.225 18.4088 337.3 18.2001L338.45 14.6901H335.84L335.36 16.1501Z" fill="#6FD5CA"/>
<path d="M384.45 6.94002L385.22 6.85002H386.65C386.985 6.86862 387.319 6.90534 387.65 6.96002L388.05 5.35002C388.078 5.2327 388.079 5.1106 388.053 4.99284C388.027 4.87509 387.975 4.76473 387.9 4.67002C387.822 4.57545 387.725 4.49942 387.614 4.44752C387.503 4.39561 387.382 4.36913 387.26 4.37002H384.83C384.708 4.36913 384.587 4.39561 384.476 4.44752C384.365 4.49942 384.268 4.57545 384.19 4.67002C384.115 4.76473 384.063 4.87509 384.037 4.99284C384.011 5.1106 384.012 5.2327 384.04 5.35002L384.45 6.94002Z" fill="#FFCC00"/>
<path d="M380.86 8.88999C379.756 9.58801 378.839 10.5459 378.19 11.68V11.68C377.878 12.2349 377.646 12.8307 377.5 13.45V13.45V13.59V13.71V13.78C377.5 13.78 377.5 13.85 377.5 13.89V14.15C377.5 14.15 377.5 14.2 377.5 14.23C379.503 14.4111 381.521 14.3203 383.5 13.96C385.421 13.6127 387.281 12.9861 389.02 12.1L389.16 12.03L389.54 11.8C389.845 11.6102 390.139 11.4032 390.42 11.18L390.77 10.89L392.01 9.78999L391.23 11.25C391.128 11.4195 391.007 11.5771 390.87 11.72L390.71 11.89C390.485 12.1351 390.245 12.3656 389.99 12.58C391.406 13.4956 393.021 14.058 394.7 14.22V14.22C394.589 13.3528 394.314 12.5147 393.89 11.75V11.75C393.248 10.623 392.342 9.66899 391.25 8.97C390.742 8.6403 390.203 8.36224 389.64 8.13999V8.13999L389.45 8.06L389.26 7.99C388.823 7.84322 388.375 7.72956 387.92 7.65V7.65C386.743 7.43942 385.537 7.43942 384.36 7.65V7.65C383.147 7.85845 381.987 8.30723 380.95 8.97L380.86 8.88999Z" fill="#FFCC00"/>
<path d="M376.91 11.45C376.814 11.4123 376.713 11.3919 376.61 11.39C376.47 11.3918 376.332 11.4297 376.21 11.5C376.103 11.5591 376.011 11.6423 375.942 11.743C375.872 11.8436 375.827 11.959 375.81 12.08L375.46 14.46C375.441 14.5788 375.45 14.7004 375.487 14.815C375.523 14.9296 375.586 15.0341 375.67 15.12C375.754 15.2094 375.857 15.2784 375.971 15.3217C376.085 15.3651 376.208 15.3816 376.33 15.37H376.73C376.73 15.31 376.73 15.24 376.73 15.17V14.92C376.73 14.82 376.73 14.72 376.73 14.62V14.42C376.73 14.42 376.73 14.42 376.73 14.36V14.04C376.728 14.0034 376.728 13.9667 376.73 13.93V13.86V13.72C376.863 13.0457 377.089 12.3929 377.4 11.78L376.91 11.45Z" fill="#FFCC00"/>
<path d="M390.63 15.4501C390.56 15.4501 390.5 15.6101 390.5 15.7901C390.5 15.9701 390.56 16.1301 390.63 16.1301C390.7 16.1301 390.76 15.9701 390.76 15.7901C390.76 15.6101 390.7 15.4501 390.63 15.4501Z" fill="#FFCC00"/>
<path d="M380.75 8.24999C381.711 7.67531 382.763 7.26629 383.86 7.03999L383.48 5.48C383.45 5.36196 383.394 5.25212 383.317 5.15864C383.239 5.06515 383.141 4.99042 383.03 4.93999C382.922 4.89457 382.807 4.87079 382.69 4.87C382.561 4.87092 382.435 4.90173 382.32 4.96L380.16 6.06C380.052 6.11599 379.959 6.19537 379.886 6.29228C379.814 6.3892 379.764 6.50119 379.74 6.62C379.716 6.73799 379.72 6.85988 379.751 6.97611C379.783 7.09235 379.84 7.19977 379.92 7.28999L380.75 8.24999Z" fill="#FFCC00"/>
<path d="M381.55 15.7901C381.55 15.9801 381.61 16.1301 381.68 16.1301C381.75 16.1301 381.81 15.9701 381.81 15.7901C381.81 15.6101 381.75 15.4501 381.68 15.4501C381.61 15.4501 381.55 15.6101 381.55 15.7901Z" fill="#FFCC00"/>
<path d="M389.12 12.91L388.96 12.8C387.216 13.6681 385.357 14.2843 383.44 14.6301C382.084 14.8787 380.708 15.0025 379.33 15C378.66 15 377.99 15 377.33 14.91V15.12C377.33 15.25 377.33 15.41 377.33 15.57V15.75C377.8 19.55 381.52 22.55 386.02 22.55C390.52 22.55 394.24 19.55 394.69 15.76V15.58C394.69 15.42 394.69 15.2701 394.69 15.1301C394.69 14.9901 394.69 15.03 394.69 14.98C394.69 14.93 394.69 14.87 394.69 14.82C392.678 14.7134 390.734 14.0561 389.07 12.9201M380.23 19.75C379.72 19.75 379.3 19.47 379.3 19.12C379.3 18.77 379.72 18.4901 380.23 18.4901C380.74 18.4901 381.17 18.78 381.17 19.12C381.17 19.46 380.75 19.75 380.23 19.75ZM381.5 17.4901C381.26 17.4901 381.07 16.97 381.07 16.34C381.07 15.71 381.26 15.19 381.5 15.19C381.74 15.19 381.93 15.7 381.93 16.34C381.93 16.98 381.74 17.4901 381.5 17.4901ZM387.6 18.3101C387.108 18.5954 386.549 18.7457 385.98 18.7457C385.411 18.7457 384.852 18.5954 384.36 18.3101C384.316 18.2825 384.28 18.244 384.256 18.1985C384.231 18.1529 384.219 18.1018 384.22 18.05V18.05C384.221 17.9976 384.235 17.9464 384.262 17.901C384.288 17.8557 384.325 17.8178 384.37 17.7908C384.415 17.7638 384.466 17.7487 384.519 17.7468C384.571 17.7449 384.623 17.7564 384.67 17.7801C385.078 17.989 385.531 18.0979 385.99 18.0979C386.449 18.0979 386.901 17.989 387.31 17.7801C387.356 17.7586 387.407 17.7489 387.458 17.7519C387.509 17.7549 387.559 17.7704 387.602 17.7972C387.646 17.8239 387.682 17.8609 387.708 17.9051C387.733 17.9492 387.748 17.999 387.75 18.05C387.752 18.102 387.74 18.1535 387.715 18.1992C387.691 18.2449 387.654 18.2832 387.61 18.3101M390.46 17.4901C390.23 17.4901 390.04 16.97 390.04 16.34C390.04 15.71 390.23 15.19 390.46 15.19C390.69 15.19 390.89 15.7 390.89 16.34C390.89 16.98 390.7 17.4901 390.46 17.4901ZM391.73 19.75C391.22 19.75 390.8 19.47 390.8 19.12C390.8 18.77 391.22 18.4901 391.73 18.4901C392.24 18.4901 392.67 18.78 392.67 19.12C392.67 19.46 392.25 19.75 391.73 19.75Z" fill="#FFCC00"/>
<path d="M389.09 7.28008H389.19H389.3H389.35L389.51 7.33007L389.69 7.40007L389.88 7.47007L390.06 7.55008L390.23 7.62008L390.37 7.69008H390.43H390.54L390.64 7.74008H390.71L390.85 7.81008L391.2 8.01007L392.06 7.01007C392.138 6.91907 392.195 6.81159 392.226 6.69561C392.257 6.57962 392.262 6.4581 392.24 6.34008C392.216 6.22127 392.166 6.10928 392.093 6.01236C392.021 5.91545 391.927 5.83607 391.82 5.78008L389.66 4.69008C389.552 4.6354 389.433 4.60563 389.312 4.60298C389.191 4.60032 389.071 4.62484 388.96 4.67473C388.85 4.72462 388.752 4.79861 388.674 4.89125C388.596 4.9839 388.54 5.09285 388.51 5.21008L388.12 6.78008C388.38 6.84008 388.64 6.91008 388.9 6.98008" fill="#FFCC00"/>
<path d="M363.32 0L386.07 39L408.81 0H363.32ZM395.88 16H395.7H395.23C394.965 17.8917 394.011 19.6189 392.55 20.85C390.703 22.3846 388.377 23.2246 385.975 23.2246C383.573 23.2246 381.247 22.3846 379.4 20.85C377.942 19.6207 376.988 17.8978 376.72 16.01H376.33H376.2C375.823 16.003 375.464 15.8487 375.2 15.58C375.054 15.4274 374.945 15.2437 374.881 15.0427C374.817 14.8417 374.8 14.6288 374.83 14.42L375.19 12.04C375.222 11.832 375.301 11.6339 375.42 11.4606C375.54 11.2874 375.697 11.1436 375.88 11.04C375.979 10.9874 376.083 10.9439 376.19 10.91C376.136 10.8116 376.092 10.7076 376.06 10.6C376.002 10.3971 375.991 10.1838 376.028 9.97597C376.064 9.76817 376.147 9.57128 376.27 9.4L377.69 7.4C377.814 7.2272 377.975 7.08506 378.163 6.98451C378.35 6.88396 378.558 6.82768 378.77 6.82C378.883 6.80703 378.997 6.80703 379.11 6.82C379.098 6.71034 379.098 6.59967 379.11 6.49001C379.149 6.27783 379.236 6.07734 379.364 5.90398C379.492 5.73061 379.658 5.58899 379.85 5.49001L382.01 4.4C382.202 4.30779 382.412 4.25992 382.625 4.25992C382.838 4.25992 383.048 4.30779 383.24 4.4C383.343 4.44838 383.441 4.50879 383.53 4.58C383.577 4.47906 383.638 4.38489 383.71 4.3C383.842 4.13115 384.01 3.99467 384.202 3.90106C384.395 3.80745 384.606 3.7592 384.82 3.76H387.25C387.519 3.76133 387.782 3.83912 388.009 3.9843C388.236 4.12948 388.416 4.33607 388.53 4.58C388.619 4.50789 388.716 4.44739 388.82 4.4C389.012 4.30708 389.222 4.25881 389.435 4.25881C389.648 4.25881 389.858 4.30708 390.05 4.4L392.23 5.55C392.422 5.64838 392.589 5.78983 392.717 5.96329C392.846 6.13676 392.932 6.33756 392.97 6.55C392.982 6.65966 392.982 6.77034 392.97 6.88C393.083 6.86729 393.197 6.86729 393.31 6.88C393.522 6.88915 393.729 6.94607 393.916 7.04649C394.103 7.14692 394.265 7.28827 394.39 7.46001L395.8 9.46001C395.924 9.63095 396.007 9.82786 396.044 10.0358C396.08 10.2437 396.068 10.4572 396.01 10.66C395.978 10.7677 395.934 10.8716 395.88 10.97C395.987 11.0031 396.091 11.0467 396.19 11.1C396.373 11.2036 396.531 11.3474 396.65 11.5206C396.77 11.6938 396.848 11.892 396.88 12.1L397.24 14.48C397.269 14.6791 397.254 14.882 397.198 15.0749C397.141 15.2679 397.043 15.4463 396.911 15.5982C396.779 15.75 396.616 15.8716 396.433 15.9548C396.25 16.0379 396.051 16.0806 395.85 16.08" fill="#FFCC00"/>
<path d="M394.28 11.19L395 10.9C395.111 10.8551 395.211 10.786 395.292 10.6978C395.373 10.6096 395.434 10.5045 395.47 10.39C395.503 10.2734 395.51 10.1507 395.489 10.0312C395.469 9.91162 395.421 9.79837 395.35 9.69999L393.94 7.69999C393.867 7.60274 393.773 7.52297 393.665 7.46649C393.557 7.41001 393.438 7.37822 393.317 7.37344C393.195 7.36865 393.074 7.39099 392.962 7.43882C392.85 7.48665 392.75 7.55878 392.67 7.64999L391.86 8.57999C392.841 9.25656 393.669 10.1322 394.29 11.15" fill="#FFCC00"/>
<path d="M377.13 10.9001L377.78 11.1601C378.406 10.1258 379.245 9.23613 380.24 8.55007L379.46 7.65007C379.384 7.56383 379.29 7.49506 379.185 7.44846C379.079 7.40186 378.965 7.37854 378.85 7.38008V7.38008C378.728 7.38355 378.609 7.41514 378.501 7.47238C378.394 7.52963 378.301 7.61099 378.23 7.71008L376.81 9.71008C376.739 9.80846 376.691 9.92171 376.671 10.0412C376.65 10.1608 376.656 10.2835 376.69 10.4001C376.724 10.5156 376.784 10.6217 376.865 10.7102C376.947 10.7987 377.048 10.8671 377.16 10.9101" fill="#FFCC00"/>
<path d="M396.32 12.08C396.302 11.9592 396.256 11.8441 396.187 11.7436C396.118 11.6431 396.026 11.5597 395.92 11.5C395.809 11.4468 395.688 11.4192 395.565 11.4192C395.442 11.4192 395.321 11.4468 395.21 11.5L394.56 11.76C394.774 12.1886 394.945 12.6375 395.07 13.1V13.1V13.22V13.29V13.39V13.48C395.068 13.51 395.068 13.54 395.07 13.57V13.67C395.072 13.6967 395.072 13.7234 395.07 13.75V13.86V13.94C395.067 13.9766 395.067 14.0134 395.07 14.05C395.067 14.0766 395.067 14.1034 395.07 14.13V14.26C395.072 14.2833 395.072 14.3067 395.07 14.33C395.07 14.39 395.07 14.46 395.07 14.52C395.07 14.58 395.07 14.84 395.07 14.99C395.07 15.14 395.07 15.09 395.07 15.15C395.07 15.21 395.07 15.28 395.07 15.34H395.54C395.662 15.3516 395.784 15.3351 395.899 15.2917C396.013 15.2484 396.116 15.1794 396.2 15.09C396.283 15.0036 396.346 14.8991 396.382 14.7846C396.419 14.6701 396.428 14.5488 396.41 14.43L396.32 12.08Z" fill="#FFCC00"/>
<path d="M250.53 19.2301C251.393 18.9764 252.19 18.537 252.866 17.9428C253.541 17.3486 254.078 16.6138 254.44 15.7901L254.81 14.6801H254.58L254.08 14.8401C253.52 15.0001 252.78 15.2101 251.93 15.4801L250.93 18.5401C250.845 18.7877 250.717 19.018 250.55 19.2201" fill="#FFCC00"/>
<path d="M246.33 18.3701C246.06 19.2001 246.74 19.8601 247.85 19.8601C248.366 19.8777 248.876 19.7466 249.319 19.4824C249.762 19.2182 250.12 18.8321 250.35 18.3701L251.18 15.8401C249.598 16.3722 248.049 16.9966 246.54 17.7101L246.33 18.3701Z" fill="#FFCC00"/>
<path d="M226.3 0L249.04 39L271.79 0H226.3ZM256.25 12.14H250.62C250.62 12.14 252.41 12.14 252.72 11.2L253.72 8.2C253.99 7.37 253.31 6.71001 252.2 6.71001C251.684 6.69116 251.174 6.82175 250.73 7.08608C250.287 7.35041 249.929 7.73722 249.7 8.2L246.87 16.79C247.657 16.4367 248.497 16.1033 249.39 15.79C251.28 15.07 252.95 14.58 253.94 14.31L255.75 13.75L255.01 16C254.22 18.39 251.01 20.34 247.73 20.34C246.392 20.4099 245.077 19.9704 244.05 19.11C243.45 19.4816 242.876 19.8925 242.33 20.34H241.2C241.945 19.6724 242.748 19.0733 243.6 18.55C243.356 18.1769 243.203 17.7521 243.153 17.3094C243.103 16.8666 243.156 16.4183 243.31 16L245.08 10.64C245.86 8.25 249.08 6.3 252.36 6.3C255.64 6.3 257.58 8.24 256.79 10.64L256.25 12.14Z" fill="#FFCC00"/>
<path d="M243.83 16.1501C243.704 16.4875 243.66 16.8496 243.7 17.2074C243.74 17.5652 243.863 17.9087 244.06 18.2101L244.22 18.4601L244.42 18.6601C244.835 19.0447 245.335 19.3256 245.88 19.4801C245.771 19.2872 245.704 19.073 245.685 18.8521C245.666 18.6312 245.695 18.4088 245.77 18.2001L246.92 14.6901H244.3L243.83 16.1501Z" fill="#FFCC00"/>
<path d="M566.95 6.94002L567.72 6.85002H569.15C569.485 6.86862 569.819 6.90534 570.15 6.96002L570.55 5.35002C570.578 5.2327 570.579 5.1106 570.553 4.99284C570.527 4.87509 570.475 4.76473 570.4 4.67002C570.322 4.57545 570.225 4.49942 570.114 4.44752C570.003 4.39561 569.882 4.36913 569.76 4.37002H567.33C567.208 4.36913 567.087 4.39561 566.976 4.44752C566.865 4.49942 566.767 4.57545 566.69 4.67002C566.615 4.76473 566.563 4.87509 566.537 4.99284C566.511 5.1106 566.512 5.2327 566.54 5.35002L566.95 6.94002Z" fill="#FF5561"/>
<path d="M563.36 8.89008C562.259 9.58936 561.346 10.5472 560.7 11.6801V11.6801C560.388 12.2349 560.156 12.8307 560.01 13.4501V13.4501V13.5901V13.7101V13.7801C560.01 13.7801 560.01 13.8501 560.01 13.8901V14.1501C560.01 14.1501 560.01 14.2001 560.01 14.2301C562.013 14.4112 564.031 14.3204 566.01 13.9601C567.931 13.6128 569.791 12.9861 571.53 12.1001L571.67 12.0301L572.05 11.8001C572.355 11.6102 572.649 11.4032 572.93 11.1801L573.28 10.8901L574.52 9.79008L573.74 11.2501C573.638 11.4196 573.517 11.5772 573.38 11.7201L573.22 11.8901C572.995 12.1352 572.754 12.3657 572.5 12.5801C573.972 13.4884 575.644 14.0208 577.37 14.1301V14.1301C577.259 13.2629 576.984 12.4248 576.56 11.6601V11.6601C575.85 10.5251 574.867 9.58645 573.7 8.93008V8.93008C573.192 8.60038 572.653 8.32233 572.09 8.10008V8.10008L571.9 8.02008L571.71 7.95008C571.273 7.8033 570.825 7.68964 570.37 7.61008C569.193 7.39951 567.987 7.39951 566.81 7.61008V7.61008C565.597 7.81853 564.437 8.26732 563.4 8.93008L563.36 8.89008Z" fill="#FF5561"/>
<path d="M559.41 11.45C559.314 11.4123 559.213 11.3919 559.11 11.39C558.969 11.3918 558.832 11.4297 558.71 11.5C558.603 11.5591 558.511 11.6423 558.442 11.743C558.372 11.8436 558.327 11.959 558.31 12.08L557.96 14.46C557.941 14.5788 557.95 14.7004 557.986 14.815C558.023 14.9296 558.086 15.0341 558.17 15.12C558.253 15.2094 558.356 15.2784 558.471 15.3217C558.585 15.3651 558.708 15.3816 558.83 15.37H559.23C559.23 15.31 559.23 15.24 559.23 15.17V14.92C559.23 14.82 559.23 14.72 559.23 14.62V14.42C559.23 14.42 559.23 14.42 559.23 14.36V14.04C559.228 14.0034 559.228 13.9667 559.23 13.93V13.86V13.72C559.363 13.0457 559.589 12.3929 559.9 11.78L559.41 11.45Z" fill="#FF5561"/>
<path d="M573.13 15.4501C573.06 15.4501 573 15.6101 573 15.7901C573 15.9701 573.06 16.1301 573.13 16.1301C573.2 16.1301 573.26 15.9701 573.26 15.7901C573.26 15.6101 573.2 15.4501 573.13 15.4501Z" fill="#FF5561"/>
<path d="M563.25 8.24999C564.211 7.67531 565.263 7.26629 566.36 7.03999L565.98 5.48C565.95 5.36196 565.894 5.25212 565.817 5.15864C565.739 5.06515 565.641 4.99042 565.53 4.93999C565.422 4.89457 565.307 4.87079 565.19 4.87C565.061 4.87092 564.935 4.90173 564.82 4.96L562.7 6.06C562.593 6.11599 562.499 6.19537 562.426 6.29228C562.354 6.3892 562.304 6.50119 562.28 6.62C562.256 6.73799 562.26 6.85988 562.291 6.97611C562.323 7.09235 562.38 7.19977 562.46 7.28999L563.25 8.24999Z" fill="#FF5561"/>
<path d="M564.05 15.7901C564.05 15.9801 564.11 16.1301 564.18 16.1301C564.25 16.1301 564.31 15.9701 564.31 15.7901C564.31 15.6101 564.25 15.4501 564.18 15.4501C564.11 15.4501 564.05 15.6101 564.05 15.7901Z" fill="#FF5561"/>
<path d="M571.62 12.91L571.46 12.8C569.716 13.6681 567.857 14.2843 565.94 14.6301C564.584 14.8787 563.209 15.0025 561.83 15C561.16 15 560.49 15 559.83 14.91V15.12C559.83 15.25 559.83 15.41 559.83 15.57V15.75C560.28 19.56 564 22.54 568.5 22.54C573 22.54 576.72 19.54 577.17 15.75V15.57C577.17 15.41 577.17 15.26 577.17 15.12C577.17 14.98 577.17 15.02 577.17 14.97C577.17 14.92 577.17 14.8601 577.17 14.8101C575.158 14.7034 573.214 14.0461 571.55 12.91M562.71 19.7401C562.2 19.7401 561.78 19.46 561.78 19.11C561.78 18.76 562.2 18.48 562.71 18.48C563.22 18.48 563.65 18.77 563.65 19.11C563.65 19.45 563.23 19.7401 562.71 19.7401ZM563.98 17.48C563.74 17.48 563.55 16.96 563.55 16.33C563.55 15.7 563.74 15.18 563.98 15.18C564.22 15.18 564.41 15.69 564.41 16.33C564.41 16.97 564.22 17.48 563.98 17.48ZM570.08 18.3C569.588 18.5854 569.029 18.7357 568.46 18.7357C567.891 18.7357 567.332 18.5854 566.84 18.3C566.796 18.2725 566.76 18.234 566.736 18.1885C566.711 18.1429 566.699 18.0918 566.7 18.04V18.04C566.701 17.9876 566.716 17.9364 566.742 17.891C566.768 17.8457 566.806 17.8077 566.851 17.7808C566.895 17.7538 566.947 17.7387 566.999 17.7368C567.051 17.7349 567.103 17.7464 567.15 17.7701C567.559 17.979 568.011 18.0879 568.47 18.0879C568.929 18.0879 569.381 17.979 569.79 17.7701C569.836 17.7486 569.887 17.7389 569.938 17.7419C569.989 17.7449 570.039 17.7604 570.082 17.7872C570.126 17.8139 570.162 17.8509 570.188 17.8951C570.214 17.9392 570.228 17.989 570.23 18.04C570.232 18.092 570.22 18.1435 570.196 18.1892C570.171 18.2349 570.135 18.2732 570.09 18.3M572.94 17.48C572.71 17.48 572.52 16.96 572.52 16.33C572.52 15.7 572.71 15.18 572.94 15.18C573.17 15.18 573.37 15.69 573.37 16.33C573.37 16.97 573.18 17.48 572.94 17.48ZM574.21 19.7401C573.7 19.7401 573.28 19.46 573.28 19.11C573.28 18.76 573.7 18.48 574.21 18.48C574.72 18.48 575.15 18.77 575.15 19.11C575.15 19.45 574.73 19.7401 574.21 19.7401Z" fill="#FF5561"/>
<path d="M571.59 7.28008H571.69H571.8H571.85L572.01 7.33007L572.19 7.40007L572.38 7.47007L572.56 7.55008L572.73 7.62008L572.87 7.69008H572.93H573.04L573.14 7.74008H573.21L573.35 7.81008L573.7 8.01007L574.56 7.01007C574.638 6.91907 574.695 6.81159 574.726 6.69561C574.757 6.57962 574.762 6.4581 574.74 6.34008C574.716 6.22127 574.666 6.10928 574.594 6.01236C574.521 5.91545 574.427 5.83607 574.32 5.78008L572.16 4.69008C572.052 4.6354 571.933 4.60563 571.812 4.60298C571.691 4.60032 571.571 4.62484 571.46 4.67473C571.35 4.72462 571.252 4.79861 571.174 4.89125C571.096 4.9839 571.04 5.09285 571.01 5.21008L570.62 6.78008C570.88 6.84008 571.14 6.91008 571.4 6.98008" fill="#FF5561"/>
<path d="M545.82 0L568.57 39L591.31 0H545.82ZM578.38 16H578.25H577.78C577.515 17.8917 576.56 19.6189 575.1 20.85C573.252 22.3846 570.926 23.2246 568.525 23.2246C566.123 23.2246 563.797 22.3846 561.95 20.85C560.492 19.6207 559.538 17.8978 559.27 16.01H558.88H558.7C558.323 16.003 557.964 15.8487 557.7 15.58C557.554 15.4274 557.445 15.2437 557.381 15.0427C557.317 14.8417 557.299 14.6288 557.33 14.42L557.69 12.04C557.722 11.832 557.8 11.6339 557.92 11.4606C558.039 11.2874 558.197 11.1436 558.38 11.04C558.479 10.9874 558.583 10.9439 558.69 10.91C558.636 10.8116 558.592 10.7076 558.56 10.6C558.502 10.3971 558.491 10.1838 558.527 9.97597C558.564 9.76817 558.647 9.57128 558.77 9.4L560.19 7.4C560.314 7.2272 560.475 7.08506 560.662 6.98451C560.85 6.88396 561.057 6.82768 561.27 6.82C561.383 6.80703 561.497 6.80703 561.61 6.82C561.598 6.71034 561.598 6.59967 561.61 6.49001C561.648 6.27783 561.735 6.07734 561.864 5.90398C561.992 5.73061 562.158 5.58899 562.35 5.49001L564.51 4.4C564.702 4.30779 564.912 4.25992 565.125 4.25992C565.338 4.25992 565.548 4.30779 565.74 4.4C565.843 4.44838 565.941 4.50879 566.03 4.58C566.077 4.47906 566.138 4.38489 566.21 4.3C566.341 4.13115 566.51 3.99467 566.702 3.90106C566.895 3.80745 567.106 3.7592 567.32 3.76H569.75C570.019 3.76133 570.282 3.83912 570.509 3.9843C570.735 4.12948 570.916 4.33607 571.03 4.58C571.118 4.50789 571.216 4.44739 571.32 4.4C571.512 4.30708 571.722 4.25881 571.935 4.25881C572.148 4.25881 572.358 4.30708 572.55 4.4L574.7 5.55C574.892 5.64838 575.059 5.78983 575.187 5.96329C575.315 6.13676 575.402 6.33756 575.44 6.55C575.452 6.65966 575.452 6.77034 575.44 6.88C575.553 6.86729 575.667 6.86729 575.78 6.88C575.992 6.88915 576.199 6.94607 576.386 7.04649C576.573 7.14692 576.735 7.28827 576.86 7.46001L578.27 9.46001C578.394 9.63095 578.477 9.82786 578.513 10.0358C578.55 10.2437 578.538 10.4572 578.48 10.66C578.448 10.7677 578.404 10.8716 578.35 10.97C578.457 11.0031 578.561 11.0467 578.66 11.1C578.843 11.2036 579 11.3474 579.12 11.5206C579.239 11.6938 579.318 11.892 579.35 12.1L579.71 14.48C579.739 14.6791 579.724 14.882 579.667 15.0749C579.611 15.2679 579.513 15.4463 579.381 15.5982C579.249 15.75 579.086 15.8716 578.903 15.9548C578.72 16.0379 578.521 16.0806 578.32 16.08" fill="#FF5561"/>
<path d="M576.78 11.19L577.5 10.9C577.611 10.8551 577.711 10.786 577.792 10.6978C577.874 10.6096 577.934 10.5045 577.97 10.39C578.004 10.2734 578.01 10.1507 577.989 10.0312C577.969 9.91162 577.921 9.79837 577.85 9.69999L576.44 7.69999C576.367 7.60274 576.273 7.52297 576.165 7.46649C576.057 7.41001 575.938 7.37822 575.817 7.37344C575.695 7.36865 575.574 7.39099 575.462 7.43882C575.35 7.48665 575.25 7.55878 575.17 7.64999L574.36 8.57999C575.341 9.25656 576.169 10.1322 576.79 11.15" fill="#FF5561"/>
<path d="M559.64 10.9001L560.29 11.1601C560.902 10.1308 561.723 9.24152 562.7 8.55007L561.92 7.65007C561.844 7.56383 561.75 7.49506 561.644 7.44846C561.539 7.40186 561.425 7.37854 561.31 7.38008V7.38008C561.188 7.38355 561.069 7.41514 560.961 7.47238C560.854 7.52963 560.761 7.61099 560.69 7.71008L559.27 9.71008C559.199 9.80846 559.151 9.92171 559.13 10.0412C559.11 10.1608 559.116 10.2835 559.15 10.4001C559.184 10.5156 559.244 10.6217 559.325 10.7102C559.407 10.7987 559.508 10.8671 559.62 10.9101" fill="#FF5561"/>
<path d="M578.82 12.08C578.802 11.9592 578.757 11.8441 578.687 11.7436C578.618 11.6431 578.527 11.5597 578.42 11.5C578.309 11.4468 578.188 11.4192 578.065 11.4192C577.942 11.4192 577.821 11.4468 577.71 11.5L577.06 11.76C577.274 12.1886 577.445 12.6375 577.57 13.1V13.1V13.22V13.29V13.39V13.48C577.569 13.51 577.569 13.54 577.57 13.57V13.67C577.572 13.6967 577.572 13.7234 577.57 13.75V13.86V13.94C577.568 13.9766 577.568 14.0134 577.57 14.05C577.568 14.0766 577.568 14.1034 577.57 14.13V14.26C577.572 14.2833 577.572 14.3067 577.57 14.33C577.57 14.39 577.57 14.46 577.57 14.52C577.57 14.58 577.57 14.84 577.57 14.99C577.57 15.14 577.57 15.09 577.57 15.15C577.57 15.21 577.57 15.28 577.57 15.34H578.04C578.162 15.3516 578.285 15.3351 578.399 15.2917C578.514 15.2484 578.617 15.1794 578.7 15.09C578.784 15.0036 578.846 14.8991 578.882 14.7846C578.919 14.6701 578.928 14.5488 578.91 14.43L578.82 12.08Z" fill="#FF5561"/>
<path d="M475.42 6.94002L476.19 6.85002H477.62C477.955 6.86862 478.289 6.90534 478.62 6.96002L479.02 5.35002C479.048 5.2327 479.049 5.1106 479.023 4.99284C478.997 4.87509 478.945 4.76473 478.87 4.67002C478.792 4.57545 478.695 4.49942 478.584 4.44752C478.473 4.39561 478.352 4.36913 478.23 4.37002H475.8C475.678 4.36913 475.557 4.39561 475.446 4.44752C475.335 4.49942 475.238 4.57545 475.16 4.67002C475.085 4.76473 475.033 4.87509 475.007 4.99284C474.981 5.1106 474.982 5.2327 475.01 5.35002L475.42 6.94002Z" fill="#6FD5CA"/>
<path d="M471.83 8.88999C470.725 9.58801 469.809 10.5459 469.16 11.68V11.68C468.848 12.2349 468.616 12.8307 468.47 13.45V13.45V13.59V13.71V13.78C468.47 13.78 468.47 13.85 468.47 13.89V14.15C468.47 14.15 468.47 14.2 468.47 14.23C470.473 14.4111 472.491 14.3203 474.47 13.96C476.391 13.6127 478.251 12.9861 479.99 12.1L480.13 12.03L480.51 11.8C480.815 11.6102 481.109 11.4032 481.39 11.18L481.74 10.89L482.98 9.78999L482.2 11.25C482.098 11.4195 481.977 11.5771 481.84 11.72L481.68 11.89C481.455 12.1351 481.214 12.3656 480.96 12.58C482.385 13.5001 484.011 14.0627 485.7 14.22V14.22C485.589 13.3528 485.314 12.5147 484.89 11.75V11.75C484.248 10.623 483.342 9.66899 482.25 8.97V8.97C481.742 8.6403 481.203 8.36224 480.64 8.13999V8.13999L480.45 8.06L480.26 7.99C479.822 7.84322 479.374 7.72956 478.92 7.65C477.743 7.43942 476.537 7.43942 475.36 7.65V7.65C474.147 7.85845 472.987 8.30723 471.95 8.97L471.83 8.88999Z" fill="#6FD5CA"/>
<path d="M467.88 11.45C467.784 11.4123 467.683 11.3919 467.58 11.39C467.439 11.3918 467.302 11.4297 467.18 11.5C467.073 11.5591 466.981 11.6423 466.912 11.743C466.842 11.8436 466.797 11.959 466.78 12.08L466.43 14.46C466.411 14.5788 466.42 14.7004 466.456 14.815C466.493 14.9296 466.556 15.0341 466.64 15.12C466.723 15.2094 466.826 15.2784 466.941 15.3217C467.055 15.3651 467.178 15.3816 467.3 15.37H467.7C467.7 15.31 467.7 15.24 467.7 15.17V14.92C467.7 14.82 467.7 14.72 467.7 14.62V14.42C467.7 14.42 467.7 14.42 467.7 14.36V14.04C467.698 14.0034 467.698 13.9667 467.7 13.93V13.86V13.72C467.833 13.0457 468.059 12.3929 468.37 11.78L467.88 11.45Z" fill="#6FD5CA"/>
<path d="M481.6 15.4501C481.53 15.4501 481.47 15.6101 481.47 15.7901C481.47 15.9701 481.53 16.1301 481.6 16.1301C481.67 16.1301 481.73 15.9701 481.73 15.7901C481.73 15.6101 481.67 15.4501 481.6 15.4501Z" fill="#6FD5CA"/>
<path d="M471.7 8.24999C472.661 7.67531 473.713 7.26629 474.81 7.03999L474.43 5.48C474.4 5.36196 474.344 5.25212 474.267 5.15864C474.189 5.06515 474.091 4.99042 473.98 4.93999C473.872 4.89457 473.757 4.87079 473.64 4.87C473.511 4.87092 473.385 4.90173 473.27 4.96L471.11 6.06C471.002 6.11599 470.909 6.19537 470.836 6.29228C470.764 6.3892 470.714 6.50119 470.69 6.62C470.666 6.73799 470.67 6.85988 470.701 6.97611C470.733 7.09235 470.79 7.19977 470.87 7.28999L471.7 8.24999Z" fill="#6FD5CA"/>
<path d="M472.52 15.7901C472.52 15.9801 472.58 16.1301 472.65 16.1301C472.72 16.1301 472.78 15.9701 472.78 15.7901C472.78 15.6101 472.72 15.4501 472.65 15.4501C472.58 15.4501 472.52 15.6101 472.52 15.7901Z" fill="#6FD5CA"/>
<path d="M480.09 12.91L479.93 12.8C478.186 13.6681 476.327 14.2843 474.41 14.6301C473.054 14.8787 471.678 15.0025 470.3 15C469.63 15 468.96 15 468.3 14.91V15.12C468.3 15.25 468.3 15.41 468.3 15.57V15.75C468.75 19.56 472.47 22.54 476.97 22.54C481.47 22.54 485.19 19.54 485.64 15.75V15.57C485.64 15.41 485.64 15.26 485.64 15.12C485.64 14.98 485.64 15.02 485.64 14.97C485.64 14.92 485.64 14.8601 485.64 14.8101C483.628 14.7034 481.684 14.0461 480.02 12.91M471.18 19.7401C470.67 19.7401 470.25 19.46 470.25 19.11C470.25 18.76 470.67 18.48 471.18 18.48C471.69 18.48 472.12 18.77 472.12 19.11C472.12 19.45 471.7 19.7401 471.18 19.7401ZM472.45 17.48C472.21 17.48 472.02 16.96 472.02 16.33C472.02 15.7 472.21 15.18 472.45 15.18C472.69 15.18 472.88 15.69 472.88 16.33C472.88 16.97 472.69 17.48 472.45 17.48ZM478.55 18.3C478.058 18.5854 477.499 18.7357 476.93 18.7357C476.361 18.7357 475.802 18.5854 475.31 18.3C475.266 18.2725 475.23 18.234 475.206 18.1885C475.181 18.1429 475.169 18.0918 475.17 18.04V18.04C475.171 17.9876 475.186 17.9364 475.212 17.891C475.238 17.8457 475.276 17.8077 475.32 17.7808C475.365 17.7538 475.417 17.7387 475.469 17.7368C475.521 17.7349 475.573 17.7464 475.62 17.7701C476.029 17.979 476.481 18.0879 476.94 18.0879C477.399 18.0879 477.851 17.979 478.26 17.7701C478.306 17.7486 478.357 17.7389 478.408 17.7419C478.459 17.7449 478.509 17.7604 478.552 17.7872C478.596 17.8139 478.632 17.8509 478.658 17.8951C478.684 17.9392 478.698 17.989 478.7 18.04C478.702 18.092 478.69 18.1435 478.666 18.1892C478.641 18.2349 478.605 18.2732 478.56 18.3M481.41 17.48C481.18 17.48 480.99 16.96 480.99 16.33C480.99 15.7 481.18 15.18 481.41 15.18C481.64 15.18 481.84 15.69 481.84 16.33C481.84 16.97 481.65 17.48 481.41 17.48ZM482.7 19.75C482.19 19.75 481.77 19.47 481.77 19.12C481.77 18.77 482.19 18.4901 482.7 18.4901C483.21 18.4901 483.64 18.78 483.64 19.12C483.64 19.46 483.22 19.75 482.7 19.75Z" fill="#6FD5CA"/>
<path d="M480.06 7.28008H480.16H480.27H480.32L480.48 7.33007L480.66 7.40007L480.85 7.47007L481.03 7.55008L481.2 7.62008L481.34 7.69008H481.4H481.51L481.61 7.74008H481.68L481.82 7.81008L482.17 8.01007L483.03 7.01007C483.108 6.91907 483.165 6.81159 483.196 6.69561C483.228 6.57962 483.232 6.4581 483.21 6.34008C483.186 6.22127 483.136 6.10928 483.064 6.01236C482.991 5.91545 482.898 5.83607 482.79 5.78008L480.63 4.69008C480.522 4.6354 480.403 4.60563 480.282 4.60298C480.161 4.60032 480.041 4.62484 479.931 4.67473C479.82 4.72462 479.722 4.79861 479.645 4.89125C479.567 4.9839 479.51 5.09285 479.48 5.21008L479.09 6.78008C479.35 6.84008 479.61 6.91008 479.87 6.98008" fill="#6FD5CA"/>
<path d="M454.29 0L477.04 39L499.78 0H454.29ZM486.85 16H486.7H486.23C485.965 17.8917 485.011 19.6189 483.55 20.85C481.703 22.3846 479.377 23.2246 476.975 23.2246C474.573 23.2246 472.247 22.3846 470.4 20.85C468.918 19.6043 467.955 17.8494 467.7 15.93H467.31H467.18C466.803 15.923 466.444 15.7687 466.18 15.5C466.034 15.3474 465.925 15.1636 465.861 14.9627C465.797 14.7617 465.78 14.5488 465.81 14.34L466.17 11.96C466.202 11.752 466.28 11.5538 466.4 11.3806C466.52 11.2074 466.677 11.0636 466.86 10.96C466.959 10.9074 467.063 10.8639 467.17 10.83C467.116 10.7316 467.072 10.6276 467.04 10.52C466.982 10.3171 466.971 10.1038 467.008 9.89597C467.044 9.68817 467.127 9.49127 467.25 9.32L468.67 7.32C468.794 7.1472 468.955 7.00506 469.143 6.90451C469.33 6.80396 469.538 6.74769 469.75 6.74001C469.863 6.72703 469.977 6.72703 470.09 6.74001C470.078 6.63034 470.078 6.51966 470.09 6.41C470.129 6.19783 470.215 5.99735 470.344 5.82398C470.472 5.65062 470.638 5.50899 470.83 5.41L472.99 4.32C473.182 4.22779 473.392 4.17992 473.605 4.17992C473.818 4.17992 474.028 4.22779 474.22 4.32C474.323 4.36837 474.421 4.42879 474.51 4.5C474.557 4.39906 474.618 4.30489 474.69 4.22C474.821 4.05115 474.99 3.91467 475.182 3.82106C475.375 3.72745 475.586 3.67919 475.8 3.68H478.23C478.499 3.68133 478.762 3.75912 478.989 3.9043C479.216 4.04948 479.396 4.25607 479.51 4.5C479.599 4.42788 479.696 4.36739 479.8 4.32C479.992 4.22708 480.202 4.17881 480.415 4.17881C480.628 4.17881 480.838 4.22708 481.03 4.32L483.2 5.55C483.392 5.64838 483.559 5.78983 483.687 5.96329C483.816 6.13676 483.902 6.33756 483.94 6.55C483.952 6.65966 483.952 6.77034 483.94 6.88C484.053 6.86729 484.167 6.86729 484.28 6.88C484.492 6.88915 484.699 6.94607 484.886 7.04649C485.073 7.14692 485.235 7.28827 485.36 7.46001L486.77 9.46001C486.894 9.63095 486.977 9.82786 487.014 10.0358C487.05 10.2437 487.038 10.4572 486.98 10.66C486.948 10.7677 486.904 10.8716 486.85 10.97C486.957 11.0031 487.061 11.0467 487.16 11.1C487.343 11.2036 487.501 11.3474 487.62 11.5206C487.74 11.6938 487.818 11.892 487.85 12.1L488.21 14.48C488.239 14.6791 488.224 14.882 488.168 15.0749C488.111 15.2679 488.013 15.4463 487.881 15.5982C487.749 15.75 487.586 15.8716 487.403 15.9548C487.22 16.0379 487.021 16.0806 486.82 16.08" fill="#6FD5CA"/>
<path d="M485.24 11.19L485.96 10.9C486.071 10.8551 486.171 10.786 486.252 10.6978C486.334 10.6096 486.394 10.5045 486.43 10.39C486.464 10.2734 486.47 10.1507 486.45 10.0312C486.429 9.91162 486.381 9.79837 486.31 9.69999L484.9 7.69999C484.827 7.60274 484.733 7.52297 484.625 7.46649C484.518 7.41001 484.399 7.37822 484.277 7.37344C484.155 7.36865 484.034 7.39099 483.922 7.43882C483.81 7.48665 483.711 7.55878 483.63 7.64999L482.82 8.57999C483.802 9.25656 484.629 10.1322 485.25 11.15" fill="#6FD5CA"/>
<path d="M468.1 10.9001L468.75 11.1601C469.376 10.1258 470.215 9.23613 471.21 8.55007L470.43 7.65007C470.354 7.56383 470.26 7.49506 470.154 7.44846C470.049 7.40186 469.935 7.37854 469.82 7.38008V7.38008C469.698 7.38355 469.579 7.41514 469.471 7.47238C469.364 7.52963 469.271 7.61099 469.2 7.71008L467.78 9.71008C467.709 9.80846 467.661 9.92171 467.64 10.0412C467.62 10.1608 467.626 10.2835 467.66 10.4001C467.694 10.5156 467.754 10.6217 467.835 10.7102C467.917 10.7987 468.018 10.8671 468.13 10.9101" fill="#6FD5CA"/>
<path d="M487.29 12.08C487.272 11.9592 487.227 11.8441 487.157 11.7436C487.088 11.6431 486.997 11.5597 486.89 11.5C486.779 11.4468 486.658 11.4192 486.535 11.4192C486.412 11.4192 486.291 11.4468 486.18 11.5L485.53 11.76C485.744 12.1886 485.915 12.6375 486.04 13.1V13.22V13.29V13.39V13.48C486.039 13.51 486.039 13.54 486.04 13.57V13.67C486.042 13.6967 486.042 13.7234 486.04 13.75V13.86V13.94C486.038 13.9766 486.038 14.0134 486.04 14.05C486.038 14.0766 486.038 14.1034 486.04 14.13V14.26C486.042 14.2833 486.042 14.3067 486.04 14.33C486.04 14.39 486.04 14.46 486.04 14.52C486.04 14.58 486.04 14.84 486.04 14.99C486.04 15.14 486.04 15.09 486.04 15.15C486.04 15.21 486.04 15.28 486.04 15.34H486.51C486.632 15.3516 486.755 15.3351 486.869 15.2917C486.983 15.2484 487.086 15.1794 487.17 15.09C487.253 15.0036 487.316 14.8991 487.352 14.7846C487.389 14.6701 487.398 14.5488 487.38 14.43L487.29 12.08Z" fill="#6FD5CA"/>
<path d="M433.03 19.2301C433.893 18.9764 434.69 18.537 435.366 17.9428C436.041 17.3486 436.578 16.6138 436.94 15.7901L437.31 14.6801H437.08L436.58 14.8401C436.02 15.0001 435.28 15.2101 434.43 15.4801L433.43 18.5401C433.345 18.7877 433.217 19.018 433.05 19.2201" fill="#FF5561"/>
<path d="M428.83 18.3701C428.56 19.2001 429.24 19.8601 430.35 19.8601C430.866 19.8777 431.376 19.7466 431.819 19.4824C432.262 19.2182 432.62 18.8321 432.85 18.3701L433.68 15.8401C432.098 16.3722 430.549 16.9966 429.04 17.7101L428.83 18.3701Z" fill="#FF5561"/>
<path d="M408.8 0L431.54 39L454.29 0H408.8ZM438.75 12.14H433.12C433.12 12.14 434.91 12.14 435.22 11.2L436.22 8.2C436.49 7.37 435.81 6.71001 434.7 6.71001C434.184 6.69116 433.674 6.82175 433.23 7.08608C432.787 7.35041 432.429 7.73722 432.2 8.2L429.37 16.79C430.157 16.4367 430.997 16.1033 431.89 15.79C433.78 15.07 435.45 14.58 436.44 14.31L438.25 13.75L437.51 16C436.72 18.39 433.51 20.34 430.23 20.34C428.892 20.4099 427.577 19.9704 426.55 19.11C425.95 19.4816 425.376 19.8925 424.83 20.34H423.7C424.445 19.6724 425.248 19.0733 426.1 18.55C425.856 18.1769 425.703 17.7521 425.653 17.3094C425.603 16.8666 425.656 16.4183 425.81 16L427.58 10.64C428.36 8.25 431.58 6.3 434.86 6.3C438.14 6.3 440.08 8.24 439.29 10.64L438.75 12.14Z" fill="#FF5561"/>
<path d="M426.33 16.1501C426.204 16.4875 426.16 16.8496 426.2 17.2074C426.24 17.5652 426.363 17.9087 426.56 18.2101L426.72 18.4601L426.92 18.6601C427.335 19.0447 427.835 19.3256 428.38 19.4801C428.271 19.2872 428.204 19.073 428.185 18.8521C428.166 18.6312 428.195 18.4088 428.27 18.2001L429.42 14.6901H426.8L426.33 16.1501Z" fill="#FF5561"/>
<path d="M615.53 19.2301C616.393 18.9751 617.189 18.5353 617.864 17.9413C618.54 17.3472 619.077 16.6131 619.44 15.7901L619.8 14.6801H619.57L619.07 14.8401C618.51 15.0001 617.77 15.2101 616.92 15.4801L615.92 18.5401C615.835 18.7877 615.707 19.018 615.54 19.2201" fill="#6FD5CA"/>
<path d="M611.33 18.3701C611.06 19.2001 611.74 19.8601 612.85 19.8601C613.366 19.8789 613.876 19.7483 614.32 19.484C614.763 19.2197 615.121 18.8329 615.35 18.3701L616.18 15.8401C614.598 16.3728 613.049 16.9972 611.54 17.7101L611.33 18.3701Z" fill="#6FD5CA"/>
<path d="M591.3 0L614.04 39L636.79 0H591.3ZM621.25 12.14H615.62C615.62 12.14 617.41 12.14 617.72 11.2L618.72 8.2C618.99 7.37 618.31 6.71001 617.2 6.71001C616.684 6.69241 616.174 6.82353 615.731 7.08772C615.288 7.3519 614.93 7.73802 614.7 8.2L611.87 16.79C612.66 16.44 613.49 16.09 614.39 15.79C616.28 15.07 617.95 14.58 618.94 14.31L620.76 13.75L620.02 16C619.24 18.39 616.02 20.34 612.74 20.34C611.401 20.4119 610.086 19.9722 609.06 19.11C608.456 19.4805 607.878 19.8914 607.33 20.34H606.2C606.944 19.6715 607.747 19.0723 608.6 18.55C608.356 18.1769 608.203 17.7521 608.153 17.3094C608.102 16.8666 608.156 16.4183 608.31 16L610.08 10.64C610.87 8.25 614.08 6.3 617.36 6.3C620.64 6.3 622.58 8.24 621.79 10.64L621.25 12.14Z" fill="#6FD5CA"/>
<path d="M608.83 16.1501C608.703 16.4867 608.657 16.8485 608.695 17.2062C608.733 17.564 608.855 17.9078 609.05 18.2101L609.21 18.4601L609.42 18.6601C609.835 19.045 610.335 19.326 610.88 19.4801C610.771 19.2872 610.704 19.073 610.685 18.8521C610.666 18.6312 610.695 18.4088 610.77 18.2001L611.92 14.6901H609.31L608.83 16.1501Z" fill="#6FD5CA"/>
<path d="M523.99 19.2301C524.853 18.9764 525.65 18.537 526.326 17.9428C527.001 17.3486 527.538 16.6138 527.9 15.7901L528.27 14.6801H528.04L527.54 14.8401C526.98 15.0001 526.24 15.2101 525.39 15.4801L524.39 18.5401C524.305 18.7877 524.176 19.018 524.01 19.2201" fill="#FFCC00"/>
<path d="M519.8 18.3701C519.53 19.2001 520.21 19.8601 521.32 19.8601C521.836 19.8777 522.346 19.7466 522.789 19.4824C523.232 19.2182 523.59 18.8321 523.82 18.3701L524.65 15.8401C523.068 16.3722 521.519 16.9966 520.01 17.7101L519.8 18.3701Z" fill="#FFCC00"/>
<path d="M499.77 0L522.51 39L545.26 0H499.77ZM529.7 12.14H524.07C524.07 12.14 525.86 12.14 526.17 11.2L527.17 8.2C527.44 7.37 526.76 6.71001 525.65 6.71001C525.134 6.69116 524.624 6.82175 524.18 7.08608C523.737 7.35041 523.379 7.73722 523.15 8.2L520.32 16.79C521.107 16.4367 521.947 16.1033 522.84 15.79C524.73 15.07 526.4 14.58 527.39 14.31L529.2 13.75L528.46 16C527.67 18.39 524.46 20.34 521.18 20.34C519.842 20.4099 518.527 19.9704 517.5 19.11C516.9 19.4816 516.326 19.8925 515.78 20.34H514.65C515.395 19.6724 516.198 19.0733 517.05 18.55C516.806 18.1769 516.653 17.7521 516.603 17.3094C516.553 16.8666 516.606 16.4183 516.76 16L518.53 10.64C519.31 8.25 522.53 6.3 525.81 6.3C529.09 6.3 531.03 8.24 530.24 10.64L529.7 12.14Z" fill="#FFCC00"/>
<path d="M517.3 16.1501C517.174 16.4875 517.13 16.8496 517.17 17.2074C517.21 17.5652 517.333 17.9087 517.53 18.2101L517.69 18.4601L517.89 18.6601C518.305 19.0447 518.805 19.3256 519.35 19.4801C519.241 19.2872 519.174 19.073 519.155 18.8521C519.136 18.6312 519.165 18.4088 519.24 18.2001L520.39 14.6901H517.77L517.3 16.1501Z" fill="#FFCC00"/>
</svg>
