<svg viewBox="0 0 380 103" fill="none" xmlns="http://www.w3.org/2000/svg">
<path d="M326.046 86.2579C328.263 84.1554 330.528 82.2124 333.047 80.6901C333.887 80.1826 335.727 80.2964 336.517 80.901C343.786 86.466 351.889 86.4068 360.72 84.8686C356.987 87.1921 353.024 90.6465 348.605 91.3926C340.818 92.7071 332.494 93.5123 326.046 86.2579Z" fill="#FF982B"/>
<path d="M60.3604 93.8987C60.5494 93.4746 61.1082 93.0549 62.06 92.6801C61.8787 93.1177 61.3044 93.5103 60.3604 93.8987Z" fill="#FF972A"/>
<path d="M103.033 31.7776C108.693 23.7959 126.844 21.0067 134.136 32.0021C137.606 40.2122 136.439 47.2039 131.53 53.5583C129.963 55.5877 127.784 57.1445 125.528 58.9189C124.464 58.9726 123.756 59.0249 122.606 59.0116C118.934 58.8001 115.704 58.654 111.97 58.4851C111.97 60.5709 111.97 62.8679 111.993 65.5801C112.088 74.2247 114.309 76.8609 121.426 76.7833C127.498 75.6537 132.984 72.8262 133.778 67.0904C136.382 48.2914 143.096 30.8975 150.189 13.5513C150.661 12.3966 150.723 11.0741 150.975 9.82967C155.671 3.75557 167.924 1.81112 174.404 5.97249C177.484 7.95012 175.52 9.93353 174.593 11.81C173.601 13.817 172.129 15.5843 171.105 17.5783C169.293 21.104 167.661 24.7223 166.128 27.9367C170.192 27.2589 174.238 26.3632 178.333 25.956C183.609 25.4313 185.851 29.3071 187.981 34.0357C187.854 39.5933 187.986 44.3999 187.372 49.109C186.135 58.5773 182.119 67.0209 176.88 74.9166C172.873 77.5769 168.867 80.2372 164.019 82.9212C157.696 83.8475 152.195 84.6452 146.74 85.6842C142.005 86.5861 137.653 84.6062 135.572 80.2382C134.958 78.9479 134.478 77.5937 133.929 76.2516C130.4 78.9422 127.138 81.4292 123.876 83.9162C123.485 83.9067 123.094 83.8972 121.988 83.8916C119.804 84.1631 118.344 84.5839 116.864 84.6746C104.017 85.4622 96.3174 81.553 93.6013 70.8849C92.443 66.3351 92.3952 61.3606 92.6506 56.6227C93.1584 47.2042 97.5583 39.2218 103.033 31.7776ZM151.071 73.6715C151.727 79.178 154.856 77.0501 156.631 74.9691C164.683 65.5259 168.209 54.2834 168.253 42.0037C168.266 38.4688 165.402 37.4103 162.98 40.1363C160.777 42.6159 159.545 45.9578 157.231 49.2197C154.221 56.861 150.178 64.2392 151.071 73.6715ZM117.039 47.3281C117.432 49.1189 114.763 52.2686 119.028 52.3408C123.869 52.4228 127.884 47.7305 126.981 42.9589C126.711 41.5318 125.571 39.8153 124.342 39.1884C123.564 38.7917 121.521 39.8516 120.687 40.814C119.217 42.5095 118.237 44.6301 117.039 47.3281Z" fill="#FFFEFD"/>
<path d="M21.4864 58.8908C23.6037 62.6571 25.6699 65.936 30.6725 65.1292C30.6725 71.6248 30.0416 77.7853 30.813 83.7649C32.1333 93.9977 39.6478 98.741 49.7244 96.4129C52.9394 95.6702 56.0719 94.5704 59.6355 93.7455C50.4656 101.034 39.9932 105.25 28.0019 101.73C22.1784 100.02 20.8912 96.8634 20.1305 88.4995C19.6524 83.2431 20.0414 77.9078 20.0414 72.6613C14.5121 71.1469 10.4381 65.8214 11.2625 60.9472C11.3994 60.1373 13.0404 59.1498 14.0863 59.0141C16.3708 58.7177 18.7196 58.9161 21.4864 58.8908Z" fill="#FF972A"/>
<path d="M102.688 31.8365C97.558 39.2218 93.1581 47.2042 92.6503 56.6227C92.3949 61.3606 92.4426 66.3351 93.601 70.8849C96.3171 81.553 104.017 85.4622 116.864 84.6746C118.344 84.5839 119.804 84.1631 121.699 83.9418C115.056 92.7021 96.4713 93.3017 88.8513 86.9794C86.356 84.9091 85.0428 81.414 83.0332 78.2437C83.5684 76.2502 84.2263 74.5688 84.9568 72.9195C87.0881 68.1074 87.0168 63.6039 83.1033 58.8528C83.6912 55.1014 84.3606 52.0894 85.03 49.0774C89.6108 43.8645 94.1916 38.6517 98.9617 33.1562C100.215 32.5475 101.279 32.2214 102.688 31.8365Z" fill="#FF982C"/>
<path d="M176.95 75.3555C182.119 67.0209 186.135 58.5773 187.371 49.109C187.986 44.3999 186.853 39.5933 187.129 34.3699C189.516 33.2446 193.833 32.5801 196.532 31.8989C195.119 37.5155 191.866 43.0513 190.642 48.806C189.035 56.3575 187.441 64.0663 187.295 71.7352C187.109 81.4975 191.999 85.7767 201.654 85.9712C199.847 87.6326 197.796 89.5659 195.375 90.7334C185.637 95.4307 177.61 89.8 177.052 79.7834C176.979 78.4572 177.029 77.1242 176.95 75.3555Z" fill="#FF982D"/>
<path d="M32.3047 28.0886C39.0968 21.2 48.4036 19.1286 57.7759 18.117C63.929 17.4528 70.4815 17.6745 76.4863 19.0779C86.7061 21.4665 89.7329 31.0177 82.8975 39.0421C79.6901 42.8073 74.8678 45.1969 70.4915 47.7484C78.9599 38.604 77.3245 30.5016 68.2493 25.8961C68.9745 22.561 66.223 22.424 64.3615 22.2138C57.6453 21.4553 50.9148 21.1809 44.3947 24.9448C40.2647 26.045 36.4859 27.0079 32.3047 28.0886Z" fill="#FF992F"/>
<path d="M19.54 13.918C19.9054 14.4927 16.3652 17.2834 16.088 17.6162C9.53402 25.4867 8.80468 34.0165 13.1312 43.5358C11.5711 47.4154 9.94317 50.911 8.30622 54.426C1.46606 51.6645 -2.37826 38.1675 1.62101 29.7282C4.6199 23.4 13.206 17.1284 19.54 13.918Z" fill="#FF972A"/>
<path d="M124.036 84.2482C127.138 81.4292 130.4 78.9422 133.929 76.2516C134.478 77.5937 134.958 78.948 135.572 80.2382C137.652 84.6062 142.005 86.5862 146.739 85.6843C152.194 84.6452 157.695 83.8475 163.64 82.9777C160.964 87.8964 155.825 88.9573 150.689 89.8833C146.238 90.6858 141.692 91.0086 137.28 91.9682C131.646 93.1936 126.335 91.0091 124.036 84.2482Z" fill="#FF992D"/>
<path d="M209.292 82.8923C211.829 79.4207 214.691 76.0757 217.998 72.2122C221.285 79.6798 226.311 84.1071 234.866 83.6935C228.556 91.3058 217.653 93.2252 209.292 82.8923Z" fill="#FF982D"/>
<path d="M239.974 82.331C243.111 78.9407 246.301 75.9301 249.257 73.1406C250.453 75.9806 251.049 79.7604 253.24 81.9343C255.419 84.0972 259.199 84.647 262.681 85.9667C260.224 90.6035 255.529 92.036 250.695 92.5303C245.41 93.0707 241.993 89.59 239.974 82.331Z" fill="#FF982C"/>
<path d="M299.955 83.2827C303.046 79.9053 306.213 76.8932 309.16 74.0914C310.639 76.889 311.559 80.5574 313.905 82.5245C316.29 84.5244 320.081 84.8474 323.67 85.9686C318.515 92.8235 309.976 94.1618 304.662 89.9594C302.688 88.3991 301.55 85.7828 299.955 83.2827Z" fill="#FF982C"/>
<path d="M270.906 83.1321C273.325 79.7228 275.934 76.6352 279.114 72.871C282.493 80.251 287.693 84.1167 295.832 83.719C288.633 92.7486 275.594 91.4847 270.906 83.1321Z" fill="#FF982C"/>
<path d="M42.3735 27.9503C39.9054 35.4906 36.8668 42.9322 34.2635 50.5231C32.4796 55.7249 28.7503 53.0037 25.3335 52.9965C27.5624 46.4402 30.0501 40.0195 32.7596 33.6939C34.4508 29.7457 37.5097 27.6008 42.3735 27.9503Z" fill="#FF992E"/>
<path d="M367.124 51.2132C363.993 49.7897 360.968 48.35 358.433 46.3031C357.341 45.4209 356.485 42.9875 356.936 41.7923C357.426 40.4941 359.867 38.76 360.919 39.0659C364.061 39.9792 366.939 41.7984 370.064 43.5886C369.282 46.2593 368.355 48.6051 367.124 51.2132Z" fill="#FF992F"/>
<path d="M276.929 36.9119C278.802 35.8793 280.684 34.8139 282.627 33.8763C284.17 33.132 285.788 32.5443 287.75 31.7791C281.7 40.5533 276.796 50.2062 277.424 61.3819C277.788 67.8704 274.422 71.5001 270.38 75.1833C269.376 76.0989 267.9 76.4978 266.04 77.4379C266.762 63.5542 269.305 51.0437 276.452 39.1068C276.899 38.0075 276.939 37.4303 276.979 36.8531C276.979 36.8531 276.964 36.9342 276.929 36.9119Z" fill="#FF982D"/>
<path d="M218.928 34.9123C221.382 33.8937 224.87 32.8976 227.73 31.7947C225.435 36.5813 221.074 41.2376 219.3 46.4354C217.567 51.5127 217.161 57.1185 216.711 62.5371C216.252 68.0662 210.419 75.4011 204.144 76.8242C205.148 71.1239 205.342 65.3572 207.258 60.2344C210.176 52.4327 212.285 45.0769 216.377 37.0612C216.903 36.0116 217.941 34.4325 217.978 33.8535C217.978 33.8535 218.963 34.9347 218.928 34.9123Z" fill="#FF992E"/>
<path d="M302.209 47.9336C303.896 45.2115 305.14 42.0265 307.38 39.8803C310.429 36.9581 313.1 38.1779 312.954 42.3967C312.795 46.9707 312.367 51.7453 310.866 56.0134C308.64 62.3402 305.524 68.3812 302.408 74.3453C301.755 75.5942 299.452 75.9807 297.91 76.7646C297.295 75.406 296.68 74.0473 296.448 72.1326C298.011 68.4418 299.593 65.3918 300.277 62.1521C301.263 57.4849 301.597 52.6798 302.209 47.9336Z" fill="#FF992D"/>
<path d="M241.768 46.8332C243.333 44.3621 244.527 41.5134 246.557 39.5156C249.1 37.0149 251.936 38.1547 251.981 41.7188C252.138 54.0644 248.378 65.3023 240.887 75.0826C238.957 77.6017 235.928 78.5412 235.456 73.1098C238.879 64.2322 242.047 55.9299 241.768 46.8332Z" fill="#FF982D"/>
<path d="M342.042 33.216C342.861 32.9054 343.527 32.9054 344.525 32.9143C339.945 40.2075 337.307 47.5204 343.115 55.8126C343.819 56.8184 342.156 61.0905 340.698 61.694C336.705 63.3472 335.459 66.4168 334.415 69.9521C334.322 70.2685 334.246 70.5908 334.139 70.9026C332.996 74.2422 331.081 76.6515 327.18 76.6548C327.402 73.965 327.625 71.2753 328.397 68.252C333.649 65.4837 333.937 64.0452 330.758 58.8569C334.468 50.4134 338.178 41.9699 342.042 33.216Z" fill="#FF9A30"/>
<path d="M216.206 22.9103C217.04 23.9181 216.54 26.9181 215.163 27.4627C209.649 28.1632 204.248 27.5678 198.452 28.0373C197.04 27.418 194.04 26.4627 193.482 21.7426C194.54 14.418 196.54 13.918 199.049 12.082C200.64 10.9181 203.373 11.268 205.527 11.3024C204.043 18.4445 204.527 21.0055 211.205 22.568C212.885 22.9611 214.54 22.46 216.206 22.9103Z" fill="#FF982D"/>
<path d="M358.555 72.5125C353.068 77.5756 346.245 76.8422 342.791 71.0452C342.318 70.2507 342.366 68.8513 342.702 67.9234C343.766 64.9806 345.081 62.1284 346.512 58.7361C351.037 63.0409 358.138 64.4841 358.555 72.5125Z" fill="#FF982E"/>
<path d="M250.156 25.3954C251.385 21.9266 252.734 18.7673 254.094 15.6124C255.802 11.6475 258.645 9.47229 263.534 9.89025C261.595 16.955 259.257 24.0433 256.782 31.5443C254.325 29.3379 252.303 27.5224 250.156 25.3954Z" fill="#FF982D"/>
<path d="M125.884 58.9175C127.783 57.1445 129.963 55.5877 131.53 53.5583C136.438 47.204 137.606 40.2122 134.284 32.3213C136.524 26.6261 138.697 21.2591 141.102 15.998C142.84 12.1954 145.813 9.92651 150.583 9.8692C150.722 11.0741 150.661 12.3966 150.188 13.5513C143.096 30.8975 136.382 48.2914 133.778 67.0904C132.984 72.8263 127.498 75.6537 121.572 76.4589C122.248 73.7824 123.39 71.549 123.985 69.1783C124.829 65.811 125.27 62.3427 125.884 58.9175Z" fill="#FF982D"/>
<path d="M216.595 23.9082C214.54 23.46 212.885 22.9611 211.205 22.568C204.527 21.0054 203.043 18.4444 204.92 11.2939C208.771 4.26133 220.349 2.69367 225.722 8.0806C229.329 11.6962 226.643 21.4821 221.628 22.8944C220.106 23.323 218.533 23.5738 216.595 23.9082Z" fill="#FFFEFE"/>
<path d="M50.1495 64.9664C49.5636 61.1385 51.7845 59.7961 55.0611 58.923C61.7725 57.1345 66.8268 60.6475 71.6232 64.2003C74.5565 66.3731 73.6698 69.9663 71.3696 72.0938C68.4047 74.8362 64.7404 76.8223 61.181 78.7677C63.673 72.369 62.5383 68.627 57.0788 66.5165C54.8955 65.6725 52.4666 65.4641 50.1495 64.9664Z" fill="#FF972B"/>
<path d="M69.2909 48.8082C69.1872 48.5159 69.3765 48.2369 69.8294 47.947C69.9232 48.2312 69.7535 48.5264 69.2909 48.8082Z" fill="#FF992F"/>
<path d="M157.884 48.9196C159.544 45.9578 160.776 42.6159 162.979 40.1363C165.401 37.4103 168.265 38.4688 168.253 42.0037C168.208 54.2834 164.682 65.526 156.63 74.9691C154.856 77.0501 151.726 79.178 151.451 73.1237C153.849 64.6904 155.867 56.805 157.884 48.9196Z" fill="#FF982B"/>
<path d="M117.046 46.9505C118.237 44.6302 119.217 42.5095 120.687 40.8141C121.521 39.8517 123.563 38.7918 124.342 39.1885C125.571 39.8153 126.711 41.5319 126.981 42.959C127.884 47.7305 123.869 52.4228 119.028 52.3409C114.763 52.2686 117.432 49.119 117.046 46.9505Z" fill="#FF982C"/>
<path d="M122.605 59.0117C119.613 61.0333 116.18 62.9894 112.358 65.0552C111.97 62.8679 111.97 60.5709 111.97 58.4852C115.703 58.654 118.933 58.8001 122.605 59.0117Z" fill="#FF9B32"/>
<path d="M80.5713 0.918016C81.7692 1.0627 82.8394 1.63704 83.4638 1.8561C93.888 5.51317 99.7459 12.9062 100.869 23.7558C101.147 26.4357 99.7092 29.2932 98.9162 32.754C94.1915 38.6517 89.6107 43.8645 84.6736 49.1002C81.0872 50.9939 77.8573 52.8648 74.8991 54.5783C77.2187 55.8385 80.0516 57.3774 83.0346 59.2543C87.0167 63.6039 87.0881 68.1074 84.9568 72.9195C84.2263 74.5688 83.5684 76.2502 82.8773 77.9169C76.8982 83.6284 70.9215 89.3433 62.3034 92.4548C61.1081 93.0549 60.5493 93.4746 59.9905 93.8944C59.9905 93.8944 60.0453 93.9121 59.6437 93.773C56.0719 94.5704 52.9394 95.6701 49.7244 96.4129C39.6479 98.741 32.1333 93.9977 30.8131 83.7648C30.0416 77.7853 30.6725 71.6248 30.6725 65.1292C25.6699 65.936 23.6037 62.6571 21.9307 58.8693C23.1247 57.0482 18.4441 52.973 24.9518 53.0407C28.7503 53.0037 32.4796 55.7249 34.2636 50.5231C36.8669 42.9322 39.9054 35.4906 42.7584 27.9853C43.1076 27.222 43.4568 26.4587 44.2758 25.2516C50.9146 21.1809 57.6451 21.4553 64.3613 22.2138C66.2228 22.424 68.9744 22.561 68.152 26.2565C63.4319 34.7218 58.8089 42.8266 54.186 50.9314C54.561 51.3741 54.936 51.8167 55.311 52.2594C59.8732 51.1045 64.4354 49.9497 69.2905 48.8082C69.7532 48.5264 69.9229 48.2312 70.068 47.9267C70.0434 47.9174 70.0535 47.969 70.4154 48.0894C74.8677 45.1969 79.69 42.8073 82.8973 39.0421C89.7328 31.0178 86.706 21.4665 76.4861 19.0779C70.4813 17.6745 63.9288 17.4528 57.7757 18.117C48.4035 19.1286 39.0967 21.2 31.9021 28.2063C24.6915 33.0766 21.1868 40.3393 18.4767 49.2287C16.775 47.3743 15.3089 45.7767 13.453 43.6654C8.80454 34.0164 9.53387 25.4867 16.0879 17.6162C16.54 16.918 16.54 16.918 16.54 16.418C16.54 16.418 17.04 15.918 17.54 15.418C18.04 14.918 17.7657 15.1968 18.248 14.5556C26.8035 8.26505 36.182 3.79322 46.626 1.64015C47.0173 1.55948 47.54 1.41802 48.337 1.25567C59.54 -0.0819792 68.152 -0.58197 80.5713 0.918016ZM61.3772 79.134C64.7403 76.8222 68.4046 74.8362 71.3695 72.0938C73.6698 69.9663 74.5564 66.3731 71.6231 64.2003C66.8268 60.6475 61.7724 57.1345 55.061 58.923C51.7844 59.7961 49.5636 61.1385 50.0396 65.7728C49.9513 66.0783 49.8579 66.3825 49.7755 66.6896C48.5988 71.07 46.4907 75.71 50.3771 79.5941C53.6159 82.831 57.2062 80.1552 61.3772 79.134Z" fill="#FFFEFD"/>
<path d="M379.04 44.4512C376.906 46.2364 374.772 47.5547 372.587 48.9042C371.953 47.1911 371.404 45.7083 370.388 43.7446C366.939 41.7983 364.061 39.9792 360.919 39.0659C359.867 38.76 357.426 40.494 356.936 41.7923C356.485 42.9875 357.341 45.4208 358.433 46.3031C360.968 48.35 363.993 49.7896 366.819 51.4754C375.589 58.7666 378.183 65.5561 375.012 73.5461C372.631 79.5461 367.659 82.7207 361.087 84.8354C351.89 86.4068 343.786 86.466 336.517 80.901C335.728 80.2964 333.887 80.1826 333.048 80.6901C330.528 82.2124 328.263 84.1554 325.899 85.9341C325.493 85.926 325.087 85.9179 323.969 85.9073C320.081 84.8475 316.29 84.5245 313.905 82.5246C311.559 80.5574 310.64 76.889 309.16 74.0914C306.214 76.8932 303.047 79.9053 299.879 82.9174C298.865 83.2447 297.851 83.572 296.171 83.6936C287.692 84.1167 282.493 80.251 279.114 72.871C275.933 76.6352 273.325 79.7228 270.716 82.8104C268.419 83.8437 266.122 84.8771 263.052 85.9073C259.2 84.647 255.419 84.0972 253.24 81.9343C251.05 79.7604 250.453 75.9807 249.257 73.1406C246.301 75.9302 243.111 78.9407 239.921 81.9513C238.575 82.5936 237.229 83.236 235.204 83.6796C226.312 84.1071 221.285 79.6798 217.998 72.2122C214.692 76.0757 211.829 79.4207 208.966 82.7657C206.907 83.8195 204.847 84.8732 202.014 85.909C191.999 85.7767 187.109 81.4975 187.295 71.7352C187.441 64.0664 189.035 56.3575 190.642 48.806C191.867 43.0514 194.12 37.5155 196.031 31.5816C196.783 30.2214 197.42 29.1617 198.452 28.0372C204.249 27.5678 209.649 27.1632 215.423 26.8334C220.956 27.9677 221.982 30.6309 218.928 34.9123C218.963 34.9347 218.978 34.8535 218.676 34.9602C218.314 35.6793 218.255 36.2918 218.042 37.218C214.285 45.0769 210.175 52.4327 207.258 60.2344C205.342 65.3572 205.148 71.124 204.143 76.8242C210.419 75.4011 216.252 68.0662 216.711 62.5371C217.161 57.1186 217.567 51.5127 219.3 46.4355C221.074 41.2376 224.435 36.5813 227.286 31.4068C233.974 25.3128 241.655 23.9018 250.156 25.3954C252.303 27.5224 254.325 29.3379 256.782 31.5443C259.257 24.0433 261.596 16.955 264.072 9.53457C266.179 7.44973 268.001 4.42693 270.142 4.18186C276.643 3.43755 283.4 3.1217 288.574 7.39589C284.62 17.3806 280.757 27.1351 276.929 36.9119C276.964 36.9342 276.979 36.8531 276.676 36.96C276.315 37.6798 276.256 38.2928 276.121 39.2673C269.305 51.0437 266.762 63.5542 266.04 77.4379C267.9 76.4978 269.376 76.0989 270.38 75.1833C274.422 71.5001 277.788 67.8704 277.424 61.3819C276.796 50.2062 281.7 40.5533 288.313 31.3931C290.996 29.3903 293.275 26.8099 296.034 26.1008C304.375 23.9573 312.914 22.4974 317.426 31.1099C320.657 29.2003 323.355 26.3783 326.231 26.1835C330.95 25.8639 335.797 27.1673 340.564 27.9444C344.053 28.5132 343.918 30.5038 342.042 33.216C338.178 41.9699 334.468 50.4134 330.46 59.0741C329.506 62.1625 328.85 65.0338 328.021 68.2453C327.625 71.2753 327.403 73.965 327.18 76.6548C331.082 76.6515 332.997 74.2422 334.14 70.9026C334.246 70.5908 334.322 70.2685 334.415 69.9521C335.459 66.4168 336.705 63.3472 340.698 61.694C342.156 61.0905 343.819 56.8184 343.115 55.8126C337.308 47.5204 339.945 40.2075 345.026 32.6106C350.255 27.3133 356.514 24.6061 363.425 25.1052C368.695 25.4857 373.84 27.5839 379.04 28.918C379.04 33.9401 379.04 38.9622 379.04 44.4512ZM241.173 47.2664C240.774 48.6517 240.512 50.0941 239.955 51.4126C237.052 58.2917 234.882 65.3193 235.071 73.655C235.928 78.5412 238.957 77.6017 240.887 75.0826C248.378 65.3023 252.138 54.0644 251.981 41.7188C251.935 38.1547 249.099 37.0149 246.557 39.5156C244.527 41.5134 243.333 44.3621 241.173 47.2664ZM296.066 72.6886C296.68 74.0473 297.295 75.406 297.91 76.7646C299.452 75.9807 301.755 75.5942 302.408 74.3453C305.525 68.3812 308.64 62.3402 310.866 56.0133C312.367 51.7453 312.796 46.9707 312.954 42.3967C313.1 38.1779 310.429 36.9581 307.38 39.8803C305.141 42.0265 303.896 45.2115 301.879 48.6256C298.539 56.0324 295.954 63.6233 296.066 72.6886ZM358.71 72.1733C358.138 64.4841 351.038 63.0409 346.512 58.7362C345.081 62.1285 343.766 64.9806 342.702 67.9234C342.366 68.8514 342.318 70.2507 342.791 71.0452C346.245 76.8422 353.068 77.5756 358.71 72.1733Z" fill="#FFFEFD"/>
</svg>
