<svg viewBox="0 0 376 106" fill="none" xmlns="http://www.w3.org/2000/svg">
<path d="M175.843 76.0008C174.059 78.9999 172.018 81.8791 170.557 85.0277C168.629 89.1821 165.774 89.941 161.289 87.884C154.501 82.0774 154.685 74.9503 155.39 67.7022C155.567 65.8855 155.913 64.0848 156.197 62.2792C156.449 60.6834 156.722 59.091 156.986 57.4971C156.406 57.3194 155.826 57.1418 155.246 56.9641C151.444 64.976 147.643 72.9879 143.841 80.9997C140.48 89.1246 139.292 89.9112 132.182 87.965C129.667 85.2201 127.098 83.0727 126.046 80.341C122.186 70.3151 123.719 60.151 126.389 50.1166C127.741 45.0331 129.362 40.0209 130.861 34.9764C132.358 29.5903 137.499 28.4229 145.187 29.0891C148.148 29.3457 151.057 30.4997 153.923 31.4454C155.836 32.0764 157.05 33.2494 155.048 35.6428C154.914 36.0115 154.939 35.9329 154.652 36.0264C154.239 36.6907 154.115 37.2615 153.675 37.9842C146.56 46.8136 143.358 56.9589 141.103 66.672C147.602 56.5262 154.441 45.8492 161.281 35.1721C167.742 28.8099 174.599 27.2229 180.966 30.3916C184.298 32.0501 185.972 33.718 182.598 37.0243C181.622 37.9808 181.277 39.5811 180.337 41.1246C180.031 41.363 180.035 41.4579 179.784 41.7228C179.405 42.6525 179.278 43.3174 178.996 44.2995C173.246 51.3711 171.636 59.6531 169.308 68.5249C178.029 56.608 186.235 45.3941 194.442 34.1802C197.372 30.8174 200.596 28.2543 205.423 27.9136C210.824 27.5324 214.444 29.6464 216.848 34.9956C216.058 38.381 215.382 41.1112 214.438 43.7451C211.195 52.792 207.716 61.7576 204.65 70.8631C203.831 73.2952 204.166 76.1158 203.951 79.0224C210.064 77.5485 214.275 72.7465 215.158 68.0136C216.463 61.0198 218.03 54.0659 219.76 47.1637C220.878 42.7 222.487 38.3592 223.876 33.9633C224.249 33.2419 224.622 32.5206 225.37 31.3948C230.801 30.2171 235.858 29.444 240.915 28.6709C243.797 29.9914 248.823 28.1516 248.737 34.3887C248.8 34.8408 248.921 34.7999 248.624 34.5916C247.936 34.9176 247.545 35.4519 247.002 36.2978C238.308 49.3716 233.123 63.253 231.639 79.0227C237.899 77.5627 244.707 70.3755 244.549 65.5798C244.137 53.153 248.238 42.4865 256.259 33.1717C261.555 27.1527 268.518 26.4495 276.518 27.3282C279.595 29.4369 282.035 31.2332 284.846 33.3019C287.213 26.128 289.552 19.0394 291.891 11.9508C295.529 5.64015 304.114 3.72576 312.838 7.34731C314.281 7.94636 315.607 8.82928 316.659 9.40257C312.745 19.0861 308.88 28.6482 304.94 38.9168C298.083 50.7277 295.395 63.1741 293.248 75.7568C293.105 76.5982 294.983 78.6878 295.824 78.6353C299.23 78.4223 305.463 70.058 305.323 66.3975C304.907 55.5727 307.602 45.6962 314.133 36.9364C314.709 36.1642 314.788 35.0221 315.098 34.0518C315.098 34.0518 315.023 34.0264 315.306 34.3188C316.006 34.072 316.422 33.5328 316.839 32.9935C321.224 28.7712 326.291 26.9461 332.538 26.8136C338.709 26.6827 342.835 28.9109 345.702 34.1282C351.148 27.5999 362.62 25.8489 369.85 30.4289C370.948 31.1244 371.98 31.7754 370.657 34.0952C363.812 46.0986 358.421 58.7816 355.021 72.9967C355.031 75.388 355.035 77.019 355.039 78.6501C356.667 77.836 358.433 77.2089 359.875 76.1434C360.869 75.4095 361.414 74.0684 362.159 72.9987C366.058 67.2893 369.957 61.5799 373.855 55.8705C374.405 56.0589 374.954 56.2472 375.503 56.4356C374.34 60.3461 373.457 64.3677 371.958 68.1442C368.83 76.0205 363.581 82.3019 356.385 86.8112C355.104 87.6139 353.332 87.6328 350.998 88.0207C342.222 87.9193 338.896 82.7794 337.617 76.1336C333.922 79.2026 330.406 82.1221 326.891 85.0416C325.851 85.3596 324.812 85.6776 323.079 85.8419C314.674 86.3308 310.354 81.5406 306.959 74.9109C303.574 79.0342 300.784 82.4345 297.993 85.8347C295.258 86.562 292.523 87.2893 289.017 88.0289C280.592 86.9893 278.574 81.2207 277.673 75.1647C273.67 78.5337 269.791 81.7981 265.912 85.0626C264.552 85.3714 263.192 85.6801 261.145 85.8001C252.756 85.9731 249.079 80.7591 245.95 74.3103C242.356 78.4689 239.173 82.1519 235.99 85.8348C233.538 86.5666 231.086 87.2983 227.888 88.1007C221.072 87.5409 217.115 84.356 215.716 78.2756C211.62 81.6161 207.807 84.7251 203.994 87.8342C203.244 87.8939 202.495 87.9537 200.977 88.0227C192.662 87.3957 189.168 84.5599 188.008 77.3655C187.435 73.8095 187.479 70.1044 187.668 66.4889C187.862 62.7677 188.571 59.0733 189.055 55.3673C188.506 55.1111 187.957 54.8549 187.407 54.5986C183.552 61.7327 179.697 68.8667 175.843 76.0008ZM328.175 54.3226C326.839 60.2091 325.503 66.0955 324.037 72.8178C324.669 74.8291 325.301 76.8404 325.933 78.8516C327.774 77.6418 330.255 76.8455 331.349 75.1529C337.121 66.2182 340.618 56.4015 340.937 45.6857C340.988 43.9792 339.614 42.2302 338.899 40.5008C337.214 41.3223 334.809 41.7035 333.984 43.0516C331.892 46.4698 330.509 50.3217 328.175 54.3226ZM278.896 55.1957C279.273 51.4039 280.026 47.6017 279.92 43.8234C279.821 40.246 277.089 39.1135 274.517 41.582C272.294 43.7165 270.013 46.358 269.12 49.203C266.687 56.9614 264.8 64.9092 263.109 72.8695C262.734 74.637 264.053 76.7646 264.592 78.7263C266.596 77.5611 269.552 76.879 270.433 75.1436C273.571 68.9591 276.003 62.4165 278.896 55.1957Z" fill="#FFFEFD"/>
<path d="M41.6705 10.0163C41.0176 11.2267 40.0522 12.4993 38.9305 13.6144C23.2117 29.2407 14.0429 47.8703 13.1899 70.2155C13.0649 73.4915 13.5514 76.8777 14.3016 80.085C17.3877 93.28 27.9357 100.389 41.4399 98.6021C43.4168 98.3404 45.389 98.0434 47.8214 97.8348C37.7381 106.599 19.4179 107.004 11.2207 101.139C4.31037 96.1949 1.57061 89.351 1.07621 81.5196C-0.47828 56.8962 9.09491 36.4969 26.2422 19.5354C30.3649 15.4573 36.2245 13.135 41.6705 10.0163Z" fill="#FF972A"/>
<path d="M130.458 34.9877C129.362 40.0209 127.741 45.0331 126.389 50.1166C123.72 60.151 122.186 70.3152 126.046 80.3411C127.098 83.0728 129.668 85.2201 131.808 87.8575C129.937 90.3848 128.159 93.974 125.577 94.6991C121.549 95.8304 117.549 93.8446 115.878 89.3882C114.711 86.276 113.933 83.0178 112.911 79.412C113.097 78.232 113.173 77.3265 113.638 76.7181C122.282 65.4 124.931 52.8203 121.678 38.5502C124.449 37.0833 127.251 36.0411 130.458 34.9877Z" fill="#FF982C"/>
<path d="M175.912 76.4404C179.698 68.8667 183.552 61.7327 187.407 54.5986C187.957 54.8548 188.506 55.111 189.055 55.3672C188.571 59.0733 187.862 62.7677 187.668 66.4889C187.479 70.1044 187.435 73.8095 188.008 77.3655C189.168 84.5599 192.662 87.3957 200.607 88.098C197.485 92.699 192.51 94.8237 187.136 94.3768C179.794 93.7661 176.489 89.3533 176.015 81.371C175.926 79.8786 175.988 78.3773 175.912 76.4404Z" fill="#FF972B"/>
<path d="M86.7055 34.0068C85.5657 36.3375 84.0414 38.6385 82.6048 40.9931C78.1748 48.2543 76.6685 56.2901 76.095 64.6495C75.9507 66.7523 75.0963 69.1996 73.7329 70.7574C67.817 77.5166 61.3368 83.6514 52.187 85.9259C53.8598 83.9715 55.9474 82.5816 57.5425 80.7604C60.1927 77.7342 64.4295 74.5387 64.6171 71.2232C65.0778 63.0832 66.7149 55.506 69.991 48.1596C76.8245 45.5804 80.3923 39.6491 84.6874 33.9916C85.4525 33.8925 85.9068 33.9471 86.7055 34.0068Z" fill="#FF982D"/>
<path d="M255.855 33.1007C248.238 42.4865 244.137 53.1529 244.549 65.5798C244.707 70.3755 237.899 77.5627 231.639 79.0227C233.123 63.253 238.308 49.3716 247.33 36.3001C248.18 35.5939 248.551 35.1969 248.921 34.7999C248.921 34.7999 248.8 34.8407 248.775 34.7822C250.984 34.159 253.218 33.5944 255.855 33.1007Z" fill="#FF992F"/>
<path d="M314.715 34.0318C314.788 35.0221 314.709 36.1643 314.133 36.9364C307.602 45.6962 304.907 55.5727 305.323 66.3975C305.463 70.058 299.231 78.4224 295.824 78.6353C294.983 78.6879 293.105 76.5982 293.249 75.7568C295.395 63.1742 298.083 50.7277 305.017 39.3034C308.222 37.3262 311.277 35.669 314.715 34.0318Z" fill="#FF992E"/>
<path d="M232.841 12.9912C236.728 6.36224 248.195 4.77363 253.638 10.1103C257.004 13.4113 254.784 23.3458 250.169 24.8695C247.922 25.6115 245.436 25.6324 242.436 25.6487C231.765 22.7383 231.04 21.742 232.841 12.9912Z" fill="#FFFEFE"/>
<path d="M223.481 33.9807C222.487 38.3592 220.878 42.7001 219.76 47.1637C218.03 54.0659 216.463 61.0198 215.158 68.0136C214.275 72.7466 210.064 77.5485 203.951 79.0224C204.166 76.1158 203.831 73.2953 204.65 70.8631C207.716 61.7576 211.195 52.7921 214.438 43.7451C215.382 41.1113 216.058 38.381 216.983 35.3231C219.102 34.6336 221.094 34.3158 223.481 33.9807Z" fill="#FF992F"/>
<path d="M143.911 81.4114C147.643 72.9879 151.444 64.976 155.246 56.9642C155.826 57.1418 156.406 57.3195 156.986 57.4971C156.722 59.091 156.449 60.6834 156.197 62.2793C155.913 64.0848 155.567 65.8855 155.39 67.7022C154.685 74.9503 154.501 82.0774 160.926 87.7461C159.264 90.3471 157.838 93.8534 155.461 94.7043C151.371 96.1684 147.776 93.692 146.02 89.6896C144.946 87.2405 144.635 84.4566 143.911 81.4114Z" fill="#FF982C"/>
<path d="M68.3096 85.9967C70.9319 82.1173 73.8715 78.3999 76.9277 74.5352C84.034 86.5188 86.9579 88.0165 99.5117 86.2807C92.9956 93.6229 79.312 95.0701 73.6656 91.0992C71.767 89.7639 70.2943 87.823 68.3096 85.9967Z" fill="#FF982C"/>
<path d="M232.427 12.9957C231.04 21.7419 231.765 22.7382 242.03 25.6294C241.93 26.6855 241.613 27.4299 241.106 28.4226C235.858 29.444 230.801 30.2172 225.372 31.076C220.485 29.1565 218.476 26.0594 219.958 20.946C221.581 15.3485 224.815 13.0546 232.427 12.9957Z" fill="#FF982C"/>
<path d="M265.957 85.4272C269.791 81.7981 273.67 78.5337 277.673 75.1647C278.574 81.2207 280.592 86.9893 288.614 88.1184C286.129 92.7728 281.36 94.4498 276.614 94.5535C271.188 94.672 267.463 91.2399 265.957 85.4272Z" fill="#FF982C"/>
<path d="M326.945 85.4078C330.406 82.1221 333.922 79.2027 337.617 76.1337C338.896 82.7794 342.222 87.9193 350.607 88.0954C345.45 94.8855 336.972 96.2452 331.631 92.048C329.66 90.4997 328.519 87.8963 326.945 85.4078Z" fill="#FF982C"/>
<path d="M236.308 85.9796C239.173 82.1519 242.356 78.4689 245.95 74.3103C249.08 80.7591 252.756 85.9732 260.78 85.8296C254.426 93.5643 243.404 94.726 236.308 85.9796Z" fill="#FF982D"/>
<path d="M298.315 86.0028C300.784 82.4345 303.574 79.0342 306.959 74.9109C310.354 81.5406 314.674 86.3308 322.737 85.8759C315.342 94.9714 302.754 93.2378 298.315 86.0028Z" fill="#FF982B"/>
<path d="M204.312 87.9973C207.807 84.7251 211.62 81.6161 215.717 78.2756C217.115 84.356 221.072 87.5409 227.515 88.2699C224.403 90.2503 221.099 92.7024 217.39 93.8804C211.814 95.6516 207.841 93.5112 204.312 87.9973Z" fill="#FF982C"/>
<path d="M194.03 34.1042C186.236 45.3941 178.029 56.608 169.309 68.5249C171.636 59.6531 173.246 51.3711 179.383 44.0847C179.962 42.8544 179.999 42.1561 180.036 41.4579C180.036 41.4579 180.031 41.363 180.023 41.3996C181.517 40.6173 183.019 39.7975 184.521 38.9797C187.553 37.3287 190.586 35.6787 194.03 34.1042Z" fill="#FF9A30"/>
<path d="M291.469 11.9732C289.552 19.0395 287.213 26.1281 284.846 33.302C282.035 31.2333 279.595 29.437 276.964 27.3455C278.2 23.2799 279.34 19.3667 281.13 15.7768C283.145 11.7332 287.186 11.8281 291.469 11.9732Z" fill="#FF982C"/>
<path d="M160.848 35.1077C154.441 45.8492 147.602 56.5262 141.104 66.672C143.358 56.9589 146.56 46.8136 154.054 37.9296C154.812 37.1264 154.876 36.5296 154.939 35.9329C154.939 35.9329 154.914 36.0115 154.879 35.9892C156.702 35.659 158.559 35.3511 160.848 35.1077Z" fill="#FF9C36"/>
<path d="M362.098 72.6013C361.414 74.0684 360.869 75.4095 359.875 76.1434C358.433 77.2089 356.667 77.836 355.039 78.6501C355.035 77.019 355.031 75.388 355.106 73.3932C357.715 69.292 360.245 65.5545 362.775 61.8169C363.296 62.0052 363.817 62.1934 364.337 62.3817C363.571 65.6558 362.804 68.9299 362.098 72.6013Z" fill="#FF962B"/>
<path d="M316.527 33.0002C316.422 33.5327 316.006 34.072 315.313 34.3576C315.43 33.7383 315.822 33.3726 316.527 33.0002Z" fill="#FF992E"/>
<path d="M87.8947 33.1254C87.9899 33.486 87.7832 33.7988 87.2911 34.082C87.2014 33.7275 87.3971 33.4026 87.8947 33.1254Z" fill="#FF982D"/>
<path d="M65.959 48.6617C59.8027 56.1146 50.1182 56.8769 39.3298 50.9935C39.3113 50.3908 40.6285 49.9476 41.4055 49.2449C52.5498 41.9295 60.5721 32.596 65.462 20.7532C65.8018 19.9302 64.9999 17.5 61.9999 16C64.1123 14.4057 65.9028 12.7266 68.4999 11.5C73.9999 13.5 76.4999 17 76.0046 20.1652C72.1727 29.8861 63.7899 36.6027 55.8111 42.8045C55.0482 43.3975 54.1437 43.8084 53.1181 45.7626C57.2887 46.6484 61.4592 47.5341 65.959 48.6617Z" fill="#FF972B"/>
<path d="M114 53.5C113.698 62.1724 109.578 69.4769 103.976 75.9661C102.075 78.1681 98.5095 82.3049 95 78C96.0999 75.2776 98.3705 72.4225 99.1593 70.3449C101.776 63.4521 103.92 56.592 101 49C103.167 46.3635 106.139 42.6963 108.805 40.4419C113.5 44 112.77 49.7225 114 53.5Z" fill="#FF972A"/>
<path d="M278.799 55.6026C276.003 62.4166 273.571 68.9592 270.433 75.1437C269.552 76.879 266.596 77.5611 264.592 78.7264C264.053 76.7646 262.734 74.637 263.109 72.8696C264.8 64.9093 266.687 56.9615 269.121 49.203C270.013 46.358 272.294 43.7165 274.518 41.582C277.089 39.1135 279.821 40.246 279.921 43.8234C280.026 47.6017 279.273 51.4039 278.799 55.6026Z" fill="#FF982D"/>
<path d="M328.842 53.9999C330.509 50.3217 331.892 46.4698 333.984 43.0516C334.809 41.7035 337.214 41.3223 338.9 40.5009C339.615 42.2302 340.988 43.9792 340.937 45.6857C340.618 56.4015 337.121 66.2183 331.349 75.1529C330.255 76.8455 327.774 77.6418 325.934 78.8517C325.302 76.8404 324.67 74.8291 324.422 72.2264C326.152 65.7566 327.497 59.8783 328.842 53.9999Z" fill="#FF982D"/>
<path d="M328.509 54.1613C327.497 59.8783 326.152 65.7566 324.487 71.8085C325.503 66.0956 326.839 60.2091 328.509 54.1613Z" fill="black"/>
<path d="M248.624 34.5916C248.551 35.1969 248.18 35.5939 247.482 35.9886C247.545 35.4519 247.936 34.9176 248.624 34.5916Z" fill="black"/>
<path d="M88.1963 33.1731C93.734 26.1034 110.518 24.1943 116.415 30.8748C118.225 32.925 119.567 35.3879 121.416 38.3183C124.931 52.8203 122.282 65.4 113.637 76.7181C113.173 77.3265 113.097 78.232 112.84 78.9992C108.775 81.3414 104.709 83.6835 99.8785 86.1326C86.9576 88.0165 84.0338 86.5188 76.9274 74.5351C73.8712 78.3998 70.9316 82.1172 67.992 85.8346C62.4086 91.0179 56.5779 95.7956 48.1175 97.6306C45.3891 98.0434 43.4169 98.3404 41.44 98.6021C27.9358 100.389 17.3878 93.28 14.3017 80.085C13.5515 76.8776 13.0649 73.4915 13.19 70.2155C14.0429 47.8703 22.7813 29.1262 38.5 13.5C39.6218 12.3848 40.5 11.5 41.5 10.5L43 9C43 9 43.0784 8.84361 43.5 8.5C47.2201 5.4678 50.5 4 57.2941 1.32498C65 -0.499997 66.9685 -2.00272e-05 75 2C76 2.5 76.0644 2.56864 76.4583 2.85419C87.7849 11.0656 89.9492 18.2022 85.1018 31.5518C84.9397 31.998 85.0298 32.5358 84.6894 33.5881C80.3922 39.6491 76.8244 45.5804 69.6609 48.0878C68.3167 48.3118 67.3026 48.6077 65.9591 48.6617C61.4592 47.5341 57.2887 46.6484 53.1182 45.7626C54.1437 43.8084 55.0482 43.3975 55.8111 42.8045C63.7899 36.6027 71.1728 29.8861 75.3511 19.9903C76.1406 18.4507 76.3659 16.9602 77.0676 15.7448C78 12 76.5 11.0537 74.0979 11.0537C72.7198 11.126 71.3718 11.7742 69.6572 12.1051C67.1919 13.6445 65.0795 15.2389 62.6561 16.9742C58.4553 21.3519 53.9204 25.1711 50.8391 29.9312C46.9881 35.8804 44.3326 42.6036 41.0534 49.2485C40.6285 49.9475 40.5 50.5 40 51.5C38.2193 59.2186 35.6499 66.2235 35.1855 73.8216C34.4878 85.2392 40.4638 89.3469 51.9741 86.2422C61.3367 83.6514 67.817 77.5166 73.7328 70.7575C75.0962 69.1996 75.9506 66.7523 76.0949 64.6495C76.6685 56.2901 78.1747 48.2543 82.6047 40.9931C84.0413 38.6385 85.5657 36.3375 87.0499 34.012C87.0499 34.012 86.9968 33.9982 87.2865 34.0549C87.783 33.7988 87.9896 33.4859 88.1963 33.1731ZM101.158 49.3332C99.6277 53.8535 97.6035 58.2783 96.7077 62.9209C95.8245 67.4985 96.0837 72.2966 95.9815 77.7956C99.5785 81.3709 102.074 78.1681 103.975 75.9661C109.578 69.4769 112.692 61.829 113.747 52.7583C113.83 50.9895 114.204 49.1747 113.932 47.4622C113.472 44.5613 113.029 41.3892 108.305 41.0597C106.138 43.6963 105.5 43.5 101.158 49.3332Z" fill="#FFFEFD"/>
</svg>
