<svg viewBox="0 0 32 32" fill="black" xmlns="http://www.w3.org/2000/svg">
<path d="M8.66667 26.6666C6.09333 26.6666 4 24.5733 4 21.9999C4 19.4266 6.09333 17.3333 8.66667 17.3333C11.24 17.3333 13.3333 19.4266 13.3333 21.9999C13.3333 24.5733 11.24 26.6666 8.66667 26.6666ZM8.66667 19.9999C7.564 19.9999 6.66667 20.8973 6.66667 21.9999C6.66667 23.1026 7.564 23.9999 8.66667 23.9999C9.76933 23.9999 10.6667 23.1026 10.6667 21.9999C10.6667 20.8973 9.76933 19.9999 8.66667 19.9999Z" />
<path d="M25.9997 26.6666C23.4263 26.6666 21.333 24.5733 21.333 21.9999C21.333 19.4266 23.4263 17.3333 25.9997 17.3333C28.573 17.3333 30.6663 19.4266 30.6663 21.9999C30.6663 24.5733 28.573 26.6666 25.9997 26.6666ZM25.9997 19.9999C24.897 19.9999 23.9997 20.8973 23.9997 21.9999C23.9997 23.1026 24.897 23.9999 25.9997 23.9999C27.1023 23.9999 27.9997 23.1026 27.9997 21.9999C27.9997 20.8973 27.1023 19.9999 25.9997 19.9999Z" />
<path d="M22.667 21.3333H10.667V23.9999H22.667V21.3333Z" />
<path d="M13.3337 15.9999H2.66699V5.33325H13.3337V15.9999ZM5.33366 13.3333H10.667V7.99992H5.33366V13.3333Z" />
<path d="M9.33366 16H6.66699V20H9.33366V16Z" />
<path d="M20.4443 18.6666H17.3337C15.863 18.6666 14.667 17.4706 14.667 15.9999H10.667V13.3333H14.667C16.1377 13.3333 17.3337 14.5293 17.3337 15.9999H19.5563L24.5337 12.2666L26.1337 14.3999L20.4443 18.6666Z" />
<path d="M25.293 18.98L23.1997 11.3867C23.1317 11.1493 23.0983 10.908 23.0983 10.6667H21.333V8H25.7677V10.6667L27.8637 18.272L25.293 18.98Z" />
<path d="M27.9997 12H25.333V14.6667H27.9997V12Z" />
</svg>
