<svg xmlns="http://www.w3.org/2000/svg" xmlns:xlink="http://www.w3.org/1999/xlink" viewBox="0 0 28 28" version="1.1">
<g id="surface1">
<path style=" stroke:none;fill-rule:nonzero;" d="M 26.453125 0 L 1.542969 0 C 0.691406 0 0 0.691406 0 1.542969 L 0 26.453125 C 0 27.308594 0.691406 28 1.542969 28 L 14.957031 28 L 14.957031 17.171875 L 11.320312 17.171875 L 11.320312 12.933594 L 14.957031 12.933594 L 14.957031 9.8125 C 14.957031 6.195312 17.167969 4.226562 20.394531 4.226562 C 21.9375 4.226562 23.265625 4.34375 23.652344 4.394531 L 23.652344 8.175781 L 21.425781 8.175781 C 19.671875 8.175781 19.332031 9.011719 19.332031 10.234375 L 19.332031 12.933594 L 23.53125 12.933594 L 22.984375 17.171875 L 19.332031 17.171875 L 19.332031 28 L 26.453125 28 C 27.308594 28 28 27.308594 28 26.453125 L 28 1.542969 C 28 0.691406 27.308594 0 26.453125 0 Z M 26.453125 0 "/>
</g>
</svg>