<svg xmlns="http://www.w3.org/2000/svg" xmlns:xlink="http://www.w3.org/1999/xlink" viewBox="0 0 28 28" version="1.1">
<g >
<path d="M 13.988281 2.519531 C 17.71875 2.519531 18.164062 2.535156 19.636719 2.601562 C 21 2.667969 21.742188 2.894531 22.234375 3.085938 C 22.890625 3.339844 23.355469 3.640625 23.84375 4.128906 C 24.335938 4.621094 24.636719 5.085938 24.890625 5.738281 C 25.082031 6.230469 25.3125 6.972656 25.371094 8.335938 C 25.441406 9.8125 25.453125 10.253906 25.453125 13.988281 C 25.453125 17.722656 25.441406 18.164062 25.371094 19.640625 C 25.308594 21.003906 25.082031 21.746094 24.890625 22.238281 C 24.636719 22.890625 24.335938 23.359375 23.84375 23.847656 C 23.355469 24.335938 22.890625 24.640625 22.234375 24.894531 C 21.746094 25.085938 21 25.316406 19.636719 25.375 C 18.164062 25.441406 17.71875 25.457031 13.988281 25.457031 C 10.253906 25.457031 9.808594 25.441406 8.335938 25.375 C 6.972656 25.3125 6.230469 25.085938 5.738281 24.894531 C 5.082031 24.640625 4.617188 24.335938 4.128906 23.847656 C 3.636719 23.359375 3.335938 22.890625 3.082031 22.238281 C 2.890625 21.746094 2.660156 21.003906 2.601562 19.640625 C 2.53125 18.164062 2.519531 17.722656 2.519531 13.988281 C 2.519531 10.253906 2.53125 9.8125 2.601562 8.335938 C 2.664062 6.972656 2.890625 6.234375 3.082031 5.738281 C 3.335938 5.085938 3.636719 4.621094 4.128906 4.128906 C 4.617188 3.640625 5.082031 3.339844 5.738281 3.085938 C 6.226562 2.894531 6.972656 2.664062 8.335938 2.601562 C 9.808594 2.535156 10.253906 2.519531 13.988281 2.519531 Z M 13.988281 0 C 10.1875 0 9.710938 0.015625 8.21875 0.0859375 C 6.730469 0.152344 5.714844 0.386719 4.824219 0.734375 C 3.90625 1.09375 3.125 1.570312 2.347656 2.347656 C 1.566406 3.125 1.089844 3.902344 0.730469 4.824219 C 0.386719 5.714844 0.152344 6.730469 0.0859375 8.21875 C 0.015625 9.710938 0 10.1875 0 13.988281 C 0 17.785156 0.015625 18.261719 0.0859375 19.753906 C 0.152344 21.242188 0.386719 22.257812 0.734375 23.148438 C 1.09375 24.066406 1.570312 24.847656 2.347656 25.625 C 3.125 26.40625 3.902344 26.882812 4.824219 27.242188 C 5.714844 27.585938 6.730469 27.824219 8.21875 27.890625 C 9.710938 27.960938 10.1875 27.976562 13.988281 27.976562 C 17.785156 27.976562 18.261719 27.960938 19.753906 27.890625 C 21.242188 27.824219 22.257812 27.585938 23.148438 27.242188 C 24.070312 26.882812 24.847656 26.40625 25.625 25.625 C 26.40625 24.847656 26.882812 24.070312 27.242188 23.148438 C 27.585938 22.257812 27.824219 21.242188 27.890625 19.753906 C 27.960938 18.261719 27.976562 17.785156 27.976562 13.988281 C 27.976562 10.1875 27.960938 9.710938 27.890625 8.21875 C 27.824219 6.730469 27.585938 5.714844 27.242188 4.824219 C 26.882812 3.902344 26.40625 3.125 25.625 2.347656 C 24.847656 1.566406 24.070312 1.089844 23.148438 0.730469 C 22.257812 0.386719 21.242188 0.152344 19.753906 0.0859375 C 18.261719 0.015625 17.785156 0 13.988281 0 Z M 13.988281 0 "/>
<path d="M 13.988281 6.804688 C 10.019531 6.804688 6.804688 10.019531 6.804688 13.988281 C 6.804688 17.953125 10.019531 21.167969 13.988281 21.167969 C 17.953125 21.167969 21.167969 17.953125 21.167969 13.988281 C 21.167969 10.019531 17.953125 6.804688 13.988281 6.804688 Z M 13.988281 18.648438 C 11.410156 18.648438 9.324219 16.5625 9.324219 13.988281 C 9.324219 11.410156 11.410156 9.324219 13.988281 9.324219 C 16.5625 9.324219 18.648438 11.410156 18.648438 13.988281 C 18.648438 16.5625 16.5625 18.648438 13.988281 18.648438 Z M 13.988281 18.648438 "/>
<path d="M 23.128906 6.519531 C 23.128906 7.445312 22.378906 8.199219 21.453125 8.199219 C 20.527344 8.199219 19.773438 7.445312 19.773438 6.519531 C 19.773438 5.59375 20.527344 4.84375 21.453125 4.84375 C 22.378906 4.84375 23.128906 5.59375 23.128906 6.519531 Z M 23.128906 6.519531 "/>
</g>
</svg>