<svg viewBox="0 0 1343 220" fill="none" xmlns="http://www.w3.org/2000/svg">
<path d="M798.11 5.28C807.41 8.37 814.1 14.01 815.7 24.14C817.04 32.59 815.09 40.22 807.84 45.39C801.19 50.13 794.01 49.18 787.07 45.61C785.78 44.94 784.56 43.94 783.62 42.82C782.37 41.33 781.56 40.13 784.56 38.99C792.27 36.07 797.78 30.18 802.67 23.81C804.41 21.55 806.9 18.65 804.68 15.74C802.47 12.83 799.04 14.34 796.36 15.49C781.69 21.81 771.19 32.53 763.98 46.63C759.24 55.89 756.03 65.58 755.46 76.07C755.16 81.57 757.69 87.34 761.92 89.11C767.26 91.35 772.4 90.62 776.85 86.84C781.59 82.81 783.6 77.07 785.97 71.59C786.39 70.61 786.45 69.58 785.08 69.26C779.6 67.98 774.33 65.68 768.52 66.05C766.53 66.18 765.21 67.45 763.7 68.53C762.4 62.71 768.47 56.58 775.03 56.12C782.42 55.6 789.63 56.75 796.88 57.64C798.03 57.78 799.18 58.03 800.34 58.11C809.56 58.82 809.58 58.82 804.89 67.04C798.88 77.6 793.56 88.49 789.53 99.95C788.1 104.01 786.65 108.19 788.78 112.5C789.73 114.43 788.47 114.71 787.08 115.13C782.51 116.5 778.4 114.11 777.14 109.41C776.17 105.81 776.9 102.19 777.06 98.14C771.96 99.25 767.37 101.09 762.38 101.12C745.26 101.23 734.87 91.99 733.34 74.92C730.73 45.79 753.24 12.05 781.55 6.25C782.12 6.13 782.6 5.62 783.12 5.29C788.12 5.28 793.12 5.28 798.11 5.28Z" fill="white"/>
<path d="M918.98 65.19C922.08 63.83 922.85 60.46 924.99 58.24C931.68 51.28 939.29 46.88 949.38 48.66C954.43 49.55 958.56 51.68 960.6 57.89C963.83 52.46 966.63 47.69 969.49 42.97C976.24 31.85 984.84 30.06 996.03 37.19C998.68 38.88 998.66 39.97 996.78 42.41C984.54 58.24 974 75.15 965.67 93.37C964.64 95.62 963.68 97.98 963.17 100.38C962.48 103.64 964.22 105.08 967.1 103.42C972.21 100.48 977.12 97.72 978.3 90.61C980.25 78.89 986.03 69.09 996.63 62.79C1001.65 59.8 1007.02 58.53 1012.9 59.75C1024.06 62.06 1030.13 70.55 1027.33 80.08C1024.1 91.12 1013.56 96.75 1003.07 92.43C999.37 90.9 998.48 92.01 997.88 95.09C996.91 100.06 994.65 105.26 999.33 109.53C1002.75 112.64 1010.45 112.14 1015.77 108.64C1019.55 106.15 1022.13 103.22 1023.35 98.24C1026.8 84.12 1034.28 72.77 1049.53 69.14C1059.95 66.66 1066.92 70.57 1070.9 80.1C1078.75 74.6 1086.39 74.76 1094.53 80.36C1097.28 82.25 1097.93 83.43 1095.12 86.2C1085.71 95.49 1078.1 106.19 1071.97 117.9C1070.89 119.96 1068.63 122.73 1070.78 124.63C1072.94 126.55 1075.81 124.66 1078.08 123.23C1081.94 120.79 1084.71 117.86 1086.12 113.06C1088.94 103.43 1094.21 94.88 1100.24 86.87C1102.41 83.98 1105.58 82.87 1109.1 83.45C1111.54 83.85 1113.99 84.52 1116.28 85.44C1119.35 86.67 1123.51 87.68 1124.39 90.72C1125.33 93.99 1120.55 94.85 1118.77 97.24C1116.84 99.83 1113.84 101.6 1112.55 105.39C1115.16 105.38 1116.36 103.71 1117.72 102.53C1122.67 98.27 1128.01 94.64 1134.11 92.21C1137.11 91.01 1140.27 90.65 1143.43 91.07C1147.36 91.58 1149.69 93.7 1149.97 97.92C1150.53 106.38 1144.5 117.28 1136.92 121.13C1134.64 122.29 1132.27 122.88 1129.71 122.08C1127.71 121.46 1125.87 120.31 1125.18 118.44C1124.34 116.16 1127.2 116.35 1128.13 115.17C1128.75 114.39 1129.68 113.83 1130.16 113C1131.21 111.15 1132.77 109.07 1131.17 107.03C1129.38 104.74 1127.13 106.27 1125.35 107.33C1113.82 114.25 1104.98 123.76 1098.38 135.44C1097.21 137.51 1097.21 141.13 1093.27 140.45C1089.46 139.79 1086.44 138.02 1084.75 134.33C1083.61 131.83 1084.04 129.09 1083.37 126.28C1081.02 126.32 1079.64 128.2 1077.85 129.19C1073.74 131.49 1069.58 133.43 1064.67 133.09C1057.81 132.6 1054.34 128.19 1053.44 118.24C1047.64 121.4 1042.49 125.97 1035.15 124.24C1027.63 122.47 1024.14 117.39 1022.28 109.41C1015.28 116.56 1007 119.26 997.64 118C988.1 116.72 980.37 112.86 977.95 102.24C974.56 104.64 971.63 107.03 968.41 108.94C957.11 115.67 949.07 111.79 947.16 98.83C947.09 98.38 946.89 97.96 946.75 97.53C945.3 97.57 944.73 98.75 943.87 99.46C936.54 105.46 929.16 106.75 922.72 103.09C916.9 99.79 913.5 91.17 914.35 82.99C914.92 77.51 917.3 72.52 918.02 67.11L917.96 67.18C919.19 66.94 919.46 66.21 919 65.12L918.98 65.19ZM1110.42 107.66C1109.97 107.95 1108.9 108.01 1109.47 108.79C1109.86 109.33 1110.66 108.93 1111.02 108.25C1111.24 107.93 1111.72 107.42 1111.65 107.33C1111.05 106.53 1110.79 107.34 1110.42 107.66ZM932.05 93.33C932.1 95.85 931.62 97.69 933.42 98.7C935.31 99.77 936.94 98.8 938.44 97.7C939.23 97.11 940.01 96.45 940.63 95.69C947.15 87.81 952.09 79.11 954.5 69.09C955.02 66.94 955.5 64.65 953.42 63.17C950.94 61.41 948.83 63.33 947.28 64.8C938.8 72.81 934.2 82.9 932.05 93.33ZM1039.45 114.63C1039.08 116.33 1039.45 117.73 1040.96 118.55C1042.91 119.61 1044.62 118.51 1045.95 117.34C1054.64 109.7 1060.54 100.24 1063.72 89.14C1064.24 87.33 1064.61 85.03 1062.48 83.73C1060.4 82.46 1058.5 83.68 1057.02 84.9C1047.61 92.71 1042.04 102.82 1039.45 114.63ZM1007.37 86.91C1013.39 87 1017.94 83.8 1018.69 79.03C1018.95 77.36 1018.96 75.62 1017.42 74.52C1016.08 73.57 1014.53 73.93 1013.16 74.58C1009.78 76.18 1007.33 78.89 1005.04 81.73C1004.14 82.85 1002.49 84.13 1003.13 85.51C1003.85 87.1 1005.96 86.77 1007.37 86.91Z" fill="white"/>
<path d="M314.31 65.28C315.16 61.88 315.61 58.93 319.65 58.67C321.19 58.57 321.31 56.45 321.57 54.95C322.25 51.03 323.05 47.12 323.76 43.21C324.66 38.24 327.62 35.39 332.48 34.1C336.6 33 340.71 33.11 344.86 33.53C348.25 33.88 349.87 34.97 348.14 38.93C346.42 42.85 345.62 47.16 344.45 51.31C343.83 53.5 344.61 54.31 346.93 54.15C348.07 54.07 350.47 52.29 350.26 55.01C350.1 57.11 350.75 60.86 347.34 61.02C341.63 61.28 341.15 65.04 340.37 69.26C338.39 80.05 336.21 90.8 336.4 101.83C336.43 103.69 335.74 106.23 338.3 106.94C340.59 107.57 341.95 105.54 343.08 103.97C346.35 99.4 349.1 95.11 347.93 88.56C346.1 78.33 348.34 68.39 354.38 59.6C359.01 52.86 365.51 49.29 373.59 48.54C381.7 47.79 388.91 52.5 392.34 60.65C397.81 73.65 393.84 92.98 383.68 102.87C373.08 113.19 361.06 112.67 350.96 101.32C348.22 106.13 345.13 110.62 340.86 114.14C333.44 120.26 325.12 118.28 321.56 109.32C316.99 97.81 318.33 85.78 318.92 73.85C318.97 72.86 319.39 71.85 319.28 70.89C319.11 69.35 320.84 66.78 318.04 66.52C315.09 66.24 315.47 68.69 315.69 70.78C315.98 73.6 316.02 76.46 314.84 79.12C313.68 81.73 312.61 83.67 309.73 80.18C306.8 76.63 302.48 75.67 297.93 76.15C295.54 76.4 293.89 77.62 293.46 80.11C293.03 82.61 294.64 83.7 296.59 84.55C301 86.47 305.71 87.67 309.88 90.19C318.33 95.29 320.6 105.92 314.88 113.98C307.85 123.9 291.73 127.8 281.08 121.97C279.38 121.04 278.81 121.51 277.94 122.75C276.31 125.08 274.38 127.16 272.08 128.84C265.94 133.33 258.4 131.89 254.34 125.48C250.73 119.78 250.08 113.3 249.75 106.83C249.3 98.16 250.76 89.61 252 81.06C252.85 75.2 256.28 71.92 261.92 70.7C262.73 70.53 263.53 70.3 264.35 70.2C276.51 68.74 277.27 69.61 274.04 80.99C271.18 91.09 269.6 101.42 268.72 111.86C268.65 112.69 268.56 113.55 268.7 114.35C269.11 116.61 268.19 120.3 271.48 120.23C274.64 120.17 276.39 117.19 276.54 113.82C276.59 112.66 276.53 111.49 276.53 110.33C276.52 108.61 276.79 106.44 278.05 105.74C286.04 101.3 282.62 97.41 278.56 92.12C274.32 86.59 275.67 79.86 279.45 74.34C285.66 65.26 294.9 61.56 305.66 61.5C308.72 61.5 311.46 62.92 314.31 65.28ZM368.43 89.1C368.43 91.26 368.27 93.43 368.47 95.56C368.7 97.98 368.57 101.01 371.46 101.82C374.39 102.64 376.58 100.51 378.03 98.26C383.89 89.16 386.32 79.17 384.94 68.41C384.56 65.47 383.79 62.12 380.13 61.63C376.36 61.12 374.57 64.09 373.14 66.96C369.67 73.92 368.3 81.37 368.43 89.1ZM292.05 115.25C292.72 115.12 294.56 114.97 296.26 114.41C298.64 113.62 301.27 112.53 301.37 109.66C301.45 107.03 299.58 105.15 297.22 103.94C296.63 103.64 296.05 103.32 295.46 103.02C287.42 99.01 287.42 99.02 285.01 107.54C283.19 113.95 284.22 115.3 292.05 115.25Z" fill="white"/>
<path d="M610.29 49.18C607.73 51.42 607.44 54.99 605.31 57.54C601.69 61.88 597.62 63.22 593.56 61.21C591.5 60.19 590.6 59.22 592.64 57.23C593.94 55.96 595.03 54.38 595.24 52.5C595.45 50.57 596.07 48.27 593.77 47.18C591.79 46.24 590.31 47.71 589.02 49.04C582.18 56.1 577.8 64.65 574.31 73.68C573.06 76.91 572.31 80.34 571.38 83.7C570.68 86.21 571.79 89.78 567.64 90.27C563.59 90.75 559.95 89.84 557.61 86.23C556.27 84.16 555.32 81.83 554.01 79.26C549.45 84.41 545.43 90.06 538.41 91.71C532.22 93.16 527.31 89.61 523.64 81.22C521.6 81.33 521.27 83.29 520.3 84.45C510.61 95.98 495.69 93.66 490.97 79.35C486.14 64.7 489.06 51.09 499.33 39.44C504.49 33.58 511.33 31.45 519.15 32.12C523.97 32.53 526.8 35.52 529.1 39.42C534.99 31.2 542.57 29.12 552.35 32.54C555.38 33.6 555.52 34.84 554.11 37.59C547.81 49.91 543.02 62.78 540.99 76.56C540.7 78.52 539.95 80.88 542.15 81.9C543.99 82.76 545.66 81.02 546.89 79.78C550.55 76.1 553.59 72.26 553.34 66.4C552.92 56.66 555.62 47.35 558.58 38.17C559.93 33.99 562.84 31.72 567.3 31.1C572.2 30.42 576.88 31.08 581.53 32.51C584.1 33.3 584.51 34.45 582.8 36.74C579.22 41.53 576.57 46.81 574.95 53.55C577.74 51.92 578.36 49.67 579.5 47.9C583.65 41.42 588.22 35.3 594.77 31.04C598.33 28.72 602.25 26.85 606.42 29.31C610.57 31.75 610.69 36.19 610.81 40.34C610.9 43.3 610.45 46.27 610.25 49.24C610.23 49.26 610.29 49.18 610.29 49.18ZM525.18 53.3C525.26 48.61 524.47 45.97 522.86 45.29C520.58 44.33 518.89 45.6 517.74 47.26C510.57 57.63 507.87 69.15 509.47 81.61C509.89 84.92 512.3 85.06 514.6 83.38C515.88 82.45 516.88 80.97 517.67 79.55C522.31 71.14 524.32 61.97 525.18 53.3ZM574.93 54.14C574.57 54.54 574.2 54.86 573.96 55.25C573.88 55.38 574.13 55.7 574.23 55.94C574.56 55.67 574.97 55.45 575.19 55.11C575.29 54.93 575.04 54.54 574.93 54.14Z" fill="white"/>
<path d="M218.75 90.28C218.8 83.97 218.99 77.64 217.62 71.42C217.23 69.65 216.84 67.81 216.03 66.22C214.36 62.97 212.13 62.24 209.58 65.45C208.86 66.36 208.07 67.26 207.56 68.28C200.52 82.22 196.05 96.86 195.58 112.57C195.54 113.73 195.59 114.9 195.72 116.06C196.48 123.21 196.49 123.2 189.36 122.14C177.57 120.37 171.78 112.62 174.45 100.95C179.41 79.29 192.28 63.74 212.69 54.93C225.74 49.3 234.75 53.99 238.75 67.55C242.12 78.97 240.99 90.59 240.08 102.16C239.31 111.92 237.95 121.62 234.98 131.02C234.39 132.89 234.91 133.75 236.91 134.05C248.02 135.73 258.91 139.64 270.4 137.08C273.23 136.45 274.01 137.47 273.21 140.23C270.58 149.4 261.35 155 251.89 153.16C245.48 151.91 239.43 149.64 233.5 147.02C230.53 145.71 228.62 145.78 226.4 148.7C220.1 156.95 211.36 160.33 201.07 160.09C196.7 159.99 193.2 158.21 191.23 154.38C189.12 150.28 189.34 145.93 191.97 142.06C196.52 135.36 203.19 132.32 211.1 132.12C214.19 132.04 215.38 131.16 215.83 127.98C217.62 115.47 218.66 102.92 218.75 90.28ZM209.65 141.14C205.38 141.02 200.66 145.41 200.72 149.44C200.75 151.8 202.01 153.21 204.27 153.4C207.05 153.64 211.23 147.7 211.84 143.3C212.12 141.23 211.14 141.09 209.65 141.14Z" fill="white"/>
<path d="M448.74 92.17C446.9 97.45 445.27 102.49 443.39 107.44C441.3 112.92 438.41 117.95 433.99 121.96C427.63 127.73 420.41 128.43 412.64 125.43C410.1 124.45 408.16 122.73 407.24 119.54C411.24 119.9 415 121.22 418.26 118.13C421.1 115.44 423.32 112.42 424.72 108.79C429.17 97.22 430.77 85.02 432.4 72.86C433.41 65.3 433.94 57.67 434.55 50.05C434.91 45.53 437.24 42.71 441.4 41.19C445.6 39.65 449.93 39.77 454.21 40.4C456.62 40.75 458.87 41.87 458.44 46.5C460.62 43.97 461.7 42.5 462.99 41.25C470.95 33.54 482.17 36.01 485.5 46.59C489.34 58.8 486.46 80.77 473.82 91.12C466.35 97.25 455.92 97.94 448.74 92.17ZM466.54 60.5C466.44 58.78 466.51 56.61 466.14 54.5C465.87 52.96 465.6 51 463.54 50.7C461.74 50.45 460.26 51.48 459.4 52.95C453.21 63.59 451.03 75.11 452.51 87.24C452.93 90.65 455.46 90.89 458.01 88.84C459.73 87.46 460.69 85.51 461.56 83.53C464.77 76.34 466.26 68.77 466.54 60.5ZM457.95 46.36L457.78 46.7L458.05 46.72L457.95 46.36Z" fill="white"/>
<path d="M610.23 49.26C612.51 47.36 612.71 44.35 614.08 41.95C618.49 34.27 624.3 28.32 633.34 26.72C640.71 25.42 647.37 26.57 651.12 35.37C653.34 31.23 655.77 28.5 659.87 27.76C664.62 26.9 669.1 27.83 673.6 29.13C677.13 30.15 677.86 31.53 675.69 35.06C668.98 46 664.06 57.79 660.83 70.24C660.17 72.78 658.78 76.38 660.97 77.66C663.92 79.38 666.36 76.11 668.37 74.01C673.31 68.85 676.05 62.12 680.77 55.87C681.4 57.94 681.11 59.28 680.71 60.63C678.04 69.84 673.03 77.53 665.45 83.42C655.39 91.26 646.13 88.07 642.92 75.76C641.26 75.64 640.81 77.15 640.02 78.06C634.78 84.1 628.38 87.25 620.53 84.36C612.72 81.48 610.17 74.6 609.25 66.97C608.53 60.98 609.77 55.09 610.27 49.17C610.29 49.18 610.23 49.26 610.23 49.26ZM628.15 71.38C628.83 73.81 627.12 77.62 630.84 78.49C634.03 79.24 635.7 76.14 637.16 73.75C642.13 65.57 645.15 56.68 646.14 47.16C646.42 44.45 647.12 40.84 643.71 39.82C640.6 38.89 638.65 41.84 637.12 44.16C631.72 52.37 629.11 61.53 628.15 71.38Z" fill="white"/>
<path d="M918.04 67.12C915.72 69.62 913.57 72.32 911.03 74.57C907.79 77.44 904.06 78.36 900.06 75.81C898.04 74.52 897.01 73.27 899.6 71.4C901.83 69.79 903.36 67.62 903.38 64.71C903.4 61.56 902.12 60.32 899.03 61.89C896.32 63.26 894.12 65.3 892 67.41C884.15 75.25 877.98 84.2 873.91 94.59C873.09 96.68 873.44 99.96 869.82 100C866.1 100.05 862.89 98.77 860.87 95.57C858.88 92.43 858.12 88.86 858.05 85.13C857.77 70.66 863.19 57.91 870.03 45.61C871.72 42.57 874.76 41.43 878.06 41.46C880.53 41.48 883.03 41.89 885.44 42.45C888.52 43.17 892.32 43.82 893.84 46.38C895.97 49.97 890.96 50.95 889.59 53.43C887.81 56.66 884.92 59.28 883.67 63.52C886.52 63.03 887.26 61.02 888.52 59.68C894.37 53.5 900.29 47.37 908.91 45.13C916.84 43.06 921.65 47.31 920.68 55.47C920.29 58.73 919.57 61.95 918.99 65.19L919.03 65.13C917.79 65.37 917.71 66.19 917.99 67.19C917.98 67.19 918.04 67.12 918.04 67.12ZM883.16 65C883.41 64.8 883.65 64.6 883.88 64.41C883.66 64.25 883.42 63.94 883.24 63.97C882.96 64.02 882.71 64.3 882.45 64.49C882.69 64.66 882.92 64.83 883.16 65Z" fill="white"/>
<path d="M839.28 35.06C851.04 35.21 857.43 40.63 859.47 51.67C862.66 68.93 848.73 90.1 831.89 93.53C819.13 96.14 809.68 89 809.19 76.03C808.63 61.47 813.15 48.92 825.03 39.74C829.36 36.4 834.34 34.71 839.28 35.06ZM850.37 57.81C850.26 53.89 850.62 50.99 847.59 49.62C844.43 48.19 842.22 50.2 840.1 52.13C839.37 52.79 838.79 53.63 838.18 54.41C832.38 61.94 829.03 70.52 827.48 79.82C827.09 82.18 826.36 85.02 829.24 86.47C831.87 87.79 834.2 86.33 836.04 84.68C844.42 77.15 849.02 67.66 850.37 57.81Z" fill="white"/>
<path d="M141.95 94.94C147.97 101.63 148.64 108.19 147.05 115.13C145.02 123.94 140.75 131.88 137 140.02C134.51 145.42 131.52 150.7 131.59 156.95C131.63 160.43 132.23 163.85 135.55 165.53C139.1 167.33 142.31 165.63 145.16 163.31C150.51 158.96 153.31 153.24 153.58 146.46C153.71 143.29 153.51 140.69 157.58 139.87C161.71 139.03 164.77 139.92 166.93 143.58C169.39 147.75 169.17 152.33 168.24 156.69C165.38 170.06 145.17 183.99 131.47 182.34C123.17 181.34 118.25 176.05 117.85 167.27C117.45 158.46 119.53 150.1 123.38 142.23C128.12 132.54 133.1 122.95 137.93 113.3C140.63 107.93 142.4 102.3 141.95 94.94Z" fill="white"/>
<path d="M1147.76 160.54C1148.72 152.44 1153.45 148.23 1159.35 145.21C1166.65 141.47 1174.68 139.81 1182.63 138.02C1187.98 136.81 1193.36 135.71 1198.39 133.44C1199.89 132.76 1201.36 131.89 1202.63 130.85C1205.28 128.67 1207.49 126.05 1206.73 122.32C1205.99 118.73 1202.89 117.38 1199.8 116.6C1192.8 114.83 1186.24 116.04 1180.46 120.46C1178.33 122.08 1176.61 124.15 1173.63 121.79C1170.85 119.59 1168.65 117.24 1169.6 113.42C1171.34 106.47 1176.71 102.87 1182.94 101.31C1197.72 97.62 1210.27 102.83 1220.63 113.13C1227.26 119.73 1226.66 127.7 1219.97 134.31C1213.9 140.31 1206.42 144 1198.23 145.93C1187.56 148.44 1176.78 150.45 1166.04 152.64C1159.65 153.94 1153.66 156.15 1147.76 160.54Z" fill="white"/>
<path d="M270.88 47.94C277.21 47.67 279.82 49.14 280.49 53.27C281.39 58.77 278.82 63.22 273.61 64.94C271.09 65.77 268.48 66.14 265.8 66.12C261.84 66.08 257.98 65.82 256.8 61.04C255.82 57.09 258.49 51.64 262.22 49.71C264.92 48.31 267.87 47.96 270.88 47.94Z" fill="white"/>
<path d="M143.83 75.02C148.46 74.8 149.99 77.71 150.12 81.61C150.31 87.26 144.84 92.3 139.04 92.06C135.35 91.91 133.14 88.94 133.23 84.27C133.34 78.39 137.31 74.93 143.83 75.02Z" fill="white"/>
<path d="M1138.46 176.92C1134.15 176.82 1128.74 171.97 1128.87 168.31C1129 164.62 1133.77 160.9 1138.22 161C1143.07 161.11 1148.37 165.41 1148.16 169.06C1147.95 172.67 1142.59 177.01 1138.46 176.92Z" fill="white"/>
<path d="M917.98 67.19C917.7 66.19 917.78 65.37 919.02 65.13C919.48 66.22 919.21 66.94 917.98 67.19Z" fill="white"/>
<path d="M1111.02 108.25C1110.66 108.93 1109.86 109.33 1109.47 108.79C1108.9 108 1109.96 107.95 1110.42 107.66C1110.62 107.86 1110.82 108.05 1111.02 108.25Z" fill="white"/>
<path d="M1110.42 107.66C1110.79 107.34 1111.05 106.53 1111.65 107.33C1111.72 107.43 1111.25 107.93 1111.02 108.25C1110.82 108.05 1110.62 107.86 1110.42 107.66Z" fill="white"/>
<path d="M574.93 54.14C575.05 54.54 575.29 54.93 575.18 55.1C574.96 55.44 574.55 55.66 574.22 55.93C574.12 55.7 573.87 55.37 573.95 55.24C574.2 54.86 574.56 54.54 574.93 54.14Z" fill="white"/>
<path d="M457.95 46.36L458.06 46.72L457.79 46.7L457.95 46.36Z" fill="white"/>
<path d="M883.16 65C882.92 64.82 882.68 64.65 882.45 64.48C882.71 64.3 882.95 64.01 883.24 63.96C883.42 63.93 883.67 64.24 883.88 64.4C883.65 64.61 883.41 64.8 883.16 65Z" fill="white"/>
<path d="M808.11 0.279999C817.41 3.37 824.1 9.01 825.7 19.14C827.04 27.59 825.09 35.22 817.84 40.39C811.19 45.13 804.01 44.18 797.07 40.61C795.78 39.94 794.56 38.94 793.62 37.82C792.37 36.33 791.56 35.13 794.56 33.99C802.27 31.07 807.78 25.18 812.67 18.81C814.41 16.55 816.9 13.65 814.68 10.74C812.47 7.83 809.04 9.34 806.36 10.49C791.69 16.81 781.19 27.53 773.98 41.63C769.24 50.89 766.03 60.58 765.46 71.07C765.16 76.57 767.69 82.34 771.92 84.11C777.26 86.35 782.4 85.62 786.85 81.84C791.59 77.81 793.6 72.07 795.97 66.59C796.39 65.61 796.45 64.58 795.08 64.26C789.6 62.98 784.33 60.68 778.52 61.05C776.53 61.18 775.21 62.45 773.7 63.53C772.4 57.71 778.47 51.58 785.03 51.12C792.42 50.6 799.63 51.75 806.88 52.64C808.03 52.78 809.18 53.03 810.34 53.11C819.56 53.82 819.58 53.82 814.89 62.04C808.88 72.6 803.56 83.49 799.53 94.95C798.1 99.01 796.65 103.19 798.78 107.5C799.73 109.43 798.47 109.71 797.08 110.13C792.51 111.5 788.4 109.11 787.14 104.41C786.17 100.81 786.9 97.19 787.06 93.14C781.96 94.25 777.37 96.09 772.38 96.12C755.26 96.23 744.87 86.99 743.34 69.92C740.73 40.79 763.24 7.05 791.55 1.25C792.12 1.13 792.6 0.619999 793.12 0.289999C798.12 0.279999 803.12 0.279999 808.11 0.279999Z" fill="#E3B644"/>
<path d="M928.98 60.19C932.08 58.83 932.85 55.46 934.99 53.24C941.68 46.28 949.29 41.88 959.38 43.66C964.43 44.55 968.56 46.68 970.6 52.89C973.83 47.46 976.63 42.69 979.49 37.97C986.24 26.85 994.84 25.06 1006.03 32.19C1008.68 33.88 1008.66 34.97 1006.78 37.41C994.54 53.24 984 70.15 975.67 88.37C974.64 90.62 973.68 92.98 973.17 95.38C972.48 98.64 974.22 100.08 977.1 98.42C982.21 95.48 987.12 92.72 988.3 85.61C990.25 73.89 996.03 64.09 1006.63 57.79C1011.65 54.8 1017.02 53.53 1022.9 54.75C1034.06 57.06 1040.13 65.55 1037.33 75.08C1034.1 86.12 1023.56 91.75 1013.07 87.43C1009.37 85.9 1008.48 87.01 1007.88 90.09C1006.91 95.06 1004.65 100.26 1009.33 104.53C1012.75 107.64 1020.45 107.14 1025.77 103.64C1029.55 101.15 1032.13 98.22 1033.35 93.24C1036.8 79.12 1044.28 67.77 1059.53 64.14C1069.95 61.66 1076.92 65.57 1080.9 75.1C1088.75 69.6 1096.39 69.76 1104.53 75.36C1107.28 77.25 1107.93 78.43 1105.12 81.2C1095.71 90.49 1088.1 101.19 1081.97 112.9C1080.89 114.96 1078.63 117.73 1080.78 119.63C1082.94 121.55 1085.81 119.66 1088.08 118.23C1091.94 115.79 1094.71 112.86 1096.12 108.06C1098.94 98.43 1104.21 89.88 1110.24 81.87C1112.41 78.98 1115.58 77.87 1119.1 78.45C1121.54 78.85 1123.99 79.52 1126.28 80.44C1129.35 81.67 1133.51 82.68 1134.39 85.72C1135.33 88.99 1130.55 89.85 1128.77 92.24C1126.84 94.83 1123.84 96.6 1122.55 100.39C1125.16 100.38 1126.36 98.71 1127.72 97.53C1132.67 93.27 1138.01 89.64 1144.11 87.21C1147.11 86.01 1150.27 85.65 1153.43 86.07C1157.36 86.58 1159.69 88.7 1159.97 92.92C1160.53 101.38 1154.5 112.28 1146.92 116.13C1144.64 117.29 1142.27 117.88 1139.71 117.08C1137.71 116.46 1135.87 115.31 1135.18 113.44C1134.34 111.16 1137.2 111.35 1138.13 110.17C1138.75 109.39 1139.68 108.83 1140.16 108C1141.21 106.15 1142.77 104.07 1141.17 102.03C1139.38 99.74 1137.13 101.27 1135.35 102.33C1123.82 109.25 1114.98 118.76 1108.38 130.44C1107.21 132.51 1107.21 136.13 1103.27 135.45C1099.46 134.79 1096.44 133.02 1094.75 129.33C1093.61 126.83 1094.04 124.09 1093.37 121.28C1091.02 121.32 1089.64 123.2 1087.85 124.19C1083.74 126.49 1079.58 128.43 1074.67 128.09C1067.81 127.6 1064.34 123.19 1063.44 113.24C1057.64 116.4 1052.49 120.97 1045.15 119.24C1037.63 117.47 1034.14 112.39 1032.28 104.41C1025.28 111.56 1017 114.26 1007.64 113C998.1 111.72 990.37 107.86 987.95 97.24C984.56 99.64 981.63 102.03 978.41 103.94C967.11 110.67 959.07 106.79 957.16 93.83C957.09 93.38 956.89 92.96 956.75 92.53C955.3 92.57 954.73 93.75 953.87 94.46C946.54 100.46 939.16 101.75 932.72 98.09C926.9 94.79 923.5 86.17 924.35 77.99C924.92 72.51 927.3 67.52 928.02 62.11L927.96 62.18C929.19 61.94 929.46 61.21 929 60.12L928.98 60.19ZM1120.42 102.66C1119.97 102.95 1118.9 103.01 1119.47 103.79C1119.86 104.33 1120.66 103.93 1121.02 103.25C1121.24 102.93 1121.72 102.42 1121.65 102.33C1121.05 101.53 1120.79 102.34 1120.42 102.66ZM942.05 88.33C942.1 90.85 941.62 92.69 943.42 93.7C945.31 94.77 946.94 93.8 948.44 92.7C949.23 92.11 950.01 91.45 950.63 90.69C957.15 82.81 962.09 74.11 964.5 64.09C965.02 61.94 965.5 59.65 963.42 58.17C960.94 56.41 958.83 58.33 957.28 59.8C948.8 67.81 944.2 77.9 942.05 88.33ZM1049.45 109.63C1049.08 111.33 1049.45 112.73 1050.96 113.55C1052.91 114.61 1054.62 113.51 1055.95 112.34C1064.64 104.7 1070.54 95.24 1073.72 84.14C1074.24 82.33 1074.61 80.03 1072.48 78.73C1070.4 77.46 1068.5 78.68 1067.02 79.9C1057.61 87.71 1052.04 97.82 1049.45 109.63ZM1017.37 81.91C1023.39 82 1027.94 78.8 1028.69 74.03C1028.95 72.36 1028.96 70.62 1027.42 69.52C1026.08 68.57 1024.53 68.93 1023.16 69.58C1019.78 71.18 1017.33 73.89 1015.04 76.73C1014.14 77.85 1012.49 79.13 1013.13 80.51C1013.85 82.1 1015.96 81.77 1017.37 81.91Z" fill="#E3B644"/>
<path d="M324.31 60.28C325.16 56.88 325.61 53.93 329.65 53.67C331.19 53.57 331.31 51.45 331.57 49.95C332.25 46.03 333.05 42.12 333.76 38.21C334.66 33.24 337.62 30.39 342.48 29.1C346.6 28 350.71 28.11 354.86 28.53C358.25 28.88 359.87 29.97 358.14 33.93C356.42 37.85 355.62 42.16 354.45 46.31C353.83 48.5 354.61 49.31 356.93 49.15C358.07 49.07 360.47 47.29 360.26 50.01C360.1 52.11 360.75 55.86 357.34 56.02C351.63 56.28 351.15 60.04 350.37 64.26C348.39 75.05 346.21 85.8 346.4 96.83C346.43 98.69 345.74 101.23 348.3 101.94C350.59 102.57 351.95 100.54 353.08 98.97C356.35 94.4 359.1 90.11 357.93 83.56C356.1 73.33 358.34 63.39 364.38 54.6C369.01 47.86 375.51 44.29 383.59 43.54C391.7 42.79 398.91 47.5 402.34 55.65C407.81 68.65 403.84 87.98 393.68 97.87C383.08 108.19 371.06 107.67 360.96 96.32C358.22 101.13 355.13 105.62 350.86 109.14C343.44 115.26 335.12 113.28 331.56 104.32C326.99 92.81 328.33 80.78 328.92 68.85C328.97 67.86 329.39 66.85 329.28 65.89C329.11 64.35 330.84 61.78 328.04 61.52C325.09 61.24 325.47 63.69 325.69 65.78C325.98 68.6 326.02 71.46 324.84 74.12C323.68 76.73 322.61 78.67 319.73 75.18C316.8 71.63 312.48 70.67 307.93 71.15C305.54 71.4 303.89 72.62 303.46 75.11C303.03 77.61 304.64 78.7 306.59 79.55C311 81.47 315.71 82.67 319.88 85.19C328.33 90.29 330.6 100.92 324.88 108.98C317.85 118.9 301.73 122.8 291.08 116.97C289.38 116.04 288.81 116.51 287.94 117.75C286.31 120.08 284.38 122.16 282.08 123.84C275.94 128.33 268.4 126.89 264.34 120.48C260.73 114.78 260.08 108.3 259.75 101.83C259.3 93.16 260.76 84.61 262 76.06C262.85 70.2 266.28 66.92 271.92 65.7C272.73 65.53 273.53 65.3 274.35 65.2C286.51 63.74 287.27 64.61 284.04 75.99C281.18 86.09 279.6 96.42 278.72 106.86C278.65 107.69 278.56 108.55 278.7 109.35C279.11 111.61 278.19 115.3 281.48 115.23C284.64 115.17 286.39 112.19 286.54 108.82C286.59 107.66 286.53 106.49 286.53 105.33C286.52 103.61 286.79 101.44 288.05 100.74C296.04 96.3 292.62 92.41 288.56 87.12C284.32 81.59 285.67 74.86 289.45 69.34C295.66 60.26 304.9 56.56 315.66 56.5C318.72 56.5 321.46 57.92 324.31 60.28ZM378.43 84.1C378.43 86.26 378.27 88.43 378.47 90.56C378.7 92.98 378.57 96.01 381.46 96.82C384.39 97.64 386.58 95.51 388.03 93.26C393.89 84.16 396.32 74.17 394.94 63.41C394.56 60.47 393.79 57.12 390.13 56.63C386.36 56.12 384.57 59.09 383.14 61.96C379.67 68.92 378.3 76.37 378.43 84.1ZM302.05 110.25C302.72 110.12 304.56 109.97 306.26 109.41C308.64 108.62 311.27 107.53 311.37 104.66C311.45 102.03 309.58 100.15 307.22 98.94C306.63 98.64 306.05 98.32 305.46 98.02C297.42 94.01 297.42 94.02 295.01 102.54C293.19 108.95 294.22 110.3 302.05 110.25Z" fill="#E3B644"/>
<path d="M620.29 44.18C617.73 46.42 617.44 49.99 615.31 52.54C611.69 56.88 607.62 58.22 603.56 56.21C601.5 55.19 600.6 54.22 602.64 52.23C603.94 50.96 605.03 49.38 605.24 47.5C605.45 45.57 606.07 43.27 603.77 42.18C601.79 41.24 600.31 42.71 599.02 44.04C592.18 51.1 587.8 59.65 584.31 68.68C583.06 71.91 582.31 75.34 581.38 78.7C580.68 81.21 581.79 84.78 577.64 85.27C573.59 85.75 569.95 84.84 567.61 81.23C566.27 79.16 565.32 76.83 564.01 74.26C559.45 79.41 555.43 85.06 548.41 86.71C542.22 88.16 537.31 84.61 533.64 76.22C531.6 76.33 531.27 78.29 530.3 79.45C520.61 90.98 505.69 88.66 500.97 74.35C496.14 59.7 499.06 46.09 509.33 34.44C514.49 28.58 521.33 26.45 529.15 27.12C533.97 27.53 536.8 30.52 539.1 34.42C544.99 26.2 552.57 24.12 562.35 27.54C565.38 28.6 565.52 29.84 564.11 32.59C557.81 44.91 553.02 57.78 550.99 71.56C550.7 73.52 549.95 75.88 552.15 76.9C553.99 77.76 555.66 76.02 556.89 74.78C560.55 71.1 563.59 67.26 563.34 61.4C562.92 51.66 565.62 42.35 568.58 33.17C569.93 28.99 572.84 26.72 577.3 26.1C582.2 25.42 586.88 26.08 591.53 27.51C594.1 28.3 594.51 29.45 592.8 31.74C589.22 36.53 586.57 41.81 584.95 48.55C587.74 46.92 588.36 44.67 589.5 42.9C593.65 36.42 598.22 30.3 604.77 26.04C608.33 23.72 612.25 21.85 616.42 24.31C620.57 26.75 620.69 31.19 620.81 35.34C620.9 38.3 620.45 41.27 620.25 44.24C620.23 44.26 620.29 44.18 620.29 44.18ZM535.18 48.3C535.26 43.61 534.47 40.97 532.86 40.29C530.58 39.33 528.89 40.6 527.74 42.26C520.57 52.63 517.87 64.15 519.47 76.61C519.89 79.92 522.3 80.06 524.6 78.38C525.88 77.45 526.88 75.97 527.67 74.55C532.31 66.14 534.32 56.97 535.18 48.3ZM584.93 49.14C584.57 49.54 584.2 49.86 583.96 50.25C583.88 50.38 584.13 50.7 584.23 50.94C584.56 50.67 584.97 50.45 585.19 50.11C585.29 49.93 585.04 49.54 584.93 49.14Z" fill="#E3B644"/>
<path d="M228.75 85.28C228.8 78.97 228.99 72.64 227.62 66.42C227.23 64.65 226.84 62.81 226.03 61.22C224.36 57.97 222.13 57.24 219.58 60.45C218.86 61.36 218.07 62.26 217.56 63.28C210.52 77.22 206.05 91.86 205.58 107.57C205.54 108.73 205.59 109.9 205.72 111.06C206.48 118.21 206.49 118.2 199.36 117.14C187.57 115.37 181.78 107.62 184.45 95.95C189.41 74.29 202.28 58.74 222.69 49.93C235.74 44.3 244.75 48.99 248.75 62.55C252.12 73.97 250.99 85.59 250.08 97.16C249.31 106.92 247.95 116.62 244.98 126.02C244.39 127.89 244.91 128.75 246.91 129.05C258.02 130.73 268.91 134.64 280.4 132.08C283.23 131.45 284.01 132.47 283.21 135.23C280.58 144.4 271.35 150 261.89 148.16C255.48 146.91 249.43 144.64 243.5 142.02C240.53 140.71 238.62 140.78 236.4 143.7C230.1 151.95 221.36 155.33 211.07 155.09C206.7 154.99 203.2 153.21 201.23 149.38C199.12 145.28 199.34 140.93 201.97 137.06C206.52 130.36 213.19 127.32 221.1 127.12C224.19 127.04 225.38 126.16 225.83 122.98C227.62 110.47 228.66 97.92 228.75 85.28ZM219.65 136.14C215.38 136.02 210.66 140.41 210.72 144.44C210.75 146.8 212.01 148.21 214.27 148.4C217.05 148.64 221.23 142.7 221.84 138.3C222.12 136.23 221.14 136.09 219.65 136.14Z" fill="#E3B644"/>
<path d="M458.74 87.17C456.9 92.45 455.27 97.49 453.39 102.44C451.3 107.92 448.41 112.95 443.99 116.96C437.63 122.73 430.41 123.43 422.64 120.43C420.1 119.45 418.16 117.73 417.24 114.54C421.24 114.9 425 116.22 428.26 113.13C431.1 110.44 433.32 107.42 434.72 103.79C439.17 92.22 440.77 80.02 442.4 67.86C443.41 60.3 443.94 52.67 444.55 45.05C444.91 40.53 447.24 37.71 451.4 36.19C455.6 34.65 459.93 34.77 464.21 35.4C466.62 35.75 468.87 36.87 468.44 41.5C470.62 38.97 471.7 37.5 472.99 36.25C480.95 28.54 492.17 31.01 495.5 41.59C499.34 53.8 496.46 75.77 483.82 86.12C476.35 92.25 465.92 92.94 458.74 87.17ZM476.54 55.5C476.44 53.78 476.51 51.61 476.14 49.5C475.87 47.96 475.6 46 473.54 45.7C471.74 45.45 470.26 46.48 469.4 47.95C463.21 58.59 461.03 70.11 462.51 82.24C462.93 85.65 465.46 85.89 468.01 83.84C469.73 82.46 470.69 80.51 471.56 78.53C474.77 71.34 476.26 63.77 476.54 55.5ZM467.95 41.36L467.78 41.7L468.05 41.72L467.95 41.36Z" fill="#E3B644"/>
<path d="M620.23 44.26C622.51 42.36 622.71 39.35 624.08 36.95C628.49 29.27 634.3 23.32 643.34 21.72C650.71 20.42 657.37 21.57 661.12 30.37C663.34 26.23 665.77 23.5 669.87 22.76C674.62 21.9 679.1 22.83 683.6 24.13C687.13 25.15 687.86 26.53 685.69 30.06C678.98 41 674.06 52.79 670.83 65.24C670.17 67.78 668.78 71.38 670.97 72.66C673.92 74.38 676.36 71.11 678.37 69.01C683.31 63.85 686.05 57.12 690.77 50.87C691.4 52.94 691.11 54.28 690.71 55.63C688.04 64.84 683.03 72.53 675.45 78.42C665.39 86.26 656.13 83.07 652.92 70.76C651.26 70.64 650.81 72.15 650.02 73.06C644.78 79.1 638.38 82.25 630.53 79.36C622.72 76.48 620.17 69.6 619.25 61.97C618.53 55.98 619.77 50.09 620.27 44.17C620.29 44.18 620.23 44.26 620.23 44.26ZM638.15 66.38C638.83 68.81 637.12 72.62 640.84 73.49C644.03 74.24 645.7 71.14 647.16 68.75C652.13 60.57 655.15 51.68 656.14 42.16C656.42 39.45 657.12 35.84 653.71 34.82C650.6 33.89 648.65 36.84 647.12 39.16C641.72 47.37 639.11 56.53 638.15 66.38Z" fill="#E3B644"/>
<path d="M928.04 62.12C925.72 64.62 923.57 67.32 921.03 69.57C917.79 72.44 914.06 73.36 910.06 70.81C908.04 69.52 907.01 68.27 909.6 66.4C911.83 64.79 913.36 62.62 913.38 59.71C913.4 56.56 912.12 55.32 909.03 56.89C906.32 58.26 904.12 60.3 902 62.41C894.15 70.25 887.98 79.2 883.91 89.59C883.09 91.68 883.44 94.96 879.82 95C876.1 95.05 872.89 93.77 870.87 90.57C868.88 87.43 868.12 83.86 868.05 80.13C867.77 65.66 873.19 52.91 880.03 40.61C881.72 37.57 884.76 36.43 888.06 36.46C890.53 36.48 893.03 36.89 895.44 37.45C898.52 38.17 902.32 38.82 903.84 41.38C905.97 44.97 900.96 45.95 899.59 48.43C897.81 51.66 894.92 54.28 893.67 58.52C896.52 58.03 897.26 56.02 898.52 54.68C904.37 48.5 910.29 42.37 918.91 40.13C926.84 38.06 931.65 42.31 930.68 50.47C930.29 53.73 929.57 56.95 928.99 60.19L929.03 60.13C927.79 60.37 927.71 61.19 927.99 62.19C927.98 62.19 928.04 62.12 928.04 62.12ZM893.16 60C893.41 59.8 893.65 59.6 893.88 59.41C893.66 59.25 893.42 58.94 893.24 58.97C892.96 59.02 892.71 59.3 892.45 59.49C892.69 59.66 892.92 59.83 893.16 60Z" fill="#E3B644"/>
<path d="M849.28 30.06C861.04 30.21 867.43 35.63 869.47 46.67C872.66 63.93 858.73 85.1 841.89 88.53C829.13 91.14 819.68 84 819.19 71.03C818.63 56.47 823.15 43.92 835.03 34.74C839.36 31.4 844.34 29.71 849.28 30.06ZM860.37 52.81C860.26 48.89 860.62 45.99 857.59 44.62C854.43 43.19 852.22 45.2 850.1 47.13C849.37 47.79 848.79 48.63 848.18 49.41C842.38 56.94 839.03 65.52 837.48 74.82C837.09 77.18 836.36 80.02 839.24 81.47C841.87 82.79 844.2 81.33 846.04 79.68C854.42 72.15 859.02 62.66 860.37 52.81Z" fill="#E3B644"/>
<path d="M151.95 89.94C157.97 96.63 158.64 103.19 157.05 110.13C155.02 118.94 150.75 126.88 147 135.02C144.51 140.42 141.52 145.7 141.59 151.95C141.63 155.43 142.23 158.85 145.55 160.53C149.1 162.33 152.31 160.63 155.16 158.31C160.51 153.96 163.31 148.24 163.58 141.46C163.71 138.29 163.51 135.69 167.58 134.87C171.71 134.03 174.77 134.92 176.93 138.58C179.39 142.75 179.17 147.33 178.24 151.69C175.38 165.06 155.17 178.99 141.47 177.34C133.17 176.34 128.25 171.05 127.85 162.27C127.45 153.46 129.53 145.1 133.38 137.23C138.12 127.54 143.1 117.95 147.93 108.3C150.63 102.93 152.4 97.3 151.95 89.94Z" fill="#E3B644"/>
<path d="M1157.76 155.54C1158.72 147.44 1163.45 143.23 1169.35 140.21C1176.65 136.47 1184.68 134.81 1192.63 133.02C1197.98 131.81 1203.36 130.71 1208.39 128.44C1209.89 127.76 1211.36 126.89 1212.63 125.85C1215.28 123.67 1217.49 121.05 1216.73 117.32C1215.99 113.73 1212.89 112.38 1209.8 111.6C1202.8 109.83 1196.24 111.04 1190.46 115.46C1188.33 117.08 1186.61 119.15 1183.63 116.79C1180.85 114.59 1178.65 112.24 1179.6 108.42C1181.34 101.47 1186.71 97.87 1192.94 96.31C1207.72 92.62 1220.27 97.83 1230.63 108.13C1237.26 114.73 1236.66 122.7 1229.97 129.31C1223.9 135.31 1216.42 139 1208.23 140.93C1197.56 143.44 1186.78 145.45 1176.04 147.64C1169.65 148.94 1163.66 151.15 1157.76 155.54Z" fill="#E3B644"/>
<path d="M280.88 42.94C287.21 42.67 289.82 44.14 290.49 48.27C291.39 53.77 288.82 58.22 283.61 59.94C281.09 60.77 278.48 61.14 275.8 61.12C271.84 61.08 267.98 60.82 266.8 56.04C265.82 52.09 268.49 46.64 272.22 44.71C274.92 43.31 277.87 42.96 280.88 42.94Z" fill="#E3B644"/>
<path d="M153.83 70.02C158.46 69.8 159.99 72.71 160.12 76.61C160.31 82.26 154.84 87.3 149.04 87.06C145.35 86.91 143.14 83.94 143.23 79.27C143.34 73.39 147.31 69.93 153.83 70.02Z" fill="#E3B644"/>
<path d="M1148.46 171.92C1144.15 171.82 1138.74 166.97 1138.87 163.31C1139 159.62 1143.77 155.9 1148.22 156C1153.07 156.11 1158.37 160.41 1158.16 164.06C1157.95 167.67 1152.59 172.01 1148.46 171.92Z" fill="#E3B644"/>
<path d="M927.98 62.19C927.7 61.19 927.78 60.37 929.02 60.13C929.48 61.22 929.21 61.94 927.98 62.19Z" fill="#E3B644"/>
<path d="M1121.02 103.25C1120.66 103.93 1119.86 104.33 1119.47 103.79C1118.9 103 1119.96 102.95 1120.42 102.66C1120.62 102.86 1120.82 103.05 1121.02 103.25Z" fill="#E3B644"/>
<path d="M1120.42 102.66C1120.79 102.34 1121.05 101.53 1121.65 102.33C1121.72 102.43 1121.25 102.93 1121.02 103.25C1120.82 103.05 1120.62 102.86 1120.42 102.66Z" fill="#E3B644"/>
<path d="M584.93 49.14C585.05 49.54 585.29 49.93 585.18 50.1C584.96 50.44 584.55 50.66 584.22 50.93C584.12 50.7 583.87 50.37 583.95 50.24C584.2 49.86 584.56 49.54 584.93 49.14Z" fill="#E3B644"/>
<path d="M467.95 41.36L468.06 41.72L467.79 41.7L467.95 41.36Z" fill="#E3B644"/>
<path d="M893.16 60C892.92 59.82 892.68 59.65 892.45 59.48C892.71 59.3 892.95 59.01 893.24 58.96C893.42 58.93 893.67 59.24 893.88 59.4C893.65 59.61 893.41 59.8 893.16 60Z" fill="#E3B644"/>
<path d="M1336.75 136.46L1328.97 135.01C1322.62 133.84 1315.76 133.1 1307.61 132.75C1313.07 127.69 1317.31 123.11 1320.8 118.51L1325.09 112.88L1318.36 116.46C1313.17 119.22 1308.07 122.49 1302.49 126.63C1302.42 116.39 1297.79 53.49 1297.79 53.49C1296.52 67.85 1293.21 116.83 1293.14 128C1286.77 123.14 1281.22 119.51 1275.47 116.46L1268.78 112.9L1273.03 118.5C1276.52 123.11 1280.75 127.68 1286.2 132.73C1278.08 133.08 1271.22 133.81 1264.86 135L1257.12 136.45L1264.86 137.9C1271.21 139.08 1278.06 139.81 1286.2 140.16C1280.75 145.22 1276.52 149.79 1273.03 154.39L1268.77 159.99L1275.47 156.44C1281.22 153.38 1286.78 149.76 1293.14 144.9C1293.21 155.97 1297.94 219.42 1297.94 219.42C1298.38 214.89 1302.43 156.41 1302.49 146.27C1308.07 150.41 1313.18 153.68 1318.36 156.43L1325.09 160.01L1320.8 154.38C1317.31 149.78 1313.07 145.21 1307.61 140.15C1315.75 139.79 1322.61 139.07 1328.97 137.89L1336.75 136.46Z" fill="#F80138"/>
<path d="M1342.56 130.65L1334.78 129.2C1328.43 128.03 1321.57 127.29 1313.42 126.94C1318.88 121.88 1323.12 117.3 1326.61 112.7L1330.9 107.07L1324.17 110.65C1318.98 113.41 1313.88 116.68 1308.3 120.82C1308.23 110.58 1303.6 47.68 1303.6 47.68C1302.33 62.04 1299.02 111.02 1298.95 122.19C1292.58 117.33 1287.03 113.7 1281.28 110.65L1274.59 107.09L1278.84 112.69C1282.33 117.3 1286.56 121.87 1292.01 126.92C1283.89 127.27 1277.03 128 1270.67 129.19L1262.93 130.64L1270.67 132.09C1277.02 133.27 1283.87 134 1292.01 134.35C1286.56 139.41 1282.33 143.98 1278.84 148.58L1274.58 154.18L1281.28 150.63C1287.03 147.57 1292.59 143.95 1298.95 139.09C1299.02 150.16 1303.75 213.61 1303.75 213.61C1304.19 209.08 1308.24 150.6 1308.3 140.46C1313.88 144.6 1318.99 147.87 1324.17 150.62L1330.9 154.2L1326.61 148.57C1323.12 143.97 1318.88 139.4 1313.42 134.34C1321.56 133.98 1328.42 133.26 1334.78 132.08L1342.56 130.65Z" fill="white"/>
<path d="M80.6 136.46L72.82 135.01C66.47 133.84 59.61 133.1 51.46 132.75C56.92 127.69 61.16 123.11 64.65 118.51L68.94 112.88L62.21 116.46C57.02 119.22 51.92 122.49 46.34 126.63C46.27 116.39 41.64 53.49 41.64 53.49C40.37 67.85 37.06 116.83 36.99 128C30.62 123.14 25.07 119.51 19.32 116.46L12.63 112.9L16.88 118.5C20.37 123.11 24.6 127.68 30.05 132.73C21.93 133.08 15.07 133.81 8.70997 135L0.969971 136.45L8.70997 137.9C15.06 139.08 21.92 139.81 30.05 140.16C24.6 145.22 20.37 149.79 16.88 154.39L12.62 159.99L19.32 156.44C25.07 153.38 30.63 149.76 36.99 144.9C37.06 155.97 41.79 219.42 41.79 219.42C42.23 214.89 46.28 156.41 46.34 146.27C51.92 150.41 57.03 153.68 62.21 156.43L68.94 160.01L64.65 154.38C61.16 149.78 56.92 145.21 51.46 140.15C59.6 139.79 66.46 139.07 72.82 137.89L80.6 136.46Z" fill="#F80138"/>
<path d="M86.4 130.65L78.62 129.2C72.27 128.03 65.41 127.29 57.26 126.94C62.72 121.88 66.96 117.3 70.45 112.7L74.74 107.07L68.01 110.65C62.82 113.41 57.72 116.68 52.14 120.82C52.07 110.58 47.44 47.68 47.44 47.68C46.17 62.04 42.86 111.02 42.79 122.19C36.42 117.33 30.87 113.7 25.12 110.65L18.43 107.09L22.68 112.69C26.17 117.3 30.4 121.87 35.85 126.92C27.73 127.27 20.87 128 14.51 129.19L6.77002 130.64L14.51 132.09C20.86 133.27 27.72 134 35.85 134.35C30.4 139.41 26.17 143.98 22.68 148.58L18.42 154.18L25.12 150.63C30.87 147.57 36.43 143.95 42.79 139.09C42.86 150.16 47.59 213.61 47.59 213.61C48.03 209.08 52.08 150.6 52.14 140.46C57.72 144.6 62.83 147.87 68.01 150.62L74.74 154.2L70.45 148.57C66.96 143.97 62.72 139.4 57.26 134.34C65.4 133.98 72.26 133.26 78.62 132.08L86.4 130.65Z" fill="white"/>
</svg>
