<svg width="1363" height="621" viewBox="0 0 1363 621" fill="none" xmlns="http://www.w3.org/2000/svg">
<path d="M711.63 418.15C714.47 431.73 717.52 445.27 720.1 458.9C723.79 478.41 725.88 498.14 727.69 517.9C728.39 525.48 728.82 533.08 729.71 540.63C730.14 544.32 729.23 546.68 725.55 547.68C718.69 549.4 711.82 551.09 704.96 552.83C695.07 555.35 684.85 555.8 674.85 557.61C663.26 557.7 651.66 557.79 640.07 557.87C634.99 557.32 629.92 556.69 624.83 556.24C612.8 555.16 601.14 552.13 589.38 549.6C586.85 548.88 585.86 547.14 585.56 544.58C583.18 523.97 582.64 503.33 583.66 482.59C584.73 460.96 589.69 440.06 594.38 419.08C595.97 416.13 597.56 413.19 599.14 410.24C604.19 407.89 607.2 403.59 609.74 398.92C615.29 388.72 617.2 377.61 617.7 366.17C622.84 366.66 627.68 368.19 632.35 370.33C630.2 375.7 627.88 381.01 625.93 386.45C623.12 394.31 627.05 400.67 635.35 401.01C644.76 401.4 654.22 401.36 663.64 400.94C672.7 400.53 676.7 395.58 675.76 386.55C675.18 380.97 674.02 375.45 671.9 370.21C675.98 368.7 680.04 365.82 684.54 366.16C684.57 373.52 686.34 381.81 689.14 388.48C693.15 398.04 697.29 407.72 707.69 412.41C709.01 414.34 710.32 416.24 711.63 418.15ZM625.02 440.04C625.54 462.41 636.81 473.83 657.52 472.97C670.38 472.44 678.42 466.1 682.08 453.75C683.44 449.18 682.66 444.53 682.88 439.92C684.75 434.12 683.45 432.43 677.6 432.07C669.17 431.56 660.8 433.99 652.49 432.92C645.07 431.97 637.7 432.3 630.31 432.15C624.68 432.05 623.21 434.4 625.02 440.04Z" fill="#DF6F73"/>
<path d="M714.75 586.64C729.28 587.89 743.9 588.1 758.31 590.64C761.07 591.13 763.88 591.47 766.51 593.39C764.35 596.31 761.06 596.23 758.17 596.68C734.02 600.52 709.61 600.89 685.26 601.4C648.1 602.18 610.95 601.7 573.89 598.57C567.79 598.06 561.68 597.45 555.72 595.86C554.17 595.45 552.47 595.35 551.07 592.95C567.25 587.7 583.91 588.63 600.15 586.72C608.77 595.12 624.64 594.72 634 585.67C649.62 585.66 665.24 585.64 680.85 585.63C693.47 594.94 703.97 595.26 714.75 586.64Z" fill="#19171A"/>
<path d="M597.23 355.24C604.19 358.64 611.18 362 617.72 366.18C617.22 377.62 615.31 388.73 609.76 398.92C607.22 403.59 604.21 407.89 599.16 410.24C587.64 409.81 576.93 407.14 568.18 399.04C566.22 390.59 571.92 384.71 575.31 378.12C580.34 368.38 587.3 360.36 597.23 355.24Z" fill="#B0D8D1"/>
<path d="M714.75 586.64C703.97 595.25 693.47 594.94 680.85 585.63C676.11 576.88 674.67 567.42 674.85 557.61C684.85 555.79 695.07 555.35 704.96 552.83C711.82 551.08 718.68 549.39 725.55 547.68C725.13 561.55 723.89 575.2 714.75 586.64Z" fill="#E1CCB0"/>
<path d="M568.18 399.05C576.93 407.15 587.64 409.82 599.16 410.25C597.57 413.2 595.98 416.14 594.4 419.09C590.42 422.92 588.37 428.1 585.1 432.45C576.42 443.97 561.5 449.19 549.18 446.1C542.6 444.45 537.62 438.73 536.87 432.07C536.33 427.34 539.8 422.49 545.66 420.3C548.26 419.33 551.09 418.41 553.81 418.4C560.24 418.39 562.72 414.46 564.44 409.18C565.55 405.76 565.68 401.96 568.18 399.05Z" fill="#E1CCB0"/>
<path d="M633.99 585.68C624.63 594.72 608.76 595.13 600.14 586.73C591.57 575.81 590.03 562.84 589.38 549.62C601.14 552.15 612.8 555.18 624.83 556.26C629.92 556.72 634.99 557.34 640.07 557.89C640.24 567.63 638.93 577.05 633.99 585.68Z" fill="#E1CCB0"/>
<path d="M711.63 418.15C710.32 416.24 709.01 414.34 707.71 412.43C706.9 405.02 709.37 399.12 714.53 393.57C718.62 389.16 723.01 384.77 725.86 379.28C728.18 379.51 730.13 382.2 732.76 380.3C733.06 380.64 733.35 380.98 733.65 381.33L733.6 381.3C735.06 382.9 737.14 382.86 739 383.21C751.02 385.51 763.16 385.72 775.33 384.97C775.4 385.13 775.47 385.29 775.53 385.44C774.23 392.04 769.78 395.91 759.1 395.87C750.99 395.84 746.75 398.96 744.23 405.95C743.89 406.88 743.36 407.74 742.97 408.65C736.78 423.01 724.74 426.66 711.63 418.15Z" fill="#E1CCB0"/>
<path d="M725.86 379.28C723 384.77 718.61 389.16 714.52 393.57C709.37 399.12 706.9 405.03 707.7 412.43C697.3 407.74 693.16 398.06 689.15 388.5C686.35 381.83 684.58 374.21 684.55 366.85C690.42 362.79 696.22 359.97 702.99 357.79C709.55 359.56 715.06 364.64 720.53 368.26C720.68 369.55 720.83 370.84 720.98 372.13C721.24 372.5 721.49 372.86 721.75 373.23L721.77 373.22C720.91 376.75 724.75 377.09 725.86 379.28Z" fill="#B0D8D1"/>
<path d="M682.89 439.93C682.67 444.54 683.45 449.18 682.09 453.76C678.43 466.1 670.38 472.44 657.53 472.98C636.82 473.84 625.55 462.42 625.03 440.05C644.31 441.16 663.6 441.93 682.89 439.93Z" fill="#DFACB3"/>
<path d="M632.37 370.34C638.18 369.85 643.83 371.49 649.66 371.45C657.12 371.41 664.5 370.69 671.92 370.22C674.05 375.47 675.2 380.98 675.78 386.56C676.72 395.59 672.72 400.54 663.66 400.95C654.25 401.37 644.79 401.41 635.37 401.02C627.07 400.68 623.14 394.32 625.95 386.46C627.9 381.02 630.22 375.71 632.37 370.34Z" fill="#B0D8D1"/>
<path d="M682.89 439.93C663.61 441.93 644.32 441.16 625.03 440.04C623.22 434.4 624.69 432.05 630.33 432.16C637.72 432.31 645.08 431.98 652.51 432.93C660.82 434 669.19 431.56 677.62 432.08C683.46 432.44 684.76 434.13 682.89 439.93Z" fill="#CA5A5B"/>
<path d="M732.76 380.3C733.06 380.64 733.35 380.98 733.65 381.33C733.35 380.99 733.05 380.64 732.76 380.3Z" fill="#6C6863"/>
<path d="M720.98 372.13C721.24 372.5 721.49 372.86 721.75 373.23C721.5 372.87 721.24 372.5 720.98 372.13Z" fill="#9E9C93"/>
<path d="M651.88 372.46C699.741 372.46 738.54 338.322 738.54 296.21C738.54 254.098 699.741 219.96 651.88 219.96C604.019 219.96 565.22 254.098 565.22 296.21C565.22 338.322 604.019 372.46 651.88 372.46Z" fill="#E1CCB0"/>
<path d="M632.95 199.69C634.45 192.71 637.98 189.64 644.85 189.77C652.09 189.91 659.33 189.68 666.55 190.53C673.95 191.4 676.83 194.1 677.91 201.62C675.92 208.31 673.92 215 671.93 221.7C660.29 220.48 648.66 219.07 636.94 220.69C635.22 213.76 633.54 206.83 632.95 199.69Z" fill="#E9A75A"/>
<path d="M671.93 221.7C673.92 215.01 675.92 208.32 677.91 201.63C683.77 195.13 687.62 194.53 695.31 198.89C699.93 201.5 704.44 204.35 709.23 206.59C716.23 209.86 719.83 214.79 718.6 222.7L718.69 222.69C717.86 222.54 717.72 223.2 717.47 223.73C712.97 227.24 710.29 232.54 705.61 235.88C694.87 229.98 683.97 224.47 671.93 221.7Z" fill="#DF7074"/>
<path d="M632.95 199.69C633.53 206.83 635.22 213.76 636.93 220.69C632.78 220.89 628.92 222.47 624.9 223.23C616.87 224.76 610.09 229.49 602.4 231.88C598.88 227.55 595.37 223.21 591.85 218.88C590.1 211.38 591.79 207.51 598.44 204.25C603.8 201.63 609.24 199.17 614.63 196.62C623.65 192.36 626.21 192.78 632.95 199.69Z" fill="#DF7074"/>
<path d="M705.61 235.86C710.29 232.52 712.96 227.22 717.47 223.7C717.88 223.35 718.28 223.01 718.69 222.66L718.6 222.67C726.21 220.5 731.12 223.79 734.83 230.27C737.45 234.84 740.64 239.09 743.55 243.49C748.82 251.45 748.67 254.26 742.61 261.48C738.92 262.93 735.22 264.38 731.53 265.82C728.66 261.62 725.8 257.42 722.93 253.22C718.23 246.37 711.29 241.75 705.61 235.86Z" fill="#B0D8D1"/>
<path d="M591.86 218.89C595.38 223.22 598.89 227.56 602.41 231.89C602.03 233.56 600.49 234.07 599.3 234.88C589.53 241.59 581.25 249.73 575.04 259.89C571.45 258.4 567.85 256.9 564.26 255.41C558.64 247.82 558.76 244.13 564.61 236.87C567.82 232.89 571.02 228.88 573.9 224.66C578.46 217.99 584.33 216 591.86 218.89Z" fill="#B0D8D1"/>
<path d="M731.54 265.84C735.23 264.39 738.93 262.94 742.62 261.5C750.68 262.14 753.77 265.15 754.67 273.14C755.41 279.72 756.14 286.31 757.01 292.88C758.15 301.54 752.31 307.3 743.64 305.96C742 305.71 740.35 305.57 738.71 305.38C738.65 301.75 738.6 298.11 738.55 294.48C738.1 284.47 735.12 275.08 731.54 265.84Z" fill="#DF7074"/>
<path d="M564.26 255.41C567.85 256.9 571.45 258.4 575.05 259.89C569.46 268.99 566.36 278.9 565.34 289.51C565.3 292.78 565.27 296.05 565.23 299.31C565.06 299.32 564.9 299.33 564.73 299.35C550.76 301.21 544.8 295.27 548.47 280.71C549.64 276.06 550.37 271.29 551.23 266.56C552.77 258.12 555.68 255.61 564.26 255.41Z" fill="#DF7074"/>
<path d="M565.34 289.51C566.35 278.91 569.46 268.99 575.05 259.89C581.26 249.73 589.54 241.59 599.31 234.88C600.49 234.07 602.04 233.56 602.42 231.89C610.11 229.5 616.89 224.77 624.92 223.24C628.95 222.47 632.8 220.9 636.95 220.7C648.67 219.08 660.3 220.49 671.94 221.71C683.99 224.48 694.88 229.99 705.62 235.87C711.3 241.76 718.25 246.38 722.94 253.25C725.81 257.45 728.68 261.65 731.54 265.85C735.12 275.09 738.1 284.48 738.54 294.49C718.5 293.63 700.62 286.8 684.3 275.21C686.83 272.01 691 271.06 692.76 266.81C689.61 267 687.9 269.02 685.82 270.11C668.08 279.42 649.19 285.25 629.5 288.51C616.12 290.73 602.6 291.97 589.02 291.42C581.12 291.08 573.23 290.16 565.34 289.51Z" fill="#E2B442"/>
<path d="M653.15 337.21C646.69 337.39 639.17 332.22 636.81 326.04C636.32 324.76 635.76 323.56 636.89 322.36C637.95 321.24 639.4 321.09 640.58 321.62C648.76 325.33 656.88 325.48 665.07 321.66C666.08 321.19 667.47 321.11 668.31 322.16C669.48 323.62 669.05 325.32 668.51 326.9C666.77 332.03 659.25 337.04 653.15 337.21Z" fill="#DF7074"/>
<path d="M705.51 344.39C703.5 344.59 701.45 344.01 699.65 342.7C697.84 341.39 696.43 339.83 696.78 337.31C697.13 334.8 698.94 333.59 701.02 332.92C702.55 332.42 704.27 332.36 705.91 332.37C710.47 332.41 714.45 335.15 714.6 338.22C714.76 341.48 710.6 344.38 705.51 344.39Z" fill="#DF7074"/>
<path d="M595.2 340.43C593.53 340.48 591.89 340.37 590.4 339.51C588.2 338.24 586.03 336.85 586.27 333.9C586.49 331.23 588.46 329.9 590.75 329.15C592.13 328.7 593.63 328.45 595.09 328.43C599.92 328.36 603.99 331.16 604.07 334.45C604.14 337.83 600.27 340.45 595.2 340.43Z" fill="#DF7074"/>
<path d="M678.23 305.67C685.81 300.11 696.97 300.51 704.33 306.57C695.74 303.33 687.06 302.49 678.23 305.67Z" fill="#4B2F15"/>
<path d="M624.57 305.41C616.03 302.73 607.69 303.03 599.49 306.77C604.59 300.72 617.11 300.01 624.57 305.41Z" fill="#4B2F15"/>
<path d="M718.69 222.67C718.28 223.02 717.88 223.36 717.47 223.71C717.72 223.18 717.86 222.52 718.69 222.67Z" fill="#FEFEFE"/>
<path d="M811.11 30.28C820.41 33.37 827.1 39.01 828.7 49.14C830.04 57.59 828.09 65.22 820.84 70.39C814.19 75.13 807.01 74.18 800.07 70.61C798.78 69.94 797.56 68.94 796.62 67.82C795.37 66.33 794.56 65.13 797.56 63.99C805.27 61.07 810.78 55.18 815.67 48.81C817.41 46.55 819.9 43.65 817.68 40.74C815.47 37.83 812.04 39.34 809.36 40.49C794.69 46.81 784.19 57.53 776.98 71.63C772.24 80.89 769.03 90.58 768.46 101.07C768.16 106.57 770.69 112.34 774.92 114.11C780.26 116.35 785.4 115.62 789.85 111.84C794.59 107.81 796.6 102.07 798.97 96.59C799.39 95.61 799.45 94.58 798.08 94.26C792.6 92.98 787.33 90.68 781.52 91.05C779.53 91.18 778.21 92.45 776.7 93.53C775.4 87.71 781.47 81.58 788.03 81.12C795.42 80.6 802.63 81.75 809.88 82.64C811.03 82.78 812.18 83.03 813.34 83.11C822.56 83.82 822.58 83.82 817.89 92.04C811.88 102.6 806.56 113.49 802.53 124.95C801.1 129.01 799.65 133.19 801.78 137.5C802.73 139.43 801.47 139.71 800.08 140.13C795.51 141.5 791.4 139.11 790.14 134.41C789.17 130.81 789.9 127.19 790.06 123.14C784.96 124.25 780.37 126.09 775.38 126.12C758.26 126.23 747.87 116.99 746.34 99.92C743.73 70.79 766.24 37.05 794.55 31.25C795.12 31.13 795.6 30.62 796.12 30.29C801.12 30.28 806.12 30.28 811.11 30.28Z" fill="white"/>
<path d="M931.98 90.19C935.08 88.83 935.85 85.46 937.99 83.24C944.68 76.28 952.29 71.88 962.38 73.66C967.43 74.55 971.56 76.68 973.6 82.89C976.83 77.46 979.63 72.69 982.49 67.97C989.24 56.85 997.84 55.06 1009.03 62.19C1011.68 63.88 1011.66 64.97 1009.78 67.41C997.54 83.24 987 100.15 978.67 118.37C977.64 120.62 976.68 122.98 976.17 125.38C975.48 128.64 977.22 130.08 980.1 128.42C985.21 125.48 990.12 122.72 991.3 115.61C993.25 103.89 999.03 94.09 1009.63 87.79C1014.65 84.8 1020.02 83.53 1025.9 84.75C1037.06 87.06 1043.13 95.55 1040.33 105.08C1037.1 116.12 1026.56 121.75 1016.07 117.43C1012.37 115.9 1011.48 117.01 1010.88 120.09C1009.91 125.06 1007.65 130.26 1012.33 134.53C1015.75 137.64 1023.45 137.14 1028.77 133.64C1032.55 131.15 1035.13 128.22 1036.35 123.24C1039.8 109.12 1047.28 97.77 1062.53 94.14C1072.95 91.66 1079.92 95.57 1083.9 105.1C1091.75 99.6 1099.39 99.76 1107.53 105.36C1110.28 107.25 1110.93 108.43 1108.12 111.2C1098.71 120.49 1091.1 131.19 1084.97 142.9C1083.89 144.96 1081.63 147.73 1083.78 149.63C1085.94 151.55 1088.81 149.66 1091.08 148.23C1094.94 145.79 1097.71 142.86 1099.12 138.06C1101.94 128.43 1107.21 119.88 1113.24 111.87C1115.41 108.98 1118.58 107.87 1122.1 108.45C1124.54 108.85 1126.99 109.52 1129.28 110.44C1132.35 111.67 1136.51 112.68 1137.39 115.72C1138.33 118.99 1133.55 119.85 1131.77 122.24C1129.84 124.83 1126.84 126.6 1125.55 130.39C1128.16 130.38 1129.36 128.71 1130.72 127.53C1135.67 123.27 1141.01 119.64 1147.11 117.21C1150.11 116.01 1153.27 115.65 1156.43 116.07C1160.36 116.58 1162.69 118.7 1162.97 122.92C1163.53 131.38 1157.5 142.28 1149.92 146.13C1147.64 147.29 1145.27 147.88 1142.71 147.08C1140.71 146.46 1138.87 145.31 1138.18 143.44C1137.34 141.16 1140.2 141.35 1141.13 140.17C1141.75 139.39 1142.68 138.83 1143.16 138C1144.21 136.15 1145.77 134.07 1144.17 132.03C1142.38 129.74 1140.13 131.27 1138.35 132.33C1126.82 139.25 1117.98 148.76 1111.38 160.44C1110.21 162.51 1110.21 166.13 1106.27 165.45C1102.46 164.79 1099.44 163.02 1097.75 159.33C1096.61 156.83 1097.04 154.09 1096.37 151.28C1094.02 151.32 1092.64 153.2 1090.85 154.19C1086.74 156.49 1082.58 158.43 1077.67 158.09C1070.81 157.6 1067.34 153.19 1066.44 143.24C1060.64 146.4 1055.49 150.97 1048.15 149.24C1040.63 147.47 1037.14 142.39 1035.28 134.41C1028.28 141.56 1020 144.26 1010.64 143C1001.1 141.72 993.37 137.86 990.95 127.24C987.56 129.64 984.63 132.03 981.41 133.94C970.11 140.67 962.07 136.79 960.16 123.83C960.09 123.38 959.89 122.96 959.75 122.53C958.3 122.57 957.73 123.75 956.87 124.46C949.54 130.46 942.16 131.75 935.72 128.09C929.9 124.79 926.5 116.17 927.35 107.99C927.92 102.51 930.3 97.52 931.02 92.11L930.96 92.18C932.19 91.94 932.46 91.21 932 90.12L931.98 90.19ZM1123.42 132.66C1122.97 132.95 1121.9 133.01 1122.47 133.79C1122.86 134.33 1123.66 133.93 1124.02 133.25C1124.24 132.93 1124.72 132.42 1124.65 132.33C1124.05 131.53 1123.79 132.34 1123.42 132.66ZM945.05 118.33C945.1 120.85 944.62 122.69 946.42 123.7C948.31 124.77 949.94 123.8 951.44 122.7C952.23 122.11 953.01 121.45 953.63 120.69C960.15 112.81 965.09 104.11 967.5 94.09C968.02 91.94 968.5 89.65 966.42 88.17C963.94 86.41 961.83 88.33 960.28 89.8C951.8 97.81 947.2 107.9 945.05 118.33ZM1052.45 139.63C1052.08 141.33 1052.45 142.73 1053.96 143.55C1055.91 144.61 1057.62 143.51 1058.95 142.34C1067.64 134.7 1073.54 125.24 1076.72 114.14C1077.24 112.33 1077.61 110.03 1075.48 108.73C1073.4 107.46 1071.5 108.68 1070.02 109.9C1060.61 117.71 1055.04 127.82 1052.45 139.63ZM1020.37 111.91C1026.39 112 1030.94 108.8 1031.69 104.03C1031.95 102.36 1031.96 100.62 1030.42 99.52C1029.08 98.57 1027.53 98.93 1026.16 99.58C1022.78 101.18 1020.33 103.89 1018.04 106.73C1017.14 107.85 1015.49 109.13 1016.13 110.51C1016.85 112.1 1018.96 111.77 1020.37 111.91Z" fill="white"/>
<path d="M327.31 90.28C328.16 86.88 328.61 83.93 332.65 83.67C334.19 83.57 334.31 81.45 334.57 79.95C335.25 76.03 336.05 72.12 336.76 68.21C337.66 63.24 340.62 60.39 345.48 59.1C349.6 58 353.71 58.11 357.86 58.53C361.25 58.88 362.87 59.97 361.14 63.93C359.42 67.85 358.62 72.16 357.45 76.31C356.83 78.5 357.61 79.31 359.93 79.15C361.07 79.07 363.47 77.29 363.26 80.01C363.1 82.11 363.75 85.86 360.34 86.02C354.63 86.28 354.15 90.04 353.37 94.26C351.39 105.05 349.21 115.8 349.4 126.83C349.43 128.69 348.74 131.23 351.3 131.94C353.59 132.57 354.95 130.54 356.08 128.97C359.35 124.4 362.1 120.11 360.93 113.56C359.1 103.33 361.34 93.39 367.38 84.6C372.01 77.86 378.51 74.29 386.59 73.54C394.7 72.79 401.91 77.5 405.34 85.65C410.81 98.65 406.84 117.98 396.68 127.87C386.08 138.19 374.06 137.67 363.96 126.32C361.22 131.13 358.13 135.62 353.86 139.14C346.44 145.26 338.12 143.28 334.56 134.32C329.99 122.81 331.33 110.78 331.92 98.85C331.97 97.86 332.39 96.85 332.28 95.89C332.11 94.35 333.84 91.78 331.04 91.52C328.09 91.24 328.47 93.69 328.69 95.78C328.98 98.6 329.02 101.46 327.84 104.12C326.68 106.73 325.61 108.67 322.73 105.18C319.8 101.63 315.48 100.67 310.93 101.15C308.54 101.4 306.89 102.62 306.46 105.11C306.03 107.61 307.64 108.7 309.59 109.55C314 111.47 318.71 112.67 322.88 115.19C331.33 120.29 333.6 130.92 327.88 138.98C320.85 148.9 304.73 152.8 294.08 146.97C292.38 146.04 291.81 146.51 290.94 147.75C289.31 150.08 287.38 152.16 285.08 153.84C278.94 158.33 271.4 156.89 267.34 150.48C263.73 144.78 263.08 138.3 262.75 131.83C262.3 123.16 263.76 114.61 265 106.06C265.85 100.2 269.28 96.92 274.92 95.7C275.73 95.53 276.53 95.3 277.35 95.2C289.51 93.74 290.27 94.61 287.04 105.99C284.18 116.09 282.6 126.42 281.72 136.86C281.65 137.69 281.56 138.55 281.7 139.35C282.11 141.61 281.19 145.3 284.48 145.23C287.64 145.17 289.39 142.19 289.54 138.82C289.59 137.66 289.53 136.49 289.53 135.33C289.52 133.61 289.79 131.44 291.05 130.74C299.04 126.3 295.62 122.41 291.56 117.12C287.32 111.59 288.67 104.86 292.45 99.34C298.66 90.26 307.9 86.56 318.66 86.5C321.72 86.5 324.46 87.92 327.31 90.28ZM381.43 114.1C381.43 116.26 381.27 118.43 381.47 120.56C381.7 122.98 381.57 126.01 384.46 126.82C387.39 127.64 389.58 125.51 391.03 123.26C396.89 114.16 399.32 104.17 397.94 93.41C397.56 90.47 396.79 87.12 393.13 86.63C389.36 86.12 387.57 89.09 386.14 91.96C382.67 98.92 381.3 106.37 381.43 114.1ZM305.05 140.25C305.72 140.12 307.56 139.97 309.26 139.41C311.64 138.62 314.27 137.53 314.37 134.66C314.45 132.03 312.58 130.15 310.22 128.94C309.63 128.64 309.05 128.32 308.46 128.02C300.42 124.01 300.42 124.02 298.01 132.54C296.19 138.95 297.22 140.3 305.05 140.25Z" fill="white"/>
<path d="M623.29 74.18C620.73 76.42 620.44 79.99 618.31 82.54C614.69 86.88 610.62 88.22 606.56 86.21C604.5 85.19 603.6 84.22 605.64 82.23C606.94 80.96 608.03 79.38 608.24 77.5C608.45 75.57 609.07 73.27 606.77 72.18C604.79 71.24 603.31 72.71 602.02 74.04C595.18 81.1 590.8 89.65 587.31 98.68C586.06 101.91 585.31 105.34 584.38 108.7C583.68 111.21 584.79 114.78 580.64 115.27C576.59 115.75 572.95 114.84 570.61 111.23C569.27 109.16 568.32 106.83 567.01 104.26C562.45 109.41 558.43 115.06 551.41 116.71C545.22 118.16 540.31 114.61 536.64 106.22C534.6 106.33 534.27 108.29 533.3 109.45C523.61 120.98 508.69 118.66 503.97 104.35C499.14 89.7 502.06 76.09 512.33 64.44C517.49 58.58 524.33 56.45 532.15 57.12C536.97 57.53 539.8 60.52 542.1 64.42C547.99 56.2 555.57 54.12 565.35 57.54C568.38 58.6 568.52 59.84 567.11 62.59C560.81 74.91 556.02 87.78 553.99 101.56C553.7 103.52 552.95 105.88 555.15 106.9C556.99 107.76 558.66 106.02 559.89 104.78C563.55 101.1 566.59 97.26 566.34 91.4C565.92 81.66 568.62 72.35 571.58 63.17C572.93 58.99 575.84 56.72 580.3 56.1C585.2 55.42 589.88 56.08 594.53 57.51C597.1 58.3 597.51 59.45 595.8 61.74C592.22 66.53 589.57 71.81 587.95 78.55C590.74 76.92 591.36 74.67 592.5 72.9C596.65 66.42 601.22 60.3 607.77 56.04C611.33 53.72 615.25 51.85 619.42 54.31C623.57 56.75 623.69 61.19 623.81 65.34C623.9 68.3 623.45 71.27 623.25 74.24C623.23 74.26 623.29 74.18 623.29 74.18ZM538.18 78.3C538.26 73.61 537.47 70.97 535.86 70.29C533.58 69.33 531.89 70.6 530.74 72.26C523.57 82.63 520.87 94.15 522.47 106.61C522.89 109.92 525.3 110.06 527.6 108.38C528.88 107.45 529.88 105.97 530.67 104.55C535.31 96.14 537.32 86.97 538.18 78.3ZM587.93 79.14C587.57 79.54 587.2 79.86 586.96 80.25C586.88 80.38 587.13 80.7 587.23 80.94C587.56 80.67 587.97 80.45 588.19 80.11C588.29 79.93 588.04 79.54 587.93 79.14Z" fill="white"/>
<path d="M231.75 115.28C231.8 108.97 231.99 102.64 230.62 96.42C230.23 94.65 229.84 92.81 229.03 91.22C227.36 87.97 225.13 87.24 222.58 90.45C221.86 91.36 221.07 92.26 220.56 93.28C213.52 107.22 209.05 121.86 208.58 137.57C208.54 138.73 208.59 139.9 208.72 141.06C209.48 148.21 209.49 148.2 202.36 147.14C190.57 145.37 184.78 137.62 187.45 125.95C192.41 104.29 205.28 88.74 225.69 79.93C238.74 74.3 247.75 78.99 251.75 92.55C255.12 103.97 253.99 115.59 253.08 127.16C252.31 136.92 250.95 146.62 247.98 156.02C247.39 157.89 247.91 158.75 249.91 159.05C261.02 160.73 271.91 164.64 283.4 162.08C286.23 161.45 287.01 162.47 286.21 165.23C283.58 174.4 274.35 180 264.89 178.16C258.48 176.91 252.43 174.64 246.5 172.02C243.53 170.71 241.62 170.78 239.4 173.7C233.1 181.95 224.36 185.33 214.07 185.09C209.7 184.99 206.2 183.21 204.23 179.38C202.12 175.28 202.34 170.93 204.97 167.06C209.52 160.36 216.19 157.32 224.1 157.12C227.19 157.04 228.38 156.16 228.83 152.98C230.62 140.47 231.66 127.92 231.75 115.28ZM222.65 166.14C218.38 166.02 213.66 170.41 213.72 174.44C213.75 176.8 215.01 178.21 217.27 178.4C220.05 178.64 224.23 172.7 224.84 168.3C225.12 166.23 224.14 166.09 222.65 166.14Z" fill="white"/>
<path d="M461.74 117.17C459.9 122.45 458.27 127.49 456.39 132.44C454.3 137.92 451.41 142.95 446.99 146.96C440.63 152.73 433.41 153.43 425.64 150.43C423.1 149.45 421.16 147.73 420.24 144.54C424.24 144.9 428 146.22 431.26 143.13C434.1 140.44 436.32 137.42 437.72 133.79C442.17 122.22 443.77 110.02 445.4 97.86C446.41 90.3 446.94 82.67 447.55 75.05C447.91 70.53 450.24 67.71 454.4 66.19C458.6 64.65 462.93 64.77 467.21 65.4C469.62 65.75 471.87 66.87 471.44 71.5C473.62 68.97 474.7 67.5 475.99 66.25C483.95 58.54 495.17 61.01 498.5 71.59C502.34 83.8 499.46 105.77 486.82 116.12C479.35 122.25 468.92 122.94 461.74 117.17ZM479.54 85.5C479.44 83.78 479.51 81.61 479.14 79.5C478.87 77.96 478.6 76 476.54 75.7C474.74 75.45 473.26 76.48 472.4 77.95C466.21 88.59 464.03 100.11 465.51 112.24C465.93 115.65 468.46 115.89 471.01 113.84C472.73 112.46 473.69 110.51 474.56 108.53C477.77 101.34 479.26 93.77 479.54 85.5ZM470.95 71.36L470.78 71.7L471.05 71.72L470.95 71.36Z" fill="white"/>
<path d="M623.23 74.26C625.51 72.36 625.71 69.35 627.08 66.95C631.49 59.27 637.3 53.32 646.34 51.72C653.71 50.42 660.37 51.57 664.12 60.37C666.34 56.23 668.77 53.5 672.87 52.76C677.62 51.9 682.1 52.83 686.6 54.13C690.13 55.15 690.86 56.53 688.69 60.06C681.98 71 677.06 82.79 673.83 95.24C673.17 97.78 671.78 101.38 673.97 102.66C676.92 104.38 679.36 101.11 681.37 99.01C686.31 93.85 689.05 87.12 693.77 80.87C694.4 82.94 694.11 84.28 693.71 85.63C691.04 94.84 686.03 102.53 678.45 108.42C668.39 116.26 659.13 113.07 655.92 100.76C654.26 100.64 653.81 102.15 653.02 103.06C647.78 109.1 641.38 112.25 633.53 109.36C625.72 106.48 623.17 99.6 622.25 91.97C621.53 85.98 622.77 80.09 623.27 74.17C623.29 74.18 623.23 74.26 623.23 74.26ZM641.15 96.38C641.83 98.81 640.12 102.62 643.84 103.49C647.03 104.24 648.7 101.14 650.16 98.75C655.13 90.57 658.15 81.68 659.14 72.16C659.42 69.45 660.12 65.84 656.71 64.82C653.6 63.89 651.65 66.84 650.12 69.16C644.72 77.37 642.11 86.53 641.15 96.38Z" fill="white"/>
<path d="M931.04 92.12C928.72 94.62 926.57 97.32 924.03 99.57C920.79 102.44 917.06 103.36 913.06 100.81C911.04 99.52 910.01 98.27 912.6 96.4C914.83 94.79 916.36 92.62 916.38 89.71C916.4 86.56 915.12 85.32 912.03 86.89C909.32 88.26 907.12 90.3 905 92.41C897.15 100.25 890.98 109.2 886.91 119.59C886.09 121.68 886.44 124.96 882.82 125C879.1 125.05 875.89 123.77 873.87 120.57C871.88 117.43 871.12 113.86 871.05 110.13C870.77 95.66 876.19 82.91 883.03 70.61C884.72 67.57 887.76 66.43 891.06 66.46C893.53 66.48 896.03 66.89 898.44 67.45C901.52 68.17 905.32 68.82 906.84 71.38C908.97 74.97 903.96 75.95 902.59 78.43C900.81 81.66 897.92 84.28 896.67 88.52C899.52 88.03 900.26 86.02 901.52 84.68C907.37 78.5 913.29 72.37 921.91 70.13C929.84 68.06 934.65 72.31 933.68 80.47C933.29 83.73 932.57 86.95 931.99 90.19L932.03 90.13C930.79 90.37 930.71 91.19 930.99 92.19C930.98 92.19 931.04 92.12 931.04 92.12ZM896.16 90C896.41 89.8 896.65 89.6 896.88 89.41C896.66 89.25 896.42 88.94 896.24 88.97C895.96 89.02 895.71 89.3 895.45 89.49C895.69 89.66 895.92 89.83 896.16 90Z" fill="white"/>
<path d="M852.28 60.06C864.04 60.21 870.43 65.63 872.47 76.67C875.66 93.93 861.73 115.1 844.89 118.53C832.13 121.14 822.68 114 822.19 101.03C821.63 86.47 826.15 73.92 838.03 64.74C842.36 61.4 847.34 59.71 852.28 60.06ZM863.37 82.81C863.26 78.89 863.62 75.99 860.59 74.62C857.43 73.19 855.22 75.2 853.1 77.13C852.37 77.79 851.79 78.63 851.18 79.41C845.38 86.94 842.03 95.52 840.48 104.82C840.09 107.18 839.36 110.02 842.24 111.47C844.87 112.79 847.2 111.33 849.04 109.68C857.42 102.15 862.02 92.66 863.37 82.81Z" fill="white"/>
<path d="M154.95 119.94C160.97 126.63 161.64 133.19 160.05 140.13C158.02 148.94 153.75 156.88 150 165.02C147.51 170.42 144.52 175.7 144.59 181.95C144.63 185.43 145.23 188.85 148.55 190.53C152.1 192.33 155.31 190.63 158.16 188.31C163.51 183.96 166.31 178.24 166.58 171.46C166.71 168.29 166.51 165.69 170.58 164.87C174.71 164.03 177.77 164.92 179.93 168.58C182.39 172.75 182.17 177.33 181.24 181.69C178.38 195.06 158.17 208.99 144.47 207.34C136.17 206.34 131.25 201.05 130.85 192.27C130.45 183.46 132.53 175.1 136.38 167.23C141.12 157.54 146.1 147.95 150.93 138.3C153.63 132.93 155.4 127.3 154.95 119.94Z" fill="white"/>
<path d="M1160.76 185.54C1161.72 177.44 1166.45 173.23 1172.35 170.21C1179.65 166.47 1187.68 164.81 1195.63 163.02C1200.98 161.81 1206.36 160.71 1211.39 158.44C1212.89 157.76 1214.36 156.89 1215.63 155.85C1218.28 153.67 1220.49 151.05 1219.73 147.32C1218.99 143.73 1215.89 142.38 1212.8 141.6C1205.8 139.83 1199.24 141.04 1193.46 145.46C1191.33 147.08 1189.61 149.15 1186.63 146.79C1183.85 144.59 1181.65 142.24 1182.6 138.42C1184.34 131.47 1189.71 127.87 1195.94 126.31C1210.72 122.62 1223.27 127.83 1233.63 138.13C1240.26 144.73 1239.66 152.7 1232.97 159.31C1226.9 165.31 1219.42 169 1211.23 170.93C1200.56 173.44 1189.78 175.45 1179.04 177.64C1172.65 178.94 1166.66 181.15 1160.76 185.54Z" fill="white"/>
<path d="M283.88 72.94C290.21 72.67 292.82 74.14 293.49 78.27C294.39 83.77 291.82 88.22 286.61 89.94C284.09 90.77 281.48 91.14 278.8 91.12C274.84 91.08 270.98 90.82 269.8 86.04C268.82 82.09 271.49 76.64 275.22 74.71C277.92 73.31 280.87 72.96 283.88 72.94Z" fill="white"/>
<path d="M156.83 100.02C161.46 99.8 162.99 102.71 163.12 106.61C163.31 112.26 157.84 117.3 152.04 117.06C148.35 116.91 146.14 113.94 146.23 109.27C146.34 103.39 150.31 99.93 156.83 100.02Z" fill="white"/>
<path d="M1151.46 201.92C1147.15 201.82 1141.74 196.97 1141.87 193.31C1142 189.62 1146.77 185.9 1151.22 186C1156.07 186.11 1161.37 190.41 1161.16 194.06C1160.95 197.67 1155.59 202.01 1151.46 201.92Z" fill="white"/>
<path d="M930.98 92.19C930.7 91.19 930.78 90.37 932.02 90.13C932.48 91.22 932.21 91.94 930.98 92.19Z" fill="white"/>
<path d="M1124.02 133.25C1123.66 133.93 1122.86 134.33 1122.47 133.79C1121.9 133 1122.96 132.95 1123.42 132.66C1123.62 132.86 1123.82 133.05 1124.02 133.25Z" fill="white"/>
<path d="M1123.42 132.66C1123.79 132.34 1124.05 131.53 1124.65 132.33C1124.72 132.43 1124.25 132.93 1124.02 133.25C1123.82 133.05 1123.62 132.86 1123.42 132.66Z" fill="white"/>
<path d="M587.93 79.14C588.05 79.54 588.29 79.93 588.18 80.1C587.96 80.44 587.55 80.66 587.22 80.93C587.12 80.7 586.87 80.37 586.95 80.24C587.2 79.86 587.56 79.54 587.93 79.14Z" fill="white"/>
<path d="M470.95 71.36L471.06 71.72L470.79 71.7L470.95 71.36Z" fill="white"/>
<path d="M896.16 90C895.92 89.82 895.68 89.65 895.45 89.48C895.71 89.3 895.95 89.01 896.24 88.96C896.42 88.93 896.67 89.24 896.88 89.4C896.65 89.61 896.41 89.8 896.16 90Z" fill="white"/>
<path d="M821.11 25.28C830.41 28.37 837.1 34.01 838.7 44.14C840.04 52.59 838.09 60.22 830.84 65.39C824.19 70.13 817.01 69.18 810.07 65.61C808.78 64.94 807.56 63.94 806.62 62.82C805.37 61.33 804.56 60.13 807.56 58.99C815.27 56.07 820.78 50.18 825.67 43.81C827.41 41.55 829.9 38.65 827.68 35.74C825.47 32.83 822.04 34.34 819.36 35.49C804.69 41.81 794.19 52.53 786.98 66.63C782.24 75.89 779.03 85.58 778.46 96.07C778.16 101.57 780.69 107.34 784.92 109.11C790.26 111.35 795.4 110.62 799.85 106.84C804.59 102.81 806.6 97.07 808.97 91.59C809.39 90.61 809.45 89.58 808.08 89.26C802.6 87.98 797.33 85.68 791.52 86.05C789.53 86.18 788.21 87.45 786.7 88.53C785.4 82.71 791.47 76.58 798.03 76.12C805.42 75.6 812.63 76.75 819.88 77.64C821.03 77.78 822.18 78.03 823.34 78.11C832.56 78.82 832.58 78.82 827.89 87.04C821.88 97.6 816.56 108.49 812.53 119.95C811.1 124.01 809.65 128.19 811.78 132.5C812.73 134.43 811.47 134.71 810.08 135.13C805.51 136.5 801.4 134.11 800.14 129.41C799.17 125.81 799.9 122.19 800.06 118.14C794.96 119.25 790.37 121.09 785.38 121.12C768.26 121.23 757.87 111.99 756.34 94.92C753.73 65.79 776.24 32.05 804.55 26.25C805.12 26.13 805.6 25.62 806.12 25.29C811.12 25.28 816.12 25.28 821.11 25.28Z" fill="#E3B644"/>
<path d="M941.98 85.19C945.08 83.83 945.85 80.46 947.99 78.24C954.68 71.28 962.29 66.88 972.38 68.66C977.43 69.55 981.56 71.68 983.6 77.89C986.83 72.46 989.63 67.69 992.49 62.97C999.24 51.85 1007.84 50.06 1019.03 57.19C1021.68 58.88 1021.66 59.97 1019.78 62.41C1007.54 78.24 997 95.15 988.67 113.37C987.64 115.62 986.68 117.98 986.17 120.38C985.48 123.64 987.22 125.08 990.1 123.42C995.21 120.48 1000.12 117.72 1001.3 110.61C1003.25 98.89 1009.03 89.09 1019.63 82.79C1024.65 79.8 1030.02 78.53 1035.9 79.75C1047.06 82.06 1053.13 90.55 1050.33 100.08C1047.1 111.12 1036.56 116.75 1026.07 112.43C1022.37 110.9 1021.48 112.01 1020.88 115.09C1019.91 120.06 1017.65 125.26 1022.33 129.53C1025.75 132.64 1033.45 132.14 1038.77 128.64C1042.55 126.15 1045.13 123.22 1046.35 118.24C1049.8 104.12 1057.28 92.77 1072.53 89.14C1082.95 86.66 1089.92 90.57 1093.9 100.1C1101.75 94.6 1109.39 94.76 1117.53 100.36C1120.28 102.25 1120.93 103.43 1118.12 106.2C1108.71 115.49 1101.1 126.19 1094.97 137.9C1093.89 139.96 1091.63 142.73 1093.78 144.63C1095.94 146.55 1098.81 144.66 1101.08 143.23C1104.94 140.79 1107.71 137.86 1109.12 133.06C1111.94 123.43 1117.21 114.88 1123.24 106.87C1125.41 103.98 1128.58 102.87 1132.1 103.45C1134.54 103.85 1136.99 104.52 1139.28 105.44C1142.35 106.67 1146.51 107.68 1147.39 110.72C1148.33 113.99 1143.55 114.85 1141.77 117.24C1139.84 119.83 1136.84 121.6 1135.55 125.39C1138.16 125.38 1139.36 123.71 1140.72 122.53C1145.67 118.27 1151.01 114.64 1157.11 112.21C1160.11 111.01 1163.27 110.65 1166.43 111.07C1170.36 111.58 1172.69 113.7 1172.97 117.92C1173.53 126.38 1167.5 137.28 1159.92 141.13C1157.64 142.29 1155.27 142.88 1152.71 142.08C1150.71 141.46 1148.87 140.31 1148.18 138.44C1147.34 136.16 1150.2 136.35 1151.13 135.17C1151.75 134.39 1152.68 133.83 1153.16 133C1154.21 131.15 1155.77 129.07 1154.17 127.03C1152.38 124.74 1150.13 126.27 1148.35 127.33C1136.82 134.25 1127.98 143.76 1121.38 155.44C1120.21 157.51 1120.21 161.13 1116.27 160.45C1112.46 159.79 1109.44 158.02 1107.75 154.33C1106.61 151.83 1107.04 149.09 1106.37 146.28C1104.02 146.32 1102.64 148.2 1100.85 149.19C1096.74 151.49 1092.58 153.43 1087.67 153.09C1080.81 152.6 1077.34 148.19 1076.44 138.24C1070.64 141.4 1065.49 145.97 1058.15 144.24C1050.63 142.47 1047.14 137.39 1045.28 129.41C1038.28 136.56 1030 139.26 1020.64 138C1011.1 136.72 1003.37 132.86 1000.95 122.24C997.56 124.64 994.63 127.03 991.41 128.94C980.11 135.67 972.07 131.79 970.16 118.83C970.09 118.38 969.89 117.96 969.75 117.53C968.3 117.57 967.73 118.75 966.87 119.46C959.54 125.46 952.16 126.75 945.72 123.09C939.9 119.79 936.5 111.17 937.35 102.99C937.92 97.51 940.3 92.52 941.02 87.11L940.96 87.18C942.19 86.94 942.46 86.21 942 85.12L941.98 85.19ZM1133.42 127.66C1132.97 127.95 1131.9 128.01 1132.47 128.79C1132.86 129.33 1133.66 128.93 1134.02 128.25C1134.24 127.93 1134.72 127.42 1134.65 127.33C1134.05 126.53 1133.79 127.34 1133.42 127.66ZM955.05 113.33C955.1 115.85 954.62 117.69 956.42 118.7C958.31 119.77 959.94 118.8 961.44 117.7C962.23 117.11 963.01 116.45 963.63 115.69C970.15 107.81 975.09 99.11 977.5 89.09C978.02 86.94 978.5 84.65 976.42 83.17C973.94 81.41 971.83 83.33 970.28 84.8C961.8 92.81 957.2 102.9 955.05 113.33ZM1062.45 134.63C1062.08 136.33 1062.45 137.73 1063.96 138.55C1065.91 139.61 1067.62 138.51 1068.95 137.34C1077.64 129.7 1083.54 120.24 1086.72 109.14C1087.24 107.33 1087.61 105.03 1085.48 103.73C1083.4 102.46 1081.5 103.68 1080.02 104.9C1070.61 112.71 1065.04 122.82 1062.45 134.63ZM1030.37 106.91C1036.39 107 1040.94 103.8 1041.69 99.03C1041.95 97.36 1041.96 95.62 1040.42 94.52C1039.08 93.57 1037.53 93.93 1036.16 94.58C1032.78 96.18 1030.33 98.89 1028.04 101.73C1027.14 102.85 1025.49 104.13 1026.13 105.51C1026.85 107.1 1028.96 106.77 1030.37 106.91Z" fill="#E3B644"/>
<path d="M337.31 85.28C338.16 81.88 338.61 78.93 342.65 78.67C344.19 78.57 344.31 76.45 344.57 74.95C345.25 71.03 346.05 67.12 346.76 63.21C347.66 58.24 350.62 55.39 355.48 54.1C359.6 53 363.71 53.11 367.86 53.53C371.25 53.88 372.87 54.97 371.14 58.93C369.42 62.85 368.62 67.16 367.45 71.31C366.83 73.5 367.61 74.31 369.93 74.15C371.07 74.07 373.47 72.29 373.26 75.01C373.1 77.11 373.75 80.86 370.34 81.02C364.63 81.28 364.15 85.04 363.37 89.26C361.39 100.05 359.21 110.8 359.4 121.83C359.43 123.69 358.74 126.23 361.3 126.94C363.59 127.57 364.95 125.54 366.08 123.97C369.35 119.4 372.1 115.11 370.93 108.56C369.1 98.33 371.34 88.39 377.38 79.6C382.01 72.86 388.51 69.29 396.59 68.54C404.7 67.79 411.91 72.5 415.34 80.65C420.81 93.65 416.84 112.98 406.68 122.87C396.08 133.19 384.06 132.67 373.96 121.32C371.22 126.13 368.13 130.62 363.86 134.14C356.44 140.26 348.12 138.28 344.56 129.32C339.99 117.81 341.33 105.78 341.92 93.85C341.97 92.86 342.39 91.85 342.28 90.89C342.11 89.35 343.84 86.78 341.04 86.52C338.09 86.24 338.47 88.69 338.69 90.78C338.98 93.6 339.02 96.46 337.84 99.12C336.68 101.73 335.61 103.67 332.73 100.18C329.8 96.63 325.48 95.67 320.93 96.15C318.54 96.4 316.89 97.62 316.46 100.11C316.03 102.61 317.64 103.7 319.59 104.55C324 106.47 328.71 107.67 332.88 110.19C341.33 115.29 343.6 125.92 337.88 133.98C330.85 143.9 314.73 147.8 304.08 141.97C302.38 141.04 301.81 141.51 300.94 142.75C299.31 145.08 297.38 147.16 295.08 148.84C288.94 153.33 281.4 151.89 277.34 145.48C273.73 139.78 273.08 133.3 272.75 126.83C272.3 118.16 273.76 109.61 275 101.06C275.85 95.2 279.28 91.92 284.92 90.7C285.73 90.53 286.53 90.3 287.35 90.2C299.51 88.74 300.27 89.61 297.04 100.99C294.18 111.09 292.6 121.42 291.72 131.86C291.65 132.69 291.56 133.55 291.7 134.35C292.11 136.61 291.19 140.3 294.48 140.23C297.64 140.17 299.39 137.19 299.54 133.82C299.59 132.66 299.53 131.49 299.53 130.33C299.52 128.61 299.79 126.44 301.05 125.74C309.04 121.3 305.62 117.41 301.56 112.12C297.32 106.59 298.67 99.86 302.45 94.34C308.66 85.26 317.9 81.56 328.66 81.5C331.72 81.5 334.46 82.92 337.31 85.28ZM391.43 109.1C391.43 111.26 391.27 113.43 391.47 115.56C391.7 117.98 391.57 121.01 394.46 121.82C397.39 122.64 399.58 120.51 401.03 118.26C406.89 109.16 409.32 99.17 407.94 88.41C407.56 85.47 406.79 82.12 403.13 81.63C399.36 81.12 397.57 84.09 396.14 86.96C392.67 93.92 391.3 101.37 391.43 109.1ZM315.05 135.25C315.72 135.12 317.56 134.97 319.26 134.41C321.64 133.62 324.27 132.53 324.37 129.66C324.45 127.03 322.58 125.15 320.22 123.94C319.63 123.64 319.05 123.32 318.46 123.02C310.42 119.01 310.42 119.02 308.01 127.54C306.19 133.95 307.22 135.3 315.05 135.25Z" fill="#E3B644"/>
<path d="M633.29 69.18C630.73 71.42 630.44 74.99 628.31 77.54C624.69 81.88 620.62 83.22 616.56 81.21C614.5 80.19 613.6 79.22 615.64 77.23C616.94 75.96 618.03 74.38 618.24 72.5C618.45 70.57 619.07 68.27 616.77 67.18C614.79 66.24 613.31 67.71 612.02 69.04C605.18 76.1 600.8 84.65 597.31 93.68C596.06 96.91 595.31 100.34 594.38 103.7C593.68 106.21 594.79 109.78 590.64 110.27C586.59 110.75 582.95 109.84 580.61 106.23C579.27 104.16 578.32 101.83 577.01 99.26C572.45 104.41 568.43 110.06 561.41 111.71C555.22 113.16 550.31 109.61 546.64 101.22C544.6 101.33 544.27 103.29 543.3 104.45C533.61 115.98 518.69 113.66 513.97 99.35C509.14 84.7 512.06 71.09 522.33 59.44C527.49 53.58 534.33 51.45 542.15 52.12C546.97 52.53 549.8 55.52 552.1 59.42C557.99 51.2 565.57 49.12 575.35 52.54C578.38 53.6 578.52 54.84 577.11 57.59C570.81 69.91 566.02 82.78 563.99 96.56C563.7 98.52 562.95 100.88 565.15 101.9C566.99 102.76 568.66 101.02 569.89 99.78C573.55 96.1 576.59 92.26 576.34 86.4C575.92 76.66 578.62 67.35 581.58 58.17C582.93 53.99 585.84 51.72 590.3 51.1C595.2 50.42 599.88 51.08 604.53 52.51C607.1 53.3 607.51 54.45 605.8 56.74C602.22 61.53 599.57 66.81 597.95 73.55C600.74 71.92 601.36 69.67 602.5 67.9C606.65 61.42 611.22 55.3 617.77 51.04C621.33 48.72 625.25 46.85 629.42 49.31C633.57 51.75 633.69 56.19 633.81 60.34C633.9 63.3 633.45 66.27 633.25 69.24C633.23 69.26 633.29 69.18 633.29 69.18ZM548.18 73.3C548.26 68.61 547.47 65.97 545.86 65.29C543.58 64.33 541.89 65.6 540.74 67.26C533.57 77.63 530.87 89.15 532.47 101.61C532.89 104.92 535.3 105.06 537.6 103.38C538.88 102.45 539.88 100.97 540.67 99.55C545.31 91.14 547.32 81.97 548.18 73.3ZM597.93 74.14C597.57 74.54 597.2 74.86 596.96 75.25C596.88 75.38 597.13 75.7 597.23 75.94C597.56 75.67 597.97 75.45 598.19 75.11C598.29 74.93 598.04 74.54 597.93 74.14Z" fill="#E3B644"/>
<path d="M241.75 110.28C241.8 103.97 241.99 97.64 240.62 91.42C240.23 89.65 239.84 87.81 239.03 86.22C237.36 82.97 235.13 82.24 232.58 85.45C231.86 86.36 231.07 87.26 230.56 88.28C223.52 102.22 219.05 116.86 218.58 132.57C218.54 133.73 218.59 134.9 218.72 136.06C219.48 143.21 219.49 143.2 212.36 142.14C200.57 140.37 194.78 132.62 197.45 120.95C202.41 99.29 215.28 83.74 235.69 74.93C248.74 69.3 257.75 73.99 261.75 87.55C265.12 98.97 263.99 110.59 263.08 122.16C262.31 131.92 260.95 141.62 257.98 151.02C257.39 152.89 257.91 153.75 259.91 154.05C271.02 155.73 281.91 159.64 293.4 157.08C296.23 156.45 297.01 157.47 296.21 160.23C293.58 169.4 284.35 175 274.89 173.16C268.48 171.91 262.43 169.64 256.5 167.02C253.53 165.71 251.62 165.78 249.4 168.7C243.1 176.95 234.36 180.33 224.07 180.09C219.7 179.99 216.2 178.21 214.23 174.38C212.12 170.28 212.34 165.93 214.97 162.06C219.52 155.36 226.19 152.32 234.1 152.12C237.19 152.04 238.38 151.16 238.83 147.98C240.62 135.47 241.66 122.92 241.75 110.28ZM232.65 161.14C228.38 161.02 223.66 165.41 223.72 169.44C223.75 171.8 225.01 173.21 227.27 173.4C230.05 173.64 234.23 167.7 234.84 163.3C235.12 161.23 234.14 161.09 232.65 161.14Z" fill="#E3B644"/>
<path d="M471.74 112.17C469.9 117.45 468.27 122.49 466.39 127.44C464.3 132.92 461.41 137.95 456.99 141.96C450.63 147.73 443.41 148.43 435.64 145.43C433.1 144.45 431.16 142.73 430.24 139.54C434.24 139.9 438 141.22 441.26 138.13C444.1 135.44 446.32 132.42 447.72 128.79C452.17 117.22 453.77 105.02 455.4 92.86C456.41 85.3 456.94 77.67 457.55 70.05C457.91 65.53 460.24 62.71 464.4 61.19C468.6 59.65 472.93 59.77 477.21 60.4C479.62 60.75 481.87 61.87 481.44 66.5C483.62 63.97 484.7 62.5 485.99 61.25C493.95 53.54 505.17 56.01 508.5 66.59C512.34 78.8 509.46 100.77 496.82 111.12C489.35 117.25 478.92 117.94 471.74 112.17ZM489.54 80.5C489.44 78.78 489.51 76.61 489.14 74.5C488.87 72.96 488.6 71 486.54 70.7C484.74 70.45 483.26 71.48 482.4 72.95C476.21 83.59 474.03 95.11 475.51 107.24C475.93 110.65 478.46 110.89 481.01 108.84C482.73 107.46 483.69 105.51 484.56 103.53C487.77 96.34 489.26 88.77 489.54 80.5ZM480.95 66.36L480.78 66.7L481.05 66.72L480.95 66.36Z" fill="#E3B644"/>
<path d="M633.23 69.26C635.51 67.36 635.71 64.35 637.08 61.95C641.49 54.27 647.3 48.32 656.34 46.72C663.71 45.42 670.37 46.57 674.12 55.37C676.34 51.23 678.77 48.5 682.87 47.76C687.62 46.9 692.1 47.83 696.6 49.13C700.13 50.15 700.86 51.53 698.69 55.06C691.98 66 687.06 77.79 683.83 90.24C683.17 92.78 681.78 96.38 683.97 97.66C686.92 99.38 689.36 96.11 691.37 94.01C696.31 88.85 699.05 82.12 703.77 75.87C704.4 77.94 704.11 79.28 703.71 80.63C701.04 89.84 696.03 97.53 688.45 103.42C678.39 111.26 669.13 108.07 665.92 95.76C664.26 95.64 663.81 97.15 663.02 98.06C657.78 104.1 651.38 107.25 643.53 104.36C635.72 101.48 633.17 94.6 632.25 86.97C631.53 80.98 632.77 75.09 633.27 69.17C633.29 69.18 633.23 69.26 633.23 69.26ZM651.15 91.38C651.83 93.81 650.12 97.62 653.84 98.49C657.03 99.24 658.7 96.14 660.16 93.75C665.13 85.57 668.15 76.68 669.14 67.16C669.42 64.45 670.12 60.84 666.71 59.82C663.6 58.89 661.65 61.84 660.12 64.16C654.72 72.37 652.11 81.53 651.15 91.38Z" fill="#E3B644"/>
<path d="M941.04 87.12C938.72 89.62 936.57 92.32 934.03 94.57C930.79 97.44 927.06 98.36 923.06 95.81C921.04 94.52 920.01 93.27 922.6 91.4C924.83 89.79 926.36 87.62 926.38 84.71C926.4 81.56 925.12 80.32 922.03 81.89C919.32 83.26 917.12 85.3 915 87.41C907.15 95.25 900.98 104.2 896.91 114.59C896.09 116.68 896.44 119.96 892.82 120C889.1 120.05 885.89 118.77 883.87 115.57C881.88 112.43 881.12 108.86 881.05 105.13C880.77 90.66 886.19 77.91 893.03 65.61C894.72 62.57 897.76 61.43 901.06 61.46C903.53 61.48 906.03 61.89 908.44 62.45C911.52 63.17 915.32 63.82 916.84 66.38C918.97 69.97 913.96 70.95 912.59 73.43C910.81 76.66 907.92 79.28 906.67 83.52C909.52 83.03 910.26 81.02 911.52 79.68C917.37 73.5 923.29 67.37 931.91 65.13C939.84 63.06 944.65 67.31 943.68 75.47C943.29 78.73 942.57 81.95 941.99 85.19L942.03 85.13C940.79 85.37 940.71 86.19 940.99 87.19C940.98 87.19 941.04 87.12 941.04 87.12ZM906.16 85C906.41 84.8 906.65 84.6 906.88 84.41C906.66 84.25 906.42 83.94 906.24 83.97C905.96 84.02 905.71 84.3 905.45 84.49C905.69 84.66 905.92 84.83 906.16 85Z" fill="#E3B644"/>
<path d="M862.28 55.06C874.04 55.21 880.43 60.63 882.47 71.67C885.66 88.93 871.73 110.1 854.89 113.53C842.13 116.14 832.68 109 832.19 96.03C831.63 81.47 836.15 68.92 848.03 59.74C852.36 56.4 857.34 54.71 862.28 55.06ZM873.37 77.81C873.26 73.89 873.62 70.99 870.59 69.62C867.43 68.19 865.22 70.2 863.1 72.13C862.37 72.79 861.79 73.63 861.18 74.41C855.38 81.94 852.03 90.52 850.48 99.82C850.09 102.18 849.36 105.02 852.24 106.47C854.87 107.79 857.2 106.33 859.04 104.68C867.42 97.15 872.02 87.66 873.37 77.81Z" fill="#E3B644"/>
<path d="M164.95 114.94C170.97 121.63 171.64 128.19 170.05 135.13C168.02 143.94 163.75 151.88 160 160.02C157.51 165.42 154.52 170.7 154.59 176.95C154.63 180.43 155.23 183.85 158.55 185.53C162.1 187.33 165.31 185.63 168.16 183.31C173.51 178.96 176.31 173.24 176.58 166.46C176.71 163.29 176.51 160.69 180.58 159.87C184.71 159.03 187.77 159.92 189.93 163.58C192.39 167.75 192.17 172.33 191.24 176.69C188.38 190.06 168.17 203.99 154.47 202.34C146.17 201.34 141.25 196.05 140.85 187.27C140.45 178.46 142.53 170.1 146.38 162.23C151.12 152.54 156.1 142.95 160.93 133.3C163.63 127.93 165.4 122.3 164.95 114.94Z" fill="#E3B644"/>
<path d="M1170.76 180.54C1171.72 172.44 1176.45 168.23 1182.35 165.21C1189.65 161.47 1197.68 159.81 1205.63 158.02C1210.98 156.81 1216.36 155.71 1221.39 153.44C1222.89 152.76 1224.36 151.89 1225.63 150.85C1228.28 148.67 1230.49 146.05 1229.73 142.32C1228.99 138.73 1225.89 137.38 1222.8 136.6C1215.8 134.83 1209.24 136.04 1203.46 140.46C1201.33 142.08 1199.61 144.15 1196.63 141.79C1193.85 139.59 1191.65 137.24 1192.6 133.42C1194.34 126.47 1199.71 122.87 1205.94 121.31C1220.72 117.62 1233.27 122.83 1243.63 133.13C1250.26 139.73 1249.66 147.7 1242.97 154.31C1236.9 160.31 1229.42 164 1221.23 165.93C1210.56 168.44 1199.78 170.45 1189.04 172.64C1182.65 173.94 1176.66 176.15 1170.76 180.54Z" fill="#E3B644"/>
<path d="M293.88 67.94C300.21 67.67 302.82 69.14 303.49 73.27C304.39 78.77 301.82 83.22 296.61 84.94C294.09 85.77 291.48 86.14 288.8 86.12C284.84 86.08 280.98 85.82 279.8 81.04C278.82 77.09 281.49 71.64 285.22 69.71C287.92 68.31 290.87 67.96 293.88 67.94Z" fill="#E3B644"/>
<path d="M166.83 95.02C171.46 94.8 172.99 97.71 173.12 101.61C173.31 107.26 167.84 112.3 162.04 112.06C158.35 111.91 156.14 108.94 156.23 104.27C156.34 98.39 160.31 94.93 166.83 95.02Z" fill="#E3B644"/>
<path d="M1161.46 196.92C1157.15 196.82 1151.74 191.97 1151.87 188.31C1152 184.62 1156.77 180.9 1161.22 181C1166.07 181.11 1171.37 185.41 1171.16 189.06C1170.95 192.67 1165.59 197.01 1161.46 196.92Z" fill="#E3B644"/>
<path d="M940.98 87.19C940.7 86.19 940.78 85.37 942.02 85.13C942.48 86.22 942.21 86.94 940.98 87.19Z" fill="#E3B644"/>
<path d="M1134.02 128.25C1133.66 128.93 1132.86 129.33 1132.47 128.79C1131.9 128 1132.96 127.95 1133.42 127.66C1133.62 127.86 1133.82 128.05 1134.02 128.25Z" fill="#E3B644"/>
<path d="M1133.42 127.66C1133.79 127.34 1134.05 126.53 1134.65 127.33C1134.72 127.43 1134.25 127.93 1134.02 128.25C1133.82 128.05 1133.62 127.86 1133.42 127.66Z" fill="#E3B644"/>
<path d="M597.93 74.14C598.05 74.54 598.29 74.93 598.18 75.1C597.96 75.44 597.55 75.66 597.22 75.93C597.12 75.7 596.87 75.37 596.95 75.24C597.2 74.86 597.56 74.54 597.93 74.14Z" fill="#E3B644"/>
<path d="M480.95 66.36L481.06 66.72L480.79 66.7L480.95 66.36Z" fill="#E3B644"/>
<path d="M906.16 85C905.92 84.82 905.68 84.65 905.45 84.48C905.71 84.3 905.95 84.01 906.24 83.96C906.42 83.93 906.67 84.24 906.88 84.4C906.65 84.61 906.41 84.8 906.16 85Z" fill="#E3B644"/>
<path d="M1349.75 161.46L1341.97 160.01C1335.62 158.84 1328.76 158.1 1320.61 157.75C1326.07 152.69 1330.31 148.11 1333.8 143.51L1338.09 137.88L1331.36 141.46C1326.17 144.22 1321.07 147.49 1315.49 151.63C1315.42 141.39 1310.79 78.49 1310.79 78.49C1309.52 92.85 1306.21 141.83 1306.14 153C1299.77 148.14 1294.22 144.51 1288.47 141.46L1281.78 137.9L1286.03 143.5C1289.52 148.11 1293.75 152.68 1299.2 157.73C1291.08 158.08 1284.22 158.81 1277.86 160L1270.12 161.45L1277.86 162.9C1284.21 164.08 1291.06 164.81 1299.2 165.16C1293.75 170.22 1289.52 174.79 1286.03 179.39L1281.77 184.99L1288.47 181.44C1294.22 178.38 1299.78 174.76 1306.14 169.9C1306.21 180.97 1310.94 244.42 1310.94 244.42C1311.38 239.89 1315.43 181.41 1315.49 171.27C1321.07 175.41 1326.18 178.68 1331.36 181.43L1338.09 185.01L1333.8 179.38C1330.31 174.78 1326.07 170.21 1320.61 165.15C1328.75 164.79 1335.61 164.07 1341.97 162.89L1349.75 161.46Z" fill="#F80138"/>
<path d="M1355.56 155.65L1347.78 154.2C1341.43 153.03 1334.57 152.29 1326.42 151.94C1331.88 146.88 1336.12 142.3 1339.61 137.7L1343.9 132.07L1337.17 135.65C1331.98 138.41 1326.88 141.68 1321.3 145.82C1321.23 135.58 1316.6 72.68 1316.6 72.68C1315.33 87.04 1312.02 136.02 1311.95 147.19C1305.58 142.33 1300.03 138.7 1294.28 135.65L1287.59 132.09L1291.84 137.69C1295.33 142.3 1299.56 146.87 1305.01 151.92C1296.89 152.27 1290.03 153 1283.67 154.19L1275.93 155.64L1283.67 157.09C1290.02 158.27 1296.87 159 1305.01 159.35C1299.56 164.41 1295.33 168.98 1291.84 173.58L1287.58 179.18L1294.28 175.63C1300.03 172.57 1305.59 168.95 1311.95 164.09C1312.02 175.16 1316.75 238.61 1316.75 238.61C1317.19 234.08 1321.24 175.6 1321.3 165.46C1326.88 169.6 1331.99 172.87 1337.17 175.62L1343.9 179.2L1339.61 173.57C1336.12 168.97 1331.88 164.4 1326.42 159.34C1334.56 158.98 1341.42 158.26 1347.78 157.08L1355.56 155.65Z" fill="white"/>
<path d="M93.6 161.46L85.82 160.01C79.47 158.84 72.61 158.1 64.46 157.75C69.92 152.69 74.16 148.11 77.65 143.51L81.94 137.88L75.21 141.46C70.02 144.22 64.92 147.49 59.34 151.63C59.27 141.39 54.64 78.49 54.64 78.49C53.37 92.85 50.06 141.83 49.99 153C43.62 148.14 38.07 144.51 32.32 141.46L25.63 137.9L29.88 143.5C33.37 148.11 37.6 152.68 43.05 157.73C34.93 158.08 28.07 158.81 21.71 160L13.97 161.45L21.71 162.9C28.06 164.08 34.92 164.81 43.05 165.16C37.6 170.22 33.37 174.79 29.88 179.39L25.62 184.99L32.32 181.44C38.07 178.38 43.63 174.76 49.99 169.9C50.06 180.97 54.79 244.42 54.79 244.42C55.23 239.89 59.28 181.41 59.34 171.27C64.92 175.41 70.03 178.68 75.21 181.43L81.94 185.01L77.65 179.38C74.16 174.78 69.92 170.21 64.46 165.15C72.6 164.79 79.46 164.07 85.82 162.89L93.6 161.46Z" fill="#F80138"/>
<path d="M99.4 155.65L91.62 154.2C85.27 153.03 78.41 152.29 70.26 151.94C75.72 146.88 79.96 142.3 83.45 137.7L87.74 132.07L81.01 135.65C75.82 138.41 70.72 141.68 65.14 145.82C65.07 135.58 60.44 72.68 60.44 72.68C59.17 87.04 55.86 136.02 55.79 147.19C49.42 142.33 43.87 138.7 38.12 135.65L31.43 132.09L35.68 137.69C39.17 142.3 43.4 146.87 48.85 151.92C40.73 152.27 33.87 153 27.51 154.19L19.77 155.64L27.51 157.09C33.86 158.27 40.72 159 48.85 159.35C43.4 164.41 39.17 168.98 35.68 173.58L31.42 179.18L38.12 175.63C43.87 172.57 49.43 168.95 55.79 164.09C55.86 175.16 60.59 238.61 60.59 238.61C61.03 234.08 65.08 175.6 65.14 165.46C70.72 169.6 75.83 172.87 81.01 175.62L87.74 179.2L83.45 173.57C79.96 168.97 75.72 164.4 70.26 159.34C78.4 158.98 85.26 158.26 91.62 157.08L99.4 155.65Z" fill="white"/>
</svg>
