<svg viewBox="0 0 32 32" fill="#231F20" xmlns="http://www.w3.org/2000/svg">
<path d="M22.37 21.09C22.2479 21.0413 22.1174 21.0171 21.9859 21.0189C21.8544 21.0207 21.7246 21.0484 21.6039 21.1004C21.4831 21.1524 21.3738 21.2277 21.2822 21.322C21.1906 21.4163 21.1185 21.5278 21.07 21.65C21.0213 21.7721 20.9971 21.9026 20.9989 22.0341C21.0007 22.1655 21.0284 22.2953 21.0804 22.4161C21.1324 22.5368 21.2077 22.6461 21.302 22.7378C21.3964 22.8294 21.5078 22.9015 21.63 22.95C23.09 23.53 24 24.32 24 25C24 26.22 20.88 28 16 28C11.12 28 8 26.22 8 25C8 24.32 8.91 23.53 10.37 22.95C10.4922 22.9015 10.6036 22.8294 10.698 22.7378C10.7923 22.6461 10.8676 22.5368 10.9196 22.4161C10.9716 22.2953 10.9993 22.1655 11.0011 22.0341C11.0029 21.9026 10.9787 21.7721 10.93 21.65C10.8815 21.5278 10.8094 21.4163 10.7178 21.322C10.6262 21.2277 10.5169 21.1524 10.3961 21.1004C10.2754 21.0484 10.1456 21.0207 10.0141 21.0189C9.88264 21.0171 9.75212 21.0413 9.63 21.09C7.29 22 6 23.41 6 25C6 27.85 10.3 30 16 30C21.7 30 26 27.85 26 25C26 23.41 24.71 22 22.37 21.09Z" />
<path d="M16.0001 25C16.2528 24.9991 16.4957 24.9027 16.6801 24.73C24.0001 17.82 25.4701 9.40002 22.5901 5.26002C21.8793 4.27261 20.9389 3.47295 19.8501 2.93002C18.6589 2.31848 17.3391 1.99951 16.0001 1.99951C14.6611 1.99951 13.3413 2.31848 12.1501 2.93002C11.0613 3.47295 10.1209 4.27261 9.41012 5.26002C6.53012 9.40002 8.00012 17.82 15.3201 24.73C15.5045 24.9027 15.7475 24.9991 16.0001 25ZM11.0501 6.40002C11.571 5.68389 12.2571 5.10413 13.0501 4.71002C13.9563 4.24338 14.9608 3.99993 15.9801 3.99993C16.9994 3.99993 18.0039 4.24338 18.9101 4.71002C19.7358 5.09184 20.4539 5.67251 21.0001 6.40002C23.2001 9.65002 21.9001 16.65 16.0001 22.6C10.1001 16.65 8.80012 9.65002 11.0501 6.40002Z"/>
<path d="M19 9C19 8.40666 18.8241 7.82664 18.4944 7.33329C18.1648 6.83994 17.6962 6.45543 17.1481 6.22836C16.5999 6.0013 15.9967 5.94189 15.4147 6.05765C14.8328 6.1734 14.2982 6.45912 13.8787 6.87868C13.4591 7.29824 13.1734 7.83279 13.0576 8.41473C12.9419 8.99667 13.0013 9.59987 13.2284 10.1481C13.4554 10.6962 13.8399 11.1648 14.3333 11.4944C14.8266 11.8241 15.4067 12 16 12C16.7957 12 17.5587 11.6839 18.1213 11.1213C18.6839 10.5587 19 9.79565 19 9ZM15 9C15 8.80222 15.0587 8.60888 15.1685 8.44443C15.2784 8.27998 15.4346 8.15181 15.6173 8.07612C15.8 8.00043 16.0011 7.98063 16.1951 8.01922C16.3891 8.0578 16.5673 8.15304 16.7071 8.29289C16.847 8.43275 16.9422 8.61093 16.9808 8.80491C17.0194 8.99889 16.9996 9.19996 16.9239 9.38268C16.8482 9.56541 16.72 9.72159 16.5556 9.83147C16.3911 9.94135 16.1978 10 16 10C15.7348 10 15.4804 9.89464 15.2929 9.70711C15.1054 9.51957 15 9.26522 15 9Z"/>
</svg>
