<svg viewBox="0 0 399 91" fill="none" xmlns="http://www.w3.org/2000/svg">
<path d="M43.1482 15.44C45.9082 14.95 48.7682 14.69 51.6882 14.69C54.7382 14.69 57.6982 14.98 60.5682 15.51L62.7482 6.5C63.5482 3.19 61.0382 0 57.6282 0H46.0982C42.6882 0 40.1782 3.19 40.9782 6.5L43.1482 15.44Z" fill="#FFAB4D"/>
<path d="M26.3881 21.98C31.2881 18.82 36.9681 16.54 43.1381 15.44L40.9681 6.49001C40.1681 3.18001 36.4781 1.49002 33.4481 3.05002L23.1881 8.32001C20.1581 9.88001 19.3781 13.86 21.6081 16.44L26.3881 21.98Z" fill="#FF7276"/>
<path d="M77.2181 22.13L82.1281 16.44C84.3581 13.86 83.5781 9.88001 80.5481 8.32001L70.2881 3.05002C67.2581 1.49002 63.5681 3.18001 62.7681 6.49001L60.5881 15.5C66.7181 16.65 72.3581 18.95 77.2181 22.13Z" fill="#FF7276"/>
<path d="M103.678 49.68L101.988 38.27C101.488 34.9 97.9683 32.88 94.8083 34.16L90.2483 36C92.6383 40.35 94.1183 45.17 94.4383 50.25C94.4883 50.96 94.5083 51.68 94.5083 52.4C94.5083 53.4 94.4483 54.38 94.3683 55.36L97.9883 55.69C101.388 56 104.178 53.05 103.678 49.68Z" fill="#FF7276"/>
<path d="M8.86823 52.4C8.86823 51.78 8.88823 51.16 8.91823 50.54C9.20823 45.3 10.7182 40.35 13.1982 35.88L8.92823 34.15C5.76823 32.87 2.24823 34.89 1.74823 38.26L0.0582298 49.67C-0.44177 53.04 2.34823 55.99 5.73823 55.68L9.00823 55.38C8.92823 54.41 8.86823 53.41 8.86823 52.4Z" fill="#FF7276"/>
<path d="M13.1983 35.88C16.2683 30.36 20.8083 25.59 26.3783 21.99L21.5983 16.46C19.3683 13.88 15.3183 14.06 13.3283 16.83L6.61829 26.21C4.63829 28.98 5.76829 32.88 8.92829 34.16L13.1983 35.88Z" fill="#7ADBD4"/>
<path d="M97.1183 26.2L90.4083 16.82C88.4283 14.05 84.3683 13.87 82.1383 16.45L77.2283 22.13C82.7383 25.74 87.2283 30.49 90.2483 35.99L94.8083 34.15C97.9683 32.87 99.0983 28.97 97.1183 26.2Z" fill="#7ADBD4"/>
<path d="M94.4382 50.26C84.0382 49.82 74.5682 46.53 67.1882 41.33C69.2782 40.12 71.2782 37.84 72.8882 36.17C73.8482 35.18 74.3382 34.26 74.3382 34.26C74.3382 34.26 73.6982 34.83 72.6382 35.69C71.5782 36.55 70.0682 37.67 68.3182 38.77C67.4282 39.33 66.5582 39.84 65.7582 40.28C65.7482 40.28 65.7482 40.27 65.7382 40.27C49.6282 48.66 29.8082 52.63 8.90815 50.55C8.87815 51.17 8.85815 51.78 8.85815 52.41C8.85815 73.24 28.0282 90.13 51.6782 90.13C75.3282 90.13 94.4982 73.24 94.4982 52.41C94.5182 51.68 94.4882 50.97 94.4382 50.26Z" fill="#F3CFB2"/>
<path d="M65.7482 40.26C65.7582 40.27 65.7582 40.27 65.7682 40.27C66.5682 39.83 67.4382 39.33 68.3282 38.76C70.0782 37.65 71.5782 36.54 72.6482 35.68C73.7082 34.82 74.3482 34.25 74.3482 34.25C74.3482 34.25 73.8682 35.17 72.8982 36.16C71.2782 37.83 69.2882 40.1 67.1982 41.32C74.5782 46.52 84.0482 49.81 94.4482 50.25C93.1782 30.42 74.5282 14.69 51.6882 14.69C28.7482 14.69 10.0182 30.58 8.91821 50.55C29.8282 52.62 49.6382 48.66 65.7482 40.26Z" fill="#FFB71B"/>
<path d="M28.8383 72.23C28.8383 73.91 26.8583 75.27 24.4083 75.27C21.9583 75.27 19.9783 73.91 19.9783 72.23C19.9783 70.55 21.9583 69.19 24.4083 69.19C26.8583 69.2 28.8383 70.56 28.8383 72.23Z" fill="#FF7276"/>
<path d="M83.4083 72.23C83.4083 73.91 81.4283 75.27 78.9783 75.27C76.5283 75.27 74.5483 73.91 74.5483 72.23C74.5483 70.55 76.5283 69.19 78.9783 69.19C81.4183 69.2 83.4083 70.56 83.4083 72.23Z" fill="#FF7276"/>
<path d="M32.4782 58.88C32.4782 61.93 31.5682 64.41 30.4382 64.41C29.3082 64.41 28.3982 61.93 28.3982 58.88C28.3982 55.83 29.3082 53.35 30.4382 53.35C31.5582 53.35 32.4782 55.82 32.4782 58.88Z" fill="#231010"/>
<path d="M74.9982 58.88C74.9982 61.93 74.0882 64.41 72.9582 64.41C71.8282 64.41 70.9182 61.93 70.9182 58.88C70.9182 55.83 71.8282 53.35 72.9582 53.35C74.0782 53.35 74.9982 55.82 74.9982 58.88Z" fill="#231010"/>
<path d="M51.7084 70.42C48.8084 70.42 46.1583 69.64 43.9883 68.33C43.5583 68.07 43.3083 67.59 43.3083 67.09V67.05C43.3083 65.97 44.4383 65.25 45.4083 65.74C47.0883 66.58 49.2884 67.28 51.7084 67.28C54.1184 67.28 56.3083 66.61 57.9783 65.78C58.9483 65.3 60.0684 66.01 60.0684 67.09C60.0684 67.59 59.8183 68.07 59.3983 68.33C57.2383 69.64 54.5984 70.42 51.7084 70.42Z" fill="#FF7276"/>
<path d="M31.6682 56.3C31.6682 55.39 31.3882 54.66 31.0482 54.66C30.7082 54.66 30.4282 55.4 30.4282 56.3C30.4282 57.21 30.7082 57.94 31.0482 57.94C31.3982 57.94 31.6682 57.2 31.6682 56.3Z" fill="white"/>
<path d="M74.1982 56.3C74.1982 55.39 73.9182 54.66 73.5782 54.66C73.2382 54.66 72.9583 55.4 72.9583 56.3C72.9583 57.21 73.2382 57.94 73.5782 57.94C73.9182 57.94 74.1982 57.2 74.1982 56.3Z" fill="white"/>
<path d="M222.468 27.24L220.868 32.15H213.418H211.708C211.708 32.15 213.548 31.76 213.948 30.52L214.308 29.43C214.638 28.43 213.498 27.75 212.138 28.13L209.618 28.84C209.298 28.93 208.998 29.04 208.708 29.17L207.748 32.12L207.258 33.61L201.128 52.44H193.678L202.258 26.1C202.658 24.86 201.078 24.47 201.078 24.47H202.788H210.238L209.688 26.15C210.878 25.69 212.068 25.24 213.278 24.89C215.378 24.27 217.588 24 219.578 24.13C221.688 24.28 223.008 25.57 222.468 27.24Z" fill="#FFB71B"/>
<path d="M199.658 38.64L195.618 51.03H200.098L204.128 38.64H199.658Z" fill="#FFAB4D"/>
<path d="M251.008 17.94H243.558L240.708 26.69C240.038 26.57 239.328 26.5 238.578 26.5H235.508C230.088 26.5 224.618 29.79 223.298 33.85L219.648 45.05C218.328 49.11 221.648 52.4 227.068 52.4H230.138C230.898 52.4 231.648 52.33 232.398 52.21L232.318 52.46H239.768L241.738 46.4C241.988 45.97 242.198 45.52 242.348 45.06L245.998 33.86C246.148 33.4 246.228 32.96 246.268 32.52L249.808 21.65C250.888 18.34 252.718 17.94 252.718 17.94H251.008ZM237.138 34.23C236.118 37.37 234.748 41.58 233.718 44.72C232.678 47.92 230.408 51.29 228.968 51.29C227.528 51.29 227.448 47.93 228.498 44.72C229.518 41.58 230.058 39.94 231.918 34.23C232.888 31.26 235.248 27.6 236.688 27.6C238.128 27.6 238.128 31.2 237.138 34.23Z" fill="#FFB71B"/>
<path d="M237.188 38.64L235.068 45.16C234.508 46.89 233.398 49.22 232.038 50.83C232.088 50.82 234.468 50.44 234.468 50.44L234.268 51.04H238.748L240.448 45.81L240.518 45.68C240.738 45.3 240.898 44.95 241.008 44.61L242.948 38.65H237.188V38.64Z" fill="#FFAB4D"/>
<path d="M228.988 38.64H223.228L220.998 45.48C220.598 46.7 220.748 47.83 221.418 48.75C222.378 50.07 224.338 50.89 226.708 50.97C226.028 49.17 226.478 46.35 227.148 44.28L228.988 38.64Z" fill="#FFAB4D"/>
<path d="M160.378 18C152.518 18 144.598 22.77 142.688 28.65L138.408 41.81C137.648 44.16 137.968 46.32 139.108 48.08C136.848 49.5 134.908 50.96 133.288 52.46H136.038C137.308 51.39 138.728 50.38 140.228 49.43C142.178 51.3 145.308 52.46 149.168 52.46C157.028 52.46 164.948 47.69 166.858 41.81L168.658 36.29L164.248 37.67C161.848 38.34 157.788 39.55 153.188 41.3C151.018 42.13 148.988 42.98 147.088 43.85L153.948 22.77C154.608 20.75 157.328 19.11 160.038 19.11C162.738 19.11 164.398 20.75 163.738 22.77L161.358 30.09C160.608 32.4 156.258 32.38 156.258 32.38H160.608H169.938L171.158 28.65C173.048 22.76 168.238 18 160.378 18ZM157.638 41.46L155.608 47.68C154.948 49.7 152.228 51.34 149.518 51.34C146.818 51.34 145.158 49.7 145.818 47.68L146.348 46.05C150.228 44.17 154.218 42.63 157.638 41.46Z" fill="#FFB71B"/>
<path d="M165.828 38.64L164.608 39.02C163.238 39.4 161.458 39.92 159.398 40.59L156.948 48.11C156.758 48.7 156.438 49.27 156.018 49.79C160.578 48.13 164.328 44.97 165.508 41.36L166.398 38.64H165.828V38.64Z" fill="#FFAB4D"/>
<path d="M144.478 47.24L147.278 38.64H140.918L139.748 42.23C139.148 44.07 139.338 45.82 140.298 47.29L140.698 47.91L141.198 48.39C142.118 49.27 143.328 49.95 144.748 50.4C144.208 49.46 144.118 48.35 144.478 47.24Z" fill="#FFAB4D"/>
<path d="M189.288 24.48H186.218C180.798 24.48 175.328 27.77 174.008 31.83L169.688 45.1C168.368 49.16 171.688 52.45 177.108 52.45H180.168C185.588 52.45 191.058 49.16 192.378 45.1L196.698 31.83C198.028 27.77 194.708 24.48 189.288 24.48ZM187.848 32.21C186.828 35.35 184.778 41.63 183.758 44.78C182.718 47.98 180.448 51.35 179.008 51.35C177.568 51.35 177.488 47.99 178.528 44.78C179.548 41.64 180.758 37.92 182.618 32.21C183.588 29.24 185.948 25.58 187.388 25.58C188.838 25.58 188.838 29.18 187.848 32.21Z" fill="#FFB71B"/>
<path d="M187.238 38.64L185.098 45.21C184.538 46.94 183.428 49.27 182.068 50.88C186.188 50.25 190.068 47.65 191.038 44.66L192.998 38.64H187.238Z" fill="#FFAB4D"/>
<path d="M179.038 38.64H173.278L171.038 45.53C170.638 46.75 170.788 47.88 171.458 48.8C172.418 50.12 174.378 50.94 176.748 51.02C176.068 49.22 176.518 46.4 177.188 44.33L179.038 38.64Z" fill="#FFAB4D"/>
<path d="M333.778 20.48C334.238 19.08 336.128 17.94 337.998 17.94C339.868 17.94 341.018 19.08 340.568 20.48C340.108 21.88 338.218 23.02 336.348 23.02C334.478 23.02 333.328 21.88 333.778 20.48Z" fill="#FFB71B"/>
<path d="M339.718 24.66H341.428C341.428 24.66 339.588 25.05 338.508 28.37L337.608 31.14L330.668 52.45H323.218H321.508C321.508 52.45 323.348 52.06 324.418 48.74L324.888 47.3L332.258 24.66H339.718V24.66Z" fill="#FFB71B"/>
<path d="M329.208 38.64L326.848 45.88L325.778 49.17C325.538 49.9 325.268 50.51 324.978 51.03H329.648L333.678 38.64H329.208Z" fill="#FFAB4D"/>
<path d="M357.198 24.48H354.128C348.708 24.48 343.238 27.77 341.918 31.83L340.928 34.88H349.658H349.678H351.388C351.388 34.88 349.908 34.51 350.798 31.47C351.888 28.63 353.978 25.58 355.308 25.58C356.748 25.58 356.728 29.24 355.758 32.21L354.428 36.28C354.018 36.24 353.598 36.21 353.148 36.21H350.078C344.658 36.21 339.188 39.5 337.868 43.56L337.368 45.1C336.048 49.16 339.368 52.45 344.788 52.45H346.628H347.848H348.068C350.628 52.45 353.198 51.71 355.338 50.5C356.118 51.8 357.678 52.45 357.678 52.45L359.928 45.95C360.058 45.67 360.178 45.39 360.268 45.11L364.588 31.84C365.938 27.77 362.618 24.48 357.198 24.48ZM351.718 43.94C351.588 44.35 351.498 44.62 351.448 44.77C350.408 47.97 348.138 51.34 346.698 51.34C345.258 51.34 345.178 47.98 346.218 44.77C346.408 44.18 346.478 43.98 346.468 44.02C346.478 43.99 346.488 43.97 346.498 43.94C347.468 40.97 349.828 37.31 351.268 37.31C352.708 37.31 352.708 40.91 351.718 43.94Z" fill="#FFB71B"/>
<path d="M353.728 38.64C353.988 40.36 353.648 42.6 353.068 44.38L352.798 45.21C352.228 46.95 351.108 49.31 349.738 50.92C351.438 50.69 353.148 50.13 354.668 49.27L355.868 48.59L356.578 49.77C356.678 49.94 356.818 50.11 356.968 50.26L358.648 45.4L358.678 45.33C358.798 45.08 358.888 44.86 358.958 44.66L360.918 38.64H353.728V38.64Z" fill="#FFAB4D"/>
<path d="M266.368 24.48H263.298C257.878 24.48 252.408 27.77 251.088 31.83L246.768 45.1C245.448 49.16 248.768 52.45 254.188 52.45H257.248C262.668 52.45 268.138 49.16 269.458 45.1L269.908 43.72H268.588H261.168H259.428C259.428 43.72 261.008 44.11 260.608 45.35L260.518 45.63C259.388 48.54 257.388 51.34 256.078 51.34C254.638 51.34 254.558 47.98 255.598 44.77C255.958 43.66 256.338 42.48 256.768 41.17H261.998H269.418H270.738L273.788 31.82C275.108 27.77 271.788 24.48 266.368 24.48ZM264.928 32.21C264.298 34.14 263.288 37.24 262.368 40.08H257.138C257.848 37.9 258.678 35.36 259.698 32.21C260.668 29.24 263.028 25.58 264.468 25.58C265.918 25.58 265.918 29.18 264.928 32.21Z" fill="#FFB71B"/>
<path d="M256.118 38.64H250.358L248.118 45.53C247.718 46.75 247.868 47.88 248.538 48.8C249.498 50.12 251.458 50.94 253.828 51.02C253.148 49.22 253.598 46.4 254.268 44.33L256.118 38.64Z" fill="#FFAB4D"/>
<path d="M261.958 45.79L261.838 46.15C261.298 47.54 260.328 49.47 259.138 50.89C263.048 50.29 266.728 47.93 267.938 45.14H262.088C262.078 45.35 262.038 45.57 261.958 45.79Z" fill="#FFAB4D"/>
<path d="M264.318 38.64L263.948 39.77H269.718L270.078 38.64H264.318Z" fill="#FFAB4D"/>
<path d="M387.698 45.1C386.378 49.16 380.908 52.44 375.488 52.44H372.418C367.528 52.44 364.358 49.76 364.748 46.26C364.748 46.25 364.738 46.24 364.738 46.22C364.718 44.79 363.858 44.58 363.858 44.58H365.568H373.018H373.898C373.888 44.62 373.868 44.66 373.858 44.7C372.868 47.73 372.868 51.33 374.308 51.33C375.748 51.33 378.118 47.67 379.078 44.7C380.938 38.99 379.808 38.85 378.368 38.85H376.838C375.518 38.85 374.328 38.65 373.298 38.3C370.088 37.2 368.418 34.58 369.418 31.51C370.738 27.45 376.208 24.17 381.628 24.17H384.698C389.228 24.17 392.268 26.47 392.388 29.59V29.6C392.408 31.03 393.268 31.24 393.268 31.24H392.198H391.558H384.108H383.458C384.238 28.37 384.148 25.27 382.808 25.27C381.368 25.27 378.998 28.93 378.038 31.9C376.178 37.61 377.308 37.75 378.748 37.75H380.278C381.598 37.75 382.788 37.95 383.818 38.3C387.028 39.41 388.688 42.03 387.698 45.1Z" fill="#FFB71B"/>
<path d="M383.358 39.65C382.728 39.44 382.048 39.29 381.328 39.22C381.698 40.39 381.418 42.15 380.438 45.15C379.958 46.62 378.788 49.16 377.318 50.89C381.458 50.27 385.368 47.67 386.358 44.66C387.208 42.01 385.368 40.33 383.358 39.65Z" fill="#FFAB4D"/>
<path d="M372.058 46H366.148V46.04L366.178 46.24L366.158 46.43C366.048 47.45 366.338 48.36 367.018 49.12C368.058 50.28 369.888 50.97 372.088 51.03C371.608 49.71 371.688 47.79 372.058 46Z" fill="#FFAB4D"/>
<path d="M345.078 38.64C342.258 39.79 339.948 41.78 339.228 44L338.728 45.54C338.328 46.76 338.478 47.89 339.148 48.81C340.108 50.13 342.068 50.95 344.438 51.03C343.758 49.23 344.208 46.41 344.878 44.34L345.118 43.59L345.098 43.66L345.148 43.51C345.548 42.28 346.448 40.28 347.598 38.64H345.078V38.64Z" fill="#FFAB4D"/>
<path d="M288.538 21.65L287.638 24.42L278.518 52.44H271.068H269.358C269.358 52.44 271.198 52.05 272.268 48.73L272.738 47.29L282.298 17.93H289.748H291.458C291.448 17.94 289.608 18.34 288.538 21.65Z" fill="#FFB71B"/>
<path d="M277.038 38.64L274.678 45.88L273.608 49.17C273.368 49.89 273.098 50.51 272.808 51.03H277.478L281.508 38.64H277.038Z" fill="#FFAB4D"/>
<path d="M299.878 24.66H301.588C301.588 24.66 299.748 25.05 298.678 28.37L297.778 31.14L290.838 52.45H283.388H281.678C281.678 52.45 283.518 52.06 284.588 48.74L285.058 47.3L292.428 24.66H299.878V24.66Z" fill="#FFB71B"/>
<path d="M294.278 20.48C294.738 19.08 296.628 17.94 298.498 17.94C300.368 17.94 301.518 19.08 301.068 20.48C300.608 21.88 298.718 23.02 296.848 23.02C294.968 23.02 293.818 21.88 294.278 20.48Z" fill="#FFB71B"/>
<path d="M289.368 38.64L287.008 45.88L285.938 49.17C285.698 49.89 285.428 50.51 285.138 51.03H289.808L293.838 38.64H289.368Z" fill="#FFAB4D"/>
<path d="M325.138 31.82L323.438 37.18H322.168V37.19H314.718H313.008C313.008 37.19 314.698 36.82 315.788 33.86L316.278 32.2C317.268 29.17 317.268 25.57 315.818 25.57C314.378 25.57 312.008 29.23 311.048 32.2C309.188 37.91 307.978 41.62 306.958 44.77C305.918 47.97 305.988 51.34 307.428 51.34C308.868 51.34 311.138 47.97 312.178 44.77C312.388 44.12 312.458 43.92 312.738 43.06C313.578 40.1 312.128 39.73 312.128 39.73H313.838H321.288H322.558L320.808 45.09C319.488 49.15 314.018 52.44 308.598 52.44H305.528C300.108 52.44 296.788 49.15 298.108 45.09L302.428 31.82C303.748 27.76 309.218 24.47 314.638 24.47H317.708C323.138 24.48 326.458 27.77 325.138 31.82Z" fill="#FFB71B"/>
<path d="M307.468 38.64H301.708L299.468 45.53C299.068 46.75 299.218 47.88 299.888 48.8C300.848 50.12 302.808 50.94 305.178 51.02C304.498 49.22 304.948 46.4 305.618 44.33L307.468 38.64Z" fill="#FFAB4D"/>
<path d="M314.088 43.5L313.528 45.21C312.968 46.94 311.858 49.27 310.498 50.88C314.618 50.25 318.498 47.65 319.468 44.66L320.608 41.15H314.398C314.448 41.83 314.338 42.61 314.088 43.5Z" fill="#FFAB4D"/>
<path d="M394.978 22.62H394.608V23.74H393.598V20.09H395.178C395.968 20.09 396.538 20.62 396.538 21.38C396.538 21.83 396.318 22.2 395.958 22.41L396.688 23.74H395.568L394.978 22.62ZM394.608 21.77H395.068C395.348 21.77 395.508 21.6 395.508 21.37C395.508 21.14 395.348 20.97 395.068 20.97H394.608V21.77Z" fill="#FFAB4D"/>
<path d="M394.908 25.58C392.888 25.58 391.248 23.94 391.248 21.92C391.248 19.9 392.888 18.26 394.908 18.26C396.928 18.26 398.568 19.9 398.568 21.92C398.568 23.94 396.928 25.58 394.908 25.58ZM394.908 18.99C393.288 18.99 391.978 20.3 391.978 21.92C391.978 23.54 393.288 24.85 394.908 24.85C396.528 24.85 397.838 23.54 397.838 21.92C397.838 20.3 396.528 18.99 394.908 18.99Z" fill="#FFAB4D"/>
<path d="M168.978 60.7C169.268 60.65 169.558 60.63 169.828 60.63C170.108 60.63 170.398 60.65 170.698 60.7V67.78H173.668C173.688 67.91 173.708 68.04 173.718 68.17C173.728 68.29 173.728 68.41 173.728 68.52C173.728 68.65 173.728 68.77 173.718 68.9C173.708 69.02 173.698 69.15 173.668 69.29H168.978V60.7Z" fill="#FF7276"/>
<path d="M179.378 65.22C179.378 65.03 179.348 64.87 179.278 64.75C179.218 64.63 179.128 64.54 179.018 64.47C178.908 64.4 178.768 64.36 178.608 64.33C178.448 64.31 178.258 64.29 178.068 64.29C177.638 64.29 177.178 64.37 176.698 64.54C176.588 64.33 176.498 64.14 176.448 63.96C176.388 63.78 176.368 63.56 176.368 63.3C176.718 63.18 177.068 63.09 177.418 63.04C177.768 62.98 178.098 62.96 178.398 62.96C179.228 62.96 179.868 63.16 180.338 63.56C180.808 63.96 181.038 64.59 181.038 65.47V69.05C180.758 69.14 180.418 69.22 180.028 69.3C179.628 69.38 179.178 69.42 178.678 69.42C178.278 69.42 177.898 69.38 177.568 69.31C177.228 69.24 176.938 69.12 176.698 68.95C176.458 68.78 176.268 68.57 176.138 68.31C176.008 68.05 175.938 67.73 175.938 67.34C175.938 66.96 176.018 66.64 176.178 66.38C176.338 66.12 176.548 65.91 176.808 65.76C177.068 65.6 177.358 65.49 177.678 65.43C177.998 65.36 178.318 65.33 178.638 65.33C178.868 65.33 179.128 65.34 179.398 65.37V65.22H179.378ZM179.378 66.45C179.278 66.43 179.178 66.42 179.068 66.41C178.958 66.4 178.858 66.39 178.768 66.39C178.378 66.39 178.068 66.46 177.848 66.6C177.618 66.74 177.508 66.96 177.508 67.27C177.508 67.48 177.548 67.64 177.638 67.75C177.728 67.86 177.828 67.94 177.958 67.99C178.078 68.04 178.208 68.07 178.348 68.09C178.488 68.1 178.608 68.11 178.708 68.11C178.828 68.11 178.948 68.1 179.068 68.08C179.188 68.06 179.288 68.04 179.378 68.03V66.45Z" fill="#FF7276"/>
<path d="M185.148 66.6C184.698 66.47 184.358 66.28 184.108 66.03C183.858 65.78 183.728 65.4 183.728 64.9C183.728 64.3 183.948 63.82 184.378 63.48C184.808 63.14 185.398 62.97 186.148 62.97C186.458 62.97 186.768 63 187.068 63.05C187.368 63.11 187.678 63.19 187.988 63.3C187.968 63.51 187.928 63.72 187.868 63.94C187.808 64.16 187.728 64.36 187.638 64.52C187.448 64.44 187.238 64.37 187.008 64.31C186.778 64.25 186.538 64.22 186.278 64.22C186.008 64.22 185.798 64.26 185.648 64.35C185.498 64.43 185.418 64.57 185.418 64.75C185.418 64.93 185.468 65.05 185.578 65.12C185.688 65.19 185.838 65.26 186.038 65.32L186.718 65.52C186.938 65.58 187.138 65.66 187.318 65.75C187.498 65.84 187.648 65.95 187.778 66.09C187.908 66.23 188.008 66.39 188.078 66.59C188.148 66.79 188.188 67.03 188.188 67.32C188.188 67.62 188.128 67.89 187.998 68.14C187.878 68.4 187.698 68.62 187.458 68.8C187.228 68.99 186.938 69.13 186.608 69.24C186.278 69.35 185.898 69.4 185.478 69.4C185.288 69.4 185.108 69.39 184.958 69.38C184.798 69.37 184.648 69.35 184.498 69.32C184.348 69.29 184.208 69.26 184.058 69.22C183.918 69.18 183.758 69.13 183.598 69.06C183.618 68.85 183.648 68.63 183.708 68.41C183.768 68.19 183.848 67.98 183.938 67.77C184.198 67.87 184.448 67.95 184.688 68C184.918 68.05 185.168 68.08 185.418 68.08C185.528 68.08 185.648 68.07 185.778 68.05C185.908 68.03 186.028 67.99 186.138 67.94C186.248 67.89 186.338 67.82 186.418 67.74C186.498 67.66 186.528 67.55 186.528 67.41C186.528 67.22 186.468 67.08 186.358 67C186.238 66.92 186.078 66.84 185.878 66.78L185.148 66.6Z" fill="#FF7276"/>
<path d="M199.648 64.83C199.938 64.78 200.228 64.76 200.508 64.76C200.788 64.76 201.078 64.78 201.378 64.83V69.04C200.968 69.19 200.538 69.29 200.088 69.34C199.638 69.39 199.248 69.42 198.908 69.42C198.208 69.42 197.598 69.31 197.068 69.09C196.538 68.87 196.108 68.56 195.758 68.17C195.408 67.78 195.148 67.31 194.968 66.77C194.798 66.23 194.708 65.64 194.708 65C194.708 64.36 194.798 63.77 194.978 63.23C195.158 62.68 195.428 62.21 195.768 61.82C196.118 61.42 196.538 61.11 197.048 60.89C197.548 60.67 198.128 60.56 198.768 60.56C199.148 60.56 199.508 60.58 199.838 60.63C200.168 60.68 200.508 60.78 200.868 60.93C200.848 61.17 200.808 61.4 200.728 61.63C200.648 61.86 200.558 62.09 200.468 62.32C200.188 62.22 199.938 62.16 199.728 62.12C199.508 62.08 199.258 62.06 198.968 62.06C198.208 62.06 197.618 62.31 197.208 62.81C196.798 63.31 196.588 64.05 196.588 65.02C196.588 66 196.788 66.73 197.198 67.21C197.598 67.69 198.198 67.93 198.988 67.93C199.128 67.93 199.248 67.92 199.348 67.91C199.458 67.89 199.548 67.88 199.638 67.86V64.83H199.648Z" fill="#FF7276"/>
<path d="M206.958 69.43C206.458 69.43 206.018 69.35 205.648 69.19C205.278 69.03 204.968 68.8 204.728 68.51C204.488 68.22 204.298 67.88 204.178 67.49C204.058 67.1 203.998 66.68 203.998 66.23C203.998 65.78 204.058 65.35 204.178 64.95C204.298 64.55 204.488 64.21 204.728 63.92C204.968 63.63 205.278 63.4 205.648 63.23C206.018 63.06 206.458 62.98 206.958 62.98C207.458 62.98 207.898 63.06 208.268 63.23C208.638 63.4 208.948 63.63 209.198 63.92C209.448 64.21 209.628 64.55 209.748 64.95C209.868 65.35 209.928 65.77 209.928 66.23C209.928 66.69 209.868 67.11 209.748 67.49C209.628 67.88 209.448 68.22 209.198 68.51C208.948 68.8 208.638 69.03 208.268 69.19C207.898 69.34 207.458 69.43 206.958 69.43ZM206.958 68.14C207.408 68.14 207.728 67.98 207.918 67.64C208.118 67.31 208.208 66.83 208.208 66.21C208.208 65.59 208.108 65.11 207.918 64.78C207.718 64.45 207.398 64.28 206.958 64.28C206.518 64.28 206.208 64.45 206.008 64.78C205.808 65.11 205.718 65.59 205.718 66.21C205.718 66.83 205.818 67.31 206.008 67.64C206.198 67.97 206.518 68.14 206.958 68.14Z" fill="#FF7276"/>
<path d="M212.698 63.11C212.818 63.09 212.928 63.07 213.038 63.06C213.148 63.05 213.258 63.04 213.388 63.04C213.508 63.04 213.628 63.05 213.738 63.06C213.858 63.08 213.968 63.1 214.078 63.12C214.098 63.16 214.118 63.22 214.148 63.29C214.168 63.37 214.188 63.44 214.198 63.53C214.218 63.61 214.228 63.7 214.238 63.78C214.248 63.86 214.258 63.93 214.268 63.99C214.438 63.74 214.658 63.52 214.908 63.33C215.158 63.13 215.478 63.04 215.868 63.04C215.948 63.04 216.038 63.04 216.138 63.05C216.238 63.06 216.318 63.07 216.368 63.09C216.378 63.17 216.398 63.26 216.408 63.36C216.418 63.46 216.418 63.57 216.418 63.68C216.418 63.82 216.408 63.96 216.398 64.12C216.388 64.28 216.368 64.43 216.328 64.57C216.238 64.55 216.138 64.55 216.038 64.55H215.838C215.698 64.55 215.548 64.56 215.388 64.59C215.218 64.62 215.058 64.69 214.908 64.81C214.758 64.93 214.628 65.11 214.528 65.35C214.428 65.59 214.378 65.92 214.378 66.35V69.29C214.238 69.31 214.088 69.33 213.948 69.34C213.808 69.35 213.668 69.35 213.528 69.35C213.388 69.35 213.258 69.35 213.118 69.34C212.978 69.33 212.838 69.32 212.678 69.29V63.11H212.698Z" fill="#FF7276"/>
<path d="M222.448 60.56C222.588 60.54 222.728 60.52 222.868 60.51C223.008 60.5 223.148 60.5 223.278 60.5C223.418 60.5 223.558 60.5 223.698 60.51C223.838 60.52 223.988 60.53 224.128 60.56V69.08C223.758 69.19 223.378 69.28 222.988 69.34C222.598 69.4 222.138 69.43 221.588 69.43C221.168 69.43 220.758 69.37 220.378 69.26C219.988 69.14 219.648 68.96 219.358 68.71C219.068 68.46 218.828 68.14 218.658 67.74C218.488 67.34 218.398 66.86 218.398 66.28C218.398 65.83 218.468 65.4 218.618 65C218.768 64.6 218.978 64.25 219.248 63.96C219.518 63.67 219.858 63.43 220.248 63.26C220.638 63.09 221.068 63 221.548 63C221.688 63 221.838 63.01 221.998 63.02C222.148 63.03 222.298 63.06 222.448 63.1V60.56V60.56ZM222.448 64.39C222.288 64.35 222.158 64.32 222.058 64.31C221.958 64.3 221.828 64.29 221.678 64.29C221.418 64.29 221.188 64.34 220.988 64.45C220.788 64.56 220.628 64.7 220.508 64.88C220.378 65.06 220.288 65.27 220.228 65.51C220.168 65.75 220.138 66.01 220.138 66.27C220.138 66.6 220.178 66.87 220.258 67.1C220.338 67.33 220.448 67.51 220.588 67.64C220.728 67.78 220.888 67.87 221.088 67.93C221.278 67.99 221.488 68.02 221.708 68.02C221.848 68.02 221.968 68.01 222.078 68C222.188 67.99 222.308 67.96 222.448 67.92V64.39V64.39Z" fill="#FF7276"/>
<path d="M227.528 64.4H226.728C226.708 64.3 226.688 64.19 226.678 64.07C226.668 63.95 226.658 63.85 226.658 63.74C226.658 63.53 226.678 63.31 226.728 63.11H229.188V69.28C228.898 69.33 228.618 69.35 228.348 69.35C228.088 69.35 227.808 69.33 227.528 69.28V64.4ZM227.278 62.07C227.228 61.8 227.208 61.53 227.208 61.27C227.208 61.02 227.228 60.75 227.278 60.47C227.418 60.45 227.558 60.43 227.718 60.42C227.868 60.41 228.018 60.4 228.138 60.4C228.268 60.4 228.418 60.41 228.578 60.42C228.738 60.43 228.888 60.45 229.018 60.47C229.038 60.6 229.058 60.74 229.068 60.87C229.078 61 229.078 61.14 229.078 61.27C229.078 61.4 229.078 61.53 229.068 61.66C229.058 61.8 229.048 61.93 229.018 62.07C228.878 62.09 228.738 62.11 228.578 62.12C228.418 62.13 228.278 62.13 228.138 62.13C228.008 62.13 227.868 62.13 227.708 62.12C227.558 62.11 227.408 62.1 227.278 62.07Z" fill="#FF7276"/>
<path d="M232.458 64.4H231.678L231.618 64.16L233.848 61.31H234.118V63.11H235.558C235.578 63.23 235.598 63.34 235.608 63.43C235.618 63.53 235.618 63.63 235.618 63.73C235.618 63.84 235.618 63.95 235.608 64.05C235.598 64.15 235.588 64.27 235.558 64.4H234.118V66.82C234.118 67.07 234.138 67.27 234.178 67.42C234.218 67.57 234.278 67.69 234.348 67.78C234.428 67.87 234.518 67.93 234.628 67.96C234.738 67.99 234.868 68.01 235.018 68.01C235.138 68.01 235.258 68 235.368 67.98C235.488 67.96 235.588 67.94 235.668 67.93C235.728 68.08 235.768 68.24 235.788 68.4C235.808 68.56 235.828 68.71 235.828 68.84C235.828 68.93 235.828 69 235.818 69.06C235.818 69.12 235.808 69.18 235.798 69.23C235.428 69.32 235.058 69.36 234.668 69.36C233.948 69.36 233.388 69.19 233.008 68.85C232.628 68.51 232.438 67.96 232.438 67.2V64.4H232.458Z" fill="#FF7276"/>
<path d="M241.368 65.22C241.368 65.03 241.338 64.87 241.268 64.75C241.208 64.63 241.118 64.54 241.008 64.47C240.898 64.4 240.758 64.36 240.598 64.33C240.438 64.31 240.248 64.29 240.058 64.29C239.628 64.29 239.168 64.37 238.688 64.54C238.578 64.33 238.488 64.14 238.438 63.96C238.378 63.78 238.358 63.56 238.358 63.3C238.708 63.18 239.058 63.09 239.408 63.04C239.758 62.98 240.088 62.96 240.388 62.96C241.218 62.96 241.858 63.16 242.328 63.56C242.798 63.96 243.028 64.59 243.028 65.47V69.05C242.748 69.14 242.408 69.22 242.018 69.3C241.618 69.38 241.168 69.42 240.668 69.42C240.268 69.42 239.888 69.38 239.558 69.31C239.218 69.24 238.928 69.12 238.688 68.95C238.448 68.78 238.258 68.57 238.128 68.31C237.998 68.05 237.928 67.73 237.928 67.34C237.928 66.96 238.008 66.64 238.168 66.38C238.328 66.12 238.538 65.91 238.798 65.76C239.058 65.6 239.348 65.49 239.668 65.43C239.988 65.36 240.308 65.33 240.628 65.33C240.858 65.33 241.118 65.34 241.388 65.37V65.22H241.368ZM241.368 66.45C241.268 66.43 241.168 66.42 241.058 66.41C240.948 66.4 240.848 66.39 240.758 66.39C240.368 66.39 240.058 66.46 239.838 66.6C239.608 66.74 239.498 66.96 239.498 67.27C239.498 67.48 239.538 67.64 239.628 67.75C239.718 67.86 239.818 67.94 239.948 67.99C240.068 68.04 240.198 68.07 240.338 68.09C240.478 68.1 240.598 68.11 240.698 68.11C240.818 68.11 240.938 68.1 241.058 68.08C241.178 68.06 241.278 68.04 241.368 68.03V66.45Z" fill="#FF7276"/>
<path d="M247.148 66.6C246.698 66.47 246.358 66.28 246.108 66.03C245.858 65.78 245.728 65.4 245.728 64.9C245.728 64.3 245.948 63.82 246.378 63.48C246.808 63.14 247.398 62.97 248.148 62.97C248.458 62.97 248.768 63 249.068 63.05C249.368 63.11 249.678 63.19 249.988 63.3C249.968 63.51 249.928 63.72 249.868 63.94C249.808 64.16 249.728 64.36 249.638 64.52C249.448 64.44 249.238 64.37 249.008 64.31C248.778 64.25 248.538 64.22 248.278 64.22C248.008 64.22 247.798 64.26 247.648 64.35C247.498 64.43 247.418 64.57 247.418 64.75C247.418 64.93 247.468 65.05 247.578 65.12C247.688 65.19 247.838 65.26 248.038 65.32L248.718 65.52C248.938 65.58 249.138 65.66 249.318 65.75C249.498 65.84 249.648 65.95 249.778 66.09C249.908 66.23 250.008 66.39 250.078 66.59C250.148 66.79 250.188 67.03 250.188 67.32C250.188 67.62 250.128 67.89 249.998 68.14C249.878 68.4 249.698 68.62 249.458 68.8C249.228 68.99 248.938 69.13 248.608 69.24C248.278 69.35 247.898 69.4 247.478 69.4C247.288 69.4 247.108 69.39 246.958 69.38C246.798 69.37 246.648 69.35 246.498 69.32C246.348 69.29 246.208 69.26 246.058 69.22C245.918 69.18 245.758 69.13 245.598 69.06C245.618 68.85 245.648 68.63 245.708 68.41C245.768 68.19 245.848 67.98 245.938 67.77C246.198 67.87 246.448 67.95 246.688 68C246.918 68.05 247.168 68.08 247.418 68.08C247.528 68.08 247.648 68.07 247.778 68.05C247.908 68.03 248.028 67.99 248.138 67.94C248.248 67.89 248.338 67.82 248.418 67.74C248.498 67.66 248.528 67.55 248.528 67.41C248.528 67.22 248.468 67.08 248.358 67C248.248 66.92 248.078 66.84 247.878 66.78L247.148 66.6Z" fill="#FF7276"/>
<path d="M260.628 60.56C260.768 60.54 260.908 60.52 261.048 60.51C261.188 60.5 261.328 60.5 261.458 60.5C261.598 60.5 261.738 60.5 261.878 60.51C262.018 60.52 262.168 60.53 262.308 60.56V69.08C261.938 69.19 261.558 69.28 261.168 69.34C260.778 69.4 260.318 69.43 259.768 69.43C259.348 69.43 258.938 69.37 258.558 69.26C258.168 69.14 257.828 68.96 257.538 68.71C257.248 68.46 257.008 68.14 256.838 67.74C256.668 67.34 256.578 66.86 256.578 66.28C256.578 65.83 256.648 65.4 256.798 65C256.948 64.6 257.158 64.25 257.428 63.96C257.698 63.67 258.038 63.43 258.428 63.26C258.818 63.09 259.248 63 259.728 63C259.868 63 260.018 63.01 260.178 63.02C260.328 63.03 260.478 63.06 260.628 63.1V60.56V60.56ZM260.628 64.39C260.468 64.35 260.338 64.32 260.238 64.31C260.138 64.3 260.008 64.29 259.858 64.29C259.598 64.29 259.368 64.34 259.168 64.45C258.968 64.56 258.808 64.7 258.688 64.88C258.558 65.06 258.468 65.27 258.408 65.51C258.348 65.75 258.318 66.01 258.318 66.27C258.318 66.6 258.358 66.87 258.438 67.1C258.518 67.33 258.628 67.51 258.768 67.64C258.908 67.78 259.068 67.87 259.268 67.93C259.458 67.99 259.668 68.02 259.888 68.02C260.028 68.02 260.148 68.01 260.258 68C260.368 67.99 260.488 67.96 260.628 67.92V64.39V64.39Z" fill="#FF7276"/>
<path d="M266.728 66.72C266.758 67.2 266.928 67.54 267.228 67.76C267.528 67.97 267.928 68.08 268.418 68.08C268.688 68.08 268.968 68.05 269.248 68C269.528 67.95 269.798 67.88 270.058 67.78C270.148 67.94 270.218 68.13 270.288 68.35C270.348 68.57 270.388 68.81 270.398 69.07C269.778 69.31 269.078 69.43 268.298 69.43C267.728 69.43 267.238 69.35 266.828 69.19C266.418 69.03 266.088 68.81 265.828 68.53C265.568 68.25 265.378 67.91 265.258 67.52C265.138 67.13 265.078 66.7 265.078 66.24C265.078 65.79 265.138 65.36 265.268 64.96C265.398 64.56 265.588 64.22 265.838 63.92C266.088 63.63 266.398 63.39 266.768 63.22C267.138 63.05 267.568 62.96 268.068 62.96C268.498 62.96 268.878 63.04 269.218 63.19C269.548 63.34 269.838 63.55 270.068 63.81C270.298 64.07 270.478 64.38 270.598 64.75C270.718 65.11 270.778 65.5 270.778 65.91C270.778 66.06 270.768 66.21 270.758 66.36C270.748 66.51 270.728 66.62 270.718 66.71H266.728V66.72ZM269.148 65.54C269.128 65.16 269.028 64.85 268.828 64.62C268.628 64.39 268.358 64.27 268.008 64.27C267.608 64.27 267.308 64.38 267.098 64.6C266.888 64.82 266.768 65.14 266.728 65.54H269.148Z" fill="#FF7276"/>
<path d="M279.248 62.18H277.108C277.058 61.94 277.038 61.69 277.038 61.43C277.038 61.18 277.058 60.94 277.108 60.7H283.138C283.188 60.94 283.208 61.18 283.208 61.43C283.208 61.69 283.188 61.94 283.138 62.18H280.998V69.28C280.858 69.3 280.708 69.31 280.568 69.32C280.428 69.33 280.288 69.34 280.148 69.34C280.008 69.34 279.868 69.34 279.708 69.33C279.548 69.32 279.398 69.31 279.238 69.28V62.18H279.248Z" fill="#FF7276"/>
<path d="M285.728 60.56C286.018 60.51 286.298 60.49 286.578 60.49C286.848 60.49 287.128 60.51 287.418 60.56V66.83C287.418 67.08 287.428 67.28 287.458 67.43C287.488 67.58 287.528 67.7 287.588 67.78C287.648 67.86 287.728 67.92 287.818 67.95C287.918 67.98 288.038 68 288.178 68C288.238 68 288.308 68 288.388 67.99C288.468 67.98 288.538 67.97 288.608 67.95C288.698 68.28 288.738 68.59 288.738 68.91V69.08C288.738 69.13 288.728 69.19 288.718 69.25C288.588 69.29 288.438 69.32 288.258 69.33C288.078 69.35 287.918 69.35 287.758 69.35C287.148 69.35 286.658 69.18 286.288 68.84C285.918 68.5 285.728 67.95 285.728 67.19V60.56V60.56Z" fill="#FF7276"/>
<path d="M294.148 65.22C294.148 65.03 294.118 64.87 294.048 64.75C293.988 64.63 293.898 64.54 293.788 64.47C293.678 64.4 293.538 64.36 293.378 64.33C293.218 64.31 293.028 64.29 292.838 64.29C292.408 64.29 291.948 64.37 291.468 64.54C291.358 64.33 291.268 64.14 291.218 63.96C291.158 63.78 291.138 63.56 291.138 63.3C291.488 63.18 291.838 63.09 292.188 63.04C292.538 62.98 292.868 62.96 293.168 62.96C293.998 62.96 294.638 63.16 295.108 63.56C295.578 63.96 295.808 64.59 295.808 65.47V69.05C295.528 69.14 295.188 69.22 294.798 69.3C294.398 69.38 293.948 69.42 293.448 69.42C293.048 69.42 292.668 69.38 292.338 69.31C291.998 69.24 291.708 69.12 291.468 68.95C291.228 68.78 291.038 68.57 290.908 68.31C290.778 68.05 290.708 67.73 290.708 67.34C290.708 66.96 290.788 66.64 290.948 66.38C291.108 66.12 291.318 65.91 291.578 65.76C291.838 65.6 292.128 65.49 292.448 65.43C292.768 65.36 293.088 65.33 293.408 65.33C293.638 65.33 293.888 65.34 294.168 65.37V65.22H294.148ZM294.148 66.45C294.048 66.43 293.948 66.42 293.838 66.41C293.728 66.4 293.628 66.39 293.538 66.39C293.148 66.39 292.838 66.46 292.618 66.6C292.388 66.74 292.278 66.96 292.278 67.27C292.278 67.48 292.318 67.64 292.408 67.75C292.498 67.86 292.598 67.94 292.728 67.99C292.848 68.04 292.978 68.07 293.118 68.09C293.258 68.1 293.378 68.11 293.478 68.11C293.598 68.11 293.718 68.1 293.838 68.08C293.958 68.06 294.058 68.04 294.148 68.03V66.45Z" fill="#FF7276"/>
<path d="M302.408 69.33C302.268 69.35 302.128 69.36 301.988 69.38C301.848 69.4 301.678 69.4 301.498 69.4C301.088 69.4 300.698 69.35 300.328 69.24C299.958 69.13 299.618 68.96 299.328 68.71C299.038 68.47 298.808 68.15 298.638 67.76C298.468 67.37 298.378 66.89 298.378 66.32C298.378 65.87 298.458 65.43 298.608 65.03C298.758 64.62 298.988 64.26 299.278 63.96C299.568 63.66 299.938 63.42 300.368 63.24C300.798 63.06 301.288 62.97 301.838 62.97C302.278 62.97 302.678 63 303.038 63.05C303.388 63.1 303.748 63.17 304.098 63.25V72.12C303.958 72.14 303.818 72.16 303.678 72.17C303.538 72.18 303.398 72.18 303.268 72.18C303.128 72.18 302.998 72.18 302.848 72.17C302.708 72.16 302.558 72.15 302.418 72.12L302.408 69.33ZM302.408 64.43C302.228 64.4 302.098 64.38 302.038 64.37C301.978 64.36 301.888 64.36 301.788 64.36C301.248 64.36 300.838 64.54 300.568 64.91C300.288 65.28 300.158 65.75 300.158 66.33C300.158 66.66 300.198 66.93 300.268 67.15C300.348 67.37 300.448 67.54 300.578 67.68C300.708 67.81 300.868 67.9 301.058 67.96C301.248 68.02 301.448 68.04 301.668 68.04C301.798 68.04 301.928 68.03 302.038 68.02C302.148 68.01 302.268 67.98 302.408 67.94V64.43Z" fill="#FF7276"/>
<path d="M307.058 63.11C307.348 63.06 307.628 63.04 307.908 63.04C308.188 63.04 308.468 63.06 308.758 63.11V66.38C308.758 66.71 308.788 66.97 308.838 67.19C308.888 67.4 308.968 67.57 309.078 67.69C309.188 67.81 309.318 67.9 309.478 67.95C309.638 68 309.828 68.03 310.038 68.03C310.328 68.03 310.578 68 310.778 67.95V63.12C311.068 63.07 311.348 63.05 311.618 63.05C311.898 63.05 312.178 63.07 312.468 63.12V69.05C312.218 69.14 311.878 69.22 311.458 69.31C311.038 69.39 310.608 69.44 310.148 69.44C309.738 69.44 309.348 69.41 308.978 69.34C308.608 69.28 308.278 69.14 307.998 68.93C307.718 68.72 307.488 68.42 307.328 68.02C307.158 67.62 307.078 67.09 307.078 66.43V63.11H307.058Z" fill="#FF7276"/>
<path d="M316.778 66.72C316.808 67.2 316.978 67.54 317.278 67.76C317.578 67.97 317.978 68.08 318.468 68.08C318.738 68.08 319.018 68.05 319.298 68C319.578 67.95 319.848 67.88 320.108 67.78C320.198 67.94 320.268 68.13 320.338 68.35C320.398 68.57 320.438 68.81 320.448 69.07C319.828 69.31 319.128 69.43 318.348 69.43C317.778 69.43 317.288 69.35 316.878 69.19C316.468 69.03 316.138 68.81 315.878 68.53C315.618 68.25 315.428 67.91 315.308 67.52C315.188 67.13 315.128 66.7 315.128 66.24C315.128 65.79 315.188 65.36 315.318 64.96C315.448 64.56 315.638 64.22 315.888 63.92C316.138 63.63 316.448 63.39 316.818 63.22C317.188 63.05 317.618 62.96 318.118 62.96C318.548 62.96 318.928 63.04 319.268 63.19C319.598 63.34 319.888 63.55 320.118 63.81C320.348 64.07 320.528 64.38 320.648 64.75C320.768 65.11 320.828 65.5 320.828 65.91C320.828 66.06 320.818 66.21 320.808 66.36C320.798 66.51 320.778 66.62 320.768 66.71H316.778V66.72ZM319.198 65.54C319.178 65.16 319.078 64.85 318.878 64.62C318.678 64.39 318.408 64.27 318.058 64.27C317.658 64.27 317.358 64.38 317.148 64.6C316.938 64.82 316.818 65.14 316.778 65.54H319.198Z" fill="#FF7276"/>
<path d="M323.528 63.1C323.638 63.08 323.748 63.06 323.858 63.05C323.968 63.04 324.088 63.04 324.218 63.04C324.438 63.04 324.668 63.06 324.898 63.11C324.918 63.15 324.948 63.21 324.968 63.28C324.988 63.36 325.008 63.44 325.028 63.52C325.048 63.6 325.068 63.69 325.078 63.78C325.088 63.86 325.098 63.93 325.108 63.99C325.178 63.86 325.268 63.74 325.368 63.61C325.468 63.49 325.598 63.38 325.748 63.28C325.898 63.18 326.058 63.11 326.248 63.05C326.428 62.99 326.638 62.96 326.858 62.96C327.198 62.96 327.518 63.02 327.818 63.15C328.118 63.28 328.378 63.47 328.598 63.73C328.818 63.99 328.998 64.31 329.118 64.7C329.238 65.09 329.298 65.55 329.298 66.08C329.298 66.6 329.218 67.06 329.068 67.47C328.918 67.88 328.698 68.23 328.408 68.51C328.118 68.8 327.768 69.02 327.358 69.17C326.948 69.33 326.478 69.4 325.948 69.4C325.808 69.4 325.678 69.39 325.548 69.38C325.418 69.37 325.308 69.35 325.218 69.34V72.08C325.068 72.1 324.918 72.12 324.778 72.13C324.638 72.14 324.498 72.14 324.368 72.14C324.238 72.14 324.098 72.14 323.958 72.13C323.818 72.12 323.678 72.11 323.518 72.08V63.1H323.528ZM325.228 67.97C325.448 68.03 325.688 68.07 325.968 68.07C326.458 68.07 326.838 67.91 327.098 67.59C327.358 67.27 327.488 66.79 327.488 66.15C327.488 65.9 327.468 65.67 327.428 65.46C327.388 65.25 327.318 65.07 327.228 64.92C327.138 64.77 327.008 64.65 326.868 64.56C326.718 64.47 326.538 64.43 326.328 64.43C326.128 64.43 325.958 64.47 325.818 64.54C325.678 64.62 325.568 64.72 325.478 64.85C325.388 64.98 325.328 65.14 325.288 65.31C325.248 65.49 325.228 65.67 325.228 65.87V67.97Z" fill="#FF7276"/>
<path d="M335.128 65.22C335.128 65.03 335.098 64.87 335.028 64.75C334.968 64.63 334.878 64.54 334.768 64.47C334.658 64.4 334.518 64.36 334.358 64.33C334.198 64.31 334.008 64.29 333.818 64.29C333.388 64.29 332.928 64.37 332.448 64.54C332.338 64.33 332.248 64.14 332.198 63.96C332.138 63.78 332.118 63.56 332.118 63.3C332.468 63.18 332.818 63.09 333.168 63.04C333.518 62.98 333.848 62.96 334.148 62.96C334.978 62.96 335.618 63.16 336.088 63.56C336.558 63.96 336.788 64.59 336.788 65.47V69.05C336.508 69.14 336.168 69.22 335.778 69.3C335.378 69.38 334.928 69.42 334.428 69.42C334.028 69.42 333.648 69.38 333.318 69.31C332.978 69.24 332.688 69.12 332.448 68.95C332.208 68.78 332.018 68.57 331.888 68.31C331.758 68.05 331.688 67.73 331.688 67.34C331.688 66.96 331.768 66.64 331.928 66.38C332.088 66.12 332.298 65.91 332.558 65.76C332.818 65.6 333.108 65.49 333.428 65.43C333.748 65.36 334.068 65.33 334.388 65.33C334.618 65.33 334.868 65.34 335.148 65.37V65.22H335.128ZM335.128 66.45C335.028 66.43 334.928 66.42 334.818 66.41C334.708 66.4 334.608 66.39 334.518 66.39C334.128 66.39 333.818 66.46 333.598 66.6C333.368 66.74 333.258 66.96 333.258 67.27C333.258 67.48 333.298 67.64 333.388 67.75C333.478 67.86 333.578 67.94 333.708 67.99C333.828 68.04 333.958 68.07 334.098 68.09C334.238 68.1 334.358 68.11 334.458 68.11C334.578 68.11 334.698 68.1 334.818 68.08C334.938 68.06 335.038 68.04 335.128 68.03V66.45Z" fill="#FF7276"/>
<path d="M343.388 69.33C343.248 69.35 343.108 69.36 342.968 69.38C342.828 69.4 342.658 69.4 342.478 69.4C342.068 69.4 341.678 69.35 341.308 69.24C340.938 69.13 340.598 68.96 340.308 68.71C340.018 68.47 339.788 68.15 339.618 67.76C339.448 67.37 339.358 66.89 339.358 66.32C339.358 65.87 339.438 65.43 339.588 65.03C339.738 64.62 339.968 64.26 340.258 63.96C340.548 63.66 340.918 63.42 341.348 63.24C341.778 63.06 342.268 62.97 342.818 62.97C343.258 62.97 343.658 63 344.018 63.05C344.368 63.1 344.728 63.17 345.078 63.25V72.12C344.938 72.14 344.798 72.16 344.658 72.17C344.518 72.18 344.378 72.18 344.248 72.18C344.108 72.18 343.978 72.18 343.828 72.17C343.688 72.16 343.538 72.15 343.398 72.12L343.388 69.33ZM343.388 64.43C343.208 64.4 343.078 64.38 343.018 64.37C342.958 64.36 342.868 64.36 342.768 64.36C342.228 64.36 341.818 64.54 341.548 64.91C341.268 65.28 341.138 65.75 341.138 66.33C341.138 66.66 341.178 66.93 341.248 67.15C341.328 67.37 341.428 67.54 341.558 67.68C341.688 67.81 341.848 67.9 342.038 67.96C342.228 68.02 342.428 68.04 342.648 68.04C342.778 68.04 342.908 68.03 343.018 68.02C343.128 68.01 343.248 67.98 343.388 67.94V64.43Z" fill="#FF7276"/>
<path d="M348.038 63.11C348.328 63.06 348.608 63.04 348.888 63.04C349.168 63.04 349.448 63.06 349.738 63.11V66.38C349.738 66.71 349.768 66.97 349.818 67.19C349.868 67.4 349.948 67.57 350.058 67.69C350.168 67.81 350.298 67.9 350.458 67.95C350.618 68 350.808 68.03 351.018 68.03C351.308 68.03 351.558 68 351.758 67.95V63.12C352.048 63.07 352.318 63.05 352.598 63.05C352.878 63.05 353.158 63.07 353.448 63.12V69.05C353.198 69.14 352.858 69.22 352.438 69.31C352.018 69.39 351.588 69.44 351.128 69.44C350.728 69.44 350.328 69.41 349.958 69.34C349.588 69.28 349.258 69.14 348.978 68.93C348.698 68.72 348.468 68.42 348.308 68.02C348.138 67.62 348.058 67.09 348.058 66.43V63.11H348.038Z" fill="#FF7276"/>
<path d="M357.758 66.72C357.788 67.2 357.958 67.54 358.258 67.76C358.558 67.97 358.958 68.08 359.448 68.08C359.718 68.08 359.998 68.05 360.278 68C360.558 67.95 360.828 67.88 361.088 67.78C361.178 67.94 361.248 68.13 361.318 68.35C361.378 68.57 361.418 68.81 361.428 69.07C360.808 69.31 360.108 69.43 359.328 69.43C358.758 69.43 358.268 69.35 357.858 69.19C357.448 69.03 357.118 68.81 356.858 68.53C356.598 68.25 356.408 67.91 356.288 67.52C356.168 67.13 356.108 66.7 356.108 66.24C356.108 65.79 356.168 65.36 356.298 64.96C356.428 64.56 356.618 64.22 356.868 63.92C357.118 63.63 357.428 63.39 357.798 63.22C358.168 63.05 358.598 62.96 359.098 62.96C359.528 62.96 359.908 63.04 360.248 63.19C360.578 63.34 360.868 63.55 361.098 63.81C361.328 64.07 361.508 64.38 361.628 64.75C361.748 65.11 361.808 65.5 361.808 65.91C361.808 66.06 361.798 66.21 361.788 66.36C361.778 66.51 361.758 66.62 361.748 66.71H357.758V66.72ZM360.178 65.54C360.158 65.16 360.058 64.85 359.858 64.62C359.658 64.39 359.388 64.27 359.038 64.27C358.638 64.27 358.338 64.38 358.128 64.6C357.918 64.82 357.798 65.14 357.758 65.54H360.178Z" fill="#FF7276"/>
</svg>
