<svg viewBox="0 0 309 165" fill="none" xmlns="http://www.w3.org/2000/svg">
<path d="M144.28 17.9901C150.993 16.7944 157.867 16.8215 164.57 18.0701L167.11 7.57014C167.329 6.66518 167.339 5.72229 167.139 4.81301C166.939 3.90373 166.534 3.05195 165.956 2.32232C165.377 1.59269 164.641 1.00438 163.801 0.602016C162.961 0.199655 162.041 -0.00617256 161.11 0.000140974H147.75C146.819 -0.00617256 145.899 0.199655 145.059 0.602016C144.22 1.00438 143.483 1.59269 142.905 2.32232C142.326 3.05195 141.922 3.90373 141.722 4.81301C141.522 5.72229 141.531 6.66518 141.75 7.57014L144.28 17.9901Z" fill="#FF9536"/>
<path d="M124.8 25.6502C130.721 21.8306 137.343 19.2267 144.28 17.9902L141.78 7.62016C141.561 6.71951 141.14 5.88035 140.549 5.16582C139.959 4.4513 139.214 3.88002 138.37 3.49498C137.527 3.10993 136.608 2.92116 135.681 2.94284C134.754 2.96452 133.844 3.1961 133.02 3.62016L121.08 9.75017C120.255 10.174 119.536 10.7797 118.979 11.5216C118.421 12.2635 118.039 13.1223 117.862 14.0332C117.685 14.9441 117.717 15.8834 117.956 16.7802C118.194 17.6769 118.634 18.5078 119.24 19.2102L124.8 25.6502Z" fill="#FF5561"/>
<path d="M183.99 25.8302L189.7 19.2102C190.307 18.5078 190.746 17.6769 190.984 16.7802C191.223 15.8834 191.255 14.9441 191.078 14.0332C190.901 13.1223 190.519 12.2635 189.962 11.5216C189.404 10.7796 188.686 10.174 187.86 9.75016L175.92 3.61016C175.096 3.1861 174.186 2.95451 173.259 2.93283C172.333 2.91115 171.413 3.09993 170.57 3.48498C169.726 3.87002 168.982 4.4413 168.391 5.15582C167.8 5.87035 167.38 6.70951 167.16 7.61016L164.62 18.1102C171.524 19.3724 178.108 21.9931 183.99 25.8202" fill="#FF5561"/>
<path d="M214.8 57.9101L212.8 44.6301C212.665 43.7123 212.323 42.8372 211.8 42.0708C211.278 41.3043 210.588 40.6664 209.783 40.2052C208.978 39.744 208.079 39.4716 207.153 39.4083C206.228 39.3451 205.3 39.4927 204.44 39.8401L199.17 41.9901C202 47.0962 203.666 52.7647 204.05 58.5901C204.1 59.4201 204.14 60.2501 204.14 61.0901C204.14 62.2501 204.07 63.4001 203.97 64.5401L208.19 64.9201C209.114 65.0042 210.045 64.8775 210.912 64.5497C211.78 64.2218 212.562 63.7013 213.199 63.0273C213.837 62.3534 214.313 61.5435 214.592 60.6589C214.871 59.7742 214.945 58.8377 214.81 57.9201" fill="#FF5561"/>
<path d="M104.4 61.0801C104.4 60.3501 104.4 59.6301 104.46 58.9201C104.811 52.9246 106.521 47.0875 109.46 41.8501L104.46 39.8501C103.6 39.5027 102.672 39.3551 101.746 39.4183C100.821 39.4816 99.9218 39.7541 99.1169 40.2152C98.312 40.6764 97.6222 41.3143 97.0996 42.0808C96.577 42.8472 96.2352 43.7223 96.0999 44.6401L94.0999 57.9201C93.9644 58.8377 94.039 59.7742 94.318 60.6589C94.5969 61.5435 95.073 62.3534 95.7104 63.0273C96.3478 63.7013 97.1298 64.2218 97.9975 64.5497C98.8653 64.8775 99.7961 65.0042 100.72 64.9201L104.53 64.5701C104.43 63.4201 104.36 62.2601 104.36 61.0801" fill="#FF5561"/>
<path d="M109.44 41.8301C113.153 35.2629 118.425 29.7098 124.79 25.6601L119.23 19.2201C118.624 18.5189 117.866 17.9644 117.015 17.5983C116.163 17.2321 115.239 17.0639 114.313 17.1063C113.387 17.1486 112.483 17.4004 111.668 17.8428C110.854 18.2851 110.15 18.9065 109.61 19.6601L101.79 30.5801C101.251 31.3344 100.889 32.2013 100.733 33.1156C100.577 34.0298 100.631 34.9675 100.89 35.858C101.149 36.7486 101.606 37.5687 102.228 38.2568C102.85 38.9448 103.62 39.4827 104.48 39.8301L109.44 41.8301Z" fill="#6FD5CA"/>
<path d="M207.16 30.5701L199.34 19.6501C198.8 18.8965 198.096 18.2751 197.282 17.8328C196.467 17.3904 195.563 17.1386 194.637 17.0962C193.711 17.0539 192.787 17.2221 191.936 17.5883C191.084 17.9544 190.326 18.5089 189.72 19.2101L184.01 25.8301C190.304 29.8985 195.506 35.4469 199.16 41.9901L204.47 39.8401C205.33 39.4927 206.1 38.9548 206.722 38.2667C207.344 37.5787 207.801 36.7586 208.06 35.868C208.319 34.9775 208.373 34.0398 208.217 33.1256C208.061 32.2113 207.7 31.3444 207.16 30.5901" fill="#6FD5CA"/>
<path d="M204.05 58.5801C192.683 58.2218 181.658 54.6126 172.28 48.1801C174.71 46.7701 177.04 44.1101 178.92 42.1801C179.574 41.5162 180.139 40.7699 180.6 39.9601C180.6 39.9601 179.86 40.6201 178.6 41.6201C177.002 42.9098 175.333 44.1084 173.6 45.2101C172.6 45.8701 171.55 46.4501 170.6 46.9601C151.84 56.7301 128.76 61.3501 104.42 58.9601C104.42 59.6801 104.36 60.4001 104.36 61.1201C104.36 85.3801 126.69 105.04 154.23 105.04C181.77 105.04 204.1 85.3801 204.1 61.1201C204.1 60.2801 204.1 59.4501 204.01 58.6201" fill="#F4C3A2"/>
<path d="M170.64 46.9901C171.57 46.4801 172.58 45.8901 173.64 45.2401C175.373 44.1386 177.042 42.94 178.64 41.6501C179.88 40.6501 180.64 39.9901 180.64 39.9901C180.179 40.7999 179.614 41.5462 178.96 42.2101C177.08 44.1501 174.75 46.8001 172.32 48.2101C181.687 54.6353 192.697 58.2442 204.05 58.6101C202.58 35.5201 180.86 17.1901 154.27 17.1901C127.68 17.1901 105.74 35.7001 104.46 58.9501C128.8 61.3701 151.88 56.7501 170.64 46.9501" fill="#FFA600"/>
<path d="M127.65 84.1701C127.65 86.1701 125.34 87.7001 122.49 87.7001C119.64 87.7001 117.33 86.1201 117.33 84.1701C117.33 82.2201 119.64 80.6401 122.49 80.6401C125.34 80.6401 127.65 82.2201 127.65 84.1701Z" fill="#FF5561"/>
<path d="M191.19 84.1701C191.19 86.1701 188.88 87.7001 186.03 87.7001C183.18 87.7001 180.87 86.1201 180.87 84.1701C180.87 82.2201 183.18 80.6401 186.03 80.6401C188.88 80.6401 191.19 82.2201 191.19 84.1701Z" fill="#FF5561"/>
<path d="M131.88 68.61C131.88 72.17 130.81 75.05 129.5 75.05C128.19 75.05 127.12 72.17 127.12 68.61C127.12 65.05 128.19 62.17 129.5 62.17C130.81 62.17 131.88 65.05 131.88 68.61Z" fill="#231010"/>
<path d="M181.4 68.61C181.4 72.17 180.33 75.05 179.02 75.05C177.71 75.05 176.64 72.17 176.64 68.61C176.64 65.05 177.71 62.17 179.02 62.17C180.33 62.17 181.4 65.05 181.4 68.61Z" fill="#231010"/>
<path d="M154.28 82.0601C151.114 82.0818 148.002 81.2381 145.28 79.6201C145.035 79.4669 144.833 79.2529 144.694 78.9989C144.556 78.7449 144.486 78.4594 144.49 78.1701C144.487 77.8813 144.559 77.5966 144.697 77.3432C144.836 77.0898 145.037 76.8762 145.282 76.7228C145.527 76.5693 145.807 76.4811 146.095 76.4667C146.384 76.4522 146.671 76.5119 146.93 76.6401C149.194 77.8051 151.704 78.4128 154.25 78.4128C156.796 78.4128 159.306 77.8051 161.57 76.6401C161.968 76.4213 162.436 76.3695 162.872 76.4961C163.308 76.6227 163.676 76.9173 163.895 77.3151C164.114 77.713 164.166 78.1814 164.039 78.6174C163.912 79.0535 163.618 79.4213 163.22 79.6401C160.501 81.2643 157.387 82.1085 154.22 82.0801" fill="#FF5561"/>
<path d="M130.95 65.6101C130.95 64.5501 130.63 63.7001 130.23 63.7001C129.83 63.7001 129.51 64.5601 129.51 65.6101C129.51 66.6601 129.83 67.5201 130.23 67.5201C130.63 67.5201 130.95 66.6601 130.95 65.6101Z" fill="white"/>
<path d="M180.47 65.6101C180.47 64.5501 180.15 63.7001 179.75 63.7001C179.35 63.7001 179.03 64.5601 179.03 65.6101C179.03 66.6601 179.35 67.5201 179.75 67.5201C180.15 67.5201 180.47 66.6601 180.47 65.6101Z" fill="white"/>
<path d="M103.86 135.58L102 141.3H91.33C91.33 141.3 93.47 140.84 93.94 139.4L94.35 138.13C94.73 136.97 93.41 136.13 91.83 136.62L88.89 137.45C88.5285 137.557 88.1744 137.687 87.83 137.84L86.71 141.28L86.14 143.02L79 164.95H70.28L80.28 134.28C80.75 132.84 78.91 132.38 78.91 132.38H89.57L88.93 134.38C90.31 133.84 91.71 133.32 93.11 132.91C95.4873 132.194 97.9709 131.896 100.45 132.03C102.91 132.19 104.45 133.7 103.82 135.64" fill="white"/>
<path d="M77.2901 148.86L72.6001 163.29H77.8101L82.5101 148.86H77.2901Z" fill="white"/>
<path d="M137.1 124.75H128.43L125.11 134.94C124.288 134.792 123.455 134.718 122.62 134.72H119.05C112.74 134.72 106.37 138.55 104.83 143.28L100.58 156.28C99.0401 161.01 102.91 164.84 109.22 164.84H112.79C113.671 164.837 114.551 164.764 115.42 164.62L115.33 164.91H124L126.3 157.85C126.59 157.356 126.827 156.833 127.01 156.29L131.26 143.29C131.425 142.784 131.529 142.261 131.57 141.73L135.69 129.08C136.95 125.22 139.08 124.76 139.08 124.76L137.1 124.75ZM120.95 143.75L116.95 155.96C115.74 159.68 113.1 163.61 111.42 163.61C109.74 163.61 109.65 159.69 110.87 155.96L114.87 143.75C115.99 140.3 118.75 136.03 120.43 136.03C122.11 136.03 122.11 140.22 120.96 143.75" fill="white"/>
<path d="M121.01 148.86L118.54 156.45C117.762 158.841 116.567 161.076 115.01 163.05L117.84 162.59L117.61 163.29H122.82L124.82 157.2L124.9 157.05C125.132 156.654 125.323 156.235 125.47 155.8L127.73 148.85L121.01 148.86Z" fill="white"/>
<path d="M111.46 148.86H104.75L102.16 156.86C101.923 157.487 101.844 158.162 101.93 158.826C102.015 159.491 102.263 160.124 102.65 160.67C103.77 162.21 106.05 163.16 108.81 163.25C108.02 161.15 108.54 157.87 109.32 155.46L111.46 148.86Z" fill="white"/>
<path d="M31.56 124.82C22.41 124.82 13.19 130.37 10.96 137.22L5.96 152.54C5.52581 153.738 5.37391 155.02 5.51614 156.286C5.65836 157.552 6.09087 158.768 6.78 159.84C4.36804 161.328 2.09843 163.035 0 164.94H3.2C4.74657 163.656 6.37684 162.477 8.08 161.41C10.35 163.59 13.99 164.94 18.49 164.94C27.64 164.94 36.86 159.39 39.09 152.54L41.18 146.11L36.04 147.72C33.24 148.5 28.52 149.91 23.16 151.95C20.6333 152.91 18.2633 153.91 16.05 154.95L24.05 130.4C24.82 128.04 27.99 126.14 31.14 126.14C34.29 126.14 36.22 128.05 35.45 130.4L32.67 138.93C31.8 141.62 26.74 141.6 26.74 141.6H42.67L44.09 137.25C46.32 130.4 40.71 124.85 31.57 124.85M28.37 152.17L26.01 159.41C25.24 161.77 22.07 163.68 18.92 163.68C15.77 163.68 13.84 161.77 14.61 159.41L15.23 157.51C19.5011 155.473 23.8887 153.69 28.37 152.17" fill="white"/>
<path d="M37.91 148.86L36.49 149.3C34.9 149.74 32.82 150.35 30.42 151.13L27.57 159.89C27.3369 160.618 26.9707 161.296 26.49 161.89C31.8 159.96 36.17 156.28 37.49 152.07L38.49 148.9L37.91 148.86Z" fill="white"/>
<path d="M13.0401 158.87L16.3001 148.87H8.90012L7.54012 153.06C7.18658 154.025 7.06041 155.058 7.17141 156.08C7.28242 157.102 7.6276 158.084 8.18012 158.95L8.65012 159.67L9.24013 160.23C10.4191 161.317 11.8322 162.117 13.3701 162.57C13.0611 162.014 12.8737 161.398 12.8202 160.763C12.7668 160.129 12.8486 159.491 13.0601 158.89" fill="white"/>
<path d="M65.2202 132.36H61.6502C55.3402 132.36 48.9702 136.19 47.4302 140.92L42.4302 156.38C40.8902 161.11 44.7602 164.94 51.0702 164.94H54.6402C60.9502 164.94 67.3202 161.11 68.8602 156.38L73.8602 140.92C75.4002 136.19 71.5302 132.36 65.2202 132.36ZM63.5502 141.36L58.7802 155.99C57.5702 159.71 54.9302 163.64 53.2502 163.64C51.5702 163.64 51.4802 159.72 52.7002 155.99L57.4602 141.36C58.5802 137.91 61.3402 133.64 63.0202 133.64C64.7002 133.64 64.7002 137.83 63.5502 141.36" fill="white"/>
<path d="M62.8401 148.86L60.3501 156.51C59.5724 158.901 58.3773 161.136 56.8201 163.11C61.6201 162.37 66.1301 159.35 67.2701 155.86L69.5501 148.86H62.8401Z" fill="white"/>
<path d="M53.2801 148.86H46.5801L43.9701 156.86C43.7335 157.487 43.6545 158.162 43.74 158.826C43.8254 159.491 44.0727 160.124 44.4601 160.67C45.5801 162.21 47.8601 163.16 50.6201 163.25C49.8301 161.15 50.3501 157.87 51.1301 155.46L53.2801 148.86Z" fill="white"/>
<path d="M233.48 127.71C234.01 126.08 236.21 124.71 238.39 124.71C240.57 124.71 241.91 126.03 241.39 127.71C240.87 129.39 238.66 130.71 236.48 130.71C234.3 130.71 232.96 129.39 233.48 127.71Z" fill="white"/>
<path d="M240.4 132.58H242.4C242.4 132.58 240.26 133.04 239.01 136.9L237.96 140.13L229.88 164.94H219.2C219.2 164.94 221.34 164.48 222.59 160.62L223.14 158.94L231.72 132.58H240.4Z" fill="white"/>
<path d="M228.15 148.86L225.4 157.29L224.15 161.12C223.911 161.869 223.6 162.592 223.22 163.28H228.66L233.36 148.85L228.15 148.86Z" fill="white"/>
<path d="M260.75 132.36H257.18C250.87 132.36 244.5 136.19 242.96 140.92L241.8 144.47H253.98C253.98 144.47 252.26 144.04 253.29 140.47C254.56 137.16 256.99 133.62 258.54 133.62C260.09 133.62 260.19 137.89 259.07 141.34L257.53 146.08C257.035 146.028 256.538 146.001 256.04 146H252.48C246.17 146 239.8 149.83 238.26 154.56L237.68 156.35C236.14 161.08 240.01 164.91 246.32 164.91H250.14C253.11 164.882 256.024 164.101 258.61 162.64C259.286 163.637 260.229 164.423 261.33 164.91L263.96 157.34C264.116 157.016 264.249 156.682 264.36 156.34L269.36 140.88C270.9 136.15 267.03 132.32 260.72 132.32M254.37 154.99L254.05 155.99C252.84 159.71 250.2 163.64 248.52 163.64C246.84 163.64 246.75 159.72 247.97 155.99L248.26 155.11V155.02C249.38 151.57 252.14 147.3 253.82 147.3C255.5 147.3 255.5 151.49 254.35 155.02" fill="white"/>
<path d="M256.71 148.86C256.934 151.116 256.671 153.394 255.94 155.54L255.62 156.54C254.84 158.952 253.635 161.204 252.06 163.19C254.081 162.915 256.032 162.26 257.81 161.26L259.21 160.47L260.03 161.85C260.156 162.058 260.308 162.249 260.48 162.42L262.48 156.77V156.69C262.604 156.437 262.71 156.177 262.8 155.91L265.08 148.91L256.71 148.86Z" fill="white"/>
<path d="M154.98 132.36H151.41C145.1 132.36 138.73 136.19 137.19 140.92L132.19 156.38C130.65 161.11 134.52 164.94 140.83 164.94H144.4C150.71 164.94 157.08 161.11 158.62 156.38L159.14 154.77H146.94C146.94 154.77 148.78 155.23 148.31 156.67L148.2 157C146.88 160.39 144.56 163.65 143.03 163.65C141.35 163.65 141.26 159.73 142.48 156L143.84 151.81H160.1L163.65 140.92C165.19 136.19 161.32 132.36 155.01 132.36M153.34 141.36L150.34 150.52H144.28L147.28 141.36C148.4 137.91 151.16 133.64 152.84 133.64C154.52 133.64 154.52 137.83 153.37 141.36" fill="white"/>
<path d="M143.04 148.86H136.33L133.72 156.86C133.484 157.487 133.405 158.162 133.49 158.826C133.575 159.491 133.823 160.124 134.21 160.67C135.33 162.21 137.61 163.16 140.37 163.25C139.58 161.15 140.1 157.87 140.88 155.46L143.04 148.86Z" fill="white"/>
<path d="M149.85 157.18L149.71 157.6C148.951 159.589 147.892 161.451 146.57 163.12C151.12 162.42 155.41 159.68 156.82 156.42H150.01C149.991 156.679 149.941 156.934 149.86 157.18" fill="white"/>
<path d="M152.59 148.86L152.17 150.17H158.88L159.3 148.86H152.59Z" fill="white"/>
<path d="M296.28 156.38C294.74 161.1 288.38 164.93 282.07 164.93H278.48C272.79 164.93 269.1 161.81 269.55 157.74C269.55 156.08 268.55 155.83 268.55 155.83H280.24V155.97C279.09 159.5 279.09 163.69 280.77 163.69C282.45 163.69 285.2 159.42 286.33 155.97C288.49 149.32 287.19 149.16 285.5 149.16H283.72C282.318 149.175 280.922 148.959 279.59 148.52C275.85 147.24 273.91 144.18 275.07 140.61C276.61 135.89 282.97 132.06 289.28 132.06H292.85C298.12 132.06 301.67 134.74 301.85 138.37C301.85 140.03 302.85 140.28 302.85 140.28H291.28C292.19 136.94 292.08 133.33 290.52 133.33C288.96 133.33 286.09 137.6 284.96 141.05C282.8 147.7 284.1 147.86 285.79 147.86H287.57C288.973 147.845 290.368 148.062 291.7 148.5C295.44 149.78 297.38 152.84 296.22 156.41" fill="white"/>
<path d="M291.21 149.99C290.442 149.732 289.647 149.564 288.84 149.49C289.27 150.85 288.94 152.9 287.84 156.39C287.019 158.81 285.792 161.073 284.21 163.08C289.03 162.36 293.59 159.33 294.73 155.83C295.73 152.74 293.59 150.83 291.25 149.99" fill="white"/>
<path d="M278.06 157.43H271.17V157.66V157.88C271.097 158.443 271.149 159.015 271.322 159.556C271.495 160.097 271.784 160.593 272.17 161.01C272.957 161.754 273.884 162.334 274.896 162.717C275.909 163.099 276.988 163.277 278.07 163.24C277.572 161.322 277.572 159.308 278.07 157.39" fill="white"/>
<path d="M246.64 148.86C243.36 150.19 240.64 152.51 239.83 155.1L239.25 156.89C239.013 157.517 238.934 158.192 239.02 158.856C239.105 159.521 239.352 160.154 239.74 160.7C240.86 162.24 243.14 163.19 245.9 163.28C245.11 161.18 245.63 157.9 246.41 155.49L246.69 154.62V154.7L246.75 154.52C247.44 152.51 248.399 150.603 249.6 148.85L246.64 148.86Z" fill="white"/>
<path d="M180.79 129.07L179.74 132.3L169.11 164.93H158.45C158.45 164.93 160.59 164.47 161.84 160.61L162.39 158.93L173.52 124.75H184.18C184.18 124.75 182.04 125.21 180.79 129.07" fill="white"/>
<path d="M167.41 148.86L164.66 157.29L163.41 161.12C163.171 161.869 162.859 162.592 162.48 163.28H167.92L172.62 148.85L167.41 148.86Z" fill="white"/>
<path d="M194 132.58H196C196 132.58 193.86 133.04 192.61 136.9L191.56 140.13L183.48 164.94H172.81C172.81 164.94 174.95 164.48 176.2 160.62L176.75 158.94L185.28 132.58H194Z" fill="white"/>
<path d="M187.48 127.71C188.01 126.08 190.21 124.71 192.39 124.71C194.57 124.71 195.91 126.03 195.39 127.71C194.87 129.39 192.66 130.71 190.48 130.71C188.3 130.71 186.96 129.39 187.48 127.71Z" fill="white"/>
<path d="M181.76 148.86L179.01 157.29L177.76 161.12C177.522 161.869 177.21 162.592 176.83 163.28H182.28L186.98 148.85L181.76 148.86Z" fill="white"/>
<path d="M223.42 140.92L221.42 147.16H209.28C209.28 147.16 211.28 146.73 212.52 143.28L213.1 141.35C214.25 137.82 214.25 133.63 212.57 133.63C210.89 133.63 208.14 137.9 207.01 141.35L202.28 155.99C201.06 159.72 201.15 163.64 202.83 163.64C204.51 163.64 207.15 159.71 208.36 155.99L209.01 153.99C210.01 150.54 208.3 150.11 208.3 150.11H220.44L218.44 156.36C216.9 161.09 210.54 164.92 204.22 164.92H200.65C194.34 164.92 190.47 161.09 192.01 156.36L197.01 140.9C198.55 136.17 204.91 132.34 211.23 132.34H214.8C221.11 132.34 224.98 136.17 223.44 140.9" fill="white"/>
<path d="M202.84 148.86H196.13L193.52 156.86C193.283 157.487 193.204 158.162 193.29 158.826C193.375 159.491 193.622 160.124 194.01 160.67C195.13 162.21 197.41 163.16 200.17 163.25C199.38 161.15 199.9 157.87 200.68 155.46L202.84 148.86Z" fill="white"/>
<path d="M210.55 154.52L209.9 156.52C209.123 158.911 207.927 161.146 206.37 163.12C211.17 162.38 215.68 159.36 216.82 155.87L218.15 151.78H210.92C210.948 152.708 210.823 153.633 210.55 154.52" fill="white"/>
<path d="M304.74 130.2H304.28V131.5H303.11V127.25H304.95C305.154 127.236 305.359 127.265 305.552 127.334C305.744 127.404 305.921 127.512 306.069 127.653C306.218 127.794 306.335 127.965 306.415 128.153C306.494 128.342 306.533 128.545 306.53 128.75C306.534 128.993 306.473 129.232 306.353 129.443C306.234 129.654 306.06 129.829 305.85 129.95L306.69 131.5H305.38L304.74 130.2ZM304.31 129.2H304.84C304.9 129.2 304.96 129.188 305.016 129.165C305.072 129.142 305.122 129.108 305.165 129.065C305.208 129.023 305.242 128.972 305.265 128.916C305.288 128.86 305.3 128.801 305.3 128.74C305.3 128.68 305.288 128.62 305.265 128.564C305.242 128.508 305.208 128.458 305.165 128.415C305.122 128.372 305.072 128.338 305.016 128.315C304.96 128.292 304.9 128.28 304.84 128.28H304.28L304.31 129.2Z" fill="white"/>
<path d="M304.67 133.65C303.828 133.65 303.004 133.4 302.303 132.932C301.603 132.464 301.057 131.799 300.734 131.02C300.412 130.242 300.328 129.385 300.492 128.559C300.656 127.733 301.062 126.974 301.658 126.378C302.254 125.782 303.013 125.376 303.839 125.212C304.665 125.048 305.522 125.132 306.3 125.454C307.079 125.777 307.744 126.323 308.212 127.023C308.68 127.724 308.93 128.548 308.93 129.39C308.928 130.519 308.478 131.601 307.68 132.399C306.881 133.198 305.799 133.647 304.67 133.65ZM304.67 125.98C303.996 125.98 303.336 126.18 302.776 126.555C302.215 126.93 301.778 127.462 301.52 128.085C301.262 128.708 301.194 129.394 301.326 130.055C301.457 130.717 301.782 131.324 302.259 131.801C302.736 132.278 303.343 132.603 304.005 132.735C304.666 132.866 305.352 132.799 305.975 132.541C306.598 132.282 307.131 131.845 307.505 131.285C307.88 130.724 308.08 130.065 308.08 129.39C308.078 128.487 307.717 127.621 307.078 126.982C306.44 126.343 305.574 125.983 304.67 125.98" fill="white"/>
</svg>
