<svg width="309" height="188" viewBox="0 0 309 188" fill="none" xmlns="http://www.w3.org/2000/svg">
<path d="M144.28 17.9901C150.993 16.7944 157.867 16.8215 164.57 18.0701L167.11 7.57014C167.329 6.66518 167.339 5.72229 167.139 4.81301C166.939 3.90373 166.534 3.05195 165.956 2.32232C165.377 1.59269 164.641 1.00438 163.801 0.602016C162.961 0.199655 162.041 -0.00617256 161.11 0.000140974H147.75C146.819 -0.00617256 145.899 0.199655 145.059 0.602016C144.22 1.00438 143.483 1.59269 142.905 2.32232C142.326 3.05195 141.922 3.90373 141.722 4.81301C141.522 5.72229 141.531 6.66518 141.75 7.57014L144.28 17.9901Z" fill="#FF9536"/>
<path d="M124.8 25.6502C130.721 21.8306 137.343 19.2267 144.28 17.9902L141.78 7.62016C141.561 6.71951 141.14 5.88035 140.549 5.16582C139.959 4.4513 139.214 3.88002 138.37 3.49498C137.527 3.10993 136.608 2.92116 135.681 2.94284C134.754 2.96452 133.844 3.1961 133.02 3.62016L121.08 9.75017C120.255 10.174 119.536 10.7797 118.979 11.5216C118.421 12.2635 118.039 13.1223 117.862 14.0332C117.685 14.9441 117.717 15.8834 117.956 16.7802C118.194 17.6769 118.634 18.5078 119.24 19.2102L124.8 25.6502Z" fill="#FF5561"/>
<path d="M183.99 25.8302L189.7 19.2102C190.307 18.5078 190.746 17.6769 190.984 16.7802C191.223 15.8834 191.255 14.9441 191.078 14.0332C190.901 13.1223 190.519 12.2635 189.962 11.5216C189.404 10.7796 188.686 10.174 187.86 9.75016L175.92 3.61016C175.096 3.1861 174.186 2.95451 173.259 2.93283C172.333 2.91115 171.413 3.09993 170.57 3.48498C169.726 3.87002 168.982 4.4413 168.391 5.15582C167.8 5.87035 167.38 6.70951 167.16 7.61016L164.62 18.1102C171.524 19.3724 178.108 21.9931 183.99 25.8202" fill="#FF5561"/>
<path d="M214.8 57.9101L212.8 44.6301C212.665 43.7123 212.323 42.8372 211.8 42.0708C211.278 41.3043 210.588 40.6664 209.783 40.2052C208.978 39.744 208.079 39.4716 207.153 39.4083C206.228 39.3451 205.3 39.4927 204.44 39.8401L199.17 41.9901C202 47.0962 203.666 52.7647 204.05 58.5901C204.1 59.4201 204.14 60.2501 204.14 61.0901C204.14 62.2501 204.07 63.4001 203.97 64.5401L208.19 64.9201C209.114 65.0042 210.045 64.8775 210.912 64.5497C211.78 64.2218 212.562 63.7013 213.199 63.0273C213.837 62.3534 214.313 61.5435 214.592 60.6589C214.871 59.7742 214.945 58.8377 214.81 57.9201" fill="#FF5561"/>
<path d="M104.4 61.0801C104.4 60.3501 104.4 59.6301 104.46 58.9201C104.811 52.9246 106.521 47.0875 109.46 41.8501L104.46 39.8501C103.6 39.5027 102.672 39.3551 101.746 39.4183C100.821 39.4816 99.9218 39.7541 99.1169 40.2152C98.312 40.6764 97.6222 41.3143 97.0996 42.0808C96.577 42.8472 96.2352 43.7223 96.0999 44.6401L94.0999 57.9201C93.9644 58.8377 94.039 59.7742 94.318 60.6589C94.5969 61.5435 95.073 62.3534 95.7104 63.0273C96.3478 63.7013 97.1298 64.2218 97.9975 64.5497C98.8653 64.8775 99.7961 65.0042 100.72 64.9201L104.53 64.5701C104.43 63.4201 104.36 62.2601 104.36 61.0801" fill="#FF5561"/>
<path d="M109.44 41.8301C113.153 35.2629 118.425 29.7098 124.79 25.6601L119.23 19.2201C118.624 18.5189 117.866 17.9644 117.015 17.5983C116.163 17.2321 115.239 17.0639 114.313 17.1063C113.387 17.1486 112.483 17.4004 111.668 17.8428C110.854 18.2851 110.15 18.9065 109.61 19.6601L101.79 30.5801C101.251 31.3344 100.889 32.2013 100.733 33.1156C100.577 34.0298 100.631 34.9675 100.89 35.858C101.149 36.7486 101.606 37.5687 102.228 38.2568C102.85 38.9448 103.62 39.4827 104.48 39.8301L109.44 41.8301Z" fill="#6FD5CA"/>
<path d="M207.16 30.5701L199.34 19.6501C198.8 18.8965 198.096 18.2751 197.282 17.8328C196.467 17.3904 195.563 17.1386 194.637 17.0962C193.711 17.0539 192.787 17.2221 191.936 17.5883C191.084 17.9544 190.326 18.5089 189.72 19.2101L184.01 25.8301C190.304 29.8985 195.506 35.4469 199.16 41.9901L204.47 39.8401C205.33 39.4927 206.1 38.9548 206.722 38.2667C207.344 37.5787 207.801 36.7586 208.06 35.868C208.319 34.9775 208.373 34.0398 208.217 33.1256C208.061 32.2113 207.7 31.3444 207.16 30.5901" fill="#6FD5CA"/>
<path d="M204.05 58.5801C192.683 58.2218 181.658 54.6126 172.28 48.1801C174.71 46.7701 177.04 44.1101 178.92 42.1801C179.574 41.5162 180.139 40.7699 180.6 39.9601C180.6 39.9601 179.86 40.6201 178.6 41.6201C177.002 42.9098 175.333 44.1084 173.6 45.2101C172.6 45.8701 171.55 46.4501 170.6 46.9601C151.84 56.7301 128.76 61.3501 104.42 58.9601C104.42 59.6801 104.36 60.4001 104.36 61.1201C104.36 85.3801 126.69 105.04 154.23 105.04C181.77 105.04 204.1 85.3801 204.1 61.1201C204.1 60.2801 204.1 59.4501 204.01 58.6201" fill="#F4C3A2"/>
<path d="M170.64 46.9901C171.57 46.4801 172.58 45.8901 173.64 45.2401C175.373 44.1386 177.042 42.94 178.64 41.6501C179.88 40.6501 180.64 39.9901 180.64 39.9901C180.179 40.7999 179.614 41.5462 178.96 42.2101C177.08 44.1501 174.75 46.8001 172.32 48.2101C181.687 54.6353 192.697 58.2442 204.05 58.6101C202.58 35.5201 180.86 17.1901 154.27 17.1901C127.68 17.1901 105.74 35.7001 104.46 58.9501C128.8 61.3701 151.88 56.7501 170.64 46.9501" fill="#FFA600"/>
<path d="M127.65 84.1701C127.65 86.1701 125.34 87.7001 122.49 87.7001C119.64 87.7001 117.33 86.1201 117.33 84.1701C117.33 82.2201 119.64 80.6401 122.49 80.6401C125.34 80.6401 127.65 82.2201 127.65 84.1701Z" fill="#FF5561"/>
<path d="M191.19 84.1701C191.19 86.1701 188.88 87.7001 186.03 87.7001C183.18 87.7001 180.87 86.1201 180.87 84.1701C180.87 82.2201 183.18 80.6401 186.03 80.6401C188.88 80.6401 191.19 82.2201 191.19 84.1701Z" fill="#FF5561"/>
<path d="M131.88 68.61C131.88 72.17 130.81 75.05 129.5 75.05C128.19 75.05 127.12 72.17 127.12 68.61C127.12 65.05 128.19 62.17 129.5 62.17C130.81 62.17 131.88 65.05 131.88 68.61Z" fill="#231010"/>
<path d="M181.4 68.61C181.4 72.17 180.33 75.05 179.02 75.05C177.71 75.05 176.64 72.17 176.64 68.61C176.64 65.05 177.71 62.17 179.02 62.17C180.33 62.17 181.4 65.05 181.4 68.61Z" fill="#231010"/>
<path d="M154.28 82.0601C151.114 82.0818 148.002 81.2381 145.28 79.6201C145.035 79.4669 144.833 79.2529 144.694 78.9989C144.556 78.7449 144.486 78.4594 144.49 78.1701C144.487 77.8813 144.559 77.5966 144.697 77.3432C144.836 77.0898 145.037 76.8762 145.282 76.7228C145.527 76.5693 145.807 76.4811 146.095 76.4667C146.384 76.4522 146.671 76.5119 146.93 76.6401C149.194 77.8051 151.704 78.4128 154.25 78.4128C156.796 78.4128 159.306 77.8051 161.57 76.6401C161.968 76.4213 162.436 76.3695 162.872 76.4961C163.308 76.6227 163.676 76.9173 163.895 77.3151C164.114 77.713 164.166 78.1814 164.039 78.6174C163.912 79.0535 163.618 79.4213 163.22 79.6401C160.501 81.2643 157.387 82.1085 154.22 82.0801" fill="#FF5561"/>
<path d="M130.95 65.6101C130.95 64.5501 130.63 63.7001 130.23 63.7001C129.83 63.7001 129.51 64.5601 129.51 65.6101C129.51 66.6601 129.83 67.5201 130.23 67.5201C130.63 67.5201 130.95 66.6601 130.95 65.6101Z" fill="white"/>
<path d="M180.47 65.6101C180.47 64.5501 180.15 63.7001 179.75 63.7001C179.35 63.7001 179.03 64.5601 179.03 65.6101C179.03 66.6601 179.35 67.5201 179.75 67.5201C180.15 67.5201 180.47 66.6601 180.47 65.6101Z" fill="white"/>
<path d="M103.86 135.58L102 141.3H91.33C91.33 141.3 93.47 140.84 93.94 139.4L94.35 138.13C94.73 136.97 93.41 136.13 91.83 136.62L88.89 137.45C88.5285 137.557 88.1744 137.687 87.83 137.84L86.71 141.28L86.14 143.02L79 164.95H70.28L80.28 134.28C80.75 132.84 78.91 132.38 78.91 132.38H89.57L88.93 134.38C90.31 133.84 91.71 133.32 93.11 132.91C95.4873 132.194 97.9709 131.896 100.45 132.03C102.91 132.19 104.45 133.7 103.82 135.64" fill="white"/>
<path d="M77.2901 148.86L72.6001 163.29H77.8101L82.5101 148.86H77.2901Z" fill="white"/>
<path d="M137.1 124.75H128.43L125.11 134.94C124.288 134.792 123.455 134.718 122.62 134.72H119.05C112.74 134.72 106.37 138.55 104.83 143.28L100.58 156.28C99.0401 161.01 102.91 164.84 109.22 164.84H112.79C113.671 164.837 114.551 164.764 115.42 164.62L115.33 164.91H124L126.3 157.85C126.59 157.356 126.827 156.833 127.01 156.29L131.26 143.29C131.425 142.784 131.529 142.261 131.57 141.73L135.69 129.08C136.95 125.22 139.08 124.76 139.08 124.76L137.1 124.75ZM120.95 143.75L116.95 155.96C115.74 159.68 113.1 163.61 111.42 163.61C109.74 163.61 109.65 159.69 110.87 155.96L114.87 143.75C115.99 140.3 118.75 136.03 120.43 136.03C122.11 136.03 122.11 140.22 120.96 143.75" fill="white"/>
<path d="M121.01 148.86L118.54 156.45C117.762 158.841 116.567 161.076 115.01 163.05L117.84 162.59L117.61 163.29H122.82L124.82 157.2L124.9 157.05C125.132 156.654 125.323 156.235 125.47 155.8L127.73 148.85L121.01 148.86Z" fill="white"/>
<path d="M111.46 148.86H104.75L102.16 156.86C101.923 157.487 101.844 158.162 101.93 158.826C102.015 159.491 102.263 160.124 102.65 160.67C103.77 162.21 106.05 163.16 108.81 163.25C108.02 161.15 108.54 157.87 109.32 155.46L111.46 148.86Z" fill="white"/>
<path d="M31.56 124.82C22.41 124.82 13.19 130.37 10.96 137.22L5.96 152.54C5.52581 153.738 5.37391 155.02 5.51614 156.286C5.65836 157.552 6.09087 158.768 6.78 159.84C4.36804 161.328 2.09843 163.035 0 164.94H3.2C4.74657 163.656 6.37684 162.477 8.08 161.41C10.35 163.59 13.99 164.94 18.49 164.94C27.64 164.94 36.86 159.39 39.09 152.54L41.18 146.11L36.04 147.72C33.24 148.5 28.52 149.91 23.16 151.95C20.6333 152.91 18.2633 153.91 16.05 154.95L24.05 130.4C24.82 128.04 27.99 126.14 31.14 126.14C34.29 126.14 36.22 128.05 35.45 130.4L32.67 138.93C31.8 141.62 26.74 141.6 26.74 141.6H42.67L44.09 137.25C46.32 130.4 40.71 124.85 31.57 124.85M28.37 152.17L26.01 159.41C25.24 161.77 22.07 163.68 18.92 163.68C15.77 163.68 13.84 161.77 14.61 159.41L15.23 157.51C19.5011 155.473 23.8887 153.69 28.37 152.17" fill="white"/>
<path d="M37.91 148.86L36.49 149.3C34.9 149.74 32.82 150.35 30.42 151.13L27.57 159.89C27.3369 160.618 26.9707 161.296 26.49 161.89C31.8 159.96 36.17 156.28 37.49 152.07L38.49 148.9L37.91 148.86Z" fill="white"/>
<path d="M13.0401 158.87L16.3001 148.87H8.90012L7.54012 153.06C7.18658 154.025 7.06041 155.058 7.17141 156.08C7.28242 157.102 7.6276 158.084 8.18012 158.95L8.65012 159.67L9.24013 160.23C10.4191 161.317 11.8322 162.117 13.3701 162.57C13.0611 162.014 12.8737 161.398 12.8202 160.763C12.7668 160.129 12.8486 159.491 13.0601 158.89" fill="white"/>
<path d="M65.2202 132.36H61.6502C55.3402 132.36 48.9702 136.19 47.4302 140.92L42.4302 156.38C40.8902 161.11 44.7602 164.94 51.0702 164.94H54.6402C60.9502 164.94 67.3202 161.11 68.8602 156.38L73.8602 140.92C75.4002 136.19 71.5302 132.36 65.2202 132.36ZM63.5502 141.36L58.7802 155.99C57.5702 159.71 54.9302 163.64 53.2502 163.64C51.5702 163.64 51.4802 159.72 52.7002 155.99L57.4602 141.36C58.5802 137.91 61.3402 133.64 63.0202 133.64C64.7002 133.64 64.7002 137.83 63.5502 141.36" fill="white"/>
<path d="M62.8401 148.86L60.3501 156.51C59.5724 158.901 58.3773 161.136 56.8201 163.11C61.6201 162.37 66.1301 159.35 67.2701 155.86L69.5501 148.86H62.8401Z" fill="white"/>
<path d="M53.2801 148.86H46.5801L43.9701 156.86C43.7335 157.487 43.6545 158.162 43.74 158.826C43.8254 159.491 44.0727 160.124 44.4601 160.67C45.5801 162.21 47.8601 163.16 50.6201 163.25C49.8301 161.15 50.3501 157.87 51.1301 155.46L53.2801 148.86Z" fill="white"/>
<path d="M233.48 127.71C234.01 126.08 236.21 124.71 238.39 124.71C240.57 124.71 241.91 126.03 241.39 127.71C240.87 129.39 238.66 130.71 236.48 130.71C234.3 130.71 232.96 129.39 233.48 127.71Z" fill="white"/>
<path d="M240.4 132.58H242.4C242.4 132.58 240.26 133.04 239.01 136.9L237.96 140.13L229.88 164.94H219.2C219.2 164.94 221.34 164.48 222.59 160.62L223.14 158.94L231.72 132.58H240.4Z" fill="white"/>
<path d="M228.15 148.86L225.4 157.29L224.15 161.12C223.911 161.869 223.6 162.592 223.22 163.28H228.66L233.36 148.85L228.15 148.86Z" fill="white"/>
<path d="M260.75 132.36H257.18C250.87 132.36 244.5 136.19 242.96 140.92L241.8 144.47H253.98C253.98 144.47 252.26 144.04 253.29 140.47C254.56 137.16 256.99 133.62 258.54 133.62C260.09 133.62 260.19 137.89 259.07 141.34L257.53 146.08C257.035 146.028 256.538 146.001 256.04 146H252.48C246.17 146 239.8 149.83 238.26 154.56L237.68 156.35C236.14 161.08 240.01 164.91 246.32 164.91H250.14C253.11 164.882 256.024 164.101 258.61 162.64C259.286 163.637 260.229 164.423 261.33 164.91L263.96 157.34C264.116 157.016 264.249 156.682 264.36 156.34L269.36 140.88C270.9 136.15 267.03 132.32 260.72 132.32M254.37 154.99L254.05 155.99C252.84 159.71 250.2 163.64 248.52 163.64C246.84 163.64 246.75 159.72 247.97 155.99L248.26 155.11V155.02C249.38 151.57 252.14 147.3 253.82 147.3C255.5 147.3 255.5 151.49 254.35 155.02" fill="white"/>
<path d="M256.71 148.86C256.934 151.116 256.671 153.394 255.94 155.54L255.62 156.54C254.84 158.952 253.635 161.204 252.06 163.19C254.081 162.915 256.032 162.26 257.81 161.26L259.21 160.47L260.03 161.85C260.156 162.058 260.308 162.249 260.48 162.42L262.48 156.77V156.69C262.604 156.437 262.71 156.177 262.8 155.91L265.08 148.91L256.71 148.86Z" fill="white"/>
<path d="M154.98 132.36H151.41C145.1 132.36 138.73 136.19 137.19 140.92L132.19 156.38C130.65 161.11 134.52 164.94 140.83 164.94H144.4C150.71 164.94 157.08 161.11 158.62 156.38L159.14 154.77H146.94C146.94 154.77 148.78 155.23 148.31 156.67L148.2 157C146.88 160.39 144.56 163.65 143.03 163.65C141.35 163.65 141.26 159.73 142.48 156L143.84 151.81H160.1L163.65 140.92C165.19 136.19 161.32 132.36 155.01 132.36M153.34 141.36L150.34 150.52H144.28L147.28 141.36C148.4 137.91 151.16 133.64 152.84 133.64C154.52 133.64 154.52 137.83 153.37 141.36" fill="white"/>
<path d="M143.04 148.86H136.33L133.72 156.86C133.484 157.487 133.405 158.162 133.49 158.826C133.575 159.491 133.823 160.124 134.21 160.67C135.33 162.21 137.61 163.16 140.37 163.25C139.58 161.15 140.1 157.87 140.88 155.46L143.04 148.86Z" fill="white"/>
<path d="M149.85 157.18L149.71 157.6C148.951 159.589 147.892 161.451 146.57 163.12C151.12 162.42 155.41 159.68 156.82 156.42H150.01C149.991 156.679 149.941 156.934 149.86 157.18" fill="white"/>
<path d="M152.59 148.86L152.17 150.17H158.88L159.3 148.86H152.59Z" fill="white"/>
<path d="M296.28 156.38C294.74 161.1 288.38 164.93 282.07 164.93H278.48C272.79 164.93 269.1 161.81 269.55 157.74C269.55 156.08 268.55 155.83 268.55 155.83H280.24V155.97C279.09 159.5 279.09 163.69 280.77 163.69C282.45 163.69 285.2 159.42 286.33 155.97C288.49 149.32 287.19 149.16 285.5 149.16H283.72C282.318 149.175 280.922 148.959 279.59 148.52C275.85 147.24 273.91 144.18 275.07 140.61C276.61 135.89 282.97 132.06 289.28 132.06H292.85C298.12 132.06 301.67 134.74 301.85 138.37C301.85 140.03 302.85 140.28 302.85 140.28H291.28C292.19 136.94 292.08 133.33 290.52 133.33C288.96 133.33 286.09 137.6 284.96 141.05C282.8 147.7 284.1 147.86 285.79 147.86H287.57C288.973 147.845 290.368 148.062 291.7 148.5C295.44 149.78 297.38 152.84 296.22 156.41" fill="white"/>
<path d="M291.21 149.99C290.442 149.732 289.647 149.564 288.84 149.49C289.27 150.85 288.94 152.9 287.84 156.39C287.019 158.81 285.792 161.073 284.21 163.08C289.03 162.36 293.59 159.33 294.73 155.83C295.73 152.74 293.59 150.83 291.25 149.99" fill="white"/>
<path d="M278.06 157.43H271.17V157.66V157.88C271.097 158.443 271.149 159.015 271.322 159.556C271.495 160.097 271.784 160.593 272.17 161.01C272.957 161.754 273.884 162.334 274.896 162.717C275.909 163.099 276.988 163.277 278.07 163.24C277.572 161.322 277.572 159.308 278.07 157.39" fill="white"/>
<path d="M246.64 148.86C243.36 150.19 240.64 152.51 239.83 155.1L239.25 156.89C239.013 157.517 238.934 158.192 239.02 158.856C239.105 159.521 239.352 160.154 239.74 160.7C240.86 162.24 243.14 163.19 245.9 163.28C245.11 161.18 245.63 157.9 246.41 155.49L246.69 154.62V154.7L246.75 154.52C247.44 152.51 248.399 150.603 249.6 148.85L246.64 148.86Z" fill="white"/>
<path d="M180.79 129.07L179.74 132.3L169.11 164.93H158.45C158.45 164.93 160.59 164.47 161.84 160.61L162.39 158.93L173.52 124.75H184.18C184.18 124.75 182.04 125.21 180.79 129.07" fill="white"/>
<path d="M167.41 148.86L164.66 157.29L163.41 161.12C163.171 161.869 162.859 162.592 162.48 163.28H167.92L172.62 148.85L167.41 148.86Z" fill="white"/>
<path d="M194 132.58H196C196 132.58 193.86 133.04 192.61 136.9L191.56 140.13L183.48 164.94H172.81C172.81 164.94 174.95 164.48 176.2 160.62L176.75 158.94L185.28 132.58H194Z" fill="white"/>
<path d="M187.48 127.71C188.01 126.08 190.21 124.71 192.39 124.71C194.57 124.71 195.91 126.03 195.39 127.71C194.87 129.39 192.66 130.71 190.48 130.71C188.3 130.71 186.96 129.39 187.48 127.71Z" fill="white"/>
<path d="M181.76 148.86L179.01 157.29L177.76 161.12C177.522 161.869 177.21 162.592 176.83 163.28H182.28L186.98 148.85L181.76 148.86Z" fill="white"/>
<path d="M223.42 140.92L221.42 147.16H209.28C209.28 147.16 211.28 146.73 212.52 143.28L213.1 141.35C214.25 137.82 214.25 133.63 212.57 133.63C210.89 133.63 208.14 137.9 207.01 141.35L202.28 155.99C201.06 159.72 201.15 163.64 202.83 163.64C204.51 163.64 207.15 159.71 208.36 155.99L209.01 153.99C210.01 150.54 208.3 150.11 208.3 150.11H220.44L218.44 156.36C216.9 161.09 210.54 164.92 204.22 164.92H200.65C194.34 164.92 190.47 161.09 192.01 156.36L197.01 140.9C198.55 136.17 204.91 132.34 211.23 132.34H214.8C221.11 132.34 224.98 136.17 223.44 140.9" fill="white"/>
<path d="M202.84 148.86H196.13L193.52 156.86C193.283 157.487 193.204 158.162 193.29 158.826C193.375 159.491 193.622 160.124 194.01 160.67C195.13 162.21 197.41 163.16 200.17 163.25C199.38 161.15 199.9 157.87 200.68 155.46L202.84 148.86Z" fill="white"/>
<path d="M210.55 154.52L209.9 156.52C209.123 158.911 207.927 161.146 206.37 163.12C211.17 162.38 215.68 159.36 216.82 155.87L218.15 151.78H210.92C210.948 152.708 210.823 153.633 210.55 154.52" fill="white"/>
<path d="M304.74 130.2H304.28V131.5H303.11V127.25H304.95C305.154 127.236 305.359 127.265 305.552 127.334C305.744 127.404 305.921 127.512 306.069 127.653C306.218 127.794 306.335 127.965 306.415 128.153C306.494 128.342 306.533 128.545 306.53 128.75C306.534 128.993 306.473 129.232 306.353 129.443C306.234 129.654 306.06 129.829 305.85 129.95L306.69 131.5H305.38L304.74 130.2ZM304.31 129.2H304.84C304.9 129.2 304.96 129.188 305.016 129.165C305.072 129.142 305.122 129.108 305.165 129.065C305.208 129.023 305.242 128.972 305.265 128.916C305.288 128.86 305.3 128.801 305.3 128.74C305.3 128.68 305.288 128.62 305.265 128.564C305.242 128.508 305.208 128.458 305.165 128.415C305.122 128.372 305.072 128.338 305.016 128.315C304.96 128.292 304.9 128.28 304.84 128.28H304.28L304.31 129.2Z" fill="white"/>
<path d="M304.67 133.65C303.828 133.65 303.004 133.4 302.303 132.932C301.603 132.464 301.057 131.799 300.734 131.02C300.412 130.242 300.328 129.385 300.492 128.559C300.656 127.733 301.062 126.974 301.658 126.378C302.254 125.782 303.013 125.376 303.839 125.212C304.665 125.048 305.522 125.132 306.3 125.454C307.079 125.777 307.744 126.323 308.212 127.023C308.68 127.724 308.93 128.548 308.93 129.39C308.928 130.519 308.478 131.601 307.68 132.399C306.881 133.198 305.799 133.647 304.67 133.65ZM304.67 125.98C303.996 125.98 303.336 126.18 302.776 126.555C302.215 126.93 301.778 127.462 301.52 128.085C301.262 128.708 301.194 129.394 301.326 130.055C301.457 130.717 301.782 131.324 302.259 131.801C302.736 132.278 303.343 132.603 304.005 132.735C304.666 132.866 305.352 132.799 305.975 132.541C306.598 132.282 307.131 131.845 307.505 131.285C307.88 130.724 308.08 130.065 308.08 129.39C308.078 128.487 307.717 127.621 307.078 126.982C306.44 126.343 305.574 125.983 304.67 125.98" fill="white"/>
<path d="M41.5801 174.55C41.9107 174.496 42.2451 174.469 42.5801 174.47C42.915 174.471 43.2493 174.498 43.5801 174.55V182.79H47.0401C47.0676 182.939 47.0876 183.089 47.1001 183.24C47.1001 183.38 47.1001 183.52 47.1001 183.65C47.1001 183.78 47.1001 183.94 47.1001 184.09C47.0876 184.241 47.0676 184.391 47.0401 184.54H41.5801V174.55Z" fill="white"/>
<path d="M53.68 179.81C53.6876 179.624 53.6499 179.439 53.57 179.27C53.4981 179.154 53.3985 179.058 53.28 178.99C53.1322 178.905 52.969 178.851 52.8 178.83C52.5903 178.815 52.3797 178.815 52.17 178.83C51.6243 178.838 51.0836 178.936 50.57 179.12C50.4505 178.904 50.3533 178.676 50.28 178.44C50.209 178.193 50.1753 177.937 50.18 177.68C50.5771 177.542 50.9852 177.438 51.4 177.37C51.7767 177.307 52.1579 177.273 52.54 177.27C53.3519 177.22 54.1546 177.465 54.8 177.96C55.0904 178.248 55.3136 178.596 55.4536 178.979C55.5936 179.363 55.6471 179.773 55.61 180.18V184.35C55.2221 184.468 54.8282 184.564 54.43 184.64C53.9125 184.738 53.3867 184.785 52.86 184.78C52.4233 184.782 51.9876 184.738 51.56 184.65C51.2023 184.577 50.8625 184.434 50.56 184.23C50.2838 184.039 50.0602 183.781 49.91 183.48C49.7463 183.127 49.6675 182.74 49.68 182.35C49.6677 181.957 49.7683 181.568 49.97 181.23C50.1561 180.935 50.4097 180.688 50.71 180.51C51.0196 180.326 51.3575 180.194 51.71 180.12C52.0748 180.042 52.4468 180.001 52.82 180C53.0867 180 53.3833 180 53.71 180L53.68 179.81ZM53.68 181.24H53.32H52.97C52.5948 181.22 52.2212 181.303 51.89 181.48C51.7587 181.562 51.6522 181.677 51.5817 181.815C51.5112 181.952 51.4795 182.106 51.49 182.26C51.4753 182.458 51.5282 182.656 51.64 182.82C51.7358 182.948 51.8634 183.048 52.01 183.11C52.1567 183.17 52.3119 183.207 52.47 183.22H52.89C53.0297 183.232 53.1702 183.232 53.31 183.22L53.67 183.16L53.68 181.24Z" fill="white"/>
<path d="M60.4101 181.41C59.9537 181.298 59.5337 181.071 59.1901 180.75C59.0331 180.572 58.9133 180.365 58.8378 180.14C58.7622 179.915 58.7324 179.677 58.7501 179.44C58.7375 179.125 58.7998 178.811 58.9319 178.524C59.064 178.237 59.2621 177.986 59.5101 177.79C60.109 177.363 60.8353 177.151 61.5701 177.19C61.929 177.191 62.2872 177.224 62.6401 177.29C63.004 177.358 63.3619 177.455 63.7101 177.58C63.689 177.834 63.642 178.085 63.5701 178.33C63.507 178.565 63.4199 178.793 63.3101 179.01C63.0693 178.913 62.8221 178.833 62.5701 178.77C62.2921 178.701 62.0065 178.668 61.7201 178.67C61.4648 178.657 61.2103 178.709 60.9801 178.82C60.8973 178.864 60.8288 178.931 60.7828 179.012C60.7367 179.094 60.7149 179.187 60.7201 179.28C60.7122 179.362 60.7256 179.445 60.7588 179.52C60.7921 179.595 60.8442 179.661 60.9101 179.71C61.0749 179.814 61.2533 179.895 61.4401 179.95L62.2301 180.19C62.4716 180.257 62.706 180.348 62.9301 180.46C63.1286 180.562 63.308 180.697 63.4601 180.86C63.6154 181.027 63.7345 181.225 63.8101 181.44C63.9018 181.714 63.9458 182.001 63.9401 182.29C63.9472 182.636 63.8718 182.979 63.7201 183.29C63.5713 183.591 63.3559 183.855 63.0901 184.06C62.791 184.29 62.452 184.463 62.0901 184.57C61.6627 184.702 61.2173 184.766 60.7701 184.76H60.1601C59.9789 184.747 59.7986 184.724 59.6201 184.69L59.1101 184.57L58.5701 184.39C58.5888 184.133 58.6324 183.879 58.7001 183.63C58.7693 183.376 58.8597 183.129 58.9701 182.89C59.2526 183.003 59.5434 183.093 59.8401 183.16C60.1194 183.22 60.4043 183.251 60.6901 183.25C60.8299 183.261 60.9703 183.261 61.1101 183.25C61.255 183.23 61.3964 183.19 61.5301 183.13C61.6554 183.074 61.7677 182.992 61.8601 182.89C61.9498 182.784 61.9962 182.649 61.9901 182.51C61.9989 182.42 61.9853 182.329 61.9504 182.245C61.9155 182.161 61.8604 182.087 61.7901 182.03C61.6186 181.914 61.4295 181.826 61.2301 181.77L60.4101 181.41Z" fill="white"/>
<path d="M77.28 179.36C77.6106 179.307 77.945 179.28 78.28 179.28C78.6149 179.281 78.9492 179.308 79.28 179.36V184.26C78.7924 184.437 78.2855 184.554 77.77 184.61C77.3154 184.666 76.858 184.696 76.4 184.7C75.6685 184.716 74.9412 184.587 74.26 184.32C73.6748 184.085 73.1514 183.719 72.73 183.25C72.3122 182.777 71.9987 182.222 71.81 181.62C71.599 180.954 71.4944 180.259 71.5 179.56C71.4946 178.861 71.6026 178.165 71.82 177.5C72.0145 176.895 72.3272 176.334 72.74 175.85C73.1502 175.384 73.6592 175.015 74.23 174.77C74.8621 174.502 75.5434 174.369 76.23 174.38C76.6447 174.377 77.0591 174.404 77.47 174.46C77.8833 174.525 78.2866 174.643 78.67 174.81C78.6498 175.087 78.5926 175.359 78.5 175.62C78.4066 175.887 78.3033 176.153 78.19 176.42C77.9093 176.32 77.6219 176.24 77.33 176.18C77.0359 176.131 76.7381 176.107 76.44 176.11C76.0626 176.095 75.6868 176.166 75.3405 176.317C74.9942 176.467 74.6864 176.694 74.44 176.98C73.9106 177.732 73.6563 178.643 73.72 179.56C73.6504 180.467 73.9017 181.37 74.43 182.11C74.6917 182.4 75.0159 182.626 75.378 182.771C75.7402 182.917 76.1307 182.978 76.52 182.95C76.6598 182.96 76.8001 182.96 76.94 182.95L77.28 182.9V179.36Z" fill="white"/>
<path d="M85.7899 184.71C85.2694 184.723 84.7518 184.627 84.2699 184.43C83.8565 184.254 83.4901 183.983 83.1999 183.64C82.9098 183.29 82.6922 182.885 82.5599 182.45C82.4113 181.974 82.3371 181.478 82.3399 180.98C82.3376 180.475 82.4118 179.973 82.5599 179.49C82.6905 179.051 82.9082 178.643 83.1999 178.29C83.4919 177.946 83.8577 177.673 84.2699 177.49C84.7503 177.287 85.2684 177.188 85.7899 177.2C86.3146 177.188 86.836 177.287 87.3199 177.49C87.7358 177.672 88.1051 177.945 88.3999 178.29C88.6943 178.641 88.9122 179.05 89.0399 179.49C89.1936 179.975 89.2745 180.481 89.2799 180.99C89.2835 181.488 89.2127 181.983 89.0699 182.46C88.9404 182.896 88.7226 183.302 88.4299 183.65C88.134 183.991 87.7648 184.261 87.3499 184.44C86.8645 184.637 86.3437 184.733 85.8199 184.72M85.8199 183.22C86.042 183.237 86.2645 183.192 86.4623 183.089C86.6601 182.987 86.8255 182.831 86.9399 182.64C87.165 182.116 87.281 181.551 87.281 180.98C87.281 180.409 87.165 179.845 86.9399 179.32C86.8255 179.129 86.6601 178.974 86.4623 178.871C86.2645 178.769 86.042 178.723 85.8199 178.74C85.6009 178.726 85.3823 178.773 85.1881 178.875C84.994 178.977 84.832 179.131 84.7199 179.32C84.496 179.845 84.3806 180.41 84.3806 180.98C84.3806 181.551 84.496 182.115 84.7199 182.64C84.8311 182.83 84.993 182.984 85.1873 183.087C85.3817 183.189 85.6007 183.235 85.8199 183.22" fill="white"/>
<path d="M92.4801 177.35L92.8801 177.29H93.2901H93.7001L94.1001 177.36C94.1348 177.423 94.1617 177.49 94.1801 177.56C94.1801 177.65 94.1801 177.74 94.2401 177.84C94.3001 177.94 94.2401 178.03 94.2401 178.13V178.37C94.4494 178.077 94.7023 177.817 94.9901 177.6C95.3117 177.366 95.7025 177.246 96.1001 177.26H96.4201H96.6801C96.6855 177.367 96.6855 177.474 96.6801 177.58C96.6801 177.7 96.6801 177.82 96.6801 177.95C96.6801 178.08 96.6801 178.28 96.6801 178.46C96.6663 178.639 96.6395 178.816 96.6001 178.99C96.487 178.98 96.3732 178.98 96.2601 178.99H96.0301C95.8537 178.976 95.6764 178.976 95.5001 178.99C95.2942 179.027 95.1014 179.117 94.9401 179.25C94.7415 179.419 94.59 179.636 94.5001 179.88C94.3698 180.256 94.3121 180.653 94.3301 181.05V184.47L93.8301 184.53H92.8301L92.3201 184.47L92.4801 177.35Z" fill="white"/>
<path d="M103.83 174.38L104.32 174.32H105.32L105.82 174.38V184.3C105.384 184.431 104.94 184.531 104.49 184.6C103.95 184.674 103.405 184.708 102.86 184.7C102.383 184.702 101.908 184.635 101.45 184.5C101.013 184.372 100.607 184.154 100.26 183.86C99.9053 183.552 99.6278 183.165 99.45 182.73C99.2351 182.19 99.133 181.611 99.15 181.03C99.1482 180.522 99.2362 180.018 99.41 179.54C99.5718 179.088 99.8236 178.673 100.15 178.32C100.477 177.973 100.872 177.698 101.31 177.51C101.79 177.305 102.308 177.202 102.83 177.21H103.35C103.526 177.223 103.7 177.253 103.87 177.3L103.83 174.38ZM103.83 178.84L103.38 178.75H102.94C102.661 178.744 102.386 178.809 102.14 178.94C101.918 179.062 101.726 179.233 101.58 179.44C101.423 179.663 101.311 179.914 101.25 180.18C101.181 180.468 101.148 180.764 101.15 181.06C101.138 181.399 101.186 181.737 101.29 182.06C101.365 182.297 101.496 182.513 101.67 182.69C101.833 182.848 102.032 182.965 102.25 183.03C102.484 183.1 102.726 183.133 102.97 183.13H103.4C103.546 183.113 103.69 183.083 103.83 183.04V178.84Z" fill="white"/>
<path d="M109.75 178.86H108.82C108.793 178.735 108.773 178.608 108.76 178.48C108.754 178.354 108.754 178.227 108.76 178.1C108.759 177.851 108.786 177.603 108.84 177.36H111.7V184.55C111.37 184.605 111.035 184.632 110.7 184.63C110.365 184.632 110.031 184.606 109.7 184.55L109.75 178.86ZM109.46 176.15C109.406 175.843 109.379 175.532 109.38 175.22C109.38 174.908 109.407 174.597 109.46 174.29L109.97 174.23H110.46H110.97L111.48 174.29C111.508 174.442 111.528 174.596 111.54 174.75C111.54 174.9 111.54 175.06 111.54 175.22C111.54 175.38 111.54 175.52 111.54 175.68C111.529 175.838 111.509 175.995 111.48 176.15C111.312 176.181 111.141 176.201 110.97 176.21H109.97C109.799 176.201 109.629 176.181 109.46 176.15" fill="white"/>
<path d="M115.49 178.86H114.59L114.52 178.58L117.12 175.26H117.44V177.36H119.12C119.148 177.485 119.168 177.612 119.18 177.74C119.18 177.85 119.18 177.97 119.18 178.09C119.18 178.21 119.18 178.34 119.18 178.47C119.168 178.605 119.148 178.738 119.12 178.87H117.44V181.69C117.435 181.922 117.459 182.154 117.51 182.38C117.543 182.534 117.611 182.678 117.71 182.8C117.796 182.902 117.911 182.975 118.04 183.01C118.19 183.051 118.345 183.071 118.5 183.07C118.636 183.082 118.774 183.082 118.91 183.07L119.28 182.99C119.346 183.168 119.393 183.352 119.42 183.54C119.432 183.71 119.432 183.88 119.42 184.05C119.42 184.15 119.42 184.24 119.42 184.31C119.42 184.38 119.42 184.45 119.42 184.51C118.987 184.612 118.544 184.662 118.1 184.66C117.406 184.707 116.719 184.497 116.17 184.07C115.927 183.817 115.742 183.514 115.626 183.183C115.511 182.852 115.468 182.499 115.5 182.15L115.49 178.86Z" fill="white"/>
<path d="M125.87 179.81C125.878 179.624 125.84 179.439 125.76 179.27C125.69 179.133 125.582 179.019 125.45 178.94C125.302 178.856 125.139 178.801 124.97 178.78C124.76 178.765 124.55 178.765 124.34 178.78C123.794 178.788 123.254 178.886 122.74 179.07C122.62 178.854 122.523 178.626 122.45 178.39C122.379 178.143 122.345 177.887 122.35 177.63C122.747 177.492 123.155 177.389 123.57 177.32C123.947 177.257 124.328 177.223 124.71 177.22C125.522 177.17 126.325 177.415 126.97 177.91C127.26 178.198 127.483 178.546 127.624 178.929C127.764 179.313 127.817 179.723 127.78 180.13V184.3C127.392 184.418 126.998 184.514 126.6 184.59C126.082 184.688 125.557 184.735 125.03 184.73C124.593 184.732 124.158 184.689 123.73 184.6C123.372 184.527 123.032 184.384 122.73 184.18C122.454 183.989 122.23 183.731 122.08 183.43C121.916 183.077 121.837 182.69 121.85 182.3C121.838 181.907 121.938 181.518 122.14 181.18C122.326 180.885 122.58 180.638 122.88 180.46C123.19 180.276 123.527 180.144 123.88 180.07C124.245 179.992 124.617 179.951 124.99 179.95C125.257 179.95 125.553 179.95 125.88 179.95L125.87 179.81ZM125.87 181.24H125.51H125.16C124.785 181.22 124.411 181.303 124.08 181.48C123.949 181.562 123.842 181.677 123.772 181.815C123.701 181.952 123.669 182.106 123.68 182.26C123.665 182.458 123.718 182.656 123.83 182.82C123.926 182.948 124.053 183.048 124.2 183.11C124.347 183.17 124.502 183.208 124.66 183.22H125.08C125.22 183.232 125.36 183.232 125.5 183.22L125.86 183.16L125.87 181.24Z" fill="white"/>
<path d="M132.6 181.41C132.144 181.298 131.724 181.071 131.38 180.75C131.223 180.572 131.103 180.365 131.028 180.14C130.952 179.915 130.922 179.677 130.94 179.44C130.927 179.125 130.99 178.811 131.122 178.524C131.254 178.237 131.452 177.986 131.7 177.79C132.299 177.363 133.025 177.151 133.76 177.19C134.119 177.191 134.477 177.224 134.83 177.29C135.194 177.358 135.552 177.455 135.9 177.58C135.879 177.834 135.832 178.085 135.76 178.33C135.697 178.565 135.61 178.793 135.5 179.01C135.259 178.913 135.012 178.833 134.76 178.77C134.482 178.701 134.196 178.668 133.91 178.67C133.655 178.657 133.4 178.709 133.17 178.82C133.087 178.864 133.019 178.931 132.973 179.012C132.927 179.094 132.905 179.187 132.91 179.28C132.902 179.362 132.916 179.445 132.949 179.52C132.982 179.595 133.034 179.661 133.1 179.71C133.265 179.814 133.443 179.895 133.63 179.95L134.42 180.19C134.662 180.257 134.896 180.348 135.12 180.46C135.319 180.561 135.498 180.697 135.65 180.86C135.805 181.027 135.924 181.225 136 181.44C136.092 181.714 136.136 182.001 136.13 182.29C136.127 182.62 136.049 182.944 135.902 183.239C135.755 183.533 135.542 183.79 135.28 183.99C134.981 184.22 134.642 184.393 134.28 184.5C133.853 184.632 133.407 184.696 132.96 184.69H132.35C132.169 184.677 131.989 184.654 131.81 184.62L131.3 184.5L130.76 184.32C130.779 184.063 130.822 183.809 130.89 183.56C130.959 183.306 131.049 183.059 131.16 182.82C131.442 182.933 131.733 183.023 132.03 183.09C132.309 183.15 132.594 183.181 132.88 183.18C133.02 183.191 133.16 183.191 133.3 183.18C133.445 183.16 133.586 183.12 133.72 183.06C133.845 183.004 133.958 182.922 134.05 182.82C134.141 182.715 134.187 182.579 134.18 182.44C134.189 182.35 134.175 182.259 134.14 182.175C134.105 182.091 134.05 182.017 133.98 181.96C133.809 181.844 133.619 181.756 133.42 181.7L132.6 181.41Z" fill="white"/>
<path d="M148.28 174.38L148.77 174.32H149.77L150.27 174.38V184.3C149.834 184.431 149.39 184.531 148.94 184.6C148.4 184.674 147.855 184.708 147.31 184.7C146.833 184.702 146.358 184.635 145.9 184.5C145.463 184.373 145.057 184.155 144.71 183.86C144.355 183.552 144.078 183.165 143.9 182.73C143.53 181.699 143.53 180.571 143.9 179.54C144.062 179.088 144.313 178.672 144.64 178.32C144.967 177.973 145.362 177.697 145.8 177.51C146.277 177.306 146.791 177.204 147.31 177.21H147.83C148.006 177.223 148.18 177.253 148.35 177.3L148.28 174.38ZM148.28 178.84L147.83 178.75H147.39C147.111 178.744 146.836 178.809 146.59 178.94C146.368 179.062 146.176 179.233 146.03 179.44C145.874 179.663 145.762 179.915 145.7 180.18C145.631 180.468 145.598 180.764 145.6 181.06C145.588 181.399 145.636 181.737 145.74 182.06C145.815 182.297 145.946 182.513 146.12 182.69C146.284 182.848 146.482 182.964 146.7 183.03C146.934 183.1 147.176 183.133 147.42 183.13H147.85C147.997 183.096 148.141 183.05 148.28 182.99V178.84Z" fill="white"/>
<path d="M155.4 181.55C155.398 181.783 155.449 182.013 155.549 182.223C155.65 182.432 155.797 182.616 155.98 182.76C156.393 183.026 156.88 183.155 157.37 183.13C157.706 183.132 158.04 183.101 158.37 183.04C158.691 182.982 159.005 182.895 159.31 182.78C159.422 182.993 159.509 183.218 159.57 183.45C159.648 183.72 159.692 183.999 159.7 184.28C158.916 184.57 158.086 184.713 157.25 184.7C156.664 184.714 156.081 184.619 155.53 184.42C155.085 184.259 154.684 183.996 154.36 183.65C154.054 183.314 153.825 182.914 153.69 182.48C153.394 181.502 153.394 180.458 153.69 179.48C153.828 179.037 154.052 178.626 154.35 178.27C154.647 177.925 155.015 177.648 155.43 177.46C155.906 177.251 156.421 177.149 156.94 177.16C157.397 177.151 157.85 177.24 158.27 177.42C158.65 177.588 158.99 177.834 159.27 178.14C159.55 178.457 159.761 178.828 159.89 179.23C160.033 179.669 160.104 180.128 160.1 180.59C160.1 180.77 160.1 180.94 160.1 181.11C160.1 181.28 160.1 181.42 160.1 181.52L155.4 181.55ZM158.22 180.17C158.221 179.779 158.091 179.399 157.85 179.09C157.729 178.946 157.574 178.834 157.4 178.763C157.226 178.691 157.038 178.663 156.85 178.68C156.656 178.666 156.461 178.694 156.278 178.761C156.095 178.828 155.929 178.934 155.79 179.07C155.529 179.379 155.378 179.766 155.36 180.17H158.22Z" fill="white"/>
<path d="M169.98 176.27H167.49C167.434 175.98 167.407 175.685 167.41 175.39C167.408 175.105 167.435 174.82 167.49 174.54H174.49C174.545 174.82 174.572 175.105 174.57 175.39C174.573 175.685 174.546 175.98 174.49 176.27H172V184.54H171.5H171.01H170.5L169.95 184.48L169.98 176.27Z" fill="white"/>
<path d="M177.52 174.38C178.182 174.265 178.858 174.265 179.52 174.38V181.68C179.5 181.91 179.5 182.141 179.52 182.37C179.539 182.516 179.59 182.656 179.67 182.78C179.736 182.874 179.831 182.944 179.94 182.98C180.076 183.022 180.218 183.043 180.36 183.04H180.6H180.86C180.958 183.402 181.009 183.775 181.01 184.15V184.35C181.018 184.417 181.018 184.484 181.01 184.55C180.834 184.602 180.653 184.636 180.47 184.65H179.89C179.265 184.68 178.653 184.469 178.18 184.06C177.943 183.803 177.763 183.5 177.652 183.169C177.54 182.838 177.498 182.488 177.53 182.14L177.52 174.38Z" fill="white"/>
<path d="M187.33 179.81C187.338 179.624 187.3 179.439 187.22 179.27C187.15 179.133 187.042 179.019 186.91 178.94C186.762 178.855 186.599 178.801 186.43 178.78C186.22 178.765 186.01 178.765 185.8 178.78C185.254 178.788 184.714 178.886 184.2 179.07C184.081 178.854 183.984 178.626 183.91 178.39C183.839 178.143 183.806 177.887 183.81 177.63C184.207 177.492 184.615 177.389 185.03 177.32C185.407 177.257 185.788 177.223 186.17 177.22C186.982 177.17 187.785 177.415 188.43 177.91C188.721 178.198 188.944 178.546 189.084 178.929C189.224 179.313 189.277 179.723 189.24 180.13V184.3C188.852 184.418 188.458 184.514 188.06 184.59C187.543 184.688 187.017 184.735 186.49 184.73C186.053 184.732 185.618 184.689 185.19 184.6C184.832 184.527 184.493 184.384 184.19 184.18C183.914 183.989 183.69 183.731 183.54 183.43C183.376 183.077 183.298 182.69 183.31 182.3C183.295 181.908 183.392 181.519 183.59 181.18C183.777 180.885 184.03 180.638 184.33 180.46C184.64 180.276 184.978 180.144 185.33 180.07C185.695 179.992 186.067 179.951 186.44 179.95C186.707 179.95 187.003 179.95 187.33 179.95V179.81ZM187.33 181.24H186.97H186.62C186.245 181.22 185.871 181.303 185.54 181.48C185.409 181.562 185.302 181.677 185.232 181.815C185.161 181.952 185.13 182.106 185.14 182.26C185.125 182.458 185.178 182.656 185.29 182.82C185.386 182.948 185.514 183.048 185.66 183.11C185.807 183.17 185.962 183.207 186.12 183.22H186.54C186.68 183.232 186.82 183.232 186.96 183.22L187.32 183.16L187.33 181.24Z" fill="white"/>
<path d="M196.95 184.6L196.46 184.65C196.27 184.661 196.08 184.661 195.89 184.65C195.43 184.65 194.972 184.586 194.53 184.46C194.105 184.341 193.709 184.133 193.37 183.85C193.018 183.548 192.741 183.168 192.56 182.74C192.18 181.711 192.18 180.579 192.56 179.55C192.731 179.087 192.997 178.665 193.34 178.31C193.701 177.946 194.134 177.66 194.61 177.47C195.154 177.254 195.735 177.149 196.32 177.16C196.788 177.157 197.256 177.187 197.72 177.25C198.13 177.31 198.54 177.39 198.95 177.48V187.8L198.46 187.86H197.46L196.96 187.8L196.95 184.6ZM196.95 178.89L196.52 178.82H196.23C195.958 178.802 195.685 178.85 195.435 178.962C195.186 179.074 194.968 179.245 194.8 179.46C194.463 179.942 194.295 180.522 194.32 181.11C194.305 181.448 194.349 181.787 194.45 182.11C194.522 182.338 194.645 182.547 194.81 182.72C194.965 182.876 195.158 182.99 195.37 183.05C195.604 183.119 195.846 183.152 196.09 183.15H196.52C196.666 183.133 196.81 183.103 196.95 183.06V178.89Z" fill="white"/>
<path d="M202.37 177.35C203.032 177.236 203.708 177.236 204.37 177.35V181.16C204.364 181.476 204.394 181.791 204.46 182.1C204.506 182.313 204.602 182.512 204.74 182.68C204.861 182.825 205.021 182.932 205.2 182.99C205.411 183.053 205.63 183.084 205.85 183.08C206.14 183.086 206.429 183.052 206.71 182.98V177.35C207.372 177.235 208.048 177.235 208.71 177.35V184.26C208.327 184.386 207.936 184.486 207.54 184.56C207.04 184.66 206.53 184.71 206.02 184.71C205.565 184.711 205.11 184.675 204.66 184.6C204.245 184.537 203.851 184.376 203.51 184.13C203.153 183.857 202.88 183.49 202.72 183.07C202.504 182.478 202.405 181.85 202.43 181.22L202.37 177.35Z" fill="white"/>
<path d="M213.68 181.55C213.678 181.783 213.729 182.013 213.829 182.223C213.93 182.432 214.077 182.616 214.26 182.76C214.673 183.026 215.159 183.155 215.65 183.13C215.985 183.132 216.32 183.101 216.65 183.04C216.97 182.982 217.285 182.895 217.59 182.78C217.702 182.993 217.789 183.218 217.85 183.45C217.928 183.72 217.972 183.999 217.98 184.28C217.196 184.57 216.366 184.713 215.53 184.7C214.944 184.714 214.361 184.619 213.81 184.42C213.365 184.259 212.964 183.996 212.64 183.65C212.334 183.314 212.105 182.914 211.97 182.48C211.673 181.502 211.673 180.458 211.97 179.48C212.107 179.037 212.332 178.626 212.63 178.27C212.927 177.925 213.295 177.648 213.71 177.46C214.185 177.251 214.701 177.149 215.22 177.16C215.677 177.151 216.13 177.24 216.55 177.42C216.929 177.588 217.27 177.834 217.55 178.14C217.831 178.456 218.042 178.827 218.17 179.23C218.313 179.669 218.384 180.128 218.38 180.59C218.38 180.77 218.38 180.94 218.38 181.11C218.38 181.28 218.38 181.42 218.38 181.52L213.68 181.55ZM216.5 180.17C216.501 179.779 216.371 179.399 216.13 179.09C216.009 178.946 215.854 178.834 215.68 178.763C215.506 178.691 215.317 178.663 215.13 178.68C214.936 178.666 214.741 178.694 214.558 178.761C214.375 178.828 214.209 178.934 214.07 179.07C213.809 179.379 213.658 179.766 213.64 180.17H216.5Z" fill="white"/>
<path d="M221.55 177.34L221.93 177.28H222.35C222.615 177.28 222.88 177.307 223.14 177.36C223.175 177.423 223.202 177.49 223.22 177.56C223.22 177.65 223.22 177.74 223.29 177.85C223.36 177.96 223.29 178.05 223.35 178.15V178.39C223.439 178.234 223.543 178.087 223.66 177.95C223.787 177.802 223.935 177.674 224.1 177.57C224.281 177.455 224.476 177.365 224.68 177.3C224.91 177.23 225.15 177.196 225.39 177.2C225.774 177.197 226.155 177.271 226.51 177.42C226.861 177.571 227.172 177.8 227.42 178.09C227.698 178.422 227.905 178.806 228.03 179.22C228.184 179.743 228.258 180.285 228.25 180.83C228.26 181.381 228.172 181.93 227.99 182.45C227.826 182.909 227.564 183.325 227.22 183.67C226.874 184.012 226.457 184.275 226 184.44C225.474 184.628 224.918 184.72 224.36 184.71H223.89H223.51V187.91L223 187.97H222L221.49 187.91L221.55 177.34ZM223.55 183.01C223.83 183.087 224.12 183.124 224.41 183.12C224.658 183.135 224.907 183.092 225.136 182.995C225.365 182.898 225.568 182.749 225.73 182.56C226.072 182.07 226.234 181.476 226.19 180.88C226.191 180.612 226.168 180.344 226.12 180.08C226.08 179.857 225.999 179.643 225.88 179.45C225.776 179.278 225.632 179.134 225.46 179.03C225.27 178.937 225.061 178.889 224.85 178.889C224.639 178.889 224.43 178.937 224.24 179.03C224.079 179.115 223.941 179.239 223.84 179.39C223.734 179.555 223.659 179.738 223.62 179.93C223.573 180.144 223.55 180.362 223.55 180.58V183.01Z" fill="white"/>
<path d="M235.05 179.81C235.058 179.624 235.02 179.439 234.94 179.27C234.87 179.133 234.762 179.019 234.63 178.94C234.482 178.856 234.319 178.801 234.15 178.78C233.94 178.765 233.73 178.765 233.52 178.78C232.974 178.788 232.434 178.886 231.92 179.07C231.8 178.854 231.703 178.626 231.63 178.39C231.559 178.143 231.525 177.887 231.53 177.63C231.927 177.492 232.335 177.388 232.75 177.32C233.127 177.257 233.508 177.223 233.89 177.22C234.702 177.17 235.505 177.415 236.15 177.91C236.44 178.198 236.663 178.546 236.804 178.929C236.944 179.313 236.997 179.723 236.96 180.13V184.3C236.572 184.418 236.178 184.514 235.78 184.59C235.262 184.688 234.737 184.735 234.21 184.73C233.773 184.732 233.338 184.689 232.91 184.6C232.552 184.527 232.212 184.384 231.91 184.18C231.634 183.989 231.41 183.731 231.26 183.43C231.096 183.077 231.017 182.69 231.03 182.3C231.015 181.908 231.112 181.519 231.31 181.18C231.496 180.885 231.75 180.638 232.05 180.46C232.36 180.276 232.697 180.144 233.05 180.07C233.415 179.992 233.787 179.951 234.16 179.95C234.427 179.95 234.723 179.95 235.05 179.95V179.81ZM235.05 181.24H234.69H234.34C233.964 181.217 233.59 181.3 233.26 181.48C233.129 181.562 233.022 181.677 232.952 181.815C232.881 181.952 232.849 182.106 232.86 182.26C232.845 182.458 232.898 182.656 233.01 182.82C233.106 182.948 233.233 183.048 233.38 183.11C233.527 183.17 233.682 183.208 233.84 183.22H234.26C234.4 183.232 234.54 183.232 234.68 183.22L235.04 183.16L235.05 181.24Z" fill="white"/>
<path d="M244.67 184.6L244.18 184.65C243.99 184.661 243.8 184.661 243.61 184.65C243.15 184.651 242.692 184.587 242.25 184.46C241.825 184.341 241.429 184.133 241.09 183.85C240.738 183.548 240.46 183.168 240.28 182.74C239.9 181.711 239.9 180.579 240.28 179.55C240.451 179.087 240.717 178.665 241.06 178.31C241.421 177.946 241.854 177.66 242.33 177.47C242.874 177.254 243.455 177.149 244.04 177.16C244.508 177.157 244.976 177.187 245.44 177.25C245.85 177.31 246.26 177.39 246.67 177.48V187.8L246.18 187.86H245.18L244.68 187.8L244.67 184.6ZM244.67 178.89L244.24 178.82H243.95C243.679 178.803 243.408 178.853 243.161 178.964C242.913 179.076 242.697 179.246 242.53 179.46C242.193 179.942 242.025 180.522 242.05 181.11C242.035 181.448 242.079 181.787 242.18 182.11C242.252 182.338 242.375 182.547 242.54 182.72C242.695 182.876 242.888 182.99 243.1 183.05C243.334 183.119 243.576 183.152 243.82 183.15H244.25C244.396 183.133 244.54 183.103 244.68 183.06L244.67 178.89Z" fill="white"/>
<path d="M250.09 177.35C250.752 177.236 251.428 177.236 252.09 177.35V181.16C252.084 181.476 252.114 181.791 252.18 182.1C252.226 182.313 252.322 182.512 252.46 182.68C252.581 182.825 252.741 182.932 252.92 182.99C253.131 183.053 253.35 183.084 253.57 183.08C253.86 183.086 254.149 183.052 254.43 182.98V177.35C255.092 177.235 255.768 177.235 256.43 177.35V184.26C256.047 184.386 255.656 184.486 255.26 184.56C254.76 184.66 254.25 184.71 253.74 184.71C253.284 184.711 252.83 184.675 252.38 184.6C251.965 184.537 251.571 184.376 251.23 184.13C250.873 183.857 250.6 183.49 250.44 183.07C250.224 182.478 250.126 181.85 250.15 181.22L250.09 177.35Z" fill="white"/>
<path d="M261.4 181.55C261.398 181.783 261.449 182.013 261.549 182.223C261.65 182.432 261.797 182.616 261.98 182.76C262.393 183.026 262.879 183.155 263.37 183.13C263.705 183.132 264.04 183.101 264.37 183.04C264.69 182.982 265.005 182.895 265.31 182.78C265.422 182.993 265.509 183.218 265.57 183.45C265.648 183.72 265.691 183.999 265.7 184.28C264.916 184.57 264.086 184.713 263.25 184.7C262.668 184.713 262.088 184.618 261.54 184.42C261.095 184.259 260.694 183.996 260.37 183.65C260.064 183.314 259.835 182.914 259.7 182.48C259.403 181.502 259.403 180.458 259.7 179.48C259.837 179.037 260.062 178.626 260.36 178.27C260.656 177.925 261.025 177.648 261.44 177.46C261.915 177.251 262.431 177.149 262.95 177.16C263.407 177.151 263.86 177.24 264.28 177.42C264.659 177.588 265 177.834 265.28 178.14C265.56 178.457 265.771 178.828 265.9 179.23C266.043 179.669 266.114 180.128 266.11 180.59C266.11 180.77 266.11 180.94 266.11 181.11C266.11 181.28 266.11 181.42 266.11 181.52L261.4 181.55ZM264.22 180.17C264.221 179.779 264.091 179.399 263.85 179.09C263.728 178.946 263.574 178.834 263.4 178.763C263.226 178.691 263.037 178.663 262.85 178.68C262.656 178.666 262.461 178.694 262.278 178.761C262.095 178.828 261.929 178.934 261.79 179.07C261.529 179.379 261.378 179.766 261.36 180.17H264.22Z" fill="white"/>
</svg>
