<?xml version="1.0" encoding="utf-8"?>
<!-- Generator: Adobe Illustrator 25.2.1, SVG Export Plug-In . SVG Version: 6.00 Build 0)  -->
<svg version="1.1" id="Capa_1" xmlns="http://www.w3.org/2000/svg" xmlns:xlink="http://www.w3.org/1999/xlink" x="0px" y="0px"
	 viewBox="0 0 722.77 229.38" style="enable-background:new 0 0 722.77 229.38;" xml:space="preserve">
<style type="text/css">
	.st0{fill:#6FD5CA;}
	.st1{font-family:'Hunters';}
	.st2{font-size:242px;}
	.st3{letter-spacing:-4;}
	.st4{fill:#FFFFFF;}
</style>
<g>
	<path class="st0" d="M115.66,106.32c-7.75,6.03-14.84,12.69-21.69,19.58c-0.07-11-0.17-22.01-0.65-33.02
		c-0.47-12.36-1.04-24.72-2.26-37.07c-1.22,12.36-1.78,24.72-2.27,37.07c-0.47,11.01-0.57,22.01-0.65,33.02
		c-6.85-6.89-13.94-13.55-21.69-19.58c6.54,9.19,13.95,17.55,21.59,25.67c-7.64,8.13-15.05,16.49-21.59,25.68
		c7.77-6.03,14.87-12.7,21.73-19.6c0.07,9.66,0.19,19.31,0.6,28.98l0.83,18.53c0.49,6.18,0.77,12.37,1.45,18.54
		c0.67-6.17,0.96-12.36,1.45-18.54l0.82-18.53c0.42-9.66,0.54-19.32,0.61-28.98c6.86,6.9,13.96,13.57,21.72,19.6
		c-6.53-9.19-13.93-17.55-21.58-25.68C101.73,123.86,109.13,115.51,115.66,106.32"/>
	<path class="st0" d="M706.12,106.32c-7.75,6.03-14.84,12.69-21.69,19.58c-0.07-11-0.17-22.01-0.65-33.02
		c-0.47-12.36-1.04-24.72-2.26-37.07c-1.22,12.36-1.78,24.72-2.27,37.07c-0.47,11.01-0.57,22.01-0.65,33.02
		c-6.85-6.89-13.94-13.55-21.69-19.58c6.54,9.19,13.95,17.55,21.59,25.67c-7.64,8.13-15.05,16.49-21.59,25.68
		c7.77-6.03,14.88-12.7,21.73-19.6c0.07,9.66,0.19,19.31,0.6,28.98l0.83,18.53c0.49,6.18,0.77,12.37,1.45,18.54
		c0.67-6.17,0.96-12.36,1.45-18.54l0.82-18.53c0.42-9.66,0.54-19.32,0.61-28.98c6.86,6.9,13.96,13.57,21.72,19.6
		c-6.53-9.19-13.93-17.55-21.58-25.68C692.19,123.86,699.58,115.51,706.12,106.32"/>
</g>
<g>
	<text transform="matrix(1 0 0 1 155.9701 180.607)" class="st0 st1 st2 st3">Menu</text>
	<path class="st0" d="M569.37,92.46c10.01-4.58,18.62-12.19,24.32-21.62c0.85-1.41,1.66-2.9,1.95-4.52c0.3-1.62,0.02-3.43-1.08-4.66
		c-1.2-1.34-3.17-1.77-4.95-1.5s-3.39,1.16-4.92,2.12c-2.52,1.59-4.88,3.43-7.05,5.48c-2.18,2.06-4.16,4.32-5.91,6.75
		c-1.75,2.43-3.28,5.03-4.54,7.74c-0.63,1.36-1.2,2.75-1.7,4.16c-0.56,1.59-1.11,3.2-1.3,4.89c0,0.04-0.01,0.07-0.01,0.11
		c-0.04,0.38-0.07,0.76,0.01,1.14c0.17,0.82,0.86,1.3,1.69,1.24c0.53-0.03,1.03-0.24,1.51-0.45"/>
	<g>
		<text transform="matrix(1 0 0 1 164.6457 174.6298)" class="st4 st1 st2 st3">Menu</text>
	</g>
	<path class="st4" d="M573.37,90.46c10.01-4.58,18.62-12.19,24.32-21.62c0.85-1.41,1.66-2.9,1.95-4.52c0.3-1.62,0.02-3.43-1.08-4.66
		c-1.2-1.34-3.17-1.77-4.95-1.5s-3.39,1.16-4.92,2.12c-2.52,1.59-4.88,3.43-7.05,5.48c-2.18,2.06-4.16,4.32-5.91,6.75
		c-1.75,2.43-3.28,5.03-4.54,7.74c-0.63,1.36-1.2,2.75-1.7,4.16c-0.56,1.59-1.11,3.2-1.3,4.89c0,0.04-0.01,0.07-0.01,0.11
		c-0.04,0.38-0.07,0.76,0.01,1.14c0.17,0.82,0.86,1.3,1.69,1.24c0.53-0.03,1.03-0.24,1.51-0.45"/>
</g>
</svg>
