<svg viewBox="0 0 349 481" fill="none" xmlns="http://www.w3.org/2000/svg">
<path d="M348.43 463.94C348.43 454.99 290.98 447.74 220.11 447.74C149.23 447.74 91.7699 455 91.7699 463.94C91.7699 472.88 149.22 480.14 220.11 480.14C290.97 480.14 348.43 472.89 348.43 463.94Z" fill="black"/>
<path d="M101.47 262.1C92.2399 295.46 32.1099 295.74 13.7599 290.01C-4.58007 284.29 -8.34006 244.09 32.4199 252.86C62.3599 259.32 82.0499 232.05 82.0499 232.05L109.91 221C109.91 221 89.4099 239.86 101.47 262.1Z" fill="#F3CFB2"/>
<path d="M153.77 311.85C153.77 311.85 162.95 371.13 174.94 380.23C179.25 383.5 207.85 376.24 211.22 390.84C217.24 417.04 265.29 421.09 265.29 421.09C265.29 421.09 293.67 427.09 300.16 409.03C305.05 395.44 299.2 386.9 287.79 382.05C276.38 377.2 266.49 379.39 265.09 372.54C261.8 356.35 209.93 330.74 209.93 330.74" fill="#F3CFB2"/>
<path d="M155.04 350.23L147.57 393.72L143.65 422.5C143.65 422.5 130.41 467.71 164.06 470.23C188.09 472.03 190.2 461.67 198.31 440.25C206.42 418.83 225.13 355.1 225.13 355.1" fill="#F3CFB2"/>
<path d="M229.67 256.41C229.67 256.41 233.99 243.7 245.16 268.96C255.34 291.95 271.05 304.26 284.57 297.2C301.2 288.53 297.51 269.05 285.65 252.04C274.47 235.99 275.06 234.46 261.72 227.18C251.14 221.41 248.36 218.86 248.36 218.86L225.62 227.52L223.52 243.79L229.67 256.41Z" fill="#F3CFB2"/>
<path d="M124.01 199.87C124.01 199.87 109.36 206.34 84.56 225.06C65.75 239.25 55.22 251.66 55.22 251.66C55.22 251.66 57.41 262.72 69.02 268.26C90.02 278.26 99.21 266.83 99.21 266.83L227.77 252.89L242.56 269.64C242.56 269.64 277.44 262.56 271.67 227.94C253.06 217.6 207.68 197.67 207.68 197.67L124.01 199.87Z" fill="#7ADBD4"/>
<path d="M113.77 178.18C113.77 178.18 113.95 181.17 114.75 196.32C115.12 203.28 98.0799 234.81 96.1099 272.94C95.5899 283.08 94.19 318.87 102.1 344.44C113.8 382.31 141.76 431.97 141.76 431.97C141.76 431.97 142.38 424.67 149.1 422.05C163.6 416.39 177.39 423.71 203.56 419.29C221.35 416.29 262.42 404.71 278.99 369.32C278.99 369.32 264.13 357.63 254.62 335.2C250 324.32 246.69 320.53 243.27 302.77C234.57 257.58 233.73 236.99 226.48 220.94C218.96 204.3 207.68 197.64 207.68 197.64L193.18 196.25C193.18 196.25 198.92 232.79 184.34 233.62C169.77 234.45 135.03 236.75 126.7 229.26C118.38 221.76 125.03 177.96 125.03 177.96L113.77 178.18Z" fill="#FF7276"/>
<path d="M185.85 253.44C185.85 253.44 193.56 298.11 155.25 299.57C116.94 301.03 119.5 265.92 122.77 252.88C122.77 252.88 156.52 256.78 185.85 253.44Z" fill="#FFB1B9"/>
<path d="M185.85 253.44C185.85 253.44 188.38 259.24 187.41 261.82C186.44 264.39 129.87 264.51 121.29 261.97C118.49 260.94 122.77 252.88 122.77 252.88C122.77 252.88 146.04 255.83 185.85 253.44Z" fill="#FF595A"/>
<path d="M143.13 423.71C143.13 423.71 145.39 386.62 158.02 368.68C170.65 350.73 177.38 340.39 177.38 340.39C177.38 340.39 153.81 353.71 146.57 371.22C138.56 390.62 140.72 411.4 143.13 423.71Z" fill="#FF595A"/>
<path d="M138.59 37.37C145.11 36.21 151.84 35.59 158.75 35.59C165.94 35.59 172.94 36.27 179.69 37.53L184.83 16.27C186.72 8.45 180.8 0.929993 172.76 0.929993H145.56C137.51 0.929993 131.6 8.45 133.48 16.27L138.59 37.37Z" fill="#FFAB4D"/>
<path d="M99.06 52.79C110.61 45.33 124.01 39.97 138.57 37.37L133.46 16.27C131.58 8.45 122.87 4.46999 115.72 8.14999L91.52 20.58C84.36 24.26 82.54 33.65 87.8 39.73L99.06 52.79Z" fill="#FF7276"/>
<path d="M218.96 53.15L230.52 39.73C235.78 33.65 233.95 24.25 226.8 20.58L202.6 8.14999C195.45 4.46999 186.75 8.45 184.86 16.27L179.71 37.53C194.19 40.22 207.5 45.64 218.96 53.15Z" fill="#FF7276"/>
<path d="M281.37 118.13L277.39 91.22C276.21 83.27 267.91 78.51 260.46 81.53L249.71 85.87C255.35 96.14 258.83 107.49 259.59 119.49C259.7 121.17 259.77 122.85 259.77 124.55C259.77 126.91 259.63 129.24 259.43 131.54L267.97 132.31C275.98 133.04 282.55 126.08 281.37 118.13Z" fill="#FF7276"/>
<path d="M57.73 124.55C57.73 123.09 57.78 121.62 57.85 120.17C58.54 107.81 62.1 96.13 67.93 85.58L57.85 81.52C50.4 78.51 42.09 83.26 40.92 91.21L36.94 118.12C35.76 126.07 42.34 133.03 50.35 132.31L58.07 131.61C57.87 129.28 57.73 126.94 57.73 124.55Z" fill="#FF7276"/>
<path d="M67.9499 85.57C75.1799 72.55 85.8899 61.32 99.0299 52.81L87.7699 39.76C82.5099 33.67 72.9499 34.11 68.2699 40.64L52.4299 62.76C47.7499 69.29 50.4199 78.49 57.8699 81.5L67.9499 85.57Z" fill="#7ADBD4"/>
<path d="M265.89 62.76L250.05 40.64C245.36 34.1 235.8 33.67 230.55 39.76L218.98 53.17C231.98 61.69 242.56 72.89 249.69 85.86L260.45 81.5C267.9 78.49 270.57 69.29 265.89 62.76Z" fill="#7ADBD4"/>
<path d="M259.59 119.49C235.06 118.46 212.73 110.69 195.32 98.43C200.24 95.57 204.95 90.19 208.77 86.26C211.04 83.93 212.17 81.77 212.17 81.77C212.17 81.77 210.68 83.11 208.17 85.13C205.67 87.16 202.11 89.8 197.99 92.4C195.88 93.73 193.84 94.92 191.95 95.96C191.93 95.95 191.93 95.94 191.91 95.93C153.9 115.72 107.15 125.08 57.85 120.18C57.77 121.63 57.73 123.09 57.73 124.56C57.73 173.7 102.95 213.53 158.75 213.53C214.54 213.53 259.76 173.7 259.76 124.56C259.76 122.86 259.7 121.17 259.59 119.49Z" fill="#F3CFB2"/>
<path d="M191.91 95.93C191.93 95.94 191.94 95.95 191.96 95.96C193.84 94.92 195.89 93.74 197.99 92.41C202.12 89.8 205.67 87.16 208.17 85.13C210.67 83.11 212.17 81.77 212.17 81.77C212.17 81.77 211.03 83.93 208.76 86.26C204.94 90.19 200.23 95.56 195.31 98.42C212.72 110.68 235.05 118.46 259.58 119.48C256.61 72.71 212.6 35.59 158.74 35.59C104.62 35.59 60.44 73.07 57.85 120.17C107.16 125.08 153.9 115.72 191.91 95.93Z" fill="#FFB71B"/>
<path d="M99.59 171.34C99.59 175.3 96.0899 178.5 91.7699 178.5C87.4499 178.5 83.95 175.3 83.95 171.34C83.95 167.38 87.4499 164.18 91.7699 164.18C96.0999 164.18 99.59 167.38 99.59 171.34Z" fill="#FF7276"/>
<path d="M196.04 171.34C196.04 175.3 192.54 178.5 188.22 178.5C183.89 178.5 180.39 175.3 180.39 171.34C180.39 167.38 183.89 164.18 188.22 164.18C192.54 164.18 196.04 167.38 196.04 171.34Z" fill="#FF7276"/>
<path d="M106.03 139.82C106.03 147.03 104.41 152.87 102.42 152.87C100.43 152.87 98.8099 147.03 98.8099 139.82C98.8099 132.62 100.43 126.78 102.42 126.78C104.41 126.78 106.03 132.62 106.03 139.82Z" fill="#231010"/>
<path d="M185.65 138.6C185.57 138.6 185.49 138.58 185.42 138.52C182.75 136.74 178.49 134.6 173.38 134.6C168.26 134.6 164.04 136.68 161.41 138.42C161.35 138.43 161.29 138.43 161.24 138.43C160.86 138.43 160.6 138.18 160.6 137.72C164.51 134.11 168.85 132.53 173.38 132.53C177.93 132.53 182.29 134.1 185.99 137.08L186.22 137.8C186.21 138.33 185.88 138.6 185.65 138.6Z" fill="#231010"/>
<path d="M103.02 133.74C103.02 131.61 102.36 129.86 101.56 129.86C100.75 129.86 100.1 131.6 100.1 133.74C100.1 135.88 100.75 137.62 101.56 137.62C102.36 137.62 103.02 135.88 103.02 133.74Z" fill="white"/>
<path d="M139.56 161.06C139.36 160.48 139.16 159.91 139.01 159.31C139.03 159.94 139.23 160.54 139.56 161.06Z" fill="#FF7276"/>
<path d="M151.11 156.11C148.15 158.06 144.28 159.65 140.02 159.65C135.74 159.65 131.85 158 128.89 156.01C127.18 154.87 125.18 156.56 125.18 159.11V159.19C125.18 159.23 125.2 159.27 125.2 159.31C125.32 159.9 125.46 160.49 125.62 161.06C127.73 168.71 133.33 174.23 139.97 174.23C146.6 174.23 152.18 168.76 154.3 161.13C154.49 160.48 154.65 159.81 154.78 159.13C154.75 156.63 152.8 154.99 151.11 156.11Z" fill="#FF7276"/>
</svg>
