<svg viewBox="0 0 580 154" fill="none" xmlns="http://www.w3.org/2000/svg">
<path d="M188.531 0C189.65 0.66583 190.184 1.61064 190.974 1.93867C192.557 2.59581 194.279 2.91559 195.944 3.37464C196.548 4.06498 197.151 4.75532 197.755 5.44566C196.079 6.21972 194.157 6.68931 192.765 7.81421C176.021 21.3413 166.701 39.9227 157.937 58.937C151.72 72.4254 146.915 86.3982 144.696 101.014C143.416 109.439 143.689 118.206 144.261 126.753C144.48 130.027 147.478 133.116 149.598 137.001C143.918 137.001 138.998 137.001 133.434 136.674C132.189 136.068 131.614 135.659 130.981 135.528C112.671 131.745 103.458 119.397 99.5527 102.104C95.7099 85.0862 96.532 68.0109 99.6398 51.0403C101.052 43.3298 103.512 35.8113 105.497 28.2057C92.0499 43.2385 88.7623 62.0518 85.8367 80.9998C82.2245 94.1606 78.9938 107.443 74.861 120.438C72.2657 128.599 68.2715 136.294 58.8943 140.196C49.83 143.406 41.2675 143.812 32.7476 141.572C27.0559 140.075 21.5747 137.777 15.8742 135.522C13.9682 132.781 12.1873 130.355 9.74854 127.033C13.6743 127.435 16.1396 128.254 18.3384 127.795C22.9659 126.83 27.4537 125.194 32.3324 123.805C39.5484 119.785 44.1063 113.681 47.4173 106.704C50.8957 99.3738 54.1887 91.9212 56.9905 84.3116C64.7872 63.1356 72.2946 41.8546 84.8105 22.8191C85.1101 22.3634 84.9877 21.6301 85.0335 21.0136C85.0049 21.0009 85.0245 21.0605 85.3555 21.1321C85.8065 20.8008 85.9265 20.3979 86.04 20.0133C86.0335 20.0315 85.9977 20.0466 86.2911 20.0424C86.6752 19.6858 86.766 19.3334 86.9874 18.6657C87.707 17.7695 88.3462 17.231 88.8776 16.6014C98.1606 5.60254 113.193 1.51999 128.356 8.75648C129.655 9.37645 130.976 9.9506 131.426 10.1553C128.399 16.6103 125.351 22.2502 123.057 28.1821C118.358 40.3362 114.931 52.8499 114.069 66.3684C111.366 80.981 109.928 95.0703 117.685 109.402C118.018 107.889 118.206 107.449 118.199 107.012C117.702 74.8242 127.569 45.5789 143.398 18.012C144.11 16.7709 144.507 15.3485 145.025 14.0038C144.998 13.9972 145.008 14.0508 145.305 14.0603C145.689 13.7088 145.775 13.3476 145.989 12.6699C150.573 8.08086 154.348 2.88402 160.912 1.43825C161.041 1.40992 160.975 0.499096 161 0C170.021 0 179.042 0 188.531 0Z" fill="#FFFEFD"/>
<path d="M527.876 52.9654C534.213 42.4168 544.62 38.3955 555.864 37.2293C565.109 36.2703 574.411 37.6667 579.697 47.2898C580 50.6929 580 54.3858 580 58.5394C579.334 59.4786 578.446 59.8179 578.042 60.461C576.599 62.7556 575.558 65.3472 573.864 67.4174C573.183 68.2496 571.209 68.0234 569.43 67.7601C567.857 60.8819 558.416 54.5193 552.46 56.5096C550.551 57.1473 548.399 59.1874 547.833 61.0372C547.382 62.5117 548.661 65.3468 550.059 66.4052C554.794 69.9889 559.924 73.0512 564.903 76.3127C578.63 85.9252 576.717 108.936 560.938 116.191C552.851 117.856 545.409 120.695 538.06 120.473C526.615 120.128 514.341 115.97 516.983 99.4174C517.074 98.8496 516.929 98.2443 516.893 97.6565C516.473 97.423 516.053 97.1896 515.632 96.9561C512.7 100.971 509.768 104.986 506.837 109.001C505.14 110.563 503.444 112.125 501.119 113.799C500.307 114.267 500.125 114.622 499.943 114.978C499.943 114.978 500.001 114.996 499.626 114.82C498.036 115.18 496.836 115.756 495.602 116.245C476.372 123.864 461.727 117.9 458.662 96.6197C456.727 83.1804 459.221 70.4868 465.457 58.4669C466.177 57.0793 466.537 55.5046 467.063 54.0166C467.063 54.0166 467.004 54.0005 467.342 54.0908C467.799 53.7795 467.918 53.378 468.037 52.9765C468.037 52.9765 468.187 52.6963 468.441 52.6524C468.695 52.6084 468.853 52.2339 468.853 52.2339C476.286 42.2542 485.531 36.0747 498.67 36.9318C510.523 37.7052 519.193 45.3831 521.618 57.4439C521.321 69.0077 520.699 79.9339 520.089 90.6367C521.805 90.0071 523.711 89.3082 525.616 88.6093C525.731 90.5865 525.839 92.5642 525.967 94.5406C525.998 95.0328 526.091 95.5211 526.084 96.4051C526.749 103.159 530.509 106.074 539.399 106.954C544.084 107.192 548.767 107.099 550.358 102.47C551.897 97.9927 548.606 94.6905 545.256 92.0526C542.395 89.8005 539.369 87.7592 536.421 85.6178C524.974 77.3027 522.418 69.241 526.957 55.9093C527.153 55.3323 527.032 54.6473 527.059 54.0127C527.059 54.0127 527.001 53.9991 527.322 54.0577C527.72 53.7327 527.798 53.3491 527.876 52.9654ZM491.527 108.078C493.629 106.241 496.113 104.695 497.765 102.517C504.322 93.8753 508.235 83.9771 509.746 73.3127C510.33 69.1875 509.945 64.667 508.868 60.6286C507.469 55.3774 502.864 54.2424 498.929 57.9777C496.602 60.1873 495.101 63.2682 493.015 66.6985C487.382 78.1995 483.33 90.07 483.967 103.153C484.233 108.618 485.447 109.623 491.527 108.078Z" fill="#FFFEFD"/>
<path d="M0 137.4C5.06236 136.667 10.1247 136.334 15.5932 135.919C21.5747 137.777 27.0559 140.075 32.7476 141.572C41.2674 143.812 49.83 143.406 58.5483 140.34C55.6487 146.773 50.1821 150.285 43.3466 152.021C42.3254 152.281 41.3918 152.885 40.7089 153.665C35.6451 154 30.2901 154 24.7588 153.646C23.5909 152.862 22.6139 152.394 21.6056 152.007C16.2737 149.962 10.8311 148.163 5.64625 145.798C3.48449 144.812 1.86569 142.635 2.02656e-06 141C2.65579e-08 139.933 0 138.867 0 137.4Z" fill="#FFB817"/>
<path d="M364.135 18.6423C369.801 7.50313 380.435 4.65888 394.163 10.6635C395.891 11.4191 397.509 12.425 399.07 13.2575C395.287 21.6911 391.696 29.6977 387.957 38.0346C391.162 38.0346 393.815 38.0346 397.182 38.0346C396.729 39.6111 396.368 40.8659 395.683 42.6212C395.318 43.6608 395.278 44.1999 395.238 44.7389C395.677 44.4235 396.116 44.1081 396.556 43.7927C404.298 37.9914 418.286 38.7052 428.042 45.5485C425.702 49.4317 423.348 53.3371 420.963 57.6264C420.93 58.0104 420.947 57.9314 420.644 58.0364C420.274 58.7526 420.207 59.3637 419.98 60.2868C416.934 65.742 414.049 70.8854 411.163 76.0287C411.694 76.3221 412.224 76.6154 412.755 76.9088C415.416 72.5844 418.123 68.287 420.723 63.9253C422.26 61.3448 423.628 58.6626 425.071 56.0262C425.071 56.0262 425.008 56.0021 425.372 56.1267C425.838 55.8307 425.939 55.4103 426.04 54.9898C426.04 54.9898 426.031 55.0271 426.284 55.0516C426.727 54.7756 426.918 54.475 427.109 54.1745C431.858 47.3992 437.924 41.9915 445.679 39.2323C455.435 35.7613 460.851 40.2371 461.984 52.6369C462.119 54.1165 462.01 55.6184 461.912 57.8968C459.493 68.151 456.354 77.1978 448.834 83.9987C448.127 84.2429 447.419 84.4872 446.023 84.789C441.098 85.2036 437.547 83.8731 435.759 81.8642C437.727 76.5061 440.076 72.1302 440.805 67.4991C441.409 63.6625 437.941 62.0959 434.931 64.695C431.836 67.3676 429.356 70.7525 426.607 73.8256C421.05 84.7044 415.394 95.5348 410.003 106.495C408.618 109.31 407.288 112.537 407.296 115.571C407.314 121.887 403.719 122.448 398.306 121.751C389.317 119.482 387.269 112.296 384.892 105.076C381.272 109.008 378.054 112.504 374.836 116C374.166 116.532 373.496 117.063 372.214 117.691C371.38 118.178 371.159 118.57 370.938 118.962C370.938 118.962 371.003 118.986 370.626 118.735C369.319 118.843 368.391 119.211 367.456 119.561C357.225 123.397 349.072 119.239 346.501 108.611C345.647 105.082 344.766 101.286 345.198 97.7713C346.673 85.7582 348.601 73.795 350.624 61.8581C351.352 57.5602 352.838 53.3906 353.803 49.8134C351.098 48.6506 349.033 47.7633 346.969 46.8761C347.762 44.5187 348.556 42.1614 349.953 39.4961C352.998 38.6734 357.012 38.8605 357.608 37.5231C360.311 31.4648 362.049 24.9761 364.135 18.6423ZM385.251 48.9962C380.232 50.6594 380.857 55.2153 379.792 59.7564C376.616 68.9602 373.184 78.0866 370.362 87.3977C368.733 92.7707 367.888 98.4161 367.166 104C367.016 105.162 368.966 106.594 370.622 108.019C370.77 107.692 370.918 107.366 371.009 107.004C371.009 107.004 371.046 107.06 371.67 107.546C378.501 102.851 383.555 97.6858 384.695 88.3541C386.234 75.7522 390.029 63.4259 392.974 50.1447C390.654 49.8131 388.334 49.4815 385.251 48.9962Z" fill="#FFFEFD"/>
<path d="M209.837 109.001C208.14 110.564 206.443 112.127 204.117 113.802C203.306 114.269 203.124 114.623 202.943 114.978C202.943 114.978 203.001 114.996 202.626 114.821C200.889 115.26 199.554 115.951 198.158 116.476C179.489 123.498 165.044 118.221 161.735 97.1104C159.604 83.5145 162.125 70.6467 168.454 58.4666C169.175 57.0788 169.536 55.5035 170.063 54.0151C170.063 54.0151 170.005 53.9979 170.403 54.0072C170.936 53.5339 171.07 53.0512 171.204 52.5686C177.329 45.8843 183.209 38.9973 192.998 37.4128C207.96 34.9908 221.076 40.8627 224.618 57.4441C224.325 69.0046 223.706 79.9273 223.105 90.5319C224.797 90.0446 226.735 89.4866 228.673 88.9287C228.778 90.7989 228.877 92.6696 228.991 94.5392C229.021 95.0314 229.1 95.5206 229.084 96.4049C229.749 103.159 233.509 106.074 242.399 106.954C247.085 107.193 251.762 107.095 253.363 102.468C254.916 97.9796 251.604 94.6954 248.26 92.0579C245.401 89.8028 242.373 87.7629 239.425 85.6214C227.974 77.3051 225.417 69.2419 229.956 55.9097C230.153 55.3326 230.032 54.6475 230.059 54.0127C230.059 54.0127 230.002 53.9994 230.321 54.0577C230.719 53.7326 230.798 53.3491 230.876 52.9656C238.32 41.3672 249.795 37.203 262.664 37.2279C269.958 37.242 278.435 37.7442 281.222 46.9149C282.28 50.3964 281.795 54.3467 281.934 58.8519C279.568 62.8009 277.281 65.9814 274.684 69.087C273.639 68.6731 272.905 68.3342 272.104 67.6183C270.855 60.892 261.396 54.502 255.44 56.4777C253.533 57.1105 251.396 59.1801 250.826 61.0405C250.375 62.5105 251.651 65.3405 253.047 66.3955C257.787 69.9805 262.921 73.0462 268.079 76.5738C269.227 77.5601 270.201 78.2829 271.198 79.3489C276.8 87.0786 278.675 95.1178 275.001 103.872C273.685 107.008 271.682 109.855 269.993 112.834C268.199 113.888 266.405 114.941 263.931 116.191C256.348 117.858 249.485 120.318 242.535 120.596C226.944 121.219 220.191 114.244 219.979 98.9234C219.973 98.4966 219.809 98.0721 219.361 95.9597C215.708 100.962 212.772 104.981 209.837 109.001ZM194.527 108.077C196.629 106.241 199.104 104.69 200.767 102.517C207.257 94.0336 211.081 84.2678 212.659 73.803C213.303 69.5267 212.941 64.8313 211.859 60.6297C210.506 55.3727 205.864 54.2429 201.929 57.9781C199.602 60.1875 198.101 63.2683 196.015 66.6984C190.382 78.1995 186.33 90.0702 186.967 103.154C187.233 108.617 188.448 109.623 194.527 108.077Z" fill="#FFFEFD"/>
<path d="M333.835 103.998C329.795 107.58 325.755 111.162 321.095 114.884C320.299 115.345 320.123 115.667 319.948 115.989C319.948 115.989 320.003 116.001 319.612 115.873C316.864 116.551 314.544 117.491 312.145 118.14C295.425 122.663 283.947 115.402 280.936 98.3046C278.737 85.823 280.416 73.7838 285.721 62.2856C287.381 58.6878 289.312 55.2148 291.119 51.6847C298.577 42.3133 307.496 36.0933 320.265 36.9185C328.541 37.4533 334.897 40.9501 339.97 48.0461C347.699 66.4327 344.579 83.1832 335.679 99.4543C334.9 100.879 334.442 102.48 333.835 103.998ZM312.002 107.999C312.002 107.999 312.014 108.049 312.715 108.334C315.413 105.979 318.651 104.017 320.707 101.194C326.763 92.8796 330.531 83.3762 331.685 73.2142C332.195 68.7262 330.956 63.8219 329.571 59.401C328.317 55.3965 324.926 54.5548 321.793 57.3544C319.166 59.7014 317.405 63.0169 315.022 66.5015C314.263 68.2438 313.536 70.0006 312.74 71.726C307.943 82.1325 305.311 92.9745 305.988 104.514C306.179 107.772 307.673 109.322 311.59 108.863C311.744 108.58 311.898 108.296 312.002 107.999Z" fill="#FFFEFD"/>
<path d="M85.9089 81.4642C88.7623 62.0518 92.0499 43.2385 105.497 28.2057C103.512 35.8113 101.052 43.3298 99.6398 51.0402C96.5321 68.0108 95.7099 85.0862 99.5527 102.104C103.458 119.397 112.671 131.745 130.981 135.528C131.614 135.659 132.189 136.068 132.977 136.673C134.832 140.154 136.5 143.308 138.321 146.752C124.971 147.864 113.053 146.006 102.431 138.154C94.8891 132.579 91.8338 124.409 89.0779 116.138C85.3792 105.039 85.8895 93.4371 85.9089 81.4642Z" fill="#FFB818"/>
<path d="M169.727 54.0764C169.536 55.5035 169.175 57.0788 168.454 58.4666C162.125 70.6467 159.604 83.5145 161.735 97.1104C165.044 118.221 179.489 123.498 198.158 116.476C199.554 115.951 200.889 115.26 202.619 114.792C193.843 126.852 182.019 132.142 167.082 128.949C157.832 126.972 153.616 119.547 152.211 111.433C148.448 89.7019 151.857 69.6882 169.727 54.0764Z" fill="#FFB818"/>
<path d="M448.908 84.4287C456.354 77.1978 459.493 68.1509 461.986 58.3388C463.581 56.7022 464.999 55.4104 466.74 54.0676C466.537 55.5046 466.177 57.0793 465.457 58.4669C459.22 70.4867 456.726 83.1804 458.662 96.6197C461.727 117.9 476.372 123.864 495.602 116.245C496.836 115.756 498.036 115.18 499.618 114.791C490.821 126.884 478.951 132.196 464.001 128.932C454.793 126.921 450.496 119.468 449.291 111.29C448.019 102.652 448.99 93.6831 448.908 84.4287Z" fill="#FFB819"/>
<path d="M290.777 51.8256C289.312 55.2148 287.381 58.6878 285.721 62.2856C280.416 73.7838 278.737 85.8229 280.936 98.3046C283.947 115.402 295.425 122.663 312.145 118.14C314.544 117.491 316.864 116.551 319.608 115.845C311.103 127.328 299.597 131.856 285.37 128.989C276.751 127.252 273.175 120.677 270.324 113.01C271.682 109.855 273.685 107.008 275.001 103.872C278.675 95.1178 276.8 87.0786 271.516 79.1647C272.872 75.4787 273.933 72.3203 274.994 69.1619C277.281 65.9814 279.568 62.8009 282.008 59.3068C284.919 56.651 287.677 54.3087 290.777 51.8256Z" fill="#FFB819"/>
<path d="M333.908 104.458C334.442 102.48 334.9 100.879 335.679 99.4543C344.579 83.1831 347.699 66.4327 340.11 48.3686C342.194 47.737 344.226 47.4787 346.614 47.0482C349.033 47.7633 351.098 48.6505 353.803 49.8134C352.838 53.3905 351.352 57.5601 350.624 61.8581C348.601 73.795 346.673 85.7582 345.198 97.7713C344.766 101.286 345.647 105.082 346.501 108.611C349.072 119.239 357.225 123.397 367.456 119.561C368.391 119.211 369.319 118.843 370.611 118.704C365.63 126.243 358.419 130.584 349.507 131.85C344.055 132.625 336.351 126.22 335.125 119.605C334.234 114.804 334.327 109.82 333.908 104.458Z" fill="#FFB819"/>
<path d="M209.908 109.439C212.772 104.981 215.708 100.962 219.361 95.9596C219.809 98.072 219.973 98.4966 219.979 98.9233C220.191 114.244 226.944 121.219 242.535 120.596C249.485 120.318 256.348 117.858 263.593 116.328C261.812 123.084 255.953 125.722 250.183 128.294C242.426 131.753 233.948 132.097 225.992 130.658C216.652 128.968 209.674 124.667 209.908 109.439Z" fill="#FFB717"/>
<path d="M506.908 109.439C509.768 104.986 512.7 100.971 515.632 96.9562C516.053 97.1896 516.473 97.4231 516.893 97.6566C516.928 98.2444 517.074 98.8497 516.983 99.4174C514.341 115.97 526.615 120.128 538.06 120.473C545.409 120.695 552.851 117.856 560.593 116.328C558.812 123.084 552.953 125.722 547.183 128.294C539.426 131.753 530.948 132.098 522.992 130.658C513.652 128.968 506.674 124.667 506.908 109.439Z" fill="#FFB717"/>
<path d="M229.156 96.011C229.1 95.5205 229.021 95.0313 228.991 94.5391C228.877 92.6695 228.778 90.7988 228.673 88.9286C226.735 89.4865 224.797 90.0445 223.105 90.5318C223.706 79.9272 224.325 69.0045 224.966 57.6237C226.454 56.1574 227.921 55.1492 229.723 54.0768C230.032 54.6474 230.153 55.3326 229.956 55.9097C225.417 69.2418 227.974 77.305 239.425 85.6213C242.373 87.7628 245.401 89.8027 248.26 92.0578C251.604 94.6953 254.916 97.9795 253.363 102.468C251.762 107.095 247.085 107.193 242.285 106.645C237.553 102.827 233.355 99.419 229.156 96.011Z" fill="#FFB91C"/>
<path d="M526.156 96.0113C526.091 95.5212 525.998 95.0329 525.967 94.5406C525.839 92.5642 525.731 90.5866 525.616 88.6094C523.711 89.3083 521.805 90.0071 520.089 90.6367C520.699 79.9339 521.321 69.0078 521.965 57.6237C523.454 56.1576 524.921 55.1493 526.723 54.0769C527.032 54.6474 527.153 55.3324 526.957 55.9093C522.418 69.2411 524.974 77.3027 536.421 85.6178C539.369 87.7593 542.395 89.8006 545.255 92.0526C548.606 94.6906 551.897 97.9928 550.358 102.47C548.767 107.099 544.083 107.192 539.285 106.645C534.554 102.827 530.355 99.4192 526.156 96.0113Z" fill="#FFB91C"/>
<path d="M374.914 116.381C378.054 112.504 381.272 109.008 384.892 105.076C387.269 112.296 389.317 119.482 397.88 121.773C397.725 124.287 397.471 126.555 396.937 128.755C396.112 132.154 390.874 133.088 385.79 131.355C378.696 128.937 376.948 122.836 374.914 116.381Z" fill="#FFB818"/>
<path d="M427.004 73.905C429.356 70.7525 431.836 67.3676 434.931 64.695C437.941 62.096 441.409 63.6625 440.805 67.4992C440.076 72.1302 437.727 76.5061 435.759 81.8643C437.547 83.8731 441.098 85.2036 445.754 84.9173C441.825 94.338 434.476 97.4501 426.747 93.3348C424.111 91.9307 422.801 91.3494 425.835 88.2848C428.741 85.3495 432.203 81.539 429.997 76.4369C429.563 75.433 428.288 74.7924 427.004 73.905Z" fill="#FFB818"/>
<path d="M565.225 76.1138C559.924 73.0512 554.794 69.9889 550.059 66.4052C548.661 65.3469 547.382 62.5118 547.833 61.0372C548.399 59.1874 550.551 57.1474 552.46 56.5096C558.416 54.5194 567.857 60.8819 569.104 67.618C567.963 70.6348 566.755 73.2748 565.225 76.1138Z" fill="#FFB91B"/>
<path d="M363.763 18.7993C362.049 24.976 360.311 31.4648 357.608 37.5231C357.012 38.8605 352.998 38.6733 350.088 39.1918C351.335 34.6776 353.188 30.2052 354.731 25.6287C356.167 21.3716 359.369 19.7044 363.763 18.7993Z" fill="#FFB81C"/>
<path d="M424.705 56.1088C423.628 58.6626 422.26 61.3448 420.723 63.9253C418.123 68.287 415.416 72.5843 412.755 76.9087C412.224 76.6154 411.694 76.322 411.163 76.0287C414.049 70.8854 416.934 65.742 420.322 60.1408C420.865 59.0991 420.906 58.5152 420.947 57.9313C420.947 57.9313 420.93 58.0104 420.895 57.9903C422.02 57.3772 423.179 56.7843 424.705 56.1088Z" fill="#FFBB28"/>
<path d="M371.254 118.917C371.159 118.57 371.38 118.178 371.998 117.841C372.12 118.222 371.845 118.547 371.254 118.917Z" fill="#FFB819"/>
<path d="M527.627 53.0466C527.798 53.349 527.72 53.7327 527.331 54.0857C527.14 53.746 527.259 53.4369 527.627 53.0466Z" fill="#FFB91C"/>
<path d="M320.224 115.966C320.123 115.667 320.299 115.345 320.788 115.037C320.901 115.348 320.701 115.645 320.224 115.966Z" fill="#FFB819"/>
<path d="M500.235 114.95C500.125 114.622 500.307 114.267 500.837 113.944C500.965 114.291 500.746 114.607 500.235 114.95Z" fill="#FFB819"/>
<path d="M203.234 114.95C203.124 114.623 203.306 114.269 203.835 113.946C203.963 114.293 203.745 114.608 203.234 114.95Z" fill="#FFB818"/>
<path d="M230.627 53.0469C230.798 53.3491 230.719 53.7326 230.331 54.0856C230.139 53.7461 230.259 53.4371 230.627 53.0469Z" fill="#FFB91C"/>
<path d="M170.92 52.7527C171.07 53.0512 170.936 53.5339 170.411 54.0366C170.225 53.6833 170.431 53.3101 170.92 52.7527Z" fill="#FFB818"/>
<path d="M468.735 52.2078C468.853 52.2339 468.695 52.6084 468.587 52.5886C468.479 52.5688 468.616 52.1817 468.735 52.2078Z" fill="#FFFEFD"/>
<path d="M32.3324 123.805C43.32 103.762 49.0426 81.3563 58.4106 60.4973C64.4457 47.0596 70.4005 33.2972 81.6017 22.934C82.4141 22.1824 83.4265 21.647 84.704 21.0187C84.9877 21.6301 85.1101 22.3633 84.8104 22.8191C72.2946 41.8546 64.7872 63.1355 56.9904 84.3116C54.1887 91.9212 50.8956 99.3738 47.4173 106.704C44.1063 113.681 39.5484 119.785 32.3324 123.805Z" fill="#FFB81A"/>
<path d="M114.069 66.3683C119.43 54.2799 124.54 42.5184 130.081 30.9633C133.336 24.1751 137.89 18.2346 144.694 14.0105C144.507 15.3484 144.11 16.7708 143.398 18.0119C127.569 45.5789 117.702 74.8242 118.199 107.012C118.206 107.449 118.018 107.889 117.685 109.402C109.928 95.0703 111.366 80.981 114.069 66.3683Z" fill="#FFB91B"/>
<path d="M145.305 14.0603C145.13 13.7478 145.251 13.4447 145.617 13.0641C145.775 13.3476 145.689 13.7088 145.305 14.0603Z" fill="#FFB91B"/>
<path d="M86.2911 20.0424C86.1201 19.7418 86.2424 19.437 86.6107 19.0566C86.766 19.3334 86.6753 19.6858 86.2911 20.0424Z" fill="#FFB81A"/>
<path d="M85.3554 21.1321C85.1751 20.7322 85.3257 20.404 85.7614 20.0354C85.9264 20.3979 85.8064 20.8009 85.3554 21.1321Z" fill="#FFB81A"/>
<path d="M493.229 65.9573C495.101 63.2682 496.602 60.1872 498.929 57.9777C502.864 54.2424 507.469 55.3774 508.868 60.6286C509.945 64.667 510.33 69.1874 509.746 73.3127C508.235 83.9771 504.322 93.8753 497.765 102.517C496.113 104.695 493.629 106.241 491.256 107.685C493.946 98.6295 497.19 90.0508 499.774 81.2775C501.8 74.3977 498.733 68.0378 493.229 65.9573Z" fill="#FFB819"/>
<path d="M392.856 50.9813C390.029 63.4259 386.234 75.7522 384.695 88.3541C383.555 97.6858 378.501 102.851 371.432 106.936C372.127 104.666 373.57 103.095 373.874 101.328C374.342 98.5962 373.493 95.5982 374.146 92.9448C376.938 81.5844 380.076 70.3088 383.059 59.0136C383.031 59.0249 382.984 59.0651 383.317 58.9395C385.401 54.6545 387.694 51.1319 392.856 50.9813Z" fill="#FFB819"/>
<path d="M383.059 59.0136C382.37 58.995 381.651 58.9877 380.514 59.0201C380.857 55.2152 380.232 50.6594 385.617 49.4451C384.983 52.951 383.983 56.008 382.984 59.0651C382.984 59.0651 383.031 59.0249 383.059 59.0136Z" fill="#FFB91D"/>
<path d="M370.285 107.96C370.143 107.621 370.339 107.34 370.8 107.049C370.918 107.366 370.77 107.692 370.285 107.96Z" fill="#FFB819"/>
<path d="M196.229 65.9572C198.102 63.2683 199.602 60.1875 201.929 57.9781C205.864 54.2429 210.506 55.3727 211.86 60.6297C212.941 64.8313 213.303 69.5267 212.659 73.803C211.081 84.2678 207.257 94.0336 200.767 102.517C199.104 104.69 196.629 106.241 194.256 107.685C196.946 98.6293 200.19 90.0507 202.774 81.2776C204.8 74.3981 201.733 68.0383 196.229 65.9572Z" fill="#FFB819"/>
<path d="M267.904 76.3103C262.921 73.0462 257.787 69.9804 253.047 66.3954C251.652 65.3405 250.375 62.5104 250.826 61.0405C251.397 59.1801 253.533 57.1104 255.44 56.4777C261.396 54.502 270.855 60.892 271.941 67.9534C270.53 71.2137 269.217 73.762 267.904 76.3103Z" fill="#FFB91B"/>
<path d="M315.26 65.9036C317.405 63.0169 319.166 59.7014 321.793 57.3544C324.926 54.5548 328.317 55.3965 329.571 59.401C330.956 63.8219 332.195 68.7262 331.685 73.2142C330.531 83.3762 326.763 92.8796 320.707 101.194C318.651 104.017 315.413 105.979 312.363 107.814C316.694 97.4627 320.929 87.4559 320.921 76.3321C320.918 72.074 319.959 67.8465 315.26 65.9036Z" fill="#FFB819"/>
<path d="M311.3 108.84C311.189 108.553 311.369 108.289 311.8 108.018C311.898 108.296 311.744 108.579 311.3 108.84Z" fill="#FFB819"/>
</svg>
