<svg viewBox="0 0 564 350" fill="none" xmlns="http://www.w3.org/2000/svg">
<path d="M43.4395 340.915C42.9495 343.365 42.5195 345.775 42.1595 348.135C41.9295 348.875 41.5995 349.365 41.1895 349.595C40.7695 349.825 39.9595 349.825 38.7595 349.595C37.5595 349.275 36.3895 348.955 35.2495 348.655C34.1195 348.355 33.1095 347.965 32.2295 347.475C31.3495 346.985 30.6895 346.375 30.2495 345.635C29.8095 344.895 29.7295 343.925 30.0095 342.715C30.4295 341.605 30.8095 339.725 31.1595 337.085C31.5095 334.445 31.8195 331.445 32.0995 328.085C32.3795 324.725 32.6595 321.245 32.9295 317.635C33.2095 314.025 33.4895 310.685 33.7595 307.635C34.0295 304.585 34.3495 302.025 34.6995 299.955C35.0495 297.895 35.4495 296.745 35.9095 296.515C37.6695 295.585 39.6095 294.625 41.7495 293.635C43.8795 292.635 46.0795 291.735 48.3495 290.925C50.6195 290.115 52.8995 289.445 55.1895 288.915C57.4795 288.385 59.6895 288.095 61.8195 288.045C63.9495 287.995 65.9295 288.245 67.7595 288.775C69.5895 289.305 71.1695 290.225 72.5195 291.515C74.0895 293.275 75.5395 295.165 76.8595 297.175C78.1795 299.185 79.2095 301.655 79.9495 304.575C80.2695 306.015 80.3495 307.355 80.1895 308.605C80.0295 309.855 79.6795 311.035 79.1495 312.145C78.6195 313.255 77.9495 314.325 77.1395 315.345C76.3295 316.365 75.4395 317.365 74.4695 318.335C72.8995 319.905 71.0095 321.435 68.8095 322.915C66.6095 324.395 64.2095 325.785 61.6195 327.085C59.0295 328.385 56.3095 329.555 53.4595 330.595C50.6095 331.635 47.7995 332.525 45.0195 333.265C44.4495 335.915 43.9195 338.465 43.4395 340.915ZM56.5995 316.435C59.0495 314.935 61.0695 313.375 62.6395 311.785C64.2095 310.185 65.3195 308.645 65.9695 307.165C66.6195 305.685 66.7595 304.435 66.3895 303.415C66.2495 302.855 65.7495 302.435 64.8995 302.125C64.0395 301.825 62.9595 301.695 61.6395 301.745C60.3195 301.795 58.8395 301.995 57.1895 302.375C55.5495 302.745 53.8695 303.305 52.1495 304.045C51.4095 306.545 50.6995 309.145 50.0295 311.825C49.3595 314.515 48.6795 317.315 47.9795 320.235C51.2795 319.195 54.1495 317.935 56.5995 316.435Z" fill="#FF0000"/>
<path d="M101.65 295.345C101.9 295.995 101.869 296.945 101.549 298.195C100.899 300.275 100.2 302.665 99.4295 305.345C98.6695 308.035 97.8995 310.865 97.1395 313.855C96.3795 316.845 95.6195 319.895 94.8795 323.025C94.1395 326.155 93.4195 329.205 92.7295 332.195C92.0295 335.185 91.3995 338.005 90.8195 340.665C90.2395 343.325 89.7395 345.705 89.3295 347.785C89.0995 348.575 88.7795 349.085 88.3895 349.315C87.9995 349.545 87.1995 349.525 85.9895 349.245C84.7895 348.925 83.6395 348.595 82.5495 348.275C81.4595 347.955 80.4295 347.535 79.4595 347.025C78.3895 346.515 77.6895 345.925 77.3395 345.255C76.9895 344.585 76.8895 343.645 77.0295 342.445C77.1195 340.825 77.3195 338.725 77.6195 336.155C77.9195 333.585 78.2895 330.775 78.7295 327.715C79.1695 324.655 79.6695 321.445 80.2195 318.055C80.7795 314.675 81.3395 311.365 81.9195 308.125C82.4995 304.885 83.0895 301.815 83.6895 298.925C84.2895 296.035 84.8495 293.495 85.3595 291.315C85.7795 289.975 86.3395 289.155 87.0595 288.845C87.7795 288.545 88.8495 288.605 90.2895 289.015C91.7195 289.385 93.2795 289.945 94.9395 290.685C96.6095 291.425 98.0695 292.215 99.3195 293.045C100.62 293.935 101.39 294.705 101.65 295.345Z" fill="#FF0000"/>
<path d="M110.329 290.455C112.709 289.595 115.249 288.955 117.939 288.505C120.629 288.065 123.369 287.905 126.169 288.015C128.969 288.135 131.679 288.665 134.299 289.615C136.919 290.565 139.339 291.985 141.559 293.885C143.779 295.785 145.659 298.305 147.189 301.455C148.489 303.955 149.299 306.685 149.619 309.655C149.939 312.615 149.769 315.665 149.099 318.785C148.429 321.915 147.259 325.025 145.589 328.125C143.919 331.225 141.759 334.145 139.099 336.875C136.439 339.605 133.279 342.065 129.619 344.235C125.959 346.415 121.819 348.145 117.189 349.445C114.829 350.275 112.349 350.075 109.759 348.825C108.459 348.175 107.329 347.535 106.359 346.915C105.389 346.285 104.279 345.515 103.029 344.585C102.569 344.165 102.129 343.765 101.709 343.365C101.289 342.975 100.929 342.525 100.629 342.015C100.329 341.505 100.129 340.885 100.039 340.135C99.9494 339.395 99.9694 338.445 100.109 337.285L104.139 293.175C105.869 292.225 107.949 291.305 110.329 290.455ZM122.729 333.035C125.319 330.885 127.449 328.625 129.119 326.265C130.789 323.905 132.039 321.545 132.869 319.175C133.699 316.815 134.189 314.615 134.329 312.575C134.509 309.755 134.189 307.555 133.359 305.975C132.529 304.405 131.069 303.225 128.979 302.435C126.899 301.645 124.349 301.745 121.339 302.715C119.719 308.785 118.279 314.765 117.029 320.675C115.779 326.575 114.569 332.545 113.419 338.565C117.039 337.025 120.139 335.185 122.729 333.035Z" fill="#FF0000"/>
<path d="M163.4 291.185C165.83 290.625 168.38 290.115 171.04 289.655C173.7 289.195 176.43 288.785 179.24 288.435C182.04 288.085 184.83 287.865 187.61 287.775C190.25 287.725 191.94 288.745 192.68 290.835C193.28 291.945 193.7 292.955 193.93 293.855C194.16 294.755 194.39 295.745 194.62 296.805C194.8 298.005 194.71 298.815 194.34 299.235C193.97 299.655 193.11 299.955 191.77 300.135C188.99 300.455 186.12 300.785 183.16 301.105C180.2 301.425 177.07 301.825 173.78 302.285C173.09 304.365 172.44 306.535 171.83 308.785C171.23 311.035 170.56 313.385 169.82 315.835C171.21 315.655 172.6 315.515 173.99 315.415C175.38 315.325 176.86 315.255 178.43 315.205C179.73 315.165 180.75 315.275 181.49 315.555C182.23 315.835 182.86 316.435 183.37 317.365C183.93 318.295 184.35 319.205 184.65 320.105C184.95 321.005 185.22 321.925 185.45 322.845C185.82 323.915 185.85 324.625 185.55 324.995C185.25 325.365 184.45 325.685 183.15 325.965C180.37 326.475 177.53 326.965 174.64 327.425C171.75 327.885 168.96 328.395 166.27 328.955C165.9 330.435 165.55 331.835 165.23 333.155C164.91 334.475 164.56 335.785 164.19 337.085C166.37 336.715 168.44 336.415 170.41 336.185C172.38 335.955 174.52 335.765 176.84 335.625C178.14 335.535 179.14 335.625 179.86 335.905C180.58 336.185 181.19 336.735 181.7 337.575C182.26 338.505 182.68 339.375 182.98 340.185C183.28 340.995 183.62 341.815 183.99 342.655C184.22 343.585 184.22 344.215 183.99 344.565C183.76 344.915 183.02 345.205 181.77 345.435C178.81 345.995 175.8 346.575 172.74 347.175C169.68 347.775 166.77 348.335 163.99 348.845C162.14 349.305 160.74 349.415 159.79 349.155C158.84 348.895 158.02 348.545 157.32 348.075C156.53 347.565 155.78 347.045 155.06 346.515C154.34 345.985 153.5 345.295 152.52 344.465C151.73 343.815 151.12 343.055 150.68 342.175C150.24 341.295 150.07 340.225 150.16 338.975L156.76 292.785C158.76 292.265 160.97 291.735 163.4 291.185Z" fill="#FF0000"/>
<path d="M228.559 291.185C230.989 290.625 233.539 290.115 236.199 289.655C238.859 289.195 241.589 288.785 244.399 288.435C247.199 288.085 249.989 287.865 252.769 287.775C255.409 287.725 257.099 288.745 257.839 290.835C258.439 291.945 258.859 292.955 259.089 293.855C259.319 294.755 259.549 295.745 259.779 296.805C259.959 298.005 259.869 298.815 259.499 299.235C259.129 299.655 258.269 299.955 256.929 300.135C254.149 300.455 251.279 300.785 248.319 301.105C245.359 301.425 242.229 301.825 238.939 302.285C238.249 304.365 237.599 306.535 236.989 308.785C236.389 311.035 235.719 313.385 234.979 315.835C236.369 315.655 237.759 315.515 239.149 315.415C240.539 315.325 242.019 315.255 243.589 315.205C244.889 315.165 245.909 315.275 246.649 315.555C247.389 315.835 248.019 316.435 248.529 317.365C249.089 318.295 249.509 319.205 249.809 320.105C250.109 321.005 250.379 321.925 250.609 322.845C250.979 323.915 251.009 324.625 250.709 324.995C250.409 325.365 249.609 325.685 248.309 325.965C245.529 326.475 242.689 326.965 239.799 327.425C236.909 327.885 234.119 328.395 231.429 328.955C231.059 330.435 230.709 331.835 230.389 333.155C230.069 334.475 229.719 335.785 229.349 337.085C231.529 336.715 233.599 336.415 235.569 336.185C237.539 335.955 239.679 335.765 241.999 335.625C243.299 335.535 244.299 335.625 245.019 335.905C245.739 336.185 246.349 336.735 246.859 337.575C247.419 338.505 247.839 339.375 248.139 340.185C248.439 340.995 248.779 341.815 249.149 342.655C249.379 343.585 249.379 344.215 249.149 344.565C248.919 344.915 248.179 345.205 246.929 345.435C243.969 345.995 240.959 346.575 237.899 347.175C234.839 347.775 231.929 348.335 229.149 348.845C227.299 349.305 225.899 349.415 224.949 349.155C223.999 348.895 223.179 348.545 222.479 348.075C221.689 347.565 220.939 347.045 220.219 346.515C219.499 345.985 218.659 345.295 217.679 344.465C216.889 343.815 216.279 343.055 215.839 342.175C215.399 341.295 215.229 340.225 215.319 338.975L221.919 292.785C223.919 292.265 226.129 291.735 228.559 291.185Z" fill="#FF0000"/>
<path d="M289.83 307.575C291.2 301.695 292.55 296.275 293.89 291.325C294.26 289.985 294.83 289.145 295.59 288.825C296.35 288.505 297.48 288.525 298.96 288.895C299.66 289.085 300.28 289.245 300.84 289.385C301.4 289.525 301.94 289.705 302.47 289.945C303 290.175 303.57 290.455 304.17 290.775C304.77 291.095 305.47 291.515 306.25 292.025C307.59 292.855 308.35 293.705 308.51 294.565C308.67 295.425 308.57 296.455 308.2 297.655C307.13 301.085 306.02 304.975 304.86 309.325C303.7 313.675 302.56 318.105 301.42 322.595C300.28 327.085 299.2 331.475 298.15 335.755C297.11 340.035 296.22 343.805 295.48 347.045C295.2 348.805 293.81 349.405 291.31 348.855C289.18 348.435 287 347.835 284.78 347.045C282.74 346.255 281.31 344.865 280.47 342.875C279.82 341.445 279.16 339.775 278.49 337.875C277.82 335.975 277.14 333.925 276.44 331.725C275.75 329.525 275.05 327.235 274.36 324.845C273.66 322.465 273.02 320.065 272.41 317.655C271.9 320.525 271.38 323.395 270.85 326.265C270.32 329.135 269.81 331.885 269.32 334.495C268.83 337.115 268.39 339.545 268 341.785C267.61 344.035 267.29 345.985 267.06 347.655C266.87 348.445 266.57 348.935 266.16 349.145C265.74 349.355 264.93 349.295 263.73 348.975C262.62 348.695 261.49 348.405 260.36 348.105C259.22 347.805 258.13 347.325 257.06 346.685C256.04 346.175 255.36 345.585 255.01 344.915C254.66 344.245 254.54 343.305 254.63 342.105C254.72 340.855 254.87 339.075 255.08 336.755C255.29 334.445 255.57 331.815 255.91 328.875C256.26 325.935 256.65 322.785 257.09 319.425C257.53 316.065 258.01 312.725 258.51 309.385C259.02 306.055 259.54 302.835 260.07 299.725C260.6 296.625 261.12 293.865 261.63 291.455C261.95 290.065 262.53 289.195 263.37 288.855C264.2 288.505 265.34 288.515 266.77 288.885C268.48 289.395 270.15 289.905 271.77 290.415C273.39 290.925 275.08 291.595 276.84 292.425C278.27 293.025 279.29 293.775 279.9 294.685C280.5 295.585 280.94 296.915 281.22 298.675C281.45 300.015 281.75 301.735 282.12 303.815C282.49 305.895 282.91 308.155 283.37 310.585C283.83 313.015 284.32 315.515 284.83 318.085C285.34 320.655 285.85 323.125 286.36 325.485C287.31 319.425 288.46 313.455 289.83 307.575Z" fill="#FF0000"/>
<path d="M350.61 347.065C347.53 347.645 344.599 348.215 341.819 348.765C340.799 349.045 339.939 349.205 339.249 349.255C338.559 349.305 337.949 349.265 337.439 349.155C336.929 349.035 336.499 348.885 336.159 348.705C335.809 348.515 335.479 348.315 335.149 348.075C334.359 347.565 333.649 347.045 332.999 346.515C332.349 345.985 331.5 345.295 330.43 344.465C329.64 343.815 329.04 343.085 328.62 342.275C328.2 341.465 328.089 340.485 328.269 339.325C328.409 337.515 328.639 335.375 328.959 332.895C329.279 330.415 329.679 327.745 330.139 324.875C330.599 322.005 331.11 319.025 331.67 315.945C332.23 312.865 332.829 309.795 333.479 306.745C334.129 303.685 334.789 300.745 335.459 297.925C336.129 295.105 336.789 292.505 337.439 290.145C337.899 288.805 338.489 288.005 339.209 287.745C339.929 287.495 340.999 287.575 342.439 287.985C343.869 288.355 345.429 288.875 347.089 289.545C348.759 290.215 350.219 290.965 351.469 291.805C352.669 292.685 353.429 293.445 353.729 294.095C354.029 294.745 353.969 295.665 353.559 296.875C352.629 299.655 351.699 302.705 350.749 306.045C349.799 309.375 348.849 312.805 347.899 316.325C346.949 319.845 346.049 323.355 345.189 326.845C344.329 330.345 343.529 333.685 342.789 336.885C344.919 336.515 346.909 336.235 348.759 336.055C350.609 335.875 352.63 335.705 354.8 335.565C356.1 335.475 357.079 335.555 357.749 335.805C358.419 336.065 359.029 336.625 359.589 337.505C360.149 338.335 360.599 339.185 360.939 340.035C361.289 340.895 361.55 341.715 361.74 342.505C362.06 343.475 362.149 344.125 361.979 344.455C361.819 344.775 361.019 345.075 359.579 345.355C356.679 345.915 353.68 346.485 350.61 347.065Z" fill="#FF0000"/>
<path d="M388.779 294.235C389.149 294.605 389.419 294.975 389.579 295.345C389.739 295.715 389.799 296.135 389.749 296.595C389.699 297.055 389.609 297.595 389.469 298.195C388.819 300.275 388.149 302.665 387.459 305.345C386.769 308.035 386.059 310.865 385.339 313.855C384.619 316.845 383.899 319.895 383.189 323.025C382.469 326.155 381.799 329.205 381.179 332.195C380.549 335.185 379.959 338.005 379.409 340.665C378.849 343.325 378.369 345.705 377.949 347.785C377.719 348.575 377.399 349.085 377.009 349.315C376.619 349.545 375.819 349.525 374.609 349.245C373.409 348.925 372.259 348.595 371.169 348.275C370.079 347.955 369.029 347.535 368.009 347.025C366.939 346.515 366.239 345.925 365.889 345.255C365.539 344.585 365.419 343.645 365.509 342.445C365.599 340.825 365.789 338.725 366.069 336.155C366.349 333.585 366.679 330.775 367.079 327.715C367.469 324.655 367.929 321.445 368.429 318.055C368.939 314.675 369.459 311.365 369.989 308.125C370.519 304.885 371.069 301.815 371.619 298.925C372.179 296.035 372.709 293.495 373.219 291.315C373.639 289.975 374.189 289.155 374.889 288.845C375.589 288.545 376.669 288.605 378.159 289.015C379.599 289.385 381.149 289.945 382.809 290.685C384.479 291.425 385.939 292.215 387.189 293.045C387.869 293.475 388.409 293.865 388.779 294.235ZM401.169 275.545C399.269 276.635 397.219 277.735 395.019 278.845C392.819 279.955 390.539 281.025 388.179 282.045C385.819 283.065 383.499 283.965 381.229 284.755C380.259 285.175 379.219 285.255 378.099 284.995C376.989 284.745 375.719 284.225 374.279 283.435C374.279 283.485 374.129 283.375 373.829 283.125C373.529 282.875 373.259 282.535 373.029 282.115C372.799 281.695 372.729 281.215 372.819 280.655C372.909 280.095 373.379 279.565 374.209 279.055C376.059 278.175 377.969 277.245 379.939 276.275C381.909 275.305 383.839 274.295 385.739 273.255C387.639 272.215 389.489 271.125 391.299 269.985C393.109 268.855 394.769 267.685 396.299 266.475C397.179 265.825 398.159 265.515 399.249 265.535C400.339 265.555 401.719 266.035 403.379 266.955C404.349 267.415 405.009 268.105 405.359 269.005C405.709 269.905 405.949 271.075 406.089 272.515C404.709 273.455 403.069 274.465 401.169 275.545Z" fill="#FF0000"/>
<path d="M422.29 307.575C423.66 301.695 425.01 296.275 426.35 291.325C426.72 289.985 427.29 289.145 428.05 288.825C428.81 288.505 429.94 288.525 431.42 288.895C432.12 289.085 432.74 289.245 433.3 289.385C433.86 289.525 434.4 289.705 434.93 289.945C435.46 290.175 436.03 290.455 436.63 290.775C437.23 291.095 437.93 291.515 438.71 292.025C440.05 292.855 440.81 293.705 440.97 294.565C441.13 295.425 441.03 296.455 440.66 297.655C439.59 301.085 438.48 304.975 437.32 309.325C436.16 313.675 435.02 318.105 433.88 322.595C432.74 327.085 431.66 331.475 430.61 335.755C429.57 340.035 428.679 343.805 427.939 347.045C427.659 348.805 426.27 349.405 423.77 348.855C421.64 348.435 419.46 347.835 417.24 347.045C415.2 346.255 413.77 344.865 412.93 342.875C412.28 341.445 411.62 339.775 410.95 337.875C410.28 335.975 409.6 333.925 408.9 331.725C408.21 329.525 407.51 327.235 406.82 324.845C406.12 322.465 405.48 320.065 404.87 317.655C404.36 320.525 403.839 323.395 403.309 326.265C402.779 329.135 402.27 331.885 401.78 334.495C401.29 337.115 400.85 339.545 400.46 341.785C400.07 344.035 399.75 345.985 399.52 347.655C399.33 348.445 399.03 348.935 398.62 349.145C398.2 349.355 397.39 349.295 396.19 348.975C395.08 348.695 393.96 348.405 392.82 348.105C391.68 347.805 390.59 347.325 389.52 346.685C388.5 346.175 387.82 345.585 387.47 344.915C387.12 344.245 387 343.305 387.09 342.105C387.18 340.855 387.33 339.075 387.54 336.755C387.75 334.445 388.03 331.815 388.37 328.875C388.72 325.935 389.11 322.785 389.55 319.425C389.99 316.065 390.47 312.725 390.97 309.385C391.48 306.055 392 302.835 392.53 299.725C393.06 296.625 393.58 293.865 394.09 291.455C394.41 290.065 394.99 289.195 395.83 288.855C396.66 288.505 397.8 288.515 399.23 288.885C400.94 289.395 402.61 289.905 404.23 290.415C405.85 290.925 407.54 291.595 409.3 292.425C410.73 293.025 411.75 293.775 412.36 294.685C412.96 295.585 413.4 296.915 413.68 298.675C413.91 300.015 414.21 301.735 414.58 303.815C414.95 305.895 415.37 308.155 415.83 310.585C416.29 313.015 416.78 315.515 417.29 318.085C417.8 320.655 418.31 323.125 418.82 325.485C419.78 319.425 420.93 313.455 422.29 307.575Z" fill="#FF0000"/>
<path d="M449.87 291.185C452.3 290.625 454.85 290.115 457.51 289.655C460.17 289.195 462.9 288.785 465.71 288.435C468.51 288.085 471.3 287.865 474.08 287.775C476.72 287.725 478.41 288.745 479.15 290.835C479.75 291.945 480.17 292.955 480.4 293.855C480.63 294.755 480.86 295.745 481.09 296.805C481.27 298.005 481.18 298.815 480.81 299.235C480.44 299.655 479.58 299.955 478.24 300.135C475.46 300.455 472.59 300.785 469.63 301.105C466.67 301.425 463.54 301.825 460.25 302.285C459.56 304.365 458.91 306.535 458.3 308.785C457.7 311.035 457.03 313.385 456.29 315.835C457.68 315.655 459.07 315.515 460.46 315.415C461.85 315.325 463.33 315.255 464.9 315.205C466.2 315.165 467.22 315.275 467.96 315.555C468.7 315.835 469.33 316.435 469.84 317.365C470.4 318.295 470.82 319.205 471.12 320.105C471.42 321.005 471.69 321.925 471.92 322.845C472.29 323.915 472.32 324.625 472.02 324.995C471.72 325.365 470.92 325.685 469.62 325.965C466.84 326.475 464 326.965 461.11 327.425C458.22 327.885 455.43 328.395 452.74 328.955C452.37 330.435 452.02 331.835 451.7 333.155C451.38 334.475 451.03 335.785 450.66 337.085C452.84 336.715 454.91 336.415 456.88 336.185C458.85 335.955 460.99 335.765 463.31 335.625C464.61 335.535 465.61 335.625 466.33 335.905C467.05 336.185 467.66 336.735 468.17 337.575C468.73 338.505 469.15 339.375 469.45 340.185C469.75 340.995 470.09 341.815 470.46 342.655C470.69 343.585 470.69 344.215 470.46 344.565C470.23 344.915 469.49 345.205 468.24 345.435C465.28 345.995 462.27 346.575 459.21 347.175C456.15 347.775 453.24 348.335 450.46 348.845C448.61 349.305 447.21 349.415 446.26 349.155C445.31 348.895 444.49 348.545 443.79 348.075C443 347.565 442.25 347.045 441.53 346.515C440.81 345.985 439.97 345.295 438.99 344.465C438.2 343.815 437.59 343.055 437.15 342.175C436.71 341.295 436.54 340.225 436.63 338.975L443.23 292.785C445.23 292.265 447.44 291.735 449.87 291.185Z" fill="#FF0000"/>
<path d="M499.049 336.505C495.599 336.995 492.549 337.585 489.919 338.275C488.989 340.085 488.18 341.755 487.49 343.315C486.8 344.865 486.119 346.385 485.479 347.865C485.109 348.655 484.659 349.115 484.129 349.255C483.599 349.395 482.799 349.275 481.729 348.905C481.129 348.675 480.469 348.405 479.749 348.105C479.029 347.805 478.299 347.465 477.559 347.095C476.999 346.725 476.519 346.415 476.099 346.155C475.679 345.905 475.359 345.585 475.129 345.215C474.899 344.845 474.769 344.375 474.749 343.795C474.729 343.215 474.849 342.445 475.129 341.465C476.239 338.265 477.689 334.515 479.469 330.215C481.249 325.905 483.17 321.465 485.24 316.875C487.3 312.295 489.409 307.765 491.559 303.295C493.709 298.825 495.759 294.855 497.709 291.385C498.399 290.135 499.309 289.115 500.419 288.325C501.529 287.535 503.179 287.235 505.349 287.425C507.249 287.515 508.939 287.665 510.419 287.875C511.899 288.085 513.259 288.325 514.479 288.605C515.709 288.885 516.839 289.185 517.879 289.505C518.919 289.825 519.969 290.135 521.039 290.405C522.469 290.915 523.389 291.585 523.779 292.415C524.169 293.245 524.299 294.335 524.159 295.685C523.879 298.975 523.649 302.745 523.469 307.005C523.279 311.265 523.149 315.715 523.049 320.345C522.959 324.975 522.899 329.615 522.879 334.275C522.859 338.925 522.869 343.245 522.909 347.235C522.909 348.065 522.739 348.645 522.389 348.975C522.039 349.295 521.269 349.465 520.059 349.465C518.859 349.465 517.739 349.435 516.719 349.365C515.699 349.295 514.659 349.075 513.589 348.705C512.479 348.385 511.699 347.965 511.259 347.455C510.819 346.945 510.509 346.045 510.319 344.745C510.129 343.405 509.969 341.935 509.829 340.335C509.689 338.735 509.549 336.985 509.409 335.085C505.959 335.545 502.499 336.015 499.049 336.505ZM502.449 324.525C504.559 324.295 506.679 324.105 508.809 323.965C508.719 320.165 508.649 316.385 508.599 312.605C508.549 308.835 508.579 305.095 508.669 301.385C506.819 304.765 504.809 308.505 502.659 312.605C500.509 316.705 498.339 320.955 496.159 325.355C498.249 325.035 500.349 324.755 502.449 324.525Z" fill="#FF0000"/>
<path d="M52.4395 337.915C51.9495 340.365 51.5195 342.775 51.1595 345.135C50.9295 345.875 50.5995 346.365 50.1895 346.595C49.7695 346.825 48.9595 346.825 47.7595 346.595C46.5595 346.275 45.3895 345.955 44.2495 345.655C43.1195 345.355 42.1095 344.965 41.2295 344.475C40.3495 343.985 39.6895 343.375 39.2495 342.635C38.8095 341.895 38.7295 340.925 39.0095 339.715C39.4295 338.605 39.8095 336.725 40.1595 334.085C40.5095 331.445 40.8195 328.445 41.0995 325.085C41.3795 321.725 41.6595 318.245 41.9295 314.635C42.2095 311.025 42.4895 307.685 42.7595 304.635C43.0295 301.585 43.3495 299.025 43.6995 296.955C44.0495 294.895 44.4495 293.745 44.9095 293.515C46.6695 292.585 48.6095 291.625 50.7495 290.635C52.8795 289.635 55.0795 288.735 57.3495 287.925C59.6195 287.115 61.8995 286.445 64.1895 285.915C66.4795 285.385 68.6895 285.095 70.8195 285.045C72.9495 284.995 74.9295 285.245 76.7595 285.775C78.5895 286.305 80.1695 287.225 81.5195 288.515C83.0895 290.275 84.5395 292.165 85.8595 294.175C87.1795 296.185 88.2095 298.655 88.9495 301.575C89.2695 303.015 89.3495 304.355 89.1895 305.605C89.0295 306.855 88.6795 308.035 88.1495 309.145C87.6195 310.255 86.9495 311.325 86.1395 312.345C85.3295 313.365 84.4395 314.365 83.4695 315.335C81.8995 316.905 80.0095 318.435 77.8095 319.915C75.6095 321.395 73.2095 322.785 70.6195 324.085C68.0295 325.385 65.3095 326.555 62.4595 327.595C59.6095 328.635 56.7995 329.525 54.0195 330.265C53.4495 332.915 52.9195 335.465 52.4395 337.915ZM65.5995 313.435C68.0495 311.935 70.0695 310.375 71.6395 308.785C73.2095 307.185 74.3195 305.645 74.9695 304.165C75.6195 302.685 75.7595 301.435 75.3895 300.415C75.2495 299.855 74.7495 299.435 73.8995 299.125C73.0395 298.825 71.9595 298.695 70.6395 298.745C69.3195 298.795 67.8395 298.995 66.1895 299.375C64.5495 299.745 62.8695 300.305 61.1495 301.045C60.4095 303.545 59.6995 306.145 59.0295 308.825C58.3595 311.515 57.6795 314.315 56.9795 317.235C60.2795 316.195 63.1495 314.935 65.5995 313.435Z" fill="white"/>
<path d="M110.65 292.345C110.9 292.995 110.869 293.945 110.549 295.195C109.899 297.275 109.2 299.665 108.43 302.345C107.67 305.035 106.899 307.865 106.139 310.855C105.379 313.845 104.62 316.895 103.88 320.025C103.14 323.155 102.42 326.205 101.73 329.195C101.03 332.185 100.4 335.005 99.8195 337.665C99.2395 340.325 98.7395 342.705 98.3295 344.785C98.0995 345.575 97.7795 346.085 97.3895 346.315C96.9995 346.545 96.1995 346.525 94.9895 346.245C93.7895 345.925 92.6395 345.595 91.5495 345.275C90.4595 344.955 89.4295 344.535 88.4595 344.025C87.3895 343.515 86.6895 342.925 86.3395 342.255C85.9895 341.585 85.8895 340.645 86.0295 339.445C86.1195 337.825 86.3195 335.725 86.6195 333.155C86.9195 330.585 87.2895 327.775 87.7295 324.715C88.1695 321.655 88.6695 318.445 89.2195 315.055C89.7795 311.675 90.3395 308.365 90.9195 305.125C91.4995 301.885 92.0895 298.815 92.6895 295.925C93.2895 293.035 93.8495 290.495 94.3595 288.315C94.7795 286.975 95.3395 286.155 96.0595 285.845C96.7795 285.545 97.8495 285.605 99.2895 286.015C100.72 286.385 102.28 286.945 103.94 287.685C105.61 288.425 107.07 289.215 108.32 290.045C109.62 290.935 110.39 291.705 110.65 292.345Z" fill="white"/>
<path d="M119.329 287.455C121.709 286.595 124.249 285.955 126.939 285.505C129.629 285.065 132.369 284.905 135.169 285.015C137.969 285.135 140.679 285.665 143.299 286.615C145.919 287.565 148.339 288.985 150.559 290.885C152.779 292.785 154.659 295.305 156.189 298.455C157.489 300.955 158.299 303.685 158.619 306.655C158.939 309.615 158.769 312.665 158.099 315.785C157.429 318.915 156.259 322.025 154.589 325.125C152.919 328.225 150.759 331.145 148.099 333.875C145.439 336.605 142.279 339.065 138.619 341.235C134.959 343.415 130.819 345.145 126.189 346.445C123.829 347.275 121.349 347.075 118.759 345.825C117.459 345.175 116.329 344.535 115.359 343.915C114.389 343.285 113.279 342.515 112.029 341.585C111.569 341.165 111.129 340.765 110.709 340.365C110.289 339.975 109.929 339.525 109.629 339.015C109.329 338.505 109.129 337.885 109.039 337.135C108.949 336.395 108.969 335.445 109.109 334.285L113.139 290.175C114.869 289.225 116.949 288.305 119.329 287.455ZM131.729 330.035C134.319 327.885 136.449 325.625 138.119 323.265C139.789 320.905 141.039 318.545 141.869 316.175C142.699 313.815 143.189 311.615 143.329 309.575C143.509 306.755 143.189 304.555 142.359 302.975C141.529 301.405 140.069 300.225 137.979 299.435C135.899 298.645 133.349 298.745 130.339 299.715C128.719 305.785 127.279 311.765 126.029 317.675C124.779 323.575 123.569 329.545 122.419 335.565C126.039 334.025 129.139 332.185 131.729 330.035Z" fill="white"/>
<path d="M172.4 288.185C174.83 287.625 177.38 287.115 180.04 286.655C182.7 286.195 185.43 285.785 188.24 285.435C191.04 285.085 193.83 284.865 196.61 284.775C199.25 284.725 200.94 285.745 201.68 287.835C202.28 288.945 202.7 289.955 202.93 290.855C203.16 291.755 203.39 292.745 203.62 293.805C203.8 295.005 203.71 295.815 203.34 296.235C202.97 296.655 202.11 296.955 200.77 297.135C197.99 297.455 195.12 297.785 192.16 298.105C189.2 298.425 186.07 298.825 182.78 299.285C182.09 301.365 181.44 303.535 180.83 305.785C180.23 308.035 179.56 310.385 178.82 312.835C180.21 312.655 181.6 312.515 182.99 312.415C184.38 312.325 185.86 312.255 187.43 312.205C188.73 312.165 189.75 312.275 190.49 312.555C191.23 312.835 191.86 313.435 192.37 314.365C192.93 315.295 193.35 316.205 193.65 317.105C193.95 318.005 194.22 318.925 194.45 319.845C194.82 320.915 194.85 321.625 194.55 321.995C194.25 322.365 193.45 322.685 192.15 322.965C189.37 323.475 186.53 323.965 183.64 324.425C180.75 324.885 177.96 325.395 175.27 325.955C174.9 327.435 174.55 328.835 174.23 330.155C173.91 331.475 173.56 332.785 173.19 334.085C175.37 333.715 177.44 333.415 179.41 333.185C181.38 332.955 183.52 332.765 185.84 332.625C187.14 332.535 188.14 332.625 188.86 332.905C189.58 333.185 190.19 333.735 190.7 334.575C191.26 335.505 191.68 336.375 191.98 337.185C192.28 337.995 192.62 338.815 192.99 339.655C193.22 340.585 193.22 341.215 192.99 341.565C192.76 341.915 192.02 342.205 190.77 342.435C187.81 342.995 184.8 343.575 181.74 344.175C178.68 344.775 175.77 345.335 172.99 345.845C171.14 346.305 169.74 346.415 168.79 346.155C167.84 345.895 167.02 345.545 166.32 345.075C165.53 344.565 164.78 344.045 164.06 343.515C163.34 342.985 162.5 342.295 161.52 341.465C160.73 340.815 160.12 340.055 159.68 339.175C159.24 338.295 159.07 337.225 159.16 335.975L165.76 289.785C167.76 289.265 169.97 288.735 172.4 288.185Z" fill="white"/>
<path d="M237.559 288.185C239.989 287.625 242.539 287.115 245.199 286.655C247.859 286.195 250.589 285.785 253.399 285.435C256.199 285.085 258.989 284.865 261.769 284.775C264.409 284.725 266.099 285.745 266.839 287.835C267.439 288.945 267.859 289.955 268.089 290.855C268.319 291.755 268.549 292.745 268.779 293.805C268.959 295.005 268.869 295.815 268.499 296.235C268.129 296.655 267.269 296.955 265.929 297.135C263.149 297.455 260.279 297.785 257.319 298.105C254.359 298.425 251.229 298.825 247.939 299.285C247.249 301.365 246.599 303.535 245.989 305.785C245.389 308.035 244.719 310.385 243.979 312.835C245.369 312.655 246.759 312.515 248.149 312.415C249.539 312.325 251.019 312.255 252.589 312.205C253.889 312.165 254.909 312.275 255.649 312.555C256.389 312.835 257.019 313.435 257.529 314.365C258.089 315.295 258.509 316.205 258.809 317.105C259.109 318.005 259.379 318.925 259.609 319.845C259.979 320.915 260.009 321.625 259.709 321.995C259.409 322.365 258.609 322.685 257.309 322.965C254.529 323.475 251.689 323.965 248.799 324.425C245.909 324.885 243.119 325.395 240.429 325.955C240.059 327.435 239.709 328.835 239.389 330.155C239.069 331.475 238.719 332.785 238.349 334.085C240.529 333.715 242.599 333.415 244.569 333.185C246.539 332.955 248.679 332.765 250.999 332.625C252.299 332.535 253.299 332.625 254.019 332.905C254.739 333.185 255.349 333.735 255.859 334.575C256.419 335.505 256.839 336.375 257.139 337.185C257.439 337.995 257.779 338.815 258.149 339.655C258.379 340.585 258.379 341.215 258.149 341.565C257.919 341.915 257.179 342.205 255.929 342.435C252.969 342.995 249.959 343.575 246.899 344.175C243.839 344.775 240.929 345.335 238.149 345.845C236.299 346.305 234.899 346.415 233.949 346.155C232.999 345.895 232.179 345.545 231.479 345.075C230.689 344.565 229.939 344.045 229.219 343.515C228.499 342.985 227.659 342.295 226.679 341.465C225.889 340.815 225.279 340.055 224.839 339.175C224.399 338.295 224.229 337.225 224.319 335.975L230.919 289.785C232.919 289.265 235.129 288.735 237.559 288.185Z" fill="white"/>
<path d="M298.83 304.575C300.2 298.695 301.55 293.275 302.89 288.325C303.26 286.985 303.83 286.145 304.59 285.825C305.35 285.505 306.48 285.525 307.96 285.895C308.66 286.085 309.28 286.245 309.84 286.385C310.4 286.525 310.94 286.705 311.47 286.945C312 287.175 312.57 287.455 313.17 287.775C313.77 288.095 314.47 288.515 315.25 289.025C316.59 289.855 317.35 290.705 317.51 291.565C317.67 292.425 317.57 293.455 317.2 294.655C316.13 298.085 315.02 301.975 313.86 306.325C312.7 310.675 311.56 315.105 310.42 319.595C309.28 324.085 308.2 328.475 307.15 332.755C306.11 337.035 305.22 340.805 304.48 344.045C304.2 345.805 302.81 346.405 300.31 345.855C298.18 345.435 296 344.835 293.78 344.045C291.74 343.255 290.31 341.865 289.47 339.875C288.82 338.445 288.16 336.775 287.49 334.875C286.82 332.975 286.14 330.925 285.44 328.725C284.75 326.525 284.05 324.235 283.36 321.845C282.66 319.465 282.02 317.065 281.41 314.655C280.9 317.525 280.38 320.395 279.85 323.265C279.32 326.135 278.81 328.885 278.32 331.495C277.83 334.115 277.39 336.545 277 338.785C276.61 341.035 276.29 342.985 276.06 344.655C275.87 345.445 275.57 345.935 275.16 346.145C274.74 346.355 273.93 346.295 272.73 345.975C271.62 345.695 270.49 345.405 269.36 345.105C268.22 344.805 267.13 344.325 266.06 343.685C265.04 343.175 264.36 342.585 264.01 341.915C263.66 341.245 263.54 340.305 263.63 339.105C263.72 337.855 263.87 336.075 264.08 333.755C264.29 331.445 264.57 328.815 264.91 325.875C265.26 322.935 265.65 319.785 266.09 316.425C266.53 313.065 267.01 309.725 267.51 306.385C268.02 303.055 268.54 299.835 269.07 296.725C269.6 293.625 270.12 290.865 270.63 288.455C270.95 287.065 271.53 286.195 272.37 285.855C273.2 285.505 274.34 285.515 275.77 285.885C277.48 286.395 279.15 286.905 280.77 287.415C282.39 287.925 284.08 288.595 285.84 289.425C287.27 290.025 288.29 290.775 288.9 291.685C289.5 292.585 289.94 293.915 290.22 295.675C290.45 297.015 290.75 298.735 291.12 300.815C291.49 302.895 291.91 305.155 292.37 307.585C292.83 310.015 293.32 312.515 293.83 315.085C294.34 317.655 294.85 320.125 295.36 322.485C296.31 316.425 297.46 310.455 298.83 304.575Z" fill="white"/>
<path d="M359.61 344.065C356.53 344.645 353.599 345.215 350.819 345.765C349.799 346.045 348.939 346.205 348.249 346.255C347.559 346.305 346.949 346.265 346.439 346.155C345.929 346.035 345.499 345.885 345.159 345.705C344.809 345.515 344.479 345.315 344.149 345.075C343.359 344.565 342.649 344.045 341.999 343.515C341.349 342.985 340.5 342.295 339.43 341.465C338.64 340.815 338.04 340.085 337.62 339.275C337.2 338.465 337.089 337.485 337.269 336.325C337.409 334.515 337.639 332.375 337.959 329.895C338.279 327.415 338.679 324.745 339.139 321.875C339.599 319.005 340.11 316.025 340.67 312.945C341.23 309.865 341.829 306.795 342.479 303.745C343.129 300.685 343.789 297.745 344.459 294.925C345.129 292.105 345.789 289.505 346.439 287.145C346.899 285.805 347.489 285.005 348.209 284.745C348.929 284.495 349.999 284.575 351.439 284.985C352.869 285.355 354.429 285.875 356.089 286.545C357.759 287.215 359.219 287.965 360.469 288.805C361.669 289.685 362.429 290.445 362.729 291.095C363.029 291.745 362.969 292.665 362.559 293.875C361.629 296.655 360.699 299.705 359.749 303.045C358.799 306.375 357.849 309.805 356.899 313.325C355.949 316.845 355.049 320.355 354.189 323.845C353.329 327.345 352.529 330.685 351.789 333.885C353.919 333.515 355.909 333.235 357.759 333.055C359.609 332.875 361.63 332.705 363.8 332.565C365.1 332.475 366.079 332.555 366.749 332.805C367.419 333.065 368.029 333.625 368.589 334.505C369.149 335.335 369.599 336.185 369.939 337.035C370.289 337.895 370.55 338.715 370.74 339.505C371.06 340.475 371.149 341.125 370.979 341.455C370.819 341.775 370.019 342.075 368.579 342.355C365.679 342.915 362.68 343.485 359.61 344.065Z" fill="white"/>
<path d="M397.779 291.235C398.149 291.605 398.419 291.975 398.579 292.345C398.739 292.715 398.799 293.135 398.749 293.595C398.699 294.055 398.609 294.595 398.469 295.195C397.819 297.275 397.149 299.665 396.459 302.345C395.769 305.035 395.059 307.865 394.339 310.855C393.619 313.845 392.899 316.895 392.189 320.025C391.469 323.155 390.799 326.205 390.179 329.195C389.549 332.185 388.959 335.005 388.409 337.665C387.849 340.325 387.369 342.705 386.949 344.785C386.719 345.575 386.399 346.085 386.009 346.315C385.619 346.545 384.819 346.525 383.609 346.245C382.409 345.925 381.259 345.595 380.169 345.275C379.079 344.955 378.029 344.535 377.009 344.025C375.939 343.515 375.239 342.925 374.889 342.255C374.539 341.585 374.419 340.645 374.509 339.445C374.599 337.825 374.789 335.725 375.069 333.155C375.349 330.585 375.679 327.775 376.079 324.715C376.469 321.655 376.929 318.445 377.429 315.055C377.939 311.675 378.459 308.365 378.989 305.125C379.519 301.885 380.069 298.815 380.619 295.925C381.179 293.035 381.709 290.495 382.219 288.315C382.639 286.975 383.189 286.155 383.889 285.845C384.589 285.545 385.669 285.605 387.159 286.015C388.599 286.385 390.149 286.945 391.809 287.685C393.479 288.425 394.939 289.215 396.189 290.045C396.869 290.475 397.409 290.865 397.779 291.235ZM410.169 272.545C408.269 273.635 406.219 274.735 404.019 275.845C401.819 276.955 399.539 278.025 397.179 279.045C394.819 280.065 392.499 280.965 390.229 281.755C389.259 282.175 388.219 282.255 387.099 281.995C385.989 281.745 384.719 281.225 383.279 280.435C383.279 280.485 383.129 280.375 382.829 280.125C382.529 279.875 382.259 279.535 382.029 279.115C381.799 278.695 381.729 278.215 381.819 277.655C381.909 277.095 382.379 276.565 383.209 276.055C385.059 275.175 386.969 274.245 388.939 273.275C390.909 272.305 392.839 271.295 394.739 270.255C396.639 269.215 398.489 268.125 400.299 266.985C402.109 265.855 403.769 264.685 405.299 263.475C406.179 262.825 407.159 262.515 408.249 262.535C409.339 262.555 410.719 263.035 412.379 263.955C413.349 264.415 414.009 265.105 414.359 266.005C414.709 266.905 414.949 268.075 415.089 269.515C413.709 270.455 412.069 271.465 410.169 272.545Z" fill="white"/>
<path d="M431.29 304.575C432.66 298.695 434.01 293.275 435.35 288.325C435.72 286.985 436.29 286.145 437.05 285.825C437.81 285.505 438.94 285.525 440.42 285.895C441.12 286.085 441.74 286.245 442.3 286.385C442.86 286.525 443.4 286.705 443.93 286.945C444.46 287.175 445.03 287.455 445.63 287.775C446.23 288.095 446.93 288.515 447.71 289.025C449.05 289.855 449.81 290.705 449.97 291.565C450.13 292.425 450.03 293.455 449.66 294.655C448.59 298.085 447.48 301.975 446.32 306.325C445.16 310.675 444.02 315.105 442.88 319.595C441.74 324.085 440.66 328.475 439.61 332.755C438.57 337.035 437.679 340.805 436.939 344.045C436.659 345.805 435.27 346.405 432.77 345.855C430.64 345.435 428.46 344.835 426.24 344.045C424.2 343.255 422.77 341.865 421.93 339.875C421.28 338.445 420.62 336.775 419.95 334.875C419.28 332.975 418.6 330.925 417.9 328.725C417.21 326.525 416.51 324.235 415.82 321.845C415.12 319.465 414.48 317.065 413.87 314.655C413.36 317.525 412.839 320.395 412.309 323.265C411.779 326.135 411.27 328.885 410.78 331.495C410.29 334.115 409.85 336.545 409.46 338.785C409.07 341.035 408.75 342.985 408.52 344.655C408.33 345.445 408.03 345.935 407.62 346.145C407.2 346.355 406.39 346.295 405.19 345.975C404.08 345.695 402.96 345.405 401.82 345.105C400.68 344.805 399.59 344.325 398.52 343.685C397.5 343.175 396.82 342.585 396.47 341.915C396.12 341.245 396 340.305 396.09 339.105C396.18 337.855 396.33 336.075 396.54 333.755C396.75 331.445 397.03 328.815 397.37 325.875C397.72 322.935 398.11 319.785 398.55 316.425C398.99 313.065 399.47 309.725 399.97 306.385C400.48 303.055 401 299.835 401.53 296.725C402.06 293.625 402.58 290.865 403.09 288.455C403.41 287.065 403.99 286.195 404.83 285.855C405.66 285.505 406.8 285.515 408.23 285.885C409.94 286.395 411.61 286.905 413.23 287.415C414.85 287.925 416.54 288.595 418.3 289.425C419.73 290.025 420.75 290.775 421.36 291.685C421.96 292.585 422.4 293.915 422.68 295.675C422.91 297.015 423.21 298.735 423.58 300.815C423.95 302.895 424.37 305.155 424.83 307.585C425.29 310.015 425.78 312.515 426.29 315.085C426.8 317.655 427.31 320.125 427.82 322.485C428.78 316.425 429.93 310.455 431.29 304.575Z" fill="white"/>
<path d="M458.87 288.185C461.3 287.625 463.85 287.115 466.51 286.655C469.17 286.195 471.9 285.785 474.71 285.435C477.51 285.085 480.3 284.865 483.08 284.775C485.72 284.725 487.41 285.745 488.15 287.835C488.75 288.945 489.17 289.955 489.4 290.855C489.63 291.755 489.86 292.745 490.09 293.805C490.27 295.005 490.18 295.815 489.81 296.235C489.44 296.655 488.58 296.955 487.24 297.135C484.46 297.455 481.59 297.785 478.63 298.105C475.67 298.425 472.54 298.825 469.25 299.285C468.56 301.365 467.91 303.535 467.3 305.785C466.7 308.035 466.03 310.385 465.29 312.835C466.68 312.655 468.07 312.515 469.46 312.415C470.85 312.325 472.33 312.255 473.9 312.205C475.2 312.165 476.22 312.275 476.96 312.555C477.7 312.835 478.33 313.435 478.84 314.365C479.4 315.295 479.82 316.205 480.12 317.105C480.42 318.005 480.69 318.925 480.92 319.845C481.29 320.915 481.32 321.625 481.02 321.995C480.72 322.365 479.92 322.685 478.62 322.965C475.84 323.475 473 323.965 470.11 324.425C467.22 324.885 464.43 325.395 461.74 325.955C461.37 327.435 461.02 328.835 460.7 330.155C460.38 331.475 460.03 332.785 459.66 334.085C461.84 333.715 463.91 333.415 465.88 333.185C467.85 332.955 469.99 332.765 472.31 332.625C473.61 332.535 474.61 332.625 475.33 332.905C476.05 333.185 476.66 333.735 477.17 334.575C477.73 335.505 478.15 336.375 478.45 337.185C478.75 337.995 479.09 338.815 479.46 339.655C479.69 340.585 479.69 341.215 479.46 341.565C479.23 341.915 478.49 342.205 477.24 342.435C474.28 342.995 471.27 343.575 468.21 344.175C465.15 344.775 462.24 345.335 459.46 345.845C457.61 346.305 456.21 346.415 455.26 346.155C454.31 345.895 453.49 345.545 452.79 345.075C452 344.565 451.25 344.045 450.53 343.515C449.81 342.985 448.97 342.295 447.99 341.465C447.2 340.815 446.59 340.055 446.15 339.175C445.71 338.295 445.54 337.225 445.63 335.975L452.23 289.785C454.23 289.265 456.44 288.735 458.87 288.185Z" fill="white"/>
<path d="M508.049 333.505C504.599 333.995 501.549 334.585 498.919 335.275C497.989 337.085 497.18 338.755 496.49 340.315C495.8 341.865 495.119 343.385 494.479 344.865C494.109 345.655 493.659 346.115 493.129 346.255C492.599 346.395 491.799 346.275 490.729 345.905C490.129 345.675 489.469 345.405 488.749 345.105C488.029 344.805 487.299 344.465 486.559 344.095C485.999 343.725 485.519 343.415 485.099 343.155C484.679 342.905 484.359 342.585 484.129 342.215C483.899 341.845 483.769 341.375 483.749 340.795C483.729 340.215 483.849 339.445 484.129 338.465C485.239 335.265 486.689 331.515 488.469 327.215C490.249 322.905 492.17 318.465 494.24 313.875C496.3 309.295 498.409 304.765 500.559 300.295C502.709 295.825 504.759 291.855 506.709 288.385C507.399 287.135 508.309 286.115 509.419 285.325C510.529 284.535 512.179 284.235 514.349 284.425C516.249 284.515 517.939 284.665 519.419 284.875C520.899 285.085 522.259 285.325 523.479 285.605C524.709 285.885 525.839 286.185 526.879 286.505C527.919 286.825 528.969 287.135 530.039 287.405C531.469 287.915 532.389 288.585 532.779 289.415C533.169 290.245 533.299 291.335 533.159 292.685C532.879 295.975 532.649 299.745 532.469 304.005C532.279 308.265 532.149 312.715 532.049 317.345C531.959 321.975 531.899 326.615 531.879 331.275C531.859 335.925 531.869 340.245 531.909 344.235C531.909 345.065 531.739 345.645 531.389 345.975C531.039 346.295 530.269 346.465 529.059 346.465C527.859 346.465 526.739 346.435 525.719 346.365C524.699 346.295 523.659 346.075 522.589 345.705C521.479 345.385 520.699 344.965 520.259 344.455C519.819 343.945 519.509 343.045 519.319 341.745C519.129 340.405 518.969 338.935 518.829 337.335C518.689 335.735 518.549 333.985 518.409 332.085C514.959 332.545 511.499 333.015 508.049 333.505ZM511.449 321.525C513.559 321.295 515.679 321.105 517.809 320.965C517.719 317.165 517.649 313.385 517.599 309.605C517.549 305.835 517.579 302.095 517.669 298.385C515.819 301.765 513.809 305.505 511.659 309.605C509.509 313.705 507.339 317.955 505.159 322.355C507.249 322.035 509.349 321.755 511.449 321.525Z" fill="white"/>
<path d="M351.74 67.9954C352.6 68.2054 353.309 68.3853 353.979 68.5453C353.859 66.4853 353.749 64.6053 353.609 62.2253C353.039 63.9553 352.48 65.6954 351.74 67.9954Z" fill="white"/>
<path d="M167.17 95.1153C166.45 86.6553 165.76 78.2053 165.1 69.7353C162.48 58.1353 159.83 46.5353 157.16 34.9453C158.41 48.3953 159.69 61.8453 161.04 75.2953C163.11 81.8953 165.15 88.5053 167.17 95.1153Z" fill="white"/>
<path d="M52.7795 69.3854C55.4295 74.8454 56.3695 83.2954 56.3695 83.2954C59.4695 81.4554 61.9195 80.0054 64.2895 78.6354C64.0095 76.5554 62.9995 69.9454 60.7895 65.3954C58.1395 59.9354 51.0895 58.2454 43.0195 62.8854C41.9695 63.4854 41.0395 64.0954 40.2095 64.7154C45.9895 63.1854 50.7195 65.1354 52.7795 69.3854Z" fill="white"/>
<path d="M67.3294 118.535C67.5194 120.475 67.2195 122.015 66.5695 123.245C71.8495 122.915 75.9294 120.595 75.3294 114.535C73.4694 106.955 72.5395 103.135 70.7195 95.5953C68.3195 96.7253 65.8495 97.9154 62.6895 99.4554C64.5295 107.095 65.4594 110.905 67.3294 118.535Z" fill="white"/>
<path d="M27.5695 133.005C22.6095 121.985 18.2795 110.645 13.6995 99.4954C7.49953 84.4254 7.12954 81.3754 8.96954 74.4654C10.8095 67.5554 18.9695 57.4954 18.9695 57.4954C20.9795 55.2854 22.2195 53.9454 23.9095 52.1254C21.7495 52.9054 19.5795 53.6954 17.4295 54.4954C14.8195 57.2854 13.5295 58.6854 10.9695 61.4954C10.9695 61.4954 2.80954 71.5554 0.969538 78.4654C-0.870462 85.3754 -0.500466 88.4254 5.69953 103.495C10.2895 114.645 14.6095 125.985 19.5695 137.005C29.4195 141.595 41.4195 148.525 51.9395 147.175C59.5195 146.205 68.1995 143.935 73.6395 140.015C69.2895 141.565 64.4295 142.595 59.9395 143.175C49.4195 144.525 37.4195 137.595 27.5695 133.005Z" fill="white"/>
<path d="M143.65 71.3754C139.22 54.9954 134.75 38.6254 130.22 22.2654C127.65 22.7954 124.9 23.3854 121.62 24.0954C126.26 40.8654 130.85 57.6554 135.39 74.4554C138.47 73.3254 140.3 72.6754 143.65 71.4954C143.65 71.4454 143.65 71.4154 143.65 71.3754Z" fill="white"/>
<path d="M97.3297 88.2954C91.2697 70.3854 85.1297 52.4954 78.9297 34.6354C76.0797 35.4254 73.2296 36.2354 70.3896 37.0654C71.4096 39.9954 72.4097 42.9354 73.4297 45.8654C75.7497 47.4954 77.2597 48.9254 77.2597 48.9254C79.5897 56.7654 80.7597 60.6854 83.0897 68.5154C82.5497 68.8154 82.0397 69.1054 81.5297 69.3854C83.5897 75.4154 85.6497 81.4354 87.6897 87.4754C87.9897 87.3354 88.2897 87.2054 88.5997 87.0654C91.4697 96.7054 92.9097 101.535 95.7797 111.175C95.7797 111.175 95.5597 112.945 94.7297 115.715C96.9097 125.105 99.0997 134.495 101.31 143.875C111.28 142.185 116.26 141.435 126.21 140.145C125.88 139.215 125.54 138.285 125.21 137.365C120.19 138.075 115.81 138.775 109.31 139.875C105.25 122.685 101.26 105.495 97.3297 88.2954Z" fill="white"/>
<path d="M144.879 81.4854C141.529 82.6154 139.849 83.1853 136.519 84.3453C131.669 84.9153 129.249 85.2154 124.399 85.8754C121.599 87.4154 120.149 88.2154 117.449 89.7354C121.619 89.1754 124.039 88.8753 128.519 88.3453C131.859 87.1753 133.529 86.6054 136.879 85.4854C138.399 97.7654 139.969 110.045 141.599 122.315C150.799 120.135 155.409 119.125 164.669 117.275C164.449 116.535 164.219 115.795 163.999 115.055C159.469 116.015 155.469 116.925 149.609 118.315C147.969 106.045 146.399 93.7754 144.879 81.4854Z" fill="white"/>
<path d="M173.1 65.7453C169.39 49.3353 165.64 32.9353 161.83 16.5453C159.74 16.8753 157.65 17.2053 155.56 17.5453C156.08 23.3453 156.62 29.1453 157.16 34.9453C159.83 46.5353 162.48 58.1353 165.1 69.7353C165.76 78.1953 166.45 86.6553 167.17 95.1153C169.02 101.165 170.85 107.215 172.66 113.275C171.28 113.555 170.02 113.805 168.81 114.055C168.88 114.865 168.95 115.685 169.02 116.495C191.63 112.745 214.2 109.955 237.04 108.095C236.96 106.935 236.88 105.845 236.8 104.805C216.76 106.635 196.9 109.195 177.01 112.495C175.63 96.9153 174.31 81.3353 173.1 65.7453Z" fill="white"/>
<path d="M231.54 31.5153C231.4 29.5753 231.28 27.8353 231.16 26.2153C227.13 25.6153 223.47 25.1153 218.16 24.4353C208.57 24.8753 198.95 25.5253 189.39 26.3753C189.4 27.5553 189.4 28.6553 189.41 29.7153C196.32 29.1853 203.25 28.7553 210.16 28.4353C218.75 29.5453 223.03 30.1553 231.54 31.5153Z" fill="white"/>
<path d="M216.32 69.3353C208.55 69.4053 200.78 69.3053 193.03 69.9953C193.22 71.2553 193.4 72.4153 193.56 73.5153C201.26 73.2753 208.98 73.4653 216.68 73.1553C216.55 71.7853 216.43 70.5253 216.32 69.3353Z" fill="white"/>
<path d="M231.429 85.5753C232.849 84.9653 234.129 84.3553 235.299 83.7653C235.299 83.7053 235.289 83.6453 235.289 83.5753C233.999 84.1853 232.749 84.8653 231.429 85.5753Z" fill="white"/>
<path d="M299.1 28.2553C298.33 22.2353 292.27 18.3853 283.27 20.2153C279.04 21.0753 276.14 22.4853 273.99 24.5053C274.41 24.4053 274.82 24.3053 275.27 24.2153C284.27 22.3953 290.34 26.2453 291.1 32.2553C291.87 38.2753 290.079 46.5753 290.079 46.5753C298.399 44.7553 302.589 43.9053 311.009 42.3253C311.039 41.4553 311.07 40.6353 311.1 39.8453C307 40.6553 303.379 41.4253 298.079 42.5853C298.079 42.5753 299.86 34.2753 299.1 28.2553Z" fill="white"/>
<path d="M273.85 101.715C263.58 99.6253 254.58 89.1953 246.87 81.7153C245.7 69.6853 245.22 57.5653 244.44 45.5353C243.39 29.2753 244 26.2653 247.87 20.3153C251.74 14.3553 262.51 7.43533 262.51 7.43533C262.88 7.22533 263.22 7.03534 263.55 6.84534C263.28 6.85534 263 6.85534 262.73 6.86534C259.42 8.67534 257.78 9.58534 254.51 11.4253C254.51 11.4253 243.75 18.3453 239.87 24.3053C239.69 24.5753 239.52 24.8453 239.36 25.1053C239.42 25.8753 239.47 26.6653 239.53 27.5053C239.04 27.4253 238.57 27.3553 238.11 27.2753C235.83 31.7353 235.57 36.1353 236.44 49.5253C237.14 60.3353 237.6 71.2253 238.54 82.0553C240.2 81.1553 241.71 80.3153 243.29 79.5753C243.61 84.0653 243.86 87.5353 244.11 90.9153C250.58 97.3453 257.83 104.075 265.86 105.715C274.31 107.435 284.69 108.005 291.01 104.805C292.68 103.955 294.23 103.035 295.65 102.055C289.38 103.785 280.94 103.165 273.85 101.715Z" fill="white"/>
<path d="M297.24 79.4853C297.8 72.7353 298.12 68.8953 298.64 62.9453C296.34 63.2253 293.91 63.5353 290.9 63.9253C290.22 71.7453 289.89 75.6653 289.24 83.4853C289.08 84.2053 288.86 84.8253 288.62 85.4053C292.7 85.9153 296.13 84.5153 297.24 79.4853Z" fill="white"/>
<path d="M316.05 108.265C321.87 89.6454 328.15 71.1754 334.83 52.8454C337.34 45.7854 338.63 42.2554 341.24 35.2154C342.66 29.9354 343.38 27.2954 344.84 22.0254C345.97 16.6954 346.68 13.3854 347.63 9.03539C345.5 8.86539 343.22 8.69538 340.62 8.51538C339.09 15.5154 338.33 19.0254 336.84 26.0254C335.38 31.2954 334.66 33.9354 333.24 39.2154C330.62 46.2554 329.34 49.7854 326.83 56.8454C320.16 75.1754 313.87 93.6454 308.05 112.265C309.04 112.295 309.54 112.315 310.53 112.355C315.45 112.545 324.99 113.035 329.9 113.365C330.35 111.895 330.81 110.435 331.27 108.965C326.75 108.715 321.69 108.465 318.53 108.345C317.53 108.315 317.04 108.295 316.05 108.265Z" fill="white"/>
<path d="M362.659 81.6254C358.199 81.1454 355.96 80.9254 351.49 80.5154C349.56 80.9654 348.6 81.1954 346.68 81.6654C346.35 82.6854 346.029 83.7054 345.689 84.7154C348.819 85.0054 350.989 85.2254 354.659 85.6154C355.239 95.3954 355.499 100.285 355.979 110.055C362.109 110.705 372.159 111.935 378.199 112.775C377.889 111.055 377.569 109.335 377.259 107.605C372.549 107.015 367.589 106.435 363.979 106.055C363.499 96.2854 363.239 91.4054 362.659 81.6254Z" fill="white"/>
<path d="M361 35.7253C360.95 35.5653 360.92 35.4853 360.87 35.3253C358.73 43.6253 357.68 47.7753 355.62 56.0853C354.81 58.5453 354.21 60.3753 353.6 62.2253C353.75 64.6153 353.86 66.4953 353.97 68.5453C355.44 68.9153 356.68 69.2253 358.55 69.7053C360.03 69.6653 360.77 69.6453 362.25 69.6053C361.96 64.3053 361.8 61.6653 361.48 56.3653C361.32 48.1153 361.22 43.9853 361 35.7253Z" fill="white"/>
<path d="M428.03 68.3153C430.15 52.5753 432.23 36.8254 434.26 21.0654C431.83 20.5754 429.41 20.0853 426.97 19.6053C424.71 37.1853 422.4 54.7453 420.03 72.3153C415.73 87.3553 411.53 102.415 407.41 117.495C430.01 121.885 452.25 127.175 474.41 133.435C475.03 131.315 475.58 129.435 476.09 127.685C456.02 122.185 435.87 117.465 415.41 113.495C419.53 98.4154 423.73 83.3553 428.03 68.3153Z" fill="white"/>
<path d="M469.02 87.3654C461.14 84.5454 453.34 81.4754 445.26 79.2554C444.79 81.5154 444.38 83.4854 444 85.3054C451.85 87.8854 459.53 90.9854 467.38 93.5554C468 91.2254 468.53 89.2254 469.02 87.3654Z" fill="white"/>
<path d="M495.979 59.7553C496.789 56.9853 497.469 54.6553 498.109 52.4753C493.839 50.1153 490.319 48.2254 484.849 45.3654C475.659 42.4254 466.369 39.6654 457.059 37.1154C456.299 39.1854 455.62 41.0354 454.99 42.7754C462.31 44.8554 469.609 47.0454 476.849 49.3654C484.579 53.4154 488.399 55.4953 495.979 59.7553Z" fill="white"/>
<path d="M508.14 137.545C499.06 134.655 494.5 133.295 485.36 130.745C491.12 116.065 496.95 101.405 502.88 86.7854C506.62 71.5654 510.31 56.3354 513.96 41.1054C512.34 40.6054 510.62 40.0854 508.72 39.5154C507.13 44.9354 505.92 49.0954 503.97 55.7554C503.8 55.6554 503.64 55.5654 503.47 55.4754C500.63 67.2554 497.77 79.0254 494.88 90.7854C492.84 95.8154 490.82 100.865 488.8 105.905C488.97 105.885 489.14 105.875 489.3 105.855C486.54 115.285 485.16 120.005 482.4 129.435C481.51 129.185 480.63 128.945 479.74 128.695C478.95 130.705 478.14 132.715 477.35 134.735C486.49 137.285 491.05 138.645 500.13 141.535C509.56 144.155 514.27 145.555 523.65 148.535C531.39 152.025 535.24 153.825 542.88 157.565C543.92 155.055 544.79 152.955 545.6 151.005C541 148.795 537.4 147.135 531.66 144.545C522.28 141.565 517.58 140.165 508.14 137.545Z" fill="white"/>
<path d="M29.7594 47.9753C39.4694 44.3653 49.2894 40.9553 59.1594 37.7753C59.1594 37.7753 61.0894 37.7253 68.0294 38.9153C74.9794 40.1053 81.5694 46.4053 81.5694 46.4053C83.8994 54.2453 85.0694 58.1653 87.3994 65.9953C79.8394 70.2053 76.0994 72.3553 68.6894 76.7653C68.6894 76.7653 67.7494 68.3153 65.0994 62.8553C62.4494 57.3953 55.3994 55.7053 47.3294 60.3453C39.2594 64.9853 37.7394 70.0453 37.7094 77.9053C37.6494 90.4053 43.1394 108.305 51.7194 115.545C56.9494 119.955 81.0694 126.155 79.6594 112.005C77.7894 104.375 76.8594 100.565 75.0194 92.9253C82.1294 89.4653 85.7094 87.7853 92.9294 84.5253C95.7994 94.1653 97.2394 98.9953 100.109 108.635C100.109 108.635 98.5394 121.205 88.1494 131.655C83.1094 136.725 72.9694 139.535 64.2794 140.645C53.7594 141.995 41.7594 135.065 31.9094 130.475C26.9494 119.455 22.6194 108.115 18.0394 96.9653C11.8394 81.8953 11.4694 78.8453 13.3094 71.9353C15.1494 65.0253 23.3094 54.9653 23.3094 54.9653C25.8594 52.1653 27.1494 50.7653 29.7594 47.9753Z" fill="#7ADBD4"/>
<path d="M82.7095 30.5353C92.0895 27.7953 101.549 25.2453 111.029 22.9053C111.629 30.2953 111.939 33.9954 112.599 41.3754C114.089 52.4654 115.619 63.5453 117.179 74.6353C125.869 73.5453 130.199 73.0653 138.869 72.2453C142.509 70.9153 144.329 70.2553 147.989 68.9753C147.979 68.9353 147.979 68.9053 147.979 68.8653C143.359 51.7553 138.679 34.6653 133.959 17.5853C144.209 15.3653 149.359 14.3353 159.659 12.4653C161.449 32.5853 163.349 52.6953 165.369 72.7853C169.329 85.4253 173.199 98.0853 176.999 110.765C167.739 112.615 163.129 113.625 153.929 115.805C152.299 103.535 150.729 91.2553 149.209 78.9753C145.859 80.1053 144.179 80.6753 140.849 81.8353C135.999 82.4053 133.579 82.7053 128.729 83.3653C125.849 84.9453 124.409 85.7453 121.549 87.3553C121.759 87.8253 121.869 88.0553 122.079 88.5153C127.669 103.515 133.169 118.545 138.539 133.615C128.579 134.905 123.599 135.655 113.639 137.345C109.599 120.165 105.599 102.975 101.669 85.7753C95.4095 67.3353 89.0995 48.9253 82.7095 30.5353Z" fill="#7ADBD4"/>
<path d="M242.209 2.01538C242.869 11.2054 243.199 15.8054 243.869 24.9954C235.359 23.6454 231.079 23.0254 222.479 21.9154C212.889 22.3554 203.269 23.0054 193.709 23.8554C193.769 34.8154 193.829 40.2954 193.989 51.2454C194.039 51.4754 194.069 51.5854 194.119 51.8154C196.759 51.6154 194.859 51.9954 200.999 51.0054C207.139 50.0254 224.149 46.1854 226.929 45.2454C227.759 53.7954 228.179 58.0754 229.009 66.6254C218.459 67.0454 207.879 66.5354 197.349 67.4654C198.679 76.2054 199.339 80.5754 200.659 89.3254C210.189 88.2554 221.299 88.0554 229.039 85.5554C238.539 82.4954 242.779 79.3254 247.599 77.0554C248.309 86.8554 248.659 91.7654 249.369 101.565C226.529 103.425 203.949 106.215 181.349 109.965C179.949 94.3854 178.629 78.8054 177.419 63.2154C173.519 45.9254 169.559 28.6554 165.549 11.3954C191.029 7.19539 216.469 4.07538 242.209 2.01538Z" fill="#7ADBD4"/>
<path d="M275.059 0.345331C285.279 0.0253311 295.529 -0.0746622 305.749 0.0553378C305.749 0.0553378 307.569 0.625332 313.699 3.95533C319.839 7.29533 324.039 15.3653 324.039 15.3653C323.759 23.5353 323.609 27.6253 323.329 35.7953C314.909 37.3753 310.719 38.2253 302.399 40.0453C302.399 40.0453 304.179 31.7353 303.419 25.7253C302.649 19.7053 296.589 15.8553 287.589 17.6853C278.589 19.5053 275.589 23.8153 273.089 31.2553C269.109 43.1053 268.589 61.7453 274.349 71.3953C277.819 77.2053 298.499 90.8353 301.569 76.9653C302.219 69.1453 302.549 65.2253 303.229 57.4053C310.979 56.3953 314.859 55.9353 322.659 55.1353C322.309 65.1953 322.139 70.2153 321.789 80.2753C321.789 80.2753 316.349 91.6953 303.329 98.2853C297.019 101.485 286.639 100.915 278.179 99.1953C267.909 97.1053 258.909 86.6753 251.199 79.1953C250.029 67.1653 249.549 55.0453 248.769 43.0153C247.719 26.7553 248.329 23.7453 252.199 17.7953C256.069 11.8353 266.839 4.91532 266.839 4.91532C270.109 3.07532 271.749 2.15533 275.059 0.345331Z" fill="#7ADBD4"/>
<path d="M378.499 35.7954C379.269 43.1154 379.639 46.7754 380.329 54.0954C384.039 71.4354 387.429 88.8054 390.519 106.265C384.479 105.425 374.429 104.195 368.299 103.545C367.829 93.7654 367.559 88.8854 366.979 79.1054C362.519 78.6254 360.279 78.4054 355.809 77.9954C353.879 78.4454 352.919 78.6754 350.999 79.1454C347.979 88.3454 345.049 97.5854 342.219 106.845C337.299 106.515 327.769 106.015 322.849 105.835C321.859 105.795 321.359 105.775 320.369 105.745C326.189 87.1254 332.469 68.6554 339.149 50.3254C341.659 43.2654 342.949 39.7354 345.559 32.6954C346.979 27.4154 347.699 24.7754 349.159 19.5054C350.649 12.4954 351.399 8.99536 352.939 1.99536C363.889 2.77536 369.359 3.26537 380.279 4.44537C379.349 10.6054 378.879 13.6954 377.959 19.8554C378.189 26.2254 378.299 29.4154 378.499 35.7954ZM359.949 53.5654C358.379 58.3254 357.599 60.7054 356.069 65.4754C358.799 66.1454 360.169 66.4854 362.889 67.1854C364.369 67.1454 365.109 67.1254 366.589 67.0854C366.299 61.7854 366.139 59.1454 365.819 53.8454C365.649 45.5854 365.549 41.4554 365.329 33.1954C365.279 33.0354 365.249 32.9554 365.199 32.7954C363.059 41.1054 362.009 45.2554 359.949 53.5654Z" fill="#7ADBD4"/>
<path d="M514.779 31.1253C512.189 39.9653 510.899 44.3953 508.309 53.2353C500.739 48.9753 496.91 46.8953 489.18 42.8453C479.99 39.9053 470.699 37.1453 461.389 34.5953C457.619 44.8853 455.759 50.0453 452.089 60.3653C452.059 60.5953 452.039 60.7153 452.009 60.9453C454.559 61.6753 452.639 61.3653 458.769 62.5953C464.889 63.8153 482.259 66.1853 485.219 66.2853C483.019 74.5853 481.909 78.7453 479.709 87.0453C469.629 83.7553 459.829 79.5553 449.589 76.7453C447.789 85.4053 446.879 89.7253 445.079 98.3853C454.429 100.715 464.959 104.415 473.129 104.785C483.169 105.245 488.289 103.765 493.639 103.335C490.879 112.765 489.5 117.485 486.74 126.915C464.58 120.655 442.35 115.365 419.74 110.975C423.86 95.8953 428.059 80.8253 432.359 65.7953C434.729 48.2353 437.039 30.6653 439.299 13.0853C464.769 18.0553 489.809 24.0353 514.779 31.1253Z" fill="#7ADBD4"/>
<path d="M519.74 32.5953C529.84 35.6253 534.869 37.2254 544.889 40.6154C536.699 59.0754 528.619 77.5954 520.649 96.1554C519.099 104.225 518.319 108.255 516.709 116.315C524.779 120.855 528.779 123.185 536.669 127.975C547.199 129.415 552.479 130.245 563.059 132.135C559.919 139.705 558.359 143.485 555.219 151.055C547.579 147.325 543.74 145.515 535.99 142.025C526.61 139.045 521.909 137.645 512.469 135.025C503.389 132.135 498.829 130.775 489.689 128.225C495.449 113.545 501.279 98.8854 507.209 84.2654C511.439 67.0554 515.62 49.8353 519.74 32.5953Z" fill="#7ADBD4"/>
<path d="M115.89 206.905L111.44 206.075C107.8 205.405 103.88 204.985 99.2196 204.785C102.34 201.885 104.77 199.265 106.77 196.635L109.22 193.415L105.37 195.465C102.4 197.045 99.4796 198.915 96.2896 201.285C96.2496 195.425 93.5996 159.435 93.5996 159.435C92.8696 167.645 90.9796 195.675 90.9396 202.075C87.2896 199.295 84.1196 197.215 80.8296 195.475L76.9996 193.435L79.4296 196.645C81.4296 199.285 83.8496 201.895 86.9696 204.785C82.3196 204.985 78.3996 205.405 74.7596 206.085L70.3296 206.915L74.7596 207.745C78.3896 208.425 82.3196 208.835 86.9696 209.035C83.8496 211.935 81.4296 214.545 79.4296 217.175L76.9896 220.385L80.8296 218.355C84.1196 216.605 87.2996 214.535 90.9396 211.755C90.9796 218.085 93.6896 254.395 93.6896 254.395C93.9396 251.805 96.2596 218.335 96.2896 212.535C99.4896 214.905 102.41 216.775 105.37 218.345L109.22 220.395L106.77 217.175C104.77 214.545 102.35 211.925 99.2196 209.035C103.88 208.835 107.8 208.415 111.44 207.745L115.89 206.905Z" fill="#FF7276"/>
<path d="M505.73 206.905L501.28 206.075C497.64 205.405 493.72 204.985 489.06 204.785C492.18 201.885 494.61 199.265 496.61 196.635L499.06 193.415L495.21 195.465C492.24 197.045 489.32 198.915 486.13 201.285C486.09 195.425 483.44 159.435 483.44 159.435C482.71 167.645 480.82 195.675 480.78 202.075C477.13 199.295 473.96 197.215 470.67 195.475L466.84 193.435L469.27 196.645C471.27 199.285 473.69 201.895 476.81 204.785C472.16 204.985 468.24 205.405 464.6 206.085L460.17 206.915L464.6 207.745C468.23 208.425 472.16 208.835 476.81 209.035C473.69 211.935 471.27 214.545 469.27 217.175L466.83 220.385L470.67 218.355C473.96 216.605 477.14 214.535 480.78 211.755C480.82 218.085 483.53 254.395 483.53 254.395C483.78 251.805 486.1 218.335 486.13 212.535C489.33 214.905 492.25 216.775 495.21 218.345L499.06 220.395L496.61 217.175C494.61 214.545 492.19 211.925 489.06 209.035C493.72 208.835 497.64 208.415 501.28 207.745L505.73 206.905Z" fill="#FF7276"/>
<path d="M188.649 216.175V214.915C189.069 205.545 196.899 183.455 197.039 181.915C197.039 181.215 196.899 180.935 196.479 180.935C196.059 180.935 195.499 181.495 195.079 181.915C192.979 183.875 190.749 186.385 188.789 189.045C183.199 196.315 178.299 204.425 176.349 207.925C174.669 214.495 173.129 220.085 173.129 222.325V222.605C173.129 223.865 172.429 224.145 171.589 224.145H170.049C164.739 224.145 162.499 221.765 162.499 217.155L162.639 215.195C163.619 205.685 169.909 187.795 171.449 182.475L171.589 181.495C171.589 181.075 171.449 180.935 171.169 180.935C170.889 180.935 170.329 181.215 169.629 181.775C167.249 183.735 163.479 188.625 163.059 189.045C157.609 196.175 152.709 204.425 150.759 207.925C148.939 214.075 147.679 219.525 147.539 222.745C147.539 223.725 146.839 224.145 145.999 224.145H145.019C141.659 224.145 137.189 223.445 137.049 220.225V220.085C137.049 211.695 146.419 182.615 148.799 176.465C149.219 175.345 150.479 174.785 152.299 174.785C155.659 174.785 160.269 176.745 160.269 178.975L160.129 179.535C157.749 185.405 155.939 191.285 153.979 197.295C156.079 194.075 158.449 190.725 160.969 187.365C163.769 183.725 167.819 178.975 171.739 176.315C173.419 175.195 175.239 174.775 176.909 174.775C180.409 174.775 183.339 176.875 183.339 180.645L183.199 182.325C182.639 185.265 180.679 192.255 179.009 198.125C181.249 194.765 183.759 190.995 186.559 187.355C189.499 183.715 193.409 178.965 197.329 176.305C199.009 175.185 200.829 174.765 202.499 174.765C205.999 174.765 208.929 176.865 208.929 180.635L208.789 182.315C206.829 191.965 200.119 210.695 200.119 218.805C200.119 220.485 200.259 221.325 200.959 221.325C202.779 221.185 204.179 220.065 206.269 216.435C208.789 212.385 211.859 205.525 216.759 194.485C217.039 193.925 217.459 193.645 217.879 193.645C218.719 193.645 219.419 194.205 219.419 195.045C219.419 195.185 219.419 195.325 219.279 195.605C214.389 206.795 211.169 213.785 208.649 217.975C205.849 222.445 203.759 223.985 201.099 224.125L197.179 224.265C192.289 224.285 188.649 223.025 188.649 216.175Z" fill="white"/>
<path d="M230.029 224.145C218.149 223.725 213.809 216.735 213.809 207.925C213.809 203.595 214.789 198.975 216.469 194.505C219.829 185.555 227.239 174.795 237.439 174.795H237.999C243.309 174.935 247.649 177.595 247.649 182.905V183.185C247.369 193.115 237.159 205.275 229.609 205.275C228.209 205.275 226.809 204.855 225.689 203.875C225.409 205.555 225.129 207.375 225.129 209.185C225.129 214.495 226.669 219.955 231.279 220.925L232.819 221.065C233.659 221.065 234.779 220.925 235.899 220.645C240.789 218.825 247.779 212.815 256.589 194.495C256.869 193.935 257.289 193.655 257.709 193.655C257.989 193.655 258.269 193.795 258.549 193.935C258.969 194.075 259.249 194.495 259.249 195.055C259.249 195.055 259.249 195.335 259.109 195.615C249.739 215.185 242.049 221.485 236.459 223.435C234.639 223.995 232.959 224.135 231.569 224.135H230.029V224.145ZM242.899 183.595C242.899 182.755 242.619 182.335 242.199 182.055C241.779 181.775 241.499 181.775 241.079 181.775C237.859 181.775 233.389 187.645 231.989 189.605C229.889 192.825 228.069 196.455 226.959 199.815C227.519 200.235 228.219 200.375 228.919 200.375C234.929 200.375 242.899 188.075 242.899 183.595Z" fill="white"/>
<path d="M276.589 216.175C276.869 205.965 284.699 183.315 284.839 181.645C284.839 181.225 284.699 180.945 284.419 180.945C283.999 180.945 283.439 181.365 283.019 181.785C276.309 187.795 266.799 203.455 264.279 207.795C262.599 213.945 261.199 219.535 261.069 222.755C261.069 224.015 260.369 224.155 259.249 224.155H258.549C255.189 224.155 250.719 223.455 250.579 220.235C250.579 213.105 258.829 185.565 262.319 176.475C262.739 175.355 264.139 174.795 265.819 174.795C269.179 174.795 273.789 176.755 273.789 178.985L273.649 179.545C272.529 182.205 267.919 196.045 267.499 197.165C269.599 194.085 271.969 190.595 274.489 187.375C278.679 181.925 284.559 174.795 290.429 174.795C293.929 174.795 296.859 176.895 296.859 180.665L296.719 182.345C294.759 191.995 288.049 210.725 288.049 218.835C288.049 220.515 288.189 221.355 288.889 221.355C292.389 221.075 294.899 216.465 304.689 194.515C304.969 193.955 305.389 193.675 305.809 193.675C306.649 193.675 307.349 194.235 307.349 195.075C307.349 195.215 307.349 195.355 307.209 195.635C297.419 217.865 294.349 223.875 289.029 224.155L285.109 224.295C280.079 224.285 276.589 223.165 276.589 216.175Z" fill="white"/>
<path d="M334.189 224.145C330.689 224.145 327.059 223.725 325.519 220.785C324.679 219.385 324.399 217.425 324.399 215.055C324.399 213.375 324.539 211.555 324.819 209.605C323.979 211.425 322.859 213.385 321.599 215.195C318.659 219.945 315.169 224.005 311.949 224.145H310.129C306.629 224.145 302.999 223.725 301.459 220.785C300.619 219.385 300.339 217.425 300.339 215.055C300.339 212.115 300.899 208.345 301.739 204.565C303.839 194.775 308.869 180.935 310.969 176.465C311.529 175.345 312.789 174.785 314.469 174.785C317.829 174.785 322.159 176.885 322.159 178.975L322.019 179.535C320.199 184.005 311.109 208.055 310.839 218.125C310.839 220.085 310.979 221.345 311.679 221.345C313.219 221.345 315.869 219.385 319.509 213.515C322.449 208.905 325.659 201.915 329.439 191.705C331.399 185.415 333.639 179.545 335.029 176.465C335.449 175.345 336.849 174.785 338.529 174.785C341.889 174.785 346.219 176.745 346.219 178.975L346.079 179.535C344.259 184.005 335.169 208.055 334.889 218.125C334.889 220.085 335.029 221.345 335.869 221.345C337.689 221.205 340.199 218.265 342.859 214.215C346.779 208.205 350.829 199.675 353.209 194.505C353.489 193.805 354.049 193.665 354.469 193.665C354.609 193.665 354.889 193.665 355.169 193.805C355.589 194.085 355.869 194.505 355.869 194.925C355.869 195.205 355.869 195.345 355.729 195.625C353.069 201.355 349.019 210.025 344.819 216.315C341.739 220.785 338.669 224.005 336.009 224.145H334.189V224.145Z" fill="white"/>
<path d="M387.729 250.295C381.719 249.875 378.499 246.105 378.499 240.785L378.639 238.545C380.039 229.735 387.309 226.795 400.029 225.965C401.849 221.075 402.689 217.995 404.359 211.705C400.999 217.855 396.529 224.005 392.609 224.145H390.789C387.289 224.145 383.659 223.725 382.119 220.785C381.279 219.385 380.999 217.425 380.999 215.055C380.999 203.725 388.549 182.895 391.629 176.465C392.189 175.345 393.449 174.785 395.129 174.785C398.489 174.785 402.819 176.885 402.819 179.115L402.679 179.675C401.419 182.755 391.219 210.855 391.219 219.105C391.219 220.505 391.639 221.345 392.339 221.345C393.879 221.205 396.529 219.385 400.169 213.515C402.969 208.905 406.459 201.765 410.099 191.565C411.499 186.675 413.179 181.635 414.989 176.605C415.409 175.345 416.949 174.785 418.759 174.785C422.119 174.785 426.449 176.605 426.449 178.835L426.309 179.395C424.629 183.865 422.809 189.885 420.859 196.595C417.919 205.965 414.709 216.445 411.489 225.255C415.409 223.155 418.479 220.085 421.279 215.885C425.059 210.575 428.269 203.445 432.329 194.495C432.609 193.935 433.169 193.655 433.589 193.655C434.289 193.655 434.989 194.215 434.989 194.915C434.989 195.055 434.989 195.335 434.849 195.615C430.799 204.705 427.439 211.975 423.659 217.425C419.889 222.875 415.689 226.655 410.099 228.885C406.319 238.535 400.449 250.275 388.709 250.275H387.729V250.295ZM399.059 228.895C387.459 229.595 383.399 232.395 381.999 237.285C381.719 238.265 381.579 239.245 381.579 240.085C381.579 242.325 382.559 244.135 385.629 244.135C390.949 244.135 395.839 236.725 399.059 228.895Z" fill="white"/>
<path d="M328.289 174.335C328.819 174.345 329.369 174.195 329.829 173.915C330.869 173.285 331.469 172.135 332.389 171.365C333.659 170.295 335.049 169.305 336.359 168.265C336.909 167.825 337.459 167.375 337.869 166.795C338.279 166.215 338.529 165.485 338.399 164.775C338.109 163.275 336.079 162.865 334.859 163.075C331.299 163.695 328.139 167.405 326.629 170.615C326.169 171.595 326.069 172.865 326.769 173.675C327.149 174.125 327.709 174.325 328.289 174.335Z" fill="white"/>
<path d="M192.649 217.175V215.915C193.069 206.545 200.899 184.455 201.039 182.915C201.039 182.215 200.899 181.935 200.479 181.935C200.059 181.935 199.499 182.495 199.079 182.915C196.979 184.875 194.749 187.385 192.789 190.045C187.199 197.315 182.299 205.425 180.349 208.925C178.669 215.495 177.129 221.085 177.129 223.325V223.605C177.129 224.865 176.429 225.145 175.589 225.145H174.049C168.739 225.145 166.499 222.765 166.499 218.155L166.639 216.195C167.619 206.685 173.909 188.795 175.449 183.475L175.589 182.495C175.589 182.075 175.449 181.935 175.169 181.935C174.889 181.935 174.329 182.215 173.629 182.775C171.249 184.735 167.479 189.625 167.059 190.045C161.609 197.175 156.709 205.425 154.759 208.925C152.939 215.075 151.679 220.525 151.539 223.745C151.539 224.725 150.839 225.145 149.999 225.145H149.019C145.659 225.145 141.189 224.445 141.049 221.225V221.085C141.049 212.695 150.419 183.615 152.799 177.465C153.219 176.345 154.479 175.785 156.299 175.785C159.659 175.785 164.269 177.745 164.269 179.975L164.129 180.535C161.749 186.405 159.939 192.285 157.979 198.295C160.079 195.075 162.449 191.725 164.969 188.365C167.769 184.725 171.819 179.975 175.739 177.315C177.419 176.195 179.239 175.775 180.909 175.775C184.409 175.775 187.339 177.875 187.339 181.645L187.199 183.325C186.639 186.265 184.679 193.255 183.009 199.125C185.249 195.765 187.759 191.995 190.559 188.355C193.499 184.715 197.409 179.965 201.329 177.305C203.009 176.185 204.829 175.765 206.499 175.765C209.999 175.765 212.929 177.865 212.929 181.635L212.789 183.315C210.829 192.965 204.119 211.695 204.119 219.805C204.119 221.485 204.259 222.325 204.959 222.325C206.779 222.185 208.179 221.065 210.269 217.435C212.789 213.385 215.859 206.525 220.759 195.485C221.039 194.925 221.459 194.645 221.879 194.645C222.719 194.645 223.419 195.205 223.419 196.045C223.419 196.185 223.419 196.325 223.279 196.605C218.389 207.795 215.169 214.785 212.649 218.975C209.849 223.445 207.759 224.985 205.099 225.125L201.179 225.265C196.289 225.285 192.649 224.025 192.649 217.175Z" fill="#FFA303"/>
<path d="M234.029 225.145C222.149 224.725 217.809 217.735 217.809 208.925C217.809 204.595 218.789 199.975 220.469 195.505C223.829 186.555 231.239 175.795 241.439 175.795H241.999C247.309 175.935 251.649 178.595 251.649 183.905V184.185C251.369 194.115 241.159 206.275 233.609 206.275C232.209 206.275 230.809 205.855 229.689 204.875C229.409 206.555 229.129 208.375 229.129 210.185C229.129 215.495 230.669 220.955 235.279 221.925L236.819 222.065C237.659 222.065 238.779 221.925 239.899 221.645C244.789 219.825 251.779 213.815 260.589 195.495C260.869 194.935 261.289 194.655 261.709 194.655C261.989 194.655 262.269 194.795 262.549 194.935C262.969 195.075 263.249 195.495 263.249 196.055C263.249 196.055 263.249 196.335 263.109 196.615C253.739 216.185 246.049 222.485 240.459 224.435C238.639 224.995 236.959 225.135 235.569 225.135H234.029V225.145ZM246.899 184.595C246.899 183.755 246.619 183.335 246.199 183.055C245.779 182.775 245.499 182.775 245.079 182.775C241.859 182.775 237.389 188.645 235.989 190.605C233.889 193.825 232.069 197.455 230.959 200.815C231.519 201.235 232.219 201.375 232.919 201.375C238.929 201.375 246.899 189.075 246.899 184.595Z" fill="#FFA303"/>
<path d="M280.589 217.175C280.869 206.965 288.699 184.315 288.839 182.645C288.839 182.225 288.699 181.945 288.419 181.945C287.999 181.945 287.439 182.365 287.019 182.785C280.309 188.795 270.799 204.455 268.279 208.795C266.599 214.945 265.199 220.535 265.069 223.755C265.069 225.015 264.369 225.155 263.249 225.155H262.549C259.189 225.155 254.719 224.455 254.579 221.235C254.579 214.105 262.829 186.565 266.319 177.475C266.739 176.355 268.139 175.795 269.819 175.795C273.179 175.795 277.789 177.755 277.789 179.985L277.649 180.545C276.529 183.205 271.919 197.045 271.499 198.165C273.599 195.085 275.969 191.595 278.489 188.375C282.679 182.925 288.559 175.795 294.429 175.795C297.929 175.795 300.859 177.895 300.859 181.665L300.719 183.345C298.759 192.995 292.049 211.725 292.049 219.835C292.049 221.515 292.189 222.355 292.889 222.355C296.389 222.075 298.899 217.465 308.689 195.515C308.969 194.955 309.389 194.675 309.809 194.675C310.649 194.675 311.349 195.235 311.349 196.075C311.349 196.215 311.349 196.355 311.209 196.635C301.419 218.865 298.349 224.875 293.029 225.155L289.109 225.295C284.079 225.285 280.589 224.165 280.589 217.175Z" fill="#FFA303"/>
<path d="M338.189 225.145C334.689 225.145 331.059 224.725 329.519 221.785C328.679 220.385 328.399 218.425 328.399 216.055C328.399 214.375 328.539 212.555 328.819 210.605C327.979 212.425 326.859 214.385 325.599 216.195C322.659 220.945 319.169 225.005 315.949 225.145H314.129C310.629 225.145 306.999 224.725 305.459 221.785C304.619 220.385 304.339 218.425 304.339 216.055C304.339 213.115 304.899 209.345 305.739 205.565C307.839 195.775 312.869 181.935 314.969 177.465C315.529 176.345 316.789 175.785 318.469 175.785C321.829 175.785 326.159 177.885 326.159 179.975L326.019 180.535C324.199 185.005 315.109 209.055 314.839 219.125C314.839 221.085 314.979 222.345 315.679 222.345C317.219 222.345 319.869 220.385 323.509 214.515C326.449 209.905 329.659 202.915 333.439 192.705C335.399 186.415 337.639 180.545 339.029 177.465C339.449 176.345 340.849 175.785 342.529 175.785C345.889 175.785 350.219 177.745 350.219 179.975L350.079 180.535C348.259 185.005 339.169 209.055 338.889 219.125C338.889 221.085 339.029 222.345 339.869 222.345C341.689 222.205 344.199 219.265 346.859 215.215C350.779 209.205 354.829 200.675 357.209 195.505C357.489 194.805 358.049 194.665 358.469 194.665C358.609 194.665 358.889 194.665 359.169 194.805C359.589 195.085 359.869 195.505 359.869 195.925C359.869 196.205 359.869 196.345 359.729 196.625C357.069 202.355 353.019 211.025 348.819 217.315C345.739 221.785 342.669 225.005 340.009 225.145H338.189V225.145Z" fill="#FFA303"/>
<path d="M391.729 251.295C385.719 250.875 382.499 247.105 382.499 241.785L382.639 239.545C384.039 230.735 391.309 227.795 404.029 226.965C405.849 222.075 406.689 218.995 408.359 212.705C404.999 218.855 400.529 225.005 396.609 225.145H394.789C391.289 225.145 387.659 224.725 386.119 221.785C385.279 220.385 384.999 218.425 384.999 216.055C384.999 204.725 392.549 183.895 395.629 177.465C396.189 176.345 397.449 175.785 399.129 175.785C402.489 175.785 406.819 177.885 406.819 180.115L406.679 180.675C405.419 183.755 395.219 211.855 395.219 220.105C395.219 221.505 395.639 222.345 396.339 222.345C397.879 222.205 400.529 220.385 404.169 214.515C406.969 209.905 410.459 202.765 414.099 192.565C415.499 187.675 417.179 182.635 418.989 177.605C419.409 176.345 420.949 175.785 422.759 175.785C426.119 175.785 430.449 177.605 430.449 179.835L430.309 180.395C428.629 184.865 426.809 190.885 424.859 197.595C421.919 206.965 418.709 217.445 415.489 226.255C419.409 224.155 422.479 221.085 425.279 216.885C429.059 211.575 432.269 204.445 436.329 195.495C436.609 194.935 437.169 194.655 437.589 194.655C438.289 194.655 438.989 195.215 438.989 195.915C438.989 196.055 438.989 196.335 438.849 196.615C434.799 205.705 431.439 212.975 427.659 218.425C423.889 223.875 419.689 227.655 414.099 229.885C410.319 239.535 404.449 251.275 392.709 251.275H391.729V251.295ZM403.059 229.895C391.459 230.595 387.399 233.395 385.999 238.285C385.719 239.265 385.579 240.245 385.579 241.085C385.579 243.325 386.559 245.135 389.629 245.135C394.949 245.135 399.839 237.725 403.059 229.895Z" fill="#FFA303"/>
<path d="M332.289 175.335C332.819 175.345 333.369 175.195 333.829 174.915C334.869 174.285 335.469 173.135 336.389 172.365C337.659 171.295 339.049 170.305 340.359 169.265C340.909 168.825 341.459 168.375 341.869 167.795C342.279 167.215 342.529 166.485 342.399 165.775C342.109 164.275 340.079 163.865 338.859 164.075C335.299 164.695 332.139 168.405 330.629 171.615C330.169 172.595 330.069 173.865 330.769 174.675C331.149 175.125 331.709 175.325 332.289 175.335Z" fill="#FFA303"/>
</svg>
