<svg viewBox="0 0 351 108" fill="none" xmlns="http://www.w3.org/2000/svg">
<path d="M43.053 29.6944C43.3681 28.9465 43.6832 28.1986 44.3816 26.9543C50.8108 20.8107 63.3122 19.6327 69.6147 24.0278C69.191 25.624 68.7791 27.1755 68.2169 29.0551C62.9621 38.9187 57.8577 48.4541 52.3686 58.7081C54.7305 58.7081 55.6113 58.9017 56.3668 58.676C60.6182 57.4058 64.8395 56.0347 69.3877 54.7003C69.8876 54.3795 70.0707 54.0564 70.2274 53.725C70.2011 53.7168 70.2245 53.767 70.5799 53.8672C77.6786 50.5088 82.6672 45.3943 85.3689 38.2645C89.2682 27.9744 83.8773 18.9286 72.9902 17.708C60.305 16.2858 48.2134 18.4676 37.0806 24.8267C34.4956 26.3032 32.4428 28.7115 30.1451 30.6911C30.1451 30.6911 30.1996 30.7113 29.8756 30.6343C29.2798 30.8822 29.0081 31.2071 28.7363 31.532C25.5145 36.9242 22.2927 42.3165 18.7023 48.3256C17.8833 47.3544 16.4546 45.6602 14.6891 43.4145C10.6946 34.4417 10.5295 26.3146 16.3494 18.6675C16.4875 18.4861 16.2988 18.0561 16.2625 17.7421C16.2625 17.7421 16.2058 17.7126 16.5464 17.7766C16.9969 17.4483 17.1068 17.056 17.2167 16.6636C17.2167 16.6636 17.2265 16.7275 17.4106 16.6931C17.7735 16.4218 17.8929 16.1581 17.9529 15.8675C26.3535 7.86883 36.6609 3.7658 47.6992 1.21237C48.097 1.12035 48.0833 1.09938 48.4965 1.05005C59.6992 -0.287628 68.2169 -0.287619 79.7308 0.712369C81.1992 1.21237 82.9511 1.64062 84.032 2.01849C97.1326 6.5986 102.061 13.7715 102.152 28.6624C102.167 31.046 101.527 33.4336 101.152 36.2724C101.114 36.7255 101.138 36.6481 100.835 36.755C100.475 37.4754 100.417 38.089 100.208 39.0239C96.7253 44.4731 93.3939 49.6007 89.739 54.8428C89.2754 55.5179 89.1352 56.0785 89.0088 56.5778C89.0226 56.5165 88.9062 56.4689 88.9062 56.4689C85.6197 58.3913 82.3332 60.3137 78.3479 62.3592C70.2988 64.1339 63.0112 66.2064 55.5797 67.3124C48.8628 68.3119 48.0805 68.5624 47.3248 75.748C45.2444 83.5871 44.5667 91.105 53.4455 97.2242C47.2602 99.3691 42.2058 99.2378 36.3262 97.63C34.0246 93.9418 31.4345 90.45 31.1171 86.7625C30.5717 80.4268 30.4488 73.7282 31.9285 67.6126C35.0227 54.8247 39.2759 42.3171 43.053 29.6944Z" fill="#FFFEFD"/>
<path d="M275.121 33.6339C283.079 24.4671 294.173 21.4409 302.751 26.7664C306.098 28.8438 308.516 32.4153 311.131 35.0756C315.008 32.6566 319.676 28.9644 324.958 26.7079C328.811 25.0619 333.507 24.6247 337.766 24.8437C348.904 25.4163 352.17 32.8154 348.67 42.602C347.781 45.0862 345.355 47.0204 343.161 49.8105C342.116 46.9917 341.565 45.505 340.53 43.5444C337.259 41.6002 334.596 39.6185 331.627 38.8941C330.311 38.5732 327.866 40.4805 326.929 41.9931C326.435 42.7905 327.677 45.4511 328.844 46.3327C331.686 48.4791 334.941 50.0782 338.029 51.8976C348.376 60.4474 349.307 72.0935 340.126 80.2005C338.392 81.7311 336.032 82.5519 333.194 83.7519C325.588 85.6098 318.762 86.6274 311.89 83.8595C310.344 83.2368 296.269 83.3362 294.446 83.7842C275.007 88.5606 266.381 76.7844 266.35 61.1662C266.342 57.3663 266.883 53.5654 267.352 49.4922C268.075 48.3466 268.618 47.4738 269.204 46.246C271.206 41.8054 273.164 37.7196 275.121 33.6339ZM296.338 58.7175C293.132 58.7175 289.926 58.7175 285.692 58.7175C285.845 61.0902 286.031 63.9698 286.202 67.6515C286.402 73.764 288.426 76.0324 294.941 76.7498C300.302 76.1388 304.092 74.1075 305.413 68.0958C305.925 65.7668 308.825 63.8242 310.907 62.0159C313.204 60.0204 315.497 58.4663 313.16 54.8991C311.579 52.4856 310.626 49.6609 309.83 47.9591C306.734 51.3566 303.385 55.0325 299.33 58.7142C298.627 58.7597 297.925 58.8051 296.338 58.7175ZM315.659 62.5902C315.136 63.801 314.657 65.0333 314.082 66.2187C311.436 71.6715 313.143 74.8442 319.298 75.6466C320.751 75.836 322.295 75.7943 323.735 75.5239C329.17 74.5033 330.667 70.6927 326.939 66.6938C324.608 64.1933 321.635 62.2536 318.768 60.3338C318.361 60.0614 316.922 61.3295 315.659 62.5902ZM290.446 51.4621C294.885 53.0821 298.496 51.4625 300.019 47.4519C300.805 45.3806 299.223 42.4102 298.711 39.8461C296.814 40.7436 294.202 41.1555 293.186 42.6514C291.628 44.9441 291.168 47.9834 290.446 51.4621Z" fill="#FFFEFD"/>
<path d="M267.172 49.7649C266.883 53.5654 266.342 57.3664 266.35 61.1662C266.381 76.7844 275.007 88.5606 294.446 83.7842C296.269 83.3362 310.344 83.2368 311.89 83.8595C318.762 86.6274 325.588 85.6098 332.83 83.8218C330.689 90.0614 325.096 92.0333 319.318 92.9996C312.613 94.1209 305.628 95.4293 299.495 90.7483C298.001 89.608 296.654 88.2747 294.959 86.7835C287.096 92.9733 277.953 94.0382 268.026 91.8014C259.651 89.9146 255.736 80.9493 255.256 74.1095C254.958 69.8683 255.201 65.5891 255.201 59.8274C251.835 65.3578 248.404 68.8369 242.823 67.614C240.283 67.0576 236.801 66.4325 238.508 61.8756C238.167 61.5716 238.212 61.6397 238.447 61.9614C241.375 60.3939 243.741 58.3569 242.171 54.5456C244.633 51.3134 246.798 47.7826 249.649 44.9403C252.071 42.5262 254.43 44.0437 254.041 47.0726C253.62 50.3444 251.881 53.4468 250.658 56.7848C254.887 60.5679 258.419 60.4485 262.522 55.8029C263.928 54.2111 264.873 52.2125 266.36 50.0292C266.692 49.6587 267.172 49.7649 267.172 49.7649Z" fill="#FF972A"/>
<path d="M42.6605 29.7025C39.2756 42.3171 35.0224 54.8246 31.9282 67.6126C30.4485 73.7282 30.5714 80.4268 31.1168 86.7625C31.4342 90.45 34.0243 93.9418 35.9034 97.6963C37.6451 100.237 39.0751 102.604 40.6068 105.138C35.5124 110.294 22.3694 106.831 20.4451 98.5239C19.0255 92.3954 18.2792 85.4865 19.6346 79.466C22.7128 65.7945 27.1905 52.4317 31.2689 38.9949C32.8864 33.6661 35.9231 29.6279 42.6605 29.7025Z" fill="#FF972A"/>
<path d="M106.643 34.7222C100.455 45.3526 96.9541 56.6432 99.1128 69.3113C100.154 75.4202 103.384 80.0958 108.052 83.7758C109.248 84.7186 111.484 84.7516 113.176 84.5747C117.282 84.1454 121.349 83.3469 125.836 82.7628C119.774 91.1078 111.017 94.0275 101.007 92.5825C93.4262 91.4883 89.3489 85.1543 88.3525 74.5599C87.8199 68.8968 88.8402 63.0877 89.0328 56.9067C88.906 56.4689 89.0224 56.5165 89.3528 56.5674C89.8095 55.9884 89.9359 55.3584 90.0623 54.7284C93.3937 49.6007 96.7251 44.4731 100.541 38.8639C101.062 37.8043 101.1 37.2262 101.138 36.6481C101.138 36.6481 101.114 36.7255 101.08 36.7035C102.788 36.0292 104.53 35.3769 106.643 34.7222Z" fill="#FF972B"/>
<path d="M68.367 28.727C68.7789 27.1755 69.1908 25.624 69.6145 24.0278C63.312 19.6327 50.8106 20.8107 44.467 26.6461C39.7567 28.1209 35.344 29.4073 30.5381 30.6924C32.4426 28.7115 34.4954 26.3032 37.0804 24.8267C48.2132 18.4676 60.3047 16.2858 72.99 17.708C83.8771 18.9286 89.268 27.9744 85.3687 38.2645C82.667 45.3943 77.6784 50.5088 70.5752 53.4945C71.7389 49.8929 73.5752 46.8737 74.7162 43.6114C76.6628 38.0455 73.5216 31.1113 68.367 28.727Z" fill="#FF992F"/>
<path d="M131.116 80.128C133.188 77.3542 135.325 74.9866 137.827 73.0674C138.233 80.1431 139.652 81.9754 145.196 82.5583C153.104 86.2673 161.201 86.2929 169.829 83.823C167.692 90.0579 162.107 92.0262 156.331 92.9893C149.8 94.0784 143.162 95.1839 136.875 91.1029C132.832 88.4782 131.25 85.0418 131.116 80.128Z" fill="#FF972A"/>
<path d="M15.8955 17.7347C16.2985 18.0561 16.4871 18.4861 16.3491 18.6675C10.5292 26.3146 10.6943 34.4417 14.4038 43.2541C12.5036 47.8357 10.5515 52.0262 8.61885 56.175C-5.12553 46.2909 -2.23748 27.3892 15.8955 17.7347Z" fill="#FF982B"/>
<path d="M148.879 35.7085C143.941 48.1679 148.704 56.7641 159.743 62.9536C160.316 63.2751 160.791 63.7744 161.308 64.1947C164.067 66.4363 167.642 69.4384 165.107 72.6411C163.378 74.8256 158.571 75.6602 155.328 75.3194C149.697 74.7279 147.442 70.6149 148.147 64.7064C148.241 63.922 148.075 63.1066 147.97 61.2797C145.758 62.9097 144.16 64.0875 143.596 64.503C143.796 56.3498 144.014 47.4407 144.285 38.1102C145.735 37.0355 147.132 36.3822 148.879 35.7085Z" fill="#FF9A30"/>
<path d="M174.11 83.1065C177.009 79.0557 179.978 75.3981 183.159 71.4779C185.406 79.8737 188.109 88.7526 200.836 84.7833C197.175 89.0723 193.062 93.0638 186.729 93.7822C181.03 94.4287 175.545 93.2726 174.11 83.1065Z" fill="#FF972A"/>
<path d="M202.521 84.7252C205.757 81.1699 209.323 77.7931 212.57 74.7183C215.072 78.3259 217.463 81.7755 220.058 85.5037C220.098 86.069 219.952 86.3653 219.773 86.6406C217.988 89.3867 220.227 94.8352 214.173 94.7355C208.352 94.6397 205.151 92.1538 203.17 85.8357C203.072 85.5225 202.958 85.2143 202.521 84.7252Z" fill="#FF972B"/>
<path d="M47.7402 75.7313C48.0801 68.5624 48.8625 68.3119 55.5794 67.3124C63.0109 66.2064 70.2985 64.1339 78.0662 62.5486C72.3171 70.0086 63.5626 72.3626 54.8177 74.671C52.656 75.2417 50.3797 75.3783 47.7402 75.7313Z" fill="#FF982E"/>
<path d="M338.161 51.5217C334.941 50.0782 331.686 48.4792 328.845 46.3327C327.678 45.4511 326.435 42.7905 326.929 41.9931C327.866 40.4805 330.312 38.5732 331.627 38.8941C334.597 39.6185 337.26 41.6003 340.206 43.3896C339.674 46.1877 338.983 48.6667 338.161 51.5217Z" fill="#FF992F"/>
<path d="M196.752 11.6589C195.828 15.9644 194.546 20.3236 193.154 24.6476C192.999 25.1283 192.256 25.4758 191.722 25.7687C189.583 26.9419 187.419 28.0692 184.839 29.4392C185.116 29.8826 184.656 29.1455 184.12 28.0593C185.517 24.1645 186.96 20.6054 188.474 17.0772C189.953 13.6335 192.425 11.5739 196.752 11.6589Z" fill="#FF992D"/>
<path d="M234.195 49.7144C236.807 45.2439 239.419 40.7734 242.514 36.006C243.373 35.3113 243.748 34.9136 244.124 34.5159C244.124 34.5159 243.999 34.5576 243.976 34.4962C244.434 34.5233 244.915 34.6118 245.768 34.6592C242.908 39.43 239.678 44.2418 235.987 49.4072C235.083 49.7453 234.639 49.7298 234.195 49.7144Z" fill="#FF9F3B"/>
<path d="M274.778 33.6783C273.164 37.7197 271.206 41.8054 268.953 46.324C268.489 46.8046 268.32 46.8522 268.151 46.8998C268.471 43.7416 268.791 40.5835 269.217 37.0492C271.027 35.6896 272.731 34.7061 274.778 33.6783Z" fill="#FFA244"/>
<path d="M29.0763 31.5906C29.0077 31.2071 29.2794 30.8822 29.8693 30.6058C29.9306 30.986 29.6737 31.3177 29.0763 31.5906Z" fill="#FF992F"/>
<path d="M149.64 34.8598C149.912 35.1312 149.841 35.426 149.416 35.7209C149.077 35.4197 149.155 35.1404 149.64 34.8598Z" fill="#FF9A30"/>
<path d="M16.9398 16.7288C17.1064 17.056 16.9965 17.4483 16.5566 17.8068C16.3721 17.4467 16.5177 17.1203 16.9398 16.7288Z" fill="#FF982B"/>
<path d="M17.7108 15.869C17.8926 16.1581 17.7733 16.4218 17.3794 16.7023C17.0762 16.3878 17.1778 16.0959 17.7108 15.869Z" fill="#FF982B"/>
<path d="M89.7385 54.8428C89.9357 55.3584 89.8093 55.9884 89.3388 56.6288C89.1348 56.0785 89.2749 55.5179 89.7385 54.8428Z" fill="black"/>
<path d="M100.835 36.755C101.1 37.2262 101.062 37.8043 100.692 38.5425C100.417 38.089 100.475 37.4754 100.835 36.755Z" fill="black"/>
<path d="M69.3874 54.7003C69.2771 54.3931 69.4835 54.0882 69.9717 53.7583C70.0704 54.0564 69.8873 54.3795 69.3874 54.7003Z" fill="#FF992F"/>
<path d="M210.342 36.3039C210.342 36.3039 210.38 36.2199 210.669 36.0576C211.31 35.387 211.663 34.8786 212.015 34.3702C214.305 34.5661 216.596 34.7619 218.201 34.8991C216.461 44.9165 215.377 55.0162 212.763 64.7029C211.301 70.1191 207.089 74.633 200.707 77.0767C201.691 63.165 204.915 50.4968 210.262 37.8549C210.731 37.3404 210.932 37.1465 210.896 37.0756C210.752 36.7973 210.533 36.5578 210.342 36.3039Z" fill="#FF982C"/>
<path d="M123.359 47.722C123.65 46.7981 123.595 39.3266 124.199 38.7124C126.281 36.5983 130.992 39.7027 133.199 37.7124C137.199 41.2124 135.93 45.1836 135.868 48.2331C135.682 57.4282 132.751 66.1261 126.553 73.2046C124.991 74.9886 122.159 75.6608 119.676 76.3983C121.224 71.8456 123.727 67.8858 124.603 63.5939C125.668 58.3812 128.983 52.563 123.359 47.722Z" fill="#FF982B"/>
<path d="M189.39 35.3218C187.451 44.3266 185.512 53.3314 183.348 63.3758C181.912 60.9091 180.986 59.2713 180.016 57.6605C177.385 53.296 172.987 51.129 168.929 48.4385C166.761 47.0017 165.078 44.6542 163.691 42.4005C163.463 42.0295 166.08 38.8358 167.07 38.987C170.159 39.4585 173.347 40.4985 176.012 42.1172C177.943 43.2904 179.103 45.7334 180.664 47.6813C185.133 45.0694 185.838 41.0872 186.332 36.8487C186.492 35.481 187.664 34.2314 188.798 33.3822C189.279 34.3317 189.335 34.8268 189.39 35.3218Z" fill="#FF992F"/>
<path d="M233.963 49.9057C234.639 49.7299 235.083 49.7453 235.859 49.7236C235.6 50.3094 235.01 50.9322 234.419 51.5551C234.19 51.0691 233.961 50.5831 233.963 49.9057Z" fill="#FFFEFD"/>
<path d="M267.958 47.131C268.32 46.8522 268.489 46.8045 268.909 46.6789C268.618 47.4738 268.075 48.3466 267.353 49.4922C267.172 49.7649 266.692 49.6587 266.448 49.694C266.725 48.9404 267.244 48.1513 267.958 47.131Z" fill="#FFFEFD"/>
<path d="M211.792 34.2057C211.663 34.8786 211.31 35.387 210.646 36.0179C210.745 35.4408 211.157 34.741 211.792 34.2057Z" fill="#FFFEFD"/>
<path d="M233.332 53.8667C233.018 53.7552 232.853 53.4915 232.688 53.2279C232.953 53.3901 233.218 53.5524 233.332 53.8667Z" fill="#FFFEFD"/>
<path d="M243.83 34.3055C243.749 34.9136 243.373 35.3113 242.667 35.6965C242.736 35.1543 243.136 34.6247 243.83 34.3055Z" fill="black"/>
<path d="M189.635 35.1174C189.335 34.8268 189.28 34.3317 189.204 33.4654C189.416 33.7004 189.648 34.3067 189.635 35.1174Z" fill="#FF9B33"/>
<path d="M138.764 70.9933C138.942 71.4366 138.847 72.0149 138.442 72.6447C138.251 72.1735 138.371 71.6509 138.764 70.9933Z" fill="#FF972A"/>
<path d="M221.607 29.281C221.316 29.8201 220.877 30.1356 220.438 30.4511C220.478 29.9121 220.518 29.3732 220.838 28.7377C221.232 28.7798 221.345 28.9186 221.607 29.281Z" fill="black"/>
<path d="M231.65 57.2443C231.617 57.1894 231.682 57.2993 231.65 57.2443V57.2443Z" fill="#FFFEFD"/>
<path d="M210.291 36.6111C210.533 36.5578 210.752 36.7973 210.895 37.0756C210.932 37.1465 210.73 37.3404 210.394 37.5061C210.179 37.329 210.21 37.1237 210.291 36.6111Z" fill="#FFFEFD"/>
<path d="M182.55 64.2565C182.533 63.9883 182.639 63.8938 182.744 63.7992C182.826 63.9149 182.981 64.0389 182.969 64.144C182.957 64.2492 182.778 64.3355 182.55 64.2565Z" fill="#FF9B33"/>
<path d="M300.035 58.7085C303.385 55.0326 306.735 51.3566 309.831 47.9591C310.626 49.6609 311.579 52.4856 313.16 54.8991C315.497 58.4663 313.204 60.0204 310.907 62.0159C308.826 63.8242 305.925 65.7668 305.413 68.0958C304.092 74.1075 300.302 76.1388 294.702 76.342C296.109 73.8499 297.366 71.166 299.477 69.7972C305.136 66.1273 301.982 62.4907 300.035 58.7085Z" fill="#FF992F"/>
<path d="M315.81 62.2375C316.922 61.3296 318.361 60.0614 318.768 60.3338C321.635 62.2537 324.608 64.1934 326.939 66.6938C330.667 70.6927 329.169 74.5033 323.735 75.524C322.295 75.7943 320.751 75.836 319.298 75.6467C313.143 74.8442 311.435 71.6715 314.082 66.2188C314.657 65.0333 315.136 63.801 315.81 62.2375Z" fill="#FF992E"/>
<path d="M290.345 51.0839C291.168 47.9834 291.628 44.9441 293.186 42.6514C294.203 41.1555 296.814 40.7436 298.712 39.8461C299.223 42.4102 300.805 45.3806 300.019 47.4519C298.496 51.4625 294.886 53.0821 290.345 51.0839Z" fill="#FF982A"/>
<path d="M296.78 58.7841C295.25 63.3568 291.52 65.5752 286.593 66.7871C286.031 63.9698 285.845 61.0902 285.692 58.7175C289.926 58.7175 293.132 58.7175 296.78 58.7841Z" fill="#FF9A30"/>
<path d="M174.041 82.7134C172.998 83.042 171.954 83.3707 170.169 83.7521C161.201 86.2929 153.104 86.2673 145.065 82.2323C143.215 77.4652 141.496 73.024 139.997 69.152C140.072 69.019 139.554 69.9386 138.764 70.9933C138.371 71.6509 138.251 72.1735 138.158 72.7056C138.186 72.7151 138.157 72.6639 137.809 72.6414C135.325 74.9866 133.188 77.3542 131.052 79.7218C129.652 80.674 128.253 81.6261 126.142 82.6377C121.349 83.3469 117.282 84.1454 113.176 84.5747C111.484 84.7516 109.248 84.7186 108.052 83.7758C103.384 80.0958 100.154 75.4202 99.1129 69.3113C96.9542 56.6432 100.455 45.3526 107.015 34.7199C112.866 26.3523 121.123 23.4314 130.884 24.7852C137.882 25.7557 141.891 30.5635 144.221 37.7412C144.015 47.4407 143.796 56.3498 143.596 64.503C144.16 64.0875 145.758 62.9097 147.97 61.2797C148.075 63.1066 148.241 63.922 148.148 64.7064C147.443 70.6149 149.697 74.7279 155.328 75.3194C158.572 75.6602 163.378 74.8256 165.107 72.6411C167.643 69.4384 164.067 66.4363 161.308 64.1947C160.791 63.7744 160.317 63.2751 159.743 62.9536C148.704 56.7641 143.941 48.1679 149.229 35.6882C149.229 35.6882 149.229 35.7353 149.438 35.7133C149.841 35.426 149.912 35.1312 149.862 34.807C157.326 24.3852 174.141 22.08 183.777 27.9095C184.656 29.1455 185.116 29.8826 184.839 29.4392C187.419 28.0692 189.583 26.9419 191.722 25.7687C192.256 25.4758 192.999 25.1283 193.154 24.6476C194.546 20.3236 195.828 15.9644 197.142 11.6155C199.527 8.98832 201.732 4.37401 204.333 4.13903C210.124 3.61591 216.121 5.22719 221.99 6.22969C222.271 6.27765 222.583 9.02655 222.095 10.1886C219.955 15.2918 217.527 20.2739 215.011 25.7139C217.267 25.7139 218.928 25.6049 220.55 25.8118C220.85 25.8502 220.989 27.1616 220.88 28.3599C220.518 29.3732 220.478 29.9121 220.437 30.4511C220.877 30.1356 221.316 29.8201 221.755 29.5046C227.051 25.5304 239.219 25.7443 243.963 30.1283C244.528 30.6504 243.879 32.4867 243.896 34.1357C243.999 34.5576 244.124 34.5159 243.83 34.3054C243.136 34.6247 242.736 35.1543 242.184 35.9935C239.419 40.7734 236.807 45.2439 233.963 49.9057C233.961 50.5831 234.19 51.0691 234.419 51.5551C235.01 50.9322 235.6 50.3094 236.319 49.3701C239.678 44.2419 242.909 39.43 246.139 34.6182C249.827 31.8119 253.16 28.2044 257.283 26.3859C263.581 23.6084 269.943 26.9115 269.161 36.6327C268.792 40.5835 268.472 43.7416 267.958 47.1311C267.245 48.1514 266.725 48.9404 266.117 50.0646C264.873 52.2125 263.928 54.2111 262.522 55.8029C258.419 60.4485 254.887 60.5679 250.659 56.7848C251.882 53.4468 253.621 50.3444 254.041 47.0726C254.43 44.0436 252.071 42.5262 249.649 44.9403C246.798 47.7826 244.633 51.3134 241.849 54.7064C240.395 57.13 239.264 59.3928 238.172 61.6477C238.212 61.6397 238.167 61.5716 238.167 61.5716C235.511 68.0191 232.439 74.3333 230.323 80.9531C228.377 87.0403 227.235 88.0271 220.464 85.4779C217.464 81.7755 215.072 78.3259 212.571 74.7183C209.324 77.7931 205.758 81.1699 202.192 84.5467C202.192 84.5467 201.719 84.7077 201.076 84.7142C188.109 88.7526 185.406 79.8737 183.159 71.4779C179.978 75.3981 177.009 79.0557 174.041 82.7134ZM189.88 34.9131C189.648 34.3067 189.416 33.7004 188.373 32.9278C187.664 34.2314 186.492 35.481 186.333 36.8487C185.838 41.0872 185.133 45.0694 180.665 47.6813C179.103 45.7334 177.943 43.2904 176.012 42.1172C173.348 40.4986 170.159 39.4585 167.07 38.987C166.08 38.8358 163.463 42.0295 163.692 42.4005C165.078 44.6542 166.761 47.0017 168.929 48.4385C172.987 51.129 177.385 53.296 180.016 57.6606C180.987 59.2713 181.913 60.9091 183.349 63.3758C185.512 53.3314 187.451 44.3266 189.88 34.9131ZM123.208 48.4844C121.644 52.6367 119.254 56.6876 118.728 60.9675C118.101 66.0733 114.624 71.5567 119.911 76.844C122.159 75.6609 124.991 74.9886 126.553 73.2046C132.751 66.1261 135.683 57.4282 135.869 48.2332C135.931 45.1836 136.199 41.7124 130.851 38.9791C125.699 39.7124 125.699 42.2124 124.278 44.9978C123.699 46.2124 123.65 46.7981 123.208 48.4844ZM211.569 34.0413C211.157 34.741 210.745 35.4408 210.38 36.2199C210.38 36.2199 210.342 36.3039 210.241 36.9184C210.21 37.1237 210.18 37.329 209.886 38.2319C204.915 50.4968 201.691 63.165 200.707 77.0767C207.089 74.633 211.301 70.1191 212.763 64.703C215.377 55.0162 216.461 44.9165 218.201 34.8991C216.596 34.7619 214.305 34.5661 211.569 34.0413ZM233.482 53.7147C233.217 53.5524 232.953 53.3901 232.688 53.2279C232.853 53.4915 233.018 53.7552 233.482 53.7147ZM182.673 64.4301C182.779 64.3355 182.957 64.2492 182.969 64.144C182.981 64.0389 182.826 63.915 182.745 63.7992C182.639 63.8938 182.533 63.9883 182.673 64.4301Z" fill="#FFFEFD"/>
</svg>
