<svg viewBox="0 0 929 211" fill="none" xmlns="http://www.w3.org/2000/svg">
<path d="M34.3333 211C33.3316 196.808 32.6099 182.618 32.0127 168.423C31.5882 158.332 31.418 148.23 30.968 138.141C30.6921 131.953 30.1022 125.779 29.6795 119.96C20.0694 128.263 10.3911 136.624 0.356362 144.993C-2.08616e-07 144.25 -1.49012e-07 143.5 0.299689 142.648C10.1472 131.084 19.695 119.62 29.1135 108.312C22.1567 100.167 14.8343 91.5321 7.43402 82.9646C5.06188 80.2183 2.48384 77.6498 7.5e-07 75C-2.5e-07 73.9333 -2.5e-07 72.8667 7.5e-07 71.4C9.86345 79.7127 19.7269 88.4254 29.7539 97.2827C29.826 96.141 29.9615 94.7651 29.9926 93.3868C30.3403 77.9917 30.4143 62.585 31.0802 47.2038C31.7487 31.7613 33.0026 16.344 34 0.457844C34.4444 2.98023e-08 34.8889 0 35.6667 0C36.6679 15.8093 37.4489 31.6149 37.9707 47.429C38.4571 62.1725 38.6508 76.9255 39.0238 91.673C39.0658 93.3315 39.4357 94.9817 39.7434 97.3183C50.0419 88.1859 59.6246 79.6881 69.2073 71.1904C69.5809 71.5089 69.9546 71.8275 70.3282 72.1461C61.5626 85.2656 50.876 96.8704 40.5514 108.17C50.5442 120.074 60.5228 131.961 70.5015 143.848C69.9825 144.38 69.4636 144.912 68.9446 145.445C59.1573 136.816 49.3699 128.187 39 119.045C39 128.803 39.2961 138.039 38.9401 147.249C38.1302 168.197 37 189.133 36 210.537C35.5556 211 35.1111 211 34.3333 211Z" fill="#FF1010"/>
<path d="M929 144.625C923.869 141.035 918.502 137.334 913.673 133.029C908.854 128.732 904.573 123.831 899.574 118.699C899.002 124.931 898.252 130.377 898.051 135.843C897.564 149.076 897.479 162.325 896.956 175.556C896.5 187.074 895.667 198.576 895 210.542C894.555 211 894.111 211 893.333 211C892.332 195.187 891.425 179.379 891.066 163.559C890.736 148.984 890.996 134.395 890.996 119.812C890.521 119.677 890.046 119.543 889.571 119.408C879.756 128.091 869.942 136.774 860.127 145.457C859.584 144.946 859.042 144.436 858.499 143.925C868.47 132.006 878.441 120.087 888.419 108.16C878.262 96.7248 867.298 85.3122 858.643 72.0513C858.979 71.736 859.316 71.4206 859.652 71.1053C869.29 79.6329 878.927 88.1605 888.829 96.9215C890.346 64.6623 891.846 32.7729 893.173 0.441759C893.444 0 893.889 0 894.667 0C895.668 14.1893 896.359 28.3775 896.997 42.5681C897.375 50.9936 897.643 59.424 898.007 67.8501C898.432 77.6961 898.908 87.5398 899.362 97.3778C909.068 88.6077 918.709 79.897 928.675 71.0931C929 72.0667 929 73.1333 928.7 74.3266C918.843 85.9083 909.285 97.3635 899.901 108.609C906.876 116.806 914.181 125.456 921.567 134.035C923.934 136.785 926.516 139.35 929 142C929 142.75 929 143.5 929 144.625Z" fill="#FF1010"/>
<path d="M677.286 94.9201C674.127 104.786 670.87 114.621 667.852 124.53C666.345 129.48 664.954 134.515 664.175 139.613C663.874 141.584 665.414 143.835 666.872 146.014C675.409 140.989 682.183 135.531 682.128 124.777C682.071 113.461 685.312 102.823 691.257 93.0958C692.527 91.0192 693.754 88.917 695.001 86.8266C704.786 75.581 716.696 71.9428 731.912 76.9533C739.783 79.5452 742.627 86.2168 745.041 94.0381C747.109 104.219 746.442 113.477 743.983 122.694C743.55 124.316 743.697 126.092 743.537 128.348C750.793 125.3 750.93 125.403 750.101 132.405C749.999 140.91 754.644 144.908 764.398 144.93C768.798 145.082 772.955 144.565 774.407 140.403C775.831 136.323 773.054 133.114 770.001 130.64C766.652 127.926 763.047 125.531 759.634 122.893C753.217 117.933 747.815 112.027 748.948 103.326C749.631 98.0888 752.151 93.0911 753.845 87.9859C764.345 75.72 777.87 72.9433 792.919 76.127C801.494 77.9411 805.636 87.4602 802.203 97.1457C801.037 100.437 798.486 103.276 796.311 106.126C796 106.534 794.235 105.834 793.06 104.96C790.99 98.1006 782.823 92.7231 776.817 94.1896C774.906 94.6562 773.045 96.6376 771.905 98.4055C771.32 99.3134 771.857 101.962 772.771 102.65C777.696 106.361 782.898 109.704 788.005 113.174C796.427 118.719 799.133 126.934 797.89 136.372C796.746 145.057 792.098 151.627 782.942 155.162C775.721 156.46 769.244 158.426 762.717 158.609C751.634 158.919 738.709 152.334 741.011 136.709C741.136 135.863 741.253 135.016 741.373 134.17C741.046 133.975 740.718 133.78 740.391 133.586C737.205 138.057 734.018 142.528 730.832 147C727.78 149.284 724.728 151.568 721.008 153.972C720.233 154.421 720.127 154.75 720.021 155.079C720.021 155.079 720.009 155.01 719.662 154.815C718.513 154.84 717.707 155.047 716.91 155.285C699.569 160.47 689.298 155.847 684.055 141.594C683.986 141.406 683.587 141.339 683.15 141.119C680.256 144.698 677.351 148.291 674.446 151.883C672.259 153.478 670.072 155.073 667.172 156.748C652.92 161.694 647.333 158.578 642.643 144.281C639.535 146.967 636.1 149.936 632.665 152.906C631.992 153.23 631.319 153.554 629.98 153.893C627.766 154.471 626.246 155.129 624.667 155.582C611.45 159.375 592.953 158.474 586.364 140.184C583.144 144.188 580.069 148.011 576.995 151.834C574.211 153.844 571.428 155.853 567.909 157.945C550.71 161.185 545.563 155.522 543.542 131.304C540.095 137.584 536.963 143.291 533.83 148.998C530.113 152.005 526.395 155.011 522.013 158.1C521.237 158.481 521.126 158.781 521.014 159.08C521.014 159.08 521.008 159.01 520.625 158.837C509.04 160.264 502.974 154.477 500.167 143.894C496.481 147.86 493.239 151.347 489.997 154.834C488.887 155.51 487.777 156.185 486.006 156.964C485.237 157.404 485.129 157.742 485.021 158.079C485.021 158.079 485.009 158.011 484.658 157.806C470.777 161.21 465.557 157.287 461.451 140.107C458.146 144.192 454.989 148.095 451.831 151.999C450.456 152.673 449.081 153.347 447.028 154.074C446.24 154.444 446.13 154.762 446.019 155.079C446.019 155.079 446.01 155.01 445.599 154.838C430.399 157.232 421.188 151.786 417.979 137.134C416.492 130.347 417.368 123.043 417.386 115.749C417.658 115.122 417.716 114.719 417.662 113.942C418.56 109.903 419.144 106.046 420.681 102.616C423.097 97.2232 426.154 92.1184 428.94 86.8918C428.94 86.8918 428.963 86.9356 429.216 86.9305C429.605 86.5966 429.741 86.2678 429.878 85.939C438.587 74.5126 454.839 72.3924 465.531 77.3347C467.58 79.8922 469.15 82.0891 471.193 84.9492C474.91 74.1423 478.375 64.0667 481.84 53.9912C484.054 48.8425 487.886 45.767 493.56 46.0788C499.233 46.3905 504.902 47.1502 510.506 48.1062C512.441 48.4362 514.174 49.9463 515.966 50.8994C504.798 73.3334 496.001 96.0866 488.865 119.487C486.261 128.026 482.79 136.445 484.849 146.157C486.273 146.438 487.124 146.275 488.253 145.915C495.967 140.374 501.001 133.742 500.387 123.748C500.656 123.121 500.713 122.718 500.64 121.938C500.85 119.608 500.999 117.599 501.558 115.712C504.596 105.457 507.735 95.2322 510.839 84.9969C513.278 78.4812 520.084 74.7855 528.881 76.127C534.356 76.9618 539.648 78.9878 544.964 80.4632C540.689 90.0133 536.629 98.5787 532.997 107.322C528.212 118.835 524.36 130.653 523.052 143.893C524.074 147.34 525.875 146.731 527.29 145.331C529.276 143.368 531.384 141.306 532.647 138.875C537.523 129.493 542.397 120.085 546.665 110.419C550.175 102.469 552.826 94.1404 555.858 85.9794C560.104 78.7306 568.856 75.6802 578.648 78.3327C582.587 79.3999 586.371 81.0427 589.887 82.3021C585.622 91.6224 581.822 99.9286 578.014 108.977C577.336 111.198 576.667 112.678 575.635 114.229C572.877 121.451 569.895 128.48 568.372 135.812C567.759 138.759 564.169 142.899 569.311 146.025C576.8 144.112 584.181 134.073 584.213 126.85C584.271 113.766 587.223 101.479 594.786 90.5357C595.47 89.5451 595.571 88.1515 595.943 86.945C595.943 86.945 596 87 596.196 87.2656C596.849 87.0362 597.307 86.5412 597.765 86.0463C605.599 75.5799 616.727 73.4115 628.506 75.3538C632.623 76.0326 636.101 80.585 639.979 84.0541C645.722 97.2837 644.687 104.147 635.476 112.997C634.428 113.042 633.73 113.085 632.653 113.023C630.291 112.602 628.309 112.284 626.121 111.934C627.839 109.738 629.357 108.171 630.438 106.344C633.184 101.705 633.127 94.816 630.517 93.4534C628.004 92.1419 622.797 95.6938 620.216 100.543C620.01 100.93 620.171 101.511 620.008 102.327C613.578 112.098 611.219 122.493 610.787 133.817C610.444 142.825 618.277 150.03 628.299 145.003C635.189 142.808 638.489 137.186 642.413 131.703C642.704 130.749 642.759 130.055 642.637 128.976C645.03 114.519 647.6 100.448 650.04 87.0933C648.024 86.0755 645.943 85.0252 643.863 83.9749C644.039 83.6872 644.214 83.3995 644.926 82.8449C645.617 81.6851 645.771 80.7922 645.926 79.8993C645.926 79.8993 645.972 79.9856 646.109 79.9176C646.337 79.7687 646.519 79.649 646.504 79.6135C646.414 79.4042 646.279 79.2144 646.159 79.018C646.222 78.3936 646.284 77.7692 647.082 76.9892C650.167 76.3696 654.095 76.5621 654.606 75.333C657.497 68.3862 659.568 61.0984 661.919 53.9268C664.727 48.1089 669.366 45.8789 675.789 45.8982C682.934 45.9197 689.812 46.3158 696.208 50.9122C692.502 58.9944 688.744 67.1912 684.718 75.9719C688.221 75.9719 690.955 75.9719 693.769 75.9719C691.212 86.9919 691.212 86.9919 683.365 86.7176C681.646 86.9795 680.018 87.2538 679.581 88.1249C678.521 90.2424 678.015 92.6371 677.286 94.9201ZM444.055 145.624C445.631 145.485 447.752 145.938 448.674 145.089C450.816 143.117 452.693 140.691 454.122 138.139C459.909 127.808 463.501 116.701 465.462 104.811C465.676 104.5 465.608 104.242 465.191 103.144C465.182 101.493 465.522 99.7387 465.071 98.2192C464.549 96.4615 463.692 94.2532 462.296 93.4859C461.251 92.9112 458.669 93.8478 457.572 94.9263C455.521 96.944 454.052 99.553 452.046 102.507C448.839 111.693 445.09 120.738 442.653 130.123C441.44 134.795 440.033 140.335 444.055 145.624ZM728.245 93.7249C722.761 93.8449 720.383 97.7436 718.023 102.667C716.82 105.146 715.511 107.581 714.432 110.113C710.037 120.427 707.232 131.063 707.98 142.422C708.195 145.694 709.631 147.303 713.715 146.886C716.887 144.1 720.704 141.778 723.106 138.438C729.394 129.696 732.709 119.638 734.456 108.813C734.672 108.499 734.602 108.239 734.176 107.169C734.2 105.435 734.224 103.701 734.508 101.767C734.661 101.425 734.549 101.176 734.008 100.307C732.666 98.1574 731.324 96.0076 729.834 93.5686C729.546 93.3229 729.283 93.3641 728.245 93.7249Z" fill="#FFA901"/>
<path d="M269.998 110.162C264.547 114.73 259.096 119.298 252.961 123.956C239.599 130.288 226.283 134.075 212.069 133.583C208.839 133.471 207.518 134.419 206.809 137.222C206.405 138.815 205.8 140.357 205.286 141.922C204.524 147.196 203.663 152.459 203.025 157.748C202.25 164.169 205.327 168.847 210.131 172.681C210.871 173.271 211.423 174.097 213.104 175.985C207.3 176.381 202.606 176.701 197.096 177.015C187.97 174.477 182.883 168.941 182.226 160.281C181.738 153.853 181.76 147.28 182.518 140.885C184.621 123.163 190.134 106.304 196.461 89.6891C197.797 86.1801 198.763 82.5301 199.9 78.9451C200.265 78.2297 200.629 77.5143 201.323 76.3293C210.904 69.3037 221.248 69.6648 231.679 71.4293C233.333 71.709 234.688 73.7577 236.023 75.3152C227.219 90.4146 218.975 105.385 212.712 122.007C222.538 121.779 230.851 118.569 239.132 114.032C239.661 113.661 239.83 113.288 239.997 112.955C239.997 112.995 239.917 112.992 240.314 113.076C240.799 112.747 240.886 112.335 240.976 111.966C240.98 112.01 240.893 112.017 241.166 112.329C250.009 107.123 256.004 99.6781 258.454 89.653C261.085 78.8836 255.035 68.8502 244.336 65.9184C234.608 63.2528 224.9 64.2453 215.239 66.0693C202.055 68.5585 189.85 73.2205 180.156 83.0065C174.227 89.9586 169.362 97.4724 167.435 107.909C165.365 106.243 163.756 104.947 161.999 102.973C153.846 89.9795 153.598 77.9079 162.946 66.1052C163.423 65.5031 163.596 64.6606 163.911 63.9301C172.442 54.0462 184.068 49.0937 195.928 45.2368C209.03 40.9759 222.746 39.1106 236.616 40.0484C248.089 40.8242 259.289 43.4124 268.564 50.416C276.378 56.3159 279.414 65.3049 279.906 74.899C280.131 79.2834 279.347 83.7194 278.928 88.8951C275.89 96.4929 272.944 103.328 269.998 110.162Z" fill="#FFA901"/>
<path d="M340.832 122C339.794 122.336 338.757 122.671 337.009 122.936C333.014 121.745 329.73 120.625 327.711 119.936C329.74 114.344 332.05 109.965 332.788 105.336C333.407 101.455 330.092 99.8712 327.029 102.367C324.418 104.496 322.448 107.411 320.194 109.978C310.157 123.152 302.605 137.634 299.277 153.871C298.123 159.502 295.586 160.524 290.205 159.841C282.418 157.246 278.495 151.816 277.906 144.86C277.129 135.677 276.494 126.229 277.813 117.189C279.354 106.626 283.067 96.3797 285.837 85.9958C287.277 81.036 291.138 78.2764 295.727 78.2082C302.18 78.1122 308.685 79.1675 315.099 80.1754C316.943 80.4653 318.547 82.2876 320.178 83.353C318.227 86.4593 316.611 89.0334 315.035 91.9097C315.077 92.2117 315.181 92.0536 314.84 92.0749C314.379 92.7245 314.259 93.3528 313.988 94.293C308.306 100.16 306.152 107.303 304.1 114.486C310.043 106.27 315.759 97.9578 321.442 89.6236C321.495 89.5459 321.121 89.1768 320.946 88.9438C320.946 88.9438 320.992 89.0023 321.342 89.1711C321.786 88.8673 321.882 88.3947 321.977 87.922C321.977 87.922 322.003 87.9908 322.186 88.2319C322.807 88.0139 323.246 87.5548 323.685 87.0957C327.709 81.9983 332.675 78.0663 339.017 76.5575C348.444 74.3148 351.742 77.6101 353.973 89.1781C354.157 90.1346 354.013 91.1546 354.01 92.9702C352.236 104.423 348.861 114.298 340.832 122Z" fill="#FFA902"/>
<path d="M405.829 138.998C400.445 143.949 395.061 148.901 389.008 153.973C388.233 154.422 388.127 154.751 388.021 155.079C388.021 155.079 388.009 155.01 387.666 154.814C385.249 155.213 383.192 155.877 381.099 156.396C365.553 160.253 354.329 153.31 351.12 137.68C348.825 126.502 349.724 115.409 353.843 104.84C356.277 98.5947 359.908 92.8155 363.001 86.8265C372.757 75.6196 384.739 71.6551 399.786 77.0403C410.117 80.7374 412.972 89.9161 414.603 100.358C414.69 102.259 414.238 103.549 414.269 104.826C414.529 115.46 411.874 125.369 407.13 134.811C406.482 136.099 406.253 137.597 405.829 138.998ZM381.715 146.885C383.982 145.278 386.77 144.086 388.43 141.996C397.368 130.746 402.251 117.912 402.125 103.421C402.092 99.6279 401.926 95.4268 397.335 94.0209C392.816 92.6369 390.295 95.904 387.884 98.9258C387.182 99.8054 386.787 100.93 386.023 102.667C384.82 105.146 383.511 107.581 382.432 110.113C378.037 120.427 375.231 131.064 375.98 142.423C376.195 145.695 377.631 147.303 381.715 146.885Z" fill="#FFA902"/>
<path d="M199.565 79.0833C198.764 82.53 197.797 86.18 196.461 89.689C190.134 106.304 184.621 123.163 182.518 140.885C181.76 147.279 181.738 153.853 182.226 160.281C182.883 168.941 187.97 174.477 196.642 177.086C198.717 179.121 200.431 181.081 202.145 183.04C202.061 183.597 201.977 184.155 201.893 184.712C195.992 184.712 189.932 185.569 184.228 184.507C176.051 182.986 171.126 174.3 171.01 163.321C170.876 150.559 172.966 138.055 176.657 125.924C180.328 113.86 185.1 102.134 188.852 90.0913C190.607 84.4552 193.653 80.8286 199.565 79.0833Z" fill="#FFFEFC"/>
<path d="M362.648 86.9069C359.908 92.8155 356.277 98.5947 353.843 104.84C349.725 115.409 348.825 126.502 351.12 137.68C354.329 153.309 365.553 160.253 381.099 156.396C383.192 155.877 385.249 155.213 387.7 154.822C382 164.101 364.239 168.345 354.181 164.67C348.112 162.452 344.613 157.42 342.439 151.807C338.81 142.438 339.518 132.604 340.757 122.418C348.861 114.298 352.236 104.423 354.08 93.3962C356.873 90.9939 359.584 88.9906 362.648 86.9069Z" fill="#FFFEFB"/>
<path d="M285.48 85.9996C283.067 96.3797 279.354 106.626 277.813 117.189C276.494 126.229 277.129 135.677 277.906 144.86C278.495 151.816 282.418 157.246 289.777 159.882C289.734 160.647 289.242 161.163 289.106 161.76C287.653 168.146 284.221 169.674 277.825 167.397C270.651 164.842 268.361 158.834 267.098 152.452C264.521 139.427 265.782 126.521 269.585 113.836C269.858 112.925 269.866 111.933 269.997 110.571C272.944 103.327 275.89 96.4928 278.999 89.3276C281.149 87.9992 283.136 87.0013 285.48 85.9996Z" fill="#FFFEFB"/>
<path d="M180.531 83.0062C189.85 73.2204 202.055 68.5585 215.239 66.0693C224.9 64.2452 234.608 63.2527 244.336 65.9183C255.035 68.8502 261.085 78.8835 258.453 89.653C256.004 99.6781 250.009 107.123 241.285 111.987C241.859 110.277 242.615 109.238 243.315 108.163C252.487 94.0615 248.737 80.4162 236.181 74.9886C234.688 73.7577 233.333 71.709 231.679 71.4292C221.248 69.6648 210.904 69.3037 201.328 76.0169C195.178 78.1172 189.349 80.0555 183.525 82.0088C182.641 82.3056 181.779 82.6718 180.531 83.0062Z" fill="#FFFDF8"/>
<path d="M405.906 139.407C406.253 137.597 406.483 136.099 407.13 134.811C411.874 125.369 414.529 115.46 414.269 104.826C414.238 103.549 414.69 102.259 414.956 100.571C419.405 95.7749 423.816 91.3834 428.583 86.9418C426.154 92.1184 423.097 97.2232 420.681 102.616C419.144 106.046 418.56 109.903 417.406 114.14C417.232 115.132 417.202 115.552 417.172 115.973C417.368 123.043 416.492 130.347 417.979 137.134C421.188 151.786 430.399 157.232 445.634 154.842C438.943 165.039 425.029 167.575 415.997 159.763C411.924 156.239 409.792 150.382 407.084 145.418C406.215 143.825 406.323 141.699 405.906 139.407Z" fill="#FFFDFA"/>
<path d="M730.909 147.423C734.018 142.528 737.204 138.057 740.391 133.586C740.718 133.78 741.046 133.975 741.373 134.17C741.253 135.016 741.136 135.863 741.011 136.709C738.709 152.334 751.634 158.919 762.717 158.609C769.244 158.426 775.721 156.46 782.586 155.268C780.043 161.378 774.155 163.18 768.416 165.09C760.357 167.772 752.048 168.09 743.938 165.877C735.08 163.461 731.055 157.328 730.909 147.423Z" fill="#FFFEFC"/>
<path d="M750.178 131.989C750.93 125.403 750.793 125.3 743.537 128.348C743.697 126.092 743.55 124.316 743.983 122.694C746.442 113.477 747.109 104.219 745.11 94.4173C747.819 91.999 750.482 90.0036 753.495 87.997C752.151 93.0911 749.63 98.0888 748.948 103.326C747.815 112.027 753.217 117.933 759.634 122.893C763.047 125.531 766.652 127.926 770.001 130.64C773.054 133.114 775.83 136.323 774.407 140.403C772.954 144.565 768.798 145.082 764.277 144.614C759.226 140.138 754.702 136.064 750.178 131.989Z" fill="#FFFCF7"/>
<path d="M577.323 151.987C580.069 148.011 583.144 144.188 586.364 140.184C592.953 158.474 611.45 159.375 624.667 155.582C626.246 155.129 627.766 154.471 629.701 153.989C619.29 166.629 601.384 169.215 587.848 162.699C583.713 160.708 581.01 155.743 577.323 151.987Z" fill="#FFFDFA"/>
<path d="M500.174 123.972C501 133.742 495.967 140.374 487.902 145.904C486.825 146.03 486.377 145.97 485.929 145.91C490.202 141.461 489.051 135.532 489.87 130.265C492.034 116.347 495.895 102.977 502.174 90.4368C503.429 87.931 507.379 86.7751 510.463 84.9968C507.735 95.2322 504.596 105.457 501.558 115.712C500.999 117.599 500.849 119.608 500.385 122.135C500.23 123.131 500.202 123.552 500.174 123.972Z" fill="#FFFDFA"/>
<path d="M674.698 152.183C677.351 148.291 680.256 144.698 683.15 141.119C683.587 141.339 683.986 141.406 684.055 141.594C689.298 155.847 699.569 160.471 716.91 155.285C717.707 155.047 718.513 154.84 719.696 154.823C714.313 163.779 696.955 168.357 686.58 164.79C680.705 162.769 677.161 158.162 674.698 152.183Z" fill="#FFFEFB"/>
<path d="M163.556 63.9641C163.596 64.6606 163.423 65.5031 162.946 66.1052C153.597 77.9079 153.846 89.9795 161.845 102.649C160.272 106.926 158.706 110.849 157.002 115.118C152.318 113.953 150.167 109.618 148.406 105.695C141.361 90.0044 147.099 76.2528 159.783 66.6723C160.937 65.8003 162.063 64.8904 163.556 63.9641Z" fill="#FFFEFC"/>
<path d="M533.907 149.412C536.963 143.291 540.095 137.584 543.542 131.304C545.563 155.522 550.71 161.185 567.589 158.094C562.578 165.072 555.66 168.416 546.777 166.998C539.886 165.898 534.28 158.348 533.907 149.412Z" fill="#FFFEFB"/>
<path d="M643.492 83.9834C645.943 85.0253 648.024 86.0756 650.04 87.0933C647.6 100.448 645.03 114.519 642.366 129.213C642.24 130.545 642.209 131.255 642.178 131.964C638.489 137.186 635.188 142.808 628.431 144.672C631.106 141.542 631.81 138.243 632.17 134.292C632.822 127.142 634.548 120.089 635.826 112.995C644.687 104.147 645.722 97.2838 640.123 84.365C641.145 83.9907 642.134 83.9913 643.492 83.9834Z" fill="#FFFCF7"/>
<path d="M575.997 114.158C576.667 112.678 577.336 111.198 578.083 109.357C582.139 103.131 585.999 97.1785 590.168 91.4514C591.44 89.7038 593.562 88.5752 595.619 87.0541C595.571 88.1514 595.47 89.5451 594.786 90.5356C587.223 101.479 584.271 113.766 584.213 126.85C584.181 134.073 576.8 144.112 569.436 145.703C570.797 142.923 573.427 140.746 573.802 138.234C574.987 130.276 575.329 122.193 575.997 114.158Z" fill="#FFFEFB"/>
<path d="M694.647 86.9071C693.754 88.917 692.527 91.0192 691.257 93.0958C685.312 102.823 682.071 113.461 682.128 124.777C682.183 135.531 675.409 140.989 667.271 146C672.234 140.532 671.501 133.689 672.203 126.857C673.868 110.64 679.815 96.3282 694.647 86.9071Z" fill="#FFFEFB"/>
<path d="M555.526 86.1172C552.826 94.1404 550.175 102.469 546.665 110.419C542.397 120.085 537.523 129.493 532.647 138.875C531.384 141.306 529.276 143.368 527.29 145.331C525.875 146.731 524.074 147.34 523.122 144.317C526.432 137.983 530.112 132.152 532.885 125.918C537.558 115.415 541.716 104.681 545.965 93.9939C547.685 89.6704 551.024 87.5284 555.526 86.1172Z" fill="#FFFDFA"/>
<path d="M451.908 152.39C454.989 148.095 458.146 144.192 461.451 140.107C465.557 157.287 470.777 161.21 484.691 157.814C479.585 165.025 467.139 170.583 459.334 165.196C454.681 161.985 453.289 157.588 451.908 152.39Z" fill="#FFFEFB"/>
<path d="M632.818 153.292C636.1 149.936 639.535 146.967 642.643 144.281C647.333 158.578 652.92 161.694 666.88 156.877C661.789 162.447 655.682 166.865 647.632 167.842C641.295 168.61 633.838 161.45 632.818 153.292Z" fill="#FFFEFC"/>
<path d="M490.333 154.995C493.239 151.347 496.481 147.86 500.167 143.895C502.973 154.477 509.04 160.264 520.66 158.842C515.653 166.733 508.513 169.109 500 166.027C494.845 164.161 492.359 160 490.333 154.995Z" fill="#FFFEFB"/>
<path d="M320.514 110.131C322.448 107.411 324.418 104.495 327.029 102.367C330.092 99.8712 333.407 101.455 332.788 105.336C332.05 109.965 329.741 114.344 327.711 119.936C329.73 120.625 333.014 121.745 336.672 122.99C332.425 131.257 324.893 133.309 318.051 128.703C315.482 126.974 315.589 125.969 317.449 123.93C319.169 122.045 320.614 119.873 321.957 117.691C323.613 114.999 322.999 112.483 320.514 110.131Z" fill="#FFFEFB"/>
<path d="M205.717 141.95C205.8 140.357 206.405 138.815 206.808 137.222C207.518 134.419 208.839 133.471 212.068 133.583C226.283 134.074 239.599 130.288 252.642 124.102C244.615 132.889 233.881 137.228 222.439 139.901C217.136 141.14 211.586 141.319 205.717 141.95Z" fill="#FFFDF9"/>
<path d="M788.336 113.023C782.898 109.704 777.696 106.361 772.771 102.65C771.857 101.962 771.32 99.3133 771.905 98.4055C773.045 96.6375 774.906 94.6562 776.817 94.1896C782.823 92.7231 790.99 98.1006 792.908 104.639C791.449 107.626 790.058 110.249 788.336 113.023Z" fill="#FFFEFB"/>
<path d="M481.474 53.9971C478.375 64.0668 474.91 74.1424 471.193 84.9493C469.15 82.0891 467.58 79.8923 465.919 77.3495C467.555 72.6185 469.397 68.2744 470.979 63.8374C472.76 58.8411 475.917 55.4136 481.474 53.9971Z" fill="#FFFDF9"/>
<path d="M661.553 53.9614C659.568 61.0984 657.497 68.3862 654.606 75.333C654.095 76.5622 650.167 76.3696 647.384 76.8632C649.049 71.0426 650.632 64.926 653.472 59.4619C654.764 56.9749 658.539 55.7781 661.553 53.9614Z" fill="#FFFEFB"/>
<path d="M320.596 88.9636C321.121 89.1768 321.495 89.5459 321.442 89.6236C315.759 97.9578 310.043 106.27 304.1 114.486C306.152 107.303 308.306 100.16 314.309 94.1708C314.915 93.1756 315.048 92.6146 315.18 92.0536C315.18 92.0536 315.076 92.2117 315.141 92.2796C316.886 91.2262 318.566 90.1048 320.596 88.9636Z" fill="#FFF8EB"/>
<path d="M677.658 94.9489C678.015 92.6371 678.521 90.2424 679.582 88.1249C680.018 87.2538 681.646 86.9796 682.941 86.7242C681.291 89.5711 682.635 94.1863 677.658 94.9489Z" fill="#FFF9EE"/>
<path d="M485.7 145.957C486.377 145.97 486.826 146.03 487.625 146.1C487.124 146.275 486.273 146.438 485.227 146.381C485.032 146.161 485.472 146.004 485.7 145.957Z" fill="#FFA901"/>
<path d="M645.613 80.0562C645.771 80.7922 645.617 81.6851 645.17 82.7615C645.018 82.0344 645.159 81.1237 645.613 80.0562Z" fill="#FFA901"/>
<path d="M597.47 86.0383C597.307 86.5413 596.849 87.0362 596.167 87.238C596.354 86.6399 596.764 86.3351 597.47 86.0383Z" fill="#FFFEFB"/>
<path d="M429.644 86.0052C429.741 86.2678 429.605 86.5966 429.232 86.9118C428.96 86.5355 429.099 86.2599 429.644 86.0052Z" fill="#FFA901"/>
<path d="M323.398 87.0688C323.246 87.5547 322.807 88.0138 322.157 88.2087C322.334 87.6437 322.723 87.3429 323.398 87.0688Z" fill="#FFF8EB"/>
<path d="M388.269 155.025C388.127 154.75 388.233 154.422 388.683 154.117C388.857 154.418 388.688 154.694 388.269 155.025Z" fill="#FFFEFB"/>
<path d="M321.708 87.9825C321.882 88.3946 321.787 88.8673 321.308 89.1548C321.096 88.6608 321.268 88.3519 321.708 87.9825Z" fill="#FFF8EB"/>
<path d="M521.245 159.022C521.126 158.781 521.237 158.481 521.659 158.191C521.964 158.558 521.8 158.812 521.245 159.022Z" fill="#FFFEFB"/>
<path d="M485.275 158.022C485.129 157.742 485.237 157.404 485.697 157.089C485.876 157.397 485.702 157.681 485.275 158.022Z" fill="#FFFEFB"/>
<path d="M646.079 79.2445C646.279 79.2143 646.414 79.4042 646.504 79.6135C646.519 79.649 646.337 79.7687 646.066 79.894C645.886 79.9385 645.998 79.471 646.079 79.2445Z" fill="#FFA901"/>
<path d="M720.27 155.025C720.127 154.75 720.233 154.421 720.684 154.116C720.858 154.417 720.688 154.694 720.27 155.025Z" fill="#FFFEFB"/>
<path d="M446.266 155.022C446.13 154.762 446.24 154.444 446.686 154.132C446.853 154.414 446.683 154.69 446.266 155.022Z" fill="#FFFDFA"/>
<path d="M718.251 101.942C720.383 97.7436 722.761 93.8449 728.869 93.8156C729.492 93.9061 729.983 93.8578 729.983 93.8578C731.324 96.0076 732.666 98.1575 734.04 100.906C734.073 101.504 734.248 101.966 734.248 101.966C734.224 103.701 734.2 105.435 734.125 107.833C734.075 108.496 734.173 108.979 734.173 108.979C732.709 119.638 729.394 129.696 723.106 138.438C720.704 141.778 716.887 144.1 713.364 146.492C718.501 137.285 721.618 127.593 723.815 117.518C725.33 110.573 723.345 104.62 718.251 101.942Z" fill="#FFFEFB"/>
<path d="M452.34 101.916C454.051 99.553 455.521 96.9441 457.572 94.9263C458.668 93.8478 461.25 92.9112 462.296 93.4859C463.692 94.2532 464.549 96.4616 465.071 98.2193C465.522 99.7387 465.182 101.493 465.139 103.82C465.088 104.496 465.182 104.978 465.182 104.978C463.501 116.701 459.909 127.808 454.122 138.139C452.692 140.691 450.816 143.117 448.674 145.089C447.752 145.938 445.631 145.485 444.093 144.976C447.416 135.409 451.228 126.638 453.774 117.514C455.161 112.545 457.391 106.662 452.34 101.916Z" fill="#FFFDFA"/>
<path d="M632.652 113.023C630.509 120.359 622.757 123.306 615.045 119.712C619.865 114.745 624.199 109.579 620.578 102.013C620.171 101.511 620.01 100.93 620.215 100.543C622.796 95.6938 628.004 92.1419 630.516 93.4534C633.127 94.8161 633.184 101.705 630.438 106.344C629.357 108.171 627.839 109.739 626.121 111.934C628.309 112.284 630.291 112.602 632.652 113.023Z" fill="#FFFEFC"/>
<path d="M642.413 131.703C642.209 131.255 642.24 130.545 642.542 129.599C642.759 130.055 642.704 130.749 642.413 131.703Z" fill="#FFA901"/>
<path d="M729.909 93.7132C729.983 93.8577 729.492 93.9061 729.27 93.7991C729.283 93.3641 729.546 93.3229 729.909 93.7132Z" fill="#FFA901"/>
<path d="M734.378 101.867C734.248 101.966 734.073 101.504 734.122 101.262C734.549 101.176 734.661 101.425 734.378 101.867Z" fill="#FFA901"/>
<path d="M465.322 104.895C465.182 104.978 465.088 104.496 465.173 104.266C465.608 104.242 465.676 104.5 465.322 104.895Z" fill="#FFA901"/>
<path d="M734.315 108.896C734.173 108.979 734.074 108.496 734.161 108.265C734.602 108.239 734.672 108.499 734.315 108.896Z" fill="#FFA901"/>
<path d="M500.387 123.748C500.202 123.552 500.23 123.131 500.514 122.513C500.713 122.718 500.656 123.121 500.387 123.748Z" fill="#FFA901"/>
<path d="M417.386 115.749C417.202 115.552 417.232 115.132 417.518 114.513C417.716 114.719 417.658 115.122 417.386 115.749Z" fill="#FFA901"/>
<path d="M240.314 113.076C240.089 112.68 240.262 112.368 240.703 111.989C240.885 112.335 240.799 112.747 240.314 113.076Z" fill="#FFFDF8"/>
<path d="M239.132 114.032C238.989 113.708 239.207 113.385 239.712 112.989C239.83 113.288 239.661 113.661 239.132 114.032Z" fill="#FFFDF8"/>
<path d="M314.84 92.0749C315.048 92.6146 314.915 93.1756 314.461 93.8588C314.259 93.3527 314.379 92.7245 314.84 92.0749Z" fill="black"/>
<path d="M386.251 101.942C386.787 100.93 387.182 99.8054 387.884 98.9258C390.295 95.904 392.816 92.6369 397.335 94.0209C401.926 95.4268 402.092 99.6279 402.125 103.421C402.251 117.912 397.368 130.746 388.43 141.996C386.77 144.086 383.982 145.278 381.364 146.492C386.501 137.284 389.618 127.593 391.815 117.518C393.329 110.574 391.345 104.621 386.251 101.942Z" fill="#FFFEFB"/>
</svg>
