<svg viewBox="0 0 71 211" fill="#FF1010" xmlns="http://www.w3.org/2000/svg">
<path d="M34.3333 211C33.3316 196.808 32.6099 182.618 32.0127 168.423C31.5882 158.332 31.418 148.23 30.968 138.141C30.6921 131.953 30.1022 125.779 29.6795 119.96C20.0694 128.263 10.3911 136.624 0.356362 144.993C-2.08616e-07 144.25 -1.49012e-07 143.5 0.299689 142.648C10.1472 131.084 19.695 119.62 29.1135 108.312C22.1567 100.167 14.8343 91.5321 7.43402 82.9646C5.06188 80.2183 2.48384 77.6498 7.5e-07 75C-2.5e-07 73.9333 -2.5e-07 72.8667 7.5e-07 71.4C9.86345 79.7127 19.7269 88.4254 29.7539 97.2827C29.826 96.141 29.9615 94.7651 29.9926 93.3868C30.3403 77.9917 30.4143 62.585 31.0802 47.2038C31.7487 31.7613 33.0026 16.344 34 0.457844C34.4444 2.98023e-08 34.8889 0 35.6667 0C36.6679 15.8093 37.4489 31.6149 37.9707 47.429C38.4571 62.1725 38.6508 76.9255 39.0238 91.673C39.0658 93.3315 39.4357 94.9817 39.7434 97.3183C50.0419 88.1859 59.6246 79.6881 69.2073 71.1904C69.5809 71.5089 69.9546 71.8275 70.3282 72.1461C61.5626 85.2656 50.876 96.8704 40.5514 108.17C50.5442 120.074 60.5228 131.961 70.5015 143.848C69.9825 144.38 69.4636 144.912 68.9446 145.445C59.1573 136.816 49.3699 128.187 39 119.045C39 128.803 39.2961 138.039 38.9401 147.249C38.1302 168.197 37 189.133 36 210.537C35.5556 211 35.1111 211 34.3333 211Z"/>
</svg>
