<svg viewBox="0 0 372 57" fill="none" xmlns="http://www.w3.org/2000/svg">
<path d="M72.6409 36.1799C73.3364 37.1739 73.8291 38.2953 74.0909 39.4799C74.2695 40.644 74.0844 41.8349 73.5609 42.8899C72.9377 43.9594 72.1043 44.8915 71.1109 45.6299C70.263 46.382 69.3456 47.0516 68.3709 47.6299C67.2947 48.2638 66.1791 48.8283 65.0309 49.3199C63.8576 49.8266 62.6776 50.2799 61.4909 50.6799C60.3042 51.0799 59.1742 51.4132 58.1009 51.6799C57.6235 51.8091 57.1394 51.9126 56.6509 51.9899C56.2655 52.0338 55.8763 52.0338 55.4909 51.9899C55.1201 51.9604 54.7541 51.8865 54.4009 51.7699C53.9671 51.6158 53.5487 51.4216 53.1509 51.1899C52.3492 50.8463 51.5767 50.4383 50.8409 49.9699C50.1742 49.5366 49.3942 48.9799 48.5009 48.2999C48.1742 47.9466 47.8842 47.6432 47.6309 47.3899C47.3918 47.155 47.1895 46.8853 47.0309 46.5899C46.8729 46.2761 46.7681 45.9381 46.7209 45.5899C46.6607 45.1319 46.6607 44.6679 46.7209 44.2099C46.8076 42.3699 46.9709 40.2833 47.2109 37.9499C47.4509 35.6166 47.7109 33.1932 47.9909 30.6799C48.2709 28.1666 48.5242 25.6399 48.7509 23.0999C48.9776 20.5599 49.1176 18.1466 49.1709 15.8599C50.4294 15.1769 51.7402 14.5951 53.0909 14.1199C54.6172 13.5732 56.173 13.1125 57.7509 12.7399C59.3745 12.3519 61.0211 12.068 62.6809 11.8899C64.2579 11.7155 65.8467 11.6721 67.4309 11.7599C68.8298 11.8329 70.214 12.0815 71.5509 12.4999C72.6994 12.8416 73.7535 13.4439 74.6309 14.2599C75.6393 15.2578 76.5164 16.3802 77.2409 17.5999C77.9772 18.8899 78.4975 20.2918 78.7809 21.7499C78.9373 22.5759 78.9373 23.4239 78.7809 24.2499C78.5775 25.0571 78.2611 25.8314 77.8409 26.5499C77.4504 27.2957 76.9702 27.9908 76.4109 28.6199C75.8424 29.2638 75.231 29.8685 74.5809 30.4299L72.4409 32.0999C71.6209 32.6998 70.751 33.2284 69.8409 33.6799C70.9705 34.2632 71.9339 35.1233 72.6409 36.1799ZM55.6109 41.5499C55.3576 42.6966 55.1276 43.8632 54.9209 45.0499C56.3662 44.6976 57.7808 44.2294 59.1509 43.6499C60.2872 43.1748 61.3755 42.5921 62.4009 41.9099C63.1698 41.422 63.8468 40.8025 64.4009 40.0799C64.5966 39.8434 64.7375 39.5666 64.8136 39.2692C64.8897 38.9718 64.899 38.6613 64.8409 38.3599C64.6328 38.0087 64.3223 37.7295 63.9509 37.5599C63.3921 37.2903 62.789 37.1243 62.1709 37.0699C61.3081 36.9835 60.4378 37.007 59.5809 37.1399C58.4767 37.3039 57.3892 37.5649 56.3309 37.9199C56.1042 39.1666 55.8642 40.3766 55.6109 41.5499ZM63.1409 28.3299C64.4818 27.5783 65.7505 26.7046 66.9309 25.7199C67.8075 25.0099 68.5668 24.1662 69.1809 23.2199C69.5947 22.6815 69.7878 22.0057 69.7209 21.3299C69.6368 21.115 69.5019 20.9236 69.3278 20.7721C69.1536 20.6206 68.9454 20.5135 68.7209 20.4599C68.0519 20.2518 67.3486 20.177 66.6509 20.2399C65.6624 20.3077 64.6838 20.4787 63.7309 20.7499C62.505 21.0943 61.3106 21.5426 60.1609 22.0899C59.7343 23.4036 59.3771 24.7387 59.0909 26.0899C58.7909 27.4899 58.4342 28.9766 58.0209 30.5499C59.8038 29.9743 61.5228 29.217 63.1509 28.2899L63.1409 28.3299Z" fill="white"/>
<path d="M105.94 18.4596C106.487 19.5652 106.871 20.7441 107.08 21.9596C107.412 24.3012 107.486 26.672 107.3 29.0296C107.12 31.5939 106.681 34.1334 105.99 36.6096C105.31 39.0789 104.354 41.4639 103.14 43.7196C102.008 45.8551 100.505 47.7718 98.7003 49.3796C97.6009 50.2576 96.3254 50.8886 94.9604 51.2296C93.4824 51.5498 91.9609 51.6174 90.4604 51.4296C89.2914 51.3034 88.1299 51.1165 86.9803 50.8696C85.8509 50.6367 84.7578 50.2533 83.7303 49.7296C82.8862 49.2864 82.0946 48.7497 81.3703 48.1296C80.6241 47.5094 80.003 46.7526 79.5403 45.8996C78.7945 44.4346 78.256 42.873 77.9403 41.2596C77.5779 39.4698 77.4136 37.6455 77.4503 35.8196C77.5302 31.8314 78.3791 27.8961 79.9503 24.2296C80.7636 22.3542 81.769 20.568 82.9503 18.8996C84.1178 17.2297 85.4883 15.7114 87.0303 14.3796C88.1252 13.5461 89.3666 12.9254 90.6903 12.5496C92.0239 12.143 93.431 12.0372 94.8103 12.2396C96.4608 12.4962 98.082 12.9149 99.6503 13.4896C101.025 13.9696 102.314 14.6649 103.47 15.5496C104.487 16.3376 105.328 17.3286 105.94 18.4596ZM94.1903 20.7796C93.2905 21.6751 92.5106 22.6835 91.8703 23.7796C91.0524 25.1167 90.3306 26.5102 89.7104 27.9496C89.0731 29.3935 88.5286 30.8765 88.0803 32.3896C87.6598 33.8115 87.362 35.2668 87.1903 36.7396C87.016 38.129 86.9558 39.5304 87.0103 40.9296C87.0376 42.0624 87.2469 43.1834 87.6303 44.2496C87.7405 44.6335 87.939 44.9862 88.2099 45.2797C88.4808 45.5731 88.8165 45.7991 89.1903 45.9396C89.5307 46.0447 89.8918 46.0631 90.2411 45.9932C90.5903 45.9234 90.9166 45.7675 91.1903 45.5396C91.995 44.9374 92.6887 44.1998 93.2403 43.3596C94.0101 42.2196 94.6602 41.0031 95.1803 39.7296C95.8177 38.2024 96.3457 36.6318 96.7603 35.0296C97.1718 33.5146 97.4858 31.9748 97.7003 30.4196C97.9298 28.8633 98.0501 27.2928 98.0603 25.7196C98.0849 24.4369 97.9437 23.1563 97.6404 21.9096C97.3604 20.8563 96.9237 20.2396 96.3303 20.0596C95.737 19.8796 95.0237 20.1196 94.1903 20.7796Z" fill="white"/>
<path d="M108.698 42.4897C108.406 40.9236 108.265 39.3329 108.278 37.7397C108.287 35.9075 108.407 34.0774 108.638 32.2597C108.878 30.3264 109.192 28.3664 109.578 26.3797C109.965 24.3931 110.402 22.3931 110.888 20.3797C111.382 18.3797 111.895 16.4264 112.428 14.5197C112.668 13.6597 113.002 13.1397 113.428 12.9597C114.14 12.7988 114.885 12.8761 115.548 13.1797C116.43 13.4362 117.286 13.7708 118.108 14.1797C118.939 14.606 119.735 15.0975 120.488 15.6497C121.226 16.0985 121.79 16.7831 122.089 17.5926C122.389 18.4022 122.406 19.2892 122.138 20.1097C121.665 21.6564 121.168 23.3231 120.648 25.1097C120.128 26.8964 119.645 28.7164 119.198 30.5697C118.752 32.4097 118.372 34.2064 118.058 35.9597C117.769 37.5231 117.575 39.1027 117.478 40.6897C117.386 41.8543 117.46 43.0261 117.698 44.1697C117.742 44.5406 117.889 44.8917 118.122 45.1833C118.356 45.4749 118.666 45.6954 119.018 45.8197C119.818 46.0264 120.605 45.6397 121.378 44.6597C122.301 43.4089 123.044 42.0357 123.588 40.5797C124.362 38.617 125.03 36.6141 125.588 34.5797C126.255 32.2931 126.848 29.9397 127.368 27.5197C127.888 25.0997 128.385 22.7131 128.858 20.3597C129.305 18.0131 129.705 15.9164 130.058 14.0697C130.118 13.1764 130.452 12.6431 131.058 12.4697C131.771 12.2944 132.518 12.3187 133.218 12.5397C134.16 12.7995 135.072 13.1581 135.938 13.6097C136.905 14.1031 137.788 14.5864 138.588 15.0597C138.947 15.2698 139.282 15.5179 139.588 15.7997C139.792 15.9941 139.952 16.2292 140.058 16.4897C140.149 16.7391 140.18 17.0063 140.148 17.2697C140.108 17.6063 140.048 17.9403 139.968 18.2697C139.075 22.5164 138.175 26.4164 137.268 29.9697C136.474 33.1603 135.516 36.3078 134.398 39.3997C133.549 41.8021 132.443 44.1055 131.098 46.2697C130.106 47.9055 128.734 49.2776 127.098 50.2697C126.107 50.7405 125.058 51.0768 123.978 51.2697C122.799 51.471 121.6 51.5247 120.408 51.4297C118.111 51.3537 115.859 50.7769 113.808 49.7397C113.063 49.3219 112.363 48.8294 111.718 48.2697C111.039 47.6749 110.468 46.9679 110.028 46.1797C109.376 45.0352 108.926 43.787 108.698 42.4897Z" fill="white"/>
<path d="M151.718 50.0197C149.718 50.393 147.838 50.7564 146.078 51.1097C145.539 51.266 144.987 51.3698 144.428 51.4197C144.04 51.452 143.649 51.4284 143.268 51.3497C142.983 51.2892 142.708 51.1917 142.448 51.0597C142.223 50.9407 142.006 50.8071 141.798 50.6597C141.32 50.3528 140.859 50.0189 140.418 49.6597C140.005 49.3197 139.455 48.8797 138.768 48.3397C138.289 47.9576 137.895 47.4811 137.608 46.9397C137.332 46.3503 137.254 45.6869 137.388 45.0497C137.475 43.8897 137.625 42.5164 137.838 40.9297C138.051 39.343 138.305 37.6264 138.598 35.7797C138.898 33.9397 139.231 32.0297 139.598 30.0497C139.965 28.0697 140.351 26.0997 140.758 24.1397C141.171 22.1797 141.595 20.293 142.028 18.4797C142.461 16.6664 142.885 14.9997 143.298 13.4797C143.591 12.6197 143.971 12.1064 144.438 11.9397C145.129 11.7892 145.849 11.8448 146.508 12.0997C147.529 12.3681 148.531 12.7021 149.508 13.0997C150.478 13.4886 151.406 13.9744 152.278 14.5497C152.868 14.9213 153.365 15.4244 153.728 16.0197C153.915 16.6059 153.876 17.241 153.618 17.7997C153.025 19.5797 152.421 21.5397 151.808 23.6797C151.195 25.8197 150.585 28.0197 149.978 30.2797C149.371 32.5397 148.791 34.7897 148.238 37.0297C147.685 39.2697 147.171 41.4164 146.698 43.4697C148.065 43.2297 149.341 43.0497 150.528 42.9297C151.715 42.8097 153.008 42.7064 154.408 42.6197C155.042 42.5437 155.686 42.5982 156.298 42.7797C156.799 43.0064 157.213 43.3887 157.478 43.8697C157.823 44.382 158.114 44.9282 158.348 45.4997C158.558 46.0125 158.729 46.5408 158.858 47.0797C159.045 47.4682 159.101 47.9067 159.018 48.3297C158.911 48.5364 158.398 48.7297 157.478 48.9097L151.718 50.0197Z" fill="white"/>
<path d="M170.221 14.16C171.781 13.8 173.414 13.4667 175.121 13.16C176.827 12.8534 178.581 12.5934 180.381 12.38C182.181 12.1534 183.971 12.0134 185.751 11.96C186.44 11.8645 187.142 12.0118 187.735 12.3767C188.328 12.7416 188.775 13.3013 189.001 13.96C189.344 14.5723 189.613 15.2236 189.801 15.9C189.947 16.48 190.097 17.11 190.251 17.79C190.328 18.0487 190.351 18.3203 190.32 18.5884C190.289 18.8565 190.204 19.1156 190.071 19.35C189.595 19.7115 189.018 19.9144 188.421 19.93L182.891 20.55C180.991 20.7567 178.991 21.01 176.891 21.31C176.444 22.6434 176.027 24.0334 175.641 25.48C175.254 26.9267 174.824 28.4334 174.351 30C175.244 29.88 176.134 29.79 177.021 29.73C177.907 29.67 178.847 29.61 179.841 29.55C180.515 29.4937 181.195 29.5684 181.841 29.77C182.368 29.9992 182.794 30.4112 183.041 30.93C183.377 31.4854 183.652 32.0755 183.861 32.69C184.054 33.27 184.224 33.8567 184.371 34.45C184.517 35.0434 184.541 35.5034 184.441 35.83C183.996 36.1774 183.462 36.3923 182.901 36.45C181.121 36.7767 179.301 37.09 177.441 37.39C175.581 37.69 173.791 38.0234 172.071 38.39C171.831 39.3434 171.607 40.2434 171.401 41.09C171.194 41.9367 170.971 42.7767 170.731 43.61C172.124 43.37 173.457 43.1767 174.731 43.03C176.004 42.8834 177.377 42.7634 178.851 42.67C179.503 42.5917 180.164 42.6531 180.791 42.85C181.292 43.0653 181.708 43.4419 181.971 43.92C182.294 44.4508 182.568 45.0097 182.791 45.59C182.984 46.11 183.201 46.6367 183.441 47.17C183.598 47.5649 183.598 48.0052 183.441 48.4C183.294 48.62 182.817 48.8067 182.011 48.96L176.221 50.07C174.261 50.4567 172.387 50.8134 170.601 51.14C169.729 51.4195 168.804 51.4881 167.901 51.34C167.34 51.1976 166.806 50.9646 166.321 50.65C165.814 50.3234 165.331 49.99 164.871 49.65C164.411 49.31 163.867 48.8767 163.241 48.35C162.748 47.9486 162.346 47.4477 162.061 46.88C161.767 46.2392 161.653 45.5306 161.731 44.83L165.961 15.19C167.214 14.8567 168.634 14.5134 170.221 14.16Z" fill="white"/>
<path d="M219.409 23.2999C218.743 25.0265 217.986 26.8599 217.139 28.7999C216.293 30.7399 215.416 32.7399 214.509 34.7999C213.589 36.8465 212.669 38.8465 211.749 40.7999C210.829 42.7532 209.953 44.5665 209.119 46.2399C208.266 47.9132 207.506 49.3499 206.839 50.5499C206.53 51.1661 206.008 51.6493 205.369 51.9099C204.571 52.0979 203.737 52.0598 202.959 51.7999C201.919 51.4999 200.953 51.2032 200.059 50.9099C199.098 50.5844 198.16 50.197 197.249 49.7499C196.243 49.325 195.372 48.6335 194.729 47.7499C194.215 47.0428 193.829 46.2507 193.589 45.4099C192.583 41.3365 191.666 36.7499 190.839 31.6499C190.013 26.5499 189.276 20.9565 188.629 14.8699C188.537 14.2989 188.607 13.7136 188.829 13.1799C189.023 12.8532 189.566 12.6899 190.459 12.6899C191.256 12.6862 192.052 12.7464 192.839 12.8699C193.629 13.0062 194.4 13.231 195.139 13.5399C196.018 13.795 196.803 14.3024 197.397 14.9991C197.991 15.6959 198.367 16.5514 198.479 17.4599C198.659 18.9199 198.859 20.5699 199.079 22.4099C199.299 24.2499 199.529 26.1965 199.769 28.2499C200.009 30.2965 200.269 32.4299 200.549 34.6499C200.829 36.8699 201.133 39.0632 201.459 41.2299C203.419 36.9232 205.329 32.3765 207.189 27.5899C209.049 22.8032 210.933 18.0599 212.839 13.3599C213.014 12.8971 213.347 12.5111 213.779 12.2699C214.186 12.0737 214.645 12.0108 215.089 12.0899C215.63 12.1799 216.155 12.3448 216.649 12.5799C217.225 12.8464 217.783 13.1504 218.319 13.4899C218.872 13.7911 219.406 14.1251 219.919 14.4899C220.358 14.7966 220.734 15.1834 221.029 15.6299C221.294 16.0422 221.44 16.5199 221.449 17.0099C221.445 17.6099 221.315 18.2025 221.069 18.7499C220.643 20.0565 220.089 21.5732 219.409 23.2999Z" fill="white"/>
<path d="M232.939 43.2399C230.965 43.5056 229.008 43.8863 227.079 44.3799C226.485 45.5399 225.965 46.6166 225.518 47.6099C225.072 48.6032 224.639 49.5832 224.219 50.5499C224.147 50.7528 224.033 50.9377 223.882 51.0915C223.732 51.2453 223.55 51.3642 223.348 51.4399C222.825 51.5087 222.292 51.4326 221.809 51.2199L220.538 50.7099C220.078 50.5166 219.612 50.2999 219.139 50.0599L218.199 49.4599C217.929 49.3093 217.706 49.0883 217.553 48.8205C217.399 48.5528 217.322 48.2483 217.329 47.9399C217.336 47.4334 217.42 46.931 217.579 46.4499C218.292 44.4032 219.222 41.9966 220.368 39.2299C221.515 36.4632 222.748 33.6099 224.068 30.6699C225.402 27.7299 226.755 24.8266 228.128 21.9599C229.502 19.0932 230.815 16.5466 232.068 14.3199C232.488 13.5287 233.083 12.8444 233.809 12.3199C234.765 11.7623 235.887 11.5571 236.979 11.7399C238.199 11.7999 239.282 11.8966 240.229 12.0299C241.175 12.1632 242.045 12.3366 242.839 12.5499C243.625 12.7299 244.352 12.9232 245.018 13.1299C245.685 13.3366 246.352 13.5299 247.018 13.7099C247.389 13.7883 247.741 13.9391 248.053 14.1535C248.365 14.368 248.632 14.6421 248.839 14.9599C249.109 15.6248 249.195 16.3501 249.089 17.0599C248.909 19.1732 248.758 21.5966 248.638 24.3299C248.518 27.0632 248.428 29.9166 248.368 32.8899C248.308 35.8632 248.272 38.8432 248.259 41.8299C248.245 44.8166 248.245 47.5866 248.259 50.1399C248.28 50.3376 248.262 50.5376 248.206 50.7283C248.149 50.9189 248.055 51.0963 247.928 51.2499C247.479 51.5135 246.956 51.6224 246.439 51.5599C245.665 51.5599 244.952 51.5366 244.298 51.4899C243.616 51.4396 242.943 51.2984 242.298 51.0699C241.737 50.946 241.222 50.6691 240.809 50.2699C240.456 49.7542 240.249 49.1532 240.208 48.5299C240.088 47.6699 239.985 46.7266 239.898 45.6999C239.812 44.6732 239.722 43.5499 239.629 42.3299L232.939 43.2399ZM235.118 35.5499C236.452 35.4032 237.812 35.2832 239.198 35.1899C239.138 32.7566 239.095 30.3266 239.069 27.8999C239.042 25.4732 239.042 23.0732 239.069 20.6999C237.882 22.8666 236.595 25.2665 235.208 27.8999C233.822 30.5332 232.432 33.2599 231.038 36.0799C232.405 35.8799 233.765 35.7032 235.118 35.5499Z" fill="white"/>
<path d="M259.951 45.5496L258.951 50.4496C258.871 50.8251 258.658 51.159 258.351 51.3896C257.897 51.545 257.404 51.545 256.951 51.3896C256.151 51.1829 255.437 51.0196 254.811 50.8996C254.19 50.7822 253.59 50.5732 253.031 50.2796C252.515 50.0184 252.097 49.5975 251.841 49.0796C251.617 48.4903 251.541 47.855 251.621 47.2296C251.681 46.6029 251.764 45.6962 251.871 44.5096C251.977 43.3229 252.104 41.9896 252.251 40.5096C252.397 39.0096 252.567 37.3962 252.761 35.6696C252.954 33.9429 253.161 32.2196 253.381 30.4996C253.601 28.7796 253.847 27.1129 254.121 25.4996C254.394 23.8862 254.677 22.4296 254.971 21.1296C255.213 20.0333 255.547 18.9595 255.971 17.9196C256.165 17.2894 256.554 16.7366 257.081 16.3396C258.921 15.4796 260.841 14.6496 262.841 13.8496C264.753 13.0728 266.74 12.4964 268.771 12.1296C270.596 11.7894 272.465 11.759 274.301 12.0396C276.022 12.3249 277.61 13.1434 278.841 14.3796C279.882 15.5099 280.828 16.724 281.671 18.0096C282.595 19.4714 283.271 21.0765 283.671 22.7596C284.091 24.3958 283.932 26.1273 283.221 27.6596C281.982 29.9314 280.216 31.8724 278.071 33.3196C275.381 35.2101 272.506 36.8217 269.491 38.1296C270.157 38.9029 270.907 39.7196 271.741 40.5796C272.574 41.4396 273.414 42.2996 274.261 43.1596C275.121 44.0196 275.974 44.8529 276.821 45.6596C277.667 46.4663 278.461 47.1662 279.201 47.7596C279.794 48.2662 280.061 48.6662 280.001 48.9596C279.869 49.3541 279.599 49.6878 279.241 49.8996C278.847 50.2436 278.383 50.4963 277.881 50.6396L276.521 50.8896C275.816 51.0735 275.084 51.1277 274.361 51.0496C273.386 50.9187 272.451 50.5775 271.621 50.0496C270.954 49.5763 270.167 48.9829 269.261 48.2696C268.354 47.5563 267.434 46.7696 266.501 45.9096C265.547 45.0496 264.597 44.1496 263.651 43.2096C262.735 42.3153 261.87 41.3705 261.061 40.3796C260.661 42.1529 260.291 43.8763 259.951 45.5496ZM264.471 27.0996C264.024 28.8262 263.517 30.6696 262.951 32.6296C264.864 32.0093 266.697 31.1633 268.411 30.1096C269.842 29.2475 271.182 28.2424 272.411 27.1096C273.337 26.2686 274.121 25.2824 274.731 24.1896C275.156 23.5632 275.318 22.7943 275.181 22.0496C274.827 21.2162 273.771 20.7996 272.011 20.7996C271.053 20.8094 270.098 20.9133 269.161 21.1096C268.016 21.3542 266.907 21.744 265.861 22.2696C265.381 23.7562 264.917 25.3596 264.471 27.0796V27.0996Z" fill="white"/>
<path d="M290.129 13.6898C291.715 13.1261 293.348 12.7077 295.009 12.4398C296.754 12.1572 298.523 12.0534 300.289 12.1298C302.07 12.1921 303.831 12.5294 305.509 13.1298C307.216 13.7534 308.795 14.6818 310.169 15.8698C311.696 17.2225 312.925 18.8774 313.779 20.7298C314.622 22.3709 315.151 24.1547 315.339 25.9898C315.545 27.9481 315.434 29.9269 315.009 31.8498C314.546 33.9459 313.789 35.9659 312.759 37.8498C311.64 39.9094 310.236 41.8012 308.589 43.4698C306.778 45.3021 304.734 46.889 302.509 48.1898C300.002 49.6517 297.312 50.7749 294.509 51.5298C293.729 51.794 292.903 51.8949 292.083 51.8261C291.262 51.7572 290.464 51.5202 289.739 51.1298C288.991 50.7585 288.264 50.348 287.559 49.8998C286.933 49.4998 286.219 49.0031 285.419 48.4098L284.569 47.6298C284.3 47.3733 284.068 47.0804 283.879 46.7598C283.672 46.3897 283.543 45.9814 283.499 45.5598C283.427 44.9519 283.427 44.3377 283.499 43.7298L286.139 15.4498C287.421 14.7588 288.755 14.1702 290.129 13.6898ZM298.129 41.0198C299.681 39.7562 301.06 38.2936 302.229 36.6698C303.238 35.2712 304.049 33.7401 304.639 32.1198C305.142 30.7585 305.458 29.3357 305.579 27.8898C305.762 26.4464 305.548 24.9804 304.959 23.6498C304.338 22.5694 303.336 21.7598 302.149 21.3798C300.543 20.8812 298.815 20.9447 297.249 21.5598C296.209 25.4531 295.289 29.2931 294.489 33.0798C293.689 36.8664 292.896 40.6898 292.109 44.5498C294.262 43.668 296.273 42.4753 298.079 41.0098L298.129 41.0198Z" fill="white"/>
<path d="M25.37 19.5499C21.5019 21.7959 17.7688 24.2668 14.19 26.9499C14.19 22.8199 14.1 18.6899 13.85 14.5499C13.61 9.90988 13.31 5.26988 12.69 0.629883C12.06 5.26988 11.77 9.90988 11.52 14.5499C11.28 18.6799 11.22 22.8199 11.18 26.9499C7.60173 24.266 3.86861 21.7951 0 19.5499C3.48587 23.0132 7.20455 26.2341 11.13 29.1899C7.20305 32.1438 3.48424 35.3648 0 38.8299C3.87437 36.6274 7.61431 34.1965 11.2 31.5499C11.2 35.1799 11.3 38.7999 11.51 42.4299L11.94 49.4299C12.19 51.7499 12.34 54.0699 12.69 56.4299C13.03 54.1099 13.18 51.7899 13.44 49.4299L13.86 42.4299C14.08 38.7999 14.14 35.1799 14.18 31.5499C17.7647 34.2222 21.5046 36.6799 25.38 38.9099C21.8958 35.4286 18.1735 32.1941 14.24 29.2299C18.1684 26.2633 21.8873 23.0289 25.37 19.5499Z" fill="#FFCC00"/>
<path d="M27.6205 18.97C23.7502 21.1995 20.0138 23.6537 16.4305 26.32C16.4305 22.19 16.3405 18.06 16.0905 13.92C15.8505 9.28 15.5505 4.64 14.9305 0C14.3005 4.64 14.0105 9.28 13.7605 13.92C13.5205 18.05 13.4605 22.19 13.4205 26.32C9.83768 23.6529 6.10123 21.1987 2.23047 18.97C5.71634 22.4333 9.43502 25.6542 13.3605 28.61C9.44039 31.5647 5.72829 34.7856 2.25047 38.25C6.1303 36.022 9.87363 33.5643 13.4605 30.89C13.4605 34.52 13.5605 38.14 13.7705 41.77L14.2005 48.77C14.4505 51.09 14.6005 53.41 14.9505 55.77C15.2905 53.45 15.4405 51.13 15.7005 48.77L16.1205 41.77C16.3405 38.14 16.4005 34.52 16.4405 30.89C20.0252 33.5623 23.7651 36.02 27.6405 38.25C24.1581 34.7829 20.4392 31.5618 16.5105 28.61C20.4376 25.6563 24.1564 22.4353 27.6405 18.97" fill="white"/>
<path d="M369.489 19.5496C365.619 21.7791 361.883 24.2333 358.299 26.8996C358.299 22.7696 358.209 18.6396 357.959 14.4996C357.719 9.85959 357.419 5.21959 356.799 0.57959C356.169 5.21959 355.879 9.85959 355.629 14.4996C355.389 18.6296 355.329 22.7696 355.289 26.8996C351.71 24.2328 347.977 21.7786 344.109 19.5496C347.595 23.0129 351.314 26.2338 355.239 29.1896C351.312 32.1435 347.594 35.3645 344.109 38.8296C347.987 36.6275 351.73 34.1965 355.319 31.5496C355.319 35.1796 355.419 38.7996 355.629 42.4296L356.059 49.4296C356.309 51.7496 356.459 54.0696 356.809 56.4296C357.149 54.1096 357.299 51.7896 357.559 49.4296L357.979 42.4296C358.199 38.7996 358.259 35.1796 358.299 31.5496C361.884 34.2219 365.624 36.6796 369.499 38.9096C366.017 35.4425 362.298 32.2214 358.369 29.2696C362.296 26.2898 366.011 23.0421 369.489 19.5496Z" fill="#FFCC00"/>
<path d="M371.742 18.97C367.871 21.1995 364.135 23.6537 360.552 26.32C360.552 22.19 360.462 18.06 360.212 13.92C359.972 9.28 359.672 4.64 359.052 0C358.422 4.64 358.132 9.28 357.882 13.92C357.642 18.05 357.582 22.19 357.542 26.32C353.959 23.6529 350.222 21.1987 346.352 18.97C349.837 22.4333 353.556 25.6542 357.482 28.61C353.555 31.564 349.836 34.7849 346.352 38.25C350.231 36.022 353.975 33.5643 357.562 30.89C357.562 34.52 357.662 38.14 357.872 41.77L358.302 48.77C358.552 51.09 358.702 53.41 359.052 55.77C359.392 53.45 359.542 51.13 359.802 48.77L360.222 41.77C360.442 38.14 360.502 34.52 360.542 30.89C364.126 33.5623 367.866 36.02 371.742 38.25C368.259 34.7829 364.54 31.5618 360.612 28.61C364.539 25.6563 368.257 22.4353 371.742 18.97Z" fill="white"/>
<path d="M75.6409 34.1799C76.3364 35.1739 76.8291 36.2953 77.0909 37.4799C77.2695 38.644 77.0844 39.8349 76.5609 40.8899C75.9377 41.9594 75.1043 42.8915 74.1109 43.6299C73.263 44.382 72.3456 45.0516 71.3709 45.6299C70.2947 46.2638 69.1791 46.8283 68.0309 47.3199C66.8576 47.8266 65.6776 48.2799 64.4909 48.6799C63.3042 49.0799 62.1742 49.4132 61.1009 49.6799C60.6235 49.8091 60.1394 49.9126 59.6509 49.9899C59.2655 50.0338 58.8763 50.0338 58.4909 49.9899C58.1201 49.9603 57.7541 49.8865 57.4009 49.7699C56.9671 49.6158 56.5487 49.4216 56.1509 49.1899C55.3492 48.8463 54.5767 48.4383 53.8409 47.9699C53.1742 47.5366 52.3942 46.9799 51.5009 46.2999C51.1742 45.9466 50.8842 45.6432 50.6309 45.3899C50.3918 45.155 50.1895 44.8853 50.0309 44.5899C49.8729 44.2761 49.7681 43.9381 49.7209 43.5899C49.6607 43.1319 49.6607 42.6679 49.7209 42.2099C49.8076 40.3699 49.9709 38.2833 50.2109 35.9499C50.4509 33.6166 50.7109 31.1932 50.9909 28.6799C51.2709 26.1666 51.5242 23.6399 51.7509 21.0999C51.9776 18.5599 52.1176 16.1466 52.1709 13.8599C53.4294 13.1769 54.7402 12.5951 56.0909 12.1199C57.6172 11.5732 59.173 11.1125 60.7509 10.7399C62.3745 10.3519 64.0211 10.068 65.6809 9.88992C67.2579 9.71554 68.8467 9.67206 70.4309 9.75991C71.8298 9.83291 73.214 10.0815 74.5509 10.4999C75.6994 10.8416 76.7535 11.4439 77.6309 12.2599C78.6393 13.2578 79.5164 14.3802 80.2409 15.5999C80.9772 16.8899 81.4975 18.2918 81.7809 19.7499C81.9373 20.5759 81.9373 21.4239 81.7809 22.2499C81.5775 23.0571 81.2611 23.8314 80.8409 24.5499C80.4504 25.2957 79.9702 25.9908 79.4109 26.6199C78.8424 27.2638 78.231 27.8685 77.5809 28.4299L75.4409 30.0999C74.6209 30.6998 73.751 31.2284 72.8409 31.6799C73.9705 32.2632 74.9339 33.1233 75.6409 34.1799ZM58.6209 39.5499C58.3676 40.6966 58.1376 41.8632 57.9309 43.0499C59.3791 42.6652 60.7938 42.1635 62.1609 41.5499C63.2972 41.0748 64.3855 40.4921 65.4109 39.8099C66.1798 39.322 66.8568 38.7025 67.4109 37.9799C67.591 37.7545 67.7223 37.494 67.7963 37.2151C67.8703 36.9362 67.8855 36.645 67.8409 36.3599C67.6328 36.0087 67.3223 35.7295 66.9509 35.5599C66.3921 35.2903 65.789 35.1243 65.1709 35.0699C64.3081 34.9835 63.4378 35.007 62.5809 35.1399C61.4767 35.3039 60.3892 35.5649 59.3309 35.9199C59.1042 37.1666 58.8676 38.3766 58.6209 39.5499ZM66.1509 26.3299C67.4918 25.5783 68.7605 24.7046 69.9409 23.7199C70.8175 23.0099 71.5768 22.1662 72.1909 21.2199C72.6047 20.6815 72.7978 20.0057 72.7309 19.3299C72.6468 19.115 72.5119 18.9236 72.3378 18.7721C72.1636 18.6206 71.9554 18.5135 71.7309 18.4599C71.0619 18.2518 70.3586 18.177 69.6609 18.2399C68.6724 18.3077 67.6938 18.4787 66.7409 18.7499C65.515 19.0943 64.3206 19.5426 63.1709 20.0899C62.7443 21.4036 62.3871 22.7387 62.1009 24.0899C61.8142 25.4632 61.4609 26.9499 61.0409 28.5499C62.8169 27.9731 64.5292 27.2158 66.1509 26.2899V26.3299Z" fill="#FFCC00"/>
<path d="M108.94 16.4596C109.487 17.5652 109.871 18.7441 110.08 19.9596C110.412 22.3012 110.486 24.672 110.3 27.0296C110.116 29.5737 109.677 32.0929 108.99 34.5496C108.31 37.0189 107.354 39.4039 106.14 41.6596C105.008 43.7951 103.505 45.7118 101.7 47.3196C100.601 48.1976 99.3254 48.8286 97.9604 49.1696C96.4824 49.4898 94.9609 49.5574 93.4604 49.3696C92.2914 49.2434 91.1299 49.0565 89.9803 48.8096C88.8509 48.5767 87.7578 48.1933 86.7303 47.6696C85.8862 47.2264 85.0946 46.6897 84.3703 46.0696C83.6241 45.4494 83.003 44.6926 82.5403 43.8396C81.7945 42.3746 81.256 40.813 80.9403 39.1996C80.5779 37.4098 80.4136 35.5855 80.4503 33.7596C80.5302 29.7714 81.3791 25.8361 82.9503 22.1696C83.7636 20.2942 84.769 18.508 85.9503 16.8396C87.1178 15.1697 88.4883 13.6514 90.0303 12.3196C91.1328 11.5062 92.3775 10.906 93.7003 10.5496C95.0339 10.143 96.441 10.0372 97.8204 10.2396C99.4708 10.4962 101.092 10.9149 102.66 11.4896C104.031 11.9706 105.317 12.6659 106.47 13.5496C107.487 14.3376 108.328 15.3286 108.94 16.4596ZM97.1903 18.7796C96.2905 19.6751 95.5106 20.6835 94.8703 21.7796C94.0524 23.1167 93.3306 24.5102 92.7104 25.9496C92.0731 27.3935 91.5286 28.8765 91.0803 30.3896C90.6598 31.8115 90.362 33.2668 90.1903 34.7396C90.016 36.129 89.9558 37.5304 90.0103 38.9296C90.0376 40.0624 90.2469 41.1834 90.6303 42.2496C90.7405 42.6335 90.939 42.9862 91.2099 43.2797C91.4808 43.5731 91.8165 43.7991 92.1903 43.9396C92.5307 44.0447 92.8918 44.0631 93.2411 43.9932C93.5903 43.9234 93.9166 43.7675 94.1903 43.5396C94.995 42.9374 95.6887 42.1998 96.2403 41.3596C97.0101 40.2196 97.6602 39.0031 98.1803 37.7296C98.8177 36.2024 99.3457 34.6318 99.7603 33.0296C100.172 31.5146 100.486 29.9748 100.7 28.4196C100.93 26.8633 101.05 25.2928 101.06 23.7196C101.085 22.4369 100.944 21.1563 100.64 19.9096C100.36 18.8563 99.9237 18.2396 99.3303 18.0596C98.737 17.8796 98.0237 18.1196 97.1903 18.7796Z" fill="#FFCC00"/>
<path d="M111.698 40.48C111.406 38.9139 111.265 37.3231 111.278 35.73C111.287 33.8977 111.407 32.0676 111.638 30.25C111.878 28.3166 112.192 26.3566 112.578 24.37C112.965 22.3833 113.402 20.3833 113.888 18.37C114.382 16.37 114.895 14.4166 115.428 12.51C115.668 11.65 116.002 11.13 116.428 10.95C117.14 10.7891 117.885 10.8664 118.548 11.17C119.43 11.4264 120.286 11.7611 121.108 12.17C121.939 12.5962 122.735 13.0878 123.488 13.64C124.226 14.0887 124.79 14.7733 125.089 15.5829C125.389 16.3924 125.406 17.2794 125.138 18.1C124.665 19.6466 124.168 21.3133 123.648 23.1C123.128 24.8866 122.645 26.7066 122.198 28.56C121.752 30.4 121.372 32.1966 121.058 33.95C120.769 35.5133 120.575 37.093 120.478 38.68C120.386 39.8445 120.46 41.0163 120.698 42.16C120.742 42.5308 120.889 42.8819 121.122 43.1735C121.356 43.4651 121.666 43.6856 122.018 43.81C122.818 44.0166 123.605 43.63 124.378 42.65C125.301 41.3991 126.044 40.0259 126.588 38.57C127.362 36.6073 128.03 34.6044 128.588 32.57C129.255 30.2833 129.848 27.93 130.368 25.51C130.888 23.09 131.385 20.7033 131.858 18.35C132.305 16.0033 132.705 13.9066 133.058 12.06C133.118 11.1666 133.452 10.6333 134.058 10.46C134.771 10.2847 135.518 10.3089 136.218 10.53C137.172 10.771 138.097 11.1129 138.978 11.55C139.945 12.0433 140.828 12.5266 141.628 13C141.987 13.2101 142.322 13.4582 142.628 13.74C142.832 13.9344 142.992 14.1695 143.098 14.43C143.189 14.6793 143.22 14.9465 143.188 15.21C143.148 15.5466 143.088 15.8805 143.008 16.21C142.115 20.4633 141.215 24.3633 140.308 27.91C139.514 31.1005 138.556 34.248 137.438 37.34C136.589 39.7423 135.483 42.0457 134.138 44.21C133.146 45.8457 131.774 47.2179 130.138 48.21C129.147 48.6807 128.098 49.017 127.018 49.21C125.839 49.4112 124.64 49.465 123.448 49.37C121.151 49.2939 118.899 48.7172 116.848 47.68C116.103 47.2621 115.403 46.7696 114.758 46.21C114.079 45.6151 113.508 44.9082 113.068 44.12C112.408 42.9935 111.944 41.7625 111.698 40.48Z" fill="#FFCC00"/>
<path d="M154.718 48.0197C152.718 48.393 150.838 48.7564 149.078 49.1097C148.539 49.266 147.987 49.3698 147.428 49.4197C147.04 49.452 146.649 49.4284 146.268 49.3497C145.983 49.2892 145.708 49.1917 145.448 49.0597C145.223 48.9407 145.006 48.8071 144.798 48.6597C144.32 48.3528 143.859 48.0189 143.418 47.6597C143.005 47.3197 142.455 46.8797 141.768 46.3397C141.289 45.9576 140.895 45.4811 140.608 44.9397C140.332 44.3503 140.254 43.6869 140.388 43.0497C140.475 41.8897 140.625 40.5164 140.838 38.9297C141.051 37.343 141.305 35.6264 141.598 33.7797C141.898 31.9397 142.231 30.0297 142.598 28.0497C142.965 26.0697 143.351 24.0997 143.758 22.1397C144.171 20.1797 144.595 18.293 145.028 16.4797C145.461 14.6664 145.885 12.9997 146.298 11.4797C146.591 10.6197 146.971 10.1064 147.438 9.93969C148.129 9.78918 148.849 9.84481 149.508 10.0997C150.529 10.3681 151.531 10.7021 152.508 11.0997C153.478 11.4886 154.406 11.9744 155.278 12.5497C155.868 12.9213 156.365 13.4244 156.728 14.0197C156.915 14.6059 156.876 15.241 156.618 15.7997C156.025 17.5797 155.421 19.5397 154.808 21.6797C154.195 23.8197 153.585 26.0197 152.978 28.2797C152.371 30.5397 151.791 32.7897 151.238 35.0297C150.685 37.2697 150.171 39.4164 149.698 41.4697C151.065 41.2297 152.341 41.0497 153.528 40.9297C154.715 40.8097 156.008 40.7064 157.408 40.6197C158.042 40.5437 158.686 40.5982 159.298 40.7797C159.799 41.0064 160.213 41.3887 160.478 41.8697C160.823 42.382 161.114 42.9282 161.348 43.4997C161.558 44.0125 161.729 44.5408 161.858 45.0797C162.045 45.4682 162.101 45.9067 162.018 46.3297C161.911 46.5364 161.398 46.7297 160.478 46.9097L154.718 48.0197Z" fill="#FFCC00"/>
<path d="M173.221 12.16C174.781 11.8 176.414 11.4667 178.121 11.16C179.827 10.8534 181.581 10.5934 183.381 10.38C185.181 10.1534 186.971 10.0134 188.751 9.96003C189.44 9.86448 190.142 10.0118 190.735 10.3767C191.328 10.7416 191.775 11.3013 192.001 11.96C192.344 12.5723 192.613 13.2236 192.801 13.9C192.947 14.48 193.097 15.11 193.251 15.79C193.328 16.0487 193.351 16.3203 193.32 16.5884C193.289 16.8565 193.204 17.1156 193.071 17.35C192.595 17.7115 192.018 17.9144 191.421 17.93L185.891 18.55C183.991 18.7567 181.991 19.01 179.891 19.31C179.444 20.6434 179.027 22.0334 178.641 23.48C178.254 24.9267 177.824 26.4334 177.351 28C178.244 27.88 179.134 27.79 180.021 27.73C180.907 27.67 181.847 27.61 182.841 27.55C183.515 27.4937 184.195 27.5684 184.841 27.77C185.368 27.9992 185.794 28.4112 186.041 28.93C186.377 29.4854 186.652 30.0755 186.861 30.69C187.054 31.27 187.224 31.8567 187.371 32.45C187.517 33.0434 187.541 33.5034 187.441 33.83C186.996 34.1774 186.462 34.3923 185.901 34.45C184.121 34.7767 182.301 35.09 180.441 35.39C178.581 35.69 176.791 36.0234 175.071 36.39C174.831 37.3434 174.607 38.2434 174.401 39.09C174.194 39.9367 173.971 40.7767 173.731 41.61C175.124 41.37 176.457 41.1767 177.731 41.03C179.004 40.8834 180.377 40.7634 181.851 40.67C182.503 40.5917 183.164 40.6531 183.791 40.85C184.292 41.0653 184.708 41.4419 184.971 41.92C185.294 42.4508 185.568 43.0097 185.791 43.59C185.984 44.11 186.201 44.6367 186.441 45.17C186.598 45.5649 186.598 46.0052 186.441 46.4C186.294 46.62 185.817 46.8067 185.011 46.96L179.221 48.07C177.261 48.4567 175.387 48.8134 173.601 49.14C172.729 49.4195 171.804 49.4881 170.901 49.34C170.34 49.1976 169.806 48.9646 169.321 48.65C168.814 48.3234 168.331 47.99 167.871 47.65C167.411 47.31 166.867 46.8767 166.241 46.35C165.748 45.9486 165.346 45.4477 165.061 44.88C164.767 44.2392 164.653 43.5306 164.731 42.83L168.961 13.19C170.214 12.8567 171.634 12.5134 173.221 12.16Z" fill="#FFCC00"/>
<path d="M222.409 21.2896C221.743 23.0163 220.986 24.8496 220.139 26.7896C219.293 28.7296 218.416 30.7296 217.509 32.7896C216.589 34.8363 215.669 36.8363 214.749 38.7896C213.829 40.7429 212.953 42.5563 212.119 44.2296C211.266 45.9096 210.506 47.3496 209.839 48.5496C209.53 49.1658 209.008 49.649 208.369 49.9096C207.571 50.0977 206.737 50.0596 205.959 49.7996C204.919 49.4996 203.953 49.2029 203.059 48.9096C202.098 48.5842 201.16 48.1967 200.249 47.7496C199.243 47.3248 198.372 46.6333 197.729 45.7496C197.215 45.0426 196.829 44.2505 196.589 43.4096C195.583 39.3363 194.666 34.7496 193.839 29.6496C193.013 24.5496 192.276 18.9563 191.629 12.8696C191.537 12.2986 191.607 11.7134 191.829 11.1796C192.023 10.8529 192.566 10.6896 193.459 10.6896C194.256 10.686 195.052 10.7462 195.839 10.8696C196.629 11.006 197.4 11.2307 198.139 11.5396C199.018 11.7948 199.803 12.3021 200.397 12.9989C200.991 13.6956 201.367 14.5512 201.479 15.4596C201.659 16.9196 201.859 18.5696 202.079 20.4096C202.299 22.2496 202.529 24.1963 202.769 26.2496C203.009 28.2963 203.269 30.4296 203.549 32.6496C203.829 34.8696 204.133 37.0629 204.459 39.2296C206.419 34.9229 208.329 30.3763 210.189 25.5896C212.049 20.8029 213.933 16.0563 215.839 11.3496C216.014 10.8869 216.347 10.5009 216.779 10.2596C217.186 10.0635 217.645 10.0005 218.089 10.0796C218.63 10.1696 219.155 10.3345 219.649 10.5696C220.225 10.8361 220.783 11.1401 221.319 11.4796C221.872 11.7809 222.406 12.1148 222.919 12.4796C223.358 12.7863 223.734 13.1731 224.029 13.6196C224.294 14.0319 224.44 14.5096 224.449 14.9996C224.445 15.5997 224.315 16.1922 224.069 16.7396C223.643 18.0529 223.089 19.5696 222.409 21.2896Z" fill="#FFCC00"/>
<path d="M235.939 41.2399C233.965 41.5056 232.008 41.8863 230.079 42.3799C229.485 43.5399 228.965 44.6166 228.518 45.6099C228.072 46.6032 227.639 47.5832 227.219 48.5499C227.147 48.7528 227.033 48.9377 226.882 49.0915C226.732 49.2453 226.55 49.3642 226.348 49.4399C225.825 49.5087 225.292 49.4326 224.809 49.2199L223.538 48.7099C223.078 48.5166 222.612 48.2999 222.139 48.0599L221.199 47.4599C220.929 47.3093 220.706 47.0883 220.553 46.8205C220.399 46.5528 220.322 46.2483 220.329 45.9399C220.336 45.4334 220.42 44.931 220.579 44.4499C221.292 42.4032 222.222 39.9966 223.368 37.2299C224.515 34.4632 225.748 31.6099 227.068 28.6699C228.402 25.7299 229.755 22.8266 231.128 19.9599C232.502 17.0932 233.815 14.5466 235.068 12.3199C235.488 11.5287 236.083 10.8444 236.809 10.3199C237.765 9.76226 238.887 9.55706 239.979 9.73988C241.199 9.79988 242.282 9.89655 243.229 10.0299C244.175 10.1632 245.045 10.3366 245.839 10.5499C246.625 10.7299 247.352 10.9232 248.018 11.1299C248.685 11.3366 249.352 11.5299 250.018 11.7099C250.389 11.7883 250.741 11.9391 251.053 12.1535C251.365 12.368 251.632 12.6421 251.839 12.9599C252.109 13.6248 252.195 14.3501 252.089 15.0599C251.909 17.1732 251.758 19.5966 251.638 22.3299C251.518 25.0632 251.428 27.9166 251.368 30.8899C251.308 33.8632 251.272 36.8432 251.259 39.8299C251.245 42.8166 251.245 45.5866 251.259 48.1399C251.28 48.3376 251.262 48.5376 251.206 48.7283C251.149 48.9189 251.055 49.0963 250.928 49.2499C250.479 49.5135 249.956 49.6224 249.439 49.5599C248.665 49.5599 247.952 49.5366 247.298 49.4899C246.616 49.4396 245.943 49.2984 245.298 49.0699C244.737 48.946 244.222 48.6691 243.809 48.2699C243.456 47.7542 243.249 47.1532 243.208 46.5299C243.088 45.6699 242.985 44.7266 242.898 43.6999C242.812 42.6732 242.722 41.5499 242.629 40.3299L235.939 41.2399ZM238.118 33.5499C239.452 33.4032 240.812 33.2832 242.198 33.1899C242.138 30.7566 242.095 28.3266 242.069 25.8999C242.042 23.4732 242.042 21.0732 242.069 18.6999C240.882 20.8665 239.595 23.2665 238.208 25.8999C236.822 28.5332 235.432 31.2599 234.038 34.0799C235.405 33.8799 236.765 33.7032 238.118 33.5499Z" fill="#FFCC00"/>
<path d="M262.951 43.5498L261.951 48.4498C261.871 48.8253 261.658 49.1592 261.351 49.3898C260.897 49.5452 260.404 49.5452 259.951 49.3898C259.151 49.1831 258.437 49.0198 257.811 48.8998C257.19 48.7824 256.59 48.5735 256.031 48.2798C255.515 48.0186 255.097 47.5977 254.841 47.0798C254.617 46.4906 254.541 45.8552 254.621 45.2298C254.681 44.6031 254.764 43.6965 254.871 42.5098C254.977 41.3231 255.104 39.9898 255.251 38.5098C255.397 37.0098 255.567 35.3965 255.761 33.6698C255.954 31.9431 256.161 30.2198 256.381 28.4998C256.601 26.7798 256.847 25.1132 257.121 23.4998C257.394 21.8865 257.677 20.4298 257.971 19.1298C258.213 18.0335 258.547 16.9597 258.971 15.9198C259.165 15.2896 259.554 14.7368 260.081 14.3398C261.921 13.4798 263.841 12.6465 265.841 11.8398C267.753 11.063 269.74 10.4866 271.771 10.1198C273.596 9.77965 275.465 9.74923 277.301 10.0298C279.023 10.3179 280.611 11.14 281.841 12.3798C282.882 13.5101 283.828 14.7242 284.671 16.0098C285.595 17.4717 286.271 19.0768 286.671 20.7598C287.091 22.3961 286.932 24.1276 286.221 25.6598C284.982 27.9316 283.216 29.8727 281.071 31.3198C278.381 33.2103 275.506 34.822 272.491 36.1298C273.157 36.9032 273.907 37.7198 274.741 38.5798C275.574 39.4398 276.414 40.2998 277.261 41.1598C278.121 42.0198 278.974 42.8532 279.821 43.6598C280.667 44.4665 281.461 45.1665 282.201 45.7598C282.794 46.2665 283.061 46.6665 283.001 46.9598C282.869 47.3543 282.599 47.6881 282.241 47.8998C281.847 48.2438 281.383 48.4965 280.881 48.6398L279.521 48.8898C278.816 49.0737 278.084 49.128 277.361 49.0498C276.386 48.9189 275.451 48.5777 274.621 48.0498C273.954 47.5765 273.167 46.9832 272.261 46.2698C271.354 45.5565 270.434 44.7698 269.501 43.9098C268.547 43.0498 267.597 42.1498 266.651 41.2098C265.735 40.3155 264.87 39.3707 264.061 38.3798C263.661 40.1532 263.291 41.8765 262.951 43.5498ZM267.471 25.0998C267.024 26.8265 266.517 28.6698 265.951 30.6298C267.864 30.0095 269.697 29.1636 271.411 28.1098C272.842 27.2477 274.182 26.2426 275.411 25.1098C276.337 24.2688 277.121 23.2826 277.731 22.1898C278.156 21.5634 278.318 20.7946 278.181 20.0498C277.827 19.2165 276.771 18.7998 275.011 18.7998C274.053 18.8097 273.098 18.9135 272.161 19.1098C271.016 19.3544 269.907 19.7442 268.861 20.2698C268.381 21.7565 267.917 23.3598 267.471 25.0798V25.0998Z" fill="#FFCC00"/>
<path d="M293.129 11.6898C294.715 11.1261 296.348 10.7077 298.009 10.4398C299.754 10.1572 301.523 10.0534 303.289 10.1298C305.07 10.1921 306.831 10.5294 308.509 11.1298C310.216 11.7534 311.795 12.6818 313.169 13.8698C314.696 15.2225 315.925 16.8774 316.779 18.7298C317.622 20.3709 318.151 22.1547 318.339 23.9898C318.545 25.9481 318.434 27.9269 318.009 29.8498C317.546 31.9459 316.789 33.9659 315.759 35.8498C314.64 37.9094 313.236 39.8012 311.589 41.4698C309.778 43.3021 307.734 44.889 305.509 46.1898C303.002 47.6517 300.312 48.7749 297.509 49.5298C296.729 49.794 295.903 49.8949 295.083 49.8261C294.262 49.7572 293.464 49.5202 292.739 49.1298C291.991 48.7585 291.264 48.348 290.559 47.8998C289.933 47.4998 289.219 47.0031 288.419 46.4098L287.569 45.6298C287.3 45.3733 287.068 45.0804 286.879 44.7598C286.672 44.3897 286.543 43.9814 286.499 43.5598C286.427 42.9519 286.427 42.3377 286.499 41.7298L289.139 13.4498C290.421 12.7588 291.755 12.1702 293.129 11.6898ZM301.129 39.0198C302.681 37.7562 304.06 36.2936 305.229 34.6698C306.238 33.2712 307.049 31.7401 307.639 30.1198C308.142 28.7585 308.458 27.3357 308.579 25.8898C308.762 24.4464 308.548 22.9804 307.959 21.6498C307.338 20.5694 306.336 19.7598 305.149 19.3798C303.543 18.8812 301.815 18.9447 300.249 19.5598C299.209 23.4531 298.289 27.2931 297.489 31.0798C296.689 34.8664 295.896 38.6898 295.109 42.5498C297.262 41.668 299.273 40.4753 301.079 39.0098L301.129 39.0198Z" fill="#FFCC00"/>
</svg>
