<svg viewBox="0 0 402 71" fill="none" xmlns="http://www.w3.org/2000/svg">
<path d="M41.8299 24.9397C37.9597 27.1692 34.2233 29.6234 30.6399 32.2897C30.6399 28.1597 30.5499 24.0297 30.2999 19.8897C30.0599 15.2497 29.7599 10.6097 29.1399 5.96973C28.5099 10.6097 28.2199 15.2497 27.9699 19.8897C27.7299 24.0197 27.6699 28.1597 27.6299 32.2897C24.0471 29.6226 20.3107 27.1684 16.4399 24.9397C19.9258 28.4031 23.6445 31.6239 27.5699 34.5797C23.643 37.5337 19.9242 40.7546 16.4399 44.2197C20.3198 41.9917 24.0631 39.534 27.6499 36.8597C27.6499 40.4897 27.7499 44.1097 27.9599 47.7397L28.3899 54.7397C28.6399 57.0597 28.7899 59.3797 29.1399 61.7397C29.4799 59.4197 29.6299 57.0997 29.8899 54.7397L30.3099 47.7397C30.5299 44.1097 30.5899 40.4897 30.6299 36.8597C34.2147 39.5321 37.9546 41.9897 41.8299 44.2197C38.3476 40.7526 34.6286 37.5315 30.6999 34.5797C34.6271 31.626 38.3459 28.405 41.8299 24.9397" fill="#FFCC00"/>
<path d="M43.08 24.3096C39.2131 26.5394 35.48 28.9936 31.9 31.6596C31.9 27.5296 31.8099 23.3996 31.5599 19.2596C31.3199 14.6296 31 9.99961 30.4 5.34961C29.77 9.98961 29.4799 14.6296 29.2299 19.2696C28.9899 23.3996 28.9299 27.5396 28.8899 31.6696C25.3072 29.0025 21.5707 26.5483 17.7 24.3196C21.1877 27.7971 24.9098 31.0313 28.84 33.9996C24.913 36.9536 21.1942 40.1745 17.7099 43.6396C21.5898 41.4116 25.3331 38.9539 28.92 36.2796C28.92 39.9096 29.0199 43.5296 29.2299 47.1596L29.66 54.1596C29.91 56.4796 30.06 58.7996 30.41 61.1596C30.75 58.8396 30.9 56.5196 31.16 54.1596L31.58 47.1596C31.8 43.5296 31.86 39.9096 31.9 36.2796C35.4847 38.9519 39.2246 41.4096 43.0999 43.6396C39.6272 40.1736 35.9183 36.9525 32 33.9996C35.9271 31.0459 39.6459 27.8249 43.13 24.3596" fill="#6FD5CA"/>
<path d="M386 24.9397C382.13 27.1692 378.393 29.6234 374.81 32.2897C374.81 28.1597 374.72 24.0297 374.47 19.8897C374.23 15.2497 373.93 10.6097 373.31 5.96973C372.68 10.6097 372.39 15.2497 372.14 19.8897C371.9 24.0197 371.84 28.1597 371.8 32.2897C368.217 29.6226 364.481 27.1684 360.61 24.9397C364.096 28.4031 367.815 31.6239 371.74 34.5797C367.813 37.5337 364.094 40.7546 360.61 44.2197C364.49 41.9917 368.233 39.534 371.82 36.8597C371.82 40.4897 371.92 44.1097 372.13 47.7397L372.56 54.7397C372.81 57.0597 372.96 59.3797 373.31 61.7397C373.65 59.4197 373.8 57.0997 374.06 54.7397L374.48 47.7397C374.7 44.1097 374.76 40.4897 374.8 36.8597C378.385 39.5321 382.125 41.9897 386 44.2197C382.518 40.7526 378.799 37.5315 374.87 34.5797C378.797 31.626 382.516 28.405 386 24.9397" fill="#FFCC00"/>
<path d="M387.2 24.3098C383.326 26.539 379.587 28.9932 376 31.6598C376 27.5298 375.91 23.3998 375.66 19.2598C375.42 14.6198 375.12 9.97984 374.5 5.33984C373.87 9.97984 373.58 14.6198 373.33 19.2598C373.09 23.3898 373.03 27.5298 372.99 31.6598C369.407 28.9927 365.671 26.5385 361.8 24.3098C365.307 27.7929 369.049 31.0305 373 33.9998C369.073 36.9538 365.354 40.1748 361.87 43.6398C365.724 41.3929 369.44 38.9185 373 36.2298C373 39.8598 373.1 43.4798 373.31 47.1098L373.74 54.1098C373.99 56.4298 374.14 58.7498 374.49 61.1098C374.83 58.7898 374.98 56.4698 375.24 54.1098L375.66 47.1098C375.88 43.4798 375.94 39.8598 375.98 36.2298C379.565 38.9022 383.305 41.3598 387.18 43.5898C383.702 40.1406 379.99 36.9363 376.07 33.9998C379.997 31.0461 383.716 27.8251 387.2 24.3598" fill="#6FD5CA"/>
<path d="M61.3199 7.9999C62.6533 7.79323 64.1833 7.62656 65.91 7.4999C67.6366 7.37323 69.8066 7.3099 72.4199 7.3099C74.5825 7.30066 76.7414 7.48809 78.8699 7.8699C80.7339 8.1839 82.5279 8.82366 84.1699 9.7599C85.6465 10.6205 86.8735 11.8509 87.7299 13.3299C88.6379 15.0382 89.0761 16.9568 88.9999 18.8899C89.0107 20.1442 88.8113 21.3915 88.41 22.5799C88.0542 23.661 87.5201 24.6749 86.8299 25.5799C86.2026 26.3965 85.4499 27.1086 84.5999 27.6899C83.8402 28.2118 82.9716 28.5537 82.0599 28.6899C83.1445 28.8514 84.2055 29.1436 85.2199 29.5599C87.7871 30.5425 89.8637 32.497 90.9999 34.9999C91.7024 36.5992 92.0438 38.3337 91.9999 40.0799C92.0926 42.3762 91.5677 44.6554 90.4799 46.6799C89.4948 48.3674 88.0846 49.7672 86.3899 50.7399C84.5284 51.7663 82.495 52.444 80.3899 52.7399C78.0425 53.1201 75.6679 53.3074 73.2899 53.2999C71.3899 53.2999 69.5099 53.2466 67.6499 53.1399C65.7899 53.0332 63.6833 52.8366 61.3299 52.5499L61.3199 7.9999ZM72.9999 26.0799C73.967 26.0863 74.9322 25.9925 75.8799 25.7999C76.7155 25.635 77.5063 25.2941 78.1999 24.7999C78.8757 24.3066 79.4102 23.6445 79.7499 22.8799C80.1545 21.9085 80.3455 20.8615 80.3099 19.8099C80.352 18.7869 80.1281 17.7705 79.66 16.8599C79.263 16.1352 78.6927 15.5202 77.9999 15.0699C77.3023 14.63 76.5237 14.3342 75.7099 14.1999C74.887 14.0637 74.0541 13.9968 73.2199 13.9999C72.2465 13.9891 71.2737 14.0527 70.3099 14.1899V26.0899L72.9999 26.0799ZM70.3099 45.7899C70.8899 45.8766 71.5566 45.9399 72.3099 45.9799C73.0633 46.0199 73.7599 46.0266 74.3999 45.9999C75.3155 45.9955 76.2289 45.9118 77.1299 45.7499C78.0723 45.5779 78.9764 45.2392 79.7999 44.7499C80.6197 44.2562 81.3063 43.5696 81.7999 42.7499C82.3797 41.7426 82.6607 40.591 82.6099 39.4299C82.6345 38.3677 82.4263 37.313 81.9999 36.3399C81.5957 35.5294 80.9852 34.8397 80.2299 34.3399C79.4015 33.8007 78.4731 33.4334 77.4999 33.2599C76.3475 33.0278 75.1755 32.9073 73.9999 32.8999H70.3099V45.7899Z" fill="#FFCC00"/>
<path d="M112.28 53.3598C109.953 53.4131 107.64 52.9805 105.49 52.0898C103.647 51.301 102.013 50.0922 100.72 48.5598C99.4305 46.9978 98.462 45.1967 97.87 43.2597C97.2007 41.1342 96.8634 38.9182 96.87 36.6897C96.8669 34.442 97.2041 32.2067 97.87 30.0598C98.4529 28.1009 99.4219 26.2784 100.72 24.6998C102.017 23.1613 103.648 21.9401 105.49 21.1298C107.635 20.218 109.95 19.7748 112.28 19.8298C114.62 19.7772 116.944 20.2203 119.1 21.1298C120.963 21.9383 122.617 23.1589 123.94 24.6998C125.245 26.251 126.216 28.0555 126.79 29.9998C127.422 32.1526 127.735 34.3862 127.72 36.6298C127.738 38.8538 127.425 41.0682 126.79 43.1998C126.214 45.1434 125.244 46.9475 123.94 48.4998C122.621 50.0345 120.964 51.2427 119.1 52.0298C116.942 52.9379 114.621 53.3907 112.28 53.3598V53.3598ZM112.28 46.6597C113.27 46.7387 114.262 46.54 115.146 46.086C116.029 45.632 116.768 44.9407 117.28 44.0898C118.293 42.3764 118.8 39.9064 118.8 36.6798C118.8 33.4531 118.293 30.9831 117.28 29.2698C116.768 28.4188 116.029 27.7275 115.146 27.2735C114.262 26.8195 113.27 26.6208 112.28 26.6998C111.301 26.6272 110.32 26.8293 109.449 27.2833C108.578 27.7373 107.851 28.4252 107.35 29.2698C106.337 30.9831 105.83 33.4531 105.83 36.6798C105.83 39.9064 106.337 42.3764 107.35 44.0898C107.851 44.9343 108.578 45.6222 109.449 46.0762C110.32 46.5302 111.301 46.7323 112.28 46.6597V46.6597Z" fill="#FFCC00"/>
<path d="M134.1 20.5602C137.012 20.0646 139.988 20.0646 142.9 20.5602V37.5602C142.869 38.9677 143.003 40.3739 143.3 41.7502C143.5 42.7033 143.925 43.5947 144.54 44.3502C145.094 44.9869 145.814 45.4577 146.62 45.7102C147.563 45.9948 148.545 46.1298 149.53 46.1102C150.823 46.1393 152.115 45.9946 153.37 45.6802V20.5602C154.804 20.3174 156.256 20.1936 157.71 20.1902C159.184 20.192 160.656 20.3158 162.11 20.5602V51.3702C160.394 51.9257 158.643 52.37 156.87 52.7002C154.634 53.1406 152.359 53.3583 150.08 53.3502C148.043 53.3547 146.009 53.1875 144 52.8502C142.154 52.5585 140.404 51.8355 138.89 50.7402C137.314 49.5207 136.103 47.8913 135.39 46.0302C134.426 43.3905 133.984 40.5884 134.09 37.7802L134.1 20.5602Z" fill="#FFCC00"/>
<path d="M169.88 7.28992C171.334 7.0455 172.806 6.92174 174.28 6.91992C175.734 6.92345 177.186 7.04721 178.62 7.28992V39.8399C178.603 40.8777 178.676 41.915 178.84 42.9399C178.933 43.5917 179.164 44.2159 179.52 44.7699C179.815 45.1937 180.239 45.5097 180.73 45.6699C181.333 45.8513 181.961 45.9357 182.59 45.9199C182.951 45.9185 183.311 45.8984 183.67 45.8599C184.057 45.8193 184.441 45.7559 184.82 45.6699C185.266 47.2993 185.495 48.9805 185.5 50.6699V51.5699C185.496 51.8737 185.456 52.1759 185.38 52.4699C184.601 52.6966 183.8 52.8408 182.99 52.8999C182.057 52.9799 181.2 53.0199 180.42 53.0199C177.624 53.1585 174.881 52.2169 172.76 50.3899C170.84 48.6299 169.88 45.7666 169.88 41.7999V7.28992Z" fill="#FFCC00"/>
<path d="M197.22 39.2896C197.209 40.3275 197.438 41.354 197.889 42.2889C198.34 43.2239 199.001 44.042 199.82 44.6796C201.661 45.8712 203.829 46.4553 206.02 46.3496C207.466 46.3472 208.908 46.2134 210.33 45.9496C211.758 45.691 213.16 45.3061 214.52 44.7996C215.024 45.7524 215.42 46.7587 215.7 47.7996C216.039 49.0117 216.228 50.2612 216.26 51.5196C212.769 52.8063 209.07 53.4369 205.35 53.3796C202.742 53.4417 200.145 53.0213 197.69 52.1396C195.71 51.4134 193.926 50.2356 192.48 48.6996C191.105 47.1958 190.081 45.4063 189.48 43.4596C188.808 41.314 188.471 39.0778 188.48 36.8296C188.467 34.5811 188.805 32.3443 189.48 30.1996C190.094 28.2239 191.097 26.3912 192.43 24.8096C193.759 23.2613 195.411 22.0223 197.27 21.1796C199.387 20.2409 201.684 19.7767 204 19.8196C206.062 19.7763 208.108 20.1788 210 20.9996C211.687 21.7496 213.196 22.8468 214.43 24.2196C215.678 25.6339 216.618 27.2924 217.19 29.0896C217.816 31.0276 218.13 33.0529 218.12 35.0896C218.12 35.8762 218.09 36.6529 218.03 37.4196C217.97 38.1862 217.897 38.7962 217.81 39.2496L197.22 39.2896ZM209.81 33.1496C209.814 31.4084 209.237 29.7156 208.17 28.3396C207.65 27.7284 206.996 27.2453 206.259 26.9279C205.522 26.6105 204.721 26.4674 203.92 26.5096C203.056 26.45 202.19 26.5743 201.378 26.8743C200.566 27.1742 199.827 27.643 199.21 28.2496C198.046 29.6256 197.37 31.3488 197.29 33.1496H209.81Z" fill="#FFCC00"/>
<path d="M219.79 20.6204C220.699 20.426 221.622 20.3023 222.55 20.2504C223.397 20.2104 224.13 20.1904 224.75 20.1904C225.577 20.1904 226.403 20.2104 227.23 20.2504C228.001 20.2851 228.768 20.3888 229.52 20.5604L236.52 44.4304L243.4 20.5604C244.1 20.4338 244.843 20.3404 245.63 20.2804C246.417 20.2204 247.203 20.1904 247.99 20.1904C248.61 20.1904 249.323 20.2104 250.13 20.2504C251.058 20.3078 251.98 20.4314 252.89 20.6204L240.74 52.6204C239.918 52.7484 239.091 52.8318 238.26 52.8704C237.393 52.9104 236.67 52.9304 236.09 52.9304C235.51 52.9304 234.813 52.9071 234 52.8604C233.249 52.8228 232.503 52.7191 231.77 52.5504L219.79 20.6204Z" fill="#FFCC00"/>
<path d="M273.54 31.5404C273.573 30.705 273.402 29.8741 273.04 29.1204C272.729 28.5186 272.258 28.0137 271.68 27.6604C271.021 27.2836 270.294 27.0422 269.54 26.9504C268.606 26.8192 267.663 26.7557 266.72 26.7604C264.288 26.7952 261.878 27.2346 259.59 28.0604C259.059 27.1055 258.624 26.1006 258.29 25.0604C257.981 23.9508 257.836 22.8019 257.86 21.6504C259.638 21.0424 261.465 20.5874 263.32 20.2904C265 20.0147 266.698 19.8709 268.4 19.8604C272.7 19.8604 276.06 20.8937 278.48 22.9604C280.9 25.027 282.11 28.3337 282.11 32.8804V51.4804C280.377 52.0058 278.618 52.4398 276.84 52.7803C274.533 53.2153 272.188 53.423 269.84 53.4004C267.892 53.4159 265.949 53.2282 264.04 52.8404C262.422 52.5274 260.882 51.8951 259.51 50.9804C258.269 50.1316 257.267 48.978 256.6 47.6304C255.885 46.0633 255.543 44.3519 255.6 42.6304C255.537 40.8766 255.977 39.1414 256.87 37.6304C257.695 36.3108 258.823 35.2069 260.16 34.4104C261.553 33.5836 263.074 32.9955 264.66 32.6703C266.303 32.318 267.979 32.1404 269.66 32.1404C270.86 32.1404 272.193 32.2037 273.66 32.3304L273.54 31.5404ZM273.54 37.9304C273.047 37.8504 272.51 37.777 271.93 37.7104C271.415 37.6534 270.898 37.6233 270.38 37.6203C268.711 37.5354 267.051 37.9089 265.58 38.7004C264.995 39.0676 264.52 39.5876 264.209 40.2043C263.897 40.8211 263.759 41.5112 263.81 42.2004C263.753 43.0798 263.992 43.953 264.49 44.6804C264.911 45.2569 265.477 45.7122 266.13 46.0004C266.767 46.2686 267.442 46.4372 268.13 46.5004C268.85 46.5604 269.48 46.5904 270.02 46.5904C270.643 46.589 271.266 46.5354 271.88 46.4304L273.49 46.1504L273.54 37.9304Z" fill="#FFCC00"/>
<path d="M289.91 20.5604C290.53 20.4337 291.12 20.3404 291.68 20.2804C292.288 20.217 292.899 20.187 293.51 20.1904C294.122 20.1883 294.734 20.2284 295.34 20.3104C295.94 20.3904 296.53 20.4937 297.11 20.6204C297.263 20.9038 297.378 21.2065 297.45 21.5204C297.55 21.9104 297.65 22.3304 297.73 22.7604C297.81 23.1904 297.89 23.6304 297.95 24.0604L298.11 25.1404C299.047 23.8317 300.177 22.672 301.46 21.7004C302.907 20.6433 304.669 20.1075 306.46 20.1804C306.87 20.1804 307.35 20.1804 307.89 20.2404C308.289 20.2598 308.685 20.3235 309.07 20.4304C309.162 20.9029 309.225 21.3804 309.26 21.8604C309.3 22.4004 309.32 22.9571 309.32 23.5304C309.32 24.2304 309.29 24.9937 309.23 25.8204C309.174 26.6142 309.06 27.4029 308.89 28.1804C308.388 28.0949 307.879 28.0547 307.37 28.0604H306.37C305.579 28.069 304.789 28.1426 304.01 28.2804C303.099 28.4464 302.245 28.8422 301.53 29.4304C300.635 30.1737 299.947 31.1344 299.53 32.2204C298.946 33.8927 298.685 35.6606 298.76 37.4304V52.6804C298.022 52.8046 297.277 52.888 296.53 52.9304C295.783 52.9704 295.06 52.9904 294.36 52.9904C293.66 52.9904 292.947 52.9704 292.22 52.9304C291.493 52.8904 290.74 52.8071 289.96 52.6804L289.91 20.5604Z" fill="#FFCC00"/>
<path d="M333.12 7.29C333.848 7.16735 334.583 7.08389 335.32 7.04C336.047 7.01333 336.76 7 337.46 7C338.16 7 338.883 7.02 339.63 7.06C340.377 7.10276 341.122 7.18621 341.86 7.31V51.56C339.919 52.1373 337.941 52.5816 335.94 52.89C333.528 53.2253 331.095 53.379 328.66 53.35C326.531 53.3578 324.412 53.0546 322.37 52.45C320.423 51.8825 318.617 50.9114 317.07 49.6C315.484 48.2219 314.241 46.4927 313.44 44.55C312.488 42.1496 312.033 39.5813 312.1 37C312.085 34.7261 312.475 32.4677 313.25 30.33C313.97 28.3198 315.089 26.4761 316.54 24.91C317.999 23.3566 319.762 22.1208 321.72 21.28C323.856 20.3699 326.159 19.9169 328.48 19.95C329.227 19.95 330.003 19.98 330.81 20.04C331.598 20.0974 332.378 20.2314 333.14 20.44L333.12 7.29ZM333.12 27.19C332.462 27.0177 331.794 26.8841 331.12 26.79C330.456 26.7207 329.788 26.6907 329.12 26.7C327.881 26.6725 326.656 26.9616 325.56 27.54C324.564 28.0818 323.705 28.8447 323.05 29.77C322.358 30.7637 321.863 31.8804 321.59 33.06C321.278 34.3499 321.123 35.6729 321.13 37C321.095 38.4612 321.304 39.918 321.75 41.31C322.092 42.3704 322.678 43.3361 323.46 44.13C324.184 44.8337 325.065 45.3548 326.03 45.65C327.074 45.9655 328.16 46.1206 329.25 46.11C329.902 46.1081 330.552 46.0713 331.2 46C331.851 45.9235 332.493 45.7897 333.12 45.6V27.19Z" fill="#FFCC00"/>
</svg>
