<svg viewBox="0 0 327 54" fill="none" xmlns="http://www.w3.org/2000/svg">
<path d="M31.58 34.0999C32.4028 35.2762 32.9902 36.6005 33.31 37.9999C33.5168 39.3901 33.2934 40.8103 32.67 42.0699C31.9227 43.3484 30.9264 44.4638 29.74 45.3499C28.7242 46.2288 27.6296 47.0121 26.47 47.6899C25.18 48.4401 23.8441 49.1081 22.47 49.6899C21.06 50.2899 19.65 50.8299 18.23 51.3099C16.81 51.7899 15.47 52.1899 14.23 52.5099C13.6609 52.6666 13.0833 52.7901 12.5 52.8799C12.0434 52.949 11.5808 52.9691 11.12 52.9399C10.6745 52.9001 10.2349 52.8095 9.80998 52.6699C9.28353 52.4945 8.77465 52.2702 8.28998 51.9999C7.32085 51.5881 6.38764 51.0964 5.49998 50.5299C4.69998 50.0199 3.76998 49.3599 2.69998 48.5299C2.30998 48.0999 1.96998 47.7399 1.69998 47.4399C1.40977 47.1458 1.16689 46.8084 0.979981 46.4399C0.79584 46.0824 0.670886 45.6974 0.609982 45.2999C0.529095 44.7529 0.529095 44.1969 0.609982 43.6499C0.709982 41.4499 0.909982 38.9499 1.18998 36.1699C1.46998 33.3899 1.77998 30.4899 2.11998 27.4899C2.45998 24.4899 2.75998 21.4899 3.02998 18.4899C3.29998 15.4899 3.45998 12.5699 3.52998 9.83992C5.03491 9.02175 6.60332 8.32617 8.21998 7.75992C10.0404 7.10445 11.8967 6.55355 13.78 6.10992C15.7165 5.65056 17.6805 5.31653 19.66 5.10992C21.5337 4.91759 23.4202 4.8808 25.3 4.99992C26.9703 5.08637 28.6232 5.38201 30.22 5.87992C31.5896 6.29602 32.8453 7.02136 33.89 7.99992C35.0943 9.19405 36.1395 10.5385 37 11.9999C37.8823 13.5371 38.504 15.2097 38.84 16.9499C39.0328 17.9406 39.0328 18.9592 38.84 19.9499C38.6396 20.916 38.3029 21.8486 37.84 22.7199C37.3747 23.6117 36.804 24.4444 36.14 25.1999C35.4578 25.9637 34.7262 26.6819 33.95 27.3499L31.35 29.2899C30.3599 30.0095 29.3093 30.6418 28.21 31.1799C29.5586 31.858 30.7168 32.8616 31.58 34.0999V34.0999ZM11.25 40.4599C10.94 41.8299 10.67 43.2199 10.42 44.6399C12.148 44.2303 13.8402 43.6819 15.48 42.9999C16.838 42.4387 18.1376 41.7454 19.36 40.9299C20.271 40.3469 21.0731 39.6091 21.73 38.7499C21.9601 38.4755 22.129 38.1552 22.2256 37.8103C22.3222 37.4654 22.3441 37.1039 22.29 36.7499C22.0441 36.3149 21.6706 35.9658 21.22 35.7499C20.5551 35.4277 19.8363 35.2311 19.1 35.1699C18.0708 35.0646 17.0323 35.0915 16.01 35.2499C14.6886 35.4453 13.3869 35.7565 12.12 36.1799C11.84 37.6699 11.55 39.0999 11.25 40.4599ZM20.25 24.6799C21.85 23.7859 23.3632 22.7447 24.77 21.5699C25.8187 20.7175 26.7265 19.7051 27.46 18.5699C27.953 17.9254 28.1819 17.1172 28.1 16.3099C27.9974 16.063 27.8379 15.8437 27.6346 15.6699C27.4313 15.4962 27.1899 15.3728 26.93 15.3099C26.1281 15.0453 25.2822 14.94 24.44 14.9999C23.2617 15.0859 22.0955 15.2937 20.96 15.6199C19.497 16.0266 18.0717 16.5586 16.7 17.2099C16.1908 18.7834 15.7635 20.3822 15.42 21.9999C15.07 23.6699 14.64 25.4399 14.15 27.3199C16.2655 26.6521 18.3064 25.7674 20.24 24.6799H20.25Z" fill="white"/>
<path d="M71.3298 13C71.9818 14.3206 72.4399 15.7285 72.6898 17.18C73.101 19.9534 73.205 22.7637 72.9998 25.56C72.7865 28.6223 72.2604 31.6548 71.4298 34.61C70.612 37.5609 69.4613 40.4092 67.9998 43.1C66.6484 45.65 64.8537 47.9391 62.6998 49.86C61.3835 50.9056 59.8598 51.659 58.2298 52.07C56.4659 52.4514 54.6498 52.5292 52.8598 52.3C51.4657 52.1535 50.0805 51.9332 48.7098 51.64C47.3572 51.3659 46.0484 50.9084 44.8198 50.28C43.8093 49.7542 42.863 49.1132 41.9998 48.37C41.1115 47.6291 40.3718 46.7265 39.8198 45.71C38.93 43.9595 38.284 42.0956 37.8998 40.17C37.4695 38.0344 37.275 35.858 37.3198 33.68C37.4095 28.9154 38.4285 24.2141 40.3198 19.84C41.2698 17.5999 42.4566 15.4678 43.8598 13.48C45.2507 11.4832 46.8868 9.66904 48.7298 8.07997C50.0566 7.07585 51.5639 6.33579 53.1698 5.89997C54.7618 5.41271 56.4418 5.28296 58.0898 5.51997C60.0465 5.82644 61.9688 6.3221 63.8298 6.99997C65.4646 7.57501 66.9998 8.40162 68.3798 9.44997C69.6046 10.4098 70.6104 11.6201 71.3298 13V13ZM57.3298 15.77C56.2535 16.8181 55.3219 18.0053 54.5598 19.3C53.5831 20.9038 52.721 22.5746 51.9798 24.3C51.2057 25.998 50.5443 27.7451 49.9998 29.53C49.025 32.8351 48.5927 36.2764 48.7198 39.72C48.7508 41.0843 49.0006 42.4348 49.4598 43.72C49.5961 44.175 49.8359 44.5922 50.1603 44.9392C50.4847 45.2861 50.885 45.5534 51.3298 45.72C51.7299 45.832 52.1509 45.8469 52.5579 45.7634C52.9649 45.6799 53.3461 45.5005 53.6698 45.24C54.6288 44.5154 55.4573 43.6328 56.1198 42.63C57.0337 41.2646 57.8076 39.8106 58.4298 38.29C59.1941 36.468 59.8258 34.5931 60.3198 32.68C60.8067 30.8682 61.1808 29.028 61.4398 27.17C61.709 25.3085 61.8493 23.4307 61.8598 21.55C61.8906 20.0181 61.7226 18.4886 61.3598 17C61.0198 15.74 60.4998 15 59.7898 14.79C59.3309 14.7041 58.8573 14.7454 58.4201 14.9093C57.983 15.0732 57.5991 15.3536 57.3098 15.72L57.3298 15.77Z" fill="white"/>
<path d="M74.6301 41.6302C74.2804 39.7642 74.1129 37.8686 74.1301 35.9702C74.1384 33.7804 74.2787 31.5931 74.5501 29.4202C74.8434 27.1069 75.2168 24.7735 75.6701 22.4202C76.1301 20.0502 76.6701 17.6602 77.2401 15.2702C77.8101 12.8802 78.4401 10.5402 79.0701 8.2702C79.3601 7.2702 79.7701 6.6202 80.3301 6.4002C81.1772 6.21467 82.0616 6.30943 82.8501 6.6702C83.9042 6.98552 84.9282 7.39378 85.9101 7.8902C86.9049 8.401 87.8579 8.98949 88.7601 9.6502C89.6452 10.1809 90.3246 10.9955 90.6877 11.9615C91.0509 12.9274 91.0764 13.9879 90.7601 14.9702C90.1901 16.8202 89.6001 18.8102 88.9801 20.9702C88.3601 23.1302 87.7801 25.2902 87.2501 27.4902C86.7201 29.6902 86.2501 31.8402 85.8901 33.9302C85.5473 35.7947 85.3169 37.6781 85.2001 39.5702C85.0924 40.9589 85.1799 42.3558 85.4601 43.7202C85.5048 44.1683 85.6762 44.5944 85.9542 44.9486C86.2322 45.3028 86.6054 45.5704 87.0301 45.7202C88.0301 45.9702 88.9301 45.5102 89.8601 44.3402C90.9582 42.8466 91.8434 41.2076 92.4901 39.4702C93.4152 37.1114 94.2131 34.7046 94.8801 32.2602C95.6501 29.5302 96.3601 26.7102 97.0101 23.8202C97.6601 20.9302 98.2601 18.0802 98.8001 15.2802C99.3401 12.4802 99.8001 9.9802 100.23 7.7802C100.297 6.70687 100.687 6.06687 101.4 5.8602C102.255 5.64944 103.15 5.67711 103.99 5.9402C105.112 6.25084 106.199 6.67992 107.23 7.2202C108.38 7.8002 109.44 8.3802 110.4 8.9502C110.807 9.20251 111.189 9.49388 111.54 9.8202C111.782 10.055 111.973 10.3377 112.1 10.6502C112.21 10.9471 112.248 11.2659 112.21 11.5802C112.16 11.9841 112.087 12.3848 111.99 12.7802C110.93 17.8535 109.86 22.5202 108.78 26.7802C107.827 30.5866 106.679 34.3415 105.34 38.0302C104.33 40.8994 103.009 43.6491 101.4 46.2302C100.232 48.1841 98.6091 49.8273 96.6701 51.0202C95.4875 51.6 94.2333 52.0203 92.9401 52.2702C91.5331 52.5067 90.1025 52.5705 88.6801 52.4602C85.9433 52.3684 83.2587 51.6862 80.8101 50.4602C79.9206 49.9577 79.0832 49.3681 78.3101 48.7002C77.5074 47.9855 76.8312 47.1402 76.3101 46.2002C75.4841 44.7883 74.9152 43.241 74.6301 41.6302V41.6302Z" fill="white"/>
<path d="M126 50.6302C123.64 51.0702 121.39 51.5102 119.27 51.9302C118.617 52.1202 117.947 52.2441 117.27 52.3002C116.805 52.3432 116.337 52.3162 115.88 52.2202C115.532 52.1565 115.195 52.042 114.88 51.8802C114.61 51.7416 114.353 51.5811 114.11 51.4002C113.535 51.0357 112.984 50.6349 112.46 50.2002C111.96 49.7902 111.3 49.2702 110.46 48.6302C109.913 48.1824 109.464 47.6277 109.14 47.0002C108.817 46.2898 108.726 45.4954 108.88 44.7302C108.98 43.3502 109.16 41.7302 109.41 39.8102C109.66 37.8902 109.96 35.8102 110.32 33.6602C110.68 31.5102 111.06 29.1802 111.49 26.8202C111.92 24.4602 112.37 22.1102 112.87 19.8202C113.37 17.5302 113.87 15.2302 114.39 13.0602C114.91 10.8902 115.39 8.91023 115.9 7.06023C116.26 6.06023 116.71 5.42023 117.26 5.23023C118.086 5.04288 118.949 5.10554 119.74 5.41023C120.95 5.73818 122.138 6.13891 123.3 6.61023C124.473 7.07048 125.595 7.6502 126.65 8.34023C127.356 8.78319 127.949 9.38607 128.38 10.1002C128.606 10.8013 128.559 11.5618 128.25 12.2302C127.54 14.3502 126.82 16.7002 126.09 19.2302C125.36 21.7602 124.64 24.4102 123.91 27.1102C123.18 29.8102 122.49 32.4902 121.84 35.1702C121.19 37.8502 120.57 40.4102 120 42.8602C121.63 42.5802 123.16 42.3602 124.58 42.2202C126 42.0802 127.58 41.9602 129.21 41.8502C129.968 41.7553 130.738 41.82 131.47 42.0402C132.069 42.3076 132.565 42.7643 132.88 43.3402C133.276 43.9525 133.611 44.6023 133.88 45.2802C134.129 45.8947 134.332 46.5263 134.49 47.1702C134.714 47.6329 134.78 48.1561 134.68 48.6602C134.55 48.9102 133.94 49.1402 132.84 49.3502L126 50.6302Z" fill="white"/>
<path d="M148.08 7.81011C149.94 7.39011 151.89 7.00011 153.93 6.64011C155.97 6.28011 158.063 5.97011 160.21 5.71011C162.36 5.44011 164.49 5.28011 166.62 5.20011C168.75 5.12011 169.94 5.95011 170.51 7.55011C170.934 8.27749 171.27 9.05299 171.51 9.86011C171.68 10.5501 171.86 11.3101 172.04 12.1201C172.132 12.43 172.161 12.7552 172.125 13.0765C172.089 13.3977 171.989 13.7084 171.83 13.9901C171.25 14.4203 170.552 14.6613 169.83 14.6801C167.7 14.9301 165.5 15.1701 163.23 15.4201C160.96 15.6701 158.56 15.9701 156.04 16.3301C155.513 17.9234 155.017 19.5901 154.55 21.3301C154.083 23.0701 153.567 24.8634 153 26.7101C154.06 26.5601 155.13 26.4601 156.19 26.3901C157.25 26.3201 158.39 26.2601 159.6 26.2301C160.389 26.1673 161.184 26.2555 161.94 26.4901C162.571 26.7656 163.082 27.259 163.38 27.8801C163.787 28.5428 164.122 29.2467 164.38 29.9801C164.61 30.6701 164.81 31.3701 164.99 32.0801C165.17 32.7901 165.3 33.4501 165.07 33.7301C164.542 34.1456 163.908 34.4053 163.24 34.4801C161.11 34.8701 158.93 35.2401 156.72 35.5901C154.51 35.9401 152.36 36.3401 150.3 36.7601C150.02 37.9001 149.75 38.9701 149.51 39.9801C149.27 40.9901 148.99 41.9801 148.71 42.9801C150.37 42.7001 151.96 42.4701 153.47 42.2901C154.98 42.1101 156.62 41.9701 158.39 41.8601C159.17 41.7647 159.962 41.8397 160.71 42.0801C161.31 42.332 161.807 42.7796 162.12 43.3501C162.512 43.9858 162.846 44.6551 163.12 45.3501C163.347 45.9701 163.607 46.6001 163.9 47.2401C164.084 47.7094 164.084 48.2308 163.9 48.7001C163.72 48.9701 163.15 49.1901 162.19 49.3701C159.92 49.7901 157.62 50.2401 155.27 50.7001C152.92 51.1601 150.7 51.5801 148.57 51.9801C147.53 52.3118 146.426 52.3907 145.35 52.2101C144.679 52.0427 144.04 51.7656 143.46 51.3901C142.85 51.0001 142.28 50.6001 141.73 50.1901C141.18 49.7801 140.53 49.2601 139.79 48.6201C139.197 48.1477 138.715 47.5501 138.38 46.8701C138.026 46.1051 137.888 45.258 137.98 44.4201L143 9.00011C144.52 8.65011 146.21 8.24011 148.08 7.81011Z" fill="white"/>
<path d="M206.8 18.7199C205.99 20.7799 205.08 22.9699 204.09 25.2899C203.1 27.6099 202.09 29.9999 200.95 32.4499C199.81 34.8999 198.75 37.2799 197.65 39.5799C196.55 41.8799 195.5 44.0599 194.51 46.0799C193.52 48.0999 192.63 49.8399 191.85 51.2899C191.48 52.0285 190.855 52.6077 190.09 52.9199C189.139 53.141 188.145 53.0925 187.22 52.7799C185.98 52.4299 184.82 52.0699 183.76 51.7199C182.617 51.3265 181.498 50.8657 180.41 50.3399C179.205 49.8225 178.166 48.9814 177.41 47.9099C176.779 47.0705 176.302 46.1259 176 45.1199C174.76 40.2599 173.653 34.7866 172.68 28.6999C171.707 22.6132 170.827 15.9466 170.04 8.69989C169.935 8.02384 170.018 7.3318 170.28 6.69989C170.51 6.30989 171.16 6.11989 172.22 6.11989C173.174 6.11425 174.127 6.18447 175.07 6.32989C176.011 6.4925 176.93 6.76087 177.81 7.12989C178.862 7.43277 179.801 8.03768 180.512 8.86962C181.223 9.70155 181.675 10.7239 181.81 11.8099C182.03 13.5499 182.27 15.5199 182.53 17.7199C182.8 19.9199 183.07 22.2399 183.36 24.7199C183.65 27.1999 183.95 29.7199 184.29 32.3599C184.63 34.9999 184.99 37.6199 185.38 40.2099C187.72 35.0566 190 29.6266 192.22 23.9199C194.44 18.2132 196.667 12.5466 198.9 6.91989C199.107 6.37003 199.499 5.91 200.01 5.61989C200.502 5.3862 201.054 5.31275 201.59 5.40989C202.234 5.51782 202.859 5.71295 203.45 5.98989C204.139 6.31064 204.807 6.6747 205.45 7.07989C206.114 7.44083 206.755 7.84156 207.37 8.27989C207.896 8.64394 208.348 9.10563 208.7 9.63989C209.019 10.1323 209.196 10.7034 209.21 11.2899C209.197 12.0038 209.041 12.7078 208.75 13.3599C208.28 14.8599 207.62 16.6599 206.8 18.7199Z" fill="white"/>
<path d="M223 42.5401C220.641 42.8516 218.304 43.3057 216 43.9001C215.29 45.2801 214.67 46.5701 214.13 47.7501C213.59 48.9301 213.13 50.1001 212.59 51.2401C212.511 51.4792 212.381 51.6981 212.208 51.8812C212.035 52.0644 211.824 52.2074 211.59 52.3001C210.968 52.3835 210.335 52.2936 209.76 52.0401L208.24 51.4301C207.693 51.2034 207.133 50.9434 206.56 50.6501C206.14 50.3701 205.77 50.1301 205.45 49.9401C205.15 49.7588 204.894 49.5129 204.7 49.2201C204.511 48.8878 204.411 48.5123 204.41 48.1301C204.416 47.5222 204.513 46.9186 204.7 46.3401C205.55 43.9001 206.7 41.0201 208.03 37.7201C209.36 34.4201 210.87 31.0201 212.45 27.5001C214.03 23.9801 215.64 20.5001 217.29 17.1001C218.94 13.7001 220.51 10.6301 222 7.97008C222.482 7.04924 223.166 6.24927 224 5.63008C225.143 4.97031 226.478 4.7265 227.78 4.94008C229.24 5.01008 230.53 5.12008 231.67 5.28008C232.81 5.44008 233.84 5.63008 234.78 5.84008C235.72 6.05008 236.59 6.29008 237.39 6.53008C238.19 6.77008 238.99 7.01008 239.81 7.23008C240.686 7.44539 241.441 7.99915 241.91 8.77008C242.231 9.56187 242.334 10.4249 242.21 11.2701C241.99 13.7901 241.81 16.6834 241.67 19.9501C241.53 23.2101 241.43 26.6201 241.35 30.1601C241.27 33.7001 241.24 37.2701 241.22 40.8401C241.2 44.4101 241.22 47.7101 241.22 50.7601C241.245 50.9972 241.222 51.2369 241.154 51.4652C241.085 51.6935 240.972 51.9059 240.82 52.0901C240.284 52.4058 239.658 52.5359 239.04 52.4601C238.11 52.4601 237.26 52.4601 236.48 52.3801C235.665 52.3214 234.861 52.1532 234.09 51.8801C233.412 51.721 232.791 51.3745 232.3 50.8801C231.885 50.2639 231.637 49.5507 231.58 48.8101C231.44 47.8101 231.32 46.6501 231.21 45.4301C231.1 44.2101 231 42.8601 230.89 41.4301C228.25 41.8001 225.6 42.1701 223 42.5401ZM225.6 33.3601C227.22 33.1801 228.84 33.0401 230.47 32.9301C230.403 30.0234 230.35 27.1234 230.31 24.2301C230.31 21.3401 230.31 18.4701 230.37 15.6401C228.95 18.2267 227.413 21.0901 225.76 24.2301C224.107 27.3701 222.44 30.6268 220.76 34.0001C222.34 33.7501 224 33.5401 225.56 33.3601H225.6Z" fill="white"/>
<path d="M255.21 45.2801L254 51.1301C253.902 51.5777 253.646 51.9752 253.28 52.2501C252.739 52.4399 252.15 52.4399 251.61 52.2501C250.61 52.0001 249.8 51.8101 249.05 51.6701C248.307 51.5242 247.59 51.2716 246.92 50.9201C246.323 50.6066 245.84 50.1133 245.54 49.5101C245.269 48.8069 245.176 48.0477 245.27 47.3001C245.34 46.5601 245.44 45.4701 245.56 44.0601C245.68 42.6501 245.84 41.0601 246.02 39.2401C246.2 37.4201 246.4 35.5201 246.63 33.4601C246.86 31.4001 247.11 29.3501 247.37 27.2901C247.63 25.2301 247.93 23.2401 248.25 21.2901C248.57 19.3401 248.91 17.6201 249.25 16.0801C249.535 14.7738 249.927 13.4929 250.42 12.2501C250.65 11.4942 251.116 10.8319 251.75 10.3601C253.95 9.36008 256.25 8.36008 258.65 7.43008C260.934 6.51987 263.307 5.8496 265.73 5.43008C267.905 5.0255 270.132 4.98831 272.32 5.32008C274.39 5.65293 276.301 6.63317 277.78 8.12008C279.025 9.47076 280.155 10.9224 281.16 12.4601C282.256 14.2036 283.056 16.116 283.53 18.1201C284.032 20.0762 283.845 22.1458 283 23.9801C281.516 26.6899 279.408 29.0072 276.85 30.7401C273.636 32.9948 270.202 34.918 266.6 36.4801C267.42 37.4101 268.32 38.3801 269.29 39.4101C270.26 40.4401 271.29 41.4701 272.29 42.5001C273.29 43.5301 274.34 44.5001 275.35 45.5001C276.36 46.5001 277.35 47.2901 278.2 48.0001C278.9 48.6001 279.2 49.0801 279.15 49.4401C278.992 49.9056 278.673 50.2993 278.25 50.5501C277.781 50.959 277.228 51.2594 276.63 51.4301L275 51.7301C274.158 51.9447 273.284 52.0056 272.42 51.9101C271.251 51.7399 270.134 51.3131 269.15 50.6601C268.33 50.0934 267.39 49.3834 266.33 48.5301C265.27 47.6767 264.17 46.7367 263.03 45.7101C261.89 44.7101 260.76 43.6101 259.62 42.4901C258.531 41.4186 257.5 40.2903 256.53 39.1101C256.07 41.2201 255.62 43.2901 255.21 45.2801ZM260.61 23.2801C260.08 25.3301 259.47 27.5301 258.8 29.8801C261.084 29.141 263.272 28.1339 265.32 26.8801C267.025 25.8385 268.62 24.6255 270.08 23.2601C271.187 22.2554 272.123 21.0766 272.85 19.7701C273.102 19.4012 273.279 18.9859 273.37 18.5482C273.461 18.1105 273.464 17.6591 273.38 17.2201C272.96 16.2201 271.7 15.7301 269.6 15.7301C268.457 15.7405 267.318 15.8645 266.2 16.1001C264.834 16.3927 263.51 16.8563 262.26 17.4801C261.686 19.2667 261.136 21.1901 260.61 23.2501V23.2801Z" fill="white"/>
<path d="M291.24 7.25016C293.135 6.58013 295.086 6.08146 297.07 5.76016C299.152 5.42524 301.263 5.30127 303.37 5.39016C305.497 5.47785 307.597 5.88924 309.6 6.61016C311.637 7.35811 313.52 8.46945 315.16 9.89016C316.983 11.5044 318.45 13.4794 319.47 15.6902C320.482 17.6575 321.113 19.7984 321.33 22.0002C321.576 24.3393 321.445 26.7028 320.94 29.0002C320.378 31.4996 319.473 33.9091 318.25 36.1602C316.904 38.6159 315.221 40.8711 313.25 42.8602C311.092 45.0421 308.654 46.9285 306 48.4702C303.014 50.2193 299.81 51.5644 296.47 52.4702C295.54 52.7839 294.555 52.9041 293.576 52.8233C292.598 52.7424 291.646 52.4623 290.78 52.0002C289.884 51.5587 289.012 51.0679 288.17 50.5302C287.42 50.0502 286.57 49.4602 285.61 48.7502L284.61 47.8202C284.291 47.5266 284.015 47.1901 283.79 46.8202C283.543 46.3762 283.39 45.886 283.34 45.3802C283.264 44.6543 283.281 43.9218 283.39 43.2002L286.47 9.41016C288 8.56396 289.595 7.84165 291.24 7.25016V7.25016ZM300.74 39.8802C302.591 38.3728 304.235 36.6278 305.63 34.6902C306.836 33.0214 307.805 31.1942 308.51 29.2602C309.109 27.6316 309.486 25.9296 309.63 24.2002C309.843 22.48 309.584 20.7342 308.88 19.1502C308.139 17.8594 306.945 16.89 305.53 16.4302C303.609 15.8346 301.541 15.9122 299.67 16.6502C298.43 21.3168 297.33 25.9002 296.37 30.4002C295.42 34.9302 294.49 39.5002 293.61 44.1102C296.18 43.0546 298.582 41.6296 300.74 39.8802V39.8802Z" fill="white"/>
<path d="M36.48 30.1998C37.3075 31.3881 37.8951 32.7265 38.21 34.1398C38.4162 35.53 38.1929 36.95 37.57 38.2098C36.8248 39.487 35.828 40.5994 34.64 41.4798C33.6271 42.3652 32.5322 43.1521 31.37 43.8298C30.0801 44.58 28.7441 45.248 27.37 45.8298C25.9567 46.4298 24.5467 46.9698 23.14 47.4498C21.7334 47.9298 20.4 48.3298 19.14 48.6498C18.571 48.8065 17.9934 48.93 17.41 49.0198C16.9443 49.0977 16.4715 49.1245 16 49.0998C15.5545 49.06 15.115 48.9694 14.69 48.8298C14.1732 48.6462 13.6744 48.4152 13.2 48.1398C12.2309 47.728 11.2977 47.2363 10.41 46.6698C9.61003 46.1598 8.68003 45.4898 7.61003 44.6698C7.22003 44.2398 6.88003 43.8798 6.61003 43.5798C6.31982 43.2857 6.07693 42.9483 5.89002 42.5798C5.70452 42.2194 5.57952 41.8308 5.52003 41.4298C5.44905 40.8821 5.44905 40.3275 5.52003 39.7798C5.62003 37.5798 5.82003 35.0898 6.10003 32.3098C6.38003 29.5298 6.70003 26.6298 7.03003 23.6298C7.36003 20.6298 7.67003 17.6298 7.94003 14.6298C8.21003 11.6298 8.37003 8.71982 8.44003 5.98982C9.94496 5.17165 11.5134 4.47607 13.13 3.90982C14.9504 3.25435 16.8068 2.70345 18.69 2.25982C20.6265 1.80046 22.5906 1.46643 24.57 1.25982C26.4523 1.04939 28.3489 0.995876 30.24 1.09982C31.8977 1.19608 33.537 1.4984 35.12 1.99982C36.4888 2.40775 37.7448 3.12644 38.79 4.09982C39.9944 5.2964 41.0427 6.64038 41.91 8.09982C42.7898 9.655 43.408 11.3442 43.74 13.0998C43.9278 14.091 43.9278 15.1086 43.74 16.0998C43.5347 17.0645 43.1983 17.9965 42.74 18.8698C42.2571 19.7236 41.6729 20.516 41 21.2298C40.324 21.9992 39.5956 22.7209 38.82 23.3898L36.21 25.3298C35.2199 26.0494 34.1693 26.6817 33.07 27.2198C34.4421 27.9063 35.6159 28.9321 36.48 30.1998V30.1998ZM16.15 36.5598C15.84 37.9298 15.57 39.3198 15.32 40.7398C17.0497 40.3188 18.742 39.757 20.38 39.0598C21.7358 38.4979 23.035 37.8081 24.26 36.9998C25.171 36.4168 25.9731 35.679 26.63 34.8198C26.8624 34.5468 27.0328 34.2265 27.1295 33.8813C27.2262 33.536 27.2468 33.1739 27.19 32.8198C26.9458 32.3871 26.5762 32.0385 26.13 31.8198C25.4587 31.5104 24.7372 31.3241 24 31.2698C22.9708 31.1645 21.9324 31.1914 20.91 31.3498C19.5917 31.5442 18.2932 31.8554 17.03 32.2798C16.74 33.7698 16.45 35.1998 16.15 36.5598ZM25.15 20.7798C26.7494 19.8798 28.2654 18.839 29.68 17.6698C30.726 16.8175 31.6305 15.8049 32.36 14.6698C32.8481 14.0305 33.0767 13.2305 33 12.4298C32.8988 12.182 32.7398 11.9619 32.5363 11.788C32.3328 11.614 32.0906 11.4912 31.83 11.4298C31.032 11.1806 30.1931 11.0889 29.36 11.1598C28.1793 11.2468 27.0102 11.4511 25.87 11.7698C24.4083 12.1847 22.9835 12.7199 21.61 13.3698C21.0996 14.9421 20.6756 16.5412 20.34 18.1598C19.98 19.8265 19.5534 21.5998 19.06 23.4798C21.1745 22.7922 23.212 21.8874 25.14 20.7798H25.15Z" fill="#7ADBD4"/>
<path d="M76.2301 9.04992C76.8853 10.3658 77.3436 11.7708 77.5901 13.2199C77.987 16.015 78.0775 18.8451 77.8601 21.6599C77.6367 24.721 77.1108 27.7524 76.2901 30.7099C75.4724 33.6578 74.3287 36.5054 72.8801 39.1999C71.5362 41.7665 69.7409 44.07 67.5801 45.9999C66.2701 47.0552 64.7441 47.8097 63.1101 48.2099C61.3475 48.6 59.5305 48.6812 57.7401 48.4499C56.3462 48.3027 54.961 48.0824 53.5901 47.7899C52.2388 47.5113 50.9307 47.0539 49.7001 46.4299C48.6894 45.9005 47.7431 45.2563 46.8801 44.5099C45.9842 43.7569 45.2437 42.8364 44.7001 41.7999C43.8089 40.0536 43.1628 38.1928 42.7801 36.2699C42.3498 34.1343 42.1553 31.958 42.2001 29.7799C42.303 25.0168 43.3215 20.3181 45.2001 15.9399C46.158 13.7037 47.3443 11.5724 48.7401 9.57992C50.1284 7.58106 51.7648 5.76655 53.6101 4.17992C54.9243 3.18516 56.4134 2.44571 58.0001 1.99992C59.6173 1.50039 61.326 1.37053 63.0001 1.61992C64.9707 1.9271 66.9066 2.42614 68.7801 3.10992C70.416 3.68269 71.9515 4.50949 73.3301 5.55992C74.5303 6.50758 75.5183 7.69653 76.2301 9.04992V9.04992ZM62.2301 11.8099C61.1591 12.8665 60.2282 14.0563 59.4601 15.3499C58.4835 16.9538 57.6213 18.6246 56.8801 20.3499C56.1185 22.0689 55.4705 23.8361 54.9401 25.6399C53.9666 28.9487 53.5343 32.3932 53.6601 35.8399C53.6892 37.2054 53.9426 38.5567 54.4101 39.8399C54.5398 40.2967 54.776 40.7162 55.0993 41.0639C55.4227 41.4116 55.824 41.6775 56.2701 41.8399C56.6697 41.957 57.0919 41.9745 57.4998 41.8909C57.9077 41.8072 58.2889 41.6249 58.6101 41.3599C59.556 40.6275 60.3651 39.7338 61.0001 38.7199C61.9179 37.3569 62.692 35.9025 63.3101 34.3799C64.0761 32.5551 64.7077 30.6768 65.2001 28.7599C65.6929 26.9529 66.067 25.1157 66.3201 23.2599C66.5924 21.3987 66.7361 19.5209 66.7501 17.6399C66.7782 16.1076 66.6067 14.5781 66.2401 13.0899C65.9001 11.8299 65.3801 11.0899 64.6701 10.8799C63.9601 10.6699 63.1301 10.9399 62.2101 11.8099H62.2301Z" fill="#7ADBD4"/>
<path d="M79.5301 37.7302C79.1799 35.8609 79.0124 33.9619 79.0301 32.0602C79.0384 29.8737 79.1786 27.6898 79.4501 25.5202C79.7367 23.2135 80.1101 20.8802 80.5701 18.5202C81.0301 16.1602 81.5534 13.7735 82.1401 11.3602C82.7201 8.9702 83.3401 6.6402 83.9801 4.3602C84.2601 3.3602 84.6801 2.7102 85.2301 2.4902C86.0771 2.30468 86.9615 2.39943 87.7501 2.7602C88.8048 3.08196 89.8289 3.49693 90.8101 4.0002C91.8049 4.511 92.7578 5.0995 93.6601 5.7602C94.5451 6.29089 95.2245 7.10551 95.5877 8.07148C95.9508 9.03745 95.9763 10.0979 95.6601 11.0802C95.0901 12.9302 94.5001 14.9202 93.8801 17.0802C93.2601 19.2402 92.6801 21.4002 92.1501 23.6002C91.6201 25.8002 91.1501 27.9502 90.7901 30.0402C90.4473 31.9047 90.2168 33.7881 90.1001 35.6802C89.9899 37.0693 90.0809 38.4671 90.3701 39.8302C90.4135 40.2787 90.5845 40.7053 90.8627 41.0597C91.1409 41.4141 91.5148 41.6815 91.9401 41.8302C92.8934 42.0835 93.8334 41.6235 94.7601 40.4502C95.8582 38.9566 96.7433 37.3176 97.3901 35.5802C98.3144 33.22 99.1154 30.8135 99.7901 28.3702C100.55 25.6302 101.257 22.8169 101.91 19.9302C102.57 17.0402 103.16 14.1902 103.7 11.3902C104.24 8.5902 104.7 6.0802 105.13 3.8802C105.2 2.8202 105.6 2.1802 106.31 1.9702C107.161 1.75925 108.054 1.78693 108.89 2.0502C110.014 2.35645 111.1 2.78571 112.13 3.3302C113.29 3.9102 114.34 4.4902 115.3 5.0502C115.71 5.30291 116.092 5.59785 116.44 5.9302C116.688 6.16062 116.879 6.4445 117 6.7602C117.11 7.05713 117.148 7.37587 117.11 7.6902C117.07 8.0302 117 8.4302 116.9 8.8902C115.833 13.9569 114.76 18.6235 113.68 22.8902C112.712 26.6499 111.554 30.358 110.21 34.0002C109.199 36.8671 107.882 39.6164 106.28 42.2002C105.11 44.1585 103.483 45.8051 101.54 47.0002C100.358 47.5814 99.1036 48.0018 97.8101 48.2502C96.4064 48.4863 94.9792 48.5501 93.5601 48.4402C90.8193 48.3537 88.1303 47.6712 85.6801 46.4402C84.7886 45.9447 83.9508 45.3582 83.1801 44.6902C82.3763 43.9764 81.7 43.131 81.1801 42.1902C80.3756 40.8105 79.8173 39.3013 79.5301 37.7302V37.7302Z" fill="#7ADBD4"/>
<path d="M130.89 46.7298C128.53 47.1698 126.287 47.6031 124.16 48.0298C123.508 48.2197 122.838 48.3437 122.16 48.3998C121.695 48.4424 121.227 48.4155 120.77 48.3198C120.424 48.2496 120.088 48.1354 119.77 47.9798C119.502 47.8389 119.245 47.6785 119 47.4998C118.425 47.1353 117.874 46.7345 117.35 46.2998C116.85 45.8898 116.2 45.3698 115.35 44.7298C114.779 44.2708 114.31 43.6988 113.97 43.0498C113.639 42.3453 113.544 41.5525 113.7 40.7898C113.81 39.4098 113.98 37.7898 114.23 35.8698C114.48 33.9498 114.78 31.9198 115.14 29.7198C115.5 27.5198 115.88 25.2398 116.31 22.8798C116.74 20.5198 117.19 18.1698 117.69 15.8798C118.19 13.5898 118.69 11.2898 119.21 9.1198C119.73 6.9498 120.21 4.9698 120.72 3.1198C121.08 2.1198 121.53 1.4798 122.08 1.2898C122.906 1.10245 123.77 1.16511 124.56 1.4698C125.77 1.79775 126.959 2.19848 128.12 2.6698C129.297 3.12818 130.423 3.70797 131.48 4.3998C132.184 4.84619 132.776 5.44835 133.21 6.1598C133.431 6.85898 133.381 7.61579 133.07 8.2798C132.357 10.4131 131.64 12.7465 130.92 15.2798C130.2 17.8131 129.47 20.4398 128.73 23.1598C128.01 25.8498 127.31 28.5398 126.66 31.2198C126.01 33.8998 125.39 36.4598 124.82 38.9098C126.45 38.6298 127.98 38.4098 129.4 38.2698C130.82 38.1298 132.4 37.9998 134.03 37.8998C134.788 37.8076 135.557 37.8688 136.29 38.0798C136.891 38.3498 137.387 38.8101 137.7 39.3898C138.096 40.0021 138.431 40.6519 138.7 41.3298C138.953 41.9426 139.157 42.5746 139.31 43.2198C139.534 43.6825 139.601 44.2057 139.5 44.7098C139.37 44.9598 138.76 45.1898 137.66 45.3998L130.89 46.7298Z" fill="#7ADBD4"/>
<path d="M153 3.91003C154.86 3.48337 156.81 3.09337 158.85 2.74003C160.85 2.39003 162.98 2.07003 165.13 1.81003C167.28 1.55003 169.42 1.37003 171.54 1.30003C173.66 1.23003 174.86 2.05004 175.43 3.64004C175.853 4.37167 176.189 5.15031 176.43 5.96003C176.6 6.65003 176.78 7.41004 176.96 8.22004C177.052 8.52825 177.081 8.85184 177.045 9.17145C177.009 9.49105 176.908 9.80008 176.75 10.08C176.173 10.5162 175.473 10.7609 174.75 10.78L168.15 11.52C165.877 11.7734 163.48 12.0767 160.96 12.43C160.427 14.0167 159.93 15.6834 159.47 17.43C159.01 19.1767 158.497 20.9767 157.93 22.83C158.99 22.69 160.06 22.59 161.12 22.51C162.18 22.43 163.32 22.39 164.53 22.35C165.32 22.2947 166.113 22.3863 166.87 22.62C167.489 22.8975 167.989 23.3868 168.28 24C168.689 24.665 169.024 25.3725 169.28 26.11C169.51 26.8 169.72 27.5 169.89 28.21C170.06 28.92 170.2 29.58 169.97 29.86C169.443 30.2752 168.808 30.5319 168.14 30.6C166.01 30.99 163.84 31.37 161.62 31.72C159.4 32.07 157.26 32.47 155.21 32.89C154.92 34.03 154.65 35.1 154.41 36.11C154.17 37.12 153.89 38.11 153.61 39.11C155.28 38.83 156.86 38.6 158.37 38.42C159.88 38.24 161.52 38.1 163.29 37.99C164.07 37.8972 164.86 37.9688 165.61 38.2C166.196 38.4606 166.683 38.9022 167 39.46C167.392 40.0961 167.726 40.7653 168 41.46C168.22 42.08 168.48 42.71 168.77 43.35C168.949 43.8202 168.949 44.3399 168.77 44.81C168.59 45.08 168.02 45.3 167.06 45.48C164.79 45.9 162.49 46.35 160.14 46.81C157.79 47.27 155.57 47.69 153.44 48.08C152.402 48.419 151.297 48.5013 150.22 48.32C149.549 48.1526 148.911 47.8755 148.33 47.5C147.73 47.11 147.15 46.71 146.6 46.3C146.05 45.89 145.4 45.37 144.66 44.73C144.069 44.261 143.585 43.6712 143.24 43C142.887 42.2384 142.748 41.3946 142.84 40.56L147.84 5.16003C149.42 4.74003 151.11 4.34003 153 3.91003Z" fill="#7ADBD4"/>
<path d="M211.71 14.82C210.89 16.88 209.983 19.07 208.99 21.39C207.99 23.72 206.99 26.1 205.85 28.55C204.71 31 203.65 33.38 202.55 35.68C201.45 37.98 200.4 40.15 199.41 42.18C198.42 44.21 197.53 45.94 196.75 47.39C196.376 48.1171 195.756 48.6877 195 49C194.049 49.2212 193.055 49.1727 192.13 48.86C190.89 48.51 189.74 48.15 188.67 47.8C187.525 47.4074 186.406 46.9431 185.32 46.41C184.117 45.8936 183.079 45.0565 182.32 43.99C181.71 43.1446 181.25 42.2009 180.96 41.2C179.72 36.34 178.613 30.8667 177.64 24.78C176.667 18.6934 175.787 12.02 175 4.76003C174.894 4.08399 174.977 3.39181 175.24 2.76003C175.47 2.37003 176.12 2.17003 177.19 2.17003C178.141 2.1678 179.091 2.24137 180.03 2.39003C180.97 2.55264 181.89 2.82101 182.77 3.19003C183.821 3.49407 184.76 4.09932 185.471 4.93104C186.182 5.76275 186.633 6.78449 186.77 7.87003C186.977 9.61003 187.213 11.58 187.48 13.78C187.75 15.98 188.02 18.3 188.31 20.78C188.6 23.26 188.9 25.78 189.24 28.42C189.58 31.06 189.94 33.68 190.33 36.27C192.67 31.1234 194.95 25.6934 197.17 19.98C199.39 14.2667 201.617 8.60003 203.85 2.98003C204.059 2.41161 204.468 1.93877 205 1.65003C205.488 1.41582 206.037 1.3423 206.57 1.44003C207.214 1.54322 207.841 1.73855 208.43 2.02003C209.119 2.34092 209.787 2.70498 210.43 3.11003C211.089 3.4732 211.727 3.87386 212.34 4.31003C212.866 4.67408 213.318 5.13577 213.67 5.67003C213.99 6.16178 214.167 6.73326 214.18 7.32003C214.167 8.03394 214.011 8.73798 213.72 9.39003C213.18 11 212.52 12.76 211.71 14.82Z" fill="#7ADBD4"/>
<path d="M227.86 38.6402C225.502 38.9536 223.165 39.4044 220.86 39.9902C220.15 41.3802 219.53 42.6602 219 43.8502C218.47 45.0402 217.95 46.2002 217.45 47.3402C217.37 47.579 217.24 47.7976 217.067 47.9807C216.894 48.1637 216.684 48.3069 216.45 48.4002C215.824 48.484 215.188 48.3941 214.61 48.1402C214.15 47.9602 213.61 47.7602 213.09 47.5202C212.57 47.2802 211.98 47.0402 211.42 46.7502L210.27 46.0002C209.968 45.8255 209.711 45.5823 209.52 45.2902C209.336 44.9561 209.236 44.5818 209.23 44.2002C209.235 43.5923 209.333 42.9888 209.52 42.4102C210.38 39.9602 211.52 37.0902 212.85 33.7902C214.18 30.4902 215.69 27.0802 217.27 23.5702C218.85 20.0602 220.46 16.5702 222.11 13.1702C223.76 9.77024 225.33 6.70024 226.82 4.04024C227.322 3.1095 228.035 2.30839 228.9 1.70024C230.036 1.03216 231.37 0.784398 232.67 1.00024C234.13 1.07024 235.42 1.18024 236.56 1.34024C237.7 1.50024 238.73 1.69024 239.67 1.90024C240.61 2.11024 241.48 2.35024 242.28 2.59024C243.08 2.83024 243.89 3.07024 244.7 3.28024C245.576 3.50294 246.329 4.05923 246.8 4.83024C247.125 5.62078 247.229 6.48513 247.1 7.33024C246.88 9.85024 246.71 12.7402 246.57 16.0002C246.43 19.2602 246.32 22.6802 246.25 26.2202C246.18 29.7602 246.13 33.3302 246.11 36.8902C246.09 40.4502 246.11 43.7702 246.11 46.8202C246.137 47.0575 246.115 47.2977 246.047 47.5264C245.978 47.755 245.863 47.9673 245.71 48.1502C245.173 48.466 244.548 48.596 243.93 48.5202C243 48.5202 242.15 48.5202 241.37 48.4402C240.564 48.3992 239.767 48.2512 239 48.0002C238.322 47.8387 237.703 47.4925 237.21 47.0002C236.794 46.3818 236.549 45.6641 236.5 44.9202C236.35 43.9202 236.23 42.7702 236.12 41.5402C236.01 40.3102 235.91 38.9802 235.8 37.5402C233.147 37.9002 230.5 38.2669 227.86 38.6402ZM230.47 29.4602C232.08 29.2802 233.7 29.1402 235.34 29.0302C235.26 26.1169 235.207 23.2169 235.18 20.3302C235.153 17.4436 235.153 14.5769 235.18 11.7302C233.76 14.3236 232.227 17.1902 230.58 20.3302C228.933 23.4702 227.267 26.7269 225.58 30.1002C227.25 29.8502 228.85 29.6302 230.47 29.4602V29.4602Z" fill="#7ADBD4"/>
<path d="M260.11 41.3802L258.91 47.2302C258.812 47.6778 258.556 48.0753 258.19 48.3502C257.649 48.54 257.06 48.54 256.52 48.3502C255.52 48.1002 254.71 47.9102 253.96 47.7602C253.218 47.6178 252.5 47.3686 251.83 47.0202C251.233 46.7067 250.75 46.2134 250.45 45.6102C250.179 44.907 250.086 44.1478 250.18 43.4002C250.25 42.6602 250.35 41.5702 250.48 40.1502C250.61 38.7302 250.75 37.1502 250.93 35.3402C251.11 33.5302 251.31 31.6202 251.54 29.5602C251.77 27.5002 252.02 25.4502 252.29 23.3902C252.56 21.3302 252.84 19.3402 253.16 17.3902C253.48 15.4402 253.82 13.7202 254.16 12.1802C254.445 10.8694 254.84 9.58495 255.34 8.34017C255.569 7.5837 256.035 6.92101 256.67 6.45017C258.87 5.45017 261.16 4.45017 263.56 3.53017C265.844 2.61996 268.217 1.9497 270.64 1.53017C272.818 1.12559 275.049 1.08841 277.24 1.42017C279.306 1.75568 281.214 2.73569 282.69 4.22017C283.932 5.56936 285.063 7.01748 286.07 8.55017C287.164 10.2983 287.964 12.2136 288.44 14.2202C288.942 16.1763 288.755 18.2459 287.91 20.0802C286.427 22.7904 284.318 25.1079 281.76 26.8402C278.546 29.0949 275.112 31.0181 271.51 32.5802C272.33 33.5102 273.23 34.4802 274.2 35.5102C275.17 36.5402 276.2 37.5702 277.2 38.6002C278.2 39.6302 279.2 40.6002 280.26 41.6002C281.32 42.6002 282.26 43.3902 283.11 44.1002C283.817 44.7002 284.15 45.1802 284.11 45.5402C283.944 46.0043 283.623 46.3966 283.2 46.6502C282.731 47.059 282.178 47.3595 281.58 47.5302C281.13 47.6202 280.58 47.7202 279.95 47.8202C279.109 48.0433 278.234 48.1077 277.37 48.0102C276.201 47.84 275.084 47.4131 274.1 46.7602C273.28 46.1868 272.34 45.4768 271.28 44.6302C270.22 43.7835 269.127 42.8235 268 41.7502C266.86 40.7502 265.73 39.6502 264.59 38.5302C263.502 37.4612 262.473 36.3328 261.51 35.1502C261 37.3202 260.52 39.3902 260.11 41.3802ZM265.51 19.3802C264.983 21.4402 264.38 23.6402 263.7 25.9802C265.986 25.2453 268.175 24.2381 270.22 22.9802C271.934 21.9271 273.536 20.7006 275 19.3202C276.105 18.3134 277.04 17.1349 277.77 15.8302C278.022 15.4613 278.199 15.046 278.29 14.6083C278.381 14.1706 278.385 13.7191 278.3 13.2802C277.88 12.2802 276.62 11.7902 274.52 11.7902C273.377 11.8012 272.238 11.9251 271.12 12.1602C269.754 12.4527 268.43 12.9164 267.18 13.5402C266.59 15.3502 266 17.2902 265.51 19.3402V19.3802Z" fill="#7ADBD4"/>
<path d="M296.14 3.34985C298.045 2.67932 300.006 2.18066 302 1.85985C304.082 1.51993 306.193 1.39594 308.3 1.48985C310.427 1.5766 312.528 1.98802 314.53 2.70985C316.557 3.46407 318.43 4.57868 320.06 5.99985C321.888 7.60926 323.356 9.58545 324.37 11.7998C325.382 13.7574 326.016 15.8878 326.24 18.0798C326.478 20.4197 326.343 22.7823 325.84 25.0798C325.284 27.5779 324.378 29.9849 323.15 32.2298C321.806 34.6901 320.123 36.949 318.15 38.9398C315.985 41.1272 313.545 43.0231 310.89 44.5798C307.904 46.329 304.7 47.6741 301.36 48.5798C300.429 48.8939 299.444 49.0133 298.465 48.9307C297.486 48.8482 296.535 48.5653 295.67 48.0998C294.772 47.6654 293.9 47.1778 293.06 46.6398C292.31 46.1598 291.46 45.5698 290.5 44.8598L289.5 43.9298C289.184 43.6343 288.908 43.298 288.68 42.9298C288.433 42.4858 288.279 41.9957 288.23 41.4898C288.159 40.7638 288.176 40.0319 288.28 39.3098L291.37 5.50985C292.901 4.6655 294.496 3.94326 296.14 3.34985V3.34985ZM305.64 35.9998C307.494 34.4926 309.142 32.7476 310.54 30.8098C311.739 29.1386 312.704 27.3118 313.41 25.3798C314.008 23.751 314.385 22.0491 314.53 20.3198C314.743 18.5996 314.484 16.8539 313.78 15.2698C313.039 13.9791 311.845 13.0097 310.43 12.5498C308.512 11.955 306.45 12.0291 304.58 12.7598C303.333 17.4265 302.233 22.0132 301.28 26.5198C300.327 31.0265 299.403 35.5965 298.51 40.2298C301.081 39.1766 303.483 37.7514 305.64 35.9998V35.9998Z" fill="#7ADBD4"/>
</svg>
