<svg viewBox="0 0 915 65" fill="none" xmlns="http://www.w3.org/2000/svg">
<path d="M38.6484 50.8676C38.6423 52.0914 38.2961 53.2893 37.6484 54.3276C36.8451 55.9307 35.8145 57.4093 34.5884 58.7176C33.4586 59.9486 32.2091 61.0641 30.8584 62.0476C30.1505 62.4904 29.4041 62.8686 28.6284 63.1776C27.743 63.5397 26.8301 63.8306 25.8984 64.0476C24.9109 64.2754 23.9083 64.4324 22.8984 64.5176C21.9003 64.6044 20.8965 64.6044 19.8984 64.5176C17.9797 64.4023 16.0805 64.0668 14.2384 63.5176C12.5518 63.0043 11.0418 62.5276 9.70843 62.0876C8.40123 61.5626 7.17294 60.8592 6.05843 59.9976C4.90522 59.121 3.95092 58.0099 3.25843 56.7376C2.04593 54.6581 1.22566 52.3735 0.838428 49.9976C0.363194 47.2515 0.195492 44.4609 0.338428 41.6776C0.489223 38.604 0.924415 35.551 1.63843 32.5576C2.36395 29.4244 3.36794 26.3622 4.63843 23.4076C5.91903 20.4636 7.47601 17.6476 9.28843 14.9976C11.0269 12.405 13.0979 10.0516 15.4484 7.99764C17.0688 6.53222 19.0058 5.46102 21.1084 4.86764C22.8636 4.39529 24.6848 4.21622 26.4984 4.33764C27.7997 4.48185 29.0894 4.71574 30.3584 5.03764C31.6668 5.36419 32.9555 5.76483 34.2184 6.23764C35.4209 6.68598 36.5991 7.19667 37.7484 7.76764C38.779 8.27862 39.7805 8.84615 40.7484 9.46764C41.5133 10.0996 42.2164 10.8028 42.8484 11.5676C43.3742 12.2119 43.8207 12.9169 44.1784 13.6676C44.5112 14.376 44.7467 15.1261 44.8784 15.8976C45.0178 16.7249 45.108 17.5597 45.1484 18.3976C45.2033 19.4636 45.2033 20.5317 45.1484 21.5976C45.0818 22.7043 44.9818 23.801 44.8484 24.8876C44.7151 25.9743 44.5218 27.011 44.2684 27.9976C44.0712 28.9095 43.8275 29.8106 43.5384 30.6976C43.4051 31.051 43.2718 31.3843 43.1384 31.6976C43.0187 31.9885 42.8216 32.241 42.5684 32.4276C42.2687 32.6212 41.9245 32.7348 41.5684 32.7576C40.9653 32.7931 40.3602 32.7494 39.7684 32.6276C38.5086 32.4096 37.2797 32.0403 36.1084 31.5276C35.1768 31.1223 34.3212 30.5609 33.5784 29.8676C32.9213 29.2259 32.386 28.4703 31.9984 27.6376C31.5707 26.7072 31.2778 25.7207 31.1284 24.7076C31.0002 23.8468 30.9333 22.978 30.9284 22.1076C30.979 20.8176 30.9121 19.5256 30.7284 18.2476C30.6907 17.7574 30.5174 17.2873 30.2277 16.8899C29.9381 16.4925 29.5436 16.1836 29.0884 15.9976C28.2018 15.731 27.1584 16.241 25.9584 17.5276C24.5717 19.0656 23.3454 20.741 22.2984 22.5276C20.9894 24.7234 19.8236 27.0015 18.8084 29.3476C17.8079 31.5972 16.9528 33.9086 16.2484 36.2676C15.6781 38.4452 15.244 40.6561 14.9484 42.8876C14.6685 44.8746 14.5681 46.8827 14.6484 48.8876C14.6904 50.4446 14.9842 51.9846 15.5184 53.4476C15.6685 53.9664 15.9399 54.442 16.3103 54.835C16.6807 55.228 17.1394 55.5272 17.6484 55.7076C19.4218 56.2876 22.1284 54.711 25.7684 50.9776C28.3884 48.311 31.8051 47.5776 36.0184 48.7776C37.7051 49.2376 38.5818 49.9343 38.6484 50.8676Z" fill="white"/>
<path d="M86.8979 14.5574C87.7152 16.2091 88.2879 17.9709 88.5979 19.7874C89.0939 23.2814 89.2045 26.8193 88.9279 30.3374C88.6441 34.1685 87.974 37.961 86.9279 41.6574C85.9103 45.3459 84.4813 48.9082 82.6679 52.2774C80.981 55.4652 78.7393 58.3266 76.0479 60.7274C74.4042 62.0378 72.4977 62.9791 70.4579 63.4874C68.2509 63.9661 65.9788 64.0675 63.7379 63.7874C62.0055 63.6131 60.2832 63.3494 58.5779 62.9974C56.8891 62.6508 55.2545 62.079 53.7179 61.2974C52.4548 60.6326 51.2707 59.8275 50.1879 58.8974C49.0741 57.9714 48.1475 56.8412 47.4579 55.5674C46.341 53.3832 45.5332 51.0542 45.0579 48.6474C44.5176 45.9757 44.2728 43.2527 44.3279 40.5274C44.4465 34.5712 45.713 28.6939 48.0579 23.2174C49.2545 20.405 50.739 17.724 52.4879 15.2174C54.2296 12.7201 56.2753 10.4493 58.5779 8.45742C60.2419 7.20397 62.1286 6.27759 64.1379 5.72742C66.1311 5.11633 68.2351 4.95579 70.2979 5.25742C72.7598 5.63881 75.1782 6.26182 77.5179 7.11742C79.5642 7.83073 81.4846 8.86351 83.2079 10.1774C84.7307 11.3633 85.9877 12.8554 86.8979 14.5574ZM69.3679 17.9974C68.0293 19.3196 66.8664 20.8084 65.9079 22.4274C64.685 24.4215 63.6056 26.5 62.6779 28.6474C61.727 30.7998 60.9153 33.011 60.2479 35.2674C59.6197 37.3887 59.1747 39.56 58.9179 41.7574C58.6579 43.8266 58.5676 45.9135 58.6479 47.9974C58.6852 49.7034 58.9993 51.3921 59.5779 52.9974C59.7407 53.5723 60.0364 54.1008 60.4412 54.5403C60.8459 54.9798 61.3484 55.3179 61.9079 55.5274C62.4082 55.6736 62.9367 55.6954 63.4473 55.5908C63.958 55.4862 64.4353 55.2585 64.8379 54.9274C66.0398 54.027 67.0753 52.9238 67.8979 51.6674C69.0486 49.9654 70.0204 48.1491 70.7979 46.2474C71.749 43.9728 72.5376 41.6336 73.1579 39.2474C73.7715 36.9831 74.2391 34.6817 74.5579 32.3574C74.8973 30.0393 75.0744 27.7002 75.0879 25.3574C75.1234 23.4416 74.9116 21.5291 74.4579 19.6674C74.0379 18.0941 73.3712 17.1741 72.4579 16.9074C71.5446 16.6408 70.5146 17.0041 69.3679 17.9974Z" fill="white"/>
<path d="M122.778 23.8375C124.111 18.2042 125.408 13.0108 126.668 8.2575C126.742 7.76064 126.927 7.28681 127.209 6.87128C127.491 6.45575 127.863 6.10923 128.298 5.8575C129.356 5.54611 130.484 5.57056 131.528 5.9275L133.328 6.3975C133.862 6.53126 134.383 6.70852 134.888 6.9275C135.395 7.1475 135.938 7.41417 136.518 7.7275C137.098 8.04083 137.765 8.44084 138.518 8.9275C139.023 9.16678 139.474 9.50526 139.845 9.92275C140.216 10.3402 140.499 10.8282 140.678 11.3575C140.823 12.367 140.72 13.3967 140.378 14.3575C139.358 17.6442 138.291 21.3708 137.178 25.5375C136.065 29.7042 134.971 33.9308 133.898 38.2175C132.811 42.5242 131.768 46.7275 130.768 50.8275C129.768 54.9275 128.915 58.5342 128.208 61.6475C127.941 63.3342 126.608 63.9108 124.208 63.3775C122.098 62.9535 120.023 62.3752 117.998 61.6475C117.066 61.3112 116.215 60.7807 115.503 60.0911C114.791 59.4015 114.234 58.5686 113.868 57.6475C113.248 56.2742 112.615 54.6775 111.968 52.8575C111.321 51.0375 110.665 49.0842 109.998 46.9975C109.331 44.8908 108.665 42.6942 107.998 40.4075C107.331 38.1208 106.711 35.8242 106.138 33.5175C105.651 36.2708 105.151 39.0208 104.638 41.7675L103.178 49.6575C102.711 52.1642 102.291 54.4975 101.918 56.6575C101.545 58.8175 101.245 60.6908 101.018 62.2775C100.985 62.5646 100.89 62.841 100.74 63.0879C100.59 63.3348 100.388 63.5461 100.148 63.7075C99.3724 63.8942 98.5581 63.8348 97.8179 63.5375L94.5879 62.7075C93.4744 62.4091 92.4101 61.951 91.4279 61.3475C90.5975 61.0078 89.8969 60.4124 89.4279 59.6475C89.0615 58.7979 88.9335 57.8644 89.0579 56.9475C89.1446 55.7475 89.2879 54.0375 89.4879 51.8175C89.6879 49.5975 89.9546 47.0808 90.2879 44.2675C90.6212 41.4475 90.9979 38.4308 91.4179 35.2175C91.8379 32.0042 92.2946 28.7975 92.7879 25.5975C93.2746 22.4042 93.7746 19.3208 94.2879 16.3475C94.8012 13.3742 95.3012 10.7342 95.7879 8.4275C95.8433 7.90806 96.0231 7.40962 96.3121 6.97443C96.6011 6.53924 96.9907 6.18012 97.4479 5.9275C98.5069 5.58088 99.6489 5.58088 100.708 5.9275C102.348 6.41417 103.945 6.90083 105.498 7.3875C107.16 7.91904 108.784 8.56388 110.358 9.3175C111.525 9.73562 112.543 10.4866 113.288 11.4775C113.97 12.6524 114.399 13.957 114.548 15.3075C114.768 16.5942 115.058 18.2375 115.418 20.2375C115.778 22.2375 116.178 24.4008 116.618 26.7275C117.065 29.0542 117.531 31.4508 118.018 33.9175C118.505 36.3842 118.995 38.7442 119.488 40.9975C120.375 35.1975 121.471 29.4775 122.778 23.8375Z" fill="white"/>
<path d="M177.199 16.6203L170.879 17.2503L167.999 28.8403C166.999 32.8403 166.033 36.8003 165.099 40.7203C164.166 44.6403 163.283 48.467 162.449 52.2003C161.629 55.927 160.909 59.4103 160.289 62.6503C160.282 62.8893 160.222 63.1236 160.113 63.3364C160.004 63.5491 159.849 63.7349 159.659 63.8803C159.241 64.0989 158.769 64.1926 158.299 64.1503C157.62 64.1087 156.949 63.9844 156.299 63.7803L153.769 63.0503C152.91 62.808 152.066 62.5175 151.239 62.1803C150.549 61.9101 149.907 61.5284 149.339 61.0503C148.846 60.6327 148.467 60.0957 148.239 59.4903C148.011 58.7916 147.987 58.0424 148.169 57.3303C148.303 55.197 148.569 52.5803 148.969 49.4803C149.369 46.3803 149.846 43.097 150.399 39.6303C150.953 36.1703 151.563 32.677 152.229 29.1503C152.896 25.6237 153.563 22.3503 154.229 19.3303C152.943 19.5503 151.699 19.7403 150.499 19.9003C149.487 20.0212 148.485 20.2116 147.499 20.4703C146.612 20.7314 145.673 20.7658 144.769 20.5703C143.836 20.2201 143.009 19.6345 142.369 18.8703C141.353 17.8211 140.491 16.6325 139.809 15.3403C139.036 13.9203 138.403 12.7237 137.909 11.7503C137.416 10.777 137.283 10.1103 137.509 9.75033C137.968 9.31526 138.546 9.02636 139.169 8.92033C141.789 8.387 144.753 7.90033 148.059 7.46033C151.366 7.02033 154.739 6.62033 158.179 6.26033C161.619 5.907 164.993 5.607 168.299 5.36033C171.606 5.11366 174.569 4.947 177.189 4.86033C178.203 4.80515 179.219 4.93043 180.189 5.23033C180.81 5.49349 181.349 5.91823 181.749 6.46033C182.628 7.46738 183.368 8.58729 183.949 9.79033C184.501 10.9234 184.946 12.1051 185.279 13.3203C185.545 13.9952 185.545 14.7455 185.279 15.4203C185.033 15.8003 184.223 16.0337 182.849 16.1203L177.199 16.6203Z" fill="white"/>
<path d="M202.12 51.5694C199.173 51.9662 196.251 52.5338 193.37 53.2694C192.457 54.996 191.667 56.6027 191 58.0894C190.333 59.576 189.69 61.0294 189.07 62.4494C188.964 62.7529 188.793 63.0294 188.568 63.2592C188.344 63.4891 188.071 63.6667 187.77 63.7794C186.988 63.882 186.192 63.7678 185.47 63.4494C184.89 63.2294 184.257 62.9727 183.57 62.6794C182.883 62.386 182.183 62.0527 181.47 61.6794C180.937 61.326 180.47 61.026 180.07 60.7794C179.669 60.5561 179.335 60.2279 179.106 59.8297C178.877 59.4316 178.761 58.9786 178.77 58.5194C178.78 57.7616 178.905 57.0097 179.14 56.2894C180.207 53.2294 181.593 49.636 183.3 45.5094C185.007 41.3827 186.847 37.1227 188.82 32.7294C190.82 28.336 192.84 24.0027 194.88 19.7294C196.92 15.456 198.883 11.6494 200.77 8.30936C201.404 7.14835 202.293 6.14646 203.37 5.37936C204.797 4.54713 206.47 4.23942 208.1 4.50936C209.92 4.59602 211.54 4.73936 212.96 4.93936C214.38 5.13936 215.677 5.37269 216.85 5.63936C218.023 5.90603 219.11 6.19602 220.11 6.50936C221.11 6.82269 222.11 7.11269 223.11 7.37936C224.206 7.65227 225.151 8.34555 225.74 9.30936C226.144 10.3001 226.272 11.3818 226.11 12.4394C225.843 15.5927 225.62 19.2094 225.44 23.2894C225.26 27.3694 225.127 31.6294 225.04 36.0694C225.013 40.5227 225 44.9794 225 49.4394C225 53.8994 225 58.036 225 61.8494C225.032 62.1454 225.004 62.4448 224.918 62.7299C224.832 63.015 224.69 63.2801 224.5 63.5094C223.829 63.9069 223.045 64.072 222.27 63.9794C221.117 63.9794 220.05 63.946 219.07 63.8794C218.046 63.8043 217.037 63.5924 216.07 63.2494C215.229 63.0649 214.457 62.6493 213.84 62.0494C213.311 61.2797 213 60.3813 212.94 59.4494C212.76 58.1627 212.603 56.7527 212.47 55.2194C212.337 53.686 212.203 52.0194 212.07 50.2194C208.743 50.6527 205.427 51.1027 202.12 51.5694ZM205.38 40.0894C207.38 39.8694 209.41 39.6927 211.47 39.5594C211.383 35.9194 211.317 32.2927 211.27 28.6794C211.223 25.066 211.247 21.4827 211.34 17.9294C209.567 21.1694 207.647 24.7527 205.58 28.6794C203.513 32.606 201.44 36.676 199.36 40.8894C201.36 40.576 203.37 40.3094 205.39 40.0894H205.38Z" fill="white"/>
<path d="M266.289 50.8676C266.283 52.0914 265.937 53.2893 265.289 54.3276C264.486 55.9307 263.455 57.4093 262.229 58.7176C261.099 59.9486 259.85 61.0641 258.499 62.0476C257.791 62.4904 257.045 62.8686 256.269 63.1776C255.384 63.5397 254.471 63.8306 253.539 64.0476C252.552 64.2754 251.549 64.4324 250.539 64.5176C249.541 64.6044 248.537 64.6044 247.539 64.5176C245.62 64.4023 243.721 64.0668 241.879 63.5176C240.192 63.0043 238.682 62.5276 237.349 62.0876C236.045 61.5617 234.82 60.8584 233.709 59.9976C232.556 59.121 231.602 58.0099 230.909 56.7376C229.693 54.6588 228.869 52.3742 228.479 49.9976C228.004 47.2515 227.836 44.4609 227.979 41.6776C228.13 38.604 228.565 35.551 229.279 32.5576C230.005 29.4244 231.009 26.3622 232.279 23.4076C233.563 20.4632 235.123 17.6472 236.939 14.9976C238.678 12.405 240.749 10.0516 243.099 7.99764C244.719 6.53222 246.656 5.46102 248.759 4.86764C250.514 4.39529 252.335 4.21622 254.149 4.33764C255.446 4.46914 256.732 4.68966 257.999 4.99764C259.307 5.32419 260.596 5.72483 261.859 6.19764C263.061 6.64598 264.24 7.15667 265.389 7.72764C266.42 8.23862 267.421 8.80616 268.389 9.42764C269.154 10.0596 269.857 10.7628 270.489 11.5276C271.015 12.1719 271.461 12.8769 271.819 13.6276C272.152 14.336 272.387 15.0861 272.519 15.8576C272.658 16.6849 272.749 17.5197 272.789 18.3576C272.844 19.4236 272.844 20.4917 272.789 21.5576C272.722 22.6643 272.622 23.761 272.489 24.8476C272.356 25.9343 272.166 26.9843 271.919 27.9976C271.722 28.9095 271.478 29.8106 271.189 30.6976C271.056 31.051 270.922 31.3843 270.789 31.6976C270.669 31.9885 270.472 32.241 270.219 32.4276C269.919 32.6212 269.575 32.7348 269.219 32.7576C268.616 32.7931 268.011 32.7494 267.419 32.6276C266.159 32.4096 264.93 32.0403 263.759 31.5276C262.827 31.1223 261.972 30.5609 261.229 29.8676C260.565 29.2276 260.023 28.4719 259.629 27.6376C259.201 26.7072 258.908 25.7207 258.759 24.7076C258.631 23.8468 258.564 22.978 258.559 22.1076C258.61 20.8176 258.543 19.5256 258.359 18.2476C258.327 17.76 258.16 17.2909 257.878 16.892C257.595 16.4932 257.208 16.1802 256.759 15.9876C255.872 15.721 254.829 16.231 253.629 17.5176C252.242 19.0556 251.016 20.731 249.969 22.5176C248.66 24.7134 247.494 26.9915 246.479 29.3376C245.479 31.5872 244.623 33.8986 243.919 36.2576C243.349 38.4352 242.915 40.6461 242.619 42.8776C242.339 44.8646 242.239 46.8727 242.319 48.8776C242.361 50.4346 242.655 51.9746 243.189 53.4376C243.339 53.9564 243.611 54.432 243.981 54.825C244.351 55.2181 244.81 55.5172 245.319 55.6976C247.092 56.2776 249.799 54.701 253.439 50.9676C256.059 48.301 259.476 47.5676 263.689 48.7676C265.356 49.2343 266.222 49.9343 266.289 50.8676Z" fill="white"/>
<path d="M311.919 16.6186L305.599 17.2486L302.699 28.8286C301.699 32.8286 300.732 36.7886 299.799 40.7086C298.866 44.6286 297.992 48.4586 297.179 52.1986C296.359 55.9253 295.639 59.4086 295.019 62.6486C295.012 62.8875 294.952 63.1219 294.843 63.3346C294.734 63.5474 294.579 63.7332 294.389 63.8786C293.971 64.0971 293.499 64.1909 293.029 64.1486C292.35 64.1069 291.678 63.9827 291.029 63.7786L288.499 63.0486C287.64 62.8063 286.795 62.5158 285.969 62.1786C285.278 61.9084 284.636 61.5267 284.069 61.0486C283.575 60.631 283.196 60.0939 282.969 59.4886C282.741 58.7899 282.717 58.0407 282.899 57.3286C283.032 55.1953 283.299 52.5786 283.699 49.4786C284.099 46.3786 284.576 43.0953 285.129 39.6286C285.709 36.1619 286.332 32.6653 286.999 29.1386C287.666 25.6119 288.332 22.3386 288.999 19.3186C287.712 19.5386 286.469 19.7286 285.269 19.8886C284.257 20.0095 283.255 20.1999 282.269 20.4586C281.382 20.7197 280.443 20.7541 279.539 20.5586C278.606 20.2084 277.779 19.6227 277.139 18.8586C276.122 17.8094 275.26 16.6208 274.579 15.3286C273.806 13.9086 273.172 12.7119 272.679 11.7386C272.186 10.7653 272.052 10.0986 272.279 9.73861C272.738 9.30354 273.316 9.01464 273.939 8.90861C276.559 8.37528 279.522 7.88861 282.829 7.44861C286.136 7.00861 289.509 6.60861 292.949 6.24861C296.389 5.89528 299.762 5.59528 303.069 5.34861C306.376 5.10194 309.339 4.93528 311.959 4.84861C312.973 4.79344 313.989 4.91871 314.959 5.21861C315.58 5.48177 316.118 5.90652 316.519 6.44861C317.397 7.45566 318.137 8.57557 318.719 9.77861C319.25 10.8973 319.679 12.0621 319.999 13.2586C320.264 13.9335 320.264 14.6837 319.999 15.3586C319.752 15.7386 318.942 15.9719 317.569 16.0586L311.919 16.6186Z" fill="white"/>
<path d="M336.85 51.5711C333.902 51.9679 330.981 52.5356 328.1 53.2711C327.213 55.0044 326.436 56.6144 325.77 58.1011C325.103 59.5877 324.46 61.0411 323.84 62.4611C323.734 62.7646 323.562 63.0411 323.338 63.2709C323.113 63.5008 322.841 63.6784 322.54 63.7911C321.757 63.8937 320.962 63.7796 320.24 63.4611C319.66 63.2411 319.026 62.9844 318.34 62.6911C317.653 62.3977 316.953 62.0644 316.24 61.6911C315.706 61.3377 315.24 61.0377 314.84 60.7911C314.438 60.5679 314.105 60.2396 313.876 59.8414C313.647 59.4433 313.531 58.9903 313.54 58.5311C313.549 57.7733 313.674 57.0214 313.91 56.3011C314.976 53.2411 316.363 49.6477 318.07 45.5211C319.776 41.3944 321.616 37.1344 323.59 32.7411C325.59 28.3477 327.61 24.0144 329.65 19.7411C331.69 15.4677 333.653 11.6611 335.54 8.32108C336.173 7.16007 337.062 6.15818 338.14 5.39108C339.567 4.55885 341.24 4.25114 342.87 4.52108C344.69 4.60774 346.31 4.75108 347.73 4.95108C349.15 5.15108 350.446 5.38441 351.62 5.65108C352.793 5.91774 353.88 6.20774 354.88 6.52108C355.88 6.83441 356.88 7.12441 357.88 7.39108C358.976 7.66399 359.92 8.35727 360.51 9.32108C360.913 10.3118 361.041 11.3935 360.88 12.4511C360.613 15.6044 360.39 19.2211 360.21 23.3011C360.03 27.3811 359.896 31.6411 359.81 36.0811C359.723 40.5211 359.666 44.9711 359.64 49.4311C359.613 53.8911 359.613 58.0277 359.64 61.8411C359.671 62.1371 359.643 62.4366 359.557 62.7217C359.472 63.0068 359.329 63.2718 359.14 63.5011C358.497 63.8899 357.748 64.065 357 64.0011C355.846 64.0011 354.78 63.9677 353.8 63.9011C352.776 63.826 351.767 63.6141 350.8 63.2711C349.959 63.0866 349.187 62.671 348.57 62.0711C348.041 61.3014 347.73 60.403 347.67 59.4711C347.49 58.1844 347.333 56.7744 347.2 55.2411C347.066 53.7077 346.933 52.0411 346.8 50.2411C343.473 50.6611 340.156 51.1044 336.85 51.5711ZM340.11 40.0911C342.11 39.8711 344.14 39.6944 346.2 39.5611C346.113 35.9211 346.046 32.2944 346 28.6811C345.953 25.0677 345.976 21.4844 346.07 17.9311C344.296 21.1711 342.376 24.7544 340.31 28.6811C338.243 32.6077 336.17 36.6777 334.09 40.8911C336.083 40.5777 338.09 40.3111 340.11 40.0911Z" fill="white"/>
<path d="M424.997 50.8676C424.991 52.0914 424.645 53.2893 423.997 54.3276C423.212 55.927 422.202 57.4054 420.997 58.7176C419.867 59.9486 418.618 61.0641 417.267 62.0476C416.546 62.4925 415.786 62.8708 414.997 63.1776C414.111 63.5397 413.199 63.8306 412.267 64.0476C411.279 64.2754 410.277 64.4324 409.267 64.5176C408.269 64.6044 407.265 64.6044 406.267 64.5176C404.348 64.4023 402.449 64.0668 400.607 63.5176C398.92 63.0043 397.41 62.5276 396.077 62.0876C394.78 61.5601 393.562 60.8568 392.457 59.9976C391.304 59.121 390.349 58.0099 389.657 56.7376C388.444 54.6581 387.624 52.3735 387.237 49.9976C386.762 47.2515 386.594 44.4609 386.737 41.6776C386.888 38.604 387.323 35.551 388.037 32.5576C388.762 29.4244 389.766 26.3622 391.037 23.4076C392.317 20.4636 393.874 17.6476 395.687 14.9976C397.425 12.405 399.496 10.0516 401.847 7.99764C403.467 6.53222 405.404 5.46102 407.507 4.86764C409.262 4.39529 411.083 4.21622 412.897 4.33764C414.198 4.48185 415.488 4.71574 416.757 5.03764C418.065 5.36419 419.354 5.76483 420.617 6.23764C421.819 6.68598 422.998 7.19667 424.147 7.76764C425.177 8.27862 426.179 8.84615 427.147 9.46764C427.912 10.0996 428.615 10.8028 429.247 11.5676C429.773 12.2119 430.219 12.9169 430.577 13.6676C430.91 14.376 431.145 15.1261 431.277 15.8976C431.416 16.7249 431.506 17.5597 431.547 18.3976C431.602 19.4636 431.602 20.5317 431.547 21.5976C431.48 22.7043 431.38 23.801 431.247 24.8876C431.114 25.9743 430.92 27.011 430.667 27.9976C430.47 28.9095 430.226 29.8106 429.937 30.6976C429.804 31.051 429.67 31.3843 429.537 31.6976C429.417 31.9885 429.22 32.241 428.967 32.4276C428.667 32.6212 428.323 32.7348 427.967 32.7576C427.364 32.7931 426.759 32.7494 426.167 32.6276C424.907 32.4096 423.678 32.0403 422.507 31.5276C421.582 31.1203 420.734 30.559 419.997 29.8676C419.333 29.2276 418.79 28.4719 418.397 27.6376C417.969 26.7072 417.676 25.7207 417.527 24.7076C417.399 23.8468 417.332 22.978 417.327 22.1076C417.377 20.8176 417.311 19.5256 417.127 18.2476C417.094 17.76 416.928 17.2909 416.646 16.892C416.363 16.4932 415.976 16.1802 415.527 15.9876C414.64 15.721 413.597 16.231 412.397 17.5176C411.01 19.0556 409.784 20.731 408.737 22.5176C407.428 24.7134 406.262 26.9915 405.247 29.3376C404.246 31.5872 403.391 33.8986 402.687 36.2576C402.117 38.4352 401.682 40.6461 401.387 42.8776C401.107 44.8646 401.007 46.8727 401.087 48.8776C401.129 50.4346 401.423 51.9746 401.957 53.4376C402.094 53.9525 402.35 54.4279 402.704 54.8257C403.058 55.2235 403.501 55.5324 403.997 55.7276C405.77 56.3076 408.477 54.731 412.117 50.9976C414.737 48.331 418.154 47.5976 422.367 48.7976C424.08 49.2443 424.957 49.9343 424.997 50.8676Z" fill="white"/>
<path d="M473.3 14.5591C474.117 16.2108 474.69 17.9726 475 19.7891C475.496 23.2831 475.606 26.821 475.33 30.3391C475.046 34.1702 474.376 37.9628 473.33 41.6591C472.312 45.3476 470.883 48.9099 469.07 52.2791C467.383 55.4669 465.141 58.3283 462.45 60.7291C460.806 62.0395 458.9 62.9809 456.86 63.4891C454.653 63.9678 452.381 64.0693 450.14 63.7891C448.414 63.6142 446.698 63.3505 445 62.9991C443.311 62.6525 441.676 62.0808 440.14 61.2991C438.877 60.6343 437.693 59.8292 436.61 58.8991C435.496 57.9732 434.569 56.8429 433.88 55.5691C432.763 53.3849 431.955 51.0559 431.48 48.6491C430.939 45.9774 430.695 43.2544 430.75 40.5291C430.868 34.573 432.135 28.6956 434.48 23.2191C435.676 20.4067 437.161 17.7257 438.91 15.2191C440.652 12.7254 442.698 10.458 445 8.46914C446.664 7.21569 448.55 6.28931 450.56 5.73914C452.553 5.12805 454.657 4.96751 456.72 5.26914C459.182 5.65053 461.6 6.27354 463.94 7.12914C465.986 7.84244 467.907 8.87523 469.63 10.1891C471.144 11.3742 472.394 12.8627 473.3 14.5591ZM455.76 17.9991C454.421 19.3213 453.258 20.8102 452.3 22.4291C451.077 24.4232 449.997 26.5018 449.07 28.6491C448.119 30.8015 447.307 33.0127 446.64 35.2691C446.012 37.3904 445.567 39.5617 445.31 41.7591C445.036 43.8272 444.933 45.9142 445 47.9991C445.037 49.7052 445.351 51.3938 445.93 52.9991C446.093 53.574 446.388 54.1025 446.793 54.542C447.198 54.9815 447.7 55.3197 448.26 55.5291C448.76 55.6753 449.289 55.6971 449.799 55.5925C450.31 55.4879 450.787 55.2602 451.19 54.9291C452.392 54.0287 453.427 52.9255 454.25 51.6691C455.4 49.9671 456.372 48.1508 457.15 46.2491C458.101 43.9745 458.889 41.6353 459.51 39.2491C460.123 36.9848 460.591 34.6834 460.91 32.3591C461.249 30.041 461.426 27.702 461.44 25.3591C461.475 23.4433 461.263 21.5308 460.81 19.6691C460.39 18.0958 459.723 17.1758 458.81 16.9091C457.896 16.6425 456.88 17.0058 455.76 17.9991Z" fill="white"/>
<path d="M509.178 23.8406C510.511 18.2073 511.808 13.0139 513.068 8.2606C513.142 7.76373 513.327 7.2899 513.609 6.87437C513.891 6.45885 514.263 6.11232 514.698 5.86059C515.756 5.5492 516.885 5.57366 517.928 5.9306L519.728 6.40059C520.262 6.53435 520.783 6.71161 521.288 6.9306C521.795 7.1506 522.338 7.41726 522.918 7.73059C523.498 8.04393 524.165 8.44393 524.918 8.9306C525.423 9.16987 525.874 9.50835 526.245 9.92584C526.616 10.3433 526.9 10.8313 527.078 11.3606C527.223 12.3701 527.12 13.3998 526.778 14.3606C525.758 17.6473 524.691 21.3739 523.578 25.5406C522.465 29.7073 521.368 33.9439 520.288 38.2506C519.201 42.5573 518.158 46.7606 517.158 50.8606C516.158 54.9606 515.305 58.5573 514.598 61.6506C514.331 63.3373 512.998 63.9139 510.598 63.3806C508.472 62.9589 506.379 62.3807 504.338 61.6506C503.406 61.3143 502.555 60.7837 501.843 60.0942C501.131 59.4046 500.574 58.5717 500.208 57.6506C499.588 56.2773 498.955 54.6806 498.308 52.8606C497.661 51.0406 496.995 49.0773 496.308 46.9706C495.641 44.8639 494.975 42.6673 494.308 40.3806C493.641 38.0939 493.038 35.8006 492.498 33.5006C492.011 36.2539 491.511 39.0039 490.998 41.7506L489.538 49.6406C489.071 52.1473 488.651 54.4806 488.278 56.6406C487.905 58.8006 487.605 60.6739 487.378 62.2606C487.345 62.5477 487.25 62.8241 487.1 63.071C486.95 63.3179 486.748 63.5292 486.508 63.6906C485.733 63.8773 484.918 63.8179 484.178 63.5206L480.998 62.6806C479.885 62.3822 478.82 61.9241 477.838 61.3206C477.008 60.9809 476.307 60.3855 475.838 59.6206C475.472 58.771 475.344 57.8375 475.468 56.9206C475.555 55.7206 475.698 54.0106 475.898 51.7906C476.098 49.5706 476.365 47.0539 476.698 44.2406C477.031 41.4206 477.408 38.4039 477.828 35.1906C478.248 31.9773 478.705 28.7706 479.198 25.5706C479.685 22.3773 480.185 19.2939 480.698 16.3206C481.211 13.3473 481.711 10.7073 482.198 8.40059C482.253 7.88115 482.433 7.38272 482.722 6.94753C483.011 6.51234 483.401 6.15322 483.858 5.90059C484.917 5.55397 486.059 5.55397 487.118 5.90059C488.758 6.38726 490.355 6.87393 491.908 7.3606C493.57 7.89213 495.194 8.53698 496.768 9.2906C497.935 9.70871 498.954 10.4597 499.698 11.4506C500.4 12.6344 500.843 13.9533 500.998 15.3206C501.218 16.6073 501.508 18.2506 501.868 20.2506C502.228 22.2506 502.628 24.4139 503.068 26.7406C503.515 29.0673 503.981 31.4639 504.468 33.9306C504.955 36.3973 505.425 38.7539 505.878 41.0006C506.771 35.2006 507.871 29.4806 509.178 23.8406Z" fill="white"/>
<path d="M579.938 23.8375C581.272 18.2042 582.568 13.0108 583.828 8.2575C583.902 7.76064 584.087 7.28681 584.369 6.87128C584.651 6.45575 585.024 6.10923 585.458 5.8575C586.516 5.54611 587.645 5.57056 588.688 5.9275L590.488 6.3975C591.022 6.53126 591.544 6.70852 592.048 6.9275C592.555 7.1475 593.098 7.41417 593.678 7.7275C594.258 8.04083 594.925 8.44084 595.678 8.9275C596.183 9.16678 596.634 9.50526 597.005 9.92275C597.377 10.3402 597.66 10.8282 597.838 11.3575C597.983 12.367 597.88 13.3967 597.538 14.3575C596.518 17.6442 595.452 21.3708 594.338 25.5375C593.225 29.7042 592.128 33.9408 591.048 38.2475C589.962 42.5542 588.918 46.7575 587.918 50.8575C586.918 54.9575 586.065 58.5642 585.358 61.6775C585.092 63.3642 583.758 63.9408 581.358 63.4075C579.232 62.9858 577.139 62.4076 575.098 61.6775C574.166 61.3412 573.316 60.8107 572.604 60.1211C571.892 59.4315 571.334 58.5986 570.968 57.6775C570.348 56.3042 569.715 54.7075 569.068 52.8875C568.422 51.0675 567.755 49.1042 567.068 46.9975C566.402 44.8908 565.735 42.6942 565.068 40.4075C564.402 38.1208 563.782 35.8242 563.208 33.5175C562.722 36.2708 562.222 39.0208 561.708 41.7675L560.248 49.6575C559.782 52.1642 559.362 54.4975 558.988 56.6575C558.615 58.8175 558.315 60.6908 558.088 62.2775C558.055 62.5646 557.96 62.841 557.81 63.0879C557.66 63.3348 557.458 63.5461 557.218 63.7075C556.443 63.8942 555.628 63.8348 554.888 63.5375L551.658 62.7075C550.545 62.4091 549.48 61.951 548.498 61.3475C547.668 61.0078 546.967 60.4124 546.498 59.6475C546.132 58.7979 546.004 57.8644 546.128 56.9475C546.215 55.7475 546.358 54.0375 546.558 51.8175C546.758 49.5975 547.025 47.0808 547.358 44.2675C547.692 41.4475 548.068 38.4308 548.488 35.2175C548.908 32.0042 549.365 28.7975 549.858 25.5975C550.345 22.4042 550.845 19.3208 551.358 16.3475C551.872 13.3742 552.372 10.7342 552.858 8.4275C552.914 7.90806 553.093 7.40962 553.382 6.97443C553.671 6.53924 554.061 6.18012 554.518 5.9275C555.577 5.58088 556.719 5.58088 557.778 5.9275C559.418 6.41417 561.015 6.90083 562.568 7.3875C564.23 7.91904 565.854 8.56388 567.428 9.3175C568.595 9.73562 569.614 10.4866 570.358 11.4775C571.04 12.6524 571.47 13.957 571.618 15.3075C571.838 16.5942 572.128 18.2375 572.488 20.2375C572.848 22.2375 573.248 24.4008 573.688 26.7275C574.135 29.0542 574.602 31.4508 575.088 33.9175C575.575 36.3842 576.092 38.7442 576.638 40.9975C577.545 35.1975 578.645 29.4775 579.938 23.8375Z" fill="white"/>
<path d="M636.997 14.5605C637.814 16.2122 638.387 17.974 638.697 19.7905C639.182 23.2823 639.283 26.8168 638.997 30.3305C638.713 34.1616 638.043 37.9542 636.997 41.6505C635.979 45.339 634.55 48.9013 632.737 52.2705C631.05 55.4583 628.808 58.3197 626.117 60.7205C624.473 62.0309 622.567 62.9723 620.527 63.4805C618.32 63.9592 616.048 64.0607 613.807 63.7805C612.064 63.594 610.331 63.317 608.617 62.9505C606.928 62.6039 605.294 62.0322 603.757 61.2505C602.494 60.5857 601.31 59.7806 600.227 58.8505C599.113 57.9246 598.187 56.7943 597.497 55.5205C596.38 53.3363 595.572 51.0073 595.097 48.6005C594.557 45.9288 594.312 43.2058 594.367 40.4805C594.486 34.5244 595.752 28.647 598.097 23.1705C599.294 20.3581 600.778 17.6771 602.527 15.1705C604.269 12.6733 606.314 10.4025 608.617 8.41055C610.281 7.1571 612.168 6.23072 614.177 5.68055C616.17 5.06946 618.274 4.90892 620.337 5.21055C622.799 5.59193 625.217 6.21494 627.557 7.07055C629.603 7.78385 631.524 8.81664 633.247 10.1305C634.797 11.3247 636.075 12.8347 636.997 14.5605ZM619.437 18.0005C618.104 19.3301 616.948 20.8257 615.997 22.4505C614.774 24.4446 613.695 26.5232 612.767 28.6705C611.816 30.8229 611.004 33.0341 610.337 35.2905C609.705 37.4115 609.257 39.5828 608.997 41.7805C608.736 43.8563 608.646 45.95 608.727 48.0405C608.764 49.7466 609.078 51.4352 609.657 53.0405C609.826 53.6091 610.126 54.1303 610.532 54.5626C610.938 54.9949 611.44 55.3263 611.997 55.5305C612.497 55.6767 613.026 55.6985 613.536 55.5939C614.047 55.4893 614.524 55.2616 614.927 54.9305C616.132 54.031 617.171 52.9277 617.997 51.6705C619.148 49.9685 620.12 48.1522 620.897 46.2505C621.848 43.9759 622.637 41.6367 623.257 39.2505C623.871 36.9862 624.338 34.6848 624.657 32.3605C624.996 30.0424 625.173 27.7034 625.187 25.3605C625.222 23.4447 625.011 21.5322 624.557 19.6705C624.137 18.0972 623.47 17.1772 622.557 16.9105C621.644 16.6439 620.604 17.0072 619.437 18.0005Z" fill="white"/>
<path d="M640.47 48.6108C641.35 48.4795 642.241 48.436 643.13 48.4808C643.997 48.5217 644.857 48.6661 645.69 48.9108C646.479 49.1314 647.231 49.4684 647.92 49.9108C650.945 51.929 654.269 53.4577 657.77 54.4408C660.563 55.1074 662.583 54.9308 663.83 53.9108C663.948 53.8584 664.053 53.7808 664.137 53.6835C664.222 53.5861 664.284 53.4714 664.319 53.3474C664.355 53.2233 664.362 53.0931 664.342 52.9658C664.321 52.8385 664.273 52.7173 664.2 52.6108C663.755 51.9309 663.193 51.3351 662.54 50.8508C661.72 50.1841 660.7 49.4508 659.48 48.6508C658.26 47.8508 656.963 47.0308 655.59 46.1908C654.217 45.3508 652.84 44.4741 651.46 43.5608C650.165 42.7128 648.92 41.7913 647.73 40.8008C646.492 39.828 645.387 38.6985 644.44 37.4408C643.497 36.1965 642.745 34.8178 642.21 33.3508C641.67 31.8546 641.377 30.2809 641.34 28.6908C641.315 26.9282 641.586 25.174 642.14 23.5008C642.596 21.7382 643.268 20.0387 644.14 18.4408C645.118 16.6257 646.253 14.8992 647.53 13.2808C648.844 11.6121 650.292 10.0536 651.86 8.62076C653.353 7.2444 654.97 6.00913 656.69 4.93076C657.332 4.47008 658.023 4.0811 658.75 3.77076C659.664 3.37381 660.625 3.0949 661.61 2.94076C662.754 2.75841 663.914 2.7014 665.07 2.77076C666.38 2.84986 667.676 3.08485 668.93 3.47076C670.991 4.21306 672.996 5.10199 674.93 6.13076C676.763 7.06916 678.473 8.23137 680.02 9.59076C680.823 10.3327 681.516 11.1844 682.08 12.1208C682.526 12.8904 682.862 13.7184 683.08 14.5808C683.275 15.3532 683.386 16.1445 683.41 16.9408C683.41 17.7208 683.41 18.4408 683.41 19.1008C683.23 20.2541 682.987 21.5641 682.68 23.0308C682.373 24.4974 682.007 25.9841 681.58 27.4908C681.16 28.9974 680.717 30.4408 680.25 31.8208C679.862 33.0088 679.384 34.1655 678.82 35.2808C678.46 35.9982 677.892 36.5905 677.19 36.9808C676.77 37.0869 676.332 37.1089 675.903 37.0454C675.474 36.9819 675.062 36.8342 674.69 36.6108C668.61 34.5708 665.813 31.6408 666.3 27.8208C666.41 26.9013 666.577 25.9896 666.8 25.0908L667.53 21.9908C667.77 20.9508 667.98 19.9508 668.16 18.9908C668.325 18.2597 668.383 17.5084 668.33 16.7608C668.263 16.2074 668.04 15.8741 667.66 15.7608C667.28 15.6474 666.67 15.9041 665.83 16.5308C664.926 17.037 664.086 17.6516 663.33 18.3608C662.386 19.219 661.516 20.1556 660.73 21.1608C659.906 22.2102 659.183 23.3352 658.57 24.5208C657.97 25.6607 657.546 26.8844 657.31 28.1508C657.089 29.3397 657.113 30.5613 657.38 31.7408C657.697 33.0238 658.424 34.1684 659.45 35.0008C660.791 36.2855 662.24 37.453 663.78 38.4908C665.38 39.5774 666.967 40.6308 668.54 41.6508C670.113 42.6708 671.6 43.6708 673 44.6508C674.268 45.5337 675.429 46.5606 676.46 47.7108C677.307 48.6414 677.899 49.7745 678.18 51.0008C678.401 52.2878 678.153 53.6114 677.48 54.7308C676.954 55.7863 676.332 56.7906 675.62 57.7308C674.724 58.898 673.643 59.9113 672.42 60.7308C670.924 61.7429 669.286 62.5281 667.56 63.0608C665.335 63.7304 663.024 64.0674 660.7 64.0608C657.111 64.1479 653.543 63.4907 650.22 62.1308C646.321 60.4177 642.769 58.0045 639.74 55.0108C637.787 53.3708 636.767 52.1074 636.68 51.2208C636.641 50.804 636.744 50.3861 636.973 50.0356C637.202 49.685 637.543 49.4224 637.94 49.2908C638.749 48.9517 639.6 48.7229 640.47 48.6108Z" fill="white"/>
<path d="M723.179 14.5605C723.996 16.2122 724.569 17.974 724.879 19.7905C725.375 23.2845 725.485 26.8224 725.209 30.3405C724.925 34.1716 724.255 37.9642 723.209 41.6605C722.206 45.3434 720.794 48.9024 718.999 52.2705C717.312 55.4583 715.07 58.3197 712.379 60.7205C710.735 62.0309 708.828 62.9723 706.789 63.4805C704.582 63.9592 702.31 64.0607 700.069 63.7805C698.325 63.594 696.593 63.317 694.879 62.9505C693.19 62.6039 691.555 62.0322 690.019 61.2505C688.756 60.5857 687.571 59.7806 686.489 58.8505C685.375 57.9246 684.448 56.7943 683.759 55.5205C682.642 53.3363 681.834 51.0073 681.359 48.6005C680.818 45.9288 680.574 43.2058 680.629 40.4805C680.747 34.5244 682.014 28.647 684.359 23.1705C685.555 20.3581 687.04 17.6771 688.789 15.1705C690.53 12.6733 692.576 10.4025 694.879 8.41055C696.543 7.1571 698.429 6.23072 700.439 5.68055C702.432 5.06946 704.536 4.90892 706.599 5.21055C709.061 5.59193 711.479 6.21494 713.819 7.07055C715.865 7.78385 717.785 8.81664 719.509 10.1305C721.03 11.333 722.28 12.8425 723.179 14.5605ZM705.639 18.0005C704.3 19.3227 703.137 20.8116 702.179 22.4305C700.972 24.4325 699.909 26.5177 698.999 28.6705C698.048 30.8229 697.236 33.0341 696.569 35.2905C695.94 37.4118 695.495 39.5831 695.239 41.7805C694.978 43.8563 694.887 45.95 694.969 48.0405C695.006 49.7466 695.32 51.4352 695.899 53.0405C696.062 53.6154 696.357 54.1439 696.762 54.5834C697.167 55.0229 697.669 55.3611 698.229 55.5705C698.729 55.7167 699.257 55.7385 699.768 55.6339C700.279 55.5293 700.756 55.3016 701.159 54.9705C702.361 54.0701 703.396 52.9669 704.219 51.7105C705.369 50.0085 706.341 48.1922 707.119 46.2905C708.07 44.0159 708.858 41.6767 709.479 39.2905C710.092 37.0262 710.56 34.7248 710.879 32.4005C711.218 30.0824 711.395 27.7434 711.409 25.4005C711.444 23.4847 711.232 21.5722 710.779 19.7105C710.359 18.1372 709.692 17.2172 708.779 16.9505C707.865 16.6839 706.819 17.0339 705.639 18.0005Z" fill="white"/>
<path d="M766.737 16.6186L760.417 17.2486L757.517 28.8286C756.517 32.8286 755.55 36.7886 754.617 40.7086C753.684 44.6286 752.81 48.4586 751.997 52.1986C751.177 55.9253 750.457 59.4086 749.837 62.6486C749.83 62.8875 749.77 63.1219 749.661 63.3346C749.552 63.5474 749.397 63.7332 749.207 63.8786C748.789 64.0971 748.317 64.1909 747.847 64.1486C747.168 64.1069 746.496 63.9827 745.847 63.7786L743.317 63.0486C742.458 62.8063 741.613 62.5158 740.787 62.1786C740.096 61.9084 739.454 61.5267 738.887 61.0486C738.393 60.631 738.015 60.0939 737.787 59.4886C737.559 58.7899 737.535 58.0407 737.717 57.3286C737.85 55.1953 738.117 52.5786 738.517 49.4786C738.917 46.3786 739.41 43.0919 739.997 39.6186C740.55 36.1586 741.16 32.6653 741.827 29.1386C742.494 25.6119 743.16 22.3386 743.827 19.3186C742.54 19.5386 741.297 19.7286 740.097 19.8886C739.085 20.0095 738.083 20.1999 737.097 20.4586C736.21 20.7197 735.271 20.7541 734.367 20.5586C733.434 20.2084 732.607 19.6227 731.967 18.8586C730.95 17.8094 730.088 16.6208 729.407 15.3286C728.634 13.9086 728 12.7119 727.507 11.7386C727.014 10.7653 726.88 10.0986 727.107 9.73861C727.566 9.30354 728.144 9.01464 728.767 8.90861C731.387 8.37528 734.35 7.88861 737.657 7.44861C740.964 7.00861 744.337 6.60861 747.777 6.24861C751.217 5.89528 754.59 5.59528 757.897 5.34861C761.204 5.10194 764.167 4.93528 766.787 4.84861C767.801 4.79344 768.817 4.91871 769.787 5.21861C770.408 5.48177 770.946 5.90652 771.347 6.44861C772.225 7.45566 772.965 8.57557 773.547 9.77861C774.098 10.9117 774.544 12.0934 774.877 13.3086C775.142 13.9835 775.142 14.7337 774.877 15.4086C774.63 15.7886 773.82 16.0219 772.447 16.1086L766.737 16.6186Z" fill="white"/>
<path d="M784.22 55.0012C783.706 57.4879 783.206 59.9279 782.72 62.3212C782.6 62.8817 782.28 63.3793 781.82 63.7212C781.139 63.9559 780.4 63.9559 779.72 63.7212C778.52 63.4079 777.453 63.1646 776.52 62.9912C775.592 62.8152 774.695 62.5017 773.86 62.0612C773.112 61.6716 772.506 61.0556 772.13 60.3012C771.794 59.4224 771.681 58.4744 771.8 57.5412C771.886 56.6079 772.01 55.2546 772.17 53.4812C772.33 51.7079 772.52 49.7079 772.74 47.4812C772.96 45.2412 773.216 42.8346 773.51 40.2612C773.803 37.6879 774.113 35.1146 774.44 32.5412C774.773 29.9679 775.14 27.4712 775.54 25.0512C775.94 22.6312 776.36 20.4579 776.8 18.5312C777.15 16.8962 777.639 15.2939 778.26 13.7412C778.551 12.7997 779.132 11.9739 779.92 11.3812C782.673 10.1412 785.546 8.92123 788.54 7.72123C791.393 6.56481 794.359 5.70691 797.39 5.16123C800.113 4.65544 802.902 4.6115 805.64 5.03123C808.223 5.44815 810.61 6.66942 812.46 8.52123C814.016 10.209 815.43 12.0218 816.69 13.9412C818.075 16.1224 819.089 18.5182 819.69 21.0312C820.263 24.0046 820.04 26.4446 819.02 28.3512C817.17 31.7429 814.532 34.6408 811.33 36.8012C807.314 39.6258 803.022 42.0348 798.52 43.9912C799.54 45.1446 800.66 46.3646 801.88 47.6512C803.1 48.9379 804.353 50.2246 805.64 51.5112C806.926 52.7979 808.203 54.0412 809.47 55.2412C810.736 56.4412 811.913 57.4679 813 58.3212C813.886 59.0746 814.286 59.6746 814.2 60.1212C814.003 60.7084 813.602 61.2053 813.07 61.5212C812.491 62.0296 811.809 62.4051 811.07 62.6212C810.516 62.7346 809.85 62.8579 809.07 62.9912C808.016 63.2625 806.921 63.3405 805.84 63.2212C804.379 63.0055 802.983 62.4731 801.75 61.6612C800.73 60.9546 799.553 60.0679 798.22 59.0012C796.886 57.9346 795.48 56.7546 794 55.4612C792.58 54.1746 791.16 52.8412 789.74 51.4612C788.375 50.1242 787.086 48.712 785.88 47.2312C785.293 49.9246 784.74 52.5146 784.22 55.0012ZM791 27.4412C790.333 30.0146 789.58 32.7646 788.74 35.6912C791.596 34.7655 794.332 33.5033 796.89 31.9312C799.038 30.6293 801.049 29.1114 802.89 27.4012C804.25 26.1273 805.395 24.6414 806.28 23.0012C806.916 22.0644 807.156 20.9145 806.95 19.8012C806.416 18.5612 804.84 17.9412 802.22 17.9412C800.788 17.9584 799.361 18.1158 797.96 18.4112C796.237 18.7863 794.57 19.3811 793 20.1812C792.333 22.4479 791.666 24.8679 791 27.4412Z" fill="white"/>
<path d="M861.997 14.5605C862.814 16.2122 863.387 17.974 863.697 19.7905C864.182 23.2823 864.283 26.8168 863.997 30.3305C863.713 34.1616 863.043 37.9542 861.997 41.6505C860.979 45.339 859.55 48.9013 857.737 52.2705C856.05 55.4583 853.808 58.3197 851.117 60.7205C849.473 62.0309 847.567 62.9723 845.527 63.4805C843.32 63.9592 841.048 64.0607 838.807 63.7805C837.064 63.594 835.331 63.317 833.617 62.9505C831.928 62.6039 830.294 62.0322 828.757 61.2505C827.494 60.5857 826.31 59.7806 825.227 58.8505C824.113 57.9246 823.187 56.7943 822.497 55.5205C821.38 53.3363 820.572 51.0073 820.097 48.6005C819.557 45.9288 819.312 43.2058 819.367 40.4805C819.486 34.5244 820.752 28.647 823.097 23.1705C824.294 20.3581 825.778 17.6771 827.527 15.1705C829.269 12.6733 831.314 10.4025 833.617 8.41055C835.281 7.1571 837.168 6.23072 839.177 5.68055C841.17 5.06946 843.274 4.90892 845.337 5.21055C847.799 5.59193 850.217 6.21494 852.557 7.07055C854.603 7.78385 856.524 8.81664 858.247 10.1305C859.797 11.3247 861.075 12.8347 861.997 14.5605ZM844.417 18.0005C843.091 19.3313 841.942 20.8269 840.997 22.4505C839.774 24.4446 838.695 26.5232 837.767 28.6705C836.816 30.8229 836.004 33.0341 835.337 35.2905C834.705 37.4115 834.257 39.5828 833.997 41.7805C833.736 43.8563 833.646 45.95 833.727 48.0405C833.764 49.7466 834.078 51.4352 834.657 53.0405C834.826 53.6091 835.126 54.1303 835.532 54.5626C835.938 54.9949 836.44 55.3263 836.997 55.5305C837.497 55.6767 838.026 55.6985 838.536 55.5939C839.047 55.4893 839.524 55.2616 839.927 54.9305C841.132 54.031 842.171 52.9277 842.997 51.6705C844.148 49.9685 845.12 48.1522 845.897 46.2505C846.848 43.9759 847.637 41.6367 848.257 39.2505C848.871 36.9862 849.338 34.6848 849.657 32.3605C849.996 30.0424 850.173 27.7034 850.187 25.3605C850.222 23.4447 850.011 21.5322 849.557 19.6705C849.137 18.0972 848.47 17.1772 847.557 16.9105C846.644 16.6439 845.597 17.0072 844.417 18.0005Z" fill="white"/>
<path d="M865.457 48.6108C866.337 48.4795 867.228 48.436 868.117 48.4808C868.984 48.5217 869.843 48.6661 870.677 48.9108C871.466 49.1314 872.217 49.4684 872.907 49.9108C875.932 51.929 879.256 53.4577 882.757 54.4408C885.55 55.1074 887.57 54.9308 888.817 53.9108C888.935 53.8584 889.039 53.7808 889.124 53.6835C889.209 53.5861 889.271 53.4714 889.306 53.3474C889.341 53.2233 889.349 53.0931 889.328 52.9658C889.308 52.8385 889.259 52.7173 889.187 52.6108C888.741 51.9309 888.179 51.3351 887.527 50.8508C886.707 50.1841 885.687 49.4508 884.467 48.6508C883.247 47.8508 881.95 47.0308 880.577 46.1908C879.203 45.3508 877.827 44.4741 876.447 43.5608C875.152 42.7128 873.906 41.7913 872.717 40.8008C871.479 39.828 870.373 38.6985 869.427 37.4408C868.483 36.1965 867.732 34.8178 867.197 33.3508C866.657 31.8546 866.363 30.2809 866.327 28.6908C866.302 26.9282 866.572 25.174 867.127 23.5008C867.582 21.7382 868.254 20.0387 869.127 18.4408C870.105 16.6257 871.239 14.8992 872.517 13.2808C873.831 11.6121 875.279 10.0536 876.847 8.62076C878.339 7.2444 879.956 6.00913 881.677 4.93076C882.319 4.47008 883.01 4.0811 883.737 3.77076C884.651 3.37381 885.612 3.0949 886.597 2.94076C887.74 2.75841 888.901 2.7014 890.057 2.77076C891.367 2.84986 892.662 3.08485 893.917 3.47076C895.978 4.21306 897.983 5.10199 899.917 6.13076C901.75 7.06916 903.46 8.23137 905.007 9.59076C905.809 10.3327 906.503 11.1844 907.067 12.1208C907.512 12.8904 907.849 13.7184 908.067 14.5808C908.262 15.3532 908.372 16.1445 908.397 16.9408C908.397 17.7208 908.397 18.4408 908.397 19.1008C908.217 20.2541 907.973 21.5641 907.667 23.0308C907.36 24.4974 906.993 25.9841 906.567 27.4908C906.147 28.9974 905.703 30.4408 905.237 31.8208C904.849 33.0088 904.371 34.1655 903.807 35.2808C903.482 35.9889 902.957 36.5867 902.297 37.0008C901.876 37.1069 901.439 37.1289 901.01 37.0654C900.581 37.0019 900.168 36.8542 899.797 36.6308C893.717 34.5908 890.92 31.6608 891.407 27.8408C891.517 26.9213 891.684 26.0096 891.907 25.1108L892.637 22.0108C892.877 20.9708 893.087 19.9708 893.267 19.0108C893.432 18.2797 893.489 17.5284 893.437 16.7808C893.37 16.2274 893.147 15.8941 892.767 15.7808C892.387 15.6674 891.777 15.9241 890.937 16.5508C890.032 17.057 889.193 17.6716 888.437 18.3808C887.492 19.239 886.623 20.1756 885.837 21.1808C885.012 22.2302 884.289 23.3552 883.677 24.5408C883.077 25.6807 882.652 26.9044 882.417 28.1708C882.195 29.3597 882.219 30.5813 882.487 31.7608C882.772 33.0196 883.452 34.1545 884.427 35.0008C885.768 36.2855 887.216 37.453 888.757 38.4908C890.357 39.5774 891.943 40.6308 893.517 41.6508C895.09 42.6708 896.577 43.6708 897.977 44.6508C899.244 45.5337 900.405 46.5606 901.437 47.7108C902.283 48.6414 902.876 49.7745 903.157 51.0008C903.378 52.2878 903.129 53.6114 902.457 54.7308C901.931 55.7863 901.308 56.7906 900.597 57.7308C899.7 58.898 898.619 59.9113 897.397 60.7308C895.9 61.7429 894.263 62.5281 892.537 63.0608C890.312 63.7304 888 64.0674 885.677 64.0608C882.088 64.1479 878.519 63.4907 875.197 62.1308C871.298 60.4177 867.746 58.0045 864.717 55.0108C862.763 53.3708 861.743 52.1074 861.657 51.2208C861.617 50.804 861.72 50.3861 861.949 50.0356C862.178 49.685 862.519 49.4224 862.917 49.2908C863.729 48.9508 864.583 48.7221 865.457 48.6108Z" fill="white"/>
<path d="M44.6281 48.3712C44.622 49.595 44.2758 50.7929 43.6281 51.8312C42.8248 53.4343 41.7942 54.9129 40.5681 56.2212C39.4383 57.4522 38.1888 58.5677 36.8381 59.5512C36.1302 59.994 35.3838 60.3722 34.6081 60.6812C33.7227 61.0433 32.8098 61.3342 31.8781 61.5512C30.8906 61.779 29.888 61.936 28.8781 62.0212C27.88 62.1079 26.8762 62.1079 25.8781 62.0212C23.9594 61.9059 22.0602 61.5704 20.2181 61.0212C18.5314 60.5079 17.0214 60.0312 15.6881 59.5912C14.3664 59.0664 13.1244 58.3595 11.9981 57.4912C10.8449 56.6146 9.89061 55.5035 9.19812 54.2312C7.97983 52.1463 7.15608 49.8547 6.76812 47.4712C6.29288 44.7251 6.12518 41.9345 6.26812 39.1512C6.43347 36.066 6.88542 33.0028 7.61812 30.0012C8.34364 26.868 9.34763 23.8058 10.6181 20.8512C11.8918 17.9045 13.4421 15.0852 15.2481 12.4312C16.9866 9.83863 19.0576 7.48522 21.4081 5.43123C23.0285 3.96581 24.9655 2.89461 27.0681 2.30123C28.8233 1.82889 30.6445 1.64981 32.4581 1.77123C33.7594 1.91544 35.0491 2.14933 36.3181 2.47123C37.6265 2.79778 38.9152 3.19843 40.1781 3.67123C41.3806 4.11957 42.5588 4.63026 43.7081 5.20123C44.7387 5.71222 45.7402 6.27975 46.7081 6.90123C47.473 7.53321 48.1761 8.23637 48.8081 9.00123C49.3339 9.64549 49.7804 10.3505 50.1381 11.1012C50.4709 11.8096 50.7064 12.5597 50.8381 13.3312C50.9775 14.1585 51.0677 14.9933 51.1081 15.8312C51.163 16.8972 51.163 17.9653 51.1081 19.0312C51.0414 20.1379 50.9414 21.2346 50.8081 22.3212C50.6748 23.4079 50.4981 24.4512 50.2781 25.4512C50.0809 26.3631 49.8372 27.2642 49.5481 28.1512C49.4148 28.5046 49.2815 28.8379 49.1481 29.1512C49.0284 29.4421 48.8313 29.6946 48.5781 29.8812C48.2784 30.0748 47.9342 30.1884 47.5781 30.2112C46.975 30.2467 46.3699 30.203 45.7781 30.0812C44.4987 29.8744 43.2494 29.5117 42.0581 29.0012C41.1265 28.5959 40.2709 28.0345 39.5281 27.3412C38.8639 26.7012 38.3217 25.9455 37.9281 25.1112C37.5004 24.1808 37.2075 23.1943 37.0581 22.1812C36.9298 21.3204 36.863 20.4515 36.8581 19.5812C36.9087 18.2912 36.8418 16.9992 36.6581 15.7212C36.6257 15.2336 36.4591 14.7645 36.1768 14.3656C35.8944 13.9668 35.5073 13.6538 35.0581 13.4612C34.1715 13.1946 33.1281 13.7046 31.9281 14.9912C30.5414 16.5292 29.3151 18.2046 28.2681 19.9912C26.959 22.187 25.7933 24.4651 24.7781 26.8112C23.7776 29.0608 22.9225 31.3722 22.2181 33.7312C21.6478 35.9088 21.2137 38.1197 20.9181 40.3512C20.6382 42.3382 20.5378 44.3463 20.6181 46.3512C20.6535 47.9391 20.9509 49.5102 21.4981 51.0012C21.6481 51.52 21.9196 51.9956 22.29 52.3886C22.6604 52.7816 23.1191 53.0808 23.6281 53.2612C25.4014 53.8412 28.1081 52.2646 31.7481 48.5312C34.3681 45.8646 37.7848 45.1312 41.9981 46.3312C43.6848 46.7779 44.5614 47.4579 44.6281 48.3712Z" fill="#6FD5CA"/>
<path d="M92.8771 12.0604C93.6944 13.7121 94.267 15.4738 94.5771 17.2904C95.073 20.7844 95.1837 24.3222 94.9071 27.8404C94.6232 31.6714 93.9532 35.464 92.9071 39.1604C91.8895 42.8488 90.4605 46.4112 88.6471 49.7804C86.9602 52.9681 84.7184 55.8296 82.0271 58.2304C80.396 59.5393 78.5036 60.4838 76.4771 61.0004C74.2701 61.4791 71.9979 61.5805 69.7571 61.3004C68.0138 61.1139 66.2815 60.8369 64.5671 60.4704C62.8783 60.1238 61.2437 59.552 59.7071 58.7704C58.444 58.1055 57.2598 57.3004 56.1771 56.3704C55.0593 55.4326 54.1324 54.2885 53.4471 53.0004C52.3146 50.825 51.49 48.5028 50.9971 46.1004C50.475 43.4334 50.2469 40.7171 50.3171 38.0004C50.4186 32.0441 51.6681 26.1634 53.9971 20.6804C55.1936 17.868 56.6782 15.187 58.4271 12.6804C60.1864 10.2089 62.2454 7.96506 64.5571 6.00039C66.2211 4.74694 68.1078 3.82056 70.1171 3.27039C72.1102 2.6593 74.2143 2.49876 76.2771 2.80039C78.739 3.18178 81.1573 3.80479 83.4971 4.66039C85.5433 5.37369 87.4638 6.40648 89.1871 7.72039C90.7055 8.89468 91.9623 10.3728 92.8771 12.0604ZM75.3371 15.5204C73.9985 16.8425 72.8356 18.3314 71.8771 19.9504C70.6541 21.9444 69.5747 24.023 68.6471 26.1704C67.6961 28.3227 66.8845 30.534 66.2171 32.7904C65.5888 34.9117 65.1438 37.083 64.8871 39.2804C64.626 41.3562 64.5357 43.4499 64.6171 45.5404C64.6543 47.2464 64.9684 48.9351 65.5471 50.5404C65.7204 51.1034 66.0219 51.6186 66.4279 52.0454C66.8339 52.4723 67.3334 52.7992 67.8871 53.0004C68.3874 53.1466 68.9158 53.1683 69.4265 53.0638C69.9371 52.9592 70.4145 52.7315 70.8171 52.4004C72.0189 51.5 73.0544 50.3968 73.8771 49.1404C75.0277 47.4384 75.9996 45.6221 76.7771 43.7204C77.7281 41.4457 78.5168 39.1065 79.1371 36.7204C79.7507 34.456 80.2183 32.1546 80.5371 29.8304C80.8764 27.5122 81.0535 25.1732 81.0671 22.8304C81.1025 20.9145 80.8908 19.0021 80.4371 17.1404C80.0171 15.5671 79.3504 14.6471 78.4371 14.3804C77.5237 14.1137 76.4904 14.4937 75.3371 15.5204Z" fill="#6FD5CA"/>
<path d="M128.757 21.3375C130.09 15.7042 131.387 10.5108 132.647 5.7575C132.721 5.26064 132.906 4.78681 133.188 4.37128C133.47 3.95575 133.842 3.60923 134.277 3.3575C135.335 3.04611 136.464 3.07056 137.507 3.4275L139.307 3.8975C139.841 4.03126 140.362 4.20852 140.867 4.4275C141.374 4.6475 141.917 4.91417 142.497 5.2275C143.077 5.54083 143.744 5.94084 144.497 6.4275C145.002 6.66678 145.453 7.00526 145.824 7.42275C146.195 7.84024 146.479 8.32819 146.657 8.8575C146.802 9.86703 146.699 10.8967 146.357 11.8575C145.337 15.1442 144.27 18.8708 143.157 23.0375C142.044 27.2042 140.947 31.4408 139.867 35.7475C138.78 40.0542 137.737 44.2575 136.737 48.3575C135.737 52.4575 134.884 56.0642 134.177 59.1775C133.91 60.8642 132.577 61.4408 130.177 60.9075C128.051 60.4858 125.958 59.9076 123.917 59.1775C122.985 58.8412 122.134 58.3107 121.422 57.6211C120.711 56.9315 120.153 56.0986 119.787 55.1775C119.167 53.8042 118.534 52.2075 117.887 50.3875C117.24 48.5675 116.574 46.6042 115.887 44.4975C115.22 42.3908 114.554 40.1942 113.887 37.9075C113.22 35.6208 112.62 33.3175 112.087 30.9975C111.6 33.7508 111.1 36.5008 110.587 39.2475L109.127 47.1375C108.66 49.6442 108.24 51.9775 107.867 54.1375C107.494 56.2975 107.194 58.1708 106.967 59.7575C106.934 60.0446 106.839 60.321 106.689 60.5679C106.539 60.8148 106.337 61.0261 106.097 61.1875C105.322 61.3742 104.507 61.3148 103.767 61.0175L100.537 60.1875C99.4237 59.8891 98.3593 59.431 97.3771 58.8275C96.5467 58.4879 95.8461 57.8924 95.3771 57.1275C95.0107 56.2779 94.8828 55.3444 95.0071 54.4275C95.0938 53.2275 95.2371 51.5175 95.4371 49.2975C95.6371 47.0775 95.9038 44.5608 96.2371 41.7475C96.5705 38.9275 96.9471 35.9108 97.3671 32.6975C97.7871 29.4842 98.2438 26.2775 98.7371 23.0775C99.2238 19.8842 99.7238 16.8008 100.237 13.8275C100.75 10.8542 101.25 8.21417 101.737 5.9075C101.793 5.38806 101.972 4.88962 102.261 4.45443C102.55 4.01925 102.94 3.66012 103.397 3.4075C104.456 3.06088 105.598 3.06088 106.657 3.4075C108.297 3.89417 109.894 4.38083 111.447 4.8675C113.109 5.39904 114.733 6.04388 116.307 6.7975C117.494 7.21958 118.528 7.98547 119.277 8.9975C119.959 10.1724 120.389 11.477 120.537 12.8275C120.757 14.1142 121.047 15.7575 121.407 17.7575C121.767 19.7575 122.167 21.9208 122.607 24.2475C123.054 26.5742 123.52 28.9708 124.007 31.4375C124.494 33.9042 124.98 36.2675 125.467 38.5275C126.354 32.7075 127.45 26.9775 128.757 21.3375Z" fill="#6FD5CA"/>
<path d="M183.18 14.1203L176.86 14.7503L174 26.3303C173 30.3303 172.033 34.2903 171.1 38.2103C170.167 42.1303 169.277 45.9603 168.43 49.7003C167.61 53.427 166.89 56.9103 166.27 60.1503C166.263 60.3893 166.203 60.6236 166.094 60.8364C165.985 61.0491 165.83 61.2349 165.64 61.3803C165.222 61.5989 164.75 61.6926 164.28 61.6503C163.601 61.6087 162.929 61.4844 162.28 61.2803L159.75 60.5503C158.891 60.308 158.046 60.0175 157.22 59.6803C156.529 59.4101 155.887 59.0284 155.32 58.5503C154.826 58.1327 154.447 57.5957 154.22 56.9903C153.992 56.2916 153.968 55.5424 154.15 54.8303C154.283 52.697 154.55 50.0803 154.95 46.9803C155.35 43.8803 155.827 40.597 156.38 37.1303C156.933 33.6703 157.543 30.177 158.21 26.6503C158.877 23.1237 159.543 19.8503 160.21 16.8303C158.923 17.0503 157.68 17.2403 156.48 17.4003C155.468 17.5212 154.466 17.7116 153.48 17.9703C152.593 18.2314 151.654 18.2658 150.75 18.0703C149.817 17.7201 148.99 17.1345 148.35 16.3703C147.333 15.3211 146.471 14.1325 145.79 12.8403C145.017 11.4203 144.383 10.2237 143.89 9.25033C143.397 8.277 143.263 7.61033 143.49 7.25033C143.949 6.81526 144.526 6.52636 145.15 6.42033C147.77 5.887 150.733 5.40033 154.04 4.96033C157.347 4.52033 160.72 4.12033 164.16 3.76033C167.6 3.407 170.973 3.107 174.28 2.86033C177.587 2.61366 180.55 2.447 183.17 2.36033C184.184 2.30515 185.2 2.43043 186.17 2.73033C186.79 2.99349 187.329 3.41823 187.73 3.96033C188.608 4.96738 189.348 6.08729 189.93 7.29033C190.481 8.42337 190.927 9.60509 191.26 10.8203C191.525 11.4952 191.525 12.2455 191.26 12.9203C191.013 13.3003 190.203 13.5337 188.83 13.6203L183.18 14.1203Z" fill="#6FD5CA"/>
<path d="M208.1 49.0694C205.153 49.4662 202.231 50.0338 199.35 50.7694C198.45 52.496 197.667 54.1027 197 55.5894C196.333 57.076 195.69 58.5294 195.07 59.9494C194.964 60.2529 194.793 60.5294 194.568 60.7592C194.344 60.9891 194.071 61.1667 193.77 61.2794C192.988 61.382 192.192 61.2678 191.47 60.9494C190.89 60.7294 190.257 60.4727 189.57 60.1794C188.883 59.886 188.183 59.5527 187.47 59.1794C186.937 58.826 186.47 58.526 186.07 58.2794C185.669 58.0561 185.335 57.7279 185.106 57.3297C184.877 56.9316 184.761 56.4786 184.77 56.0194C184.78 55.2616 184.905 54.5097 185.14 53.7894C186.207 50.7294 187.593 47.136 189.3 43.0094C191.007 38.8827 192.847 34.6227 194.82 30.2294C196.82 25.836 198.84 21.5027 200.88 17.2294C202.92 12.956 204.883 9.14936 206.77 5.80936C207.404 4.64835 208.293 3.64646 209.37 2.87936C210.797 2.04713 212.47 1.73942 214.1 2.00936C215.92 2.09602 217.54 2.23936 218.96 2.43936C220.38 2.63936 221.677 2.87269 222.85 3.13936C224.023 3.40603 225.11 3.69602 226.11 4.00936C227.11 4.32269 228.11 4.61269 229.11 4.87936C230.206 5.15227 231.151 5.84555 231.74 6.80936C232.144 7.80009 232.272 8.88176 232.11 9.93936C231.843 13.0927 231.62 16.7094 231.44 20.7894C231.26 24.8694 231.127 29.1294 231.04 33.5694C230.953 38.0094 230.897 42.4594 230.87 46.9194C230.843 51.3794 230.843 55.516 230.87 59.3294C230.902 59.6254 230.874 59.9248 230.788 60.2099C230.702 60.495 230.56 60.7601 230.37 60.9894C229.699 61.3868 228.915 61.552 228.14 61.4594C226.987 61.4594 225.92 61.426 224.94 61.3594C223.916 61.2843 222.907 61.0724 221.94 60.7294C221.099 60.5449 220.327 60.1292 219.71 59.5294C219.181 58.7597 218.87 57.8613 218.81 56.9294C218.63 55.6427 218.473 54.2327 218.34 52.6994C218.207 51.166 218.073 49.4994 217.94 47.6994C214.687 48.146 211.407 48.6027 208.1 49.0694ZM211.36 37.5894C213.36 37.3694 215.39 37.1927 217.45 37.0594C217.363 33.4194 217.297 29.7927 217.25 26.1794C217.203 22.566 217.227 18.9827 217.32 15.4294C215.547 18.6694 213.627 22.2527 211.56 26.1794C209.493 30.106 207.42 34.176 205.34 38.3894C207.34 38.076 209.35 37.806 211.37 37.5794L211.36 37.5894Z" fill="#6FD5CA"/>
<path d="M272.27 48.3712C272.264 49.595 271.918 50.7929 271.27 51.8312C270.467 53.4343 269.436 54.9129 268.21 56.2212C267.08 57.4522 265.831 58.5677 264.48 59.5512C263.772 59.994 263.026 60.3722 262.25 60.6812C261.365 61.0433 260.452 61.3342 259.52 61.5512C258.533 61.779 257.53 61.936 256.52 62.0212C255.522 62.1079 254.518 62.1079 253.52 62.0212C251.602 61.9059 249.702 61.5704 247.86 61.0212C246.174 60.5079 244.664 60.0312 243.33 59.5912C242.042 59.0488 240.834 58.3321 239.74 57.4612C238.587 56.5846 237.633 55.4735 236.94 54.2012C235.722 52.1163 234.898 49.8247 234.51 47.4412C234.035 44.6951 233.867 41.9045 234.01 39.1212C234.161 36.0476 234.596 32.9946 235.31 30.0012C236.036 26.868 237.04 23.8058 238.31 20.8512C239.584 17.9045 241.134 15.0852 242.94 12.4312C244.679 9.83863 246.75 7.48522 249.1 5.43123C250.721 3.96581 252.658 2.89461 254.76 2.30123C256.516 1.82889 258.337 1.64981 260.15 1.77123C261.452 1.91544 262.741 2.14933 264.01 2.47123C265.319 2.79778 266.607 3.19843 267.87 3.67123C269.073 4.11957 270.251 4.63026 271.4 5.20123C272.431 5.71222 273.432 6.27975 274.4 6.90123C275.165 7.53321 275.868 8.23637 276.5 9.00123C277.026 9.64549 277.473 10.3505 277.83 11.1012C278.163 11.8096 278.399 12.5597 278.53 13.3312C278.67 14.1585 278.76 14.9933 278.8 15.8312C278.855 16.8972 278.855 17.9653 278.8 19.0312C278.734 20.1379 278.634 21.2346 278.5 22.3212C278.367 23.4079 278.19 24.4512 277.97 25.4512C277.773 26.3631 277.529 27.2642 277.24 28.1512C277.107 28.5046 276.974 28.8379 276.84 29.1512C276.721 29.4421 276.523 29.6946 276.27 29.8812C275.971 30.0748 275.626 30.1884 275.27 30.2112C274.667 30.2467 274.062 30.203 273.47 30.0812C272.21 29.8632 270.982 29.4939 269.81 28.9812C268.879 28.5759 268.023 28.0145 267.28 27.3212C266.616 26.6812 266.074 25.9255 265.68 25.0912C265.253 24.1608 264.96 23.1743 264.81 22.1612C264.682 21.3004 264.615 20.4315 264.61 19.5612C264.661 18.2712 264.594 16.9792 264.41 15.7012C264.378 15.2136 264.211 14.7445 263.929 14.3456C263.647 13.9468 263.259 13.6338 262.81 13.4412C261.924 13.1746 260.88 13.6846 259.68 14.9712C258.294 16.5092 257.067 18.1846 256.02 19.9712C254.711 22.167 253.545 24.4451 252.53 26.7912C251.53 29.0408 250.675 31.3522 249.97 33.7112C249.4 35.8888 248.966 38.0997 248.67 40.3312C248.39 42.3182 248.29 44.3263 248.37 46.3312C248.412 47.8882 248.706 49.4281 249.24 50.8912C249.39 51.41 249.662 51.8856 250.032 52.2786C250.403 52.6716 250.861 52.9708 251.37 53.1512C253.144 53.7312 255.85 52.1546 259.49 48.4212C262.11 45.7546 265.527 45.0212 269.74 46.2212C271.36 46.7412 272.204 47.4579 272.27 48.3712Z" fill="#6FD5CA"/>
<path d="M317.9 14.1203L311.58 14.7503L308.68 26.3303C307.68 30.3303 306.714 34.2903 305.78 38.2103C304.847 42.1303 303.974 45.9603 303.16 49.7003C302.34 53.427 301.62 56.9103 301 60.1503C300.993 60.3893 300.933 60.6236 300.824 60.8364C300.715 61.0491 300.56 61.2349 300.37 61.3803C299.952 61.5989 299.48 61.6926 299.01 61.6503C298.331 61.6087 297.659 61.4844 297.01 61.2803L294.48 60.5503C293.621 60.308 292.777 60.0175 291.95 59.6803C291.259 59.4101 290.618 59.0284 290.05 58.5503C289.557 58.1327 289.178 57.5957 288.95 56.9903C288.722 56.2916 288.698 55.5424 288.88 54.8303C289.014 52.697 289.28 50.0803 289.68 46.9803C290.08 43.8803 290.557 40.597 291.11 37.1303C291.664 33.6703 292.274 30.177 292.94 26.6503C293.607 23.1237 294.274 19.8503 294.94 16.8303C293.654 17.0503 292.41 17.2403 291.21 17.4003C290.198 17.5212 289.196 17.7116 288.21 17.9703C287.323 18.2314 286.384 18.2658 285.48 18.0703C284.547 17.7201 283.72 17.1345 283.08 16.3703C282.064 15.3211 281.202 14.1325 280.52 12.8403C279.747 11.4203 279.114 10.2237 278.62 9.25033C278.127 8.277 277.994 7.61033 278.22 7.25033C278.679 6.81526 279.257 6.52636 279.88 6.42033C282.5 5.887 285.464 5.40033 288.77 4.96033C292.077 4.52033 295.45 4.12033 298.89 3.76033C302.33 3.407 305.704 3.107 309.01 2.86033C312.317 2.61366 315.28 2.447 317.9 2.36033C318.914 2.30515 319.93 2.43043 320.9 2.73033C321.521 2.99349 322.06 3.41823 322.46 3.96033C323.339 4.96738 324.079 6.08729 324.66 7.29033C325.212 8.40375 325.66 9.56525 326 10.7603C326.266 11.4352 326.266 12.1855 326 12.8603C325.754 13.2403 324.944 13.4737 323.57 13.5603L317.9 14.1203Z" fill="#6FD5CA"/>
<path d="M342.83 49.0711C339.883 49.4679 336.961 50.0356 334.08 50.7711C333.193 52.5044 332.417 54.1144 331.75 55.6011C331.083 57.0877 330.44 58.5411 329.82 59.9611C329.714 60.2646 329.543 60.5411 329.318 60.7709C329.094 61.0008 328.821 61.1784 328.52 61.2911C327.738 61.3937 326.942 61.2796 326.22 60.9611C325.64 60.7411 325.007 60.4844 324.32 60.1911C323.633 59.8977 322.933 59.5644 322.22 59.1911C321.687 58.8377 321.22 58.5377 320.82 58.2911C320.419 58.0679 320.086 57.7396 319.856 57.3414C319.627 56.9433 319.511 56.4903 319.52 56.0311C319.53 55.2733 319.655 54.5214 319.89 53.8011C320.957 50.7411 322.343 47.1477 324.05 43.0211C325.757 38.8944 327.597 34.6344 329.57 30.2411C331.57 25.8477 333.59 21.5144 335.63 17.2411C337.67 12.9677 339.633 9.16108 341.52 5.82108C342.154 4.66007 343.043 3.65818 344.12 2.89108C345.547 2.05885 347.22 1.75114 348.85 2.02108C350.67 2.10774 352.29 2.25108 353.71 2.45108C355.13 2.65108 356.427 2.88441 357.6 3.15108C358.773 3.41774 359.86 3.70774 360.86 4.02108C361.86 4.33441 362.86 4.62441 363.86 4.89108C364.956 5.16399 365.901 5.85727 366.49 6.82108C366.894 7.81181 367.022 8.89348 366.86 9.95108C366.593 13.1044 366.37 16.7211 366.19 20.8011C366.01 24.8811 365.877 29.1411 365.79 33.5811C365.703 38.0211 365.647 42.4711 365.62 46.9311C365.593 51.3911 365.593 55.5277 365.62 59.3411C365.652 59.6371 365.624 59.9366 365.538 60.2217C365.452 60.5068 365.31 60.7718 365.12 61.0011C364.449 61.3986 363.665 61.5638 362.89 61.4711C361.737 61.4711 360.67 61.4377 359.69 61.3711C358.666 61.296 357.657 61.0841 356.69 60.7411C355.849 60.5566 355.077 60.141 354.46 59.5411C353.931 58.7714 353.62 57.873 353.56 56.9411C353.38 55.6544 353.223 54.2444 353.09 52.7111C352.957 51.1777 352.823 49.5111 352.69 47.7111C349.423 48.1511 346.137 48.6044 342.83 49.0711ZM346.09 37.5911C348.09 37.3711 350.12 37.1944 352.18 37.0611C352.093 33.4211 352.027 29.7944 351.98 26.1811C351.933 22.5677 351.94 18.9811 352 15.4211C350.227 18.6611 348.307 22.2444 346.24 26.1711C344.173 30.0977 342.1 34.1677 340.02 38.3811C342.047 38.0744 344.07 37.8077 346.09 37.5811V37.5911Z" fill="#6FD5CA"/>
<path d="M430.998 48.3712C430.992 49.595 430.646 50.7929 429.998 51.8312C429.195 53.4343 428.164 54.9129 426.938 56.2212C425.808 57.4522 424.559 58.5677 423.208 59.5512C422.507 59.9929 421.767 60.3711 420.998 60.6812C420.113 61.0433 419.2 61.3342 418.268 61.5512C417.281 61.779 416.278 61.936 415.268 62.0212C414.27 62.1079 413.266 62.1079 412.268 62.0212C410.35 61.9059 408.45 61.5704 406.608 61.0212C404.868 60.5279 403.332 60.0612 401.998 59.6212C400.71 59.0788 399.502 58.3621 398.408 57.4912C397.255 56.6146 396.301 55.5035 395.608 54.2312C394.39 52.1463 393.566 49.8547 393.178 47.4712C392.703 44.7251 392.535 41.9345 392.678 39.1512C392.834 36.0669 393.276 33.0037 393.998 30.0012C394.724 26.868 395.728 23.8058 396.998 20.8512C398.272 17.9045 399.822 15.0852 401.628 12.4312C403.367 9.83863 405.438 7.48522 407.788 5.43123C409.409 3.96581 411.346 2.89461 413.448 2.30123C415.204 1.82889 417.025 1.64981 418.838 1.77123C420.14 1.91544 421.429 2.14933 422.698 2.47123C424.007 2.79778 425.295 3.19843 426.558 3.67123C427.761 4.11957 428.939 4.63026 430.088 5.20123C431.119 5.71222 432.12 6.27975 433.088 6.90123C433.853 7.53321 434.556 8.23637 435.188 9.00123C435.714 9.64549 436.161 10.3505 436.518 11.1012C436.851 11.8096 437.087 12.5597 437.218 13.3312C437.358 14.1585 437.448 14.9933 437.488 15.8312C437.543 16.8972 437.543 17.9653 437.488 19.0312C437.422 20.1379 437.322 21.2346 437.188 22.3212C437.055 23.4079 436.878 24.4512 436.658 25.4512C436.461 26.3631 436.217 27.2642 435.928 28.1512C435.795 28.5046 435.662 28.8379 435.528 29.1512C435.409 29.4421 435.211 29.6946 434.958 29.8812C434.659 30.0748 434.314 30.1884 433.958 30.2112C433.355 30.2467 432.75 30.203 432.158 30.0812C430.898 29.8632 429.67 29.4939 428.498 28.9812C427.567 28.5759 426.711 28.0145 425.968 27.3212C425.304 26.6812 424.762 25.9255 424.368 25.0912C423.941 24.1608 423.648 23.1743 423.498 22.1612C423.37 21.3004 423.303 20.4315 423.298 19.5612C423.349 18.2712 423.282 16.9792 423.098 15.7012C423.066 15.2136 422.899 14.7445 422.617 14.3456C422.335 13.9468 421.947 13.6338 421.498 13.4412C420.612 13.1746 419.568 13.6846 418.368 14.9712C416.982 16.5092 415.755 18.1846 414.708 19.9712C413.399 22.167 412.233 24.4451 411.218 26.7912C410.218 29.0408 409.363 31.3522 408.658 33.7112C408.088 35.8888 407.654 38.0997 407.358 40.3312C407.078 42.3182 406.978 44.3263 407.058 46.3312C407.1 47.8882 407.394 49.4281 407.928 50.8912C408.061 51.4183 408.318 51.9059 408.679 52.3131C409.039 52.7202 409.491 53.0351 409.998 53.2312C411.772 53.8112 414.478 52.2346 418.118 48.5012C420.738 45.8346 424.155 45.1012 428.368 46.3012C430.068 46.7679 430.945 47.4579 430.998 48.3712Z" fill="#6FD5CA"/>
<path d="M479.277 12.0604C480.094 13.7121 480.667 15.4738 480.977 17.2904C481.473 20.7844 481.583 24.3222 481.307 27.8404C481.023 31.6714 480.353 35.464 479.307 39.1604C478.289 42.8488 476.86 46.4112 475.047 49.7804C473.36 52.9681 471.118 55.8296 468.427 58.2304C466.793 59.5405 464.897 60.4851 462.867 61.0004C460.66 61.4791 458.388 61.5805 456.147 61.3004C454.404 61.1139 452.671 60.8369 450.957 60.4704C449.268 60.1238 447.633 59.552 446.097 58.7704C444.834 58.1055 443.65 57.3004 442.567 56.3704C441.449 55.4326 440.522 54.2885 439.837 53.0004C438.72 50.8161 437.912 48.4872 437.437 46.0804C436.897 43.4087 436.652 40.6856 436.707 37.9604C436.825 32.0042 438.092 26.1268 440.437 20.6504C441.633 17.838 443.118 15.157 444.867 12.6504C446.628 10.1894 448.687 7.95576 450.997 6.00039C452.661 4.74694 454.548 3.82056 456.557 3.27039C458.55 2.6593 460.654 2.49876 462.717 2.80039C465.179 3.18178 467.597 3.80479 469.937 4.66039C471.983 5.37369 473.904 6.40648 475.627 7.72039C477.131 8.89878 478.374 10.3766 479.277 12.0604ZM461.737 15.5204C460.398 16.8425 459.235 18.3314 458.277 19.9504C457.054 21.9444 455.974 24.023 455.047 26.1704C454.096 28.3227 453.284 30.534 452.617 32.7904C451.989 34.9117 451.544 37.083 451.287 39.2804C451.026 41.3562 450.935 43.4499 451.017 45.5404C451.054 47.2464 451.368 48.9351 451.947 50.5404C452.12 51.1034 452.422 51.6186 452.828 52.0454C453.234 52.4723 453.733 52.7992 454.287 53.0004C454.787 53.1466 455.316 53.1683 455.826 53.0638C456.337 52.9592 456.814 52.7315 457.217 52.4004C458.419 51.5 459.454 50.3968 460.277 49.1404C461.428 47.4384 462.399 45.6221 463.177 43.7204C464.128 41.4457 464.917 39.1065 465.537 36.7204C466.15 34.456 466.618 32.1546 466.937 29.8304C467.276 27.5122 467.453 25.1732 467.467 22.8304C467.502 20.9145 467.291 19.0021 466.837 17.1404C466.417 15.5671 465.75 14.6471 464.837 14.3804C463.923 14.1137 462.89 14.4937 461.737 15.5204Z" fill="#6FD5CA"/>
<path d="M515.158 21.3375C516.491 15.7042 517.788 10.5108 519.048 5.7575C519.121 5.26064 519.306 4.78681 519.589 4.37128C519.871 3.95575 520.243 3.60923 520.678 3.3575C521.736 3.04611 522.864 3.07056 523.908 3.4275L525.708 3.8975C526.241 4.03126 526.763 4.20852 527.268 4.4275C527.774 4.6475 528.318 4.91417 528.898 5.2275C529.478 5.54083 530.144 5.94084 530.898 6.4275C531.403 6.66678 531.854 7.00526 532.225 7.42275C532.596 7.84024 532.879 8.32819 533.058 8.8575C533.203 9.86703 533.1 10.8967 532.758 11.8575C531.738 15.1442 530.671 18.8708 529.558 23.0375C528.444 27.2042 527.348 31.4408 526.268 35.7475C525.181 40.0542 524.138 44.2575 523.138 48.3575C522.138 52.4575 521.284 56.0642 520.578 59.1775C520.311 60.8642 518.978 61.4408 516.578 60.9075C514.451 60.4858 512.359 59.9076 510.318 59.1775C509.385 58.8412 508.535 58.3107 507.823 57.6211C507.111 56.9315 506.554 56.0986 506.188 55.1775C505.568 53.8042 504.934 52.2075 504.288 50.3875C503.641 48.5675 502.974 46.6042 502.288 44.4975C501.621 42.3908 500.954 40.1942 500.288 37.9075C499.621 35.6208 499.018 33.3175 498.478 30.9975C497.991 33.7508 497.491 36.5008 496.978 39.2475L495.518 47.1375C495.051 49.6442 494.631 51.9775 494.258 54.1375C493.884 56.2975 493.584 58.1708 493.358 59.7575C493.325 60.0446 493.23 60.321 493.08 60.5679C492.929 60.8148 492.727 61.0261 492.488 61.1875C491.712 61.3742 490.898 61.3148 490.158 61.0175L486.928 60.1875C485.814 59.8891 484.75 59.431 483.768 58.8275C482.937 58.4879 482.237 57.8924 481.768 57.1275C481.401 56.2779 481.273 55.3444 481.398 54.4275C481.484 53.2275 481.628 51.5175 481.828 49.2975C482.028 47.0775 482.294 44.5608 482.628 41.7475C482.961 38.9275 483.338 35.9108 483.758 32.6975C484.178 29.4842 484.634 26.2775 485.128 23.0775C485.614 19.8842 486.114 16.8008 486.628 13.8275C487.141 10.8542 487.641 8.21417 488.128 5.9075C488.183 5.38806 488.363 4.88962 488.652 4.45443C488.941 4.01925 489.331 3.66012 489.788 3.4075C490.847 3.06088 491.989 3.06088 493.048 3.4075C494.688 3.89417 496.284 4.38083 497.838 4.8675C499.5 5.39904 501.124 6.04388 502.698 6.7975C503.884 7.21958 504.918 7.98547 505.668 8.9975C506.35 10.1724 506.779 11.477 506.928 12.8275C507.148 14.1142 507.438 15.7575 507.798 17.7575C508.158 19.7575 508.558 21.9208 508.998 24.2475C509.444 26.5742 509.911 28.9708 510.398 31.4375C510.884 33.9042 511.371 36.2675 511.858 38.5275C512.744 32.7075 513.844 26.9775 515.158 21.3375Z" fill="#6FD5CA"/>
<path d="M585.919 21.3375C587.253 15.7042 588.549 10.5108 589.809 5.7575C589.883 5.26064 590.068 4.78681 590.35 4.37128C590.633 3.95575 591.005 3.60923 591.439 3.3575C592.497 3.04611 593.626 3.07056 594.669 3.4275L596.469 3.8975C597.003 4.03126 597.525 4.20852 598.03 4.4275C598.536 4.6475 599.079 4.91417 599.659 5.2275C600.239 5.54083 600.906 5.94084 601.659 6.4275C602.164 6.66678 602.616 7.00526 602.987 7.42275C603.358 7.84024 603.641 8.32819 603.819 8.8575C603.965 9.86703 603.862 10.8967 603.52 11.8575C602.506 15.1175 601.443 18.8308 600.33 22.9975C599.216 27.1642 598.106 31.4042 596.999 35.7175C595.913 40.0242 594.869 44.2275 593.869 48.3275C592.869 52.4275 592.016 56.0342 591.309 59.1475C591.043 60.8342 589.709 61.4108 587.309 60.8775C585.183 60.4558 583.091 59.8776 581.049 59.1475C580.117 58.8112 579.267 58.2807 578.555 57.5911C577.843 56.9015 577.285 56.0686 576.919 55.1475C576.299 53.7742 575.666 52.1775 575.02 50.3575C574.373 48.5375 573.706 46.5742 573.02 44.4675C572.353 42.3608 571.686 40.1642 571.02 37.8775C570.353 35.5908 569.759 33.2975 569.239 30.9975C568.753 33.7508 568.253 36.5008 567.739 39.2475L566.28 47.1375C565.813 49.6442 565.393 51.9775 565.02 54.1375C564.646 56.2975 564.346 58.1708 564.119 59.7575C564.086 60.0446 563.991 60.321 563.841 60.5679C563.691 60.8148 563.489 61.0261 563.249 61.1875C562.474 61.3742 561.66 61.3148 560.919 61.0175L557.689 60.1875C556.576 59.8891 555.512 59.431 554.53 58.8275C553.699 58.4879 552.999 57.8924 552.53 57.1275C552.163 56.2779 552.035 55.3444 552.159 54.4275C552.246 53.2275 552.39 51.5175 552.59 49.2975C552.79 47.0775 553.056 44.5608 553.39 41.7475C553.723 38.9275 554.1 35.9108 554.52 32.6975C554.94 29.4842 555.396 26.2775 555.89 23.0775C556.376 19.8842 556.876 16.8008 557.39 13.8275C557.903 10.8542 558.403 8.21417 558.89 5.9075C558.945 5.38806 559.125 4.88962 559.414 4.45443C559.703 4.01925 560.092 3.66012 560.549 3.4075C561.609 3.06088 562.75 3.06088 563.809 3.4075C565.449 3.89417 567.046 4.38083 568.599 4.8675C570.262 5.39904 571.886 6.04388 573.46 6.7975C574.646 7.21958 575.68 7.98547 576.429 8.9975C577.112 10.1724 577.541 11.477 577.689 12.8275C577.909 14.1142 578.199 15.7575 578.559 17.7575C578.919 19.7575 579.32 21.9208 579.76 24.2475C580.206 26.5742 580.673 28.9708 581.159 31.4375C581.646 33.9042 582.133 36.2675 582.619 38.5275C583.539 32.7075 584.639 26.9775 585.919 21.3375Z" fill="#6FD5CA"/>
<path d="M642.996 12.0604C643.814 13.7121 644.386 15.4738 644.697 17.2904C645.182 20.7822 645.282 24.3167 644.996 27.8304C644.713 31.6614 644.043 35.454 642.996 39.1504C641.979 42.8388 640.55 46.4012 638.736 49.7704C637.05 52.9581 634.808 55.8196 632.116 58.2204C630.48 59.5354 628.581 60.4835 626.546 61.0004C624.339 61.4791 622.067 61.5805 619.827 61.3004C618.083 61.1139 616.351 60.8369 614.637 60.4704C612.948 60.1238 611.313 59.552 609.777 58.7704C608.513 58.1055 607.329 57.3004 606.246 56.3704C605.129 55.4326 604.202 54.2885 603.517 53.0004C602.4 50.8161 601.592 48.4872 601.116 46.0804C600.576 43.4087 600.331 40.6856 600.387 37.9604C600.505 32.0042 601.772 26.1268 604.116 20.6504C605.313 17.838 606.798 15.157 608.546 12.6504C610.295 10.1918 612.341 7.95822 614.637 6.00039C616.301 4.74694 618.187 3.82056 620.197 3.27039C622.19 2.6593 624.294 2.49876 626.356 2.80039C628.818 3.18178 631.237 3.80479 633.577 4.66039C635.623 5.37369 637.543 6.40648 639.267 7.72039C640.799 8.89054 642.07 10.369 642.996 12.0604ZM625.457 15.5204C624.119 16.8394 622.956 18.3249 621.996 19.9404C620.774 21.9344 619.694 24.013 618.767 26.1604C617.816 28.3127 617.004 30.524 616.337 32.7804C615.704 34.9046 615.256 37.0793 614.996 39.2804C614.735 41.3562 614.645 43.4499 614.726 45.5404C614.764 47.2464 615.078 48.9351 615.656 50.5404C615.83 51.1034 616.131 51.6186 616.537 52.0454C616.943 52.4723 617.443 52.7992 617.996 53.0004C618.497 53.1466 619.025 53.1683 619.536 53.0638C620.047 52.9592 620.524 52.7315 620.926 52.4004C622.129 51.5098 623.168 50.4169 623.996 49.1704C625.147 47.4684 626.119 45.6521 626.897 43.7504C627.848 41.4757 628.636 39.1365 629.257 36.7504C629.87 34.486 630.338 32.1846 630.656 29.8604C630.996 27.5422 631.173 25.2032 631.186 22.8604C631.222 20.9445 631.01 19.0321 630.556 17.1704C630.136 15.5971 629.47 14.6771 628.556 14.4104C627.643 14.1437 626.596 14.5137 625.416 15.5204H625.457Z" fill="#6FD5CA"/>
<path d="M646.447 46.0994C647.327 45.9681 648.218 45.9246 649.107 45.9694C649.974 46.0103 650.833 46.1547 651.667 46.3994C652.456 46.62 653.207 46.957 653.897 47.3994C656.92 49.4431 660.248 50.9956 663.757 51.9994C666.55 52.666 668.57 52.4894 669.817 51.4694C669.935 51.417 670.039 51.3394 670.124 51.2421C670.209 51.1447 670.271 51.03 670.306 50.906C670.341 50.7819 670.349 50.6517 670.328 50.5244C670.308 50.3971 670.259 50.2759 670.187 50.1694C669.741 49.4895 669.179 48.8937 668.527 48.4094C667.707 47.7427 666.687 47.0094 665.467 46.2094C664.247 45.4094 662.95 44.5894 661.577 43.7494C660.203 42.9094 658.827 42.0327 657.447 41.1194C656.152 40.2714 654.906 39.3499 653.717 38.3594C652.472 37.3879 651.359 36.2584 650.407 34.9994C649.463 33.7551 648.711 32.3764 648.177 30.9094C647.637 29.4132 647.343 27.8395 647.307 26.2494C647.282 24.4868 647.552 22.7326 648.107 21.0594C648.562 19.2968 649.234 17.5972 650.107 15.9994C651.085 14.1843 652.219 12.4578 653.497 10.8394C654.811 9.17071 656.259 7.61219 657.827 6.17935C659.319 4.80299 660.936 3.56772 662.657 2.48935C663.299 2.02867 663.99 1.63969 664.717 1.32935C665.631 0.932406 666.592 0.653496 667.577 0.499354C668.72 0.317001 669.881 0.259996 671.037 0.329354C672.347 0.408452 673.642 0.643443 674.897 1.02935C676.958 1.77165 678.963 2.66059 680.897 3.68935C682.73 4.62776 684.44 5.78996 685.987 7.14935C686.789 7.89124 687.483 8.74303 688.047 9.67935C688.492 10.449 688.829 11.2769 689.047 12.1394C689.242 12.9117 689.352 13.7031 689.377 14.4994C689.377 15.2794 689.377 15.9994 689.377 16.6594C689.197 17.8127 688.953 19.1227 688.647 20.5894C688.34 22.056 688.02 23.526 687.687 24.9994C687.267 26.506 686.823 27.9494 686.357 29.3294C685.969 30.5174 685.491 31.6741 684.927 32.7894C684.566 33.5068 683.998 34.0991 683.297 34.4894C682.876 34.5955 682.439 34.6175 682.01 34.554C681.581 34.4905 681.168 34.3428 680.797 34.1194C674.717 32.0794 671.92 29.1494 672.407 25.3294C672.517 24.4099 672.684 23.4982 672.907 22.5994L673.637 19.4994C673.877 18.4594 674.087 17.4594 674.267 16.4994C674.432 15.7683 674.489 15.017 674.437 14.2694C674.37 13.716 674.147 13.3827 673.767 13.2694C673.387 13.156 672.777 13.4127 671.937 14.0394C671.032 14.5456 670.193 15.1602 669.437 15.8694C668.492 16.7276 667.623 17.6642 666.837 18.6694C666.012 19.7188 665.289 20.8438 664.677 22.0294C664.077 23.1693 663.652 24.393 663.417 25.6594C663.195 26.8483 663.219 28.0699 663.487 29.2494C663.785 30.478 664.46 31.5827 665.417 32.4094C666.754 33.7287 668.202 34.9298 669.747 35.9994C671.347 37.086 672.933 38.1394 674.507 39.1594C676.08 40.1794 677.567 41.1794 678.967 42.1594C680.234 43.0423 681.395 44.0692 682.427 45.2194C683.277 46.1489 683.873 47.2821 684.157 48.5094C684.378 49.7964 684.129 51.12 683.457 52.2394C682.931 53.2949 682.308 54.2992 681.597 55.2394C680.7 56.4066 679.619 57.4199 678.397 58.2394C676.9 59.2515 675.263 60.0367 673.537 60.5694C671.312 61.239 669 61.576 666.677 61.5694C663.088 61.6565 659.519 60.9993 656.197 59.6394C652.298 57.9263 648.746 55.5131 645.717 52.5194C643.763 50.8794 642.743 49.616 642.657 48.7294C642.617 48.3125 642.72 47.8947 642.949 47.5442C643.178 47.1936 643.519 46.931 643.917 46.7994C644.725 46.4534 645.576 46.2179 646.447 46.0994Z" fill="#6FD5CA"/>
<path d="M729.16 12.0604C729.977 13.7121 730.55 15.4738 730.86 17.2904C731.356 20.7844 731.466 24.3222 731.19 27.8404C730.906 31.6714 730.236 35.464 729.19 39.1604C728.193 42.839 726.788 46.3945 725 49.7604C723.313 52.9481 721.071 55.8096 718.38 58.2104C716.727 59.5366 714.806 60.4885 712.75 61.0004C710.543 61.4791 708.271 61.5805 706.03 61.3004C704.286 61.1139 702.554 60.8369 700.84 60.4704C699.151 60.1238 697.516 59.552 695.98 58.7704C694.717 58.1055 693.532 57.3004 692.45 56.3704C691.332 55.4326 690.405 54.2885 689.72 53.0004C688.603 50.8161 687.795 48.4872 687.32 46.0804C686.779 43.4087 686.535 40.6856 686.59 37.9604C686.708 32.0042 687.975 26.1268 690.32 20.6504C691.516 17.838 693.001 15.157 694.75 12.6504C696.498 10.1918 698.544 7.95822 700.84 6.00039C702.504 4.74694 704.39 3.82056 706.4 3.27039C708.393 2.6593 710.497 2.49876 712.56 2.80039C715.022 3.18178 717.44 3.80479 719.78 4.66039C721.826 5.37369 723.746 6.40648 725.47 7.72039C726.988 8.89468 728.245 10.3728 729.16 12.0604ZM711.62 15.5204C710.281 16.8425 709.118 18.3314 708.16 19.9504C706.937 21.9444 705.857 24.023 704.93 26.1704C703.979 28.3227 703.167 30.534 702.5 32.7904C701.871 34.9117 701.426 37.083 701.17 39.2804C700.909 41.3562 700.818 43.4499 700.9 45.5404C700.937 47.2464 701.251 48.9351 701.83 50.5404C702.002 51.1024 702.302 51.6169 702.706 52.0437C703.11 52.4704 703.608 52.7979 704.16 53.0004C704.66 53.1466 705.188 53.1683 705.699 53.0638C706.21 52.9592 706.687 52.7315 707.09 52.4004C708.291 51.5 709.327 50.3968 710.15 49.1404C711.3 47.4384 712.272 45.6221 713.05 43.7204C714.001 41.4457 714.789 39.1065 715.41 36.7204C716.023 34.456 716.491 32.1546 716.81 29.8304C717.149 27.5122 717.326 25.1732 717.34 22.8304C717.375 20.9145 717.163 19.0021 716.71 17.1404C716.29 15.5671 715.623 14.6471 714.71 14.3804C713.796 14.1137 712.766 14.4937 711.62 15.5204Z" fill="#6FD5CA"/>
<path d="M772.72 14.1203L766.4 14.7503L763.5 26.3303C762.5 30.3303 761.533 34.2903 760.6 38.2103C759.667 42.1303 758.8 45.9603 758 49.7003C757.18 53.427 756.46 56.9103 755.84 60.1503C755.833 60.3893 755.773 60.6236 755.664 60.8364C755.555 61.0491 755.4 61.2349 755.21 61.3803C754.792 61.5989 754.32 61.6926 753.85 61.6503C753.171 61.6087 752.499 61.4844 751.85 61.2803L749.32 60.5503C748.461 60.308 747.616 60.0175 746.79 59.6803C746.099 59.4101 745.457 59.0284 744.89 58.5503C744.396 58.1327 744.018 57.5957 743.79 56.9903C743.562 56.2916 743.538 55.5424 743.72 54.8303C743.853 52.697 744.12 50.0803 744.52 46.9803C744.92 43.8803 745.397 40.597 745.95 37.1303C746.504 33.6703 747.114 30.177 747.78 26.6503C748.447 23.1237 749.114 19.8503 749.78 16.8303C748.494 17.0503 747.25 17.2403 746.05 17.4003C745.038 17.5212 744.036 17.7116 743.05 17.9703C742.163 18.2314 741.224 18.2658 740.32 18.0703C739.387 17.7201 738.56 17.1345 737.92 16.3703C736.904 15.3211 736.042 14.1325 735.36 12.8403C734.587 11.4203 733.954 10.2237 733.46 9.25033C732.967 8.277 732.833 7.61033 733.06 7.25033C733.519 6.81526 734.097 6.52636 734.72 6.42033C737.34 5.887 740.303 5.40033 743.61 4.96033C746.917 4.52033 750.29 4.12033 753.73 3.76033C757.17 3.407 760.543 3.107 763.85 2.86033C767.157 2.61366 770.12 2.447 772.74 2.36033C773.754 2.30515 774.77 2.43043 775.74 2.73033C776.361 2.99349 776.899 3.41823 777.3 3.96033C778.179 4.96738 778.918 6.08729 779.5 7.29033C780.052 8.42337 780.497 9.60509 780.83 10.8203C781.095 11.4952 781.095 12.2455 780.83 12.9203C780.584 13.3003 779.774 13.5337 778.4 13.6203L772.72 14.1203Z" fill="#6FD5CA"/>
<path d="M790.2 52.4904C789.687 54.9771 789.187 57.4171 788.7 59.8104C788.58 60.3709 788.26 60.8686 787.8 61.2104C787.12 61.4451 786.38 61.4451 785.7 61.2104C784.5 60.8971 783.433 60.6538 782.5 60.4804C781.572 60.3044 780.676 59.991 779.84 59.5504C779.092 59.1608 778.487 58.5448 778.11 57.7904C777.775 56.9116 777.661 55.9636 777.78 55.0304C777.867 54.0971 777.99 52.7438 778.15 50.9704C778.31 49.1971 778.5 47.1971 778.72 44.9704C778.94 42.7304 779.197 40.3238 779.49 37.7504C779.783 35.1771 780.093 32.6038 780.42 30.0304C780.753 27.4571 781.12 24.9604 781.52 22.5404C781.92 20.1204 782.337 17.9404 782.77 16.0004C783.121 14.3655 783.609 12.7631 784.23 11.2104C784.522 10.2689 785.102 9.44313 785.89 8.85045C788.63 7.61711 791.507 6.39045 794.52 5.17045C797.374 4.01403 800.34 3.15613 803.37 2.61045C806.093 2.10466 808.882 2.06071 811.62 2.48045C814.211 2.90366 816.602 4.13579 818.45 6.00045C820.006 7.68821 821.421 9.50098 822.68 11.4204C824.065 13.6016 825.079 15.9975 825.68 18.5104C826.253 21.4838 826.03 23.9238 825.01 25.8304C823.16 29.2221 820.523 32.12 817.32 34.2804C813.305 37.105 809.013 39.514 804.51 41.4704C805.53 42.6238 806.65 43.8438 807.87 45.1304C809.09 46.4171 810.333 47.7071 811.6 49.0004C812.887 50.2871 814.163 51.5304 815.43 52.7304C816.697 53.9304 817.887 54.9604 819 55.8204C819.887 56.5738 820.287 57.1738 820.2 57.6204C820.004 58.2076 819.602 58.7045 819.07 59.0204C818.492 59.5288 817.809 59.9043 817.07 60.1204C816.517 60.2338 815.85 60.3571 815.07 60.4904C814.016 60.7618 812.922 60.8397 811.84 60.7204C810.379 60.5047 808.983 59.9723 807.75 59.1604C806.73 58.4538 805.553 57.5671 804.22 56.5004C802.887 55.4338 801.48 54.2671 800 53.0004C798.58 51.7138 797.16 50.3804 795.74 49.0004C794.376 47.6634 793.087 46.2512 791.88 44.7704C791.293 47.4371 790.733 50.0104 790.2 52.4904ZM797 24.9404C796.333 27.5138 795.58 30.2638 794.74 33.1904C797.596 32.2647 800.332 31.0025 802.89 29.4304C805.039 28.1285 807.049 26.6106 808.89 24.9004C810.272 23.644 811.44 22.1715 812.35 20.5404C812.986 19.6036 813.227 18.4537 813.02 17.3404C812.487 16.1004 810.91 15.4804 808.29 15.4804C806.858 15.4976 805.431 15.6551 804.03 15.9504C802.286 16.307 800.595 16.8885 799 17.6804C798.333 19.9471 797.667 22.3671 797 24.9404Z" fill="#6FD5CA"/>
<path d="M867.937 12.0604C868.754 13.7121 869.327 15.4738 869.637 17.2904C870.142 20.78 870.263 24.3145 869.997 27.8304C869.713 31.6614 869.043 35.454 867.997 39.1504C866.979 42.8388 865.55 46.4012 863.737 49.7704C862.05 52.9581 859.808 55.8196 857.117 58.2204C855.475 59.5379 853.568 60.4861 851.527 61.0004C849.32 61.4791 847.048 61.5805 844.807 61.3004C843.064 61.1139 841.331 60.8369 839.617 60.4704C837.928 60.1238 836.294 59.552 834.757 58.7704C833.494 58.1055 832.31 57.3004 831.227 56.3704C830.109 55.4326 829.182 54.2885 828.497 53.0004C827.38 50.8161 826.572 48.4872 826.097 46.0804C825.557 43.4087 825.312 40.6856 825.367 37.9604C825.486 32.0042 826.752 26.1268 829.097 20.6504C830.294 17.838 831.778 15.157 833.527 12.6504C835.276 10.1918 837.321 7.95822 839.617 6.00039C841.281 4.74694 843.168 3.82056 845.177 3.27039C847.17 2.6593 849.274 2.49876 851.337 2.80039C853.799 3.18178 856.217 3.80479 858.557 4.66039C860.603 5.37369 862.524 6.40648 864.247 7.72039C865.765 8.89468 867.022 10.3728 867.937 12.0604ZM850.397 15.5204C849.058 16.8425 847.896 18.3314 846.937 19.9504C845.714 21.9444 844.635 24.023 843.707 26.1704C842.756 28.3227 841.944 30.534 841.277 32.7904C840.666 34.9132 840.237 37.0845 839.997 39.2804C839.736 41.3562 839.646 43.4499 839.727 45.5404C839.764 47.2464 840.078 48.9351 840.657 50.5404C840.825 51.0982 841.119 51.6101 841.516 52.0365C841.913 52.463 842.403 52.7927 842.947 53.0004C843.447 53.1466 843.976 53.1683 844.486 53.0638C844.997 52.9592 845.474 52.7315 845.877 52.4004C847.079 51.5 848.114 50.3968 848.937 49.1404C850.088 47.4384 851.06 45.6221 851.837 43.7204C852.788 41.4457 853.577 39.1065 854.197 36.7204C854.811 34.456 855.278 32.1546 855.597 29.8304C855.936 27.5122 856.113 25.1732 856.127 22.8304C856.162 20.9145 855.951 19.0021 855.497 17.1404C855.077 15.5671 854.41 14.6471 853.497 14.3804C852.584 14.1137 851.55 14.4937 850.397 15.5204Z" fill="#6FD5CA"/>
<path d="M871.437 46.0994C872.318 45.9781 873.209 45.9447 874.097 45.9994C874.964 46.0403 875.824 46.1847 876.657 46.4294C877.446 46.65 878.198 46.987 878.887 47.4294C881.909 49.4616 885.234 51.0039 888.737 51.9994C891.53 52.666 893.55 52.4894 894.797 51.4694C894.915 51.417 895.02 51.3394 895.104 51.2421C895.189 51.1447 895.251 51.03 895.286 50.906C895.322 50.7819 895.329 50.6517 895.309 50.5244C895.288 50.3971 895.24 50.2759 895.167 50.1694C894.722 49.4895 894.16 48.8937 893.507 48.4094C892.687 47.7427 891.667 47.0094 890.447 46.2094C889.227 45.4094 887.93 44.5894 886.557 43.7494C885.184 42.9094 883.807 42.0327 882.427 41.1194C881.132 40.2714 879.887 39.3499 878.697 38.3594C877.456 37.3873 876.347 36.2578 875.397 34.9994C874.454 33.7551 873.702 32.3764 873.167 30.9094C872.627 29.4132 872.334 27.8395 872.297 26.2494C872.272 24.4868 872.543 22.7326 873.097 21.0594C873.553 19.2968 874.225 17.5972 875.097 15.9994C876.075 14.1843 877.21 12.4578 878.487 10.8394C879.801 9.17071 881.249 7.61219 882.817 6.17935C884.31 4.80299 885.927 3.56772 887.647 2.48935C888.289 2.02867 888.98 1.63969 889.707 1.32935C890.621 0.932406 891.582 0.653496 892.567 0.499354C893.711 0.317001 894.871 0.259996 896.027 0.329354C897.337 0.408452 898.633 0.643443 899.887 1.02935C901.948 1.77165 903.953 2.66059 905.887 3.68935C907.725 4.61073 909.441 5.75612 910.997 7.09935C911.8 7.84124 912.493 8.69303 913.057 9.62935C913.503 10.399 913.839 11.2269 914.057 12.0894C914.252 12.8618 914.363 13.6531 914.387 14.4494C914.387 15.2294 914.387 15.9494 914.387 16.6094C914.207 17.7627 913.964 19.0727 913.657 20.5394C913.35 22.006 913.02 23.4927 912.667 24.9994C912.247 26.506 911.804 27.9494 911.337 29.3294C910.949 30.5174 910.471 31.6741 909.907 32.7894C909.547 33.5068 908.979 34.0991 908.277 34.4894C907.857 34.5955 907.419 34.6175 906.99 34.554C906.561 34.4905 906.149 34.3428 905.777 34.1194C899.697 32.0794 896.9 29.1494 897.387 25.3294C897.497 24.4099 897.664 23.4982 897.887 22.5994L898.617 19.4994C898.857 18.4594 899.067 17.4594 899.247 16.4994C899.412 15.7683 899.47 15.017 899.417 14.2694C899.35 13.716 899.127 13.3827 898.747 13.2694C898.367 13.156 897.757 13.4127 896.917 14.0394C896.013 14.5456 895.173 15.1602 894.417 15.8694C893.473 16.7276 892.603 17.6642 891.817 18.6694C890.993 19.7188 890.27 20.8438 889.657 22.0294C889.057 23.1693 888.633 24.393 888.397 25.6594C888.176 26.8483 888.199 28.0699 888.467 29.2494C888.766 30.478 889.44 31.5827 890.397 32.4094C891.734 33.7287 893.183 34.9298 894.727 35.9994C896.327 37.086 897.914 38.1394 899.487 39.1594C901.06 40.1794 902.547 41.1794 903.947 42.1594C905.215 43.0423 906.376 44.0692 907.407 45.2194C908.257 46.1489 908.853 47.2821 909.137 48.5094C909.358 49.7964 909.11 51.12 908.437 52.2394C907.912 53.2949 907.289 54.2992 906.577 55.2394C905.681 56.4066 904.6 57.4199 903.377 58.2394C901.881 59.2515 900.243 60.0367 898.517 60.5694C896.292 61.239 893.981 61.576 891.657 61.5694C888.068 61.6565 884.5 60.9993 881.177 59.6394C877.278 57.9263 873.726 55.5131 870.697 52.5194C868.744 50.8794 867.724 49.616 867.637 48.7294C867.598 48.3125 867.701 47.8947 867.93 47.5442C868.159 47.1936 868.5 46.931 868.897 46.7994C869.708 46.4525 870.563 46.2171 871.437 46.0994Z" fill="#6FD5CA"/>
</svg>
