<svg viewBox="0 0 433 71" fill="none" xmlns="http://www.w3.org/2000/svg">
<path d="M11.0001 25.6698C12.8668 25.2231 14.8168 24.8331 16.8501 24.4998C18.8501 24.1498 20.9801 23.8298 23.1301 23.5698C25.2801 23.3098 27.4101 23.1298 29.5401 23.0598C31.6701 22.9898 32.8601 23.8098 33.4301 25.3998C33.8529 26.1314 34.1885 26.9101 34.4301 27.7198C34.6001 28.4098 34.7801 29.1698 34.9601 29.9798C35.0541 30.2882 35.0831 30.6127 35.0452 30.9329C35.0074 31.253 34.9035 31.5619 34.7401 31.8398C34.1641 32.2784 33.464 32.5234 32.7401 32.5398L26.1401 33.2798C23.8601 33.5298 21.4701 33.8298 18.9501 34.1898C18.4235 35.7831 17.9268 37.4498 17.4601 39.1898C17.0001 40.9098 16.4601 42.7098 15.9201 44.5898C16.9801 44.4498 18.0501 44.3498 19.1101 44.2698C20.1701 44.1898 21.3101 44.1498 22.5201 44.1198C23.3096 44.057 24.1037 44.1452 24.8601 44.3798C25.4914 44.6553 26.0025 45.1487 26.3001 45.7698C26.7067 46.4325 27.0419 47.1364 27.3001 47.8698C27.5301 48.5598 27.7301 49.2598 27.9101 49.9698C28.0901 50.6798 28.2201 51.3398 27.9901 51.6198C27.4626 52.035 26.828 52.2916 26.1601 52.3598C24.0301 52.7598 21.8501 53.1298 19.6401 53.4798C17.4301 53.8298 15.2801 54.2298 13.2201 54.6498C12.9401 55.7898 12.6701 56.8598 12.4201 57.8698C12.1701 58.8798 11.9101 59.8698 11.6301 60.8698C13.2901 60.5898 14.8801 60.3598 16.3901 60.1798C17.9001 59.9998 19.5401 59.8598 21.3101 59.7498C22.0903 59.6544 22.8818 59.7294 23.6301 59.9698C24.2121 60.224 24.6938 60.6635 25.0001 61.2198C25.392 61.8555 25.7267 62.5248 26.0001 63.2198C26.2301 63.8398 26.4901 64.4698 26.7701 65.1098C26.9602 65.5779 26.9602 66.1017 26.7701 66.5698C26.6001 66.8398 26.0301 67.0598 25.0701 67.2398C22.8001 67.6598 20.4901 68.1098 18.1501 68.5698C15.8101 69.0298 13.5801 69.4498 11.4501 69.8398C10.4119 70.1787 9.30709 70.2611 8.23013 70.0798C7.55928 69.9124 6.92069 69.6353 6.34013 69.2598C5.73013 68.8698 5.16013 68.4698 4.61013 68.0598C4.06013 67.6498 3.41013 67.1298 2.67013 66.4898C2.07658 66.0138 1.59517 65.4129 1.26013 64.7298C0.906609 63.9682 0.768277 63.1244 0.860129 62.2898L5.91013 26.8898C7.44013 26.4998 9.13013 26.0998 11.0001 25.6698Z" fill="white"/>
<path d="M57.9298 38.2299C58.9298 33.7299 60.0198 29.5699 61.0498 25.7799C61.1096 25.3832 61.2573 25.0049 61.4823 24.6727C61.7072 24.3405 62.0036 24.0628 62.3498 23.8599C63.1943 23.6101 64.0955 23.6276 64.9298 23.9099L66.3698 24.2899C66.7973 24.3953 67.2154 24.5358 67.6198 24.7099C68.0298 24.8899 68.4598 25.0999 68.9298 25.3499C69.3998 25.5999 69.9298 25.9199 70.5198 26.3499C70.9238 26.5403 71.2853 26.8102 71.5825 27.1436C71.8798 27.4769 72.1067 27.8668 72.2498 28.2899C72.3577 29.0754 72.2719 29.8753 71.9998 30.6199C71.1898 33.2499 70.3298 36.2299 69.4498 39.5599C68.5698 42.8899 67.6798 46.2899 66.8098 49.7299C65.9398 53.1699 65.1098 56.5299 64.3098 59.8099C63.5098 63.0899 62.8298 65.9799 62.3098 68.4599C62.0998 69.8099 61.0398 70.2699 59.1198 69.8399C57.4219 69.5017 55.7508 69.0405 54.1198 68.4599C53.3759 68.1909 52.6973 67.7676 52.1286 67.2179C51.5599 66.6681 51.1138 66.0042 50.8198 65.2699C50.3198 64.1699 49.8198 62.8899 49.2998 61.4399C48.7798 59.9899 48.2998 58.4399 47.7298 56.7299C47.1598 55.0199 46.6698 53.2799 46.1298 51.4599C45.5898 49.6399 45.1298 47.7899 44.6398 45.9499C44.2464 48.1499 43.8498 50.3499 43.4498 52.5499C43.0498 54.7499 42.6564 56.8499 42.2698 58.8499C41.9031 60.8499 41.5698 62.7133 41.2698 64.4399C40.9698 66.1599 40.7298 67.6599 40.5598 68.9399C40.531 69.1688 40.4537 69.389 40.3329 69.5856C40.2122 69.7822 40.0509 69.9507 39.8598 70.0799C39.247 70.2512 38.5956 70.2232 37.9998 69.9999L35.4198 69.3399C34.5275 69.0979 33.6753 68.7274 32.8898 68.2399C32.2392 67.9635 31.6905 67.4918 31.3198 66.8899C31.0147 66.1959 30.904 65.432 30.9998 64.6799C31.0698 63.6799 31.1798 62.3599 31.3398 60.5799C31.4998 58.7999 31.7198 56.7999 31.9798 54.5799C32.2398 52.3599 32.5498 49.9199 32.8898 47.3499C33.2298 44.7799 33.5898 42.2099 33.9798 39.6499C34.3698 37.0899 34.7698 34.6499 35.1798 32.2599C35.5898 29.8699 35.9798 27.7699 36.3698 25.9199C36.4151 25.5044 36.5596 25.1059 36.791 24.7579C37.0225 24.4098 37.3341 24.1224 37.6998 23.9199C38.5476 23.6421 39.462 23.6421 40.3098 23.9199L44.1398 25.0999C45.4604 25.5197 46.7502 26.0309 47.9998 26.6299C48.9326 26.9645 49.7464 27.5662 50.3398 28.3599C50.8836 29.2987 51.2243 30.3412 51.3398 31.4199L52.0298 35.3599C52.3231 36.9533 52.6564 38.6833 53.0298 40.5499C53.4031 42.4166 53.7764 44.3299 54.1498 46.2899C54.5431 48.2899 54.9331 50.1799 55.3198 51.9599C56.0198 47.3199 56.8898 42.7433 57.9298 38.2299Z" fill="white"/>
<path d="M99.1302 59.8401C99.1172 60.8227 98.8297 61.7822 98.3002 62.6101C97.6555 63.8912 96.8304 65.0732 95.8502 66.1201C94.9424 67.1056 93.9373 67.9968 92.8502 68.7801C92.2867 69.1358 91.6907 69.4371 91.0702 69.6801C90.364 69.973 89.6349 70.2072 88.8902 70.3801C88.0996 70.5581 87.2977 70.6818 86.4902 70.7501C85.685 70.8199 84.8753 70.8199 84.0702 70.7501C82.5472 70.6661 81.0381 70.4146 79.5702 70.0001C78.2202 69.5901 77.0102 69.2101 75.9502 68.8501C74.918 68.4219 73.9517 67.8496 73.0802 67.1501C72.1564 66.4493 71.3927 65.5595 70.8402 64.5401C69.8658 62.8752 69.2081 61.0444 68.9002 59.1401C68.5195 56.9452 68.3854 54.7147 68.5002 52.4901C68.6075 50.0344 68.9422 47.5939 69.5002 45.2001C70.1077 42.6822 70.9445 40.2253 72.0002 37.8601C73.0163 35.504 74.2553 33.2504 75.7002 31.1301C77.0915 29.0677 78.7454 27.1953 80.6202 25.5601C81.9168 24.3933 83.4628 23.5382 85.1402 23.0601C86.547 22.6817 88.0069 22.5398 89.4602 22.6401C90.4993 22.7503 91.5288 22.9375 92.5402 23.2001C93.5878 23.4564 94.6195 23.7736 95.6302 24.1501C96.5904 24.5121 97.5316 24.9226 98.4502 25.3801C99.2746 25.7829 100.073 26.2371 100.84 26.7401C101.456 27.2376 102.019 27.7972 102.52 28.4101C102.941 28.9267 103.3 29.4905 103.59 30.0901C103.853 30.6559 104.038 31.2547 104.14 31.8701C104.253 32.5318 104.326 33.1996 104.36 33.8701C104.36 34.6834 104.36 35.5334 104.36 36.4201C104.36 37.3067 104.28 38.1867 104.12 39.0601C104.01 39.9301 103.87 40.7601 103.7 41.5601C103.53 42.3601 103.32 43.0701 103.11 43.7101C103 44.0001 102.9 44.2601 102.79 44.5101C102.695 44.7429 102.539 44.9464 102.34 45.1001C102.092 45.259 101.805 45.3487 101.51 45.3601C101.031 45.3889 100.55 45.3553 100.08 45.2601C99.0724 45.0825 98.089 44.7872 97.1502 44.3801C96.4127 44.0537 95.7364 43.6039 95.1502 43.0501C94.6168 42.5374 94.1828 41.9305 93.8702 41.2601C93.5285 40.5174 93.2961 39.7293 93.1802 38.9201C93.076 38.2349 93.0225 37.5431 93.0202 36.8501C93.0577 35.8174 93.0041 34.7834 92.8602 33.7601C92.8179 33.3684 92.6673 32.9962 92.4253 32.6853C92.1833 32.3745 91.8595 32.1372 91.4902 32.0001C90.7802 31.7901 89.9502 32.2001 88.9902 33.2201C87.8786 34.4492 86.8968 35.7896 86.0602 37.2201C85.0146 38.9786 84.0827 40.8024 83.2702 42.6801C82.4887 44.4798 81.8208 46.3268 81.2702 48.2101C80.8285 49.9545 80.4945 51.7246 80.2702 53.5101C80.0482 55.0964 79.9679 56.6994 80.0302 58.3001C80.0619 59.5427 80.295 60.772 80.7202 61.9401C80.839 62.3569 81.0564 62.7389 81.3541 63.054C81.6517 63.369 82.0208 63.6078 82.4302 63.7501C83.8502 64.2167 86.0135 62.9601 88.9202 59.9801C91.0135 57.8467 93.7469 57.2601 97.1202 58.2201C98.3735 58.5534 99.0435 59.0934 99.1302 59.8401Z" fill="white"/>
<path d="M104.08 59.4902C103.726 57.6212 103.556 55.7223 103.57 53.8202C103.577 51.6334 103.721 49.4491 104 47.2802C104.28 44.9669 104.654 42.6335 105.12 40.2802C105.58 37.9102 106.12 35.5202 106.69 33.1302C107.26 30.7402 107.88 28.4002 108.52 26.1302C108.8 25.1302 109.22 24.4802 109.77 24.2602C110.62 24.0724 111.509 24.1672 112.3 24.5302C113.353 24.849 114.377 25.2572 115.36 25.7502C116.354 26.2633 117.306 26.8517 118.21 27.5102C119.094 28.0422 119.772 28.8569 120.135 29.8225C120.498 30.788 120.525 31.8478 120.21 32.8302C119.64 34.6802 119.04 36.6702 118.42 38.8302C117.8 40.9902 117.23 43.1502 116.69 45.3502C116.15 47.5502 115.69 49.7002 115.34 51.7902C114.988 53.6532 114.757 55.5372 114.65 57.4302C114.542 58.8189 114.63 60.2158 114.91 61.5802C114.955 62.0283 115.126 62.4544 115.404 62.8086C115.682 63.1628 116.056 63.4304 116.48 63.5802C117.44 63.8335 118.38 63.3735 119.3 62.2002C120.398 60.7047 121.286 59.0662 121.94 57.3302C122.865 54.9714 123.663 52.5646 124.33 50.1202C125.09 47.3802 125.8 44.5669 126.46 41.6802C127.12 38.7935 127.714 35.9469 128.24 33.1402C128.78 30.3402 129.24 27.8302 129.68 25.6302C129.75 24.5702 130.14 23.9302 130.85 23.7202C131.701 23.5093 132.594 23.5369 133.43 23.8002C134.544 24.0827 135.623 24.4851 136.65 25.0002C137.8 25.5802 138.86 26.1602 139.82 26.7302C140.228 26.9818 140.61 27.2732 140.96 27.6002C141.205 27.8332 141.396 28.1164 141.52 28.4302C141.63 28.7271 141.668 29.0459 141.63 29.3602C141.58 29.7641 141.507 30.1648 141.41 30.5602C140.35 35.6269 139.277 40.2935 138.19 44.5602C137.244 48.3676 136.1 52.1228 134.76 55.8102C133.746 58.6776 132.425 61.427 130.82 64.0102C129.648 65.9648 128.022 67.6079 126.08 68.8002C124.899 69.364 123.648 69.7676 122.36 70.0002C120.953 70.2367 119.523 70.3005 118.1 70.1902C115.36 70.1024 112.671 69.42 110.22 68.1902C109.33 67.6923 108.493 67.106 107.72 66.4402C106.919 65.7238 106.243 64.8789 105.72 63.9402C104.923 62.5617 104.368 61.0565 104.08 59.4902V59.4902Z" fill="white"/>
<path d="M149.21 25.67C151.07 25.2233 153.02 24.8333 155.06 24.5C157.06 24.15 159.2 23.83 161.34 23.57C163.48 23.31 165.63 23.13 167.76 23.06C169.89 22.99 171.07 23.81 171.64 25.4C172.063 26.1316 172.399 26.9103 172.64 27.72C172.82 28.41 172.99 29.17 173.17 29.98C173.263 30.2881 173.292 30.6118 173.256 30.9315C173.22 31.2512 173.119 31.5603 172.96 31.84C172.383 32.2762 171.683 32.5209 170.96 32.54L164.36 33.28C162.09 33.53 159.69 33.83 157.18 34.19C156.64 35.78 156.18 37.44 155.69 39.19C155.2 40.94 154.69 42.71 154.14 44.59C155.21 44.45 156.27 44.35 157.33 44.27C158.39 44.19 159.53 44.15 160.74 44.12C161.53 44.0572 162.324 44.1454 163.08 44.38C163.713 44.6525 164.225 45.1467 164.52 45.77C164.927 46.4327 165.262 47.1366 165.52 47.87C165.75 48.56 165.96 49.26 166.14 49.97C166.32 50.68 166.45 51.34 166.22 51.62C165.687 52.0327 165.05 52.2889 164.38 52.36C162.253 52.76 160.08 53.1333 157.86 53.48C155.64 53.8267 153.503 54.2167 151.45 54.65C151.16 55.79 150.9 56.86 150.65 57.87C150.4 58.88 150.13 59.87 149.85 60.87C151.52 60.59 153.11 60.36 154.61 60.18C156.11 60 157.76 59.86 159.54 59.75C160.317 59.6551 161.105 59.7301 161.85 59.97C162.45 60.2219 162.947 60.6695 163.26 61.24C163.655 61.8738 163.99 62.5434 164.26 63.24C164.49 63.86 164.74 64.49 165.03 65.13C165.22 65.5981 165.22 66.1219 165.03 66.59C164.85 66.86 164.28 67.08 163.33 67.26C161.05 67.68 158.75 68.13 156.41 68.59C154.07 69.05 151.83 69.47 149.7 69.86C148.662 70.1989 147.557 70.2813 146.48 70.1C145.809 69.9326 145.171 69.6555 144.59 69.28C143.99 68.89 143.41 68.49 142.86 68.08C142.31 67.67 141.66 67.15 140.92 66.51C140.332 66.0285 139.852 65.4289 139.51 64.75C139.157 63.9884 139.018 63.1446 139.11 62.31L144.17 26.91C145.65 26.5 147.35 26.1 149.21 25.67ZM169.49 10.4C168.01 11.2533 166.43 12.1033 164.75 12.95C163.06 13.8 161.32 14.62 159.51 15.4C157.7 16.18 155.94 16.87 154.24 17.47C153.476 17.7948 152.626 17.8615 151.82 17.66C150.767 17.4071 149.757 17.0029 148.82 16.46C148.82 16.46 148.75 16.46 148.5 16.22C148.237 16.0084 148.028 15.7377 147.89 15.43C147.73 15.0798 147.675 14.691 147.73 14.31C147.73 13.9 148.13 13.5 148.73 13.11C151.643 11.7767 154.623 10.2967 157.67 8.67C160.527 7.17582 163.25 5.43946 165.81 3.48C166.425 2.97625 167.206 2.71958 168 2.76C169.149 2.87327 170.257 3.24598 171.24 3.85C171.912 4.16724 172.438 4.7287 172.71 5.42C173.003 6.268 173.171 7.15382 173.21 8.05C172.203 8.75667 170.963 9.54 169.49 10.4Z" fill="white"/>
<path d="M196.15 38.2299C197.15 33.7299 198.23 29.5699 199.26 25.7799C199.321 25.3823 199.47 25.0034 199.697 24.6711C199.924 24.3389 200.222 24.0617 200.57 23.8599C201.415 23.6095 202.316 23.6269 203.15 23.9099C203.68 24.0599 204.15 24.1799 204.59 24.2899C205.017 24.3968 205.435 24.5372 205.84 24.7099C206.24 24.8899 206.68 25.0999 207.14 25.3499C207.6 25.5999 208.14 25.9199 208.74 26.3499C209.142 26.5436 209.502 26.8146 209.798 27.1475C210.095 27.4804 210.324 27.8687 210.47 28.2899C210.578 29.0878 210.496 29.8999 210.23 30.6599C209.41 33.2933 208.557 36.2733 207.67 39.5999C206.783 42.9266 205.893 46.3033 205 49.7299C204.127 53.1699 203.293 56.5299 202.5 59.8099C201.7 63.0899 201.01 65.9799 200.5 68.4599C200.28 69.8099 199.22 70.2699 197.3 69.8399C195.602 69.5017 193.931 69.0405 192.3 68.4599C191.557 68.1892 190.88 67.7654 190.311 67.2158C189.742 66.6662 189.296 66.0033 189 65.2699C188.5 64.1699 188 62.8899 187.48 61.4399C186.96 59.9899 186.48 58.4399 185.91 56.7299C185.34 55.0199 184.85 53.2799 184.32 51.4599C183.79 49.6399 183.32 47.7899 182.83 45.9499C182.443 48.1499 182.044 50.3499 181.63 52.5499L180.46 58.8499C180.094 60.8499 179.76 62.7133 179.46 64.4399C179.16 66.1666 178.92 67.6666 178.74 68.9399C178.714 69.1686 178.639 69.3889 178.52 69.5857C178.401 69.7825 178.241 69.9512 178.05 70.0799C177.432 70.2353 176.781 70.1897 176.19 69.9499L173.6 69.2899C172.71 69.0497 171.861 68.679 171.08 68.1899C170.428 67.9164 169.878 67.444 169.51 66.8399C169.215 66.1608 169.111 65.4138 169.21 64.6799C169.28 63.6799 169.4 62.3599 169.56 60.5799C169.72 58.7999 169.93 56.7999 170.2 54.5799C170.47 52.3599 170.77 49.9199 171.1 47.3499C171.43 44.7799 171.8 42.2099 172.19 39.6499C172.58 37.0899 172.98 34.6499 173.39 32.2599C173.8 29.8699 174.2 27.7699 174.59 25.9199C174.633 25.5037 174.777 25.1042 175.008 24.7557C175.24 24.4073 175.553 24.1205 175.92 23.9199C176.768 23.6421 177.682 23.6421 178.53 23.9199L182.36 25.0999C183.688 25.5217 184.985 26.0363 186.24 26.6399C187.174 26.9775 187.99 27.5783 188.59 28.3699C189.13 29.3106 189.47 30.3522 189.59 31.4299C189.76 32.4299 189.99 33.7699 190.28 35.3699C190.57 36.9699 190.88 38.6899 191.28 40.5599C191.68 42.4299 192 44.3299 192.39 46.2999C192.78 48.2699 193.17 50.1599 193.56 51.9699C194.24 47.3233 195.103 42.7433 196.15 38.2299Z" fill="white"/>
<path d="M239.66 32.4601L234.6 32.9601C233.86 35.9601 233.08 39.0301 232.29 42.2201C231.5 45.4101 230.72 48.5801 229.97 51.7201C229.22 54.8601 228.52 57.9201 227.87 60.9001C227.22 63.8801 226.64 66.6701 226.14 69.2601C226.138 69.4548 226.091 69.6465 226.002 69.82C225.914 69.9935 225.786 70.1441 225.63 70.2601C225.295 70.435 224.917 70.5112 224.54 70.4801C224 70.4454 223.466 70.3446 222.95 70.1801L220.95 69.6001C220.272 69.4045 219.604 69.1742 218.95 68.9101C218.397 68.6913 217.884 68.384 217.43 68.0001C217.037 67.6652 216.737 67.2346 216.56 66.7501C216.376 66.1908 216.355 65.5907 216.5 65.0201C216.61 63.3201 216.82 61.2201 217.14 58.7401C217.46 56.2601 217.84 53.6301 218.29 50.8601C218.74 48.0901 219.22 45.3001 219.75 42.4801C220.28 39.6601 220.81 37.0501 221.35 34.6301C220.35 34.8101 219.35 34.9601 218.35 35.0801C217.54 35.1791 216.738 35.3328 215.95 35.5401C215.241 35.7476 214.492 35.7751 213.77 35.6201C213.024 35.3376 212.364 34.8695 211.85 34.2601C211.057 33.4159 210.384 32.467 209.85 31.4401C209.23 30.3001 208.73 29.3501 208.34 28.5601C207.95 27.7701 207.8 27.2101 208.02 26.9401C208.386 26.5905 208.85 26.3603 209.35 26.2801C211.443 25.8534 213.81 25.4634 216.45 25.1101C219.1 24.7501 221.79 24.4301 224.54 24.1101C227.29 23.7901 229.99 23.5801 232.63 23.3901C235.27 23.2001 237.63 23.0601 239.74 22.9901C240.541 22.9503 241.342 23.0484 242.11 23.2801C242.605 23.5006 243.036 23.845 243.36 24.2801C244.028 25.1077 244.58 26.0228 245 27.0001C245.441 27.9058 245.799 28.8497 246.07 29.8201C246.283 30.3598 246.283 30.9603 246.07 31.5001C245.88 31.8001 245.23 31.9801 244.13 32.0501L239.66 32.4601Z" fill="white"/>
<path d="M253.63 63.1401L252.43 69.0001C252.332 69.4477 252.077 69.8453 251.71 70.1201C251.17 70.31 250.581 70.31 250.04 70.1201C249.04 69.8701 248.23 69.6801 247.48 69.5301C246.738 69.3878 246.021 69.1385 245.35 68.7901C244.763 68.4691 244.291 67.9726 244 67.3701C243.729 66.667 243.637 65.9078 243.73 65.1601C243.8 64.4201 243.9 63.3301 244.02 61.9101C244.14 60.4901 244.3 58.9101 244.48 57.1001C244.66 55.2901 244.86 53.3801 245.09 51.3201C245.32 49.2601 245.57 47.2101 245.83 45.1501C246.09 43.0901 246.39 41.1501 246.71 39.1501C247.03 37.1501 247.37 35.4801 247.71 33.9401C247.997 32.631 248.389 31.347 248.88 30.1001C249.113 29.3483 249.579 28.6899 250.21 28.2201C252.41 27.2201 254.71 26.2201 257.11 25.2901C259.393 24.3629 261.765 23.6758 264.19 23.2401C266.365 22.8356 268.593 22.7984 270.78 23.1301C272.85 23.463 274.762 24.4432 276.24 25.9301C277.483 27.2793 278.613 28.7274 279.62 30.2601C280.719 32.0107 281.523 33.9295 282 35.9401C282.503 37.8963 282.316 39.9659 281.47 41.8001C279.984 44.5082 277.876 46.8249 275.32 48.5601C272.084 50.819 268.626 52.7423 265 54.3001C265.82 55.2301 266.72 56.2001 267.69 57.2301C268.66 58.2601 269.69 59.2901 270.69 60.3201C271.69 61.3501 272.74 62.3201 273.75 63.3201C274.76 64.3201 275.75 65.1101 276.6 65.8201C277.3 66.4201 277.6 66.9001 277.6 67.2601C277.442 67.7257 277.123 68.1194 276.7 68.3701C276.231 68.779 275.678 69.0795 275.08 69.2501C274.63 69.3401 274.08 69.4401 273.45 69.5401C272.609 69.7632 271.735 69.8277 270.87 69.7301C269.701 69.56 268.585 69.1331 267.6 68.4801C266.78 67.9135 265.84 67.2035 264.78 66.3501C263.72 65.4968 262.62 64.5568 261.48 63.5301C260.34 62.5301 259.21 61.4301 258.07 60.3101C256.988 59.2316 255.963 58.0967 255 56.9101C254.49 59.0801 254 61.1501 253.63 63.1401ZM259.03 41.1401C258.5 43.2001 257.89 45.4001 257.22 47.7401C259.506 47.0053 261.695 45.998 263.74 44.7401C265.446 43.6985 267.041 42.4856 268.5 41.1201C269.605 40.1133 270.541 38.9349 271.27 37.6301C271.533 37.2512 271.716 36.8223 271.807 36.37C271.898 35.9177 271.896 35.4515 271.8 35.0001C271.38 34.0001 270.12 33.5101 268.02 33.5101C266.877 33.5206 265.738 33.6445 264.62 33.8801C263.254 34.1727 261.93 34.6364 260.68 35.2601C260.11 37.1101 259.56 39.0501 259 41.1001L259.03 41.1401Z" fill="white"/>
<path d="M298.28 60.4C295.922 60.7144 293.585 61.1651 291.28 61.75C290.57 63.14 289.95 64.42 289.42 65.61C288.89 66.8 288.37 67.96 287.87 69.1C287.79 69.3388 287.66 69.5574 287.487 69.7404C287.314 69.9235 287.104 70.0667 286.87 70.16C286.235 70.2489 285.587 70.1589 285 69.9L283.48 69.29C282.93 69.06 282.38 68.8 281.81 68.51C281.24 68.22 281.01 67.99 280.69 67.8C280.374 67.6181 280.114 67.3533 279.938 67.0343C279.762 66.7153 279.676 66.3542 279.69 65.99C279.695 65.3821 279.793 64.7785 279.98 64.2C280.84 61.7533 281.95 58.88 283.31 55.58C284.67 52.28 286.143 48.8733 287.73 45.36C289.31 41.8533 290.923 38.3867 292.57 34.96C294.217 31.5333 295.787 28.49 297.28 25.83C297.785 24.9014 298.497 24.1009 299.36 23.49C300.499 22.8302 301.831 22.5863 303.13 22.8C304.59 22.87 305.88 22.98 307.02 23.14C308.16 23.3 309.19 23.49 310.13 23.7C311.07 23.91 311.94 24.15 312.74 24.39C313.54 24.63 314.35 24.87 315.16 25.09C316.037 25.3089 316.794 25.8614 317.27 26.63C317.587 27.4228 317.687 28.2857 317.56 29.13C317.34 31.65 317.17 34.54 317.03 37.81C316.89 41.08 316.78 44.48 316.71 48.02C316.64 51.56 316.59 55.13 316.57 58.69C316.55 62.25 316.57 65.57 316.57 68.62C316.597 68.8572 316.575 69.0975 316.507 69.3261C316.438 69.5548 316.323 69.767 316.17 69.95C315.633 70.2658 315.008 70.3958 314.39 70.32C313.47 70.32 312.61 70.32 311.83 70.24C311.014 70.1813 310.211 70.0132 309.44 69.74C308.764 69.5812 308.147 69.2346 307.66 68.74C307.235 68.125 306.986 67.4059 306.94 66.66C306.8 65.66 306.67 64.51 306.56 63.28C306.45 62.05 306.35 60.72 306.25 59.28C303.577 59.6467 300.92 60.02 298.28 60.4ZM300.89 51.22C302.5 51.04 304.12 50.9 305.76 50.79C305.68 47.8833 305.627 44.9833 305.6 42.09C305.573 39.1967 305.573 36.33 305.6 33.49C304.18 36.0767 302.647 38.9433 301 42.09C299.353 45.2367 297.687 48.4933 296 51.86C297.67 51.61 299.27 51.39 300.89 51.22V51.22Z" fill="white"/>
<path d="M345.75 38.2299C346.8 33.7299 347.84 29.5699 348.87 25.7799C348.928 25.3825 349.074 25.0034 349.3 24.6708C349.525 24.3383 349.822 24.0611 350.17 23.8599C351.014 23.6095 351.916 23.6269 352.75 23.9099C353.28 24.0599 353.75 24.1799 354.19 24.2899C354.617 24.3968 355.035 24.5372 355.44 24.7099C355.85 24.8899 356.28 25.0999 356.74 25.3499C357.2 25.5999 357.74 25.9199 358.34 26.3499C358.743 26.5422 359.103 26.8128 359.4 27.1459C359.697 27.479 359.925 27.8679 360.07 28.2899C360.178 29.0878 360.095 29.8999 359.83 30.6599C359.01 33.2933 358.156 36.2733 357.27 39.5999C356.383 42.9266 355.506 46.3166 354.64 49.7699C353.766 53.2099 352.933 56.5699 352.14 59.8499C351.34 63.1299 350.66 66.0199 350.09 68.4999C349.88 69.8499 348.81 70.3099 346.9 69.8799C345.202 69.5413 343.531 69.0801 341.9 68.4999C341.157 68.2292 340.479 67.8054 339.911 67.2558C339.342 66.7062 338.896 66.0433 338.6 65.3099C338.11 64.2099 337.6 62.9299 337.09 61.4799C336.58 60.0299 336.09 58.4799 335.52 56.7699C334.95 55.0599 334.45 53.3199 333.92 51.4999C333.39 49.6799 332.92 47.8299 332.43 45.9899C332.036 48.1899 331.636 50.3899 331.23 52.5899C330.82 54.7899 330.44 56.8899 330.06 58.8899C329.68 60.8899 329.35 62.7599 329.06 64.4799C328.77 66.1999 328.52 67.6999 328.34 68.9799C328.314 69.2086 328.239 69.4289 328.12 69.6257C328.001 69.8225 327.84 69.9912 327.65 70.1199C327.032 70.2753 326.38 70.2297 325.79 69.9899L323.21 69.3299C322.317 69.0898 321.464 68.7192 320.68 68.2299C320.027 67.9564 319.478 67.484 319.11 66.8799C318.815 66.2007 318.715 65.4529 318.82 64.7199C318.89 63.7199 319 62.3999 319.16 60.6199C319.32 58.8399 319.53 56.8399 319.8 54.6199C320.07 52.3999 320.37 49.9599 320.7 47.3899C321.03 44.8199 321.41 42.2499 321.8 39.6899C322.19 37.1299 322.59 34.6899 322.99 32.2999C323.39 29.9099 323.8 27.8099 324.19 25.9599C324.233 25.5437 324.376 25.1442 324.608 24.7957C324.84 24.4473 325.153 24.1605 325.52 23.9599C326.368 23.6821 327.282 23.6821 328.13 23.9599L331.96 25.1399C333.29 25.5633 334.59 26.0778 335.85 26.6799C336.783 27.0145 337.596 27.6162 338.19 28.4099C338.734 29.3487 339.074 30.3912 339.19 31.4699L339.88 35.4099C340.16 37.0033 340.493 38.7333 340.88 40.5999C341.23 42.4599 341.61 44.3699 342 46.3399C342.39 48.3099 342.78 50.1999 343.17 52.0099C343.843 47.3366 344.703 42.7433 345.75 38.2299Z" fill="white"/>
<path d="M391.36 30.8101C392.012 32.1341 392.47 33.5453 392.72 35.0001C393.118 37.7951 393.206 40.6258 392.98 43.4401C392.762 46.4846 392.239 49.4996 391.42 52.4401C390.605 55.4129 389.458 58.2844 388 61.0001C386.649 63.5501 384.854 65.8392 382.7 67.7601C381.386 68.8066 379.861 69.557 378.23 69.9601C376.467 70.3502 374.65 70.4314 372.86 70.2001C371.466 70.0528 370.081 69.8325 368.71 69.5401C367.359 69.2614 366.051 68.8041 364.82 68.1801C363.81 67.6382 362.864 66.9841 362 66.2301C361.109 65.4878 360.369 64.5814 359.82 63.5601C358.93 61.8038 358.287 59.9327 357.91 58.0001C357.48 55.8645 357.285 53.6881 357.33 51.5101C357.433 46.747 358.451 42.0482 360.33 37.6701C361.28 35.43 362.467 33.2979 363.87 31.3101C365.258 29.3112 366.895 27.4967 368.74 25.9101C370.068 24.9062 371.575 24.1631 373.18 23.7201C374.773 23.2358 376.453 23.1095 378.1 23.3501C380.071 23.6573 382.007 24.1563 383.88 24.8401C385.515 25.4151 387.05 26.2417 388.43 27.2901C389.644 28.2433 390.643 29.443 391.36 30.8101V30.8101ZM377.36 33.5701C376.289 34.6267 375.358 35.8164 374.59 37.1101C373.613 38.7139 372.751 40.3847 372.01 42.1101C371.248 43.8291 370.6 45.5962 370.07 47.4001C369.096 50.7089 368.664 54.1533 368.79 57.6001C368.821 58.9644 369.071 60.3149 369.53 61.6001C369.661 62.0579 369.898 62.4781 370.224 62.8259C370.549 63.1736 370.952 63.439 371.4 63.6001C371.799 63.7168 372.22 63.735 372.628 63.6532C373.035 63.5713 373.417 63.3918 373.74 63.1301C374.699 62.4055 375.528 61.5229 376.19 60.5201C377.108 59.157 377.882 57.7026 378.5 56.1801C379.264 54.3581 379.896 52.4832 380.39 50.5701C380.878 48.7393 381.245 46.8787 381.49 45.0001C381.762 43.1388 381.906 41.2611 381.92 39.3801C381.948 37.8477 381.777 36.3182 381.41 34.8301C381.07 33.5701 380.55 32.8301 379.84 32.6201C379.13 32.4101 378.26 32.7101 377.34 33.5701H377.36Z" fill="white"/>
<path d="M394.16 58.2201C394.869 58.0933 395.592 58.0564 396.31 58.1101C397.015 58.1592 397.712 58.2833 398.39 58.4801C399.022 58.6665 399.622 58.9462 400.17 59.3101C402.578 60.8679 405.208 62.0513 407.97 62.8201C410.18 63.3501 411.79 63.2301 412.78 62.4501C412.867 62.4053 412.943 62.3423 413.003 62.2655C413.063 62.1887 413.106 62.0998 413.129 62.005C413.151 61.9101 413.154 61.8115 413.135 61.7157C413.116 61.62 413.077 61.5294 413.02 61.4501C412.677 60.8835 412.225 60.3906 411.69 60.0001C411.03 59.4901 410.22 58.9201 409.24 58.3001C408.26 57.6801 407.24 57.0301 406.16 56.3601C405.08 55.6901 404 55.0001 402.91 54.3001C401.866 53.6367 400.864 52.9086 399.91 52.1201C398.954 51.3428 398.089 50.4606 397.33 49.4901C395.77 47.5238 394.899 45.0996 394.85 42.5901C394.831 41.2004 395.047 39.8175 395.49 38.5001C395.872 37.1432 396.416 35.8371 397.11 34.6101C397.901 33.2086 398.8 31.8712 399.8 30.6101C400.831 29.2893 401.971 28.0582 403.21 26.9301C404.378 25.8356 405.647 24.8545 407 24.0001C407.541 23.6388 408.113 23.3275 408.71 23.0701C409.434 22.7568 410.193 22.5318 410.97 22.4001C411.866 22.2587 412.775 22.2151 413.68 22.2701C414.719 22.3325 415.746 22.5205 416.74 22.8301C418.381 23.4157 419.982 24.1106 421.53 24.9101C422.993 25.6261 424.341 26.5563 425.53 27.6701C426.174 28.2457 426.721 28.921 427.15 29.6701C427.504 30.2775 427.773 30.9301 427.95 31.6101C428.101 32.2092 428.188 32.8227 428.21 33.4401C428.21 34.0335 428.21 34.5935 428.21 35.1201C428.088 36.1752 427.911 37.2233 427.68 38.2601C427.43 39.4001 427.15 40.5401 426.83 41.6901C426.51 42.8401 426.15 43.9601 425.76 45.0201C425.421 45.9641 425.03 46.8888 424.59 47.7901C424.488 48.1008 424.317 48.3839 424.088 48.6175C423.859 48.851 423.58 49.0289 423.271 49.1372C422.963 49.2454 422.634 49.2813 422.309 49.2419C421.985 49.2026 421.674 49.089 421.4 48.9101C416.573 47.1968 414.337 44.8635 414.69 41.9101C414.744 41.2011 414.861 40.4984 415.04 39.8101C415.23 39.0101 415.43 38.2101 415.62 37.4201C415.81 36.6301 415.99 35.8601 416.13 35.1301C416.264 34.5436 416.308 33.9399 416.26 33.3401C416.21 32.8801 416.04 32.6201 415.76 32.5501C415.48 32.4801 414.99 32.6701 414.32 33.1301C413.63 33.5393 412.986 34.0221 412.4 34.5701C411.677 35.2429 411.008 35.9718 410.4 36.7501C409.737 37.5816 409.151 38.472 408.65 39.4101C408.169 40.3123 407.832 41.284 407.65 42.2901C407.472 43.2235 407.489 44.1837 407.7 45.1101C407.939 46.0697 408.483 46.9259 409.25 47.5501C410.32 48.5452 411.467 49.4547 412.68 50.2701C413.94 51.1201 415.2 51.9501 416.46 52.7401C417.72 53.5301 418.91 54.3301 420.02 55.1101C421.037 55.8028 421.967 56.6153 422.79 57.5301C423.466 58.2673 423.942 59.1661 424.17 60.1401C424.35 61.1415 424.154 62.1742 423.62 63.0401C423.2 63.8852 422.701 64.6888 422.13 65.4401C421.412 66.3646 420.547 67.1652 419.57 67.8101C418.368 68.5964 417.062 69.2123 415.69 69.6401C413.913 70.174 412.066 70.4435 410.21 70.4401C407.365 70.5075 404.537 69.9902 401.9 68.9201C398.8 67.5711 395.971 65.6702 393.55 63.3101C392 62.0001 391.19 61.0001 391.12 60.3701C391.124 60.0373 391.219 59.7118 391.395 59.4295C391.572 59.1472 391.822 58.9191 392.12 58.7701C392.781 58.5218 393.464 58.3376 394.16 58.2201V58.2201Z" fill="white"/>
<path d="M14.9999 23.6701C16.8599 23.2367 18.8099 22.8467 20.8499 22.5001C22.8899 22.1534 24.9832 21.8434 27.1299 21.5701C29.2832 21.2967 31.4199 21.1267 33.5399 21.0601C35.5399 21.0601 36.8599 21.8101 37.4299 23.4001C37.8544 24.1308 38.1901 24.9097 38.4299 25.7201C38.5999 26.4101 38.7799 27.1601 38.9599 27.9801C39.0518 28.2883 39.0806 28.6119 39.0445 28.9315C39.0085 29.2511 38.9082 29.5601 38.7499 29.8401C38.1732 30.2763 37.4728 30.5179 36.7499 30.5301L30.1499 31.2801C27.8765 31.5334 25.4799 31.8334 22.9599 32.1801C22.4265 33.7801 21.9299 35.4467 21.4699 37.1801C21.0099 38.9134 20.4965 40.7134 19.9299 42.5801C20.9899 42.4401 22.0599 42.3401 23.1199 42.2601C24.1799 42.1801 25.3199 42.1401 26.5299 42.1001C27.3199 42.0447 28.1132 42.1363 28.8699 42.3701C29.5025 42.6385 30.0148 43.1295 30.3099 43.7501C30.7188 44.415 31.0541 45.1225 31.3099 45.8601C31.5399 46.5501 31.7499 47.2501 31.9199 47.9601C32.0899 48.6701 32.2299 49.3201 31.9999 49.6101C31.4724 50.0252 30.8377 50.2819 30.1699 50.3501C28.0399 50.7401 25.8699 51.1201 23.6499 51.4701C21.4299 51.8201 19.2899 52.2201 17.2399 52.6401C16.9499 53.7801 16.6899 54.8501 16.4399 55.8601C16.1899 56.8701 15.9199 57.8601 15.6399 58.8601C17.3099 58.5701 18.8899 58.3401 20.3999 58.1701C21.9099 58.0001 23.5499 57.8501 25.3199 57.7401C26.0994 57.6473 26.8897 57.7188 27.6399 57.9501C28.2164 58.2185 28.6926 58.6633 28.9999 59.2201C29.3913 59.8561 29.7259 60.5253 29.9999 61.2201C30.2299 61.8401 30.4799 62.4701 30.7699 63.1101C30.949 63.5802 30.949 64.0999 30.7699 64.5701C30.5899 64.8401 30.0199 65.0601 29.0599 65.2401C26.7865 65.6601 24.4832 66.1034 22.1499 66.5701C19.7999 67.0301 17.5699 67.4501 15.4399 67.8401C14.4017 68.179 13.2968 68.2613 12.2199 68.0801C11.549 67.9126 10.9104 67.6356 10.3299 67.2601C9.72987 66.8701 9.14987 66.4701 8.59987 66.0601C8.04987 65.6501 7.39987 65.1301 6.65987 64.4901C6.06906 64.0113 5.58817 63.4111 5.24987 62.7301C4.89635 61.9685 4.75802 61.1247 4.84988 60.2901L9.89987 24.8901C11.4399 24.5001 13.1299 24.1001 14.9999 23.6701Z" fill="#FF7276"/>
<path d="M61.9398 36.23C62.9798 31.7234 64.0164 27.5734 65.0498 23.78C65.1109 23.3838 65.2592 23.006 65.484 22.674C65.7088 22.342 66.0045 22.064 66.3498 21.86C67.1977 21.6101 68.1021 21.6275 68.9398 21.91L70.3698 22.29C70.7991 22.3892 71.2177 22.5299 71.6198 22.71C72.0298 22.89 72.4698 23.1 72.9298 23.35C73.3898 23.6 73.9298 23.92 74.5198 24.35C75.5198 24.99 76.1298 25.63 76.2498 26.29C76.3577 27.0755 76.2719 27.8754 75.9998 28.62C75.1864 31.2534 74.3364 34.2334 73.4498 37.56C72.5598 40.9 71.6798 44.28 70.8198 47.73C69.9598 51.18 69.1098 54.53 68.3098 57.81C67.5098 61.09 66.8298 63.98 66.3098 66.46C66.0998 67.81 65.0398 68.27 63.1198 67.84C61.4219 67.5018 59.7508 67.0406 58.1198 66.46C57.3768 66.1894 56.6991 65.7655 56.1306 65.2159C55.5621 64.6663 55.1155 64.0034 54.8198 63.27C54.3198 62.17 53.8198 60.89 53.2998 59.43C52.7798 57.97 52.2998 56.43 51.7298 54.72C51.1598 53.01 50.6698 51.28 50.1298 49.45C49.5898 47.62 49.1298 45.79 48.6398 43.95C48.2498 46.15 47.8598 48.35 47.4498 50.55L46.2798 56.85C45.8998 58.85 45.5698 60.72 45.2798 62.44C44.9898 64.16 44.7298 65.66 44.5598 66.94C44.5303 67.1676 44.4538 67.3865 44.335 67.5828C44.2162 67.7791 44.0577 67.9484 43.8698 68.08C43.2533 68.2487 42.5996 68.2207 41.9998 68C41.1498 67.79 40.2898 67.56 39.4198 67.33C38.5279 67.0916 37.6757 66.7244 36.8898 66.24C36.2392 65.9636 35.6905 65.4919 35.3198 64.89C35.0147 64.196 34.904 63.4321 34.9998 62.68C35.0698 61.68 35.1898 60.36 35.3498 58.58C35.5098 56.8 35.7198 54.8 35.9898 52.58C36.2598 50.36 36.5498 47.92 36.8898 45.34C37.2298 42.76 37.5898 40.21 37.9798 37.65C38.3698 35.09 38.7698 32.65 39.1798 30.26C39.5898 27.87 39.9898 25.77 40.3798 23.92C40.421 23.5033 40.5638 23.1031 40.7956 22.7544C41.0275 22.4057 41.3414 22.1192 41.7098 21.92C42.5542 21.6423 43.4654 21.6423 44.3098 21.92C45.6298 22.31 46.8998 22.7 48.1498 23.09C49.4666 23.5152 50.753 24.0297 51.9998 24.63C52.9326 24.9646 53.7464 25.5663 54.3398 26.36C54.8836 27.2988 55.2243 28.3413 55.3398 29.42C55.5198 30.42 55.7498 31.76 56.0398 33.36C56.3298 34.96 56.6398 36.68 57.0398 38.54C57.4398 40.4 57.7698 42.32 58.1598 44.29C58.5498 46.26 58.9398 48.15 59.3298 49.96C60.0231 45.32 60.8931 40.7434 61.9398 36.23Z" fill="#FF7276"/>
<path d="M103.13 57.8399C103.118 58.8181 102.834 59.7736 102.31 60.5999C101.665 61.8836 100.84 63.0688 99.86 64.1199C98.9475 65.1006 97.9429 65.9913 96.86 66.7799C96.293 67.1355 95.6936 67.4368 95.07 67.6799C94.3644 67.9743 93.6351 68.2084 92.89 68.3799C92.1026 68.5572 91.3041 68.6808 90.5 68.7499C89.6915 68.8199 88.8785 68.8199 88.07 68.7499C86.547 68.6659 85.0379 68.4144 83.57 67.9999C82.22 67.5899 81.02 67.2099 79.95 66.8499C78.922 66.4133 77.9568 65.8416 77.08 65.1499C76.1611 64.4439 75.3984 63.5552 74.84 62.5399C73.8671 60.8743 73.2094 59.0437 72.9 57.1399C72.5243 54.9444 72.3902 52.7145 72.5 50.4899C72.608 48.0309 72.9428 45.5872 73.5 43.1899C74.1075 40.6752 74.9443 38.2216 76 35.8599C77.0182 33.5016 78.257 31.2449 79.7 29.1199C81.0945 27.063 82.7481 25.1943 84.62 23.5599C85.9186 22.3906 87.4685 21.5353 89.15 21.0599C90.5533 20.681 92.01 20.539 93.46 20.6399C94.5014 20.7523 95.5338 20.936 96.55 21.1899C97.594 21.4672 98.6222 21.801 99.63 22.1899C100.591 22.55 101.532 22.9606 102.45 23.4199C103.275 23.8234 104.077 24.2741 104.85 24.7699C105.458 25.2759 106.018 25.8384 106.52 26.4499C106.944 26.9641 107.303 27.5283 107.59 28.1299C107.853 28.6965 108.041 29.2948 108.15 29.9099C108.254 30.5725 108.324 31.24 108.36 31.9099C108.405 32.7593 108.405 33.6104 108.36 34.4599C108.31 35.3499 108.23 36.2299 108.12 37.0899C108.01 37.9499 107.87 38.7999 107.7 39.5999C107.541 40.3264 107.344 41.0441 107.11 41.7499C107.01 42.0399 106.9 42.2999 106.79 42.5499C106.699 42.785 106.543 42.9895 106.34 43.1399C106.095 43.2988 105.812 43.3887 105.52 43.3999C105.037 43.43 104.553 43.3929 104.08 43.2899C103.072 43.1186 102.088 42.8265 101.15 42.4199C100.414 42.09 99.7386 41.6406 99.15 41.0899C98.6195 40.5747 98.1859 39.9684 97.87 39.2999C97.5283 38.5572 97.2959 37.7691 97.18 36.9599C97.0762 36.2747 97.0227 35.5828 97.02 34.8899C97.0624 33.8571 97.0089 32.8227 96.86 31.7999C96.826 31.4007 96.6792 31.0195 96.4366 30.7008C96.194 30.382 95.8656 30.1389 95.49 29.9999C94.78 29.7899 93.95 30.1899 92.99 31.2199C91.8819 32.4494 90.9034 33.7898 90.07 35.2199C88.0225 38.681 86.3943 42.3737 85.22 46.2199C84.7783 47.9643 84.4443 49.7343 84.22 51.5199C83.9981 53.1062 83.9177 54.7092 83.98 56.3099C84.0157 57.553 84.252 58.7822 84.68 59.9499C84.7971 60.3659 85.0127 60.7477 85.3086 61.0628C85.6046 61.3778 85.972 61.6169 86.38 61.7599C87.8 62.2199 89.9633 60.9599 92.87 57.9799C94.97 55.8532 97.7033 55.2699 101.07 56.2299C102.397 56.5565 103.083 57.0932 103.13 57.8399Z" fill="#FF7276"/>
<path d="M108.08 57.4902C107.73 55.6209 107.562 53.7219 107.58 51.8202C107.588 49.6337 107.728 47.4497 108 45.2802C108.28 42.9702 108.66 40.6302 109.12 38.2802C109.58 35.9302 110.12 33.5202 110.69 31.1202C111.26 28.7202 111.89 26.4002 112.52 24.1202C112.81 23.1202 113.22 22.4702 113.77 22.2502C114.62 22.0624 115.508 22.1572 116.3 22.5202C117.354 22.8355 118.378 23.2438 119.36 23.7402C120.355 24.251 121.308 24.8395 122.21 25.5002C123.095 26.0309 123.774 26.8455 124.137 27.8114C124.501 28.7774 124.526 29.8379 124.21 30.8202C123.64 32.6702 123.05 34.6602 122.43 36.8202C121.81 38.9802 121.23 41.1402 120.7 43.3402C120.17 45.5402 119.7 47.6802 119.34 49.7802C118.997 51.6446 118.767 53.528 118.65 55.4202C118.542 56.8089 118.63 58.2058 118.91 59.5702C118.955 60.0182 119.126 60.4443 119.404 60.7985C119.682 61.1527 120.055 61.4204 120.48 61.5702C121.44 61.8235 122.38 61.3635 123.3 60.1902C124.403 58.698 125.291 57.0588 125.94 55.3202C126.86 52.9251 127.648 50.4815 128.3 48.0002C129.067 45.2735 129.777 42.4635 130.43 39.5702C131.09 36.6802 131.68 33.8302 132.22 31.0302C132.76 28.2302 133.22 25.7202 133.65 23.5202C133.72 22.4602 134.11 21.8202 134.82 21.6102C135.674 21.3942 136.571 21.4219 137.41 21.6902C138.534 22.0098 139.62 22.449 140.65 23.0002C141.8 23.5902 142.86 24.1702 143.82 24.7302C144.228 24.9855 144.61 25.2802 144.96 25.6102C145.207 25.8406 145.399 26.1245 145.52 26.4402C145.63 26.7371 145.667 27.0558 145.63 27.3702C145.63 27.7102 145.52 28.1002 145.42 28.5702C144.353 33.6368 143.277 38.3035 142.19 42.5702C141.244 46.3776 140.099 50.1328 138.76 53.8202C137.75 56.6893 136.429 59.4391 134.82 62.0202C133.652 63.9741 132.029 65.6173 130.09 66.8102C128.904 67.3693 127.65 67.7694 126.36 68.0002C124.953 68.2366 123.522 68.3004 122.1 68.1902C119.362 68.1038 116.677 67.4213 114.23 66.1902C113.338 65.6947 112.501 65.1082 111.73 64.4402C110.927 63.726 110.25 62.8806 109.73 61.9402C108.931 60.5616 108.373 59.0566 108.08 57.4902V57.4902Z" fill="#FF7276"/>
<path d="M153.21 23.6699C155.07 23.2232 157.023 22.8332 159.07 22.4999C161.117 22.1666 163.21 21.8566 165.35 21.5699C167.49 21.2966 169.627 21.1266 171.76 21.0599C173.76 21.0599 175.08 21.8099 175.64 23.3999C176.069 24.1285 176.405 24.9079 176.64 25.7199C176.82 26.4099 177 27.1599 177.17 27.9799C177.264 28.2878 177.294 28.6117 177.258 28.9317C177.222 29.2517 177.12 29.5608 176.96 29.8399C176.385 30.2786 175.683 30.5205 174.96 30.5299L168.36 31.2799C166.093 31.5332 163.7 31.8332 161.18 32.1799C160.653 33.7799 160.157 35.4466 159.69 37.1799C159.223 38.9132 158.707 40.7132 158.14 42.5799C159.21 42.4399 160.27 42.3399 161.34 42.2599C162.41 42.1799 163.54 42.1399 164.74 42.0999C165.533 42.044 166.33 42.1356 167.09 42.3699C167.718 42.6419 168.226 43.1321 168.52 43.7499C168.932 44.4129 169.268 45.1208 169.52 45.8599C169.75 46.5499 169.95 47.2499 170.13 47.9599C170.31 48.6699 170.44 49.3199 170.21 49.6099C169.679 50.0263 169.041 50.283 168.37 50.3499C166.24 50.7399 164.07 51.1199 161.85 51.4699C159.63 51.8199 157.5 52.2199 155.44 52.6399C155.16 53.7799 154.89 54.8499 154.64 55.8599C154.39 56.8699 154.13 57.8599 153.84 58.8599C155.513 58.5732 157.103 58.3432 158.61 58.1699C160.11 57.9899 161.76 57.8499 163.53 57.7399C164.309 57.6483 165.1 57.7198 165.85 57.9499C166.446 58.2121 166.941 58.6614 167.26 59.2299C167.652 59.8656 167.986 60.5349 168.26 61.2299C168.49 61.8499 168.75 62.4799 169.03 63.1199C169.214 63.5892 169.214 64.1106 169.03 64.5799C168.85 64.8499 168.29 65.0699 167.33 65.2499C165.063 65.6699 162.757 66.1132 160.41 66.5799C158.063 67.0466 155.827 67.4699 153.7 67.8499C152.662 68.1892 151.557 68.2716 150.48 68.0899C149.81 67.9186 149.172 67.6418 148.59 67.2699C147.99 66.8799 147.41 66.4799 146.87 66.0699C146.33 65.6599 145.67 65.1399 144.87 64.4999C144.282 64.0184 143.802 63.4188 143.46 62.7399C143.111 61.9768 142.973 61.1343 143.06 60.2999L148.12 24.8999C149.65 24.4999 151.35 24.0999 153.21 23.6699ZM173.49 8.38989C172.023 9.24989 170.443 10.1032 168.75 10.9499C167.057 11.7966 165.31 12.6132 163.51 13.3999C161.697 14.1799 159.94 14.8699 158.24 15.4699C157.474 15.7904 156.626 15.857 155.82 15.6599C154.786 15.3986 153.793 14.9948 152.87 14.4599C152.87 14.4599 152.79 14.4599 152.55 14.2199C152.282 14.0072 152.069 13.7327 151.93 13.4199C151.772 13.0727 151.716 12.6876 151.77 12.3099C151.83 11.8999 152.17 11.4999 152.77 11.1099C155.683 9.77655 158.663 8.29655 161.71 6.66989C164.568 5.1733 167.295 3.43708 169.86 1.47989C170.472 0.976798 171.249 0.720052 172.04 0.759888C173.191 0.874063 174.302 1.24665 175.29 1.84989C175.959 2.16834 176.481 2.72982 176.75 3.41989C177.042 4.26789 177.211 5.15371 177.25 6.04989C176.217 6.75655 174.963 7.53655 173.49 8.38989V8.38989Z" fill="#FF7276"/>
<path d="M200.15 36.2299C201.197 31.7233 202.233 27.5733 203.26 23.7799C203.321 23.3823 203.47 23.0034 203.697 22.6711C203.924 22.3389 204.222 22.0617 204.57 21.8599C205.414 21.6095 206.316 21.6269 207.15 21.9099C207.68 22.0599 208.15 22.1799 208.59 22.2899C209.018 22.3922 209.437 22.5328 209.84 22.7099C210.25 22.8899 210.68 23.0999 211.14 23.3499C211.6 23.5999 212.14 23.9199 212.74 24.3499C213.144 24.5408 213.505 24.8109 213.802 25.1442C214.099 25.4774 214.326 25.8671 214.47 26.2899C214.578 27.0878 214.496 27.8999 214.23 28.6599C213.41 31.2933 212.56 34.2733 211.68 37.5999C210.79 40.9399 209.91 44.3199 209.04 47.7699C208.17 51.2199 207.34 54.5699 206.54 57.8499C205.74 61.1299 205.06 64.0199 204.54 66.4999C204.33 67.8499 203.26 68.3099 201.35 67.8799C199.652 67.5413 197.981 67.0801 196.35 66.4999C195.607 66.2292 194.929 65.8054 194.361 65.2558C193.792 64.7062 193.346 64.0433 193.05 63.3099C192.56 62.2099 192.05 60.9299 191.54 59.4699C191.03 58.0099 190.54 56.4699 189.97 54.7599C189.4 53.0499 188.9 51.3199 188.37 49.4899C187.84 47.6599 187.37 45.8299 186.88 43.9899C186.493 46.1899 186.093 48.3899 185.68 50.5899C185.27 52.7899 184.89 54.8899 184.51 56.8899C184.13 58.8899 183.8 60.7599 183.51 62.4799C183.22 64.1999 182.97 65.6999 182.79 66.9799C182.764 67.2086 182.689 67.4289 182.57 67.6257C182.451 67.8225 182.291 67.9912 182.1 68.1199C181.482 68.2753 180.83 68.2297 180.24 67.9899C179.39 67.7799 178.53 67.5499 177.66 67.3199C176.768 67.0834 175.915 66.7161 175.13 66.2299C174.479 65.9535 173.931 65.4818 173.56 64.8799C173.265 64.2007 173.165 63.4529 173.27 62.7199C173.34 61.7199 173.45 60.3999 173.61 58.6199C173.77 56.8399 173.98 54.8399 174.25 52.6199C174.52 50.3999 174.82 47.9599 175.16 45.3799C175.5 42.7999 175.86 40.2499 176.25 37.6899C176.64 35.1299 177.04 32.6899 177.44 30.2999C177.84 27.9099 178.25 25.8099 178.64 23.9599C178.683 23.5437 178.826 23.1442 179.058 22.7957C179.29 22.4473 179.603 22.1605 179.97 21.9599C180.818 21.6821 181.732 21.6821 182.58 21.9599C183.89 22.3499 185.17 22.7399 186.41 23.1299C187.741 23.5569 189.04 24.0748 190.3 24.6799C191.233 25.0145 192.047 25.6162 192.64 26.4099C193.184 27.3487 193.525 28.3912 193.64 29.4699L194.33 33.4099C194.61 35.0033 194.943 36.7299 195.33 38.5899C195.68 40.4599 196.06 42.3699 196.45 44.3399C196.84 46.3099 197.23 48.1999 197.62 50.0099C198.26 45.3366 199.103 40.7433 200.15 36.2299Z" fill="#FF7276"/>
<path d="M243.66 30.4601C242.03 30.6101 240.34 30.7801 238.6 30.9601C237.86 33.9401 237.09 37.0268 236.29 40.2201C235.49 43.4134 234.727 46.5801 234 49.7201C233.26 52.8601 232.56 55.9201 231.9 58.9001C231.24 61.9001 230.67 64.6701 230.17 67.2601C230.167 67.4535 230.12 67.6436 230.033 67.8166C229.947 67.9896 229.823 68.1411 229.67 68.2601C229.334 68.4315 228.956 68.5043 228.58 68.4701C228.036 68.4451 227.498 68.3476 226.98 68.1801L224.98 67.6001C224.302 67.401 223.635 67.1673 222.98 66.9001C222.428 66.6916 221.916 66.3869 221.47 66.0001C221.036 65.6478 220.716 65.1748 220.551 64.6409C220.385 64.107 220.382 63.5361 220.54 63.0001C220.64 61.3001 220.85 59.2001 221.17 56.7201C221.49 54.2401 221.87 51.6101 222.32 48.8401C222.77 46.0701 223.25 43.2801 223.78 40.4601C224.31 37.6401 224.85 35.0201 225.38 32.6101C224.38 32.7901 223.38 32.9401 222.38 33.0601C221.571 33.1591 220.769 33.3128 219.98 33.5201C219.253 33.7866 218.457 33.8057 217.718 33.5743C216.978 33.3428 216.336 32.8739 215.89 32.2401C215.077 31.4017 214.387 30.4522 213.84 29.4201C213.22 28.2801 212.71 27.3201 212.32 26.5401C211.93 25.7601 211.79 25.1901 212 24.9201C212.367 24.5689 212.83 24.3355 213.33 24.2501C215.424 23.8301 217.794 23.4401 220.44 23.0801C223.087 22.7201 225.784 22.4034 228.53 22.1301C231.27 21.8434 233.967 21.6034 236.62 21.4101C239.274 21.2168 241.64 21.0834 243.72 21.0101C244.521 20.9703 245.323 21.0684 246.09 21.3001C246.59 21.514 247.022 21.8597 247.34 22.3001C248.01 23.1227 248.569 24.0306 249 25.0001C249.44 25.9053 249.795 26.8494 250.06 27.8201C250.267 28.3576 250.267 28.9525 250.06 29.4901C249.86 29.8001 249.21 29.9801 248.11 30.0501L243.66 30.4601Z" fill="#FF7276"/>
<path d="M257.63 61.1399C257.22 63.1399 256.82 65.0799 256.43 66.9899C256.336 67.4389 256.079 67.8376 255.71 68.1099C255.17 68.2997 254.581 68.2997 254.04 68.1099C253.04 67.8599 252.23 67.6599 251.48 67.5199C250.738 67.3776 250.021 67.1283 249.35 66.7799C248.765 66.4614 248.293 65.9687 248 65.3699C247.729 64.6668 247.637 63.9076 247.73 63.1599C247.81 62.4099 247.9 61.3299 248.03 59.9099C248.16 58.4899 248.3 56.9099 248.48 55.0999C248.66 53.2899 248.86 51.3799 249.09 49.3199C249.32 47.2599 249.57 45.2099 249.84 43.1499C250.11 41.0899 250.39 39.1499 250.71 37.1499C251.03 35.1499 251.37 33.4799 251.71 31.9399C251.987 30.628 252.378 29.343 252.88 28.0999C253.113 27.3453 253.578 26.6837 254.21 26.2099C256.41 25.2099 258.7 24.2099 261.1 23.2899C263.383 22.3626 265.755 21.6756 268.18 21.2399C270.358 20.8304 272.59 20.7932 274.78 21.1299C276.847 21.4654 278.754 22.4454 280.23 23.9299C281.475 25.2771 282.605 26.7254 283.61 28.2599C284.712 30.0098 285.519 31.9286 286 33.9399C286.503 35.8961 286.316 37.9657 285.47 39.7999C283.992 42.5111 281.882 44.8263 279.32 46.5499C276.111 48.8097 272.68 50.7364 269.08 52.2999C269.89 53.2299 270.79 54.1999 271.76 55.2299C272.73 56.2599 273.76 57.2899 274.76 58.3199C275.76 59.3499 276.81 60.3199 277.82 61.3199C278.83 62.3199 279.82 63.1099 280.67 63.8199C281.384 64.4199 281.717 64.8999 281.67 65.2599C281.504 65.724 281.183 66.1163 280.76 66.3699C280.291 66.7788 279.738 67.0792 279.14 67.2499C278.69 67.3399 278.14 67.4399 277.51 67.5399C276.669 67.763 275.795 67.8274 274.93 67.7299C273.763 67.5544 272.647 67.128 271.66 66.4799C270.84 65.9132 269.9 65.2032 268.84 64.3499C267.78 63.4999 266.67 62.5599 265.54 61.5299C264.41 60.4999 263.27 59.4299 262.13 58.3099C261.024 57.2358 259.979 56.1007 259 54.9099C258.494 57.0699 258.037 59.1466 257.63 61.1399ZM263.03 39.1399C262.504 41.1999 261.9 43.3999 261.22 45.7399C265.421 44.3829 269.275 42.1235 272.51 39.1199C273.61 38.1104 274.541 36.9324 275.27 35.6299C275.777 34.8832 275.971 33.9678 275.81 33.0799C275.38 32.0799 274.12 31.5899 272.03 31.5899C270.884 31.6004 269.742 31.7243 268.62 31.9599C267.254 32.254 265.931 32.7176 264.68 33.3399C264.11 35.1099 263.56 37.0499 263 39.0999L263.03 39.1399Z" fill="#FF7276"/>
<path d="M302.28 58.4001C299.923 58.7155 297.585 59.1662 295.28 59.7501C294.57 61.1401 293.95 62.4201 293.42 63.6101C292.89 64.8001 292.37 65.9601 291.88 67.1001C291.8 67.3386 291.669 67.5568 291.496 67.7398C291.323 67.9228 291.113 68.0662 290.88 68.1601C290.241 68.2509 289.59 68.1608 289 67.9001L287.49 67.2801C286.94 67.0501 286.38 66.8001 285.81 66.5101L284.69 65.7901C284.39 65.6153 284.137 65.372 283.95 65.0801C283.755 64.7465 283.655 64.3663 283.66 63.9801C283.682 63.373 283.797 62.7728 284 62.2001C284.853 59.7534 285.96 56.8801 287.32 53.5801C288.68 50.2801 290.153 46.8734 291.74 43.3601C293.32 39.8534 294.933 36.3868 296.58 32.9601C298.226 29.5334 299.8 26.4901 301.3 23.8301C301.802 22.9019 302.51 22.1013 303.37 21.4901C304.508 20.8198 305.848 20.5753 307.15 20.8001C308.6 20.8701 309.9 20.9801 311.03 21.1401C312.16 21.3001 313.21 21.4901 314.15 21.7001C315.09 21.9101 315.96 22.1401 316.75 22.3901C317.54 22.6401 318.36 22.8701 319.18 23.0801C320.057 23.2988 320.812 23.8561 321.28 24.6301C321.601 25.4217 321.702 26.2859 321.57 27.1301C321.363 29.6501 321.187 32.5401 321.04 35.8001C320.9 39.0701 320.79 42.4701 320.72 46.0201C320.65 49.5701 320.6 53.1301 320.59 56.6901C320.58 60.2501 320.59 63.5701 320.59 66.6201C320.615 66.8565 320.594 67.0957 320.527 67.3239C320.46 67.5521 320.349 67.7649 320.2 67.9501C319.659 68.2652 319.031 68.3951 318.41 68.3201C317.49 68.3201 316.64 68.3201 315.86 68.2401C315.041 68.1804 314.234 68.0123 313.46 67.7401C312.785 67.5788 312.169 67.2325 311.68 66.7401C311.255 66.1251 311.006 65.406 310.96 64.6601C310.82 63.6601 310.7 62.5101 310.59 61.2801C310.48 60.0501 310.37 58.7201 310.27 57.2801C307.59 57.6468 304.926 58.0201 302.28 58.4001ZM304.89 49.2201C306.51 49.0401 308.13 48.9001 309.76 48.7901C309.687 45.8834 309.633 42.9834 309.6 40.0901C309.567 37.1968 309.567 34.3301 309.6 31.4901C308.18 34.0768 306.646 36.9434 305 40.0901C303.353 43.2368 301.686 46.4901 300 49.8501C301.67 49.6101 303.27 49.3901 304.89 49.2201V49.2201Z" fill="#FF7276"/>
<path d="M349.76 36.2299C350.8 31.7233 351.836 27.5733 352.87 23.7799C352.93 23.3832 353.077 23.0049 353.302 22.6727C353.527 22.3405 353.824 22.0628 354.17 21.8599C355.014 21.6101 355.916 21.6276 356.75 21.9099L358.19 22.2899C358.619 22.3907 359.037 22.5313 359.44 22.7099C359.85 22.8899 360.28 23.0999 360.75 23.3499C361.22 23.5999 361.75 23.9199 362.34 24.3499C363.34 24.9899 363.95 25.6299 364.07 26.2899C364.178 27.0878 364.095 27.8999 363.83 28.6599C363.01 31.2933 362.16 34.2733 361.28 37.5999C360.39 40.9399 359.51 44.3199 358.64 47.7699C357.77 51.2199 356.94 54.5699 356.14 57.8499C355.34 61.1299 354.66 64.0199 354.09 66.4999C353.88 67.8499 352.82 68.3099 350.9 67.8799C349.202 67.5417 347.531 67.0805 345.9 66.4999C345.157 66.2292 344.479 65.8054 343.911 65.2558C343.342 64.7062 342.896 64.0433 342.6 63.3099C342.1 62.2099 341.6 60.9299 341.08 59.4699C340.56 58.0099 340.08 56.4699 339.51 54.7599C338.94 53.0499 338.44 51.3199 337.91 49.4899C337.38 47.6599 336.91 45.8299 336.42 43.9899C336.027 46.1899 335.63 48.3899 335.23 50.5899C334.83 52.7899 334.436 54.8899 334.05 56.8899C333.676 58.8899 333.343 60.7533 333.05 62.4799C332.75 64.1999 332.51 65.6999 332.34 66.9799C332.311 67.2088 332.234 67.429 332.113 67.6256C331.992 67.8222 331.831 67.9907 331.64 68.1199C331.022 68.2753 330.37 68.2297 329.78 67.9899C328.93 67.7799 328.07 67.5499 327.2 67.3199C326.308 67.0815 325.456 66.7143 324.67 66.2299C324.019 65.9535 323.471 65.4818 323.1 64.8799C322.814 64.1982 322.714 63.4529 322.81 62.7199C322.88 61.7199 322.99 60.3999 323.15 58.6199C323.31 56.8399 323.53 54.8399 323.79 52.6199C324.05 50.3999 324.36 47.9599 324.7 45.3799C325.04 42.7999 325.4 40.2499 325.79 37.6899C326.18 35.1299 326.58 32.6899 326.99 30.2999C327.4 27.9099 327.79 25.8099 328.18 23.9599C328.223 23.5437 328.366 23.1441 328.598 22.7957C328.83 22.4473 329.143 22.1605 329.51 21.9599C330.358 21.6821 331.272 21.6821 332.12 21.9599C333.44 22.3499 334.71 22.7399 335.95 23.1299C337.28 23.5569 338.58 24.0748 339.84 24.6799C340.773 25.0145 341.586 25.6162 342.18 26.4099C342.724 27.3487 343.064 28.3912 343.18 29.4699L343.87 33.4099C344.163 35.0033 344.496 36.7299 344.87 38.5899C345.23 40.4599 345.6 42.3699 345.99 44.3399C346.38 46.3099 346.77 48.1999 347.16 50.0099C347.84 45.3366 348.707 40.7433 349.76 36.2299Z" fill="#FF7276"/>
<path d="M395.36 28.8102C396.021 30.1306 396.479 31.5431 396.72 33.0002C397.117 35.7953 397.207 38.6254 396.99 41.4402C396.763 44.4844 396.237 47.499 395.42 50.4402C394.609 53.4143 393.462 56.2862 392 59.0002C390.657 61.5531 388.865 63.8431 386.71 65.7602C385.396 66.8098 383.871 67.5636 382.24 67.9702C380.474 68.3601 378.653 68.4413 376.86 68.2102C375.466 68.063 374.081 67.8427 372.71 67.5502C371.362 67.2716 370.057 66.8142 368.83 66.1902C367.817 65.6393 366.868 64.9786 366 64.2202C365.109 63.4819 364.369 62.5787 363.82 61.5602C362.928 59.8054 362.289 57.9336 361.92 56.0002C361.486 53.8617 361.288 51.6819 361.33 49.5002C361.434 44.7405 362.452 40.0452 364.33 35.6702C365.288 33.434 366.474 31.3027 367.87 29.3102C369.258 27.3113 370.894 25.4968 372.74 23.9102C374.068 22.9063 375.575 22.1632 377.18 21.7202C378.776 21.2358 380.459 21.1094 382.11 21.3502C384.077 21.6586 386.009 22.1576 387.88 22.8402C389.516 23.413 391.051 24.2397 392.43 25.2902C393.644 26.2434 394.643 27.4431 395.36 28.8102V28.8102ZM381.36 31.5702C380.292 32.6298 379.362 33.8191 378.59 35.1102C377.613 36.714 376.751 38.3849 376.01 40.1102C375.252 41.8309 374.605 43.5978 374.07 45.4002C373.564 47.0892 373.206 48.8191 373 50.5702C372.787 52.2278 372.714 53.9003 372.78 55.5702C372.809 56.9356 373.062 58.287 373.53 59.5702C373.659 60.027 373.896 60.4464 374.219 60.7941C374.542 61.1418 374.944 61.4078 375.39 61.5702C375.789 61.6882 376.212 61.7061 376.62 61.6224C377.028 61.5387 377.409 61.3559 377.73 61.0902C378.694 60.375 379.523 59.4948 380.18 58.4902C381.101 57.1276 381.879 55.6732 382.5 54.1502C383.258 52.3235 383.886 50.4454 384.38 48.5302C384.877 46.7244 385.252 44.8868 385.5 43.0302C385.777 41.1695 385.921 39.2914 385.93 37.4102C385.958 35.8778 385.786 34.3483 385.42 32.8602C385.09 31.6002 384.56 30.8602 383.85 30.6502C383.14 30.4402 382.26 30.7002 381.34 31.5702H381.36Z" fill="#FF7276"/>
<path d="M398.16 56.2101C398.87 56.0869 399.592 56.0533 400.31 56.1101C401.015 56.1592 401.712 56.2833 402.39 56.4801C403.022 56.6646 403.622 56.9445 404.17 57.3101C406.58 58.8638 409.209 60.047 411.97 60.8201C414.19 61.3501 415.79 61.2301 416.79 60.4501C416.876 60.4044 416.951 60.3407 417.01 60.2635C417.069 60.1863 417.111 60.0973 417.133 60.0025C417.155 59.9077 417.156 59.8094 417.136 59.7141C417.117 59.6188 417.077 59.5288 417.02 59.4501C416.676 58.8846 416.224 58.392 415.69 58.0001C415.04 57.4901 414.22 56.9201 413.25 56.3001L410.16 54.3601C409.08 53.6801 408 52.9901 406.91 52.2801C405.867 51.6141 404.866 50.8862 403.91 50.1001C402.954 49.3228 402.089 48.4406 401.33 47.4701C399.77 45.5038 398.899 43.0797 398.85 40.5701C398.831 39.1804 399.047 37.7975 399.49 36.4801C399.87 35.1208 400.417 33.8141 401.12 32.5901C401.904 31.1866 402.8 29.8489 403.8 28.5901C404.833 27.2716 405.974 26.0408 407.21 24.9101C408.377 23.8205 409.646 22.846 411 22.0001C411.537 21.6386 412.106 21.3273 412.7 21.0701C413.424 20.7585 414.183 20.5336 414.96 20.4001C415.859 20.2587 416.771 20.2151 417.68 20.2701C418.719 20.3342 419.746 20.5222 420.74 20.8301C422.378 21.4202 423.978 22.1115 425.53 22.9001C426.992 23.6222 428.34 24.5556 429.53 25.6701C430.74 26.6848 431.604 28.0516 432 29.5801C432.154 30.179 432.245 30.7923 432.27 31.4101C432.27 32.0001 432.27 32.5601 432.27 33.0901C432.152 34.1458 431.975 35.1941 431.74 36.2301C431.49 37.3701 431.21 38.5101 430.89 39.6601C430.57 40.8101 430.21 41.9201 429.83 42.9901C429.483 43.9326 429.09 44.8571 428.65 45.7601C428.393 46.3365 427.944 46.8063 427.38 47.0901C426.734 47.2461 426.054 47.1682 425.46 46.8701C420.64 45.1701 418.407 42.8368 418.76 39.8701C418.811 39.1614 418.924 38.4586 419.1 37.7701C419.3 36.9701 419.49 36.1701 419.69 35.3701C419.89 34.5701 420.05 33.8101 420.19 33.0901C420.322 32.5032 420.369 31.9004 420.33 31.3001C420.27 30.8401 420.1 30.5801 419.82 30.5001C419.54 30.4201 419.06 30.6301 418.38 31.0901C417.693 31.4997 417.053 31.9826 416.47 32.5301C415.727 33.1983 415.041 33.9275 414.42 34.7101C413.754 35.5414 413.165 36.4318 412.66 37.3701C412.185 38.2713 411.848 39.2388 411.66 40.2401C411.48 41.1771 411.5 42.1417 411.72 43.0701C411.954 44.0296 412.495 44.8864 413.26 45.5101C414.33 46.5052 415.477 47.4147 416.69 48.2301C417.95 49.0768 419.21 49.9001 420.47 50.7001C421.73 51.5001 422.907 52.3001 424 53.1001C425.014 53.7927 425.941 54.6053 426.76 55.5201C427.434 56.2605 427.912 57.1578 428.15 58.1301C428.325 59.1328 428.126 60.1648 427.59 61.0301C427.175 61.878 426.676 62.682 426.1 63.4301C425.384 64.3539 424.519 65.1516 423.54 65.7901C422.34 66.5839 421.034 67.2034 419.66 67.6301C417.883 68.1649 416.036 68.4344 414.18 68.4301C411.338 68.4984 408.513 67.981 405.88 66.9101C402.776 65.5639 399.943 63.6628 397.52 61.3001C396 60.0001 395.2 59.0001 395.12 58.3701C395.121 58.0368 395.216 57.7104 395.392 57.4277C395.569 57.145 395.821 56.9173 396.12 56.7701C396.782 56.5213 397.464 56.3338 398.16 56.2101V56.2101Z" fill="#FF7276"/>
</svg>
