<svg viewBox="0 0 281 51" fill="none" xmlns="http://www.w3.org/2000/svg">
<path d="M36.7598 19.2499C35.7731 22.5832 34.7898 25.9699 33.8098 29.4099C32.8298 32.8499 31.8931 36.3099 30.9998 39.7899C30.0865 43.2632 29.2765 46.4565 28.5698 49.3699C28.5985 49.5571 28.5766 49.7486 28.5063 49.9244C28.4359 50.1003 28.3197 50.2541 28.1698 50.3699C27.8346 50.5447 27.4566 50.621 27.0798 50.5899C26.5287 50.5557 25.9825 50.4652 25.4498 50.3199L23.4498 49.8099C22.2261 49.5011 21.07 48.9689 20.0398 48.2399C19.6328 47.9049 19.3421 47.4499 19.2092 46.9399C19.0763 46.4298 19.108 45.8908 19.2998 45.3999C19.4398 44.1199 19.6498 42.6499 19.9398 40.9799C20.2298 39.3099 20.5598 37.4499 20.9398 35.3899L16.5698 35.9999C15.1298 36.1999 13.6698 36.4198 12.1798 36.6698C11.6098 39.1198 11.1798 41.4099 10.7898 43.5599C10.3998 45.7099 10.1198 47.6299 9.78979 49.3399C9.73313 49.8018 9.49583 50.2224 9.12979 50.5098C8.52594 50.6881 7.88075 50.667 7.28979 50.4499C6.40979 50.1999 5.48979 49.9599 4.54979 49.7099C3.70222 49.4857 2.88836 49.1494 2.12979 48.7099C1.43471 48.4175 0.828032 47.9487 0.369793 47.3498C0.187525 47.0257 0.0747264 46.6671 0.0385724 46.2969C0.00241841 45.9268 0.0437005 45.5532 0.159793 45.1999C0.693126 42.7532 1.18979 39.8965 1.64979 36.6299C2.10979 33.3599 2.55979 29.9599 2.97979 26.4099C3.39979 22.8599 3.81979 19.3199 4.22979 15.7899C4.63979 12.2599 5.05979 9.00985 5.47979 6.02985C5.76979 4.88985 6.16979 4.21985 6.70979 4.02985C7.49721 3.8408 8.32612 3.93645 9.04979 4.29985C10.2893 4.65595 11.5051 5.09015 12.6898 5.59985C13.8711 6.08717 15.0029 6.68658 16.0698 7.38985C16.5171 7.64481 16.9361 7.9465 17.3198 8.28985C17.5894 8.52604 17.8073 8.81543 17.9598 9.13985C18.0953 9.45459 18.1437 9.8 18.0998 10.1399C18.051 10.5539 17.9776 10.9646 17.8798 11.3699C17.3198 13.3699 16.7198 15.7699 16.0998 18.4999C15.4798 21.2299 14.8098 24.1599 14.0998 27.2799C15.5898 27.0999 17.0998 26.9599 18.4898 26.8499L22.6598 26.5299C23.5531 22.7699 24.4131 19.0365 25.2398 15.3299C26.0665 11.6232 26.9098 8.24652 27.7698 5.19985C28.0898 4.05985 28.5398 3.40985 29.1298 3.24985C29.9797 3.11062 30.8512 3.19329 31.6598 3.48985C32.7528 3.80595 33.8194 4.20718 34.8498 4.68985C35.9378 5.19446 36.9902 5.77246 37.9998 6.41985C38.7021 6.84877 39.2783 7.45602 39.6698 8.17985C39.8643 8.88122 39.8186 9.62751 39.5398 10.2999C38.6865 12.9732 37.7598 15.9565 36.7598 19.2499Z" fill="white"/>
<path d="M70.7998 11.0799C71.4503 12.3976 71.9083 13.802 72.1598 15.2499C72.5531 18.0454 72.6403 20.8754 72.4198 23.6899C72.2065 26.7522 71.6805 29.7846 70.8498 32.7399C70.0355 35.6874 68.8952 38.535 67.4498 41.2299C66.0994 43.7835 64.3047 46.076 62.1498 47.9999C60.8385 49.0532 59.313 49.8075 57.6798 50.2099C55.9138 50.6003 54.0935 50.6815 52.2998 50.4499C50.906 50.3019 49.5208 50.0816 48.1498 49.7899C46.8017 49.5113 45.4968 49.0539 44.2698 48.4299C43.2591 47.9005 42.3128 47.2562 41.4498 46.5099C40.5566 45.7739 39.816 44.8703 39.2698 43.8499C38.3748 42.1052 37.7285 40.2438 37.3498 38.3199C36.9161 36.1847 36.7182 34.0083 36.7598 31.8299C36.8626 27.0668 37.8812 22.368 39.7598 17.9899C40.7177 15.7536 41.904 13.6223 43.2998 11.6299C44.691 9.63331 46.3271 7.81915 48.1698 6.22985C49.4938 5.21574 50.9966 4.45929 52.5998 3.99985C54.1925 3.51562 55.8726 3.38928 57.5198 3.62985C59.4872 3.93705 61.4197 4.43609 63.2898 5.11985C64.9287 5.69274 66.4675 6.51948 67.8498 7.56985C69.0675 8.52095 70.0725 9.71664 70.7998 11.0799V11.0799ZM56.7998 13.8399C55.7153 14.892 54.7739 16.0822 53.9998 17.3799C53.0154 18.9793 52.1529 20.6507 51.4198 22.3799C50.6424 24.0993 49.9744 25.8662 49.4198 27.6699C48.9209 29.3669 48.5663 31.1031 48.3598 32.8599C48.1507 34.5178 48.0804 36.1902 48.1498 37.8599C48.1808 39.2242 48.4307 40.5747 48.8898 41.8599C49.0195 42.3166 49.2557 42.7361 49.579 43.0838C49.9024 43.4315 50.3036 43.6975 50.7498 43.8599C51.151 43.977 51.5747 43.9945 51.9842 43.9108C52.3937 43.8272 52.7767 43.6449 53.0998 43.3799C54.0603 42.6641 54.8864 41.7838 55.5398 40.7799C56.4611 39.4173 57.2386 37.9628 57.8598 36.4399C58.6257 34.615 59.2574 32.7367 59.7498 30.8199C60.2378 29.0118 60.6119 27.1748 60.8698 25.3199C61.139 23.4584 61.2794 21.5806 61.2898 19.6999C61.3156 18.1682 61.1476 16.6394 60.7898 15.1499C60.4498 13.8899 59.9298 13.1499 59.2198 12.9399C58.5098 12.7299 57.6998 12.9999 56.7798 13.8399H56.7998Z" fill="white"/>
<path d="M84.2601 43.4102C83.8501 45.4102 83.4601 47.3502 83.0701 49.2602C82.9722 49.7078 82.7166 50.1053 82.3501 50.3802C81.8062 50.5699 81.214 50.5699 80.6701 50.3802C79.6701 50.1302 78.8601 49.9402 78.1201 49.7902C77.3806 49.65 76.6661 49.4006 76.0001 49.0502C75.3989 48.7395 74.9121 48.2457 74.6101 47.6402C74.3481 46.9348 74.259 46.177 74.3501 45.4302C74.4201 44.6902 74.5201 43.6002 74.6401 42.1802C74.7601 40.7602 74.9201 39.1802 75.0901 37.3702C75.2601 35.5602 75.4701 33.6502 75.7001 31.5902C75.9301 29.5302 76.1801 27.4802 76.4501 25.4202C76.7201 23.3602 77.0101 21.3702 77.3301 19.4202C77.6501 17.4702 77.9801 15.7502 78.3301 14.2102C78.608 12.8986 78.9994 11.6138 79.5001 10.3702C79.7364 9.61735 80.2013 8.95679 80.8301 8.48015C83.0301 7.49349 85.3267 6.52015 87.7201 5.56015C90.0034 4.63545 92.3759 3.94849 94.8001 3.51015C96.9785 3.10558 99.2093 3.06839 101.4 3.40015C103.469 3.73824 105.378 4.7177 106.86 6.20015C108.099 7.5519 109.23 8.99977 110.24 10.5302C111.331 12.2788 112.128 14.1941 112.6 16.2002C113.108 18.1559 112.92 20.2272 112.07 22.0602C110.59 24.7724 108.481 27.0905 105.92 28.8202C102.71 31.0749 99.2788 32.9981 95.6801 34.5602C96.4901 35.4902 97.3901 36.4602 98.3701 37.4902C99.3501 38.5202 100.37 39.5502 101.37 40.5802C102.37 41.6102 103.37 42.5802 104.43 43.5802C105.49 44.5802 106.43 45.3702 107.28 46.0802C107.987 46.6802 108.32 47.1602 108.28 47.5202C108.125 47.99 107.8 48.3855 107.37 48.6302C106.903 49.041 106.349 49.3417 105.75 49.5102C105.31 49.6002 104.75 49.7002 104.13 49.8002C103.289 50.0232 102.414 50.0877 101.55 49.9902C100.379 49.8179 99.2591 49.3913 98.2701 48.7402C97.4567 48.1735 96.5167 47.4635 95.4501 46.6102C94.3834 45.7568 93.2834 44.8168 92.1501 43.7902C91.0201 42.7902 89.8801 41.6902 88.7501 40.5702C87.656 39.5038 86.6243 38.3753 85.6601 37.1902C85.1201 39.3502 84.6701 41.4202 84.2601 43.4102ZM89.6601 21.4102C89.1268 23.4702 88.5267 25.6702 87.8601 28.0102C90.1427 27.2754 92.3285 26.2681 94.3701 25.0102C96.0768 23.9656 97.6748 22.7529 99.1401 21.3902C100.245 20.3833 101.18 19.2049 101.91 17.9002C102.41 17.1508 102.6 16.2367 102.44 15.3502C102.01 14.3502 100.75 13.8602 98.6601 13.8602C97.514 13.8706 96.3717 13.9946 95.2501 14.2302C93.8872 14.5228 92.5667 14.9865 91.3201 15.6102C90.7501 17.3802 90.2001 19.3202 89.6601 21.3702V21.4102Z" fill="white"/>
<path d="M128.91 40.6702C126.552 40.9841 124.215 41.4349 121.91 42.0202C121.2 43.4102 120.58 44.6902 120.04 45.8802C119.5 47.0702 119.04 48.2302 118.5 49.3702C118.421 49.6093 118.291 49.8282 118.118 50.0114C117.945 50.1945 117.734 50.3375 117.5 50.4302C116.878 50.5142 116.244 50.4242 115.67 50.1702C115.2 49.9902 114.67 49.7902 114.15 49.5502C113.63 49.3102 113.04 49.0702 112.47 48.7802L111.36 48.0602C111.046 47.8791 110.787 47.6159 110.611 47.2988C110.434 46.9817 110.348 46.6227 110.36 46.2602C110.365 45.6523 110.463 45.0488 110.65 44.4702C111.503 42.0236 112.613 39.1502 113.98 35.8502C115.347 32.5502 116.817 29.1436 118.39 25.6302C119.97 22.1236 121.587 18.6569 123.24 15.2302C124.893 11.8036 126.463 8.76022 127.95 6.10022C128.446 5.17414 129.147 4.37374 130 3.76022C131.14 3.09487 132.478 2.85069 133.78 3.07022C135.24 3.14022 136.53 3.25022 137.67 3.41022C138.81 3.57022 139.84 3.76022 140.78 3.97022C141.72 4.18022 142.59 4.42022 143.39 4.66022C144.19 4.90022 144.99 5.14022 145.81 5.35022C146.686 5.57293 147.439 6.12922 147.91 6.90022C148.232 7.69182 148.332 8.55601 148.2 9.40022C147.987 11.9202 147.81 14.8102 147.67 18.0702C147.53 21.3302 147.423 24.7369 147.35 28.2902C147.277 31.8436 147.233 35.4002 147.22 38.9602C147.207 42.5202 147.207 45.8302 147.22 48.8902C147.245 49.1274 147.222 49.367 147.153 49.5954C147.085 49.8237 146.971 50.0361 146.82 50.2202C146.28 50.5367 145.651 50.6668 145.03 50.5902C144.11 50.5902 143.26 50.5902 142.48 50.5102C141.665 50.4516 140.861 50.2834 140.09 50.0102C139.411 49.8511 138.791 49.5047 138.3 49.0102C137.875 48.3952 137.626 47.6761 137.58 46.9302C137.44 45.9302 137.32 44.7802 137.21 43.5502C137.1 42.3202 137 40.9902 136.89 39.5502C134.217 39.9236 131.557 40.2969 128.91 40.6702ZM131.52 31.4902C133.14 31.3102 134.76 31.1702 136.39 31.0602C136.323 28.1469 136.27 25.2469 136.23 22.3602C136.23 19.4702 136.23 16.6002 136.29 13.7602C134.87 16.3536 133.333 19.2202 131.68 22.3602C130.027 25.5002 128.36 28.7569 126.68 32.1302C128.3 31.8802 129.91 31.6602 131.52 31.4902Z" fill="white"/>
<path d="M161.17 43.4102L160 49.2602C159.902 49.7078 159.647 50.1053 159.28 50.3802C158.736 50.5699 158.144 50.5699 157.6 50.3802C156.65 50.1302 155.79 49.9402 155.05 49.7902C154.307 49.6509 153.589 49.4015 152.92 49.0502C152.324 48.7367 151.841 48.2434 151.54 47.6402C151.269 46.937 151.177 46.1778 151.27 45.4302C151.34 44.6902 151.44 43.6002 151.56 42.1802C151.68 40.7602 151.84 39.1802 152.02 37.3702C152.2 35.5602 152.4 33.6502 152.63 31.5902C152.86 29.5302 153.11 27.4802 153.37 25.4202C153.63 23.3602 153.93 21.3702 154.25 19.4202C154.57 17.4702 154.91 15.7502 155.25 14.2102C155.537 12.9011 155.929 11.617 156.42 10.3702C156.657 9.61735 157.121 8.95679 157.75 8.48015C159.95 7.49349 162.25 6.52015 164.65 5.56015C166.93 4.63422 169.299 3.94721 171.72 3.51015C173.899 3.10558 176.13 3.06839 178.32 3.40015C180.39 3.733 182.302 4.71324 183.78 6.20015C185.023 7.54934 186.153 8.99746 187.16 10.5302C188.254 12.2783 189.055 14.1936 189.53 16.2002C190.035 18.157 189.844 20.2284 188.99 22.0602C187.511 24.77 185.406 27.0875 182.85 28.8202C179.636 31.0749 176.202 32.998 172.6 34.5602C173.42 35.4902 174.31 36.4602 175.29 37.4902C176.27 38.5202 177.29 39.5502 178.29 40.5802C179.29 41.6102 180.34 42.5802 181.35 43.5802C182.36 44.5802 183.35 45.3702 184.19 46.0802C184.897 46.6802 185.23 47.1602 185.19 47.5202C185.032 47.9857 184.713 48.3794 184.29 48.6302C183.819 49.0414 183.262 49.3421 182.66 49.5102C182.22 49.6002 181.66 49.7002 181.04 49.8002C180.2 50.0232 179.325 50.0877 178.46 49.9902C177.291 49.82 176.175 49.3931 175.19 48.7402C174.37 48.1735 173.43 47.4635 172.37 46.6102C171.31 45.7568 170.187 44.8135 169 43.7802C167.86 42.7468 166.724 41.6735 165.59 40.5602C164.499 39.4912 163.467 38.3628 162.5 37.1802C162 39.3502 161.57 41.4202 161.17 43.4102ZM166.57 21.4102C166.04 23.4702 165.43 25.6702 164.76 28.0102C168.949 26.6396 172.786 24.366 176 21.3502C177.105 20.3433 178.041 19.1649 178.77 17.8602C179.275 17.1129 179.466 16.1968 179.3 15.3102C178.88 14.3102 177.62 13.8202 175.52 13.8202C174.377 13.8306 173.239 13.9546 172.12 14.1902C170.754 14.4812 169.43 14.9449 168.18 15.5702C167.65 17.3802 167.1 19.3202 166.57 21.3702V21.4102Z" fill="white"/>
<path d="M207.15 9.13014C207.341 9.85196 207.313 10.6142 207.07 11.3201C206.57 12.9068 206.03 14.7335 205.45 16.8001C204.86 18.8601 204.28 21.0301 203.69 23.3201C203.1 25.6101 202.53 27.9501 201.96 30.3201C201.39 32.6901 200.84 35.0601 200.31 37.3201C199.78 39.5801 199.31 41.7701 198.85 43.8101C198.39 45.8501 198.02 47.6701 197.7 49.2701C197.606 49.7329 197.351 50.1474 196.98 50.4401C196.379 50.6183 195.737 50.5972 195.15 50.3801C194.22 50.1301 193.35 49.8901 192.51 49.6401C191.693 49.3838 190.902 49.0489 190.15 48.6401C189.474 48.3749 188.902 47.8977 188.52 47.2801C188.238 46.6007 188.155 45.8551 188.28 45.1301C188.35 43.8901 188.5 42.2801 188.73 40.3101C188.96 38.3401 189.25 36.1901 189.59 33.8401C189.93 31.4901 190.3 29.0401 190.73 26.4501C191.16 23.8601 191.59 21.3201 192.03 18.8401C192.47 16.3601 192.93 14.0001 193.39 11.7801C193.85 9.56014 194.28 7.62014 194.67 5.96014C194.739 5.57054 194.891 5.20026 195.115 4.87425C195.339 4.54823 195.631 4.27404 195.97 4.07014C196.789 3.84428 197.659 3.88989 198.45 4.20014C199.67 4.55404 200.858 5.0124 202 5.57014C203.169 6.07826 204.293 6.68372 205.36 7.38014C206.102 7.79332 206.72 8.39755 207.15 9.13014V9.13014Z" fill="white"/>
<path d="M239.93 11.0799C240.585 12.3957 241.044 13.8007 241.29 15.2499C241.687 18.045 241.777 20.8751 241.56 23.6899C241.34 26.7506 240.817 29.782 240 32.7399C239.182 35.6878 238.039 38.5353 236.59 41.2299C235.241 43.7786 233.446 46.0648 231.29 47.9799C229.979 49.0332 228.453 49.7875 226.82 50.1899C225.057 50.58 223.24 50.6612 221.45 50.4299C220.056 50.2826 218.671 50.0623 217.3 49.7699C215.949 49.4912 214.641 49.0339 213.41 48.4099C212.399 47.8805 211.453 47.2362 210.59 46.4899C209.699 45.7516 208.959 44.8484 208.41 43.8299C207.519 42.0836 206.873 40.2227 206.49 38.2999C206.06 36.1643 205.865 33.9879 205.91 31.8099C206.013 27.0468 207.031 22.348 208.91 17.9699C209.868 15.7336 211.054 13.6023 212.45 11.6099C213.838 9.61099 215.475 7.79648 217.32 6.20985C218.638 5.20222 220.134 4.45242 221.73 3.99985C223.323 3.51562 225.003 3.38928 226.65 3.62985C228.621 3.93704 230.557 4.43607 232.43 5.11985C234.074 5.69687 235.617 6.53052 237 7.58985C238.211 8.53441 239.209 9.72359 239.93 11.0799V11.0799ZM225.93 13.8399C224.859 14.8965 223.928 16.0862 223.16 17.3799C222.183 18.9837 221.321 20.6545 220.58 22.3799C219.818 24.0989 219.17 25.866 218.64 27.6699C217.667 30.9787 217.234 34.4231 217.36 37.8699C217.389 39.2353 217.643 40.5866 218.11 41.8699C218.24 42.3266 218.476 42.7461 218.799 43.0938C219.123 43.4415 219.524 43.7075 219.97 43.8699C220.37 43.987 220.792 44.0045 221.2 43.9208C221.608 43.8371 221.989 43.6548 222.31 43.3899C223.274 42.6747 224.103 41.7944 224.76 40.7899C225.678 39.4268 226.452 37.9724 227.07 36.4499C227.836 34.625 228.468 32.7467 228.96 30.8299C229.453 29.0229 229.827 27.1856 230.08 25.3299C230.352 23.4686 230.496 21.5908 230.51 19.7099C230.538 18.1775 230.367 16.648 230 15.1599C229.66 13.8999 229.14 13.1599 228.43 12.9499C227.72 12.7399 226.83 12.9999 225.91 13.8399H225.93Z" fill="white"/>
<path d="M242.73 38.4902C243.439 38.3636 244.161 38.3267 244.88 38.3802C245.584 38.4293 246.282 38.5533 246.96 38.7502C247.591 38.9365 248.191 39.2163 248.74 39.5802C251.147 41.1379 253.777 42.3214 256.54 43.0902C258.75 43.6202 260.36 43.5002 261.35 42.7202C261.435 42.6742 261.51 42.6106 261.569 42.5337C261.629 42.4568 261.671 42.3682 261.693 42.2739C261.716 42.1795 261.719 42.0814 261.701 41.986C261.683 41.8906 261.645 41.8 261.59 41.7202C261.241 41.169 260.79 40.6903 260.26 40.3102C259.61 39.8002 258.79 39.2302 257.81 38.6102C256.83 37.9902 255.81 37.3402 254.73 36.6702C253.65 36.0002 252.56 35.3002 251.48 34.5902C250.436 33.9267 249.434 33.1986 248.48 32.4102C247.558 31.621 246.726 30.7323 246 29.7602C244.44 27.7938 243.569 25.3697 243.52 22.8602C243.501 21.4705 243.717 20.0876 244.16 18.7702C244.542 17.4132 245.086 16.1072 245.78 14.8802C246.571 13.4787 247.47 12.1412 248.47 10.8802C249.501 9.55934 250.641 8.32826 251.88 7.2002C253.045 6.12499 254.311 5.16393 255.66 4.3302C256.196 3.96664 256.765 3.65522 257.36 3.4002C258.084 3.08684 258.842 2.86188 259.62 2.7302C260.516 2.58875 261.425 2.54516 262.33 2.6002C263.369 2.66255 264.396 2.85059 265.39 3.1602C267.031 3.74574 268.632 4.44063 270.18 5.2402C271.643 5.95619 272.991 6.88643 274.18 8.0002C274.822 8.55789 275.369 9.21652 275.8 9.9502C276.153 10.5576 276.423 11.2102 276.6 11.8902C276.756 12.4884 276.843 13.1023 276.86 13.7202C276.86 14.3069 276.86 14.8669 276.86 15.4002C276.738 16.4553 276.561 17.5034 276.33 18.5402C276.08 19.6802 275.8 20.8202 275.48 21.9702C275.16 23.1202 274.8 24.2402 274.41 25.3002C274.062 26.2208 273.665 27.1221 273.22 28.0002C273.124 28.3185 272.954 28.6096 272.724 28.8501C272.495 29.0906 272.212 29.2737 271.898 29.3847C271.585 29.4957 271.25 29.5314 270.92 29.4889C270.59 29.4464 270.275 29.327 270 29.1402C265.167 27.4402 262.93 25.1069 263.29 22.1402C263.344 21.4312 263.461 20.7284 263.64 20.0402C263.83 19.2402 264.03 18.4402 264.22 17.6502C264.41 16.8602 264.59 16.0802 264.73 15.3602C264.864 14.7737 264.908 14.17 264.86 13.5702C264.81 13.1102 264.64 12.8502 264.36 12.7802C264.08 12.7102 263.59 12.9002 262.92 13.3602C262.228 13.7788 261.584 14.2717 261 14.8302C260.274 15.4971 259.606 16.2229 259 17.0002C258.33 17.829 257.741 18.7197 257.24 19.6602C256.759 20.5624 256.421 21.534 256.24 22.5402C256.061 23.4735 256.078 24.4338 256.29 25.3602C256.532 26.3187 257.075 27.1741 257.84 27.8002C258.91 28.7953 260.057 29.7047 261.27 30.5202C262.497 31.3802 263.74 32.2069 265 33.0002C266.26 33.7935 267.45 34.5835 268.57 35.3702C269.582 36.0654 270.508 36.8777 271.33 37.7902C272.004 38.5306 272.482 39.4279 272.72 40.4002C272.891 41.4028 272.692 42.4336 272.16 43.3002C271.741 44.146 271.242 44.9497 270.67 45.7002C269.954 46.624 269.089 47.4216 268.11 48.0602C266.91 48.8539 265.604 49.4734 264.23 49.9002C262.452 50.4341 260.606 50.7036 258.75 50.7002C255.905 50.7676 253.077 50.2502 250.44 49.1802C247.34 47.8312 244.511 45.9303 242.09 43.5702C240.56 42.2602 239.76 41.2802 239.69 40.6402C239.692 40.3071 239.787 39.9812 239.964 39.6987C240.14 39.4162 240.392 39.1882 240.69 39.0402C241.351 38.7918 242.034 38.6077 242.73 38.4902V38.4902Z" fill="white"/>
<path d="M40.77 17.2399C39.77 20.5399 38.77 23.9299 37.77 27.4099C36.77 30.8899 35.8466 34.3499 35 37.7899C34.0933 41.2632 33.2833 44.4565 32.57 47.3699C32.6057 47.5573 32.587 47.7511 32.5161 47.9283C32.4452 48.1055 32.3251 48.2587 32.17 48.3699C31.835 48.5451 31.456 48.6181 31.08 48.5799C30.5319 48.5545 29.9884 48.4673 29.46 48.3199L27.46 47.8099C26.2407 47.4972 25.0886 46.9652 24.06 46.2399C23.65 45.9071 23.3564 45.4527 23.2216 44.9422C23.0868 44.4317 23.1177 43.8916 23.31 43.3999C23.45 42.1199 23.66 40.6499 23.95 38.9799C24.24 37.3099 24.57 35.4499 24.95 33.3899C23.46 33.5999 21.95 33.8099 20.56 33.9999C19.17 34.1899 17.66 34.4198 16.17 34.6698C15.6 37.1198 15.17 39.4099 14.78 41.5599C14.39 43.7099 14.11 45.6299 13.83 47.3299C13.8014 47.5609 13.7275 47.7841 13.6125 47.9866C13.4976 48.1891 13.3438 48.3669 13.16 48.5098C12.5586 48.681 11.9188 48.6601 11.33 48.4499C10.44 48.1999 9.51996 47.9499 8.57996 47.7099C7.73295 47.484 6.91931 47.1478 6.15996 46.7099C5.46757 46.4176 4.8641 45.9486 4.40996 45.3498C4.22368 45.0273 4.10778 44.6689 4.06987 44.2984C4.03195 43.9278 4.07288 43.5535 4.18996 43.1999C4.72996 40.7499 5.18996 37.8899 5.67996 34.6299C6.16996 31.3699 6.59996 27.9999 6.99996 24.4299C7.39996 20.8599 7.84996 17.3399 8.25996 13.8099C8.66996 10.2799 9.07996 7.02985 9.50996 4.04985C9.78996 2.90985 10.2 2.23985 10.73 2.04985C11.5174 1.8608 12.3463 1.95645 13.07 2.31985C14.3128 2.67582 15.5319 3.11002 16.72 3.61985C17.8991 4.1116 19.0306 4.71079 20.1 5.40985C20.5457 5.66732 20.9644 5.96883 21.35 6.30985C21.6137 6.55145 21.8307 6.83959 21.99 7.15985C22.118 7.47661 22.1627 7.82089 22.12 8.15985C22.0709 8.56984 22.0008 8.97705 21.91 9.37985C21.34 11.3799 20.74 13.7799 20.12 16.5199C19.5 19.2599 18.84 22.1799 18.12 25.2999C19.61 25.1199 21.12 24.9799 22.51 24.8699C23.9 24.7599 25.34 24.6599 26.69 24.5499C27.5633 20.7432 28.4333 16.9865 29.3 13.2799C30.1666 9.57319 30.99 6.20985 31.77 3.18985C32.09 2.05985 32.54 1.40985 33.13 1.24985C33.9799 1.11062 34.8514 1.19329 35.66 1.48985C36.755 1.79986 37.8221 2.20127 38.85 2.68985C39.939 3.19228 40.9916 3.77036 42 4.41985C42.6989 4.8518 43.2769 5.45389 43.68 6.16985C43.8653 6.87627 43.8162 7.62378 43.54 8.29985C42.6866 10.9599 41.7633 13.9399 40.77 17.2399Z" fill="#7ADBD4"/>
<path d="M74.8001 9.06985C75.4492 10.3917 75.9071 11.7991 76.1601 13.2499C76.5586 16.0449 76.6457 18.8756 76.4201 21.6899C76.205 24.7512 75.6824 27.7832 74.8601 30.7399C74.0423 33.6845 72.8986 36.5288 71.4501 39.2199C70.1063 41.7807 68.3108 44.0776 66.1501 45.9999C64.8364 47.0494 63.3117 47.8032 61.6801 48.2099C59.9162 48.59 58.1009 48.6712 56.3101 48.4499C54.9161 48.3034 53.5308 48.0831 52.1601 47.7899C50.8088 47.5112 49.5006 47.0539 48.2701 46.4299C47.2615 45.8969 46.3156 45.2529 45.4501 44.5099C44.5592 43.7716 43.819 42.8684 43.2701 41.8499C42.3789 40.1036 41.7328 38.2427 41.3501 36.3199C40.9193 34.181 40.7248 32.0012 40.7701 29.8199C40.8742 25.0602 41.8927 20.3649 43.7701 15.9899C44.7201 13.7498 45.9069 11.6177 47.3101 9.62985C48.6983 7.63099 50.3347 5.81648 52.1801 4.22985C53.4993 3.214 54.9991 2.45732 56.6001 1.99985C58.1928 1.51562 59.8729 1.38928 61.5201 1.62985C63.4907 1.93704 65.4266 2.43607 67.3001 3.11985C68.935 3.69489 70.4701 4.5215 71.8501 5.56985C73.068 6.51675 74.0731 7.70924 74.8001 9.06985ZM60.8001 11.8399C59.7185 12.8946 58.7774 14.0844 58.0001 15.3799C57.0234 16.9837 56.1613 18.6545 55.4201 20.3799C54.6585 22.0989 54.0104 23.866 53.4801 25.6699C52.9779 27.3666 52.62 29.1028 52.4101 30.8599C52.2058 32.5182 52.1356 34.1903 52.2001 35.8599C52.2311 37.2242 52.4809 38.5747 52.9401 39.8599C53.0751 40.3155 53.3143 40.7335 53.6389 41.0807C53.9635 41.4278 54.3645 41.6946 54.8101 41.8599C55.2097 41.977 55.6319 41.9945 56.0398 41.9108C56.4477 41.8271 56.8289 41.6448 57.1501 41.3799C58.1116 40.6621 58.9406 39.7822 59.6001 38.7799C60.5158 37.4156 61.2898 35.9614 61.9101 34.4399C62.676 32.615 63.3077 30.7367 63.8001 28.8199C64.2938 27.0097 64.668 25.1691 64.9201 23.3099C65.1927 21.452 65.3364 19.5775 65.3501 17.6999C65.3781 16.1675 65.2067 14.638 64.8401 13.1499C64.5001 11.8899 63.9801 11.1499 63.2701 10.9399C62.5601 10.7299 61.7001 10.9999 60.7801 11.8399H60.8001Z" fill="#7ADBD4"/>
<path d="M88.2698 41.4099C87.8598 43.4099 87.4598 45.3499 87.0698 47.2599C86.9719 47.7075 86.7164 48.105 86.3498 48.3799C85.8059 48.5697 85.2137 48.5697 84.6698 48.3799C83.6698 48.1299 82.8598 47.9299 82.1198 47.7899C81.3804 47.6497 80.6659 47.4003 79.9998 47.0499C79.4032 46.7364 78.9204 46.2431 78.6198 45.6399C78.349 44.9368 78.2563 44.1776 78.3498 43.4299C78.4198 42.6799 78.5198 41.5999 78.6398 40.1799C78.7598 38.7599 78.9198 37.1799 79.0998 35.3699C79.2798 33.5599 79.4798 31.6499 79.7098 29.5899C79.9398 27.5299 80.1898 25.4799 80.4498 23.4199C80.7098 21.3599 81.0098 19.3599 81.3298 17.4199C81.6498 15.4799 81.9898 13.7499 82.3298 12.1999C82.6168 10.894 83.008 9.61325 83.4998 8.36993C83.7362 7.61713 84.201 6.95657 84.8298 6.47993C87.0298 5.47993 89.3298 4.47993 91.7298 3.55993C94.0093 2.63399 96.3786 1.94698 98.7998 1.50993C100.978 1.1004 103.209 1.06321 105.4 1.39993C107.47 1.73277 109.381 2.71302 110.86 4.19993C112.105 5.54712 113.235 6.99544 114.24 8.52993C115.334 10.2781 116.134 12.1933 116.61 14.1999C117.114 16.1568 116.923 18.2282 116.07 20.0599C114.592 22.7686 112.487 25.0833 109.93 26.8099C106.719 29.0718 103.284 30.9985 99.6798 32.5599C100.5 33.4899 101.39 34.4599 102.37 35.4899C103.35 36.5199 104.37 37.5499 105.37 38.5799C106.37 39.6099 107.42 40.5799 108.43 41.5799C109.44 42.5799 110.43 43.3699 111.27 44.0799C111.98 44.6799 112.27 45.1599 112.27 45.5099C112.119 45.9819 111.798 46.381 111.37 46.6299C110.899 47.0412 110.342 47.3419 109.74 47.5099C109.3 47.5999 108.74 47.6999 108.12 47.7999C107.279 48.023 106.404 48.0874 105.54 47.9899C104.372 47.8144 103.257 47.388 102.27 46.7399C101.45 46.1733 100.51 45.4633 99.4498 44.6099C98.3898 43.7566 97.2898 42.8166 96.1498 41.7899C95.0098 40.7566 93.8732 39.6833 92.7398 38.5699C91.6484 37.501 90.6168 36.3726 89.6498 35.1899C89.1298 37.3399 88.6698 39.4199 88.2698 41.4099ZM93.6698 19.4099C93.1398 21.4699 92.5298 23.6699 91.8598 26.0099C94.144 25.2709 96.3326 24.2639 98.3798 23.0099C100.084 21.9657 101.678 20.753 103.14 19.3899C104.245 18.3831 105.18 17.2046 105.91 15.8999C106.415 15.1527 106.605 14.2366 106.44 13.3499C106.02 12.3499 104.76 11.8599 102.66 11.8599C101.517 11.8704 100.378 11.9943 99.2598 12.2299C97.8933 12.5209 96.5693 12.9847 95.3198 13.6099C94.7498 15.3799 94.1998 17.3199 93.6698 19.3699V19.4099Z" fill="#7ADBD4"/>
<path d="M132.92 38.6702C130.562 38.9836 128.225 39.4344 125.92 40.0202C125.21 41.4102 124.59 42.6902 124.06 43.8802C123.53 45.0702 123.01 46.2302 122.51 47.3702C122.43 47.609 122.3 47.8276 122.127 48.0107C121.954 48.1937 121.744 48.3369 121.51 48.4302C120.884 48.514 120.248 48.424 119.67 48.1702L118.15 47.5502C117.6 47.3202 117.04 47.0702 116.48 46.7802L115.36 46.0602C115.058 45.8855 114.801 45.6423 114.61 45.3502C114.424 45.013 114.325 44.6352 114.32 44.2502C114.326 43.6457 114.424 43.0456 114.61 42.4702C115.47 40.0202 116.61 37.1502 117.94 33.8502C119.27 30.5502 120.78 27.1402 122.36 23.6302C123.94 20.1202 125.55 16.6302 127.2 13.2302C128.85 9.83023 130.42 6.76023 131.91 4.10023C132.415 3.1684 133.131 2.3672 134 1.76023C135.135 1.09068 136.471 0.846145 137.77 1.07023C139.23 1.14023 140.52 1.25023 141.66 1.41023C142.8 1.57023 143.83 1.76023 144.77 1.97023C145.71 2.18023 146.58 2.41023 147.38 2.66023C148.18 2.91023 148.99 3.14023 149.8 3.35023C150.677 3.56896 151.432 4.12626 151.9 4.90023C152.225 5.69076 152.329 6.55512 152.2 7.40023C151.98 9.92023 151.81 12.8102 151.67 16.0702C151.53 19.3302 151.42 22.7402 151.35 26.2902C151.28 29.8402 151.23 33.4002 151.21 36.9602C151.19 40.5202 151.21 43.8402 151.21 46.8902C151.237 47.1275 151.215 47.3677 151.147 47.5963C151.078 47.825 150.963 48.0373 150.81 48.2202C150.273 48.536 149.648 48.666 149.03 48.5902C148.1 48.5902 147.25 48.5902 146.47 48.5102C145.654 48.4516 144.85 48.2834 144.08 48.0102C143.402 47.8487 142.783 47.5025 142.29 47.0102C141.874 46.3918 141.629 45.6741 141.58 44.9302C141.43 43.9302 141.31 42.7802 141.2 41.5502C141.09 40.3202 140.99 38.9902 140.88 37.5502C138.21 37.9302 135.56 38.2902 132.92 38.6702ZM135.53 29.4902C137.14 29.3102 138.76 29.1702 140.4 29.0602C140.32 26.1469 140.266 23.2469 140.24 20.3602C140.213 17.4736 140.213 14.6069 140.24 11.7602C138.82 14.3536 137.286 17.2202 135.64 20.3602C133.993 23.5002 132.326 26.7536 130.64 30.1202C132.31 29.8802 133.91 29.6602 135.53 29.4902Z" fill="#7ADBD4"/>
<path d="M165.17 41.4099C164.76 43.4099 164.36 45.3499 163.97 47.2599C163.872 47.7075 163.617 48.105 163.25 48.3799C162.709 48.5697 162.12 48.5697 161.58 48.3799C160.58 48.1299 159.77 47.9299 159.02 47.7899C158.278 47.6476 157.56 47.3983 156.89 47.0499C156.293 46.7364 155.811 46.2431 155.51 45.6399C155.239 44.9368 155.146 44.1776 155.24 43.4299C155.32 42.6799 155.41 41.5999 155.54 40.1799C155.67 38.7599 155.81 37.1799 155.99 35.3699C156.17 33.5599 156.37 31.6499 156.6 29.5899C156.83 27.5299 157.08 25.4799 157.35 23.4199C157.62 21.3599 157.9 19.3599 158.22 17.4199C158.54 15.4799 158.88 13.7499 159.22 12.1999C159.498 10.8917 159.889 9.61015 160.39 8.36993C160.623 7.61532 161.088 6.95372 161.72 6.47993C163.92 5.47993 166.21 4.47993 168.61 3.55993C170.892 2.63264 173.265 1.9456 175.69 1.50993C177.868 1.1004 180.1 1.06321 182.29 1.39993C184.356 1.73544 186.264 2.71544 187.74 4.19993C188.985 5.54712 190.115 6.99544 191.12 8.52993C192.214 10.2781 193.014 12.1933 193.49 14.1999C193.993 16.1561 193.805 18.2257 192.96 20.0599C191.482 22.7711 189.372 25.0864 186.81 26.8099C183.599 29.0718 180.164 30.9985 176.56 32.5599C177.38 33.4899 178.28 34.4599 179.25 35.4899C180.22 36.5199 181.25 37.5499 182.25 38.5799C183.25 39.6099 184.3 40.5799 185.31 41.5799C186.32 42.5799 187.31 43.3699 188.16 44.0799C188.87 44.6799 189.16 45.1599 189.16 45.5099C188.998 45.9786 188.675 46.3752 188.25 46.6299C187.781 47.0388 187.228 47.3393 186.63 47.5099C186.18 47.5999 185.63 47.6999 185 47.7999C184.159 48.023 183.284 48.0874 182.42 47.9899C181.252 47.8144 180.137 47.388 179.15 46.7399C178.33 46.1733 177.39 45.4633 176.33 44.6099C175.27 43.7566 174.16 42.8133 173 41.7799C171.86 40.7799 170.73 39.6799 169.59 38.5599C168.502 37.491 167.473 36.3626 166.51 35.1799C166.023 37.3399 165.577 39.4166 165.17 41.4099ZM170.57 19.4099C170.037 21.4699 169.433 23.6699 168.76 26.0099C171.044 25.2709 173.233 24.2639 175.28 23.0099C176.974 21.9534 178.555 20.7271 180 19.3499C181.105 18.3431 182.04 17.1646 182.77 15.8599C183.023 15.4911 183.199 15.0757 183.29 14.638C183.381 14.2003 183.385 13.7489 183.3 13.3099C182.88 12.3099 181.62 11.8199 179.53 11.8199C178.384 11.8304 177.242 11.9543 176.12 12.1899C174.754 12.4825 173.43 12.9462 172.18 13.5699C171.65 15.3799 171.1 17.3199 170.57 19.3699V19.4099Z" fill="#7ADBD4"/>
<path d="M211.15 7.12994C211.346 7.84778 211.318 8.60842 211.07 9.30994C210.57 10.9099 210.03 12.7399 209.45 14.7999C208.86 16.8499 208.28 19.0299 207.69 21.3199C207.1 23.6099 206.53 25.9499 205.96 28.3199C205.39 30.6899 204.85 33.0599 204.31 35.3199C203.77 37.5799 203.31 39.7699 202.85 41.8099C202.39 43.8499 202.02 45.6699 201.7 47.2599C201.618 47.7279 201.365 48.1486 200.99 48.4399C200.386 48.6133 199.742 48.5923 199.15 48.3799L196.52 47.6399C195.699 47.3854 194.905 47.0505 194.15 46.6399C193.474 46.3747 192.902 45.8975 192.52 45.2799C192.238 44.6005 192.155 43.8549 192.28 43.1299C192.36 41.8799 192.51 40.2799 192.74 38.3099C192.97 36.3399 193.25 34.1899 193.59 31.8399C193.93 29.4899 194.31 27.0399 194.73 24.4499C195.15 21.8599 195.59 19.3199 196.04 16.8299C196.49 14.3399 196.93 11.9999 197.39 9.82995C197.85 7.65995 198.28 5.66995 198.67 4.00995C198.747 3.62445 198.905 3.25985 199.134 2.94072C199.364 2.6216 199.659 2.35536 200 2.15995C200.816 1.93413 201.683 1.97976 202.47 2.28995C203.68 2.61782 204.861 3.04597 206 3.56994C207.166 4.07618 208.287 4.68174 209.35 5.37995C210.098 5.78846 210.721 6.39357 211.15 7.12994V7.12994Z" fill="#7ADBD4"/>
<path d="M243.94 9.07024C244.59 10.3909 245.045 11.7989 245.29 13.2502C245.687 16.0454 245.778 18.8755 245.56 21.6902C245.345 24.7516 244.822 27.7835 244 30.7402C243.187 33.6864 242.043 36.5312 240.59 39.2202C239.246 41.7811 237.451 44.078 235.29 46.0002C233.976 47.0498 232.452 47.8036 230.82 48.2102C229.053 48.5902 227.234 48.6713 225.44 48.4502C224.046 48.303 222.661 48.0827 221.29 47.7902C219.942 47.5117 218.637 47.0543 217.41 46.4302C216.4 45.8951 215.451 45.2512 214.58 44.5102C213.689 43.7719 212.949 42.8688 212.4 41.8502C211.508 40.1054 210.865 38.2439 210.49 36.3202C210.056 34.1817 209.858 32.002 209.9 29.8202C210.004 25.0605 211.023 20.3653 212.9 15.9902C213.858 13.754 215.044 11.6227 216.44 9.63024C217.831 7.6337 219.467 5.81954 221.31 4.23024C222.629 3.21439 224.129 2.45771 225.73 2.00024C227.326 1.51615 229.01 1.38982 230.66 1.63024C232.627 1.93862 234.56 2.43763 236.43 3.12024C238.075 3.69508 239.618 4.52891 241 5.59024C242.208 6.53637 243.209 7.72091 243.94 9.07024V9.07024ZM229.94 11.8402C228.872 12.8999 227.942 14.0891 227.17 15.3802C226.193 16.9841 225.331 18.6549 224.59 20.3802C223.833 22.101 223.185 23.8678 222.65 25.6702C222.146 27.3661 221.792 29.1027 221.59 30.8602C221.378 32.5179 221.304 34.1904 221.37 35.8602C221.399 37.2257 221.653 38.577 222.12 39.8602C222.25 40.317 222.486 40.7365 222.809 41.0842C223.133 41.4319 223.534 41.6979 223.98 41.8602C224.38 41.9782 224.802 41.9962 225.21 41.9125C225.618 41.8288 225.999 41.646 226.32 41.3802C227.284 40.6651 228.113 39.7848 228.77 38.7802C229.689 37.4164 230.467 35.9622 231.09 34.4402C231.855 32.6028 232.493 30.715 233 28.7902C233.49 26.9798 233.861 25.1392 234.11 23.2802C234.388 21.423 234.531 19.5481 234.54 17.6702C234.568 16.1379 234.397 14.6084 234.03 13.1202C233.7 11.8602 233.17 11.1202 232.46 10.9102C231.75 10.7002 230.83 11.0002 229.91 11.8402H229.94Z" fill="#7ADBD4"/>
<path d="M246.73 36.4802C247.44 36.357 248.162 36.3234 248.88 36.3802C249.585 36.4293 250.282 36.5533 250.96 36.7502C251.59 36.9355 252.19 37.2117 252.74 37.5702C255.148 39.1305 257.777 40.3173 260.54 41.0902C262.76 41.6202 264.36 41.5002 265.36 40.7102C265.447 40.6654 265.523 40.6024 265.583 40.5256C265.643 40.4488 265.686 40.3599 265.709 40.2651C265.731 40.1702 265.734 40.0716 265.715 39.9758C265.696 39.8801 265.657 39.7895 265.6 39.7102C265.246 39.1638 264.795 38.6861 264.27 38.3002C263.61 37.7902 262.79 37.2202 261.82 36.6002L258.73 34.6602C257.65 33.9802 256.57 33.2902 255.48 32.5802C254.437 31.9142 253.436 31.1862 252.48 30.4002C251.559 29.6142 250.727 28.7288 250 27.7602C249.242 26.7937 248.642 25.7138 248.22 24.5602C247.785 23.3739 247.548 22.1237 247.52 20.8602C247.5 19.4705 247.717 18.0875 248.16 16.7702C248.54 15.4109 249.087 14.1042 249.79 12.8802C250.574 11.4767 251.47 10.139 252.47 8.88021C253.504 7.56171 254.644 6.33086 255.88 5.20021C257.046 4.12499 258.311 3.16394 259.66 2.33021C260.197 1.96872 260.766 1.6574 261.36 1.40021C262.083 1.08372 262.842 0.85865 263.62 0.73021C264.519 0.588743 265.431 0.545156 266.34 0.600211C267.379 0.664298 268.406 0.852298 269.4 1.16021C271.038 1.75026 272.638 2.4416 274.19 3.23021C275.652 3.95232 277 4.88565 278.19 6.00021C279.378 7.01666 280.223 8.37523 280.61 9.89021C280.764 10.489 280.855 11.1024 280.88 11.7202C280.88 12.3102 280.88 12.8702 280.88 13.4002C280.762 14.4559 280.585 15.5042 280.35 16.5402C280.1 17.6802 279.82 18.8202 279.5 19.9702C279.18 21.1202 278.82 22.2302 278.44 23.3002C278.078 24.2198 277.671 25.1209 277.22 26.0002C276.981 26.5798 276.55 27.0598 276 27.3602C275.354 27.5162 274.674 27.4382 274.08 27.1402C269.26 25.4402 267.024 23.1069 267.37 20.1402C267.43 19.4319 267.547 18.7295 267.72 18.0402C267.92 17.2402 268.11 16.4402 268.31 15.6402C268.51 14.8402 268.67 14.0802 268.81 13.3602C268.942 12.7732 268.989 12.1705 268.95 11.5702C268.89 11.1102 268.72 10.8502 268.44 10.7702C268.16 10.6902 267.68 10.9002 267 11.3602C266.281 11.7737 265.61 12.2668 265 12.8302C264.275 13.4972 263.606 14.223 263 15.0002C262.334 15.8315 261.745 16.7218 261.24 17.6602C260.765 18.5614 260.428 19.5289 260.24 20.5302C260.065 21.4642 260.085 22.4245 260.3 23.3502C260.531 24.3136 261.072 25.1744 261.84 25.8002C262.911 26.7953 264.057 27.7047 265.27 28.5202C266.497 29.3802 267.74 30.2069 269 31.0002C270.26 31.7935 271.45 32.5835 272.57 33.3702C273.586 34.0602 274.513 34.873 275.33 35.7902C276.008 36.5281 276.486 37.4263 276.72 38.4002C276.895 39.4028 276.696 40.4349 276.16 41.3002C275.745 42.1481 275.246 42.9521 274.67 43.7002C273.954 44.624 273.089 45.4216 272.11 46.0602C270.912 46.8565 269.605 47.4761 268.23 47.9002C266.453 48.4349 264.606 48.7045 262.75 48.7002C259.909 48.7685 257.083 48.2511 254.45 47.1802C251.346 45.834 248.513 43.9329 246.09 41.5702C244.57 40.2502 243.77 39.2802 243.7 38.6402C243.7 38.3066 243.794 37.9797 243.971 37.6968C244.148 37.4139 244.4 37.1864 244.7 37.0402C245.357 36.7886 246.037 36.6011 246.73 36.4802V36.4802Z" fill="#7ADBD4"/>
</svg>
