<svg viewBox="0 0 696 157" fill="none" xmlns="http://www.w3.org/2000/svg">
<path d="M47.1188 140.002C47.1019 141.499 46.6654 142.961 45.8588 144.222C44.8771 146.18 43.6174 147.985 42.1188 149.582C40.7409 151.083 39.2167 152.443 37.5688 153.642C36.7078 154.175 35.8009 154.63 34.8588 155.002C33.7789 155.444 32.6653 155.798 31.5288 156.062C30.3272 156.338 29.1075 156.529 27.8788 156.632C26.6511 156.739 25.4165 156.739 24.1888 156.632C21.8512 156.504 19.536 156.108 17.2888 155.452C15.2355 154.832 13.3955 154.249 11.7688 153.702C10.1965 153.04 8.72268 152.165 7.38881 151.102C5.9817 150.025 4.81938 148.662 3.97881 147.102C2.48125 144.563 1.46428 141.77 0.978812 138.862C0.399038 135.512 0.194444 132.107 0.368814 128.712C0.570056 124.976 1.1157 121.267 1.99881 117.632C2.89557 113.805 4.13387 110.067 5.69881 106.462C7.24959 102.868 9.13806 99.4291 11.3388 96.1919C13.462 93.0471 15.9866 90.193 18.8488 87.7019C20.8242 85.9146 23.1855 84.6073 25.7488 83.8819C27.8914 83.3042 30.1147 83.0846 32.3288 83.2319C33.9034 83.4156 35.4637 83.7063 36.9988 84.1019C38.5952 84.499 40.1677 84.9865 41.7088 85.5619C43.1704 86.1101 44.6024 86.7342 45.9988 87.4319C47.2527 88.0542 48.4712 88.7452 49.6488 89.5019C50.5809 90.2727 51.4381 91.1298 52.2088 92.0619C52.8489 92.8477 53.3927 93.7071 53.8288 94.6219C54.2331 95.4863 54.519 96.4012 54.6788 97.3419C54.8439 98.3348 54.9507 99.3365 54.9988 100.342C55.0662 101.641 55.0662 102.943 54.9988 104.242C54.9188 105.575 54.7955 106.909 54.6288 108.242C54.4621 109.575 54.2521 110.865 53.9988 112.112C53.7583 113.223 53.4612 114.321 53.1088 115.402C52.9488 115.835 52.7855 116.242 52.6188 116.622C52.4741 116.976 52.2356 117.284 51.9288 117.512C51.5523 117.757 51.1176 117.899 50.6688 117.922C49.935 117.965 49.1987 117.911 48.4788 117.762C46.9369 117.498 45.4326 117.048 43.9988 116.422C42.8625 115.936 41.8175 115.26 40.9088 114.422C40.1102 113.629 39.4629 112.697 38.9988 111.672C38.4777 110.538 38.1207 109.336 37.9388 108.102C37.7843 107.052 37.7041 105.993 37.6988 104.932C37.7617 103.358 37.6813 101.781 37.4588 100.222C37.4203 99.6267 37.2177 99.0537 36.8736 98.5666C36.5294 98.0794 36.057 97.6971 35.5088 97.4619C34.4221 97.1353 33.1488 97.7586 31.6888 99.3319C29.9931 101.217 28.4953 103.271 27.2188 105.462C25.6207 108.14 24.1977 110.92 22.9588 113.782C21.7361 116.529 20.6907 119.351 19.8288 122.232C19.136 124.89 18.6084 127.589 18.2488 130.312C17.9068 132.733 17.783 135.179 17.8788 137.622C17.9306 139.52 18.2885 141.398 18.9388 143.182C19.121 143.816 19.452 144.397 19.9043 144.877C20.3565 145.357 20.9169 145.722 21.5388 145.942C23.7055 146.649 27.0088 144.725 31.4488 140.172C34.6421 136.925 38.8121 136.032 43.9588 137.492C45.9855 138.032 47.0388 138.869 47.1188 140.002Z" fill="white"/>
<path d="M79.2778 140.86C75.6807 141.342 72.1147 142.034 68.5978 142.93C67.5178 145.043 66.5712 147.007 65.7578 148.82C64.9445 150.633 64.1612 152.407 63.4078 154.14C63.2792 154.509 63.071 154.846 62.798 155.126C62.5249 155.406 62.1938 155.622 61.8278 155.76C60.8746 155.882 59.9061 155.74 59.0278 155.35C58.3212 155.077 57.5512 154.767 56.7178 154.42C55.8845 154.073 55.0312 153.68 54.1578 153.24C53.4912 152.807 52.9212 152.44 52.4478 152.14C51.959 151.866 51.5538 151.465 51.2755 150.979C50.9972 150.493 50.8563 149.94 50.8678 149.38C50.8795 148.456 51.0312 147.539 51.3178 146.66C52.6178 142.927 54.3112 138.54 56.3978 133.5C58.4845 128.46 60.7312 123.263 63.1378 117.91C65.5445 112.577 68.0078 107.283 70.5278 102.03C73.0478 96.7766 75.4378 92.1399 77.6978 88.1199C78.4704 86.7052 79.5544 85.4844 80.8678 84.5499C82.1678 83.6299 84.0912 83.2766 86.6378 83.4899C88.8578 83.5966 90.8345 83.7733 92.5678 84.0199C94.3012 84.2666 95.8845 84.5499 97.3178 84.8699C98.7512 85.1966 100.085 85.5499 101.318 85.9299C102.551 86.3099 103.778 86.6666 104.998 86.9999C106.336 87.3343 107.49 88.182 108.208 89.3599C108.701 90.5691 108.856 91.8893 108.658 93.1799C108.331 97.0266 108.061 101.44 107.848 106.42C107.635 111.4 107.465 116.593 107.338 122C107.231 127.413 107.165 132.84 107.138 138.28C107.111 143.72 107.111 148.77 107.138 153.43C107.173 153.787 107.137 154.148 107.033 154.491C106.928 154.834 106.756 155.153 106.528 155.43C105.708 155.914 104.753 156.114 103.808 156C102.401 156 101.101 155.96 99.9078 155.88C98.6623 155.787 97.4347 155.528 96.2578 155.11C95.2329 154.886 94.2908 154.381 93.5378 153.65C92.8927 152.711 92.5127 151.616 92.4378 150.48C92.2178 148.913 92.0278 147.193 91.8678 145.32C91.7078 143.447 91.5445 141.403 91.3778 139.19C87.3445 139.73 83.3112 140.287 79.2778 140.86ZM83.2778 126.86C85.7378 126.587 88.2145 126.37 90.7078 126.21C90.6012 121.77 90.5212 117.343 90.4678 112.93C90.4145 108.517 90.4412 104.143 90.5478 99.8099C88.3812 103.763 86.0478 108.137 83.5478 112.93C81.0478 117.723 78.5178 122.69 75.9578 127.83C78.3578 127.45 80.7912 127.123 83.2578 126.85L83.2778 126.86Z" fill="white"/>
<path d="M136.447 153.199C132.847 153.866 129.424 154.533 126.177 155.199C125.198 155.485 124.193 155.676 123.177 155.769C122.471 155.829 121.761 155.789 121.067 155.649C120.546 155.539 120.042 155.361 119.567 155.119C119.158 154.901 118.764 154.658 118.387 154.389C117.513 153.828 116.671 153.217 115.867 152.559C115.107 151.939 114.107 151.139 112.867 150.159C111.995 149.46 111.277 148.588 110.757 147.599C110.252 146.523 110.108 145.313 110.347 144.149C110.507 142.036 110.777 139.533 111.157 136.639C111.537 133.746 111.997 130.619 112.537 127.259C113.077 123.926 113.674 120.446 114.327 116.819C114.98 113.193 115.684 109.606 116.437 106.059C117.197 102.486 117.967 99.0492 118.747 95.7492C119.527 92.4492 120.297 89.4192 121.057 86.6592C121.597 85.0925 122.287 84.1592 123.127 83.8592C124.387 83.5797 125.702 83.6771 126.907 84.1392C128.758 84.6413 130.576 85.2626 132.347 85.9992C134.139 86.7022 135.855 87.5868 137.467 88.6392C138.542 89.3161 139.446 90.2336 140.107 91.3192C140.451 92.3891 140.38 93.5495 139.907 94.5692C138.827 97.8158 137.73 101.389 136.617 105.289C135.504 109.189 134.394 113.189 133.287 117.289C132.174 121.403 131.117 125.503 130.117 129.589C129.117 133.676 128.184 137.586 127.317 141.319C129.804 140.886 132.137 140.553 134.317 140.319C136.497 140.086 138.854 139.896 141.387 139.749C142.544 139.605 143.718 139.701 144.837 140.029C145.751 140.446 146.506 141.147 146.987 142.029C147.615 142.972 148.144 143.978 148.567 145.029C148.95 145.964 149.261 146.927 149.497 147.909C149.837 148.614 149.936 149.412 149.777 150.179C149.584 150.559 148.65 150.913 146.977 151.239L136.447 153.199Z" fill="white"/>
<path d="M182.821 92.7405C183.114 93.8376 183.073 94.9975 182.701 96.0705C181.941 98.5039 181.114 101.291 180.221 104.431C179.327 107.571 178.434 110.887 177.541 114.381C176.647 117.874 175.767 121.447 174.901 125.101C174.034 128.754 173.194 132.327 172.381 135.821C171.567 139.314 170.824 142.617 170.151 145.731C169.477 148.844 168.894 151.617 168.401 154.051C168.262 154.76 167.871 155.396 167.301 155.841C166.383 156.118 165.401 156.09 164.501 155.761C163.094 155.381 161.761 155.001 160.501 154.621C159.253 154.252 158.044 153.763 156.891 153.161C155.863 152.755 154.993 152.029 154.411 151.091C153.97 150.053 153.841 148.91 154.041 147.801C154.147 145.907 154.377 143.457 154.731 140.451C155.084 137.444 155.517 134.154 156.031 130.581C156.544 127.007 157.127 123.244 157.781 119.291C158.434 115.337 159.101 111.467 159.781 107.681C160.447 103.894 161.137 100.307 161.851 96.9205C162.564 93.5339 163.204 90.5605 163.771 88.0005C164.257 86.4339 164.924 85.4739 165.771 85.1205C167.019 84.7776 168.345 84.8477 169.551 85.3205C171.418 85.8306 173.241 86.4928 175.001 87.3005C176.782 88.0746 178.495 88.9978 180.121 90.0605C181.245 90.6948 182.178 91.6207 182.821 92.7405Z" fill="white"/>
<path d="M192.998 87.0006C195.886 85.975 198.862 85.2152 201.888 84.7306C205.067 84.2137 208.29 84.0227 211.508 84.1606C214.747 84.2825 217.948 84.9031 220.998 86.0006C224.106 87.141 226.983 88.835 229.488 91.0006C234.706 95.8388 238.043 102.368 238.908 109.431C239.279 113 239.073 116.606 238.298 120.111C237.452 123.926 236.072 127.602 234.198 131.031C232.159 134.779 229.604 138.223 226.608 141.261C223.307 144.603 219.582 147.497 215.528 149.871C210.976 152.546 206.09 154.607 200.998 156.001C199.576 156.478 198.072 156.659 196.577 156.534C195.083 156.408 193.63 155.978 192.308 155.271C190.935 154.6 189.6 153.855 188.308 153.041C187.168 152.307 185.868 151.401 184.408 150.321C183.868 149.834 183.354 149.361 182.868 148.901C182.376 148.436 181.951 147.904 181.608 147.321C181.231 146.645 180.996 145.9 180.918 145.131C180.813 144.021 180.84 142.904 180.998 141.801L185.708 90.2306C188.048 88.9616 190.486 87.8815 192.998 87.0006ZM207.498 136.781C210.325 134.48 212.836 131.817 214.968 128.861C216.801 126.315 218.275 123.529 219.348 120.581C220.263 118.099 220.838 115.506 221.058 112.871C221.271 109.537 220.891 106.967 219.918 105.161C218.786 103.191 216.96 101.715 214.798 101.021C212.364 100.101 209.388 100.211 205.868 101.351C203.974 108.444 202.308 115.444 200.868 122.351C199.428 129.257 198.021 136.227 196.648 143.261C200.546 141.645 204.188 139.469 207.458 136.801L207.498 136.781Z" fill="white"/>
<path d="M265.648 140.86C262.061 141.344 258.505 142.035 254.998 142.93C253.918 145.044 252.972 147.007 252.158 148.82C251.345 150.634 250.558 152.407 249.798 154.14C249.67 154.51 249.462 154.847 249.189 155.127C248.916 155.407 248.585 155.623 248.218 155.76C247.265 155.883 246.297 155.741 245.418 155.35C244.712 155.077 243.942 154.767 243.108 154.42C242.275 154.074 241.422 153.68 240.548 153.24C239.882 152.807 239.312 152.44 238.838 152.14C238.35 151.867 237.944 151.465 237.666 150.979C237.388 150.493 237.247 149.94 237.258 149.38C237.271 148.456 237.423 147.539 237.708 146.66C239.008 142.927 240.702 138.54 242.788 133.5C244.875 128.46 247.122 123.264 249.528 117.91C251.935 112.577 254.398 107.284 256.918 102.03C259.438 96.7771 261.835 92.1337 264.108 88.1004C264.881 86.6856 265.965 85.4649 267.278 84.5304C268.578 83.6104 270.502 83.2571 273.048 83.4704C275.268 83.5771 277.245 83.7537 278.978 84.0004C280.712 84.2471 282.295 84.5304 283.728 84.8504C285.162 85.1771 286.495 85.5304 287.728 85.9104C288.962 86.2904 290.168 86.6537 291.348 87.0004C292.687 87.3337 293.841 88.1818 294.558 89.3604C295.052 90.5695 295.207 91.8898 295.008 93.1804C294.682 97.0271 294.412 101.44 294.198 106.42C293.985 111.4 293.818 116.594 293.698 122C293.592 127.414 293.525 132.84 293.498 138.28C293.472 143.72 293.472 148.77 293.498 153.43C293.534 153.788 293.498 154.148 293.393 154.491C293.289 154.835 293.117 155.154 292.888 155.43C292.069 155.913 291.113 156.114 290.168 156C288.762 156 287.462 155.96 286.268 155.88C285.023 155.788 283.795 155.529 282.618 155.11C281.594 154.886 280.652 154.381 279.898 153.65C279.254 152.712 278.874 151.617 278.798 150.48C278.578 148.914 278.388 147.194 278.228 145.32C278.068 143.447 277.905 141.404 277.738 139.19C273.712 139.73 269.682 140.287 265.648 140.86ZM269.648 126.86C272.108 126.587 274.585 126.37 277.078 126.21C276.972 121.77 276.892 117.344 276.838 112.93C276.785 108.517 276.812 104.144 276.918 99.8104C274.752 103.764 272.418 108.137 269.918 112.93C267.418 117.724 264.888 122.69 262.328 127.83C264.728 127.45 267.162 127.124 269.628 126.85L269.648 126.86Z" fill="white"/>
<path d="M310.801 87.0006C313.689 85.9749 316.664 85.2151 319.691 84.7306C322.87 84.2137 326.093 84.0227 329.311 84.1606C332.555 84.2911 335.759 84.9219 338.811 86.0306C341.919 87.1708 344.796 88.8648 347.301 91.0306C352.519 95.8683 355.856 102.397 356.721 109.461C357.093 113.03 356.887 116.637 356.111 120.141C355.265 123.956 353.885 127.632 352.011 131.061C349.972 134.809 347.417 138.253 344.421 141.291C341.12 144.633 337.395 147.528 333.341 149.901C328.781 152.567 323.889 154.619 318.791 156.001C317.369 156.478 315.865 156.659 314.37 156.534C312.876 156.408 311.423 155.978 310.101 155.271C308.728 154.6 307.393 153.855 306.101 153.041C304.961 152.307 303.661 151.401 302.201 150.321C301.661 149.834 301.147 149.361 300.661 148.901C300.169 148.436 299.745 147.904 299.401 147.321C299.023 146.645 298.789 145.9 298.711 145.131C298.606 144.021 298.633 142.904 298.791 141.801L303.501 90.2306C305.844 88.9611 308.285 87.881 310.801 87.0006ZM325.291 136.781C328.118 134.481 330.63 131.818 332.761 128.861C334.598 126.316 336.075 123.529 337.151 120.581C338.066 118.1 338.641 115.506 338.861 112.871C339.074 109.537 338.694 106.967 337.721 105.161C336.593 103.184 334.767 101.7 332.601 101.001C330.167 100.081 327.191 100.191 323.671 101.331C321.777 108.424 320.111 115.424 318.671 122.331C317.231 129.237 315.824 136.207 314.451 143.241C318.359 141.634 322.011 139.465 325.291 136.801V136.781Z" fill="white"/>
<path d="M28.2875 12.6811C28.5666 13.7292 28.5248 14.8369 28.1675 15.8611C27.4408 18.1811 26.6542 20.8477 25.8075 23.8611C24.9608 26.8744 24.1108 30.0377 23.2575 33.3511C22.4042 36.6844 21.5642 40.0911 20.7375 43.5711C19.9108 47.0511 19.1108 50.4577 18.3375 53.7911C17.5642 57.1244 16.8542 60.2744 16.2075 63.2411C15.5608 66.2077 15.0042 68.8544 14.5375 71.1811C14.4196 71.8496 14.0646 72.4532 13.5375 72.8811C12.6623 73.1442 11.7254 73.1161 10.8675 72.8011C9.53416 72.4411 8.25749 72.0811 7.03749 71.7211C5.84511 71.3708 4.68967 70.9052 3.58749 70.3311C2.6055 69.9367 1.77756 69.2351 1.22749 68.3311C0.807382 67.3409 0.685731 66.2495 0.877491 65.1911C0.984158 63.3844 1.20416 61.0511 1.53749 58.1911C1.87083 55.3311 2.28416 52.1944 2.77749 48.7811C3.23749 45.3677 3.77749 41.7744 4.39749 38.0011C5.01749 34.2277 5.65082 30.5344 6.29749 26.9211C6.96416 23.3077 7.63082 19.8877 8.29749 16.6611C8.96416 13.4344 9.58416 10.6077 10.1575 8.18106C10.6242 6.68106 11.2575 5.7644 12.0575 5.43106C13.2465 5.10398 14.5095 5.17064 15.6575 5.62106C17.4355 6.09789 19.1713 6.71998 20.8475 7.48106C22.5453 8.21888 24.1777 9.09867 25.7275 10.1111C26.7969 10.7213 27.6814 11.6093 28.2875 12.6811Z" fill="white"/>
<path d="M63.9981 26.3085C65.5181 19.7551 67.0281 13.7151 68.5281 8.18845C68.6149 7.61055 68.8308 7.05964 69.1598 6.57662C69.4887 6.09361 69.9222 5.69092 70.4282 5.39845C71.6594 5.03451 72.9734 5.06247 74.1882 5.47845L76.2781 6.01845C76.9008 6.17496 77.5095 6.38233 78.0981 6.63845C78.6915 6.89845 79.3248 7.20845 79.9981 7.56845C80.6715 7.92845 81.4415 8.40512 82.3081 8.99845C83.8081 9.92512 84.6482 10.8684 84.8282 11.8284C84.9903 12.9899 84.8702 14.1733 84.4782 15.2785C83.2915 19.0984 82.0515 23.4318 80.7582 28.2784C79.4648 33.1251 78.1882 38.0318 76.9282 42.9984C75.6415 48.0318 74.4282 52.9384 73.2882 57.7184C72.1482 62.4984 71.1482 66.6951 70.2882 70.3084C69.9815 72.2684 68.4315 72.9351 65.6381 72.3084C63.1657 71.8212 60.7325 71.1527 58.3582 70.3084C57.2764 69.9138 56.29 69.2958 55.4629 68.4946C54.6359 67.6935 53.9869 66.7271 53.5581 65.6585C52.8315 64.0585 52.0948 62.1984 51.3481 60.0784C50.6015 57.9584 49.8381 55.6751 49.0581 53.2284C48.2848 50.7751 47.5115 48.2184 46.7381 45.5584C45.9648 42.8984 45.2415 40.2318 44.5681 37.5584C44.0015 40.7584 43.4215 43.9584 42.8282 47.1584L41.1282 56.3384C40.5882 59.2584 40.0981 61.9684 39.6581 64.4684C39.2181 66.9684 38.8848 69.1485 38.6581 71.0085C38.6217 71.3425 38.5135 71.6646 38.3409 71.9529C38.1683 72.2411 37.9354 72.4886 37.6581 72.6785C36.757 72.8985 35.8097 72.8321 34.9482 72.4884L31.1881 71.4884C29.8909 71.1396 28.6513 70.604 27.5081 69.8985C26.5524 69.4909 25.7506 68.7906 25.2182 67.8984C24.7921 66.9103 24.6434 65.8247 24.7882 64.7584C24.8948 63.3651 25.0615 61.3651 25.2882 58.7584C25.5148 56.1518 25.8248 53.2218 26.2182 49.9684C26.6048 46.6884 27.0448 43.1784 27.5382 39.4384C28.0315 35.6984 28.5515 31.9951 29.0981 28.3285C29.6648 24.6085 30.2448 21.0184 30.8382 17.5584C31.4315 14.0984 32.0115 11.0251 32.5782 8.33845C32.9382 6.79178 33.5848 5.82178 34.5182 5.42845C35.7525 5.02385 37.0838 5.02385 38.3181 5.42845C40.2248 5.99512 42.0848 6.56178 43.8982 7.12845C45.8307 7.74832 47.7185 8.50008 49.5482 9.37845C50.9269 9.87023 52.1279 10.7614 52.9981 11.9384C53.7921 13.3035 54.2928 14.8191 54.4682 16.3884C54.7282 17.8884 55.0615 19.7985 55.4682 22.1185C55.8748 24.4385 56.3382 26.9551 56.8582 29.6684C57.3715 32.3818 57.9148 35.1684 58.4881 38.0284C59.0615 40.8884 59.6282 43.6384 60.1882 46.2784C61.2015 39.5251 62.4715 32.8685 63.9981 26.3085Z" fill="white"/>
<path d="M128.898 36.6484C128.066 37.0406 127.132 37.163 126.228 36.9984C122.614 36.4851 119.968 35.4251 118.288 33.8184C116.571 32.1317 115.538 29.8702 115.388 27.4684C115.288 26.9704 115.224 26.4657 115.198 25.9584C115.159 25.4291 115.159 24.8977 115.198 24.3684C115.198 23.7984 115.198 23.2584 115.118 22.7384L114.998 21.1984C114.791 20.2184 114.598 19.3917 114.418 18.7184C114.375 18.442 114.26 18.1819 114.084 17.9641C113.909 17.7464 113.679 17.5789 113.418 17.4784C112.384 17.1717 111.158 17.5984 109.738 18.7584C108.062 20.2113 106.601 21.8948 105.398 23.7584C103.787 26.1697 102.35 28.6927 101.098 31.3084C99.6939 34.2007 98.504 37.1921 97.5377 40.2584C96.6595 42.7344 96.0232 45.2897 95.6377 47.8884C95.2611 50.2822 95.1171 52.7068 95.2077 55.1284C95.2554 57.0712 95.6202 58.9932 96.2877 60.8184C96.4713 61.462 96.7965 62.0565 97.2394 62.5582C97.6824 63.06 98.2319 63.4564 98.8477 63.7184C99.807 64.0261 100.849 63.9435 101.748 63.4884C102.881 62.9355 103.9 62.172 104.748 61.2384C105.825 60.0817 106.786 58.8223 107.618 57.4784C108.582 55.942 109.461 54.3529 110.248 52.7184C107.114 52.9051 104.698 52.3651 102.998 51.0984C101.298 49.8317 99.9644 47.7417 98.9977 44.8284C98.8854 44.5784 98.8274 44.3075 98.8274 44.0334C98.8274 43.7593 98.8854 43.4884 98.9977 43.2384C99.286 42.8062 99.7073 42.4797 100.198 42.3084C100.872 42.0493 101.573 41.8682 102.288 41.7684L105.078 41.3384C107.06 40.904 109.062 40.5702 111.078 40.3384C113.144 40.1051 114.924 39.8584 116.418 39.5984C117.824 39.3208 119.271 39.3208 120.678 39.5984C121.853 39.9543 122.897 40.6502 123.678 41.5984C124.293 42.2653 124.873 42.9629 125.418 43.6884L126.928 45.6884C127.687 46.589 128.157 47.697 128.278 48.8684C128.26 50.035 128.037 51.1894 127.618 52.2784C126 56.4651 123.812 60.4088 121.118 63.9984C118.908 66.906 116.174 69.3751 113.058 71.2784C111.229 72.2992 109.235 72.993 107.168 73.3284C105.01 73.6512 102.816 73.6512 100.658 73.3284C96.6493 72.8044 92.7364 71.71 89.0377 70.0784C87.6091 69.2933 86.2937 68.3177 85.1277 67.1784C83.9038 66.0287 82.8887 64.6753 82.1277 63.1784C80.7115 60.6461 79.7662 57.878 79.3377 55.0084C78.8105 51.7024 78.6796 48.3454 78.9477 45.0084C79.227 41.381 79.8498 37.7882 80.8077 34.2784C81.799 30.622 83.1384 27.0691 84.8077 23.6684C86.4799 20.2623 88.49 17.0327 90.8077 14.0284C93.0251 11.1131 95.6484 8.53026 98.5977 6.3584C99.5081 5.64643 100.519 5.07353 101.598 4.6584C102.659 4.25219 103.763 3.96705 104.888 3.8084C105.978 3.65553 107.077 3.57868 108.178 3.5784C109.182 3.57286 110.186 3.64979 111.178 3.8084C112.561 3.9701 113.93 4.22738 115.278 4.5784C116.668 4.97975 118.037 5.45373 119.378 5.9984C120.658 6.47146 121.902 7.03972 123.098 7.6984C124.208 8.30907 125.26 9.02216 126.238 9.8284C127.834 11.0237 129.111 12.5931 129.958 14.3984C130.711 16.1851 131.203 18.0712 131.418 19.9984C131.471 21.0851 131.471 22.2984 131.418 23.6384C131.364 24.9784 131.288 26.3117 131.188 27.6384C131.061 28.9717 130.908 30.2617 130.728 31.5084C130.548 32.7551 130.354 33.7884 130.148 34.6084C129.945 35.3985 129.51 36.1094 128.898 36.6484Z" fill="white"/>
<path d="M147.57 62.5616C146.977 65.4549 146.397 68.2949 145.83 71.0816C145.702 71.727 145.348 72.3054 144.83 72.7116C144.039 72.9836 143.181 72.9836 142.39 72.7116C140.997 72.3516 139.757 72.0682 138.67 71.8616C137.589 71.6578 136.544 71.2938 135.57 70.7816C134.705 70.3251 134.005 69.6079 133.57 68.7316C133.179 67.7098 133.045 66.6074 133.18 65.5216C133.287 64.4349 133.43 62.8616 133.61 60.8016C133.79 58.7416 134.01 56.4082 134.27 53.8016C134.53 51.1949 134.827 48.3949 135.16 45.4016C135.493 42.4082 135.853 39.4082 136.24 36.4016C136.627 33.4082 137.053 30.5049 137.52 27.6916C137.987 24.8782 138.477 22.3482 138.99 20.1016C139.398 18.1969 139.967 16.3303 140.69 14.5216C141.031 13.4235 141.71 12.4611 142.63 11.7716C145.83 10.3249 149.163 8.90491 152.63 7.51158C155.951 6.15853 159.402 5.15317 162.93 4.51158C166.098 3.91975 169.344 3.86566 172.53 4.35158C175.54 4.83737 178.319 6.26187 180.47 8.42158C182.28 10.3867 183.926 12.4971 185.39 14.7316C186.979 17.2807 188.134 20.0751 188.81 23.0016C189.477 26.4616 189.22 29.3016 188.04 31.5216C185.888 35.4708 182.818 38.8454 179.09 41.3616C174.417 44.6501 169.421 47.4546 164.18 49.7316C165.367 51.0649 166.67 52.4849 168.09 53.9916C169.51 55.4982 170.97 56.9949 172.47 58.4816C173.97 59.9816 175.453 61.4282 176.92 62.8216C178.387 64.2149 179.767 65.4282 181.06 66.4616C182.093 67.3416 182.557 68.0382 182.45 68.5516C182.221 69.236 181.752 69.8148 181.13 70.1816C180.447 70.7768 179.641 71.2139 178.77 71.4616C178.103 71.5882 177.317 71.7316 176.41 71.8916C175.183 72.2075 173.909 72.2989 172.65 72.1616C170.95 71.9089 169.325 71.2877 167.89 70.3416C166.703 69.5149 165.337 68.4816 163.79 67.2416C162.243 66.0016 160.647 64.6216 159 63.1016C157.347 61.6016 155.68 60.0382 154 58.4116C152.413 56.8567 150.914 55.2141 149.51 53.4916C148.81 56.6449 148.163 59.6682 147.57 62.5616ZM155.43 30.4916C154.657 33.4849 153.78 36.6849 152.8 40.0916C156.126 39.0138 159.312 37.5434 162.29 35.7116C164.772 34.1939 167.094 32.4282 169.22 30.4416C170.819 28.9794 172.17 27.2671 173.22 25.3716C174.047 23.7716 174.303 22.5316 173.99 21.6516C173.37 20.2049 171.537 19.4816 168.49 19.4816C166.81 19.496 165.135 19.6769 163.49 20.0216C161.503 20.4418 159.577 21.1139 157.76 22.0216C156.98 24.6749 156.203 27.4982 155.43 30.4916Z" fill="white"/>
<path d="M202.398 7.9996C205.112 7.3796 207.952 6.81294 210.918 6.29961C213.885 5.78627 216.932 5.35294 220.058 4.99961C223.178 4.61294 226.288 4.36627 229.388 4.25961C232.335 4.20627 234.218 5.34294 235.038 7.66961C235.636 8.71976 236.106 9.83771 236.438 10.9996C236.698 12.0063 236.958 13.1029 237.218 14.2896C237.425 15.6229 237.322 16.5263 236.908 16.9996C236.067 17.6305 235.049 17.9805 233.998 17.9996C230.898 18.3596 227.698 18.7196 224.398 19.0796C221.098 19.4396 217.632 19.8863 213.998 20.4196C213.225 22.7396 212.502 25.1529 211.828 27.6596C211.155 30.1663 210.405 32.7863 209.578 35.5196C211.125 35.3129 212.675 35.1596 214.228 35.0596C215.782 34.9596 217.448 34.8829 219.228 34.8296C220.379 34.7416 221.537 34.874 222.638 35.2196C223.553 35.6125 224.295 36.3228 224.728 37.2196C225.315 38.1844 225.795 39.2105 226.158 40.2796C226.492 41.2863 226.788 42.3063 227.048 43.3396C227.462 44.5263 227.502 45.3263 227.168 45.7396C226.399 46.3462 225.473 46.7209 224.498 46.8196C221.398 47.3863 218.235 47.9296 215.008 48.4496C211.782 48.9696 208.672 49.5363 205.678 50.1496C205.265 51.8029 204.878 53.3663 204.518 54.8396C204.158 56.3129 203.772 57.7729 203.358 59.2196C205.785 58.8063 208.095 58.4729 210.288 58.2196C212.482 57.9663 214.868 57.7596 217.448 57.5996C218.581 57.4633 219.73 57.5689 220.818 57.9096C221.69 58.2841 222.411 58.9387 222.868 59.7696C223.432 60.6943 223.911 61.6683 224.298 62.6796C224.632 63.5796 225.005 64.4963 225.418 65.4296C225.689 66.1137 225.689 66.8755 225.418 67.5596C225.158 67.9463 224.332 68.2796 222.938 68.5596C219.605 69.1796 216.248 69.8263 212.868 70.4996C209.488 71.1729 206.235 71.7929 203.108 72.3596C201.595 72.8475 199.987 72.9674 198.418 72.7096C197.442 72.4619 196.513 72.0566 195.668 71.5096C194.788 70.9429 193.948 70.3629 193.148 69.7696C192.348 69.1763 191.405 68.4129 190.318 67.4796C189.461 66.781 188.763 65.9084 188.268 64.9196C187.756 63.8074 187.556 62.5769 187.688 61.3596L194.998 9.8096C197.225 9.2696 199.692 8.66627 202.398 7.9996Z" fill="white"/>
<path d="M244.691 7.22102C247.445 6.24151 250.284 5.51517 253.171 5.05102C256.204 4.55899 259.28 4.37805 262.351 4.51102C265.444 4.63456 268.5 5.23496 271.411 6.29102C274.372 7.37676 277.113 8.9894 279.501 11.051C282.152 13.4004 284.287 16.2743 285.771 19.491C287.234 22.3428 288.153 25.4424 288.481 28.631C288.836 32.0368 288.641 35.4776 287.901 38.821C287.098 42.4609 285.785 45.969 284.001 49.241C282.056 52.8173 279.619 56.1027 276.761 59.001C273.612 62.1884 270.058 64.9486 266.191 67.211C261.843 69.7442 257.179 71.691 252.321 73.001C250.964 73.457 249.529 73.6302 248.103 73.5098C246.677 73.3894 245.291 72.978 244.031 72.301C242.73 71.6588 241.465 70.9478 240.241 70.171C239.154 69.5044 237.914 68.641 236.521 67.581C236.007 67.1144 235.517 66.661 235.051 66.221C234.581 65.7769 234.177 65.2685 233.851 64.711C233.49 64.0668 233.265 63.3555 233.191 62.621C233.093 61.5616 233.119 60.4942 233.271 59.441L237.761 10.261C239.987 9.06667 242.304 8.05017 244.691 7.22102ZM258.521 54.701C261.218 52.5084 263.616 49.9699 265.651 47.151C267.4 44.7224 268.807 42.064 269.831 39.251C270.703 36.8824 271.251 34.4066 271.461 31.891C271.667 28.7444 271.307 26.291 270.381 24.531C269.313 22.6327 267.571 21.205 265.501 20.531C263.174 19.651 260.334 19.7544 256.981 20.841C255.174 27.6077 253.574 34.2744 252.181 40.841C250.787 47.4077 249.454 54.0544 248.181 60.781C251.904 59.2677 255.388 57.2195 258.521 54.701Z" fill="white"/>
<path d="M315.948 12.6789C316.227 13.727 316.185 14.8348 315.828 15.8589C315.101 18.1789 314.314 20.8455 313.468 23.8589C312.621 26.8722 311.768 30.0355 310.908 33.3489C310.054 36.6822 309.214 40.0889 308.388 43.5689C307.561 47.0489 306.764 50.4489 305.998 53.7689C305.224 57.1022 304.514 60.2522 303.868 63.2189C303.221 66.1855 302.664 68.8322 302.198 71.1589C302.08 71.8274 301.725 72.431 301.198 72.8589C300.322 73.122 299.385 73.0939 298.528 72.7789C297.194 72.4189 295.918 72.0589 294.698 71.6989C293.505 71.3489 292.35 70.8833 291.248 70.3089C290.266 69.9139 289.438 69.2124 288.888 68.3089C288.468 67.3187 288.346 66.2273 288.538 65.1689C288.644 63.3622 288.864 61.0289 289.198 58.1689C289.531 55.3089 289.944 52.1722 290.438 48.7589C290.931 45.3522 291.484 41.7622 292.098 37.9889C292.711 34.2155 293.344 30.5289 293.998 26.9289C294.664 23.3155 295.331 19.8955 295.998 16.6689C296.664 13.4422 297.284 10.6155 297.858 8.18887C298.324 6.68887 298.958 5.77221 299.758 5.43887C300.947 5.1118 302.21 5.17845 303.358 5.62887C305.136 6.1057 306.871 6.72779 308.548 7.48887C310.246 8.22626 311.878 9.10607 313.428 10.1189C314.481 10.7325 315.351 11.6163 315.948 12.6789Z" fill="white"/>
<path d="M327.999 7.9996C330.713 7.3796 333.553 6.81294 336.519 6.29961C339.486 5.78627 342.543 5.35294 345.689 4.99961C348.809 4.61294 351.919 4.36627 355.019 4.25961C357.966 4.20627 359.849 5.34294 360.669 7.66961C361.267 8.72001 361.737 9.8379 362.069 10.9996C362.329 12.0063 362.586 13.1029 362.839 14.2896C363.046 15.6229 362.943 16.5263 362.529 16.9996C361.7 17.6227 360.697 17.9721 359.659 17.9996C356.559 18.3596 353.356 18.7196 350.049 19.0796C346.743 19.4396 343.256 19.8796 339.589 20.3996C338.816 22.7196 338.093 25.1329 337.419 27.6396C336.746 30.1463 335.996 32.7663 335.169 35.4996C336.716 35.2929 338.266 35.1396 339.819 35.0396C341.373 34.9396 343.039 34.8629 344.819 34.8096C345.97 34.7216 347.128 34.854 348.229 35.1996C349.144 35.5925 349.886 36.3028 350.319 37.1996C350.906 38.1644 351.386 39.1905 351.749 40.2596C352.083 41.2663 352.379 42.2863 352.639 43.3196C353.053 44.5063 353.093 45.3063 352.759 45.7196C351.99 46.3262 351.064 46.7009 350.089 46.7996C346.989 47.3663 343.826 47.9096 340.599 48.4296C337.373 48.9496 334.263 49.5163 331.269 50.1296C330.856 51.7829 330.469 53.3463 330.109 54.8196C329.749 56.2929 329.363 57.7529 328.949 59.1996C331.376 58.7863 333.686 58.4529 335.879 58.1996C338.073 57.9463 340.446 57.7463 342.999 57.5996C344.132 57.4633 345.281 57.5689 346.369 57.9096C347.241 58.2841 347.962 58.9387 348.419 59.7696C348.984 60.6939 349.462 61.668 349.849 62.6796C350.183 63.5796 350.556 64.4963 350.969 65.4296C351.24 66.1137 351.24 66.8755 350.969 67.5596C350.709 67.9463 349.883 68.2796 348.489 68.5596C345.156 69.1796 341.799 69.8263 338.419 70.4996C335.039 71.1729 331.786 71.7929 328.659 72.3596C327.146 72.8475 325.538 72.9674 323.969 72.7096C322.994 72.4614 322.065 72.0561 321.219 71.5096C320.339 70.9429 319.499 70.3629 318.699 69.7696C317.899 69.1763 316.956 68.4129 315.869 67.4796C315.013 66.7803 314.314 65.9079 313.819 64.9196C313.307 63.8075 313.106 62.5769 313.239 61.3596L320.599 9.84961C322.866 9.28294 325.333 8.66627 327.999 7.9996Z" fill="white"/>
<path d="M396.338 26.3086C397.858 19.7553 399.368 13.7153 400.868 8.18861C400.955 7.61071 401.171 7.05979 401.5 6.57678C401.829 6.09377 402.262 5.69107 402.768 5.39861C403.999 5.03467 405.313 5.06263 406.528 5.4786L408.618 6.01861C409.241 6.17512 409.849 6.38248 410.438 6.63861C411.031 6.89861 411.665 7.20861 412.338 7.56861C413.011 7.92861 413.785 8.40527 414.658 8.99861C416.158 9.92527 416.998 10.8686 417.178 11.8286C417.34 12.99 417.22 14.1734 416.828 15.2786C415.641 19.0986 414.401 23.4319 413.108 28.2786C411.815 33.1253 410.538 38.0319 409.278 42.9986C408.011 48.0053 406.798 52.8986 405.638 57.6786C404.478 62.4586 403.478 66.6553 402.638 70.2686C402.331 72.2286 400.781 72.8953 397.988 72.2686C395.516 71.7814 393.082 71.1129 390.708 70.2686C389.626 69.874 388.64 69.256 387.813 68.4548C386.986 67.6536 386.337 66.6873 385.908 65.6186C385.181 64.0186 384.445 62.1586 383.698 60.0386C382.951 57.9186 382.188 55.6353 381.408 53.1886C380.635 50.7353 379.861 48.1786 379.088 45.5186C378.315 42.8586 377.591 40.1919 376.918 37.5186C376.351 40.7186 375.771 43.9186 375.178 47.1186L373.478 56.2986C372.938 59.2186 372.448 61.9286 372.008 64.4286C371.568 66.9286 371.231 69.1186 370.998 70.9986C370.962 71.3326 370.853 71.6548 370.681 71.943C370.508 72.2313 370.275 72.4788 369.998 72.6686C369.097 72.8886 368.15 72.8222 367.288 72.4786L363.528 71.4786C362.231 71.1297 360.991 70.5941 359.848 69.8886C358.892 69.481 358.09 68.7808 357.558 67.8886C357.132 66.9005 356.983 65.8149 357.128 64.7486C357.235 63.3553 357.401 61.3553 357.628 58.7486C357.855 56.1419 358.165 53.2119 358.558 49.9586C358.945 46.6786 359.385 43.1686 359.878 39.4286C360.371 35.6886 360.901 31.9586 361.468 28.2386C362.035 24.5186 362.615 20.9286 363.208 17.4686C363.801 14.0086 364.381 10.9353 364.948 8.24861C365.308 6.70194 365.955 5.73194 366.888 5.33861C368.122 4.93401 369.454 4.93401 370.688 5.33861C372.595 5.90527 374.455 6.47194 376.268 7.03861C378.201 7.65847 380.088 8.41024 381.918 9.28861C383.277 9.77644 384.463 10.6527 385.328 11.8086C386.122 13.1736 386.623 14.6892 386.798 16.2586C387.058 17.7586 387.391 19.6686 387.798 21.9886C388.205 24.3086 388.668 26.8253 389.188 29.5386C389.728 32.3453 390.265 35.1653 390.798 37.9986C391.331 40.8319 391.898 43.5819 392.498 46.2486C393.538 39.5153 394.818 32.8686 396.338 26.3086Z" fill="white"/>
<path d="M459.659 17.91L452.299 18.65L448.929 32.1301C447.769 36.7967 446.645 41.4067 445.559 45.96C444.472 50.5134 443.452 54.9634 442.499 59.31C441.545 63.65 440.705 67.7034 439.979 71.47C439.969 71.7483 439.897 72.021 439.769 72.2683C439.641 72.5156 439.46 72.7314 439.239 72.9C438.749 73.1539 438.197 73.2615 437.649 73.21C436.861 73.1613 436.082 73.0169 435.329 72.78L432.389 71.93C431.391 71.6521 430.409 71.3182 429.449 70.93C428.645 70.6138 427.898 70.1679 427.239 69.61C426.678 69.1177 426.252 68.4916 425.999 67.7901C425.733 66.9747 425.705 66.1006 425.919 65.27C426.072 62.79 426.382 59.7434 426.849 56.13C427.315 52.5167 427.872 48.6967 428.519 44.67C429.185 40.67 429.895 36.6034 430.649 32.4701C431.402 28.3367 432.165 24.5134 432.939 21C431.439 21.26 429.992 21.48 428.599 21.66C427.421 21.7997 426.255 22.0202 425.109 22.32C424.078 22.6242 422.989 22.6654 421.939 22.4401C420.851 22.0262 419.89 21.337 419.149 20.4401C417.959 19.2231 416.948 17.8425 416.149 16.34C415.249 14.6867 414.512 13.2934 413.939 12.16C413.365 11.0267 413.212 10.24 413.479 9.80005C414.011 9.28074 414.687 8.9325 415.419 8.80005C418.465 8.18005 421.912 7.61338 425.759 7.10005C429.605 6.58672 433.529 6.12338 437.529 5.71005C441.529 5.29672 445.452 4.96338 449.299 4.71005C453.145 4.45672 456.592 4.26338 459.639 4.13005C460.805 4.07084 461.972 4.21637 463.089 4.56005C463.821 4.86502 464.457 5.36265 464.929 6.00005C465.951 7.16997 466.812 8.47155 467.489 9.87005C468.119 11.1969 468.624 12.5795 468.999 14C469.305 14.7845 469.305 15.6556 468.999 16.4401C468.712 16.8801 467.769 17.15 466.169 17.25L459.659 17.91Z" fill="white"/>
<path d="M478.52 7.9996C481.233 7.3796 484.073 6.81294 487.04 6.29961C490.006 5.78627 493.053 5.35294 496.18 4.99961C499.3 4.61294 502.41 4.36627 505.51 4.25961C508.456 4.20627 510.34 5.34294 511.16 7.66961C511.758 8.71976 512.228 9.83771 512.56 10.9996C512.82 12.0063 513.08 13.1029 513.34 14.2896C513.546 15.6229 513.443 16.5263 513.03 16.9996C512.2 17.6227 511.197 17.9721 510.16 17.9996C507.06 18.3596 503.86 18.7196 500.56 19.0796C497.26 19.4396 493.773 19.8863 490.1 20.4196C489.326 22.7396 488.603 25.1529 487.93 27.6596C487.256 30.1663 486.506 32.7863 485.68 35.5196C487.226 35.3129 488.776 35.1596 490.33 35.0596C491.883 34.9596 493.55 34.8829 495.33 34.8296C496.481 34.7416 497.638 34.874 498.74 35.2196C499.655 35.6125 500.397 36.3228 500.83 37.2196C501.417 38.1844 501.896 39.2105 502.26 40.2796C502.593 41.2863 502.89 42.3063 503.15 43.3396C503.563 44.5263 503.603 45.3263 503.27 45.7396C502.501 46.3462 501.574 46.7209 500.6 46.8196C497.5 47.3863 494.336 47.9296 491.11 48.4496C487.883 48.9696 484.773 49.5363 481.78 50.1496C481.366 51.8029 480.98 53.3663 480.62 54.8396C480.26 56.3129 479.873 57.7729 479.46 59.2196C481.886 58.8063 484.196 58.4729 486.39 58.2196C488.583 57.9663 490.97 57.7596 493.55 57.5996C494.682 57.4633 495.831 57.5689 496.92 57.9096C497.791 58.2841 498.513 58.9387 498.97 59.7696C499.534 60.6943 500.012 61.6683 500.4 62.6796C500.733 63.5796 501.106 64.4963 501.52 65.4296C501.791 66.1137 501.791 66.8755 501.52 67.5596C501.26 67.9463 500.433 68.2796 499.04 68.5596C495.706 69.1796 492.35 69.8263 488.97 70.4996C485.59 71.1729 482.336 71.7929 479.21 72.3596C477.696 72.8475 476.089 72.9674 474.52 72.7096C473.544 72.4619 472.615 72.0566 471.77 71.5096C470.89 70.9429 470.05 70.3629 469.25 69.7696C468.45 69.1763 467.506 68.4129 466.42 67.4796C465.563 66.781 464.864 65.9084 464.37 64.9196C463.858 63.8074 463.657 62.5769 463.79 61.3596L471.15 9.84961C473.35 9.28294 475.806 8.66627 478.52 7.9996Z" fill="white"/>
<path d="M509.148 55.1198C510.174 54.9638 511.212 54.9102 512.248 54.9598C513.265 55.0056 514.272 55.1735 515.248 55.4598C516.17 55.7276 517.046 56.1321 517.848 56.6598C521.368 59.0079 525.235 60.7864 529.308 61.9298C532.562 62.7032 534.895 62.4965 536.308 61.3098C536.448 61.2523 536.573 61.1639 536.673 61.0511C536.774 60.9384 536.848 60.8044 536.889 60.6591C536.931 60.5137 536.939 60.3609 536.912 60.2121C536.886 60.0633 536.827 59.9223 536.738 59.7998C536.217 59.0076 535.561 58.3136 534.798 57.7498C533.845 56.9765 532.658 56.1232 531.238 55.1898C529.818 54.2565 528.308 53.2998 526.708 52.3198C525.108 51.3398 523.508 50.3198 521.908 49.2598C520.401 48.2742 518.952 47.2024 517.568 46.0498C516.127 44.9192 514.839 43.6047 513.738 42.1398C512.638 40.6921 511.762 39.0876 511.138 37.3798C510.515 35.639 510.177 33.8086 510.138 31.9598C510.113 29.9221 510.427 27.8943 511.068 25.9598C511.61 23.8816 512.409 21.8793 513.448 19.9998C514.604 17.8872 515.943 15.8796 517.448 13.9998C518.965 12.0604 520.637 10.2478 522.448 8.57984C524.185 6.97641 526.066 5.53695 528.068 4.27984C528.816 3.74031 529.621 3.28426 530.468 2.91984C531.531 2.44633 532.65 2.11029 533.798 1.91984C535.121 1.71173 536.462 1.64802 537.798 1.72984C539.322 1.8208 540.829 2.09271 542.288 2.53984C544.693 3.40488 547.032 4.44086 549.288 5.63984C551.419 6.72406 553.407 8.06759 555.208 9.63984C556.143 10.5016 556.951 11.4914 557.608 12.5798C558.14 13.4761 558.543 14.4421 558.808 15.4498C559.036 16.35 559.167 17.2719 559.198 18.1998C559.198 19.1065 559.198 19.9465 559.198 20.7198C558.992 22.0532 558.708 23.5765 558.348 25.2898C557.988 27.0032 557.562 28.7332 557.068 30.4798C556.575 32.2332 556.058 33.8998 555.518 35.4798C555.064 36.8537 554.506 38.1909 553.848 39.4798C553.432 40.3233 552.769 41.0207 551.948 41.4798C551.459 41.6029 550.95 41.6283 550.45 41.5545C549.951 41.4808 549.471 41.3092 549.038 41.0498C542.012 38.7632 538.785 35.4132 539.358 30.9998C539.487 29.9324 539.681 28.8737 539.938 27.8298C540.218 26.6432 540.502 25.4432 540.788 24.2298C541.075 23.0165 541.322 21.8665 541.528 20.7798C541.718 19.9305 541.782 19.0578 541.718 18.1898C541.638 17.5498 541.378 17.1898 540.948 17.0298C540.518 16.8698 539.798 17.1998 538.818 17.9198C537.768 18.4937 536.791 19.1921 535.908 19.9998C534.818 20.9965 533.815 22.0838 532.908 23.2498C531.946 24.4705 531.103 25.7797 530.388 27.1598C529.689 28.4849 529.194 29.9074 528.918 31.3798C528.66 32.7641 528.688 34.1865 528.998 35.5598C529.347 36.9909 530.133 38.2775 531.248 39.2398C532.796 40.7361 534.469 42.0977 536.248 43.3098C538.082 44.5765 539.932 45.8065 541.798 46.9998C543.665 48.1932 545.398 49.3665 546.998 50.5198C548.464 51.5482 549.807 52.7428 550.998 54.0798C551.983 55.1634 552.672 56.4825 552.998 57.9098C553.257 59.4068 552.97 60.9469 552.188 62.2498C551.569 63.4888 550.836 64.6672 549.998 65.7698C548.958 67.138 547.702 68.327 546.278 69.2898C544.551 70.4628 542.661 71.3758 540.668 71.9998C538.073 72.7792 535.378 73.1701 532.668 73.1598C528.49 73.2628 524.335 72.4966 520.468 70.9098C515.929 68.916 511.794 66.1061 508.268 62.6198C505.995 60.7065 504.808 59.2332 504.708 58.1998C504.675 57.7179 504.805 57.2388 505.077 56.8397C505.349 56.4406 505.747 56.1447 506.208 55.9998C507.144 55.5749 508.133 55.2788 509.148 55.1198Z" fill="white"/>
<path d="M595.32 7.22099C598.075 6.24153 600.913 5.51519 603.8 5.05099C606.833 4.55902 609.909 4.37808 612.98 4.51099C616.06 4.63845 619.102 5.2388 622 6.29099C624.962 7.37632 627.702 8.98901 630.09 11.051C632.741 13.4002 634.876 16.2741 636.36 19.491C637.824 22.3426 638.743 25.4423 639.07 28.631C639.426 32.0367 639.23 35.4777 638.49 38.821C637.684 42.4612 636.368 45.9693 634.58 49.241C632.648 52.8149 630.224 56.1002 627.38 59.001C624.231 62.1885 620.677 64.9488 616.81 67.211C612.465 69.7433 607.805 71.6902 602.95 73.001C601.593 73.457 600.158 73.6301 598.732 73.5097C597.306 73.3893 595.92 72.978 594.66 72.301C593.359 71.6592 592.094 70.9482 590.87 70.171C589.783 69.5043 588.543 68.641 587.15 67.581C586.636 67.1143 586.146 66.661 585.68 66.221C585.211 65.7766 584.807 65.2682 584.48 64.711C584.119 64.0668 583.895 63.3554 583.82 62.621C583.721 61.5615 583.748 60.4942 583.9 59.441L588.39 10.261C590.616 9.06622 592.933 8.0497 595.32 7.22099ZM609.14 54.701C611.838 52.5083 614.235 49.9698 616.27 47.151C618.019 44.7222 619.426 42.0638 620.45 39.251C621.323 36.8826 621.871 34.4067 622.08 31.891C622.286 28.7443 621.926 26.291 621 24.531C619.932 22.6333 618.19 21.2058 616.12 20.531C613.8 19.651 610.96 19.7543 607.6 20.841C605.793 27.6077 604.193 34.2743 602.8 40.841C601.406 47.4077 600.073 54.0543 598.8 60.781C602.524 59.2679 606.007 57.2197 609.14 54.701Z" fill="white"/>
<path d="M654.487 7.9996C657.2 7.3796 660.04 6.81294 663.007 6.29961C665.974 5.78627 669.02 5.35294 672.147 4.99961C675.267 4.61294 678.377 4.36627 681.477 4.25961C684.424 4.20627 686.307 5.34294 687.127 7.66961C687.724 8.72001 688.194 9.8379 688.527 10.9996C688.787 12.0063 689.044 13.1029 689.297 14.2896C689.504 15.6229 689.4 16.5263 688.987 16.9996C688.157 17.6227 687.154 17.9721 686.117 17.9996C683.017 18.3596 679.814 18.7196 676.507 19.0796C673.2 19.4396 669.714 19.8796 666.047 20.3996C665.274 22.7196 664.55 25.1329 663.877 27.6396C663.204 30.1463 662.454 32.7663 661.627 35.4996C663.174 35.2929 664.724 35.1396 666.277 35.0396C667.83 34.9396 669.497 34.8629 671.277 34.8096C672.428 34.7216 673.586 34.854 674.687 35.1996C675.602 35.5925 676.344 36.3028 676.777 37.1996C677.364 38.1644 677.843 39.1905 678.207 40.2596C678.54 41.2663 678.837 42.2863 679.097 43.3196C679.51 44.5063 679.55 45.3063 679.217 45.7196C678.448 46.3262 677.522 46.7009 676.547 46.7996C673.447 47.3663 670.284 47.9096 667.057 48.4296C663.83 48.9496 660.72 49.5163 657.727 50.1296C657.314 51.7829 656.927 53.3463 656.567 54.8196C656.207 56.2929 655.82 57.7529 655.407 59.1996C657.834 58.7863 660.144 58.4529 662.337 58.1996C664.53 57.9463 666.92 57.7396 669.507 57.5796C670.64 57.4433 671.788 57.5489 672.877 57.8896C673.748 58.2641 674.47 58.9187 674.927 59.7496C675.492 60.6739 675.97 61.648 676.357 62.6596C676.69 63.5596 677.064 64.4763 677.477 65.4096C677.748 66.0937 677.748 66.8555 677.477 67.5396C677.217 67.9263 676.39 68.2596 674.997 68.5396C671.664 69.1596 668.307 69.8063 664.927 70.4796C661.547 71.1529 658.294 71.7729 655.167 72.3396C653.654 72.8275 652.046 72.9474 650.477 72.6896C649.501 72.4414 648.573 72.0361 647.727 71.4896C646.847 70.9229 646.007 70.3429 645.207 69.7496C644.407 69.1563 643.464 68.3929 642.377 67.4596C641.521 66.7603 640.822 65.8879 640.327 64.8996C639.814 63.7875 639.614 62.5569 639.747 61.3396L647.107 9.82961C649.314 9.27627 651.774 8.66627 654.487 7.9996Z" fill="white"/>
<path d="M34.15 10.9093C34.4174 11.9573 34.3652 13.0613 34 14.0793C33.2733 16.3993 32.4867 19.066 31.64 22.0793C30.7933 25.0927 29.9433 28.256 29.09 31.5693C28.2367 34.9027 27.3967 38.3093 26.57 41.7893C25.7433 45.2693 24.9533 48.6727 24.2 51.9993C23.4 55.3327 22.69 58.4827 22.07 61.4493C21.45 64.416 20.8933 67.0593 20.4 69.3793C20.2821 70.0479 19.9271 70.6515 19.4 71.0793C18.5094 71.3538 17.553 71.3256 16.68 70.9993C15.3467 70.6393 14.07 70.2793 12.85 69.9193C11.6576 69.5691 10.5022 69.1035 9.39999 68.5293C8.418 68.135 7.59006 67.4334 7.03999 66.5293C6.61988 65.5391 6.49823 64.4478 6.68999 63.3893C6.79666 61.5827 7.01666 59.2493 7.34999 56.3893C7.68332 53.5293 8.09666 50.3993 8.58999 46.9993C9.08332 43.5927 9.63999 40.0027 10.26 36.2293C10.88 32.456 11.5133 28.7627 12.16 25.1493C12.8267 21.536 13.4933 18.116 14.16 14.8893C14.8267 11.6627 15.44 8.83934 16 6.41934C16.4667 4.91934 17.1 4.00268 17.9 3.66934C19.089 3.34227 20.352 3.40892 21.5 3.85934C23.278 4.33617 25.0138 4.95826 26.69 5.71934C28.3877 6.45716 30.0202 7.33695 31.57 8.34934C32.6454 8.95399 33.537 9.83865 34.15 10.9093Z" fill="#FFA215"/>
<path d="M69.8499 24.5411C71.3699 17.9878 72.8799 11.9478 74.3799 6.42111C74.4667 5.84321 74.6826 5.29229 75.0115 4.80928C75.3404 4.32627 75.7739 3.92357 76.2799 3.63111C77.5112 3.26717 78.8252 3.29513 80.0399 3.71111L82.1299 4.25111C82.7525 4.40762 83.3612 4.61498 83.9499 4.87111C84.5432 5.13111 85.1765 5.44111 85.8499 5.80111C86.5232 6.16111 87.2965 6.62444 88.1699 7.19111C89.6699 8.11777 90.5099 9.06111 90.6899 10.0211C90.852 11.1825 90.7319 12.3659 90.3399 13.4711C89.1532 17.2911 87.9132 21.6244 86.6199 26.4711C85.3265 31.3178 84.0499 36.2478 82.7899 41.2611C81.5232 46.2678 80.3099 51.1611 79.1499 55.9411C77.9899 60.7211 76.9899 64.9178 76.1499 68.5311C75.8432 70.4911 74.2932 71.1578 71.4999 70.5311C69.0274 70.0439 66.5942 69.3754 64.2199 68.5311C63.1382 68.1365 62.1517 67.5185 61.3247 66.7173C60.4976 65.9161 59.8486 64.9497 59.4199 63.8811C58.6932 62.2811 57.9565 60.4211 57.2099 58.3011C56.4632 56.1811 55.6999 53.8978 54.9199 51.4511C54.1465 48.9978 53.3732 46.4411 52.5999 43.7811C51.8265 41.1211 51.1032 38.4544 50.4299 35.7811C49.8632 38.9811 49.2832 42.1811 48.6899 45.3811L46.9999 54.5511C46.4599 57.4711 45.9699 60.1811 45.5299 62.6811C45.0899 65.1811 44.7565 67.3611 44.5299 69.2211C44.4934 69.5551 44.3852 69.8773 44.2126 70.1655C44.04 70.4538 43.8071 70.7013 43.5299 70.8911C42.6288 71.1111 41.6815 71.0447 40.8199 70.7011L37.0599 69.7011C35.7626 69.3522 34.523 68.8166 33.3799 68.1111C32.4242 67.7035 31.6224 67.0033 31.0899 66.1111C30.659 65.1348 30.5001 64.0603 30.6299 63.0011C30.7365 61.6078 30.9032 59.6078 31.1299 57.0011C31.3565 54.3944 31.6665 51.4644 32.0599 48.2111C32.4465 44.9311 32.8865 41.4211 33.3799 37.6811C33.8732 33.9411 34.4132 30.2311 34.9999 26.5511C35.5665 22.8311 36.1465 19.2411 36.7399 15.7811C37.3332 12.3211 37.9132 9.24777 38.4799 6.56111C38.8399 5.01444 39.4865 4.04444 40.4199 3.65111C41.6542 3.24651 42.9855 3.24651 44.2199 3.65111C46.1265 4.21777 47.9865 4.78444 49.7999 5.35111C51.7325 5.97097 53.6202 6.72274 55.4499 7.60111C56.8088 8.08894 57.9946 8.96521 58.8599 10.1211C59.6538 11.4861 60.1545 13.0017 60.3299 14.5711C60.5899 16.0711 60.9232 17.9811 61.3299 20.3011C61.7365 22.6211 62.1999 25.1378 62.7199 27.8511C63.2332 30.5644 63.7765 33.3511 64.3499 36.2111C64.9232 39.0711 65.4732 41.8411 65.9999 44.5211C67.0465 37.7611 68.3299 31.1011 69.8499 24.5411Z" fill="#FFA215"/>
<path d="M134.76 34.8801C133.928 35.2723 132.994 35.3947 132.09 35.2301C128.476 34.7168 125.83 33.6568 124.15 32.0501C122.433 30.3634 121.401 28.1019 121.25 25.7001C121.15 25.2021 121.086 24.6974 121.06 24.1901C121.021 23.6608 121.021 23.1294 121.06 22.6001C121.06 22.0301 121.06 21.4901 120.98 20.9701L120.83 19.4201C120.623 18.4401 120.43 17.6135 120.25 16.9401C120.207 16.6637 120.092 16.4036 119.916 16.1859C119.741 15.9681 119.511 15.8006 119.25 15.7001C118.216 15.3935 116.99 15.8201 115.57 16.9801C113.894 18.4331 112.433 20.1165 111.23 21.9801C109.619 24.3914 108.182 26.9144 106.93 29.5301C105.526 32.4224 104.336 35.4138 103.37 38.4801C102.492 40.9561 101.855 43.5114 101.47 46.1101C101.093 48.5039 100.949 50.9286 101.04 53.3501C101.089 55.2789 101.45 57.187 102.11 59.0001C102.293 59.6437 102.619 60.2382 103.061 60.7399C103.504 61.2417 104.054 61.6381 104.67 61.9001C105.629 62.2078 106.671 62.1252 107.57 61.6701C108.703 61.1173 109.722 60.3537 110.57 59.4201C111.647 58.2634 112.608 57.0041 113.44 55.6601C114.394 54.1558 115.266 52.6001 116.05 51.0001C112.95 51.1535 110.563 50.6101 108.89 49.3701C107.216 48.1301 105.883 46.0401 104.89 43.1001C104.777 42.8501 104.719 42.5792 104.719 42.3051C104.719 42.0311 104.777 41.7601 104.89 41.5101C105.178 41.0779 105.599 40.7515 106.09 40.5801C106.764 40.3211 107.465 40.1399 108.18 40.0401L110.97 39.6101C112.952 39.1757 114.954 38.842 116.97 38.6101C119.036 38.3768 120.816 38.1301 122.31 37.8701C123.716 37.5925 125.163 37.5925 126.57 37.8701C127.745 38.226 128.789 38.9219 129.57 39.8701C130.199 40.549 130.793 41.26 131.35 42.0001L132.86 44.0001C133.619 44.9007 134.089 46.0087 134.21 47.1801C134.192 48.3468 133.969 49.5011 133.55 50.5901C131.912 54.7621 129.708 58.689 127 62.2601C124.79 65.1677 122.057 67.6368 118.94 69.5401C117.095 70.5665 115.085 71.2604 113 71.5901C110.842 71.913 108.648 71.913 106.49 71.5901C102.481 71.0661 98.5684 69.9717 94.8698 68.3401C93.4411 67.555 92.1258 66.5794 90.9598 65.4401C89.7358 64.2904 88.7208 62.937 87.9598 61.4401C86.5436 58.9078 85.5983 56.1397 85.1698 53.2701C84.6425 49.9642 84.5116 46.6071 84.7798 43.2701C85.059 39.6427 85.6818 36.0499 86.6398 32.5401C87.631 28.8838 88.9705 25.3309 90.6398 21.9301C92.3119 18.524 94.322 15.2944 96.6398 12.2901C98.8571 9.37484 101.48 6.79198 104.43 4.62012C105.34 3.90815 106.351 3.33524 107.43 2.92012C108.491 2.5139 109.595 2.22877 110.72 2.07012C111.81 1.91725 112.909 1.8404 114.01 1.84012C115.014 1.83458 116.018 1.91151 117.01 2.07012C118.393 2.23182 119.763 2.4891 121.11 2.84012C122.488 3.19655 123.846 3.62379 125.18 4.12012C126.46 4.59318 127.704 5.16144 128.9 5.82012C130.03 6.44397 131.098 7.17393 132.09 8.00012C133.686 9.19543 134.963 10.7648 135.81 12.5701C136.565 14.3499 137.06 16.2292 137.28 18.1501C137.333 19.2368 137.333 20.4501 137.28 21.7901C137.226 23.1301 137.15 24.4635 137.05 25.7901C136.923 27.1235 136.77 28.4135 136.59 29.6601C136.41 30.9068 136.216 31.9401 136.01 32.7601C135.822 33.5791 135.386 34.3198 134.76 34.8801Z" fill="#FFA215"/>
<path d="M153.429 60.792C152.836 63.6854 152.256 66.5254 151.689 69.312C151.562 69.9575 151.207 70.5358 150.689 70.942C149.899 71.2141 149.04 71.2141 148.249 70.942C146.856 70.582 145.616 70.2987 144.529 70.092C143.448 69.8883 142.403 69.5242 141.429 69.012C140.564 68.5556 139.864 67.8384 139.429 66.962C139.038 65.9402 138.904 64.8378 139.039 63.752C139.146 62.6654 139.289 61.092 139.469 59.032C139.649 56.972 139.869 54.6387 140.129 52.032C140.389 49.4254 140.686 46.6254 141.019 43.632C141.353 40.6387 141.713 37.6387 142.099 34.632C142.486 31.6387 142.913 28.7354 143.379 25.922C143.846 23.1087 144.336 20.5787 144.849 18.332C145.258 16.4274 145.826 14.5607 146.549 12.752C146.874 11.6619 147.532 10.7005 148.429 10.002C151.629 8.55538 154.963 7.13538 158.429 5.74205C161.75 4.389 165.202 3.38364 168.729 2.74205C171.898 2.15022 175.143 2.09613 178.329 2.58205C181.339 3.06784 184.118 4.49234 186.269 6.65205C188.092 8.62872 189.747 10.7526 191.219 13.002C192.816 15.5431 193.982 18.3307 194.669 21.252C195.336 24.712 195.079 27.552 193.899 29.772C191.747 33.7213 188.678 37.0959 184.949 39.612C180.261 42.8856 175.252 45.6733 169.999 47.932C171.186 49.2654 172.489 50.6854 173.909 52.192C175.329 53.6987 176.789 55.1954 178.289 56.682C179.789 58.182 181.273 59.6287 182.739 61.022C184.206 62.4154 185.586 63.6287 186.879 64.6621C187.913 65.5421 188.376 66.2387 188.269 66.752C188.053 67.4286 187.602 68.0062 186.999 68.382C186.317 68.9773 185.511 69.4144 184.639 69.662C183.973 69.7887 183.186 69.932 182.279 70.092C181.053 70.4079 179.779 70.4994 178.519 70.362C176.819 70.1093 175.195 69.4882 173.759 68.542C172.573 67.7154 171.206 66.6821 169.659 65.4421C168.113 64.2021 166.513 62.8354 164.859 61.342C163.206 59.842 161.539 58.2787 159.859 56.6521C158.272 55.0971 156.773 53.4545 155.369 51.732C154.663 54.8787 154.016 57.8987 153.429 60.792ZM161.289 28.722C160.516 31.7154 159.639 34.9154 158.659 38.322C161.979 37.2625 165.162 35.8124 168.139 34.002C170.622 32.4844 172.944 30.7186 175.069 28.732C176.669 27.2699 178.02 25.5576 179.069 23.662C179.896 22.062 180.153 20.822 179.839 19.942C179.219 18.4954 177.386 17.772 174.339 17.772C172.659 17.7865 170.984 17.9673 169.339 18.312C167.352 18.7323 165.427 19.4044 163.609 20.312C162.836 22.9254 162.063 25.7287 161.289 28.722Z" fill="#FFA215"/>
<path d="M208.26 6.25882C210.973 5.63882 213.813 5.07216 216.78 4.55882C219.746 4.04549 222.793 3.59216 225.92 3.19882C229.04 2.81216 232.15 2.56549 235.25 2.45882C238.196 2.40549 240.08 3.54216 240.9 5.86882C241.497 6.93207 241.964 8.06361 242.29 9.23882C242.55 10.2455 242.81 11.3422 243.07 12.5288C243.276 13.8622 243.173 14.7655 242.76 15.2388C241.93 15.8619 240.927 16.2114 239.89 16.2388C236.79 16.5988 233.59 16.9588 230.29 17.3188C226.99 17.6788 223.503 18.1188 219.83 18.6388C219.056 20.9588 218.333 23.3722 217.66 25.8788C216.986 28.3855 216.236 31.0055 215.41 33.7388C216.956 33.5322 218.506 33.3788 220.06 33.2788C221.613 33.1788 223.28 33.1022 225.06 33.0488C226.211 32.9609 227.368 33.0932 228.47 33.4388C229.385 33.8317 230.127 34.542 230.56 35.4388C231.151 36.4095 231.634 37.4424 232 38.5188C232.333 39.5255 232.63 40.5455 232.89 41.5788C233.303 42.7655 233.343 43.5655 233.01 43.9788C232.241 44.5854 231.314 44.9601 230.34 45.0588C227.24 45.6255 224.076 46.1688 220.85 46.6888C217.623 47.2088 214.513 47.7755 211.52 48.3888C211.106 50.0422 210.72 51.6055 210.36 53.0788C210 54.5522 209.613 56.0122 209.2 57.4588C211.626 57.0455 213.936 56.7122 216.13 56.4588C218.323 56.2055 220.71 55.9988 223.29 55.8388C224.422 55.7025 225.571 55.8082 226.66 56.1488C227.515 56.5281 228.221 57.1782 228.67 57.9988C229.234 58.9235 229.712 59.8975 230.1 60.9088C230.433 61.8088 230.806 62.7255 231.22 63.6588C231.491 64.3429 231.491 65.1047 231.22 65.7888C230.96 66.1755 230.133 66.5088 228.74 66.7888C225.406 67.4088 222.05 68.0555 218.67 68.7288C215.29 69.4022 212.036 70.0222 208.91 70.5888C207.397 71.0767 205.789 71.1967 204.22 70.9388C203.244 70.6912 202.315 70.2858 201.47 69.7388C200.603 69.1388 199.78 68.5588 199 67.9988C198.22 67.4388 197.276 66.6755 196.17 65.7088C195.313 65.0102 194.614 64.1376 194.12 63.1488C193.608 62.0366 193.407 60.8061 193.54 59.5888L200.86 7.99882C203.08 7.45882 205.546 6.87882 208.26 6.25882Z" fill="#FFA215"/>
<path d="M250.547 5.45149C253.292 4.47374 256.12 3.74742 258.997 3.28149C262.031 2.78946 265.107 2.60852 268.177 2.74149C271.271 2.86502 274.327 3.46543 277.237 4.52149C280.199 5.60723 282.939 7.21987 285.327 9.28149C287.978 11.6309 290.113 14.5048 291.597 17.7215C293.06 20.5733 293.979 23.6729 294.307 26.8615C294.671 30.2486 294.488 33.6721 293.767 37.0015C292.962 40.6419 291.645 44.15 289.857 47.4215C287.912 50.9978 285.475 54.2832 282.617 57.1815C279.455 60.3865 275.884 63.1604 271.997 65.4315C267.653 67.9708 262.993 69.9244 258.137 71.2415C256.781 71.6975 255.345 71.8706 253.919 71.7502C252.494 71.6298 251.108 71.2185 249.847 70.5415C248.547 69.8993 247.282 69.1883 246.057 68.4115C244.97 67.7448 243.73 66.8815 242.337 65.8215C241.824 65.3548 241.334 64.9015 240.867 64.4615C240.398 64.0174 239.994 63.509 239.667 62.9515C239.306 62.3073 239.082 61.596 239.007 60.8615C238.909 59.802 238.936 58.7347 239.087 57.6815L243.577 8.50149C245.816 7.30178 248.146 6.2819 250.547 5.45149ZM264.377 52.9315C267.075 50.7389 269.472 48.2004 271.507 45.3815C273.257 42.9529 274.663 40.2945 275.687 37.4815C276.56 35.1128 277.108 32.6371 277.317 30.1215C277.524 26.9748 277.164 24.5215 276.237 22.7615C275.17 20.8632 273.428 19.4354 271.357 18.7615C269.03 17.8815 266.19 17.9848 262.837 19.0715C261.03 25.8382 259.43 32.5048 258.037 39.0715C256.644 45.6382 255.31 52.2848 254.037 59.0115C257.761 57.4982 261.244 55.45 264.377 52.9315Z" fill="#FFA215"/>
<path d="M321.799 10.9115C322.078 11.9597 322.036 13.0674 321.679 14.0915C320.953 16.4115 320.166 19.0782 319.319 22.0915C318.473 25.1049 317.619 28.2682 316.759 31.5815C315.906 34.9149 315.066 38.3215 314.239 41.8015C313.413 45.2815 312.616 48.6815 311.849 52.0015C311.076 55.3349 310.366 58.4849 309.719 61.4515C309.073 64.4182 308.516 67.0649 308.049 69.3915C307.931 70.0601 307.576 70.6637 307.049 71.0915C306.174 71.3547 305.237 71.3266 304.379 71.0115C303.046 70.6515 301.769 70.2915 300.549 69.9315C299.357 69.5815 298.201 69.116 297.099 68.5415C296.118 68.1466 295.29 67.4451 294.739 66.5415C294.319 65.5513 294.197 64.4599 294.389 63.4015C294.496 61.5949 294.716 59.2615 295.049 56.4015C295.383 53.5415 295.783 50.4082 296.249 47.0015C296.743 43.5949 297.296 40.0049 297.909 36.2315C298.523 32.4582 299.156 28.7649 299.809 25.1515C300.476 21.5382 301.143 18.1182 301.809 14.8915C302.476 11.6649 303.096 8.8382 303.669 6.41153C304.136 4.91153 304.769 3.99486 305.569 3.66153C306.758 3.33445 308.021 3.40111 309.169 3.85153C310.947 4.32835 312.683 4.95045 314.359 5.71153C316.057 6.44892 317.69 7.32873 319.239 8.34153C320.308 8.95219 321.193 9.84008 321.799 10.9115Z" fill="#FFA215"/>
<path d="M333.888 6.25882C336.602 5.63882 339.442 5.07216 342.408 4.55882C345.375 4.04549 348.421 3.59216 351.548 3.19882C354.668 2.81216 357.778 2.56549 360.878 2.45882C363.825 2.40549 365.708 3.54216 366.528 5.86882C367.125 6.93233 367.592 8.0638 367.918 9.23882C368.178 10.2455 368.435 11.3422 368.688 12.5288C368.895 13.8622 368.791 14.7655 368.378 15.2388C367.548 15.8619 366.545 16.2114 365.508 16.2388C362.408 16.5988 359.205 16.9588 355.898 17.3188C352.591 17.6788 349.105 18.1188 345.438 18.6388C344.665 20.9588 343.941 23.3722 343.268 25.8788C342.595 28.3855 341.845 31.0055 341.018 33.7388C342.565 33.5322 344.115 33.3788 345.668 33.2788C347.222 33.1788 348.888 33.1022 350.668 33.0488C351.819 32.9609 352.977 33.0932 354.078 33.4388C354.993 33.8317 355.735 34.542 356.168 35.4388C356.755 36.4036 357.235 37.4297 357.598 38.4988C357.932 39.5055 358.228 40.5255 358.488 41.5588C358.901 42.7455 358.941 43.5455 358.608 43.9588C357.839 44.5654 356.913 44.9401 355.938 45.0388C352.838 45.6055 349.675 46.1488 346.448 46.6688C343.222 47.1888 340.111 47.7555 337.118 48.3688C336.705 50.0222 336.318 51.5855 335.958 53.0588C335.598 54.5322 335.211 55.9922 334.798 57.4388C337.225 57.0255 339.535 56.6922 341.728 56.4388C343.922 56.1855 346.311 55.9788 348.898 55.8188C350.031 55.6825 351.179 55.7882 352.268 56.1288C353.134 56.5096 353.848 57.1675 354.298 57.9988C354.863 58.9231 355.341 59.8972 355.728 60.9088C356.062 61.8088 356.435 62.7255 356.848 63.6588C357.119 64.3429 357.119 65.1047 356.848 65.7888C356.588 66.1755 355.761 66.5088 354.368 66.7888C351.035 67.4088 347.678 68.0555 344.298 68.7288C340.918 69.4022 337.665 70.0222 334.538 70.5888C333.025 71.0767 331.417 71.1967 329.848 70.9388C328.872 70.6906 327.944 70.2853 327.098 69.7388C326.218 69.1722 325.378 68.5922 324.578 67.9988C323.778 67.4055 322.835 66.6422 321.748 65.7088C320.892 65.0096 320.193 64.1371 319.698 63.1488C319.185 62.0367 318.985 60.8061 319.118 59.5888L326.488 7.99882C328.708 7.45882 331.175 6.87882 333.888 6.25882Z" fill="#FFA215"/>
<path d="M402.197 24.5386C403.717 17.9853 405.227 11.9453 406.727 6.41861C406.814 5.84071 407.03 5.28979 407.359 4.80678C407.688 4.32377 408.121 3.92107 408.627 3.62861C409.858 3.26467 411.172 3.29263 412.387 3.70861L414.477 4.24861C415.1 4.40512 415.708 4.61248 416.297 4.86861C416.89 5.12861 417.524 5.43861 418.197 5.79861C418.87 6.15861 419.644 6.62194 420.517 7.18861C422.01 8.11527 422.837 9.05194 422.997 9.99861C423.159 11.16 423.039 12.3434 422.647 13.4486C421.46 17.2686 420.22 21.6019 418.927 26.4486C417.634 31.2953 416.357 36.2253 415.097 41.2386C413.83 46.2453 412.617 51.1386 411.457 55.9186C410.297 60.6986 409.297 64.8953 408.457 68.5086C408.15 70.4686 406.6 71.1353 403.807 70.5086C401.335 70.0214 398.901 69.3529 396.527 68.5086C395.445 68.114 394.459 67.496 393.632 66.6948C392.805 65.8936 392.156 64.9272 391.727 63.8586C391 62.2586 390.264 60.3986 389.517 58.2786C388.77 56.1586 388.007 53.8753 387.227 51.4286C386.454 48.9753 385.68 46.4186 384.907 43.7586C384.134 41.0986 383.41 38.4319 382.737 35.7586C382.17 38.9586 381.59 42.1586 380.997 45.3586L379.297 54.5386C378.757 57.4586 378.267 60.1686 377.827 62.6686C377.387 65.1686 377.054 67.3486 376.827 69.2086C376.791 69.5426 376.682 69.8648 376.51 70.153C376.337 70.4413 376.104 70.6888 375.827 70.8786C374.926 71.0986 373.979 71.0322 373.117 70.6886L369.357 69.6886C368.06 69.3397 366.82 68.8041 365.677 68.0986C364.721 67.691 363.92 66.9908 363.387 66.0986C362.982 65.1188 362.847 64.0482 362.997 62.9986C363.104 61.6053 363.27 59.6053 363.497 56.9986C363.724 54.3919 364.034 51.4619 364.427 48.2086C364.814 44.9286 365.254 41.4186 365.747 37.6786C366.24 33.9386 366.77 30.2086 367.337 26.4886C367.904 22.7686 368.484 19.1786 369.077 15.7186C369.67 12.2586 370.25 9.18527 370.817 6.49861C371.177 4.95194 371.824 3.98194 372.757 3.58861C373.991 3.18401 375.323 3.18401 376.557 3.58861C378.464 4.15527 380.324 4.72194 382.137 5.28861C384.07 5.90847 385.957 6.66024 387.787 7.53861C389.146 8.02644 390.332 8.90271 391.197 10.0586C391.991 11.4236 392.492 12.9392 392.667 14.5086C392.927 16.0086 393.26 17.9186 393.667 20.2386C394.074 22.5586 394.517 25.1153 394.997 27.9086C395.51 30.6219 396.054 33.4086 396.627 36.2686C397.2 39.1286 397.767 41.8786 398.327 44.5186C399.38 37.7586 400.67 31.0986 402.197 24.5386Z" fill="#FFA215"/>
<path d="M465.518 16.1391L458.158 16.8791L454.788 30.3591C453.628 35.0258 452.505 39.6358 451.418 44.1891C450.331 48.7424 449.311 53.1958 448.358 57.5491C447.405 61.8891 446.565 65.9424 445.838 69.7091C445.828 69.9874 445.757 70.26 445.629 70.5073C445.501 70.7547 445.319 70.9704 445.098 71.1391C444.609 71.393 444.057 71.5006 443.508 71.4491C442.723 71.393 441.947 71.2419 441.198 70.9991L438.258 70.1491C437.26 69.8711 436.278 69.5373 435.318 69.1491C434.514 68.8329 433.767 68.387 433.108 67.8291C432.532 67.3387 432.091 66.7086 431.828 65.9991C431.562 65.1838 431.534 64.3096 431.748 63.4791C431.901 60.9991 432.211 57.9524 432.678 54.3391C433.145 50.7258 433.701 46.9058 434.348 42.8791C435.015 38.8791 435.725 34.8124 436.478 30.6791C437.231 26.5458 438.005 22.7391 438.798 19.2591C437.298 19.5191 435.851 19.7391 434.458 19.9191C433.281 20.0588 432.115 20.2793 430.968 20.5791C429.938 20.8832 428.848 20.9245 427.798 20.6991C426.71 20.2852 425.749 19.5961 425.008 18.6991C423.818 17.4821 422.808 16.1015 422.008 14.5991C421.108 12.9458 420.371 11.5524 419.798 10.4191C419.225 9.28578 419.071 8.49911 419.338 8.05911C419.87 7.53981 420.546 7.19156 421.278 7.05911C424.325 6.43911 427.771 5.87245 431.618 5.35911C435.465 4.84578 439.391 4.39245 443.398 3.99911C447.398 3.58578 451.321 3.25245 455.168 2.99911C459.015 2.74578 462.461 2.55245 465.508 2.41911C466.674 2.3599 467.842 2.50544 468.958 2.84911C469.682 3.15439 470.31 3.64822 470.778 4.27911C471.8 5.44904 472.661 6.75061 473.338 8.14911C473.98 9.4649 474.499 10.8374 474.888 12.2491C475.195 13.0335 475.195 13.9047 474.888 14.6891C474.601 15.1291 473.658 15.3991 472.058 15.4991L465.518 16.1391Z" fill="#FFA215"/>
<path d="M484.379 6.25882C487.092 5.63882 489.932 5.07216 492.899 4.55882C495.866 4.04549 498.899 3.59216 501.999 3.19882C505.119 2.81216 508.229 2.56549 511.329 2.45882C514.276 2.40549 516.159 3.54216 516.979 5.86882C517.576 6.93207 518.043 8.06361 518.369 9.23882C518.629 10.2455 518.889 11.3422 519.149 12.5288C519.356 13.8622 519.252 14.7655 518.839 15.2388C518.009 15.8619 517.006 16.2114 515.969 16.2388C512.869 16.5988 509.669 16.9588 506.369 17.3188C503.069 17.6788 499.612 18.1222 495.999 18.6488C495.226 20.9688 494.502 23.3822 493.829 25.8888C493.156 28.3955 492.406 31.0155 491.579 33.7488C493.126 33.5422 494.676 33.3888 496.229 33.2888C497.782 33.1888 499.449 33.1122 501.229 33.0588C502.38 32.9709 503.537 33.1032 504.639 33.4488C505.554 33.8417 506.296 34.552 506.729 35.4488C507.316 36.4136 507.795 37.4397 508.159 38.5088C508.492 39.5155 508.789 40.5355 509.049 41.5688C509.462 42.7555 509.502 43.5555 509.169 43.9688C508.4 44.5754 507.473 44.9501 506.499 45.0488C503.399 45.6155 500.236 46.1588 497.009 46.6788C493.782 47.1988 490.672 47.7655 487.679 48.3788C487.266 50.0322 486.879 51.5955 486.519 53.0688C486.159 54.5422 485.772 56.0022 485.359 57.4488C487.786 57.0355 490.096 56.7022 492.289 56.4488C494.482 56.1955 496.869 55.9888 499.449 55.8288C500.581 55.6925 501.73 55.7982 502.819 56.1388C503.66 56.5279 504.352 57.181 504.789 57.9988C505.353 58.9235 505.831 59.8975 506.219 60.9088C506.552 61.8088 506.926 62.7255 507.339 63.6588C507.61 64.3429 507.61 65.1047 507.339 65.7888C507.079 66.1755 506.252 66.5088 504.859 66.7888C501.526 67.4088 498.169 68.0555 494.789 68.7288C491.409 69.4022 488.146 70.0088 484.999 70.5488C483.486 71.0367 481.878 71.1567 480.309 70.8988C479.333 70.6512 478.404 70.2458 477.559 69.6988C476.679 69.1322 475.839 68.5522 475.039 67.9588C474.239 67.3655 473.296 66.6022 472.209 65.6688C471.352 64.9702 470.653 64.0976 470.159 63.1088C469.647 61.9966 469.446 60.7661 469.579 59.5488L476.999 7.99882C479.206 7.45882 481.666 6.87882 484.379 6.25882Z" fill="#FFA215"/>
<path d="M514.999 53.3502C516.024 53.1942 517.062 53.1406 518.099 53.1902C519.115 53.2359 520.122 53.4038 521.099 53.6902C522.02 53.9579 522.897 54.3624 523.699 54.8902C527.218 57.2382 531.085 59.0167 535.159 60.1602C538.412 60.9335 540.745 60.7268 542.159 59.5402C542.298 59.4826 542.423 59.3942 542.524 59.2815C542.624 59.1687 542.698 59.0347 542.74 58.8894C542.781 58.7441 542.789 58.5912 542.763 58.4424C542.737 58.2936 542.677 58.1527 542.589 58.0302C542.075 57.2476 541.428 56.5606 540.679 56.0002C539.725 55.2268 538.539 54.3735 537.119 53.4402C535.699 52.5068 534.189 51.5502 532.589 50.5702C530.989 49.5902 529.389 48.5702 527.789 47.5102C526.281 46.5245 524.832 45.4527 523.449 44.3002C522.007 43.1695 520.719 41.855 519.619 40.3902C518.519 38.9424 517.642 37.3379 517.019 35.6302C516.395 33.8893 516.057 32.059 516.019 30.2102C515.993 28.1724 516.308 26.1446 516.949 24.2102C517.489 22.1569 518.282 20.1785 519.309 18.3202C520.465 16.2075 521.803 14.1999 523.309 12.3202C524.825 10.3808 526.498 8.5681 528.309 6.90015C530.045 5.29672 531.927 3.85727 533.929 2.60015C534.677 2.06062 535.481 1.60457 536.329 1.24015C537.392 0.766645 538.511 0.430602 539.659 0.240152C540.981 0.0320377 542.322 -0.0316695 543.659 0.0501526C545.182 0.141113 546.689 0.413024 548.149 0.860152C550.553 1.72519 552.892 2.76117 555.149 3.96015C557.279 5.04438 559.268 6.3879 561.069 7.96015C562.003 8.82188 562.811 9.81172 563.469 10.9002C564 11.7965 564.404 12.7624 564.669 13.7702C564.896 14.6703 565.027 15.5922 565.059 16.5202C565.059 17.4268 565.059 18.2668 565.059 19.0402C564.852 20.3735 564.569 21.8968 564.209 23.6102C563.849 25.3235 563.445 27.0535 562.999 28.8002C562.505 30.5535 561.989 32.2202 561.449 33.8002C560.994 35.174 560.436 36.5112 559.779 37.8002C559.362 38.6437 558.7 39.341 557.879 39.8002C557.389 39.9232 556.88 39.9486 556.381 39.8748C555.881 39.8011 555.402 39.6296 554.969 39.3702C547.895 36.9968 544.642 33.5902 545.209 29.1502C545.341 28.0892 545.538 27.0372 545.799 26.0002C546.079 24.8135 546.362 23.6135 546.649 22.4002C546.935 21.1868 547.182 20.0368 547.389 18.9502C547.578 18.1008 547.642 17.2281 547.579 16.3602C547.499 15.7202 547.239 15.3602 546.809 15.2002C546.379 15.0402 545.659 15.3702 544.679 16.0902C543.626 16.6796 542.649 17.3949 541.769 18.2202C540.679 19.2169 539.675 20.3041 538.769 21.4702C537.807 22.6908 536.963 24 536.249 25.3802C535.55 26.7052 535.054 28.1277 534.779 29.6002C534.521 30.9844 534.548 32.4068 534.859 33.7802C535.207 35.2112 535.994 36.4978 537.109 37.4602C538.657 38.9564 540.329 40.318 542.109 41.5302C543.969 42.7968 545.815 44.0235 547.649 45.2102C549.482 46.3968 551.212 47.5702 552.839 48.7302C554.305 49.7585 555.647 50.9531 556.839 52.2902C557.823 53.3738 558.512 54.6928 558.839 56.1202C559.097 57.6171 558.81 59.1573 558.029 60.4602C557.43 61.7037 556.717 62.8888 555.899 64.0002C554.859 65.3683 553.602 66.5573 552.179 67.5201C550.439 68.6966 548.535 69.6098 546.529 70.2302C543.934 71.0095 541.238 71.4004 538.529 71.3902C534.35 71.4931 530.196 70.7269 526.329 69.1402C521.789 67.1463 517.654 64.3364 514.129 60.8502C511.855 58.9368 510.669 57.4635 510.569 56.4302C510.522 55.9439 510.641 55.4561 510.909 55.0471C511.176 54.6382 511.574 54.3324 512.039 54.1802C512.983 53.7706 513.979 53.4914 514.999 53.3502Z" fill="#FFA215"/>
<path d="M601.169 5.45146C603.924 4.472 606.762 3.74566 609.649 3.28146C612.683 2.78949 615.759 2.60855 618.829 2.74146C621.923 2.86483 624.979 3.46524 627.889 4.52146C630.858 5.60462 633.606 7.2174 635.999 9.28146C638.651 11.6307 640.786 14.5046 642.269 17.7215C643.74 20.5717 644.666 23.6714 644.999 26.8615C645.34 30.2523 645.134 33.676 644.389 37.0015C643.583 40.6417 642.267 44.1497 640.479 47.4215C638.535 50.9978 636.098 54.2832 633.239 57.1815C630.09 60.369 626.537 63.1293 622.669 65.3915C618.325 67.9307 613.665 69.8843 608.809 71.2015C607.453 71.6575 606.017 71.8306 604.592 71.7102C603.166 71.5898 601.78 71.1784 600.519 70.5015C599.219 69.8597 597.953 69.1487 596.729 68.3715C595.642 67.7048 594.402 66.8415 593.009 65.7815C592.496 65.3148 592.006 64.8615 591.539 64.4215C591.07 63.9771 590.666 63.4687 590.339 62.9115C589.979 62.2672 589.754 61.5559 589.679 60.8215C589.581 59.762 589.608 58.6946 589.759 57.6415L594.249 8.46145C596.473 7.27744 598.787 6.27097 601.169 5.45146ZM614.999 52.9315C617.697 50.7388 620.094 48.2003 622.129 45.3815C623.879 42.9527 625.285 40.2943 626.309 37.4815C627.183 35.1131 627.731 32.6372 627.939 30.1215C628.146 26.9748 627.786 24.5215 626.859 22.7615C625.791 20.8638 624.049 19.4363 621.979 18.7615C619.659 17.8815 616.819 17.9848 613.459 19.0715C611.652 25.8381 610.052 32.5048 608.659 39.0715C607.266 45.6381 605.932 52.2848 604.659 59.0115C608.383 57.4984 611.866 55.4502 614.999 52.9315Z" fill="#FFA215"/>
<path d="M660.349 6.25882C663.062 5.63882 665.902 5.07216 668.869 4.55882C671.836 4.04549 674.879 3.59216 677.999 3.19882C681.119 2.81216 684.229 2.56549 687.329 2.45882C690.276 2.40549 692.159 3.54216 692.979 5.86882C693.576 6.93233 694.043 8.0638 694.369 9.23882C694.629 10.2455 694.886 11.3422 695.139 12.5288C695.346 13.8622 695.242 14.7655 694.829 15.2388C693.999 15.8619 692.996 16.2114 691.959 16.2388C688.859 16.5988 685.656 16.9588 682.349 17.3188C679.042 17.6788 675.556 18.1188 671.889 18.6388C671.116 20.9588 670.392 23.3722 669.719 25.8788C669.046 28.3855 668.296 31.0055 667.469 33.7388C669.016 33.5322 670.566 33.3788 672.119 33.2788C673.672 33.1788 675.339 33.1022 677.119 33.0488C678.27 32.9609 679.428 33.0932 680.529 33.4388C681.444 33.8317 682.186 34.542 682.619 35.4388C683.19 36.4121 683.653 37.4449 683.999 38.5188C684.332 39.5255 684.629 40.5455 684.889 41.5788C685.302 42.7655 685.342 43.5655 685.009 43.9788C684.24 44.5854 683.314 44.9601 682.339 45.0588C679.239 45.6255 676.076 46.1688 672.849 46.6888C669.622 47.2088 666.512 47.7755 663.519 48.3888C663.106 50.0422 662.719 51.6055 662.359 53.0788C661.999 54.5522 661.612 56.0122 661.199 57.4588C663.626 57.0455 665.936 56.7122 668.129 56.4588C670.322 56.2055 672.712 55.9988 675.299 55.8388C676.432 55.7025 677.58 55.8082 678.669 56.1488C679.55 56.5152 680.282 57.1666 680.749 57.9988C681.314 58.9231 681.792 59.8972 682.179 60.9088C682.512 61.8088 682.886 62.7255 683.299 63.6588C683.57 64.3429 683.57 65.1047 683.299 65.7888C683.039 66.1755 682.212 66.5088 680.819 66.7888C677.486 67.4088 674.129 68.0555 670.749 68.7288C667.369 69.4022 664.119 70.0088 660.999 70.5488C659.486 71.0367 657.878 71.1567 656.309 70.8988C655.333 70.6506 654.405 70.2453 653.559 69.6988C652.679 69.1322 651.839 68.5522 651.039 67.9588C650.239 67.3655 649.296 66.6022 648.209 65.6688C647.353 64.9696 646.654 64.0971 646.159 63.1088C645.646 61.9967 645.446 60.7661 645.579 59.5488L652.949 7.99882C655.169 7.45882 657.636 6.87882 660.349 6.25882Z" fill="#FFA215"/>
<path d="M52.4669 138.651C52.4474 140.137 52.0146 141.588 51.2169 142.841C50.2464 144.784 49.0002 146.576 47.5169 148.161C46.1499 149.641 44.6391 150.981 43.0069 152.161C42.1498 152.698 41.2462 153.157 40.3069 153.531C39.2351 153.952 38.1316 154.286 37.0069 154.531C35.8152 154.804 34.6054 154.991 33.3869 155.091C32.166 155.199 30.9379 155.199 29.7169 155.091C27.3994 154.991 25.101 154.626 22.8669 154.001C20.8269 153.381 19.0003 152.805 17.3869 152.271C15.8107 151.615 14.3333 150.744 12.9969 149.681C11.6038 148.618 10.4518 147.272 9.61692 145.731C8.14403 143.211 7.14743 140.442 6.67692 137.561C6.10279 134.238 5.90155 130.86 6.07692 127.491C6.26047 123.784 6.78604 120.102 7.64692 116.491C8.53398 112.7 9.75887 108.995 11.3069 105.421C12.8471 101.855 14.7222 98.4433 16.9069 95.2314C19.0132 92.1125 21.5177 89.2819 24.3569 86.8114C26.327 85.0243 28.6859 83.7199 31.2469 83.0014C33.3701 82.43 35.5732 82.2138 37.7669 82.3614C39.3413 82.5367 40.9017 82.8207 42.4369 83.2114C44.0198 83.6057 45.579 84.0899 47.1069 84.6614C48.5614 85.2035 49.9866 85.821 51.3769 86.5114C52.62 87.1246 53.8285 87.8056 54.9969 88.5514C55.9219 89.3159 56.7724 90.1664 57.5369 91.0914C58.1728 91.871 58.7132 92.7237 59.1469 93.6314C59.5506 94.489 59.8365 95.3972 59.9969 96.3314C60.1628 97.3242 60.2697 98.3259 60.3169 99.3314C60.3829 100.621 60.3829 101.912 60.3169 103.201C60.2369 104.535 60.1169 105.868 59.9569 107.201C59.7969 108.535 59.5669 109.801 59.2669 111.001C59.0293 112.102 58.7356 113.19 58.3869 114.261C58.2269 114.691 58.0669 115.091 57.9069 115.471C57.7663 115.825 57.5311 116.133 57.2269 116.361C56.8527 116.602 56.4215 116.74 55.9769 116.761C55.2497 116.803 54.5202 116.749 53.8069 116.601C52.2822 116.338 50.7948 115.891 49.3769 115.271C48.2505 114.784 47.2156 114.107 46.3169 113.271C45.5154 112.496 44.8614 111.581 44.3869 110.571C43.8889 109.444 43.5522 108.253 43.3869 107.031C43.2334 105.992 43.1533 104.942 43.1469 103.891C43.2085 102.331 43.1282 100.768 42.9069 99.2214C42.87 98.6309 42.67 98.0622 42.3293 97.5785C41.9886 97.0948 41.5205 96.715 40.9769 96.4814C39.9036 96.1614 38.6402 96.7781 37.1869 98.3314C35.5065 100.201 34.0221 102.239 32.7569 104.411C31.1701 107.067 29.7572 109.823 28.5269 112.661C27.316 115.386 26.2805 118.185 25.4269 121.041C24.7398 123.673 24.2155 126.345 23.8569 129.041C23.5202 131.442 23.3997 133.869 23.4969 136.291C23.5305 138.173 23.8682 140.037 24.4969 141.811C24.6784 142.44 25.0071 143.017 25.4558 143.493C25.9044 143.97 26.4602 144.332 27.0769 144.551C29.2236 145.218 32.5003 143.311 36.9069 138.831C40.0736 135.611 44.2069 134.725 49.3069 136.171C51.3336 136.725 52.3869 137.551 52.4669 138.651Z" fill="#FFA215"/>
<path d="M84.3596 139.49C80.7929 139.968 77.2569 140.652 73.7696 141.54C72.6963 143.634 71.7563 145.58 70.9496 147.38C70.143 149.18 69.363 150.94 68.6096 152.66C68.4778 153.031 68.2649 153.368 67.9864 153.647C67.7079 153.925 67.3708 154.138 66.9996 154.27C66.0538 154.393 65.0924 154.255 64.2196 153.87C63.553 153.604 62.7896 153.294 61.9296 152.94C61.0696 152.587 60.223 152.197 59.3896 151.77C58.723 151.344 58.1596 150.98 57.6996 150.68C57.2136 150.409 56.8105 150.011 56.5339 149.528C56.2572 149.046 56.1175 148.497 56.1296 147.94C56.139 147.023 56.2873 146.113 56.5696 145.24C57.8563 141.534 59.523 137.2 61.5696 132.24C63.6163 127.28 65.843 122.127 68.2496 116.78C70.6363 111.447 73.0796 106.197 75.5796 101.03C78.0796 95.8636 80.4563 91.2602 82.7096 87.2202C83.4748 85.8177 84.5484 84.6073 85.8496 83.6802C87.1363 82.7669 89.043 82.4336 91.5696 82.6802C93.7696 82.7869 95.7296 82.9602 97.4496 83.2002C99.1696 83.4402 100.74 83.7236 102.16 84.0502C103.58 84.3702 104.896 84.7036 106.11 85.0502C107.323 85.3969 108.546 85.7302 109.78 86.0502C110.444 86.2097 111.07 86.4984 111.622 86.8999C112.175 87.3014 112.643 87.8079 113 88.3902C113.487 89.5904 113.639 90.9004 113.44 92.1802C113.12 95.9936 112.853 100.37 112.64 105.31C112.426 110.25 112.266 115.404 112.16 120.77C112.053 126.144 111.986 131.527 111.96 136.92C111.933 142.314 111.933 147.314 111.96 151.92C111.998 152.277 111.965 152.637 111.862 152.981C111.759 153.324 111.588 153.644 111.36 153.92C110.546 154.398 109.597 154.595 108.66 154.48C107.266 154.48 105.976 154.44 104.79 154.36C103.554 154.266 102.337 154.007 101.17 153.59C100.152 153.367 99.2173 152.865 98.4696 152.14C97.8313 151.21 97.4549 150.126 97.3796 149C97.1663 147.447 96.9796 145.744 96.8196 143.89C96.6596 142.037 96.4996 140.01 96.3396 137.81C92.353 138.37 88.3596 138.93 84.3596 139.49ZM88.3096 125.6C90.7496 125.334 93.2063 125.12 95.6796 124.96C95.573 120.56 95.493 116.17 95.4396 111.79C95.3863 107.41 95.413 103.077 95.5196 98.7902C93.373 102.71 91.0396 107.044 88.5196 111.79C85.9996 116.537 83.493 121.46 80.9996 126.56C83.4263 126.187 85.863 125.867 88.3096 125.6Z" fill="#FFA215"/>
<path d="M141.059 151.73C137.486 152.397 134.089 153.063 130.869 153.73C129.89 154.014 128.885 154.201 127.869 154.29C127.17 154.349 126.467 154.309 125.779 154.17C125.262 154.063 124.761 153.888 124.289 153.65C123.884 153.436 123.493 153.195 123.119 152.93C122.252 152.375 121.417 151.771 120.619 151.12C119.866 150.507 118.866 149.713 117.619 148.74C116.755 148.046 116.044 147.181 115.529 146.2C115.031 145.133 114.89 143.933 115.129 142.78C115.289 140.687 115.559 138.203 115.939 135.33C116.319 132.457 116.776 129.357 117.309 126.03C117.849 122.697 118.439 119.247 119.079 115.68C119.719 112.113 120.429 108.553 121.209 105C121.963 101.453 122.729 98.0432 123.509 94.7698C124.289 91.4965 125.053 88.4965 125.799 85.7698C126.333 84.2165 127.016 83.2898 127.849 82.9898C129.1 82.7135 130.404 82.8108 131.599 83.2698C133.434 83.7305 135.238 84.3084 136.999 84.9998C138.774 85.6977 140.473 86.5756 142.069 87.6199C143.136 88.2921 144.033 89.2026 144.689 90.2798C145.03 91.3402 144.958 92.4898 144.489 93.4998C143.416 96.7198 142.329 100.263 141.229 104.13C140.129 107.997 139.029 111.97 137.929 116.05C136.829 120.13 135.783 124.197 134.789 128.25C133.796 132.303 132.866 136.197 131.999 139.93C134.466 139.503 136.776 139.17 138.929 138.93C141.083 138.69 143.416 138.503 145.929 138.37C147.076 138.229 148.24 138.324 149.349 138.65C150.257 139.068 151.005 139.77 151.479 140.65C152.101 141.574 152.627 142.559 153.049 143.59C153.432 144.518 153.743 145.474 153.979 146.45C154.317 147.149 154.415 147.939 154.259 148.7C154.073 149.08 153.146 149.413 151.479 149.7L141.059 151.73Z" fill="#FFA215"/>
<path d="M187.049 91.7699C187.34 92.8572 187.298 94.0066 186.929 95.0699C186.175 97.4833 185.356 100.25 184.469 103.37C183.582 106.49 182.696 109.78 181.809 113.24C180.922 116.7 180.049 120.243 179.189 123.87C178.329 127.497 177.496 131.04 176.689 134.5C175.882 137.967 175.145 141.243 174.479 144.33C173.812 147.417 173.236 150.17 172.749 152.59C172.614 153.293 172.226 153.923 171.659 154.36C170.748 154.635 169.772 154.606 168.879 154.28C167.486 153.907 166.152 153.53 164.879 153.15C163.641 152.784 162.442 152.298 161.299 151.7C160.28 151.299 159.417 150.58 158.839 149.65C158.405 148.621 158.28 147.488 158.479 146.39C158.585 144.51 158.816 142.08 159.169 139.1C159.522 136.12 159.952 132.857 160.459 129.31C160.972 125.763 161.549 122.03 162.189 118.11C162.829 114.19 163.496 110.35 164.189 106.59C164.856 102.83 165.539 99.2733 166.239 95.9199C166.939 92.5666 167.582 89.6266 168.169 87.0999C168.649 85.5466 169.316 84.5933 170.169 84.2399C171.408 83.8993 172.723 83.9695 173.919 84.4399C175.768 84.9349 177.575 85.5803 179.319 86.3699C181.083 87.1391 182.779 88.0557 184.389 89.1099C185.498 89.7421 186.417 90.6608 187.049 91.7699Z" fill="#FFA215"/>
<path d="M197.118 86.0882C199.983 85.0713 202.935 84.3181 205.938 83.8382C209.09 83.3279 212.287 83.1403 215.478 83.2782C218.694 83.4068 221.871 84.0308 224.898 85.1282C227.984 86.2722 230.836 87.9663 233.318 90.1282C238.491 94.9279 241.8 101.403 242.658 108.408C243.028 111.948 242.825 115.523 242.058 118.998C241.217 122.768 239.851 126.4 237.998 129.788C235.975 133.508 233.441 136.924 230.468 139.938C227.19 143.254 223.492 146.125 219.468 148.478C214.946 151.105 210.098 153.122 205.048 154.478C203.637 154.952 202.145 155.131 200.662 155.006C199.179 154.88 197.738 154.452 196.428 153.748C195.072 153.083 193.754 152.345 192.478 151.538C191.351 150.812 190.061 149.912 188.608 148.838C188.074 148.352 187.564 147.882 187.078 147.428C186.59 146.966 186.169 146.438 185.828 145.858C185.456 145.189 185.224 144.45 185.148 143.688C185.044 142.589 185.071 141.481 185.228 140.388L189.898 89.2482C192.217 88.0052 194.631 86.9485 197.118 86.0882ZM211.498 135.458C214.302 133.178 216.793 130.539 218.908 127.608C220.729 125.082 222.193 122.316 223.258 119.388C224.164 116.926 224.733 114.353 224.948 111.738C225.161 108.465 224.784 105.915 223.818 104.088C222.701 102.132 220.892 100.666 218.748 99.9782C216.334 99.0649 213.381 99.1716 209.888 100.298C208.008 107.332 206.341 114.272 204.888 121.118C203.434 127.965 202.038 134.878 200.698 141.858C204.591 140.265 208.23 138.108 211.498 135.458Z" fill="#FFA215"/>
<path d="M269.201 139.49C265.634 139.968 262.098 140.652 258.611 141.54C257.537 143.634 256.597 145.58 255.791 147.38C254.984 149.18 254.204 150.94 253.451 152.66C253.323 153.027 253.116 153.362 252.845 153.64C252.574 153.918 252.244 154.133 251.881 154.27C250.935 154.393 249.973 154.255 249.101 153.87C248.434 153.604 247.667 153.294 246.801 152.94C245.934 152.587 245.087 152.197 244.261 151.77C243.594 151.344 243.031 150.98 242.571 150.68C242.085 150.409 241.682 150.011 241.405 149.528C241.128 149.046 240.989 148.497 241.001 147.94C241.011 147.023 241.159 146.113 241.441 145.24C242.727 141.534 244.394 137.2 246.441 132.24C248.487 127.28 250.714 122.127 253.121 116.78C255.507 111.447 257.951 106.197 260.451 101.03C262.951 95.8636 265.327 91.2602 267.581 87.2202C268.346 85.8179 269.42 84.6075 270.721 83.6802C272.007 82.7669 273.914 82.4336 276.441 82.6802C278.641 82.7869 280.601 82.9602 282.321 83.2002C284.041 83.4402 285.611 83.7236 287.031 84.0502C288.451 84.3702 289.767 84.7036 290.981 85.0502C292.194 85.3969 293.414 85.7302 294.641 86.0502C295.965 86.3794 297.108 87.2163 297.821 88.3802C298.307 89.5806 298.459 90.8904 298.261 92.1702C297.941 95.9836 297.671 100.36 297.451 105.3C297.231 110.24 297.081 115.394 297.001 120.76C296.894 126.134 296.827 131.517 296.801 136.91C296.774 142.304 296.774 147.304 296.801 151.91C296.838 152.267 296.803 152.628 296.698 152.972C296.593 153.315 296.421 153.634 296.191 153.91C295.377 154.389 294.428 154.586 293.491 154.47C292.097 154.47 290.807 154.43 289.621 154.35C288.385 154.256 287.168 153.997 286.001 153.58C284.983 153.357 284.048 152.855 283.301 152.13C282.662 151.2 282.286 150.116 282.211 148.99C281.997 147.437 281.811 145.734 281.651 143.88C281.491 142.027 281.331 140 281.171 137.8C277.197 138.367 273.207 138.93 269.201 139.49ZM273.151 125.6C275.597 125.334 278.054 125.12 280.521 124.96C280.414 120.56 280.334 116.17 280.281 111.79C280.227 107.41 280.254 103.077 280.361 98.7902C278.214 102.71 275.881 107.044 273.361 111.79C270.841 116.537 268.331 121.464 265.831 126.57C268.271 126.19 270.711 125.867 273.151 125.6Z" fill="#FFA215"/>
<path d="M314 86.0882C316.866 85.0716 319.818 84.3185 322.82 83.8382C325.973 83.3279 329.169 83.1403 332.36 83.2782C335.577 83.407 338.754 84.031 341.78 85.1282C344.866 86.2716 347.719 87.9657 350.2 90.1282C355.375 94.9274 358.683 101.403 359.54 108.408C359.911 111.948 359.708 115.523 358.94 118.998C358.101 122.782 356.731 126.428 354.87 129.828C352.848 133.548 350.313 136.964 347.34 139.978C344.063 143.294 340.364 146.165 336.34 148.518C331.819 151.145 326.97 153.163 321.92 154.518C320.51 154.992 319.017 155.171 317.535 155.046C316.052 154.92 314.611 154.492 313.3 153.788C311.945 153.123 310.626 152.385 309.35 151.578C308.224 150.852 306.934 149.952 305.48 148.878C304.947 148.392 304.437 147.922 303.95 147.468C303.462 147.006 303.041 146.478 302.7 145.898C302.325 145.229 302.09 144.491 302.01 143.728C301.908 142.629 301.935 141.521 302.09 140.428L306.76 89.2882C309.085 88.0311 311.506 86.9611 314 86.0882ZM328.38 135.458C331.184 133.178 333.675 130.538 335.79 127.608C337.611 125.081 339.075 122.315 340.14 119.388C341.045 116.926 341.614 114.353 341.83 111.738C342.044 108.465 341.667 105.915 340.7 104.088C339.584 102.132 337.775 100.666 335.63 99.9782C333.217 99.0649 330.264 99.1716 326.77 100.298C324.89 107.332 323.224 114.272 321.77 121.118C320.317 127.965 318.92 134.878 317.58 141.858C321.467 140.263 325.099 138.107 328.36 135.458H328.38Z" fill="#FFA215"/>
</svg>
