<svg viewBox="0 0 1234 172" fill="none" xmlns="http://www.w3.org/2000/svg">
<path d="M79.7584 88.69L71.9984 87.25C64.997 86.0011 57.916 85.2492 50.8084 85C55.5803 80.6753 59.9638 75.9405 63.9084 70.85L68.1684 65.26L61.4884 68.82C55.9851 71.7851 50.7135 75.1614 45.7184 78.92C45.6484 68.74 41.0484 6.25 41.0484 6.25C39.7784 20.51 36.4984 69.18 36.4284 80.25C30.9077 75.9597 25.0372 72.1397 18.8784 68.83L12.2284 65.3L16.4584 70.87C20.3948 75.9552 24.7717 80.6835 29.5384 85C22.4272 85.2444 15.3425 85.9964 8.33844 87.25L0.648438 88.69L8.33844 90.13C15.3427 91.3809 22.4274 92.1295 29.5384 92.37C24.7717 96.6932 20.3918 101.425 16.4484 106.51L12.2184 112.08L18.8784 108.55C25.0418 105.224 30.9157 101.387 36.4384 97.08C36.5084 108.08 41.2084 171.08 41.2084 171.08C41.6484 166.58 45.6684 108.47 45.7284 98.4C50.7241 102.155 55.9957 105.528 61.4984 108.49L68.1784 112.05L63.9184 106.46C59.9734 101.373 55.5899 96.6414 50.8184 92.32C57.9209 92.0852 64.9982 91.3534 71.9984 90.13L79.7584 88.69Z" fill="#F80138"/>
<path d="M88.7584 82.69L80.9984 81.25C73.997 80.0011 66.916 79.2492 59.8084 79C64.5803 74.6753 68.9638 69.9405 72.9084 64.85L77.1684 59.26L70.4884 62.82C64.9851 65.7851 59.7135 69.1614 54.7184 72.92C54.6484 62.74 50.0484 0.25 50.0484 0.25C48.7784 14.51 45.4984 63.18 45.4284 74.25C39.9077 69.9597 34.0372 66.1397 27.8784 62.83L21.2284 59.3L25.4584 64.87C29.3948 69.9552 33.7717 74.6835 38.5384 79C31.4272 79.2444 24.3425 79.9964 17.3384 81.25L9.64844 82.69L17.3384 84.13C24.3427 85.3809 31.4274 86.1295 38.5384 86.37C33.7717 90.6932 29.3918 95.4245 25.4484 100.51L21.2184 106.08L27.8784 102.55C34.0418 99.2237 39.9157 95.387 45.4384 91.08C45.5084 102.08 50.2084 165.08 50.2084 165.08C50.6484 160.58 54.6684 102.47 54.7284 92.4C59.7241 96.1548 64.9957 99.5277 70.4984 102.49L77.1784 106.05L72.9184 100.46C68.9734 95.3729 64.5899 90.6414 59.8184 86.32C66.9209 86.0852 73.9982 85.3534 80.9984 84.13L88.7584 82.69Z" fill="white"/>
<path d="M1225 88.6917L1217.27 87.2517C1210.26 86.0018 1203.17 85.25 1196.06 85.0017C1200.83 80.677 1205.21 75.9422 1209.16 70.8517L1213.42 65.2617L1206.74 68.8217C1201.25 71.7913 1195.98 75.1709 1191 78.9317C1190.93 68.7517 1186.33 6.26172 1186.33 6.26172C1185.06 20.5217 1181.78 69.1917 1181.71 80.2617C1176.19 75.9537 1170.31 72.1169 1164.15 68.7917L1157.5 65.2617L1161.73 70.8317C1165.66 75.9299 1170.03 80.6717 1174.79 85.0017C1167.68 85.2462 1160.59 85.9981 1153.59 87.2517L1145.9 88.6917L1153.59 90.1317C1160.59 91.3826 1167.68 92.1312 1174.79 92.3717C1170.02 96.6949 1165.64 101.426 1161.7 106.512L1157.47 112.082L1164.13 108.552C1170.29 105.225 1176.17 101.389 1181.69 97.0817C1181.76 108.082 1186.46 171.082 1186.46 171.082C1186.9 166.582 1190.92 108.472 1190.98 98.4017C1195.97 102.156 1201.25 105.529 1206.75 108.492L1213.43 112.052L1209.17 106.462C1205.22 101.375 1200.84 96.6432 1196.07 92.3217C1203.19 92.0722 1210.28 91.3237 1217.29 90.0817L1225 88.6917Z" fill="#F80138"/>
<path d="M1234 82.6917L1226.27 81.2517C1219.26 80.0018 1212.17 79.25 1205.06 79.0017C1209.83 74.677 1214.21 69.9422 1218.16 64.8517L1222.42 59.2617L1215.74 62.8217C1210.25 65.7913 1204.98 69.1709 1200 72.9317C1199.93 62.7517 1195.33 0.261719 1195.33 0.261719C1194.06 14.5217 1190.78 63.1917 1190.71 74.2617C1185.19 69.9537 1179.31 66.1169 1173.15 62.7917L1166.5 59.2617L1170.73 64.8317C1174.66 69.9299 1179.03 74.6717 1183.79 79.0017C1176.68 79.2462 1169.59 79.9981 1162.59 81.2517L1154.9 82.6917L1162.59 84.1317C1169.59 85.3826 1176.68 86.1312 1183.79 86.3717C1179.02 90.6949 1174.64 95.4262 1170.7 100.512L1166.47 106.082L1173.13 102.552C1179.29 99.2255 1185.17 95.3887 1190.69 91.0817C1190.76 102.082 1195.46 165.082 1195.46 165.082C1195.9 160.582 1199.92 102.472 1199.98 92.4017C1204.97 96.1565 1210.25 99.5294 1215.75 102.492L1222.43 106.052L1218.17 100.462C1214.22 95.3746 1209.84 90.6432 1205.07 86.3217C1212.19 86.0722 1219.28 85.3237 1226.29 84.0817L1234 82.6917Z" fill="white"/>
<path d="M169.49 70.1499C169.761 71.2845 169.789 72.4639 169.57 73.6099C169.276 76.224 168.423 78.7443 167.07 80.9999C165.813 83.0511 164.282 84.9217 162.52 86.5599C160.842 88.1197 159.017 89.5129 157.07 90.7199L152.07 93.7899C150.497 94.707 148.999 95.7469 147.59 96.8999C146.573 97.7326 145.648 98.6712 144.83 99.6999C144.232 100.442 143.771 101.285 143.47 102.19C143.247 102.866 143.182 103.585 143.28 104.29C143.372 104.676 143.539 105.04 143.772 105.361C144.006 105.682 144.301 105.954 144.64 106.16C145.268 106.516 145.978 106.702 146.7 106.7C147.806 106.698 148.902 106.488 149.93 106.08C151.059 105.632 152.141 105.072 153.16 104.41C154.246 103.71 155.336 102.943 156.43 102.11C157.523 101.277 158.663 100.42 159.85 99.5399C161.758 98.1564 164.034 97.37 166.39 97.2799C168.916 97.1241 171.445 97.5518 173.78 98.5299C174.324 98.745 174.835 99.0344 175.3 99.3899C175.486 99.5332 175.638 99.716 175.746 99.9252C175.853 100.134 175.912 100.365 175.92 100.6C175.909 101.242 175.737 101.871 175.42 102.43C174.9 103.382 174.273 104.271 173.55 105.08C171.175 108.096 168.308 110.689 165.07 112.75C162.025 114.668 158.623 115.951 155.07 116.52C153.09 116.875 151.071 116.953 149.07 116.75C147.212 116.561 145.383 116.155 143.62 115.54C142.02 114.984 140.492 114.239 139.07 113.32C137.825 112.523 136.677 111.583 135.65 110.52C133.821 108.795 132.34 106.734 131.29 104.45C130.501 102.691 130.115 100.777 130.16 98.8499C130.226 97.1385 130.638 95.4582 131.37 93.9099C132.054 92.4256 132.939 91.0426 134 89.7999C135.063 88.584 136.28 87.5117 137.62 86.6099C138.993 85.6765 140.433 84.7565 141.94 83.8499C143.446 82.9432 144.95 81.9932 146.45 80.9999C147.949 80.0161 149.344 78.8801 150.61 77.6099C151.917 76.2916 153.019 74.7849 153.88 73.1399C154.849 71.2366 155.495 69.1852 155.79 67.0699C155.683 65.9299 156.016 65.2165 156.79 64.9299C157.743 64.6526 158.756 64.6526 159.71 64.9299C161.013 65.2364 162.288 65.6546 163.52 66.1799C164.893 66.7532 166.126 67.3232 167.22 67.8899C168.222 68.3484 169.027 69.1499 169.49 70.1499ZM174 58.5199C173.273 59.5539 172.314 60.4033 171.2 60.9999C169.988 61.6711 168.649 62.0831 167.27 62.2099C165.624 62.3455 163.969 62.1343 162.41 61.5899C161.207 61.2151 160.06 60.6803 159 59.9999C158.2 59.4807 157.502 58.8198 156.94 58.0499C156.471 57.3932 156.132 56.6534 155.94 55.8699C155.758 55.1167 155.668 54.3446 155.67 53.5699V52.1399C155.654 51.7216 155.681 51.3028 155.75 50.8899C155.994 49.9471 156.418 49.0607 157 48.2799C157.653 47.4498 158.457 46.7509 159.37 46.2199C160.378 45.631 161.487 45.2343 162.64 45.0499C163.995 44.8428 165.374 44.8428 166.73 45.0499C167.994 45.1935 169.228 45.5307 170.39 46.0499C171.472 46.5213 172.45 47.2008 173.27 48.0499C174.062 48.906 174.647 49.9323 174.98 51.0499C175.349 52.3502 175.427 53.7158 175.21 55.0499C175.09 56.2867 174.675 57.4768 174 58.5199Z" fill="white"/>
<path d="M202.439 112.8C198.985 113.467 195.705 114.104 192.599 114.71C191.658 114.983 190.694 115.163 189.719 115.25C189.05 115.305 188.376 115.264 187.719 115.13C187.218 115.024 186.734 114.853 186.279 114.62C185.887 114.412 185.51 114.178 185.149 113.92C184.313 113.383 183.508 112.799 182.739 112.17C182.012 111.57 181.052 110.804 179.859 109.87C179.032 109.199 178.351 108.365 177.859 107.42C177.375 106.388 177.238 105.227 177.469 104.11C177.622 102.11 177.882 99.7103 178.249 96.9103C178.615 94.1103 179.055 91.1103 179.569 87.9103C180.089 84.697 180.659 81.3636 181.279 77.9103C181.899 74.457 182.565 71.0203 183.279 67.6003C184.005 64.1736 184.745 60.8803 185.499 57.7203C186.252 54.5603 186.985 51.6536 187.699 49.0003C188.219 47.4936 188.885 46.6003 189.699 46.3203C190.906 46.0538 192.165 46.1477 193.319 46.5903C195.091 47.0613 196.831 47.6459 198.529 48.3403C200.244 49.0146 201.886 49.8623 203.429 50.8703C204.459 51.5199 205.325 52.3996 205.959 53.4403C206.287 54.4641 206.22 55.5741 205.769 56.5503C204.729 59.6636 203.679 63.087 202.619 66.8203C201.559 70.5536 200.495 74.3936 199.429 78.3403C198.362 82.287 197.362 86.217 196.429 90.1303C195.495 94.0436 194.599 97.7936 193.739 101.38C196.125 100.967 198.355 100.657 200.429 100.45C202.502 100.244 204.759 100.064 207.199 99.9103C208.309 99.7733 209.435 99.8652 210.509 100.18C211.384 100.577 212.107 101.247 212.569 102.09C213.171 102.983 213.68 103.934 214.089 104.93C214.459 105.826 214.76 106.749 214.989 107.69C215.317 108.367 215.412 109.134 215.259 109.87C215.079 110.23 214.185 110.564 212.579 110.87L202.439 112.8Z" fill="white"/>
<path d="M246.881 54.8607C247.161 55.912 247.119 57.0234 246.761 58.0507C246.034 60.384 245.244 63.0507 244.391 66.0507C243.537 69.0507 242.681 72.2274 241.821 75.5807C240.967 78.914 240.124 82.3374 239.291 85.8507C238.457 89.364 237.654 92.7874 236.881 96.1207C236.101 99.454 235.387 102.617 234.741 105.611C234.094 108.604 233.537 111.271 233.071 113.611C232.954 114.283 232.599 114.89 232.071 115.321C231.189 115.586 230.245 115.558 229.381 115.241C228.047 114.881 226.764 114.517 225.531 114.151C224.335 113.797 223.176 113.328 222.071 112.751C221.086 112.357 220.254 111.655 219.701 110.751C219.28 109.757 219.158 108.662 219.351 107.601C219.457 105.787 219.677 103.454 220.011 100.601C220.344 97.7474 220.761 94.594 221.261 91.1407C221.754 87.714 222.311 84.1074 222.931 80.3207C223.551 76.534 224.187 72.824 224.841 69.1907C225.507 65.5574 226.174 62.1207 226.841 58.8807C227.507 55.6407 228.131 52.8007 228.711 50.3607C229.177 48.854 229.814 47.934 230.621 47.6007C231.816 47.2713 233.086 47.338 234.241 47.7907C236.025 48.271 237.768 48.8964 239.451 49.6607C241.156 50.4046 242.795 51.2911 244.351 52.3107C245.405 52.9217 246.278 53.8016 246.881 54.8607Z" fill="white"/>
<path d="M244.89 97.5102C245.919 97.3539 246.961 97.3003 248 97.3502C249.017 97.3995 250.024 97.5708 251 97.8602C251.926 98.1303 252.806 98.5382 253.61 99.0702C257.148 101.428 261.036 103.213 265.13 104.36C268.397 105.14 270.757 104.934 272.21 103.74C272.351 103.683 272.478 103.594 272.579 103.481C272.681 103.367 272.756 103.232 272.797 103.085C272.839 102.939 272.846 102.785 272.819 102.635C272.792 102.485 272.73 102.343 272.64 102.22C272.117 101.424 271.457 100.726 270.69 100.16C269.73 99.3802 268.537 98.5235 267.11 97.5902C265.683 96.6569 264.167 95.6969 262.56 94.7102C260.953 93.7235 259.343 92.7002 257.73 91.6402C256.216 90.6481 254.76 89.5696 253.37 88.4102C251.921 87.2732 250.627 85.952 249.52 84.4802C248.415 83.0236 247.535 81.4088 246.91 79.6902C246.284 77.9397 245.946 76.099 245.91 74.2402C245.879 72.1792 246.194 70.1275 246.84 68.1702C247.383 66.11 248.179 64.1249 249.21 62.2602C250.367 60.1481 251.705 58.1405 253.21 56.2602C254.745 54.3082 256.437 52.4854 258.27 50.8102C260.013 49.1993 261.901 47.7531 263.91 46.4902C264.661 45.9501 265.469 45.494 266.32 45.1302C267.389 44.6553 268.515 44.3192 269.67 44.1302C270.993 43.923 272.334 43.8593 273.67 43.9402C275.201 44.0332 276.715 44.3085 278.18 44.7602C280.584 45.6291 282.924 46.6684 285.18 47.8702C287.338 48.9497 289.354 50.2933 291.18 51.8702C292.122 52.7502 292.934 53.7604 293.59 54.8702C294.126 55.769 294.533 56.7384 294.8 57.7502C295.029 58.6535 295.16 59.5788 295.19 60.5102C295.19 61.4169 295.19 62.2602 295.19 63.0402C294.983 64.3735 294.697 65.9035 294.33 67.6302C293.963 69.3569 293.537 71.0935 293.05 72.8402C292.557 74.6069 292.037 76.2935 291.49 77.9002C291.035 79.2738 290.477 80.6109 289.82 81.9002C289.399 82.7441 288.734 83.4412 287.91 83.9002C287.419 84.0241 286.908 84.0499 286.407 83.9761C285.906 83.9023 285.425 83.7304 284.99 83.4702C277.883 81.0835 274.613 77.6602 275.18 73.2002C275.308 72.126 275.501 71.0606 275.76 70.0102C276.047 68.8169 276.333 67.6102 276.62 66.3902C276.907 65.1702 277.153 64.0169 277.36 62.9302C277.554 62.0746 277.621 61.1953 277.56 60.3202C277.48 59.6702 277.22 59.3202 276.78 59.1502C276.34 58.9802 275.62 59.3202 274.64 60.0402C273.583 60.6324 272.603 61.351 271.72 62.1802C270.629 63.1834 269.626 64.2774 268.72 65.4502C267.754 66.6772 266.907 67.9931 266.19 69.3802C265.487 70.7113 264.988 72.1406 264.71 73.6202C264.45 75.011 264.477 76.4403 264.79 77.8202C265.138 79.2595 265.928 80.5536 267.05 81.5202C268.617 83.0219 270.31 84.3868 272.11 85.6002C273.977 86.8735 275.83 88.1069 277.67 89.3002C279.51 90.4935 281.247 91.6735 282.88 92.8402C284.346 93.8759 285.689 95.0772 286.88 96.4202C287.867 97.5102 288.555 98.8363 288.88 100.27C289.138 101.775 288.847 103.322 288.06 104.63C287.445 105.876 286.716 107.061 285.88 108.17C284.836 109.547 283.572 110.743 282.14 111.71C280.391 112.892 278.477 113.808 276.46 114.43C273.865 115.211 271.17 115.606 268.46 115.6C264.261 115.704 260.086 114.934 256.2 113.34C251.664 111.345 247.529 108.539 244 105.06C241.72 103.14 240.527 101.66 240.42 100.62C240.373 100.131 240.494 99.6411 240.763 99.2303C241.032 98.8195 241.433 98.5126 241.9 98.3602C242.853 97.9417 243.859 97.6557 244.89 97.5102Z" fill="white"/>
<path d="M338.511 60.1094L331.121 60.8494L327.731 74.3894C326.564 79.0561 325.438 83.6861 324.351 88.2794C323.264 92.8727 322.241 97.3461 321.281 101.699C320.321 106.059 319.478 110.133 318.751 113.919C318.743 114.199 318.672 114.474 318.544 114.723C318.416 114.972 318.234 115.19 318.011 115.359C317.519 115.615 316.963 115.722 316.411 115.669C315.62 115.621 314.837 115.477 314.081 115.239L311.081 114.379C310.063 114.103 309.061 113.769 308.081 113.379C307.274 113.064 306.524 112.618 305.861 112.059C305.285 111.569 304.844 110.939 304.581 110.229C304.315 109.411 304.288 108.533 304.501 107.699C304.654 105.206 304.964 102.146 305.431 98.5194C305.898 94.8927 306.484 91.0527 307.191 86.9994C307.858 82.9527 308.571 78.8661 309.331 74.7394C310.091 70.6127 310.868 66.7861 311.661 63.2594C310.154 63.5194 308.701 63.7394 307.301 63.9194C306.12 64.0591 304.951 64.2797 303.801 64.5794C302.764 64.8856 301.668 64.9269 300.611 64.6994C299.521 64.285 298.556 63.5961 297.811 62.6994C296.621 61.4753 295.61 60.0881 294.811 58.5794C293.904 56.9194 293.164 55.5194 292.591 54.3794C292.018 53.2394 291.864 52.4461 292.131 51.9994C292.667 51.4793 293.346 51.1311 294.081 50.9994C297.141 50.3794 300.604 49.8094 304.471 49.2894C308.338 48.7694 312.281 48.3027 316.301 47.8894C320.301 47.4761 324.244 47.1261 328.131 46.8394C332.018 46.5527 335.481 46.3594 338.521 46.2594C339.69 46.199 340.862 46.3446 341.981 46.6894C342.709 46.9963 343.341 47.4938 343.811 48.1294C344.837 49.3056 345.702 50.6139 346.381 52.0194C347.027 53.3451 347.549 54.7276 347.941 56.1494C348.248 56.9371 348.248 57.8116 347.941 58.5994C347.654 59.0394 346.708 59.3127 345.101 59.4194L338.511 60.1094Z" fill="white"/>
<path d="M393.26 57.6986C394.219 59.6279 394.893 61.686 395.26 63.8086C395.841 67.8919 395.972 72.0267 395.65 76.1386C395.334 80.6144 394.567 85.0468 393.36 89.3686C392.164 93.6797 390.487 97.8425 388.36 101.779C386.388 105.506 383.767 108.851 380.62 111.659C378.698 113.192 376.467 114.294 374.08 114.889C371.499 115.448 368.841 115.567 366.22 115.239C364.181 115.011 362.155 114.677 360.15 114.239C358.176 113.829 356.266 113.156 354.47 112.239C352.996 111.463 351.614 110.524 350.35 109.439C349.049 108.357 347.967 107.036 347.16 105.549C345.857 102.994 344.915 100.272 344.36 97.4586C343.727 94.3363 343.438 91.1539 343.5 87.9686C343.641 81.0078 345.121 74.1393 347.86 67.7386C349.26 64.4692 350.992 61.3527 353.03 58.4386C355.068 55.5208 357.459 52.8671 360.15 50.5386C362.096 49.0739 364.302 47.9914 366.65 47.3486C368.981 46.6379 371.44 46.4535 373.85 46.8086C376.729 47.2598 379.556 47.9934 382.29 48.9986C384.682 49.8335 386.927 51.0418 388.94 52.5786C390.723 53.9643 392.194 55.7086 393.26 57.6986ZM372.75 61.6986C371.202 63.2442 369.858 64.9816 368.75 66.8686C367.322 69.2025 366.063 71.6354 364.98 74.1486C363.87 76.6656 362.922 79.2508 362.14 81.8886C361.404 84.3693 360.883 86.9086 360.58 89.4786C360.277 91.906 360.174 94.3542 360.27 96.7986C360.32 98.7779 360.688 100.736 361.36 102.599C361.545 103.278 361.888 103.904 362.36 104.425C362.833 104.946 363.423 105.349 364.08 105.599C364.665 105.768 365.281 105.793 365.877 105.671C366.473 105.549 367.03 105.284 367.5 104.899C368.906 103.846 370.117 102.557 371.08 101.089C372.422 99.0972 373.555 96.9726 374.46 94.7486C375.574 92.0808 376.496 89.3372 377.22 86.5386C377.936 83.8929 378.48 81.204 378.85 78.4886C379.249 75.7698 379.456 73.0264 379.47 70.2786C379.51 68.0393 379.262 65.8042 378.73 63.6286C378.237 61.7886 377.47 60.7119 376.43 60.3986C375.39 60.0852 374.164 60.5352 372.75 61.7486V61.6986Z" fill="white"/>
<path d="M441.589 105.91C441.042 108.663 440.562 111.36 440.149 114C440.005 114.661 439.615 115.244 439.059 115.63C438.173 115.903 437.225 115.903 436.339 115.63L432.409 114.58C431.233 114.28 430.097 113.836 429.029 113.26C428.117 112.785 427.35 112.074 426.809 111.2C426.297 110.186 426.2 109.013 426.539 107.93C427.177 105.878 427.606 103.767 427.819 101.63C428.206 98.6697 428.556 95.3097 428.869 91.5497C429.182 87.7897 429.492 83.8864 429.799 79.8397C430.112 75.793 430.422 72.0564 430.729 68.6297C431.036 65.203 431.386 62.3364 431.779 60.0297C432.166 57.723 432.619 56.4397 433.139 56.1797C435.139 55.1397 437.319 54.063 439.679 52.9497C442.039 51.8364 444.502 50.8364 447.069 49.9497C449.58 49.0502 452.141 48.2956 454.739 47.6897C457.175 47.1014 459.664 46.7663 462.169 46.6897C464.415 46.6219 466.657 46.8984 468.819 47.5097C470.821 48.0797 472.651 49.1341 474.149 50.5797C475.921 52.5694 477.542 54.6886 478.999 56.9197C480.602 59.4733 481.771 62.2745 482.459 65.2097C483.156 68.0549 482.838 71.0543 481.559 73.6897C480.943 74.9643 480.185 76.1653 479.299 77.2697C478.363 78.4425 477.362 79.561 476.299 80.6197C474.368 82.5299 472.258 84.2511 469.999 85.7597C467.419 87.4888 464.73 89.0487 461.949 90.4297C458.979 91.9106 455.927 93.2227 452.809 94.3597C449.616 95.5264 446.462 96.5264 443.349 97.3597C442.716 100.313 442.129 103.163 441.589 105.91ZM456.339 78.4797C458.797 77.021 461.07 75.2717 463.109 73.2697C464.658 71.7827 465.925 70.0278 466.849 68.0897C467.541 66.8026 467.709 65.298 467.319 63.8897C467.166 63.2697 466.609 62.7897 465.649 62.4497C464.47 62.0783 463.233 61.9258 461.999 61.9997C460.314 62.0776 458.64 62.312 456.999 62.6997C455.065 63.1468 453.177 63.7728 451.359 64.5697C450.526 67.3697 449.736 70.2764 448.989 73.2897C448.242 76.303 447.476 79.443 446.689 82.7097C450.066 81.7055 453.304 80.2846 456.329 78.4797H456.339Z" fill="white"/>
<path d="M504.861 100.999C501.416 101.468 498 102.135 494.631 102.999C493.591 104.999 492.685 106.879 491.911 108.639C491.138 110.399 490.385 112.099 489.651 113.739C489.528 114.095 489.328 114.42 489.066 114.689C488.803 114.959 488.484 115.167 488.131 115.299C487.216 115.42 486.285 115.285 485.441 114.909C484.771 114.649 484.031 114.349 483.221 114.009C482.411 113.669 481.601 113.299 480.771 112.879C480.151 112.466 479.608 112.116 479.141 111.829C478.674 111.564 478.286 111.179 478.019 110.712C477.751 110.246 477.614 109.717 477.621 109.179C477.632 108.293 477.777 107.413 478.051 106.569C479.298 102.989 480.918 98.7861 482.911 93.9595C484.905 89.1328 487.058 84.1461 489.371 78.9995C491.678 73.8595 494.038 68.7895 496.451 63.7895C498.865 58.7895 501.161 54.3395 503.341 50.4395C504.071 49.0882 505.097 47.9191 506.341 47.0195C507.588 46.1395 509.431 45.8061 511.871 46.0195C513.998 46.1261 515.891 46.2961 517.551 46.5295C519.211 46.7628 520.728 47.0361 522.101 47.3495C523.475 47.6628 524.745 47.9961 525.911 48.3495C527.078 48.7028 528.258 49.0361 529.451 49.3495C530.733 49.6678 531.837 50.4803 532.521 51.6095C532.992 52.7684 533.14 54.033 532.951 55.2695C532.638 58.9561 532.378 63.1828 532.171 67.9495C531.965 72.7161 531.808 77.6961 531.701 82.8895C531.595 88.0761 531.531 93.2761 531.511 98.4895C531.491 103.703 531.491 108.539 531.511 112.999C531.55 113.347 531.519 113.698 531.419 114.033C531.32 114.368 531.154 114.68 530.931 114.949C530.144 115.411 529.227 115.601 528.321 115.489C526.988 115.489 525.741 115.449 524.581 115.369C523.387 115.279 522.21 115.031 521.081 114.629C520.098 114.415 519.194 113.93 518.471 113.229C517.879 112.335 517.534 111.3 517.471 110.229C517.265 108.723 517.085 107.076 516.931 105.289C516.778 103.503 516.621 101.546 516.461 99.4195C512.588 99.9061 508.721 100.433 504.861 100.999ZM508.671 87.5795C511.031 87.3195 513.405 87.1128 515.791 86.9595C515.685 82.7061 515.608 78.4661 515.561 74.2395C515.515 70.0128 515.541 65.8228 515.641 61.6695C513.568 65.4561 511.325 69.6461 508.911 74.2395C506.498 78.8328 504.071 83.5928 501.631 88.5195C503.965 88.1328 506.311 87.8095 508.671 87.5495V87.5795Z" fill="white"/>
<path d="M551.999 105C551.399 107.907 550.816 110.76 550.249 113.56C550.106 114.212 549.734 114.79 549.199 115.19C548.405 115.463 547.543 115.463 546.749 115.19C545.349 114.823 544.103 114.537 543.009 114.33C541.924 114.124 540.876 113.756 539.899 113.24C539.033 112.78 538.333 112.06 537.899 111.18C537.506 110.152 537.372 109.042 537.509 107.95C537.616 106.863 537.759 105.28 537.939 103.2C538.119 101.12 538.339 98.7868 538.599 96.2001C538.859 93.5801 539.159 90.7668 539.499 87.7601C539.839 84.7534 540.203 81.7534 540.589 78.7601C540.976 75.7534 541.403 72.8368 541.869 70.0101C542.336 67.1834 542.829 64.6401 543.349 62.3801C543.761 60.4686 544.333 58.5953 545.059 56.7801C545.383 55.6461 546.063 54.6466 546.999 53.9301C550.213 52.4768 553.573 51.0501 557.079 49.6501C560.416 48.2951 563.885 47.2897 567.429 46.6501C570.614 46.0558 573.877 46.0018 577.079 46.4901C580.111 46.9747 582.911 48.4064 585.079 50.5801C586.89 52.5553 588.535 54.6758 589.999 56.9201C591.602 59.4737 592.771 62.2748 593.459 65.2101C594.126 68.6834 593.866 71.5368 592.679 73.7701C590.513 77.7363 587.427 81.1246 583.679 83.6501C578.978 86.9556 573.952 89.7735 568.679 92.0601C569.873 93.3934 571.183 94.8201 572.609 96.3401C574.036 97.8601 575.503 99.3634 577.009 100.85C578.516 102.357 580.006 103.81 581.479 105.21C582.953 106.61 584.339 107.83 585.639 108.87C586.679 109.75 587.146 110.45 587.039 110.97C586.81 111.655 586.341 112.233 585.719 112.6C585.033 113.196 584.224 113.633 583.349 113.88C582.683 114.007 581.893 114.15 580.979 114.31C579.749 114.627 578.472 114.718 577.209 114.58C575.498 114.328 573.863 113.703 572.419 112.75C571.226 111.923 569.853 110.887 568.299 109.64C566.746 108.393 565.136 107.02 563.469 105.52C561.809 104.013 560.143 102.443 558.469 100.81C556.889 99.2471 555.397 97.5979 553.999 95.8701C553.273 99.0368 552.606 102.08 551.999 105ZM559.899 72.7801C559.119 75.7868 558.236 79.0034 557.249 82.4301C560.598 81.3388 563.804 79.8516 566.799 78.0001C569.306 76.4787 571.651 74.7063 573.799 72.7101C575.399 71.2372 576.75 69.5149 577.799 67.6101C578.626 66.0034 578.886 64.7568 578.579 63.8701C577.959 62.4168 576.116 61.6901 573.049 61.6901C571.369 61.7057 569.694 61.8866 568.049 62.2301C566.052 62.6492 564.117 63.3213 562.289 64.2301C561.483 66.9101 560.689 69.7534 559.909 72.7601L559.899 72.7801Z" fill="white"/>
<path d="M617.311 100.999C613.865 101.468 610.449 102.135 607.081 102.999C606.041 104.999 605.134 106.879 604.361 108.639C603.587 110.399 602.834 112.099 602.101 113.739C601.977 114.095 601.777 114.42 601.515 114.689C601.252 114.959 600.933 115.167 600.581 115.299C599.665 115.42 598.734 115.285 597.891 114.909C597.221 114.649 596.481 114.349 595.671 114.009C594.861 113.669 594.051 113.299 593.221 112.879C592.601 112.466 592.057 112.116 591.591 111.829C591.123 111.564 590.735 111.179 590.468 110.712C590.201 110.246 590.063 109.717 590.071 109.179C590.081 108.293 590.226 107.413 590.501 106.569C591.747 102.989 593.367 98.7861 595.361 93.9595C597.354 89.1328 599.507 84.1461 601.821 78.9995C604.127 73.8595 606.487 68.7895 608.901 63.7895C611.314 58.7895 613.611 54.3395 615.791 50.4395C616.52 49.0882 617.546 47.9191 618.791 47.0195C620.037 46.1395 621.881 45.8061 624.321 46.0195C626.447 46.1261 628.341 46.2961 630.001 46.5295C631.661 46.7628 633.177 47.0361 634.551 47.3495C635.924 47.6628 637.194 47.9961 638.361 48.3495C639.527 48.7028 640.707 49.0361 641.901 49.3495C643.19 49.6558 644.305 50.4615 645.001 51.5895C645.471 52.7484 645.62 54.013 645.431 55.2495C645.117 58.9361 644.857 63.1628 644.651 67.9295C644.444 72.6961 644.287 77.6761 644.181 82.8695C644.074 88.0561 644.011 93.2561 643.991 98.4695C643.971 103.683 643.974 108.526 644.001 112.999C644.039 113.347 644.008 113.698 643.908 114.033C643.809 114.368 643.643 114.68 643.421 114.949C642.633 115.411 641.716 115.601 640.811 115.489C639.477 115.489 638.231 115.449 637.071 115.369C635.876 115.279 634.699 115.031 633.571 114.629C632.587 114.415 631.683 113.93 630.961 113.229C630.368 112.335 630.023 111.3 629.961 110.229C629.754 108.723 629.574 107.076 629.421 105.289C629.267 103.503 629.111 101.546 628.951 99.4195C625.051 99.9061 621.171 100.433 617.311 100.999ZM621.121 87.5795C623.481 87.3195 625.854 87.1128 628.241 86.9595C628.134 82.7061 628.057 78.4661 628.011 74.2395C627.964 70.0128 627.991 65.8228 628.091 61.6695C626.031 65.4295 623.784 69.6061 621.351 74.1995C618.917 78.7928 616.491 83.5528 614.071 88.4795C616.411 88.1195 618.761 87.8095 621.121 87.5495V87.5795Z" fill="white"/>
<path d="M725.4 78.9485C724.565 79.3415 723.628 79.4638 722.72 79.2985C719.087 78.7785 716.42 77.7152 714.72 76.1085C712.992 74.4151 711.952 72.1426 711.8 69.7285C711.699 69.2272 711.636 68.7191 711.61 68.2085C711.571 67.6759 711.571 67.1411 711.61 66.6085C711.61 66.0385 711.61 65.4885 711.53 64.9785C711.45 64.4685 711.43 63.9785 711.37 63.4185C711.163 62.4318 710.97 61.6018 710.79 60.9285C710.743 60.6451 710.621 60.3794 710.436 60.1595C710.252 59.9396 710.011 59.7734 709.74 59.6785C708.7 59.3652 707.467 59.7918 706.04 60.9585C704.357 62.4103 702.889 64.0938 701.68 65.9585C700.061 68.3827 698.618 70.9191 697.36 73.5485C695.948 76.4569 694.751 79.465 693.78 82.5485C692.897 85.0375 692.257 87.6062 691.87 90.2185C691.492 92.6256 691.348 95.0636 691.44 97.4985C691.489 99.4518 691.857 101.384 692.53 103.218C692.714 103.866 693.04 104.464 693.485 104.969C693.929 105.474 694.481 105.874 695.1 106.138C696.066 106.448 697.115 106.366 698.02 105.908C699.154 105.351 700.172 104.585 701.02 103.648C702.1 102.488 703.065 101.226 703.9 99.8785C704.872 98.3324 705.756 96.7333 706.55 95.0885C703.437 95.2418 701.037 94.6985 699.35 93.4585C697.663 92.2185 696.33 90.1185 695.35 87.1585C695.241 86.9075 695.185 86.637 695.185 86.3635C695.185 86.09 695.241 85.8194 695.35 85.5685C695.641 85.1346 696.066 84.8079 696.56 84.6385C697.237 84.3788 697.941 84.1976 698.66 84.0985L701.46 83.6685C703.442 83.2346 705.444 82.9009 707.46 82.6685C709.533 82.4352 711.323 82.1885 712.83 81.9285C714.243 81.6503 715.697 81.6503 717.11 81.9285C718.285 82.286 719.328 82.9816 720.11 83.9285C720.729 84.598 721.313 85.2989 721.86 86.0285L723.38 88.0285C724.143 88.9316 724.616 90.0429 724.74 91.2185C724.722 92.3883 724.498 93.5459 724.08 94.6385C722.424 98.841 720.196 102.795 717.46 106.388C715.243 109.311 712.499 111.794 709.37 113.708C707.535 114.733 705.535 115.43 703.46 115.768C701.292 116.094 699.088 116.094 696.92 115.768C692.894 115.24 688.964 114.139 685.25 112.498C683.814 111.708 682.491 110.726 681.32 109.578C680.098 108.427 679.083 107.074 678.32 105.578C676.899 103.033 675.95 100.252 675.52 97.3685C674.995 94.0623 674.864 90.7055 675.13 87.3685C675.411 83.7241 676.037 80.1146 677 76.5885C677.99 72.9158 679.33 69.3462 681 65.9285C682.671 62.5061 684.681 59.2599 687 56.2385C689.226 53.3124 691.86 50.7195 694.82 48.5385C695.73 47.8242 696.741 47.248 697.82 46.8285C698.887 46.4181 699.998 46.1296 701.13 45.9685C702.227 45.8156 703.333 45.7387 704.44 45.7385C705.444 45.7337 706.448 45.8107 707.44 45.9685C708.829 46.1336 710.206 46.3942 711.56 46.7485C712.944 47.1049 714.309 47.5321 715.65 48.0285C716.938 48.5037 718.188 49.0753 719.39 49.7385C720.568 50.381 721.68 51.138 722.71 51.9985C724.314 53.1991 725.598 54.7753 726.45 56.5885C727.209 58.3746 727.707 60.2605 727.93 62.1885C727.983 63.2752 727.983 64.4952 727.93 65.8485C727.877 67.2018 727.8 68.5352 727.7 69.8485C727.567 71.1818 727.41 72.4785 727.23 73.7385C727.05 74.9985 726.857 76.0352 726.65 76.8485C726.457 77.6595 726.021 78.3922 725.4 78.9485Z" fill="white"/>
<path d="M778.471 57.6986C779.43 59.6279 780.103 61.686 780.471 63.8086C781.052 67.8919 781.183 72.0267 780.861 76.1386C780.545 80.6144 779.778 85.0468 778.571 89.3686C777.375 93.6797 775.698 97.8425 773.571 101.779C771.599 105.506 768.978 108.851 765.831 111.659C763.909 113.192 761.678 114.294 759.291 114.889C756.71 115.448 754.052 115.567 751.431 115.239C749.392 115.011 747.366 114.677 745.361 114.239C743.387 113.829 741.477 113.156 739.681 112.239C738.207 111.463 736.825 110.524 735.561 109.439C734.26 108.357 733.178 107.036 732.371 105.549C731.068 102.994 730.126 100.272 729.571 97.4586C728.938 94.3363 728.649 91.1539 728.711 87.9686C728.852 81.0078 730.332 74.1393 733.071 67.7386C734.471 64.4692 736.203 61.3527 738.241 58.4386C740.279 55.5208 742.67 52.8671 745.361 50.5386C747.307 49.0739 749.513 47.9914 751.861 47.3486C754.192 46.6379 756.651 46.4535 759.061 46.8086C761.94 47.2598 764.767 47.9934 767.501 48.9986C769.893 49.8335 772.138 51.0418 774.151 52.5786C775.934 53.9643 777.405 55.7086 778.471 57.6986ZM757.961 61.6986C756.413 63.2442 755.069 64.9816 753.961 66.8686C752.533 69.2025 751.273 71.6354 750.191 74.1486C749.081 76.6656 748.132 79.2508 747.351 81.8886C746.615 84.3693 746.093 86.9086 745.791 89.4786C745.488 91.906 745.385 94.3542 745.481 96.7986C745.531 98.7779 745.899 100.736 746.571 102.599C746.756 103.278 747.099 103.904 747.571 104.425C748.044 104.946 748.633 105.349 749.291 105.599C749.875 105.768 750.492 105.793 751.088 105.671C751.684 105.549 752.241 105.284 752.711 104.899C754.117 103.846 755.328 102.557 756.291 101.089C757.633 99.0972 758.766 96.9726 759.671 94.7486C760.785 92.0808 761.707 89.3372 762.431 86.5386C763.127 83.8883 763.651 81.1961 764.001 78.4786C764.4 75.7598 764.607 73.0164 764.621 70.2686C764.661 68.0293 764.413 65.7942 763.881 63.6186C763.388 61.7786 762.621 60.7019 761.581 60.3886C760.541 60.0752 759.348 60.5286 758.001 61.7486L757.961 61.6986Z" fill="white"/>
<path d="M798.16 105C797.56 107.907 796.976 110.76 796.41 113.56C796.266 114.212 795.894 114.79 795.36 115.19C794.566 115.463 793.703 115.463 792.91 115.19C791.51 114.823 790.263 114.537 789.17 114.33C788.084 114.123 787.036 113.756 786.06 113.24C785.193 112.78 784.493 112.06 784.06 111.18C783.666 110.152 783.532 109.042 783.67 107.95C783.776 106.863 783.92 105.28 784.1 103.2C784.28 101.12 784.5 98.7866 784.76 96.1999C785.02 93.5799 785.32 90.7666 785.66 87.7599C786 84.7533 786.363 81.7533 786.75 78.7599C787.136 75.7533 787.563 72.8366 788.03 70.0099C788.496 67.1833 788.99 64.6399 789.51 62.3799C789.921 60.4684 790.493 58.5951 791.22 56.7799C791.563 55.6775 792.245 54.7115 793.17 54.0199C796.383 52.5666 799.743 51.1399 803.25 49.7399C806.587 48.3849 810.055 47.3796 813.6 46.7399C816.784 46.1457 820.047 46.0916 823.25 46.5799C826.281 47.0645 829.082 48.4962 831.25 50.6699C833.067 52.6444 834.719 54.7649 836.19 57.0099C837.792 59.5635 838.961 62.3647 839.65 65.2999C840.316 68.7733 840.056 71.6266 838.87 73.8599C836.704 77.8262 833.617 81.2144 829.87 83.7399C825.168 87.0455 820.142 89.8634 814.87 92.1499C816.063 93.4833 817.373 94.9099 818.8 96.4299C820.226 97.9499 821.693 99.4533 823.2 100.94C824.706 102.447 826.196 103.9 827.67 105.3C829.143 106.7 830.53 107.92 831.83 108.96C832.87 109.84 833.336 110.54 833.23 111.06C833 111.744 832.531 112.323 831.91 112.69C831.223 113.286 830.414 113.723 829.54 113.97C828.873 114.097 828.083 114.24 827.17 114.4C825.939 114.716 824.662 114.808 823.4 114.67C821.688 114.417 820.053 113.793 818.61 112.84C817.416 112.013 816.043 110.977 814.49 109.73C812.936 108.483 811.326 107.11 809.66 105.61C808 104.103 806.333 102.533 804.66 100.9C803.066 99.338 801.56 97.6888 800.15 95.9599C799.423 99.0666 798.76 102.08 798.16 105ZM806.06 72.7799C805.28 75.7866 804.396 79.0033 803.41 82.4299C806.75 81.3467 809.949 79.8696 812.94 78.0299C815.446 76.5086 817.792 74.7361 819.94 72.7399C821.539 71.267 822.89 69.5447 823.94 67.6399C824.766 66.0333 825.026 64.7866 824.72 63.8999C824.1 62.4466 822.256 61.7199 819.19 61.7199C817.509 61.7355 815.834 61.9164 814.19 62.2599C812.192 62.679 810.257 63.3511 808.43 64.2599C807.63 66.9199 806.84 69.7533 806.06 72.7599V72.7799Z" fill="white"/>
<path d="M850.849 49.3683C853.616 48.3841 856.468 47.6544 859.369 47.1883C862.416 46.6951 865.505 46.5142 868.589 46.6483C871.696 46.7729 874.766 47.3767 877.689 48.4383C880.666 49.5308 883.42 51.1537 885.819 53.2283C888.483 55.5888 890.628 58.4763 892.119 61.7083C893.588 64.5728 894.51 67.6859 894.839 70.8883C895.196 74.3073 895 77.7616 894.259 81.1183C893.448 84.776 892.125 88.3008 890.329 91.5883C888.373 95.1831 885.923 98.4854 883.049 101.398C879.884 104.601 876.314 107.374 872.429 109.648C868.063 112.201 863.379 114.165 858.499 115.488C857.136 115.948 855.694 116.123 854.261 116.002C852.828 115.882 851.435 115.469 850.169 114.788C848.861 114.143 847.59 113.429 846.359 112.648C845.272 111.948 844.025 111.078 842.619 110.038C842.099 109.572 841.605 109.118 841.139 108.678C840.666 108.231 840.258 107.72 839.929 107.158C839.568 106.511 839.343 105.796 839.269 105.058C839.171 103.995 839.197 102.925 839.349 101.868L843.859 52.4483C846.103 51.2376 848.441 50.2077 850.849 49.3683ZM864.739 97.0783C867.448 94.8736 869.856 92.3217 871.899 89.4883C873.657 87.0474 875.071 84.3756 876.099 81.5483C876.973 79.1698 877.521 76.6839 877.729 74.1583C877.935 70.9916 877.572 68.5283 876.639 66.7683C875.563 64.8693 873.815 63.4422 871.739 62.7683C869.405 61.8883 866.552 61.9916 863.179 63.0783C861.365 69.8783 859.755 76.585 858.349 83.1983C856.942 89.8116 855.609 96.4783 854.349 103.198C858.091 101.674 861.591 99.6127 864.739 97.0783Z" fill="white"/>
<path d="M910.301 50.1907C913.028 49.5707 915.881 49.0007 918.861 48.4807C921.841 47.9607 924.888 47.5074 928.001 47.1207C931.141 46.734 934.268 46.4874 937.381 46.3807C940.341 46.3274 942.235 47.4674 943.061 49.8007C943.663 50.8701 944.133 52.0084 944.461 53.1907C944.721 54.204 944.981 55.3074 945.241 56.5007C945.448 57.834 945.345 58.7407 944.931 59.2207C944.099 59.8457 943.092 60.1953 942.051 60.2207C938.938 60.5807 935.721 60.944 932.401 61.3107C929.081 61.6774 925.578 62.1174 921.891 62.6307C921.111 64.964 920.385 67.3907 919.711 69.9107C919.038 72.4307 918.285 75.064 917.451 77.8107C919.005 77.604 920.561 77.4474 922.121 77.3407C923.681 77.234 925.348 77.1574 927.121 77.1107C928.276 77.0229 929.436 77.1553 930.541 77.5007C931.459 77.8931 932.205 78.6032 932.641 79.5007C933.231 80.4687 933.714 81.4981 934.081 82.5707C934.421 83.584 934.718 84.6074 934.971 85.6407C935.385 86.834 935.425 87.6374 935.091 88.0507C934.317 88.6629 933.384 89.0411 932.401 89.1407C929.288 89.714 926.111 90.2574 922.871 90.7707C919.631 91.284 916.505 91.854 913.491 92.4807C913.078 94.1407 912.688 95.7107 912.321 97.1907C911.955 98.6707 911.565 100.137 911.151 101.591C913.591 101.177 915.925 100.844 918.151 100.591C920.378 100.337 922.778 100.131 925.351 99.9707C926.487 99.8342 927.639 99.9398 928.731 100.281C929.607 100.657 930.332 101.315 930.791 102.151C931.359 103.078 931.841 104.056 932.231 105.071C932.571 105.977 932.948 106.897 933.361 107.831C933.634 108.518 933.634 109.283 933.361 109.971C933.101 110.357 932.271 110.691 930.871 110.971C927.538 111.591 924.165 112.241 920.751 112.921C917.338 113.601 914.088 114.221 911.001 114.781C909.481 115.268 907.867 115.388 906.291 115.131C905.312 114.88 904.38 114.471 903.531 113.921C902.651 113.347 901.808 112.764 901.001 112.171C900.195 111.577 899.248 110.811 898.161 109.871C897.301 109.169 896.599 108.293 896.101 107.301C895.587 106.182 895.386 104.945 895.521 103.721L902.871 52.0007C905.098 51.4207 907.575 50.8174 910.301 50.1907Z" fill="white"/>
<path d="M965.4 100.999C961.955 101.468 958.539 102.135 955.17 102.999C954.13 104.999 953.224 106.879 952.45 108.639C951.677 110.399 950.924 112.099 950.19 113.739C950.067 114.095 949.867 114.42 949.605 114.689C949.342 114.959 949.023 115.167 948.67 115.299C947.755 115.42 946.824 115.285 945.98 114.909C945.31 114.649 944.57 114.349 943.76 114.009C942.95 113.669 942.14 113.299 941.31 112.879C940.69 112.466 940.147 112.116 939.68 111.829C939.213 111.564 938.825 111.179 938.558 110.712C938.291 110.246 938.153 109.717 938.16 109.179C938.171 108.293 938.316 107.413 938.59 106.569C939.837 102.989 941.457 98.7861 943.45 93.9595C945.444 89.1328 947.597 84.1461 949.91 78.9995C952.217 73.8595 954.577 68.7895 956.99 63.7895C959.404 58.7895 961.7 54.3395 963.88 50.4395C964.61 49.0882 965.636 47.9191 966.88 47.0195C968.127 46.1395 969.97 45.8061 972.41 46.0195C974.537 46.1261 976.43 46.2961 978.09 46.5295C979.75 46.7628 981.267 47.0361 982.64 47.3495C984.014 47.6628 985.284 47.9961 986.45 48.3495C987.617 48.7028 988.797 49.0361 989.99 49.3495C991.272 49.6678 992.376 50.4803 993.06 51.6095C993.531 52.7684 993.68 54.033 993.49 55.2695C993.177 58.9561 992.917 63.1828 992.71 67.9495C992.504 72.7161 992.347 77.6961 992.24 82.8895C992.134 88.0761 992.07 93.2761 992.05 98.4895C992.03 103.703 992.03 108.539 992.05 112.999C992.089 113.347 992.058 113.698 991.958 114.033C991.859 114.368 991.693 114.68 991.47 114.949C990.683 115.411 989.766 115.601 988.86 115.489C987.527 115.489 986.28 115.449 985.12 115.369C983.926 115.279 982.749 115.031 981.62 114.629C980.637 114.415 979.733 113.93 979.01 113.229C978.418 112.335 978.073 111.3 978.01 110.229C977.804 108.723 977.624 107.076 977.47 105.289C977.317 103.503 977.16 101.546 977 99.4195C973.134 99.9061 969.267 100.433 965.4 100.999ZM969.21 87.5795C971.57 87.3195 973.944 87.1128 976.33 86.9595C976.224 82.7061 976.147 78.4661 976.1 74.2395C976.054 70.0128 976.08 65.8228 976.18 61.6695C974.107 65.4561 971.864 69.6461 969.45 74.2395C967.037 78.8328 964.61 83.5928 962.17 88.5195C964.504 88.1328 966.85 87.8095 969.21 87.5495V87.5795Z" fill="white"/>
<path d="M1012.56 105C1011.96 107.907 1011.38 110.76 1010.81 113.56C1010.67 114.212 1010.3 114.79 1009.76 115.19C1008.97 115.463 1008.11 115.463 1007.31 115.19C1005.91 114.823 1004.67 114.537 1003.57 114.33C1002.49 114.123 1001.44 113.756 1000.46 113.24C999.595 112.78 998.896 112.06 998.462 111.18C998.068 110.152 997.935 109.042 998.072 107.95C998.179 106.863 998.322 105.28 998.502 103.2C998.682 101.12 998.902 98.7866 999.162 96.1999C999.422 93.5799 999.722 90.7666 1000.06 87.7599C1000.4 84.7533 1000.77 81.7533 1001.15 78.7599C1001.54 75.7533 1001.97 72.8366 1002.43 70.0099C1002.9 67.1833 1003.39 64.6399 1003.91 62.3799C1004.32 60.4684 1004.9 58.5951 1005.62 56.7799C1005.96 55.6775 1006.65 54.7115 1007.57 54.0199C1010.79 52.5666 1014.15 51.1399 1017.65 49.7399C1020.99 48.3849 1024.46 47.3796 1028 46.7399C1031.19 46.1457 1034.45 46.0916 1037.65 46.5799C1040.68 47.0645 1043.48 48.4962 1045.65 50.6699C1047.47 52.6444 1049.12 54.7649 1050.59 57.0099C1052.19 59.5635 1053.36 62.3647 1054.05 65.2999C1054.72 68.7733 1054.46 71.6266 1053.27 73.8599C1051.11 77.8262 1048.02 81.2144 1044.27 83.7399C1039.57 87.0455 1034.54 89.8634 1029.27 92.1499C1030.47 93.4833 1031.78 94.9099 1033.2 96.4299C1034.63 97.9499 1036.1 99.4533 1037.6 100.94C1039.11 102.447 1040.6 103.9 1042.07 105.3C1043.55 106.7 1044.93 107.92 1046.23 108.96C1047.27 109.84 1047.74 110.54 1047.63 111.06C1047.4 111.744 1046.93 112.323 1046.31 112.69C1045.63 113.286 1044.82 113.723 1043.94 113.97C1043.28 114.097 1042.49 114.24 1041.57 114.4C1040.34 114.716 1039.06 114.808 1037.8 114.67C1036.09 114.417 1034.46 113.793 1033.01 112.84C1031.82 112.013 1030.45 110.977 1028.89 109.73C1027.34 108.483 1025.73 107.11 1024.06 105.61C1022.4 104.103 1020.74 102.533 1019.06 100.9C1017.47 99.338 1015.96 97.6888 1014.55 95.9599C1013.82 99.0666 1013.16 102.08 1012.56 105ZM1020.46 72.7799C1019.68 75.7866 1018.8 79.0033 1017.81 82.4299C1021.15 81.3467 1024.35 79.8696 1027.34 78.0299C1029.85 76.5086 1032.19 74.7361 1034.34 72.7399C1035.94 71.267 1037.29 69.5447 1038.34 67.6399C1039.17 66.0333 1039.43 64.7866 1039.12 63.8999C1038.5 62.4466 1036.66 61.7199 1033.59 61.7199C1031.91 61.7355 1030.24 61.9164 1028.59 62.2599C1026.59 62.679 1024.66 63.3511 1022.83 64.2599C1022.03 66.9199 1021.24 69.7533 1020.46 72.7599V72.7799Z" fill="white"/>
<path d="M1064.74 96.3419C1064.41 95.3406 1064.33 94.2715 1064.51 93.2319C1064.61 90.7213 1065.29 88.2684 1066.51 86.0719C1067.67 84.0372 1069.11 82.1756 1070.79 80.5419C1072.43 78.9511 1074.21 77.5181 1076.12 76.2619L1081.22 72.9119C1085.11 70.5786 1087.76 68.3719 1089.16 66.2919C1090.56 64.2119 1091.16 62.4219 1090.95 60.9219C1090.91 60.4758 1090.78 60.0439 1090.55 59.6592C1090.32 59.2745 1090 58.947 1089.63 58.7019C1088.93 58.2698 1088.12 58.0412 1087.3 58.0419C1086.08 58.0496 1084.87 58.3154 1083.76 58.8219C1082.53 59.3796 1081.36 60.0491 1080.26 60.8219C1079.09 61.6286 1077.9 62.5352 1076.68 63.5419C1075.46 64.5486 1074.23 65.5486 1072.98 66.5419C1071.04 68.0945 1068.65 68.9816 1066.17 69.0719C1063.43 69.2577 1060.69 68.7916 1058.17 67.7119C1057.56 67.4813 1056.99 67.1426 1056.5 66.7119C1056.07 66.3367 1055.76 65.8318 1055.64 65.2719C1055.53 64.5474 1055.62 63.8058 1055.91 63.1319C1056.36 62.02 1056.93 60.9631 1057.62 59.9819C1060.04 56.2246 1063.11 52.9296 1066.69 50.2519C1070.01 47.7689 1073.86 46.0914 1077.94 45.3519C1080.24 44.8917 1082.6 44.7871 1084.94 45.0419C1087.06 45.276 1089.15 45.8009 1091.13 46.6019C1094.58 48.0008 1097.6 50.2843 1099.88 53.2219C1101.73 55.3642 1103.14 57.8475 1104.04 60.5319C1104.72 62.6547 1104.96 64.8938 1104.74 67.1119C1104.53 69.0929 1103.92 71.0109 1102.95 72.7519C1102.07 74.3479 1101.02 75.8377 1099.8 77.1919C1098.67 78.4406 1097.39 79.5516 1096 80.5019C1094.57 81.4619 1093.09 82.3952 1091.56 83.3019C1090.03 84.2086 1088.51 85.1319 1087 86.0719C1085.51 86.9941 1084.12 88.0628 1082.84 89.2619C1081.55 90.4784 1080.45 91.8805 1079.57 93.4219C1078.61 95.1688 1077.99 97.0828 1077.74 99.0619C1077.79 100.049 1077.46 100.659 1076.74 100.892C1075.86 101.117 1074.94 101.117 1074.06 100.892C1072.83 100.644 1071.64 100.279 1070.48 99.8019C1069.18 99.2819 1067.99 98.7886 1066.9 98.3219C1065.99 97.9125 1065.23 97.2179 1064.74 96.3419ZM1061.43 106.262C1062.01 105.378 1062.8 104.656 1063.73 104.162C1064.82 103.577 1066.03 103.236 1067.27 103.162C1068.81 103.076 1070.35 103.259 1071.82 103.702C1072.89 103.994 1073.93 104.424 1074.89 104.982C1075.61 105.405 1076.26 105.946 1076.8 106.582C1077.25 107.094 1077.58 107.689 1077.8 108.332C1077.98 108.925 1078.07 109.542 1078.07 110.162V111.332C1078.1 111.65 1078.04 111.971 1077.91 112.262C1077.42 113.805 1076.34 115.093 1074.91 115.842C1072.97 116.828 1070.75 117.131 1068.61 116.702C1067.51 116.555 1066.43 116.294 1065.38 115.922C1064.41 115.583 1063.51 115.068 1062.73 114.402C1061.99 113.774 1061.41 112.988 1061.02 112.102C1060.62 111.118 1060.47 110.048 1060.59 108.992C1060.63 108.025 1060.92 107.084 1061.43 106.262Z" fill="white"/>
<path d="M177.41 66.3608C177.681 67.4954 177.708 68.6748 177.49 69.8208C177.195 72.4238 176.346 74.9334 175 77.1808C173.742 79.2321 172.212 81.1026 170.45 82.7408C168.772 84.3041 166.947 85.7007 165 86.9108L160 90.0008C158.427 90.9179 156.929 91.9578 155.52 93.1108C154.503 93.9435 153.577 94.8821 152.759 95.9108C152.161 96.6531 151.701 97.4964 151.399 98.4008C151.176 99.077 151.111 99.7955 151.21 100.501C151.301 100.887 151.469 101.251 151.702 101.572C151.936 101.893 152.23 102.165 152.57 102.371C153.198 102.727 153.908 102.913 154.63 102.911C155.736 102.909 156.831 102.699 157.86 102.291C158.989 101.843 160.071 101.283 161.09 100.621C162.176 99.9208 163.266 99.1541 164.36 98.3208C165.453 97.4875 166.593 96.6308 167.78 95.7508C169.688 94.3674 171.964 93.5809 174.32 93.4908C176.846 93.3351 179.375 93.7628 181.71 94.7408C182.253 94.956 182.765 95.2454 183.229 95.6008C183.416 95.7441 183.568 95.927 183.675 96.1362C183.783 96.3454 183.842 96.5758 183.85 96.8108C183.839 97.453 183.667 98.0822 183.35 98.6408C182.83 99.5928 182.202 100.482 181.479 101.291C179.105 104.307 176.238 106.9 173 108.961C169.955 110.879 166.553 112.162 163 112.731C161.02 113.086 159 113.163 157 112.961C155.142 112.772 153.313 112.366 151.55 111.751C149.95 111.195 148.422 110.45 147 109.531C145.754 108.734 144.607 107.794 143.58 106.731C141.75 105.006 140.27 102.945 139.22 100.661C138.43 98.9016 138.044 96.9883 138.09 95.0608C138.156 93.3494 138.567 91.6691 139.3 90.1208C139.979 88.6336 140.861 87.2473 141.92 86.0008C142.983 84.785 144.2 83.7126 145.539 82.8108C146.913 81.8775 148.353 80.9575 149.86 80.0508C151.366 79.1441 152.869 78.1975 154.369 77.2108C155.869 76.227 157.263 75.091 158.53 73.8208C159.837 72.5025 160.939 70.9958 161.8 69.3508C162.769 67.4476 163.414 65.3962 163.71 63.2808C163.603 62.1408 163.936 61.4275 164.71 61.1408C165.663 60.8636 166.676 60.8636 167.63 61.1408C168.933 61.4473 170.208 61.8655 171.44 62.3908C172.813 62.9641 174.046 63.5341 175.14 64.1008C176.141 64.5593 176.947 65.3609 177.41 66.3608ZM181.88 54.7308C181.17 55.7783 180.225 56.6449 179.119 57.2608C177.907 57.932 176.569 58.3441 175.19 58.4708C173.544 58.6064 171.888 58.3952 170.33 57.8508C169.123 57.4738 167.972 56.9356 166.91 56.2508C166.11 55.7316 165.412 55.0708 164.85 54.3008C164.381 53.6441 164.042 52.9043 163.85 52.1208C163.668 51.3677 163.577 50.5955 163.58 49.8208V48.3408C163.564 47.9225 163.591 47.5037 163.66 47.0908C163.932 46.1448 164.387 45.2614 165 44.4908C165.652 43.6608 166.457 42.9618 167.369 42.4308C168.378 41.8419 169.487 41.4452 170.64 41.2608C171.995 41.0537 173.374 41.0537 174.729 41.2608C175.994 41.4044 177.228 41.7417 178.39 42.2608C179.471 42.7322 180.45 43.4118 181.27 44.2608C182.061 45.117 182.646 46.1433 182.979 47.2608C183.348 48.5611 183.427 49.9267 183.21 51.2608C183.054 52.5081 182.597 53.6989 181.88 54.7308Z" fill="#FFA600"/>
<path d="M210.368 109C206.915 109.666 203.635 110.303 200.528 110.91C199.588 111.182 198.624 111.363 197.648 111.45C196.979 111.504 196.306 111.464 195.648 111.33C195.148 111.224 194.664 111.052 194.208 110.82C193.817 110.611 193.439 110.377 193.078 110.12C192.242 109.583 191.438 108.998 190.668 108.37C189.942 107.77 188.982 107.003 187.788 106.07C186.962 105.398 186.281 104.564 185.788 103.62C185.304 102.587 185.168 101.426 185.398 100.31C185.552 98.3095 185.812 95.9095 186.178 93.1095C186.545 90.3095 186.985 87.3095 187.498 84.1095C188.018 80.8962 188.588 77.5628 189.208 74.1095C189.828 70.6562 190.495 67.2195 191.208 63.7995C191.935 60.3728 192.675 57.0795 193.428 53.9195C194.182 50.7595 194.922 47.8528 195.648 45.1995C196.168 43.6928 196.835 42.7995 197.648 42.5195C198.855 42.253 200.114 42.3469 201.268 42.7895C203.041 43.2605 204.781 43.8451 206.478 44.5395C208.194 45.2138 209.835 46.0615 211.378 47.0695C212.409 47.7191 213.275 48.5988 213.908 49.6395C214.237 50.6634 214.169 51.7733 213.718 52.7495C212.678 55.8628 211.628 59.2862 210.568 63.0195C209.508 66.7528 208.445 70.5928 207.378 74.5395C206.312 78.4862 205.312 82.4162 204.378 86.3295C203.445 90.2428 202.548 93.9928 201.688 97.5795C204.075 97.1662 206.305 96.8562 208.378 96.6495C210.452 96.4428 212.708 96.2628 215.148 96.1095C216.259 95.9725 217.385 96.0644 218.458 96.3795C219.334 96.7764 220.057 97.4467 220.518 98.2895C221.12 99.1821 221.63 100.134 222.038 101.13C222.408 102.025 222.709 102.948 222.938 103.89C223.266 104.567 223.361 105.333 223.208 106.07C223.028 106.43 222.135 106.763 220.528 107.07L210.368 109Z" fill="#FFA600"/>
<path d="M254.799 51.0712C255.079 52.1225 255.037 53.2339 254.679 54.2612C253.952 56.5945 253.162 59.2612 252.309 62.2612C251.455 65.2612 250.599 68.4378 249.739 71.7912C248.885 75.1245 248.042 78.5478 247.209 82.0612C246.375 85.5745 245.572 89.0045 244.799 92.3512C244.019 95.6845 243.305 98.8478 242.659 101.841C242.012 104.834 241.455 107.501 240.989 109.841C240.872 110.513 240.517 111.12 239.989 111.551C239.107 111.817 238.163 111.789 237.299 111.471C235.965 111.111 234.682 110.748 233.449 110.381C232.253 110.028 231.094 109.559 229.989 108.981C229.004 108.587 228.172 107.886 227.619 106.981C227.198 105.988 227.076 104.893 227.269 103.831C227.375 102.018 227.595 99.6845 227.929 96.8312C228.262 93.9778 228.679 90.8245 229.179 87.3712C229.672 83.9445 230.229 80.3378 230.849 76.5512C231.469 72.7645 232.105 69.0545 232.759 65.4212C233.425 61.7878 234.092 58.3512 234.759 55.1112C235.425 51.8712 236.049 49.0312 236.629 46.5912C237.095 45.0845 237.732 44.1645 238.539 43.8312C239.734 43.5018 241.004 43.5685 242.159 44.0212C243.943 44.5015 245.686 45.1269 247.369 45.8912C249.074 46.6351 250.713 47.5215 252.269 48.5412C253.32 49.1466 254.193 50.0195 254.799 51.0712Z" fill="#FFA600"/>
<path d="M252.82 93.7116C253.849 93.5553 254.891 93.5018 255.93 93.5516C256.947 93.601 257.954 93.7722 258.93 94.0616C259.856 94.3317 260.736 94.7396 261.54 95.2716C265.078 97.6291 268.966 99.4144 273.06 100.562C276.327 101.342 278.687 101.135 280.14 99.9416C280.281 99.8844 280.408 99.7957 280.509 99.6822C280.611 99.5688 280.686 99.4335 280.727 99.2869C280.769 99.1402 280.776 98.986 280.749 98.836C280.722 98.6861 280.66 98.5443 280.57 98.4216C280.047 97.6251 279.387 96.9276 278.62 96.3616C277.66 95.5816 276.467 94.7249 275.04 93.7916C273.613 92.8583 272.097 91.8983 270.49 90.9116C268.883 89.925 267.273 88.9016 265.66 87.8416C264.146 86.8495 262.69 85.771 261.3 84.6116C259.851 83.4746 258.557 82.1534 257.45 80.6816C256.345 79.225 255.465 77.6102 254.84 75.8916C254.214 74.1411 253.876 72.3004 253.84 70.4416C253.809 68.3806 254.123 66.3289 254.77 64.3716C255.313 62.3114 256.109 60.3263 257.14 58.4616C258.297 56.3495 259.635 54.3419 261.14 52.4616C262.662 50.5077 264.341 48.6817 266.16 47.0016C267.903 45.3907 269.791 43.9445 271.8 42.6816C272.551 42.1415 273.359 41.6854 274.21 41.3216C275.279 40.8467 276.405 40.5106 277.56 40.3216C278.883 40.1144 280.224 40.0507 281.56 40.1316C283.091 40.2246 284.605 40.4999 286.07 40.9516C288.474 41.8205 290.814 42.8598 293.07 44.0616C295.228 45.1411 297.244 46.4848 299.07 48.0616C300.012 48.9416 300.824 49.9518 301.48 51.0616C302.016 51.9604 302.423 52.9298 302.69 53.9416C302.919 54.8449 303.05 55.7702 303.08 56.7016C303.08 57.6083 303.08 58.4516 303.08 59.2316C302.873 60.5649 302.587 62.0949 302.22 63.8216C301.853 65.5483 301.447 67.2749 301 69.0016C300.507 70.7683 299.987 72.4549 299.44 74.0616C298.985 75.4352 298.427 76.7723 297.77 78.0616C297.349 78.9055 296.684 79.6026 295.86 80.0616C295.369 80.1855 294.858 80.2113 294.357 80.1375C293.856 80.0638 293.375 79.8918 292.94 79.6316C285.833 77.2449 282.563 73.8216 283.13 69.3616C283.258 68.2874 283.451 67.222 283.71 66.1716C283.997 64.9783 284.283 63.7716 284.57 62.5516C284.857 61.3316 285.103 60.1783 285.31 59.0916C285.504 58.236 285.571 57.3567 285.51 56.4816C285.43 55.8316 285.17 55.4816 284.73 55.3116C284.29 55.1416 283.57 55.4816 282.59 56.2016C281.533 56.7938 280.553 57.5124 279.67 58.3416C278.579 59.3448 277.576 60.4388 276.67 61.6116C275.704 62.8386 274.857 64.1545 274.14 65.5416C273.437 66.8727 272.938 68.302 272.66 69.7816C272.4 71.1724 272.427 72.6017 272.74 73.9816C273.088 75.4209 273.878 76.715 275 77.6816C276.567 79.1833 278.26 80.5482 280.06 81.7616C281.927 83.0349 283.78 84.2683 285.62 85.4616C287.46 86.6549 289.197 87.8349 290.83 89.0016C292.296 90.0373 293.639 91.2386 294.83 92.5816C295.817 93.6716 296.505 94.9977 296.83 96.4316C297.088 97.9363 296.797 99.4835 296.01 100.792C295.395 102.037 294.666 103.222 293.83 104.332C292.785 105.708 291.522 106.904 290.09 107.872C288.341 109.053 286.427 109.97 284.41 110.592C281.815 111.373 279.12 111.767 276.41 111.762C272.211 111.865 268.036 111.095 264.15 109.502C259.635 107.513 255.518 104.721 252 101.262C249.72 99.3416 248.527 97.8616 248.42 96.8216C248.373 96.3328 248.494 95.8425 248.763 95.4317C249.032 95.0209 249.433 94.714 249.9 94.5616C250.831 94.1491 251.813 93.8633 252.82 93.7116Z" fill="#FFA600"/>
<path d="M346.442 56.3181L339.052 57.0581L335.662 70.5981C334.495 75.2648 333.368 79.8948 332.282 84.4881C331.195 89.0815 330.172 93.5548 329.212 97.9081C328.252 102.268 327.408 106.341 326.682 110.128C326.673 110.408 326.603 110.683 326.474 110.932C326.346 111.181 326.164 111.398 325.942 111.568C325.449 111.823 324.894 111.931 324.342 111.878C323.55 111.83 322.768 111.685 322.012 111.448L319.012 110.588C317.994 110.312 316.992 109.978 316.012 109.588C315.204 109.273 314.454 108.827 313.792 108.268C313.216 107.777 312.775 107.147 312.512 106.438C312.246 105.619 312.218 104.742 312.432 103.908C312.585 101.415 312.895 98.3548 313.362 94.7281C313.828 91.1015 314.385 87.2615 315.032 83.2081C315.698 79.1615 316.412 75.0748 317.172 70.9481C317.932 66.8215 318.708 62.9948 319.502 59.4681C317.995 59.7281 316.542 59.9481 315.142 60.1281C313.961 60.2679 312.792 60.4884 311.642 60.7881C310.605 61.0944 309.508 61.1356 308.452 60.9081C307.362 60.4938 306.397 59.8048 305.652 58.9081C304.461 57.684 303.451 56.2968 302.652 54.7881C301.745 53.1281 301.005 51.7281 300.432 50.5881C299.858 49.4481 299.702 48.6581 299.962 48.2181C300.497 47.6981 301.176 47.3499 301.912 47.2181C304.972 46.5981 308.435 46.0281 312.302 45.5081C316.168 44.9881 320.112 44.5215 324.132 44.1081C328.132 43.6948 332.075 43.3448 335.962 43.0581C339.848 42.7715 343.312 42.5781 346.352 42.4781C347.521 42.4178 348.692 42.5633 349.812 42.9081C350.54 43.2151 351.172 43.7125 351.642 44.3481C352.668 45.5244 353.532 46.8327 354.212 48.2381C354.858 49.5638 355.38 50.9464 355.772 52.3681C356.079 53.1559 356.079 54.0304 355.772 54.8181C355.485 55.2581 354.538 55.5315 352.932 55.6381L346.442 56.3181Z" fill="#FFA600"/>
<path d="M401.178 53.9103C402.137 55.8396 402.811 57.8977 403.178 60.0203C403.759 64.1037 403.89 68.2384 403.568 72.3503C403.252 76.8261 402.485 81.2585 401.278 85.5803C400.082 89.8914 398.405 94.0542 396.278 97.9903C394.306 101.717 391.685 105.063 388.538 107.87C386.616 109.404 384.385 110.506 381.998 111.1C379.417 111.66 376.759 111.778 374.138 111.45C372.099 111.223 370.073 110.889 368.068 110.45C366.094 110.041 364.184 109.368 362.388 108.45C360.914 107.675 359.532 106.735 358.268 105.65C356.967 104.568 355.885 103.248 355.078 101.76C353.775 99.2061 352.833 96.4835 352.278 93.6703C351.645 90.5481 351.356 87.3656 351.418 84.1803C351.562 77.2371 353.039 70.3861 355.768 64.0003C357.168 60.7309 358.9 57.6144 360.938 54.7003C362.976 51.7825 365.367 49.1288 368.058 46.8003C370.004 45.3356 372.21 44.2531 374.558 43.6103C376.889 42.8996 379.348 42.7152 381.758 43.0703C384.636 43.5183 387.463 44.2485 390.198 45.2503C392.59 46.0852 394.835 47.2935 396.848 48.8303C398.63 50.2034 400.105 51.9337 401.178 53.9103ZM380.668 57.9103C379.12 59.4559 377.776 61.1934 376.668 63.0803C375.24 65.4143 373.98 67.8471 372.898 70.3603C371.766 72.8921 370.797 75.4941 369.998 78.1503C369.262 80.631 368.74 83.1703 368.438 85.7403C368.135 88.1677 368.032 90.6159 368.128 93.0603C368.178 95.0396 368.546 96.9981 369.218 98.8603C369.403 99.5395 369.746 100.165 370.218 100.687C370.691 101.208 371.28 101.61 371.938 101.86C372.523 102.03 373.139 102.054 373.735 101.933C374.331 101.811 374.888 101.546 375.358 101.16C376.764 100.108 377.975 98.8184 378.938 97.3503C380.291 95.3571 381.434 93.229 382.348 91.0003C383.462 88.3325 384.384 85.5889 385.108 82.7903C385.824 80.1446 386.368 77.4557 386.738 74.7403C387.137 72.0215 387.344 69.2781 387.358 66.5303C387.398 64.291 387.15 62.056 386.618 59.8803C386.125 58.0403 385.358 56.9636 384.318 56.6503C383.278 56.337 382.065 56.787 380.678 58.0003L380.668 57.9103Z" fill="#FFA600"/>
<path d="M449.511 102.12C448.964 104.873 448.484 107.57 448.071 110.21C447.926 110.871 447.537 111.454 446.981 111.84C446.095 112.113 445.147 112.113 444.261 111.84L440.331 110.79C439.154 110.49 438.019 110.046 436.951 109.47C436.039 108.996 435.272 108.284 434.731 107.41C434.219 106.397 434.122 105.223 434.461 104.14C435.099 102.088 435.528 99.9777 435.741 97.8399C436.128 94.8799 436.478 91.5199 436.791 87.7599C437.104 83.9999 437.414 80.0799 437.721 75.9999C438.034 71.9532 438.344 68.2165 438.651 64.7899C438.958 61.3632 439.308 58.4965 439.701 56.1899C440.088 53.8832 440.541 52.5999 441.061 52.3399C443.061 51.2999 445.241 50.2232 447.601 49.1099C449.961 47.9965 452.424 46.9965 454.991 46.1099C457.502 45.2104 460.063 44.4558 462.661 43.8499C465.096 43.2616 467.586 42.9264 470.091 42.8499C472.336 42.7821 474.579 43.0586 476.741 43.6699C478.743 44.2399 480.573 45.2943 482.071 46.7399C483.847 48.7292 485.471 50.8484 486.931 53.0799C488.534 55.6334 489.703 58.4346 490.391 61.3699C491.088 64.2151 490.77 67.2144 489.491 69.8499C488.875 71.1245 488.117 72.3254 487.231 73.4299C486.295 74.6027 485.294 75.7211 484.231 76.7799C482.297 78.7189 480.18 80.467 477.911 81.9999C475.331 83.7289 472.642 85.2889 469.861 86.6699C466.891 88.1508 463.839 89.4629 460.721 90.5999C457.528 91.7665 454.374 92.7665 451.261 93.5999C450.641 96.5332 450.058 99.3732 449.511 102.12ZM464.261 74.6899C466.708 73.226 468.971 71.4735 471.001 69.4699C472.55 67.9829 473.817 66.228 474.741 64.2899C475.433 63.0028 475.601 61.4981 475.211 60.0899C475.058 59.4699 474.501 58.9899 473.541 58.6499C472.357 58.284 471.117 58.1382 469.881 58.2199C468.196 58.2978 466.522 58.5321 464.881 58.9199C462.947 59.3669 461.059 59.993 459.241 60.7899C458.414 63.5965 457.634 66.5032 456.901 69.5099C456.168 72.5165 455.401 75.6565 454.601 78.9299C457.985 77.9241 461.23 76.4997 464.261 74.6899Z" fill="#FFA600"/>
<path d="M512.779 97.1787C509.334 97.6468 505.918 98.3146 502.549 99.1787C501.509 101.179 500.603 103.059 499.829 104.819C499.056 106.579 498.303 108.279 497.569 109.919C497.446 110.274 497.246 110.599 496.984 110.868C496.721 111.138 496.402 111.346 496.049 111.479C495.134 111.6 494.203 111.465 493.359 111.089C492.689 110.829 491.949 110.529 491.139 110.189C490.329 109.849 489.519 109.479 488.689 109.059C488.069 108.645 487.526 108.295 487.059 108.009C486.592 107.744 486.204 107.358 485.937 106.892C485.669 106.425 485.532 105.896 485.539 105.359C485.55 104.472 485.695 103.592 485.969 102.749C487.216 99.1687 488.836 94.9654 490.829 90.1387C492.823 85.312 494.976 80.332 497.289 75.1987C499.596 70.0587 501.956 64.9887 504.369 59.9887C506.783 54.9887 509.079 50.5387 511.259 46.6387C511.989 45.2874 513.015 44.1183 514.259 43.2187C515.506 42.3387 517.349 42.0054 519.789 42.2187C521.916 42.3254 523.809 42.4954 525.469 42.7287C527.129 42.962 528.646 43.2354 530.019 43.5487C531.393 43.862 532.663 44.1954 533.829 44.5487C534.996 44.902 536.176 45.2354 537.369 45.5487C538.651 45.867 539.755 46.6795 540.439 47.8087C540.91 48.9676 541.058 50.2322 540.869 51.4687C540.556 55.1554 540.296 59.382 540.089 64.1487C539.883 68.9154 539.726 73.8954 539.619 79.0887C539.513 84.2754 539.449 89.4754 539.429 94.6887C539.409 99.902 539.409 104.739 539.429 109.199C539.468 109.546 539.437 109.898 539.337 110.233C539.238 110.567 539.072 110.879 538.849 111.149C538.062 111.61 537.145 111.8 536.239 111.689C534.906 111.689 533.659 111.649 532.499 111.569C531.305 111.479 530.128 111.23 528.999 110.829C528.016 110.614 527.112 110.129 526.389 109.429C525.797 108.535 525.452 107.499 525.389 106.429C525.183 104.922 525.003 103.275 524.849 101.489C524.696 99.702 524.539 97.7454 524.379 95.6187C520.513 96.112 516.646 96.632 512.779 97.1787ZM516.589 83.7587C518.949 83.4987 521.323 83.292 523.709 83.1387C523.603 78.8854 523.526 74.6454 523.479 70.4187C523.433 66.192 523.459 62.002 523.559 57.8487C521.486 61.6354 519.243 65.8254 516.829 70.4187C514.416 75.012 511.989 79.772 509.549 84.6987C511.883 84.3254 514.229 84.0087 516.589 83.7487V83.7587Z" fill="#FFA600"/>
<path d="M559.941 101.192C559.341 104.098 558.757 106.952 558.191 109.752C558.048 110.403 557.675 110.982 557.141 111.382C556.347 111.654 555.485 111.654 554.691 111.382C553.291 111.015 552.044 110.728 550.951 110.522C549.866 110.315 548.817 109.948 547.841 109.432C546.974 108.972 546.275 108.251 545.841 107.372C545.447 106.343 545.313 105.234 545.451 104.142C545.557 103.055 545.701 101.472 545.881 99.3916C546.061 97.3116 546.281 94.9783 546.541 92.3916C546.801 89.7716 547.101 86.9583 547.441 83.9516C547.781 80.945 548.144 77.945 548.531 74.9516C548.917 71.945 549.344 69.0283 549.811 66.2016C550.277 63.375 550.771 60.8316 551.291 58.5716C551.698 56.6364 552.27 54.7395 553.001 52.9016C553.344 51.7992 554.026 50.8332 554.951 50.1416C558.144 48.715 561.494 47.285 565.001 45.8516C568.338 44.4966 571.806 43.4913 575.351 42.8516C578.536 42.2607 581.798 42.21 585.001 42.7016C588.032 43.1862 590.833 44.6179 593.001 46.7916C594.818 48.7661 596.47 50.8866 597.941 53.1316C599.543 55.6852 600.713 58.4864 601.401 61.4216C602.067 64.895 601.807 67.7483 600.621 69.9816C598.455 73.9479 595.368 77.3361 591.621 79.8616C586.919 83.1672 581.893 85.9851 576.621 88.2716C577.814 89.605 579.124 91.0316 580.551 92.5516C581.977 94.0716 583.444 95.575 584.951 97.0616C586.457 98.5683 587.947 100.022 589.421 101.422C590.894 102.822 592.281 104.042 593.581 105.082C594.621 105.962 595.087 106.662 594.981 107.182C594.751 107.866 594.283 108.445 593.661 108.812C592.975 109.408 592.165 109.845 591.291 110.092C590.624 110.218 589.834 110.362 588.921 110.522C587.691 110.838 586.413 110.93 585.151 110.792C583.44 110.539 581.804 109.914 580.361 108.962C579.167 108.135 577.794 107.098 576.241 105.852C574.687 104.605 573.077 103.232 571.411 101.732C569.751 100.225 568.084 98.655 566.411 97.0216C564.817 95.4597 563.312 93.8105 561.901 92.0816C561.187 95.2483 560.534 98.285 559.941 101.192ZM567.841 69.0016C567.061 72.0083 566.177 75.225 565.191 78.6516C568.531 77.5684 571.73 76.0913 574.721 74.2516C577.227 72.7303 579.573 70.9578 581.721 68.9616C583.321 67.4887 584.671 65.7664 585.721 63.8616C586.547 62.255 586.807 61.0083 586.501 60.1216C585.881 58.6683 584.037 57.9416 580.971 57.9416C579.29 57.9572 577.616 58.1381 575.971 58.4816C573.974 58.9007 572.038 59.5728 570.211 60.4816C569.404 63.1283 568.614 65.9683 567.841 69.0016Z" fill="#FFA600"/>
<path d="M625.229 97.1792C621.783 97.6473 618.367 98.3151 614.999 99.1792C613.959 101.179 613.052 103.059 612.279 104.819C611.506 106.579 610.746 108.272 609.999 109.899C609.876 110.255 609.676 110.579 609.413 110.849C609.151 111.119 608.832 111.327 608.479 111.459C607.564 111.58 606.632 111.445 605.789 111.069C605.119 110.809 604.379 110.509 603.569 110.169C602.759 109.829 601.949 109.459 601.119 109.039C600.499 108.626 599.956 108.276 599.489 107.989C599.022 107.724 598.634 107.338 598.366 106.872C598.099 106.406 597.962 105.877 597.969 105.339C597.979 104.452 598.124 103.572 598.399 102.729C599.646 99.1492 601.266 94.9458 603.259 90.1192C605.252 85.2925 607.406 80.3125 609.719 75.1792C612.026 70.0392 614.386 64.9692 616.799 59.9692C619.212 54.9692 621.509 50.5192 623.689 46.6192C624.419 45.2678 625.444 44.0988 626.689 43.1992C627.936 42.3192 629.779 41.9858 632.219 42.1992C634.346 42.3058 636.239 42.4758 637.899 42.7092C639.559 42.9425 641.076 43.2158 642.449 43.5292C643.822 43.8425 645.092 44.1758 646.259 44.5292C647.426 44.8825 648.606 45.2158 649.799 45.5292C651.081 45.8475 652.184 46.66 652.869 47.7892C653.34 48.9481 653.488 50.2127 653.299 51.4492C652.986 55.1358 652.726 59.3625 652.519 64.1292C652.312 68.8958 652.156 73.8758 652.049 79.0692C651.942 84.2558 651.879 89.4558 651.859 94.6692C651.839 99.8825 651.839 104.719 651.859 109.179C651.898 109.526 651.867 109.878 651.767 110.213C651.667 110.548 651.501 110.86 651.279 111.129C650.492 111.591 649.575 111.78 648.669 111.669C647.336 111.669 646.089 111.629 644.929 111.549C643.735 111.459 642.558 111.21 641.429 110.809C640.446 110.595 639.542 110.11 638.819 109.409C638.227 108.515 637.881 107.48 637.819 106.409C637.612 104.902 637.432 103.256 637.279 101.469C637.126 99.6825 636.969 97.7258 636.809 95.5992C632.936 96.1058 629.076 96.6325 625.229 97.1792ZM628.999 83.7492C631.359 83.4892 633.732 83.2825 636.119 83.1292C636.012 78.8758 635.936 74.6358 635.889 70.4092C635.842 66.1825 635.879 61.9925 635.999 57.8392C633.926 61.6258 631.682 65.8158 629.269 70.4092C626.856 75.0025 624.432 79.7625 621.999 84.6892C624.332 84.3225 626.666 84.0092 628.999 83.7492Z" fill="#FFA600"/>
<path d="M733.322 75.1502C732.487 75.5432 731.55 75.6656 730.642 75.5002C727.008 74.9802 724.342 73.9169 722.642 72.3102C720.914 70.6168 719.874 68.3444 719.722 65.9302C719.621 65.4289 719.558 64.9209 719.532 64.4102C719.492 63.8776 719.492 63.3428 719.532 62.8102C719.532 62.2402 719.532 61.6902 719.452 61.1802C719.372 60.6702 719.352 60.1802 719.292 59.6202C719.085 58.6335 718.892 57.8035 718.712 57.1302C718.665 56.8468 718.543 56.5812 718.358 56.3612C718.173 56.1413 717.933 55.9751 717.662 55.8802C716.622 55.5669 715.388 55.9935 713.962 57.1602C712.279 58.612 710.811 60.2955 709.602 62.1602C707.983 64.5844 706.54 67.1208 705.282 69.7502C703.87 72.6586 702.673 75.6667 701.702 78.7502C700.819 81.2392 700.179 83.8079 699.792 86.4202C699.414 88.8273 699.27 91.2653 699.362 93.7002C699.411 95.6535 699.779 97.5857 700.452 99.4202C700.636 100.068 700.962 100.666 701.407 101.171C701.851 101.676 702.403 102.076 703.022 102.34C703.988 102.65 705.036 102.568 705.942 102.11C707.076 101.553 708.093 100.786 708.942 99.8502C710.022 98.69 710.986 97.4274 711.822 96.0802C712.794 94.5342 713.678 92.935 714.472 91.2902C711.358 91.4435 708.958 90.9002 707.272 89.6602C705.585 88.4202 704.252 86.3202 703.272 83.3602C703.163 83.1093 703.107 82.8387 703.107 82.5652C703.107 82.2917 703.163 82.0211 703.272 81.7702C703.563 81.3363 703.988 81.0096 704.482 80.8402C705.159 80.5805 705.863 80.3993 706.582 80.3002L709.382 79.8702C711.364 79.4364 713.366 79.1026 715.382 78.8702C717.455 78.6369 719.245 78.3902 720.752 78.1302C722.165 77.852 723.619 77.852 725.032 78.1302C726.207 78.4877 727.25 79.1833 728.032 80.1302C728.651 80.7997 729.235 81.5007 729.782 82.2302L731.302 84.2302C732.064 85.1333 732.538 86.2446 732.662 87.4202C732.643 88.59 732.42 89.7476 732.002 90.8402C730.346 95.0427 728.118 98.9966 725.382 102.59C723.165 105.513 720.421 107.996 717.292 109.91C715.456 110.935 713.456 111.632 711.382 111.97C709.214 112.296 707.01 112.296 704.842 111.97C700.816 111.441 696.886 110.34 693.172 108.7C691.735 107.91 690.413 106.927 689.242 105.78C688.02 104.629 687.005 103.276 686.242 101.78C684.821 99.2348 683.872 96.4533 683.442 93.5702C682.917 90.264 682.786 86.9072 683.052 83.5702C683.366 79.9603 684.019 76.3878 685.002 72.9002C685.992 69.2275 687.332 65.6579 689.002 62.2402C690.673 58.8179 692.683 55.5716 695.002 52.5502C697.228 49.6241 699.862 47.0312 702.822 44.8502C703.732 44.1359 704.743 43.5597 705.822 43.1402C706.889 42.7298 708 42.4413 709.132 42.2802C710.247 42.1078 711.373 42.0142 712.502 42.0002C713.506 41.9955 714.51 42.0724 715.502 42.2302C716.891 42.3953 718.268 42.6559 719.622 43.0102C721.006 43.3666 722.371 43.7939 723.712 44.2902C725.013 44.7636 726.277 45.3352 727.492 46.0002C728.606 46.614 729.661 47.3304 730.642 48.1402C732.246 49.3408 733.53 50.917 734.382 52.7302C735.141 54.5163 735.639 56.4023 735.862 58.3302C735.915 59.4169 735.915 60.6369 735.862 61.9902C735.808 63.3435 735.732 64.6769 735.632 65.9902C735.498 67.3235 735.342 68.6202 735.162 69.8802C734.982 71.1402 734.788 72.1769 734.582 72.9902C734.398 73.8241 733.957 74.5794 733.322 75.1502Z" fill="#FFA600"/>
<path d="M786.401 53.9103C787.36 55.8396 788.033 57.8977 788.401 60.0203C788.982 64.1037 789.112 68.2384 788.791 72.3503C788.475 76.8261 787.707 81.2585 786.501 85.5803C785.305 89.8914 783.628 94.0542 781.501 97.9903C779.529 101.717 776.908 105.063 773.761 107.87C771.838 109.404 769.608 110.506 767.221 111.1C764.64 111.66 761.982 111.778 759.361 111.45C757.322 111.223 755.296 110.889 753.291 110.45C751.317 110.041 749.406 109.368 747.611 108.45C746.137 107.675 744.755 106.735 743.491 105.65C742.19 104.568 741.107 103.248 740.301 101.76C738.998 99.2061 738.056 96.4835 737.501 93.6703C736.867 90.5481 736.579 87.3656 736.641 84.1803C736.788 77.2364 738.268 70.3855 741.001 64.0003C742.4 60.7309 744.133 57.6144 746.171 54.7003C748.208 51.7825 750.6 49.1288 753.291 46.8003C755.237 45.3356 757.442 44.2531 759.791 43.6103C762.122 42.8996 764.581 42.7152 766.991 43.0703C769.869 43.5183 772.696 44.2485 775.431 45.2503C777.823 46.0852 780.067 47.2935 782.081 48.8303C783.859 50.2044 785.33 51.9347 786.401 53.9103ZM765.891 57.9103C764.343 59.4559 762.998 61.1934 761.891 63.0803C760.463 65.4143 759.203 67.8471 758.121 70.3603C757.011 72.8773 756.062 75.4625 755.281 78.1003C754.545 80.581 754.023 83.1203 753.721 85.6903C753.418 88.1177 753.314 90.5659 753.411 93.0103C753.46 94.9896 753.829 96.9481 754.501 98.8103C754.686 99.4895 755.028 100.115 755.501 100.637C755.974 101.158 756.563 101.56 757.221 101.81C757.805 101.98 758.422 102.004 759.017 101.883C759.613 101.761 760.171 101.496 760.641 101.11C762.046 100.058 763.258 98.7684 764.221 97.3003C765.547 95.3199 766.666 93.2089 767.561 91.0003C768.674 88.3325 769.597 85.5889 770.321 82.7903C771.055 80.1293 771.616 77.4237 772.001 74.6903C772.399 71.9715 772.607 69.2281 772.621 66.4803C772.661 64.241 772.412 62.006 771.881 59.8303C771.388 57.9903 770.621 56.9136 769.581 56.6003C768.541 56.287 767.311 56.7536 765.891 58.0003V57.9103Z" fill="#FFA600"/>
<path d="M806.081 101.191C805.481 104.098 804.898 106.951 804.331 109.751C804.188 110.403 803.816 110.982 803.281 111.381C802.488 111.654 801.625 111.654 800.831 111.381C799.431 111.015 798.185 110.728 797.091 110.521C796.006 110.315 794.958 109.947 793.981 109.431C793.115 108.972 792.415 108.251 791.981 107.371C791.588 106.343 791.454 105.234 791.591 104.141C791.698 103.055 791.841 101.471 792.021 99.3913C792.201 97.3113 792.421 94.978 792.681 92.3913C792.941 89.7713 793.241 86.958 793.581 83.9513C793.921 80.9447 794.285 77.9447 794.671 74.9513C795.058 71.9447 795.485 69.028 795.951 66.2013C796.418 63.3747 796.911 60.8313 797.431 58.5713C797.843 56.6598 798.415 54.7865 799.141 52.9713C799.484 51.8689 800.167 50.9029 801.091 50.2113C804.305 48.758 807.665 47.3313 811.171 45.9313C814.508 44.5764 817.977 43.571 821.521 42.9313C824.706 42.3371 827.969 42.283 831.171 42.7713C834.203 43.2559 837.003 44.6876 839.171 46.8613C840.989 48.8358 842.641 50.9563 844.111 53.2013C845.714 55.7549 846.883 58.5561 847.571 61.4913C848.238 64.9647 847.978 67.818 846.791 70.0513C844.625 74.0176 841.539 77.4058 837.791 79.9313C833.09 83.2369 828.064 86.0548 822.791 88.3413C823.985 89.6747 825.295 91.1013 826.721 92.6213C828.148 94.1413 829.615 95.6447 831.121 97.1313C832.628 98.638 834.118 100.091 835.591 101.491C837.065 102.891 838.451 104.111 839.751 105.151C840.791 106.031 841.258 106.731 841.151 107.251C840.922 107.936 840.453 108.515 839.831 108.881C839.145 109.477 838.336 109.914 837.461 110.161C836.795 110.288 836.005 110.431 835.091 110.591C833.861 110.908 832.584 110.999 831.321 110.861C829.61 110.609 827.975 109.984 826.531 109.031C825.338 108.205 823.965 107.168 822.411 105.921C820.858 104.675 819.248 103.301 817.581 101.801C815.921 100.295 814.255 98.7247 812.581 97.0913C810.988 95.5294 809.482 93.8802 808.071 92.1513C807.358 95.2713 806.695 98.2847 806.081 101.191ZM814.001 69.0013C813.221 72.008 812.338 75.2247 811.351 78.6513C814.691 77.5681 817.891 76.091 820.881 74.2513C823.388 72.73 825.734 70.9575 827.881 68.9613C829.481 67.4884 830.832 65.7661 831.881 63.8613C832.708 62.2547 832.968 61.008 832.661 60.1213C832.041 58.668 830.198 57.9413 827.131 57.9413C825.451 57.9569 823.776 58.1378 822.131 58.4813C820.134 58.9004 818.199 59.5725 816.371 60.4813C815.558 63.128 814.768 65.968 814.001 69.0013Z" fill="#FFA600"/>
<path d="M858.771 45.5792C861.538 44.5951 864.39 43.8654 867.291 43.3992C870.338 42.9061 873.427 42.7251 876.511 42.8592C879.618 42.9838 882.687 43.5876 885.611 44.6492C888.588 45.7417 891.342 47.3646 893.741 49.4392C896.404 51.7997 898.55 54.6873 900.041 57.9192C901.51 60.7837 902.432 63.8968 902.761 67.0992C903.118 70.5183 902.922 73.9725 902.181 77.3292C901.37 80.9869 900.047 84.5118 898.251 87.7992C896.295 91.394 893.845 94.6963 890.971 97.6092C887.806 100.812 884.236 103.585 880.351 105.859C875.985 108.412 871.301 110.376 866.421 111.699C865.058 112.159 863.616 112.333 862.183 112.213C860.75 112.093 859.357 111.68 858.091 110.999C856.783 110.354 855.512 109.64 854.281 108.859C853.194 108.159 851.947 107.289 850.541 106.249C850.021 105.783 849.527 105.329 849.061 104.889C848.588 104.442 848.18 103.93 847.851 103.369C847.49 102.722 847.265 102.007 847.191 101.269C847.093 100.206 847.119 99.1358 847.271 98.0792L851.781 48.6592C854.025 47.4485 856.362 46.4186 858.771 45.5792ZM872.661 93.2892C875.37 91.0846 877.778 88.5326 879.821 85.6992C881.579 83.2584 882.992 80.5865 884.021 77.7592C884.895 75.3807 885.443 72.8948 885.651 70.3692C885.857 67.2026 885.494 64.7392 884.561 62.9792C883.485 61.0803 881.736 59.6532 879.661 58.9792C877.327 58.0992 874.474 58.2026 871.101 59.2892C869.287 66.0892 867.677 72.7959 866.271 79.4092C864.864 86.0226 863.531 92.6892 862.271 99.4092C866.013 97.8853 869.513 95.8236 872.661 93.2892Z" fill="#FFA600"/>
<path d="M918.218 46.4016C920.945 45.7816 923.798 45.2116 926.778 44.6916C929.758 44.1716 932.831 43.7183 935.998 43.3316C939.138 42.945 942.265 42.6983 945.378 42.5916C948.338 42.5383 950.231 43.6783 951.058 46.0116C951.66 47.0811 952.13 48.2193 952.458 49.4016C952.718 50.415 952.978 51.5183 953.238 52.7116C953.445 54.045 953.341 54.9516 952.928 55.4316C952.096 56.0566 951.089 56.4062 950.048 56.4316C946.935 56.7916 943.718 57.155 940.398 57.5216C937.078 57.8883 933.575 58.3283 929.888 58.8416C929.108 61.175 928.381 63.6016 927.708 66.1216C927.035 68.6416 926.271 71.2683 925.418 74.0016C926.971 73.795 928.528 73.6383 930.088 73.5316C931.648 73.425 933.315 73.3483 935.088 73.3016C936.242 73.2139 937.403 73.3462 938.508 73.6916C939.426 74.0841 940.171 74.7941 940.608 75.6916C941.184 76.6776 941.65 77.7239 941.998 78.8116C942.338 79.825 942.635 80.8483 942.888 81.8816C943.301 83.075 943.341 83.8783 943.008 84.2916C942.234 84.9039 941.3 85.2821 940.318 85.3816C937.205 85.955 934.028 86.4983 930.788 87.0116C927.548 87.525 924.421 88.095 921.408 88.7216C920.995 90.3816 920.605 91.9516 920.238 93.4316C919.871 94.9116 919.481 96.3783 919.068 97.8316C921.508 97.4183 923.841 97.085 926.068 96.8316C928.295 96.5783 930.695 96.3716 933.268 96.2116C934.404 96.0751 935.556 96.1807 936.648 96.5216C937.524 96.8982 938.249 97.5563 938.708 98.3916C939.276 99.3193 939.758 100.297 940.148 101.312C940.488 102.218 940.865 103.138 941.278 104.072C941.551 104.759 941.551 105.524 941.278 106.212C941.018 106.598 940.188 106.932 938.788 107.212C935.455 107.832 932.081 108.482 928.668 109.162C925.255 109.842 921.995 110.455 918.888 111.002C917.368 111.489 915.754 111.609 914.178 111.352C913.198 111.101 912.266 110.692 911.418 110.142C910.538 109.568 909.695 108.985 908.888 108.392C908.081 107.798 907.135 107.032 906.048 106.092C905.188 105.39 904.486 104.514 903.988 103.522C903.474 102.403 903.273 101.165 903.408 99.9416L910.798 48.1916C913.025 47.6183 915.498 47.0216 918.218 46.4016Z" fill="#FFA600"/>
<path d="M973.318 97.1787C969.873 97.6468 966.457 98.3146 963.088 99.1787C962.048 101.179 961.142 103.059 960.368 104.819C959.595 106.579 958.842 108.279 958.108 109.919C957.985 110.274 957.785 110.599 957.523 110.868C957.26 111.138 956.941 111.346 956.588 111.479C955.673 111.6 954.742 111.465 953.898 111.089C953.228 110.829 952.488 110.529 951.678 110.189C950.868 109.849 950.058 109.479 949.228 109.059C948.608 108.645 948.065 108.295 947.598 108.009C947.131 107.744 946.743 107.358 946.476 106.892C946.208 106.425 946.071 105.896 946.078 105.359C946.089 104.472 946.234 103.592 946.508 102.749C947.755 99.1687 949.375 94.9654 951.368 90.1387C953.362 85.312 955.515 80.332 957.828 75.1987C960.135 70.0587 962.495 64.9887 964.908 59.9887C967.322 54.9887 969.618 50.5387 971.798 46.6387C972.528 45.2874 973.554 44.1183 974.798 43.2187C976.045 42.3387 977.888 42.0054 980.328 42.2187C982.455 42.3254 984.348 42.4954 986.008 42.7287C987.668 42.962 989.185 43.2354 990.558 43.5487C991.932 43.862 993.202 44.1954 994.368 44.5487C995.535 44.902 996.715 45.2354 997.908 45.5487C999.196 45.8598 1000.31 46.669 1001 47.7987C1001.47 48.9576 1001.62 50.2222 1001.43 51.4587C1001.12 55.1454 1000.86 59.372 1000.65 64.1387C1000.44 68.9054 1000.29 73.8854 1000.18 79.0787C1000.07 84.2654 1000.01 89.4654 999.988 94.6787C999.968 99.892 999.968 104.729 999.988 109.189C1000.03 109.536 999.996 109.888 999.896 110.223C999.797 110.557 999.631 110.869 999.408 111.139C998.621 111.6 997.704 111.79 996.798 111.679C995.465 111.679 994.218 111.639 993.058 111.559C991.864 111.469 990.687 111.22 989.558 110.819C988.575 110.604 987.671 110.119 986.948 109.419C986.356 108.525 986.011 107.489 985.948 106.419C985.742 104.912 985.562 103.265 985.408 101.479C985.255 99.692 985.098 97.7354 984.938 95.6087C981.058 96.1087 977.185 96.632 973.318 97.1787ZM977.128 83.7587C979.488 83.4987 981.862 83.292 984.248 83.1387C984.142 78.8854 984.065 74.6454 984.018 70.4187C983.972 66.192 983.998 62.002 984.098 57.8487C982.025 61.6354 979.782 65.8254 977.368 70.4187C974.955 75.012 972.528 79.772 970.088 84.6987C972.422 84.3254 974.768 84.0087 977.128 83.7487V83.7587Z" fill="#FFA600"/>
<path d="M1020.48 101.191C1019.88 104.098 1019.3 106.951 1018.73 109.751C1018.59 110.403 1018.21 110.982 1017.68 111.381C1016.89 111.654 1016.02 111.654 1015.23 111.381C1013.83 111.015 1012.58 110.728 1011.49 110.521C1010.4 110.315 1009.36 109.947 1008.38 109.431C1007.51 108.972 1006.81 108.251 1006.38 107.371C1005.99 106.343 1005.85 105.234 1005.99 104.141C1006.1 103.055 1006.24 101.471 1006.42 99.3913C1006.6 97.3113 1006.82 94.978 1007.08 92.3913C1007.34 89.7713 1007.64 86.958 1007.98 83.9513C1008.32 80.9447 1008.68 77.9447 1009.07 74.9513C1009.46 71.9447 1009.88 69.028 1010.35 66.2013C1010.82 63.3747 1011.31 60.8313 1011.83 58.5713C1012.24 56.6598 1012.81 54.7865 1013.54 52.9713C1013.88 51.8689 1014.57 50.9029 1015.49 50.2113C1018.7 48.758 1022.06 47.3313 1025.57 45.9313C1028.91 44.5764 1032.38 43.571 1035.92 42.9313C1039.1 42.3371 1042.37 42.283 1045.57 42.7713C1048.6 43.2559 1051.4 44.6876 1053.57 46.8613C1055.39 48.8358 1057.04 50.9563 1058.51 53.2013C1060.11 55.7549 1061.28 58.5561 1061.97 61.4913C1062.64 64.9647 1062.38 67.818 1061.19 70.0513C1059.02 74.0176 1055.94 77.4058 1052.19 79.9313C1047.49 83.2369 1042.46 86.0548 1037.19 88.3413C1038.38 89.6747 1039.69 91.1013 1041.12 92.6213C1042.55 94.1413 1044.01 95.6447 1045.52 97.1313C1047.03 98.638 1048.52 100.091 1049.99 101.491C1051.46 102.891 1052.85 104.111 1054.15 105.151C1055.19 106.031 1055.66 106.731 1055.55 107.251C1055.32 107.936 1054.85 108.515 1054.23 108.881C1053.54 109.477 1052.73 109.914 1051.86 110.161C1051.19 110.288 1050.4 110.431 1049.49 110.591C1048.26 110.908 1046.98 110.999 1045.72 110.861C1044.01 110.609 1042.37 109.984 1040.93 109.031C1039.74 108.205 1038.36 107.168 1036.81 105.921C1035.26 104.675 1033.65 103.301 1031.98 101.801C1030.32 100.295 1028.65 98.7247 1026.98 97.0913C1025.39 95.5294 1023.88 93.8802 1022.47 92.1513C1021.74 95.2713 1021.07 98.2847 1020.48 101.191ZM1028.38 68.9713C1027.6 71.978 1026.72 75.1947 1025.73 78.6213C1029.07 77.5381 1032.27 76.061 1035.26 74.2213C1037.77 72.7 1040.11 70.9275 1042.26 68.9313C1043.86 67.4584 1045.21 65.7361 1046.26 63.8313C1047.09 62.2247 1047.35 60.978 1047.04 60.0913C1046.42 58.638 1044.58 57.9113 1041.51 57.9113C1039.83 57.9269 1038.15 58.1078 1036.51 58.4513C1034.51 58.8704 1032.58 59.5425 1030.75 60.4513C1029.95 63.118 1029.16 65.968 1028.38 69.0013V68.9713Z" fill="#FFA600"/>
<path d="M1072.66 92.5489C1072.33 91.5477 1072.25 90.4786 1072.43 89.4389C1072.53 86.9283 1073.21 84.4755 1074.43 82.2789C1075.59 80.2442 1077.03 78.3826 1078.71 76.7489C1080.35 75.1581 1082.13 73.7252 1084.04 72.4689L1089.14 69.1189C1093.04 66.7856 1095.68 64.5789 1097.08 62.4989C1098.48 60.4189 1099.08 58.6289 1098.87 57.1289C1098.84 56.6828 1098.7 56.2509 1098.47 55.8662C1098.24 55.4815 1097.93 55.1541 1097.55 54.9089C1096.85 54.4768 1096.04 54.2483 1095.22 54.2489C1094 54.2566 1092.79 54.5224 1091.68 55.0289C1090.46 55.5867 1089.28 56.2562 1088.18 57.0289C1087.02 57.8356 1085.82 58.7423 1084.6 59.7489C1083.38 60.7556 1082.15 61.7556 1080.9 62.7489C1078.96 64.3015 1076.57 65.1886 1074.09 65.2789C1071.36 65.4647 1068.61 64.9986 1066.09 63.9189C1065.48 63.6883 1064.91 63.3496 1064.42 62.9189C1063.99 62.5438 1063.69 62.0389 1063.56 61.4789C1063.45 60.7544 1063.54 60.0128 1063.83 59.3389C1064.28 58.2271 1064.85 57.1702 1065.54 56.1889C1067.96 52.4317 1071.03 49.1367 1074.61 46.4589C1077.93 43.9759 1081.78 42.2985 1085.86 41.5589C1088.17 41.0987 1090.53 40.9942 1092.86 41.2489C1094.99 41.483 1097.07 42.0079 1099.05 42.8089C1102.5 44.2079 1105.52 46.4913 1107.8 49.4289C1109.65 51.5713 1111.06 54.0545 1111.96 56.7389C1112.64 58.8617 1112.88 61.1008 1112.66 63.3189C1112.45 65.2999 1111.84 67.2179 1110.87 68.9589C1110 70.5549 1108.94 72.0447 1107.72 73.3989C1106.57 74.6507 1105.28 75.7618 1103.87 76.7089C1102.45 77.6689 1100.97 78.6023 1099.43 79.5089C1097.9 80.4156 1096.38 81.3356 1094.88 82.2689C1093.39 83.1912 1092 84.2598 1090.72 85.4589C1089.43 86.6754 1088.33 88.0775 1087.45 89.6189C1086.49 91.3658 1085.87 93.2799 1085.62 95.2589C1085.68 96.2456 1085.34 96.8556 1084.62 97.0889C1083.74 97.3141 1082.82 97.3141 1081.94 97.0889C1080.72 96.841 1079.52 96.476 1078.36 95.9989C1077.06 95.4789 1075.87 94.9856 1074.78 94.5189C1073.88 94.1051 1073.14 93.4148 1072.66 92.5489ZM1069.35 102.469C1069.93 101.585 1070.72 100.863 1071.65 100.369C1072.75 99.7845 1073.95 99.4434 1075.19 99.3689C1076.73 99.2833 1078.27 99.4661 1079.74 99.9089C1080.82 100.201 1081.85 100.631 1082.81 101.189C1083.53 101.612 1084.18 102.153 1084.72 102.789C1085.17 103.301 1085.51 103.896 1085.72 104.539C1085.9 105.132 1085.99 105.749 1085.99 106.369V107.539C1086.02 107.857 1085.96 108.178 1085.83 108.469C1085.35 110.012 1084.27 111.3 1082.83 112.049C1080.89 113.035 1078.67 113.338 1076.53 112.909C1075.43 112.762 1074.35 112.501 1073.3 112.129C1072.33 111.79 1071.43 111.275 1070.65 110.609C1069.92 109.981 1069.33 109.195 1068.94 108.309C1068.54 107.325 1068.39 106.255 1068.51 105.199C1068.55 104.232 1068.84 103.291 1069.35 102.469Z" fill="#FFA600"/>
</svg>
