<svg viewBox="0 0 591 165" fill="none" xmlns="http://www.w3.org/2000/svg">
<path d="M149 107.138C148.067 112.472 147.21 117.582 146.43 122.468C145.65 127.355 144.984 131.958 144.43 136.278C143.844 140.572 143.394 144.395 143.08 147.748C142.958 148.83 142.411 149.819 141.56 150.498C140.86 150.925 139.574 150.945 137.7 150.558C135.827 150.171 134.014 149.685 132.26 149.098C130.515 148.564 128.813 147.895 127.17 147.098C125.592 146.474 124.211 145.438 123.17 144.098C122.401 142.667 122.113 141.026 122.35 139.418C122.35 136.378 122.487 132.652 122.76 128.238C123.034 123.825 123.424 119.048 123.93 113.908C124.437 108.762 125.004 103.428 125.63 97.9082C126.257 92.3882 126.924 86.9282 127.63 81.5282C128.37 76.1482 129.11 71.0582 129.85 66.2582C130.59 61.4582 131.314 57.2248 132.02 53.5582C132.72 50.8915 133.72 49.2248 135.02 48.5582C136.32 47.8915 138.32 47.7548 141.02 48.1482C144.626 48.6538 148.202 49.3582 151.73 50.2582C154.657 51.0382 157.6 51.9748 160.56 53.0682C162.142 53.6174 163.64 54.3848 165.01 55.3482C166.024 56.0836 166.898 56.9947 167.59 58.0382C168.23 58.9892 168.707 60.0403 169 61.1482C169.274 62.3215 169.567 63.6548 169.88 65.1482C169.891 65.991 169.951 66.8324 170.06 67.6682C170.18 68.6415 170.414 70.3782 170.76 72.8782C171.107 75.3782 171.634 78.9282 172.34 83.5282C173.04 88.1348 174.017 94.4682 175.27 102.528C176.517 99.7215 177.98 96.6415 179.66 93.2882C181.34 89.9348 183.077 86.5015 184.87 82.9882C186.664 79.4748 188.517 75.9648 190.43 72.4582C192.344 68.9515 194.2 65.6115 196 62.4382C197.794 58.8515 199.354 55.9082 200.68 53.6082C201.746 51.6367 203.131 49.8559 204.78 48.3382C206.106 47.1827 207.767 46.4819 209.52 46.3382C211.801 46.2514 214.08 46.5697 216.25 47.2782C219.45 48.1382 222.824 49.1382 226.37 50.2782C229.931 51.4558 233.426 52.8244 236.84 54.3782C239.1 55.4715 240.524 56.7382 241.11 58.1782C241.697 59.6182 241.56 61.6182 240.7 64.1782C239.534 67.8448 238.2 72.0582 236.7 76.8182C235.2 81.5782 233.697 86.5782 232.19 91.8182C230.67 97.0448 229.15 102.348 227.63 107.728C226.11 113.108 224.667 118.258 223.3 123.178C221.967 128.092 220.737 132.615 219.61 136.748C218.484 140.882 217.614 144.298 217 146.998C216.613 148.127 215.974 149.154 215.13 149.998C214.43 150.625 213.064 150.701 211.03 150.228C209.237 149.835 207.404 149.368 205.53 148.828C203.824 148.347 202.177 147.676 200.62 146.828C199.852 146.587 199.14 146.193 198.527 145.671C197.914 145.148 197.412 144.508 197.052 143.787C196.692 143.067 196.48 142.281 196.43 141.477C196.38 140.674 196.492 139.868 196.76 139.108C197.074 136.768 197.58 133.745 198.28 130.038C198.98 126.331 199.8 122.235 200.74 117.748C201.674 113.262 202.707 108.562 203.84 103.648C204.974 98.7348 206.204 93.9748 207.53 89.3682C205.19 93.4282 202.714 97.8348 200.1 102.588C197.487 107.342 194.95 112.008 192.49 116.588C190.03 121.195 187.767 125.528 185.7 129.588C183.634 133.648 181.967 137.062 180.7 139.828C180.307 140.688 179.974 141.355 179.7 141.828C179.474 142.282 179.128 142.666 178.7 142.938C178.234 143.194 177.712 143.335 177.18 143.348C176.351 143.367 175.523 143.269 174.72 143.058C171.949 142.524 169.214 141.819 166.53 140.948C165.764 140.676 165.022 140.342 164.31 139.948C163.678 139.592 163.121 139.117 162.67 138.548C162.159 137.891 161.745 137.163 161.44 136.388C161.015 135.314 160.645 134.219 160.33 133.108C158.77 127.488 157.27 121.012 155.83 113.678C154.39 106.345 153.114 98.8615 152 91.2282C150.967 96.5348 149.967 101.838 149 107.138Z" fill="#6FD5CA"/>
<path d="M252 52.378C256.093 51.4447 260.383 50.588 264.87 49.808C269.356 49.028 273.96 48.3613 278.68 47.808C283.4 47.2213 288.1 46.8513 292.78 46.698C297.226 46.618 300.073 48.3346 301.32 51.848C302.225 53.4536 302.934 55.1626 303.43 56.938C303.816 58.458 304.206 60.1246 304.6 61.938C304.913 63.938 304.756 65.3047 304.13 66.038C303.503 66.7713 302.06 67.278 299.8 67.558C295.133 68.1046 290.296 68.6513 285.29 69.198C280.283 69.7446 275.016 70.4113 269.49 71.198C268.323 74.7113 267.23 78.358 266.21 82.138C265.19 85.918 264.06 89.878 262.82 94.018C265.16 93.7046 267.493 93.4713 269.82 93.318C272.146 93.1646 274.643 93.048 277.31 92.968C279.047 92.8334 280.795 93.0302 282.46 93.548C283.839 94.1358 284.961 95.2008 285.62 96.548C286.509 98.0044 287.237 99.5536 287.79 101.168C288.296 102.688 288.746 104.228 289.14 105.788C289.766 107.581 289.826 108.791 289.32 109.418C288.813 110.045 287.48 110.591 285.32 111.058C280.653 111.918 275.876 112.738 270.99 113.518C266.103 114.298 261.38 115.125 256.82 115.998C256.193 118.498 255.61 120.858 255.07 123.078C254.53 125.298 253.946 127.501 253.32 129.688C256.986 129.061 260.476 128.555 263.79 128.168C267.103 127.781 270.71 127.468 274.61 127.228C276.32 127.023 278.055 127.183 279.7 127.698C281.017 128.263 282.108 129.252 282.8 130.508C283.655 131.902 284.382 133.372 284.97 134.898C285.476 136.231 286.043 137.615 286.67 139.048C287.056 140.608 287.056 141.681 286.67 142.268C286.283 142.855 285.033 143.341 282.92 143.728C277.926 144.661 272.856 145.638 267.71 146.658C262.563 147.678 257.66 148.625 253 149.498C249.88 150.278 247.52 150.455 245.92 150.028C244.447 149.654 243.045 149.042 241.77 148.218C240.436 147.358 239.17 146.481 237.97 145.588C236.77 144.695 235.346 143.545 233.7 142.138C232.405 141.085 231.349 139.769 230.6 138.278C229.824 136.597 229.52 134.738 229.72 132.898L240.84 55.078C244.16 54.2113 247.88 53.3113 252 52.378Z" fill="#6FD5CA"/>
<path d="M352.997 79.9999C355.297 70.0932 357.58 60.9665 359.847 52.6199C360.474 50.3599 361.43 48.9565 362.717 48.4099C364.004 47.8632 365.897 47.9032 368.397 48.5299L371.557 49.3499C372.498 49.5869 373.418 49.9013 374.307 50.2899C375.2 50.6832 376.157 51.1499 377.177 51.6899C378.197 52.2299 379.367 52.9332 380.687 53.7999C382.947 55.2065 384.214 56.6299 384.487 58.0699C384.732 59.8239 384.551 61.6112 383.957 63.2799C382.164 69.0532 380.29 75.6065 378.337 82.9399C376.384 90.2732 374.454 97.7232 372.547 105.29C370.634 112.857 368.8 120.25 367.047 127.47C365.294 134.69 363.79 141.023 362.537 146.47C362.07 149.437 359.737 150.437 355.537 149.47C351.802 148.742 348.125 147.739 344.537 146.47C342.903 145.878 341.413 144.949 340.162 143.743C338.911 142.537 337.928 141.081 337.277 139.47C336.184 137.05 335.074 134.24 333.947 131.04C332.82 127.84 331.67 124.387 330.497 120.68C329.33 116.973 328.16 113.11 326.987 109.09C325.814 105.07 324.697 101.04 323.637 96.9999C322.777 101.84 321.9 106.677 321.007 111.51L318.437 125.38C317.617 129.787 316.877 133.883 316.217 137.67C315.557 141.457 315.03 144.753 314.637 147.56C314.581 148.065 314.416 148.552 314.154 148.987C313.891 149.422 313.538 149.795 313.117 150.08C312.417 150.433 311.05 150.337 309.017 149.79C307.144 149.323 305.25 148.837 303.337 148.33C301.377 147.803 299.505 146.994 297.777 145.93C296.34 145.317 295.133 144.268 294.327 142.93C293.69 141.437 293.469 139.799 293.687 138.19C293.847 136.083 294.1 133.083 294.447 129.19C294.794 125.297 295.26 120.87 295.847 115.91C296.434 110.957 297.1 105.65 297.847 99.9899C298.594 94.3299 299.39 88.6665 300.237 82.9999C301.097 77.3799 301.974 71.9565 302.867 66.7299C303.76 61.5032 304.637 56.8599 305.497 52.7999C306.044 50.4599 307.02 48.9965 308.427 48.4099C309.834 47.8232 311.744 47.8432 314.157 48.4699C317.044 49.3299 319.854 50.1865 322.587 51.0399C325.508 51.9736 328.361 53.1063 331.127 54.4299C333.178 55.166 334.969 56.4871 336.277 58.2299C337.482 60.3065 338.239 62.6128 338.497 64.9999C338.884 67.2665 339.39 70.1532 340.017 73.6599C340.644 77.1665 341.347 80.9699 342.127 85.0699C342.907 89.1632 343.727 93.3765 344.587 97.7099C345.447 102.043 346.304 106.197 347.157 110.17C348.717 99.9632 350.664 89.9065 352.997 79.9999Z" fill="#6FD5CA"/>
<path d="M377.057 126.737C376.287 122.629 375.916 118.456 375.947 114.277C375.968 109.465 376.282 104.66 376.887 99.8866C377.514 94.8199 378.334 89.6699 379.347 84.4366C380.36 79.2032 381.51 73.9566 382.797 68.6966C384.084 63.4299 385.417 58.2999 386.797 53.3066C387.417 51.0466 388.334 49.6799 389.547 49.2066C390.76 48.7332 392.614 48.9266 395.107 49.7866C397.426 50.4803 399.679 51.3806 401.837 52.4766C404.023 53.5955 406.116 54.8862 408.097 56.3366C412.31 59.3766 413.754 63.2766 412.427 68.0366C411.18 72.0966 409.874 76.4832 408.507 81.1966C407.14 85.9099 405.874 90.6866 404.707 95.5266C403.534 100.367 402.534 105.087 401.707 109.687C400.949 113.785 400.441 117.926 400.187 122.087C399.947 125.142 400.142 128.216 400.767 131.217C401.354 133.637 402.504 135.08 404.217 135.547C406.324 136.093 408.39 135.093 410.417 132.547C412.834 129.262 414.783 125.658 416.207 121.837C418.265 116.656 420.041 111.369 421.527 105.997C423.207 99.9966 424.767 93.8132 426.207 87.4466C427.647 81.0799 428.954 74.8199 430.127 68.6666C431.3 62.5066 432.354 57.0066 433.287 52.1666C433.44 49.8266 434.297 48.4232 435.857 47.9566C437.731 47.4944 439.696 47.5566 441.537 48.1366C444.009 48.8193 446.403 49.7612 448.677 50.9466C451.21 52.2332 453.544 53.4999 455.677 54.7466C456.581 55.3013 457.426 55.9481 458.197 56.6766C458.732 57.185 459.151 57.8022 459.427 58.4866C459.656 59.1269 459.734 59.8111 459.657 60.4866C459.553 61.3718 459.396 62.25 459.187 63.1166C456.847 74.2766 454.487 84.5166 452.107 93.8366C450.017 102.211 447.497 110.472 444.557 118.587C442.327 124.881 439.424 130.916 435.897 136.587C432.777 141.427 429.304 144.937 425.477 147.117C422.883 148.396 420.128 149.321 417.287 149.867C414.196 150.39 411.052 150.528 407.927 150.277C400.907 149.81 395.134 148.327 390.607 145.827C388.648 144.729 386.805 143.436 385.107 141.967C383.32 140.401 381.815 138.541 380.657 136.467C378.903 133.456 377.685 130.164 377.057 126.737ZM440.717 18.7366C437.477 20.6099 434.004 22.4832 430.297 24.3566C426.59 26.2299 422.767 28.0232 418.827 29.7366C414.887 31.4566 411.044 32.9766 407.297 34.2966C405.614 35.0021 403.748 35.1459 401.977 34.7066C399.699 34.1355 397.511 33.2503 395.477 32.0766C395.557 32.1566 395.324 31.9799 394.777 31.5466C394.195 31.0741 393.733 30.4712 393.427 29.7866C393.072 29.0185 392.95 28.1631 393.077 27.3266C393.19 26.4332 393.91 25.5566 395.237 24.6966C398.437 23.2166 401.694 21.6566 405.007 20.0166C408.32 18.3766 411.604 16.7032 414.857 14.9966C418.09 13.2432 421.21 11.4099 424.217 9.49656C427.104 7.66791 429.898 5.69543 432.587 3.58656C433.965 2.49971 435.683 1.93636 437.437 1.99656C439.27 2.03656 441.63 2.83656 444.517 4.39656C446.003 5.09691 447.173 6.32751 447.797 7.84656C448.5 9.70553 448.934 11.6551 449.087 13.6366C446.747 15.2099 443.957 16.9266 440.717 18.7866V18.7366Z" fill="#6FD5CA"/>
<path d="M154.567 105.358C153.633 110.691 152.777 115.801 151.997 120.688C151.217 125.574 150.55 130.178 149.997 134.498C149.41 138.791 148.96 142.614 148.647 145.968C148.524 147.05 147.978 148.039 147.127 148.718C146.427 149.144 145.14 149.164 143.267 148.778C141.393 148.391 139.58 147.904 137.827 147.318C136.081 146.783 134.379 146.115 132.737 145.318C131.159 144.694 129.777 143.658 128.737 142.318C127.967 140.886 127.68 139.245 127.917 137.638C127.917 134.598 128.053 130.871 128.327 126.458C128.6 122.044 128.98 117.224 129.467 111.998C129.973 106.851 130.54 101.518 131.167 95.9978C131.793 90.4778 132.46 85.0178 133.167 79.6178C133.907 74.2378 134.647 69.1478 135.387 64.3478C136.127 59.5478 136.847 55.3144 137.547 51.6478C138.247 48.9811 139.247 47.3144 140.547 46.6478C141.847 45.9811 143.847 45.8444 146.547 46.2378C150.153 46.7432 153.728 47.4476 157.257 48.3478C160.183 49.1278 163.127 50.0644 166.087 51.1578C167.669 51.707 169.167 52.4744 170.537 53.4378C171.547 54.1738 172.417 55.0849 173.107 56.1278C173.737 57.1163 174.194 58.2053 174.457 59.3478C174.73 60.5211 175.023 61.8544 175.337 63.3478C175.347 64.1906 175.407 65.032 175.517 65.8678C175.63 66.8411 175.863 68.5778 176.217 71.0778C176.57 73.5778 177.097 77.1278 177.797 81.7278C178.497 86.3344 179.473 92.6678 180.727 100.728C181.973 97.9211 183.437 94.8411 185.117 91.4878C186.797 88.1344 188.533 84.7011 190.327 81.1878C192.12 77.6744 193.973 74.1644 195.887 70.6578C197.8 67.1511 199.653 63.8344 201.447 60.7078C203.24 57.1211 204.8 54.1778 206.127 51.8778C207.192 49.9061 208.577 48.1252 210.227 46.6078C211.553 45.4523 213.214 44.7515 214.967 44.6078C217.248 44.5208 219.526 44.8391 221.697 45.5478C224.897 46.4078 228.27 47.4078 231.817 48.5478C235.378 49.7252 238.873 51.0938 242.287 52.6478C244.547 53.7411 245.97 55.0078 246.557 56.4478C247.143 57.8878 247.007 59.8878 246.147 62.4478C244.98 66.1144 243.647 70.3278 242.147 75.0878C240.647 79.8478 239.143 84.8478 237.637 90.0878C236.117 95.3144 234.597 100.618 233.077 105.998C231.557 111.378 230.113 116.528 228.747 121.448C227.413 126.361 226.183 130.884 225.057 135.018C223.93 139.151 223.07 142.584 222.477 145.318C222.09 146.447 221.45 147.473 220.607 148.318C219.907 148.944 218.54 149.021 216.507 148.548C214.713 148.154 212.88 147.688 211.007 147.148C209.3 146.667 207.653 145.996 206.097 145.148C205.328 144.906 204.616 144.513 204.003 143.99C203.39 143.468 202.889 142.827 202.528 142.107C202.168 141.386 201.957 140.601 201.907 139.797C201.856 138.993 201.969 138.187 202.237 137.428C202.55 135.088 203.057 132.064 203.757 128.358C204.457 124.651 205.277 120.554 206.217 116.068C207.157 111.581 208.19 106.881 209.317 101.968C210.443 97.0544 211.673 92.2944 213.007 87.6878C210.667 91.7478 208.19 96.1544 205.577 100.908C202.963 105.661 200.437 110.358 197.997 114.998C195.537 119.604 193.273 123.938 191.207 127.998C189.14 132.058 187.473 135.471 186.207 138.238C185.813 139.098 185.48 139.764 185.207 140.238C184.98 140.692 184.635 141.076 184.207 141.348C183.74 141.604 183.219 141.744 182.687 141.758C181.857 141.776 181.029 141.679 180.227 141.468C177.456 140.934 174.721 140.229 172.037 139.358C171.27 139.086 170.528 138.752 169.817 138.358C169.184 138.002 168.627 137.526 168.177 136.958C167.666 136.3 167.252 135.573 166.947 134.798C166.593 133.938 166.223 132.844 165.837 131.518C164.277 125.898 162.773 119.421 161.327 112.088C159.88 104.754 158.573 97.1878 157.407 89.3878C156.467 94.7278 155.52 100.051 154.567 105.358Z" fill="white"/>
<path d="M257.488 50.5889C261.581 49.6556 265.871 48.7989 270.358 48.0189C274.844 47.2389 279.448 46.5723 284.168 46.0189C288.888 45.4323 293.588 45.0623 298.268 44.9089C302.714 44.8289 305.561 46.5456 306.808 50.0589C307.713 51.6645 308.422 53.3735 308.918 55.1489C309.304 56.6689 309.694 58.3356 310.088 60.1489C310.401 62.1489 310.244 63.5156 309.618 64.2489C308.991 64.9823 307.548 65.4889 305.288 65.7689C300.621 66.3156 295.784 66.8623 290.778 67.4089C285.771 67.9556 280.504 68.6223 274.978 69.4089C273.811 72.9223 272.718 76.5689 271.698 80.3489C270.678 84.1289 269.548 88.0889 268.308 92.2289C270.648 91.9156 272.981 91.6823 275.308 91.5289C277.634 91.3756 280.131 91.2589 282.798 91.1789C284.536 91.0443 286.283 91.2411 287.948 91.7589C289.327 92.3467 290.449 93.4117 291.108 94.7589C291.997 96.2153 292.725 97.7645 293.278 99.3789C293.784 100.899 294.234 102.439 294.628 103.999C295.254 105.792 295.314 107.002 294.808 107.629C294.301 108.256 292.968 108.802 290.808 109.269C286.141 110.129 281.364 110.949 276.478 111.729C271.591 112.509 266.891 113.366 262.378 114.299C261.751 116.799 261.168 119.159 260.628 121.379C260.088 123.599 259.504 125.802 258.878 127.989C262.544 127.362 266.034 126.856 269.348 126.469C272.661 126.082 276.268 125.769 280.168 125.529C281.879 125.324 283.613 125.484 285.258 125.999C286.576 126.564 287.667 127.553 288.358 128.809C289.214 130.203 289.94 131.672 290.528 133.199C291.034 134.532 291.601 135.916 292.228 137.349C292.614 138.909 292.614 139.982 292.228 140.569C291.841 141.156 290.578 141.632 288.438 141.999C283.444 142.932 278.374 143.909 273.228 144.929C268.081 145.949 263.168 146.886 258.488 147.739C255.368 148.519 253.008 148.696 251.408 148.269C249.935 147.895 248.534 147.283 247.258 146.459C245.924 145.599 244.658 144.722 243.458 143.829C242.258 142.936 240.834 141.786 239.188 140.379C237.894 139.326 236.837 138.01 236.088 136.519C235.313 134.838 235.009 132.979 235.208 131.139L246.328 53.3189C249.668 52.4389 253.388 51.5289 257.488 50.5889Z" fill="white"/>
<path d="M358.47 78.2064C360.77 68.2998 363.053 59.1731 365.32 50.8264C365.946 48.5664 366.903 47.1631 368.19 46.6164C369.476 46.0698 371.37 46.1098 373.87 46.7364L377.03 47.5564C377.971 47.7935 378.89 48.1079 379.78 48.4964C380.673 48.8898 381.63 49.3564 382.65 49.8964C383.67 50.4364 384.836 51.1364 386.15 51.9964C388.41 53.4031 389.676 54.8264 389.95 56.2664C390.195 58.0204 390.013 59.8077 389.42 61.4764C387.626 67.2498 385.753 73.8031 383.8 81.1364C381.846 88.4698 379.913 95.9164 378 103.476C376.086 111.043 374.253 118.436 372.5 125.656C370.746 132.876 369.243 139.21 367.99 144.656C367.523 147.623 365.19 148.623 360.99 147.656C357.254 146.928 353.577 145.925 349.99 144.656C348.356 144.064 346.865 143.135 345.614 141.929C344.364 140.723 343.381 139.267 342.73 137.656C341.636 135.236 340.526 132.426 339.4 129.226C338.273 126.026 337.123 122.573 335.95 118.866C334.783 115.16 333.613 111.296 332.44 107.276C331.266 103.256 330.173 99.2198 329.16 95.1664C328.3 100.006 327.423 104.843 326.53 109.676L324 123.546C323.18 127.953 322.44 132.05 321.78 135.836C321.12 139.623 320.593 142.92 320.2 145.726C320.144 146.231 319.979 146.718 319.716 147.153C319.454 147.589 319.1 147.961 318.68 148.246C317.98 148.6 316.613 148.503 314.58 147.956C312.706 147.49 310.813 147.003 308.9 146.496C306.94 145.969 305.067 145.161 303.34 144.096C301.903 143.484 300.696 142.434 299.89 141.096C299.253 139.603 299.031 137.965 299.25 136.356C299.41 134.25 299.663 131.25 300.01 127.356C300.356 123.463 300.823 119.036 301.41 114.076C301.996 109.123 302.663 103.816 303.41 98.1564C304.156 92.4964 304.956 86.8598 305.81 81.2464C306.603 75.6264 307.463 70.2098 308.39 64.9964C309.316 59.7831 310.186 55.1364 311 51.0564C311.546 48.7164 312.523 47.2531 313.93 46.6664C315.336 46.0798 317.246 46.0998 319.66 46.7264C322.553 47.5731 325.37 48.4298 328.11 49.2964C331.03 50.2302 333.884 51.3628 336.65 52.6864C338.701 53.4226 340.491 54.7437 341.8 56.4864C342.994 58.5556 343.743 60.8512 344 63.2264C344.386 65.4931 344.893 68.3798 345.52 71.8864C346.146 75.3931 346.85 79.1964 347.63 83.2964C348.41 87.3898 349.23 91.6031 350.09 95.9364C350.95 100.27 351.806 104.423 352.66 108.396C354.22 98.1764 356.156 88.1131 358.47 78.2064Z" fill="white"/>
<path d="M382.577 124.998C381.807 120.89 381.435 116.718 381.467 112.538C381.487 107.727 381.801 102.921 382.407 98.1483C383.033 93.0816 383.853 87.9316 384.867 82.6983C385.88 77.4649 387.03 72.2183 388.317 66.9583C389.603 61.6916 390.937 56.5616 392.317 51.5683C392.937 49.3083 393.853 47.9416 395.067 47.4683C396.28 46.9949 398.133 47.1883 400.627 48.0483C402.946 48.742 405.198 49.6423 407.357 50.7383C409.542 51.8572 411.635 53.1479 413.617 54.5983C417.87 57.6183 419.33 61.5083 417.997 66.2683C416.75 70.3283 415.443 74.7149 414.077 79.4283C412.71 84.1416 411.443 88.9183 410.277 93.7583C409.103 98.5983 408.103 103.318 407.277 107.918C406.519 112.017 406.011 116.158 405.757 120.318C405.516 123.374 405.711 126.448 406.337 129.448C406.923 131.868 408.073 133.312 409.787 133.778C411.893 134.325 413.96 133.325 415.987 130.778C418.409 127.472 420.358 123.844 421.777 119.998C423.8 114.826 425.542 109.548 426.997 104.188C428.677 98.1883 430.237 92.0049 431.677 85.6383C433.117 79.2716 434.423 73.0116 435.597 66.8583C436.77 60.6983 437.823 55.1983 438.757 50.3583C438.91 48.0183 439.767 46.6149 441.327 46.1483C443.201 45.6861 445.166 45.7483 447.007 46.3283C449.479 47.0111 451.872 47.9529 454.147 49.1383C456.68 50.4249 459.013 51.6916 461.147 52.9383C462.051 53.493 462.895 54.1398 463.667 54.8683C464.201 55.3767 464.621 55.9939 464.897 56.6783C465.125 57.3186 465.204 58.0028 465.127 58.6783C465.022 59.5635 464.865 60.4417 464.657 61.3083C462.317 72.4683 459.957 82.7083 457.577 92.0283C455.478 100.416 452.948 108.691 449.997 116.818C447.767 123.113 444.863 129.148 441.337 134.818C438.243 139.672 434.797 143.192 430.997 145.378C428.402 146.658 425.648 147.583 422.807 148.128C419.716 148.652 416.572 148.79 413.447 148.538C406.427 148.072 400.653 146.588 396.127 144.088C394.167 142.991 392.325 141.698 390.627 140.228C388.84 138.663 387.335 136.803 386.177 134.728C384.423 131.718 383.205 128.425 382.577 124.998ZM446.237 16.9983C442.997 18.8716 439.523 20.7449 435.817 22.6183C432.11 24.4916 428.29 26.2849 424.357 27.9983C420.417 29.7183 416.573 31.2383 412.827 32.5583C411.144 33.2638 409.278 33.4076 407.507 32.9683C405.229 32.3972 403.041 31.512 401.007 30.3383C401.087 30.4183 400.853 30.2416 400.307 29.8083C399.74 29.3342 399.292 28.7351 398.997 28.0583C398.642 27.2902 398.52 26.4349 398.647 25.5983C398.76 24.7049 399.48 23.8283 400.807 22.9683C404.007 21.4883 407.263 19.9283 410.577 18.2883C413.89 16.6483 417.167 14.9516 420.407 13.1983C423.64 11.4449 426.76 9.61161 429.767 7.69827C432.654 5.86962 435.447 3.89714 438.137 1.78827C439.519 0.702749 441.241 0.142853 442.997 0.208272C444.83 0.248272 447.19 1.04827 450.077 2.60827C451.562 3.30862 452.732 4.53922 453.357 6.05827C454.059 7.91724 454.494 9.86682 454.647 11.8483C452.273 13.4149 449.47 15.1316 446.237 16.9983Z" fill="white"/>
<path d="M49.3684 66.2166C41.7283 72.2777 34.4804 78.8175 27.6684 85.7966C27.5984 74.7966 27.4984 63.7966 27.0184 52.7966C26.5484 40.4366 26.0184 28.0766 24.7584 15.7266C23.5484 28.0666 22.9984 40.4266 22.4984 52.7866C22.0284 63.7866 21.9284 74.7866 21.8484 85.7866C15.0411 78.8095 7.79646 72.2729 0.158438 66.2166C6.76102 75.2529 13.971 83.8294 21.7384 91.8866C13.9632 99.943 6.74964 108.523 0.148438 117.567C7.80932 111.519 15.0711 104.982 21.8884 97.9966C21.9584 107.657 22.0784 117.307 22.4884 126.997L23.3184 145.527C23.8084 151.707 24.0884 157.897 24.7684 164.067C25.4384 157.897 25.7684 151.707 26.2184 145.527L26.9984 126.947C27.4184 117.287 27.5384 107.627 27.6084 97.9466C34.4216 104.938 41.6766 111.485 49.3284 117.547C42.7473 108.508 35.5502 99.9342 27.7884 91.8866C35.5603 83.8334 42.7705 75.2566 49.3684 66.2166Z" fill="#6FD5CA"/>
<path d="M590.608 66.2166C582.972 72.2781 575.727 78.8179 568.918 85.7966C568.848 74.7966 568.748 63.7966 568.268 52.7966C567.798 40.4366 567.268 28.0766 566.008 15.7266C564.788 28.0866 564.228 40.4466 563.738 52.7966C563.268 63.7966 563.168 74.7966 563.088 85.7966C556.281 78.8161 549.037 72.2762 541.398 66.2166C548.007 75.2536 555.224 83.8301 562.998 91.8866C555.223 99.943 548.01 108.523 541.408 117.567C549.066 111.518 556.324 104.981 563.138 97.9966C563.208 107.657 563.328 117.307 563.738 126.997L564.568 145.527C565.058 151.707 565.338 157.897 566.018 164.067C566.688 157.897 567.018 151.707 567.468 145.527L568.288 126.997C568.708 117.337 568.828 107.677 568.898 97.9966C575.712 104.988 582.967 111.535 590.618 117.597C584.013 108.538 576.79 99.9476 568.998 91.8866C576.77 83.8334 583.981 75.2566 590.578 66.2166" fill="#6FD5CA"/>
</svg>
