<svg viewBox="0 0 729 86" fill="none" xmlns="http://www.w3.org/2000/svg">
<path d="M56.7899 18.5399C58.3686 18.2984 59.963 18.1747 61.5599 18.1699C63.1572 18.1684 64.7521 18.2921 66.3299 18.5399L76.5599 44.0799L87.0999 18.5399C88.5116 18.2807 89.9448 18.1568 91.3799 18.1699C92.8977 18.1645 94.4132 18.2883 95.91 18.5399L97.9999 63.1099C96.5252 63.3492 95.034 63.4729 93.5399 63.4799C92.1483 63.4814 90.7594 63.3576 89.3899 63.1099L88.2799 32.8599L79.2299 53.8599C78.6499 53.9399 78.0499 54.0132 77.4299 54.0799C76.8099 54.1465 76.1899 54.1765 75.5699 54.1699C75.0299 54.1699 74.4933 54.1499 73.9599 54.1099C73.3983 54.0642 72.8404 53.9806 72.2899 53.8599L63.8499 32.4199L62.9999 63.1099C61.7341 63.3516 60.4486 63.4755 59.1599 63.4799C57.7884 63.4761 56.4199 63.3523 55.0699 63.1099L56.7899 18.5399Z" fill="#FFCC00"/>
<path d="M113.21 49.7799C113.2 50.8178 113.429 51.844 113.88 52.7788C114.331 53.7136 114.991 54.5319 115.81 55.1699C117.651 56.3616 119.819 56.9457 122.01 56.8399C123.456 56.8376 124.898 56.7037 126.32 56.4399C127.748 56.1813 129.15 55.7965 130.51 55.2899C131.014 56.2428 131.41 57.2491 131.69 58.2899C132.029 59.5021 132.218 60.7516 132.25 62.0099C128.759 63.2967 125.06 63.9273 121.34 63.8699C118.732 63.9321 116.135 63.5117 113.68 62.6299C111.7 61.9035 109.916 60.7257 108.47 59.1899C107.095 57.6861 106.071 55.8966 105.47 53.9499C104.798 51.8044 104.461 49.5682 104.47 47.3199C104.457 45.0714 104.794 42.8346 105.47 40.6899C106.081 38.7151 107.08 36.8824 108.41 35.2999C109.739 33.7516 111.391 32.5127 113.25 31.6699C115.374 30.7318 117.678 30.271 120 30.3199C122.062 30.2767 124.108 30.6792 126 31.4999C127.686 32.2502 129.196 33.3474 130.43 34.7199C131.678 36.1343 132.618 37.7928 133.19 39.5899C133.816 41.5279 134.13 43.5533 134.12 45.5899C134.12 46.3766 134.09 47.1533 134.03 47.9199C133.97 48.6866 133.897 49.2966 133.81 49.7499L113.21 49.7799ZM125.8 43.6399C125.804 41.8987 125.227 40.206 124.16 38.8299C123.639 38.2173 122.983 37.7335 122.244 37.416C121.505 37.0986 120.703 36.9562 119.9 36.9999C119.036 36.9404 118.17 37.0647 117.358 37.3647C116.546 37.6646 115.807 38.1333 115.19 38.7399C114.026 40.116 113.351 41.8392 113.27 43.6399H125.8Z" fill="#FFCC00"/>
<path d="M141 31.0604C141.62 30.9337 142.21 30.8404 142.77 30.7804C143.378 30.717 143.989 30.687 144.6 30.6904C145.212 30.6883 145.823 30.7284 146.43 30.8104C147.03 30.8904 147.62 30.9937 148.2 31.1204C148.353 31.4039 148.467 31.7066 148.54 32.0204C148.64 32.4104 148.74 32.8304 148.82 33.2604C148.9 33.6904 148.98 34.1304 149.04 34.5604L149.19 35.6404C150.127 34.3317 151.257 33.172 152.54 32.2004C153.987 31.1433 155.749 30.6075 157.54 30.6804C157.95 30.6804 158.43 30.6804 158.97 30.7404C159.369 30.7597 159.765 30.8234 160.15 30.9304C160.242 31.4029 160.305 31.8804 160.34 32.3604C160.38 32.9004 160.4 33.457 160.4 34.0304C160.4 34.7304 160.37 35.4937 160.31 36.3204C160.253 37.1142 160.139 37.9028 159.97 38.6804C159.468 38.5949 158.959 38.5548 158.45 38.5604H157.45C156.659 38.569 155.869 38.6426 155.09 38.7804C154.179 38.946 153.325 39.3418 152.61 39.9304C151.715 40.6737 151.027 41.6344 150.61 42.7204C150.026 44.3927 149.765 46.1606 149.84 47.9304V63.1804C149.102 63.3046 148.357 63.388 147.61 63.4304C146.863 63.4704 146.14 63.4904 145.44 63.4904C144.74 63.4904 144.027 63.4704 143.3 63.4304C142.573 63.3904 141.82 63.3071 141.04 63.1804L141 31.0604Z" fill="#FFCC00"/>
<path d="M186.55 55.5501C187.08 56.4558 187.496 57.423 187.79 58.4301C188.144 59.6923 188.313 60.9993 188.29 62.3101C186.8 62.9272 185.237 63.3539 183.64 63.5801C182.138 63.7702 180.624 63.8638 179.11 63.8601C176.715 63.9135 174.334 63.4815 172.11 62.5901C170.222 61.813 168.536 60.616 167.18 59.0901C165.847 57.5438 164.846 55.7398 164.24 53.7901C162.938 49.4729 162.938 44.8673 164.24 40.5501C164.842 38.5959 165.832 36.7831 167.15 35.2201C168.481 33.668 170.146 32.4373 172.02 31.6201C174.156 30.714 176.46 30.2709 178.78 30.3201C179.687 30.3201 180.523 30.3401 181.29 30.3801C182.028 30.4195 182.762 30.5029 183.49 30.6301C184.202 30.7577 184.906 30.9247 185.6 31.1301C186.3 31.3368 187.087 31.6068 187.96 31.9401C187.947 33.0133 187.823 34.0823 187.59 35.1301C187.343 36.3026 186.946 37.4386 186.41 38.5101C185.351 38.1426 184.264 37.8616 183.16 37.6701C182.104 37.5158 181.037 37.4423 179.97 37.4501C178.873 37.3754 177.774 37.5642 176.765 38.0009C175.756 38.4375 174.866 39.1093 174.17 39.9601C172.837 41.6334 172.17 44.0201 172.17 47.1201C172.17 50.4534 172.873 52.8934 174.28 54.4401C175.009 55.2098 175.896 55.8129 176.88 56.2082C177.863 56.6034 178.921 56.7815 179.98 56.7301C180.6 56.7301 181.167 56.7301 181.68 56.7301C182.19 56.7093 182.697 56.6559 183.2 56.5701C183.715 56.4842 184.223 56.3605 184.72 56.2001C185.24 56.0134 185.85 55.7968 186.55 55.5501Z" fill="#FFCC00"/>
<path d="M210.48 42.0003C210.513 41.165 210.341 40.3342 209.98 39.5803C209.668 38.9789 209.198 38.4741 208.62 38.1203C207.961 37.7435 207.233 37.5021 206.48 37.4103C205.546 37.2791 204.603 37.2156 203.66 37.2203C201.228 37.2552 198.818 37.6945 196.53 38.5203C195.999 37.5654 195.564 36.5606 195.23 35.5203C194.921 34.4108 194.776 33.2619 194.8 32.1103C196.578 31.5024 198.404 31.0474 200.26 30.7503C201.939 30.4747 203.638 30.3309 205.34 30.3203C209.64 30.3203 213 31.3536 215.42 33.4203C217.84 35.487 219.033 38.7936 219 43.3403V61.9403C217.267 62.4658 215.508 62.8997 213.73 63.2403C211.422 63.6753 209.078 63.8829 206.73 63.8603C204.782 63.8759 202.838 63.6882 200.93 63.3003C199.311 62.9876 197.771 62.3553 196.4 61.4403C195.158 60.5919 194.156 59.4382 193.49 58.0903C192.774 56.5234 192.432 54.8119 192.49 53.0903C192.427 51.3365 192.867 49.6013 193.76 48.0903C194.585 46.7707 195.713 45.6669 197.05 44.8703C198.442 44.0434 199.963 43.4553 201.55 43.1303C203.193 42.7779 204.869 42.6002 206.55 42.6003C207.75 42.6003 209.083 42.6636 210.55 42.7903L210.48 42.0003ZM210.48 48.3903C209.987 48.3103 209.45 48.237 208.87 48.1703C208.355 48.1133 207.838 48.0833 207.32 48.0803C205.651 47.9953 203.991 48.3688 202.52 49.1603C201.934 49.5276 201.46 50.0476 201.148 50.6643C200.837 51.281 200.699 51.9711 200.75 52.6603C200.692 53.5398 200.932 54.4133 201.43 55.1403C201.857 55.6985 202.422 56.1361 203.07 56.4103C203.707 56.6786 204.382 56.8472 205.07 56.9103C205.823 56.9703 206.467 57.0003 207 57.0003C207.623 56.9989 208.245 56.9454 208.86 56.8403L210.47 56.5603L210.48 48.3903Z" fill="#FFCC00"/>
<path d="M246.07 17.7905C246.798 17.6678 247.533 17.5844 248.27 17.5405C248.99 17.5005 249.703 17.4805 250.41 17.4805C251.117 17.4805 251.84 17.5005 252.58 17.5405C253.327 17.5833 254.072 17.6667 254.81 17.7905V62.0605C252.869 62.6376 250.891 63.082 248.89 63.3905C246.478 63.7257 244.045 63.8795 241.61 63.8505C239.481 63.8583 237.362 63.5551 235.32 62.9505C233.373 62.3829 231.567 61.4119 230.02 60.1005C228.433 58.7226 227.19 56.9934 226.39 55.0505C225.44 52.6462 224.988 50.0744 225.06 47.4905C225.045 45.2166 225.435 42.9582 226.21 40.8205C226.93 38.8105 228.049 36.9669 229.5 35.4005C230.959 33.8471 232.722 32.6113 234.68 31.7705C236.816 30.8604 239.118 30.4074 241.44 30.4405C242.187 30.4405 242.96 30.4705 243.76 30.5305C244.548 30.5878 245.328 30.7218 246.09 30.9305L246.07 17.7905ZM246.07 37.6905C245.412 37.5181 244.744 37.3846 244.07 37.2905C243.406 37.2212 242.738 37.1912 242.07 37.2005C240.831 37.1729 239.606 37.4621 238.51 38.0405C237.514 38.5826 236.655 39.3454 236 40.2705C235.309 41.2644 234.813 42.381 234.54 43.5605C234.228 44.8504 234.073 46.1734 234.08 47.5005C234.045 48.9617 234.254 50.4185 234.7 51.8105C235.042 52.871 235.628 53.8368 236.41 54.6305C237.14 55.3333 238.028 55.8511 239 56.1405C240.044 56.4559 241.129 56.611 242.22 56.6005C242.861 56.6041 243.502 56.5741 244.14 56.5105C244.79 56.434 245.433 56.3002 246.06 56.1105L246.07 37.6905Z" fill="#FFCC00"/>
<path d="M276.88 63.8598C274.553 63.9134 272.24 63.4808 270.09 62.5898C268.247 61.8007 266.613 60.5919 265.32 59.0598C264.031 57.4977 263.062 55.6966 262.47 53.7597C261.801 51.6342 261.463 49.4182 261.47 47.1897C261.467 44.942 261.804 42.7067 262.47 40.5598C263.053 38.601 264.022 36.7786 265.32 35.1998C266.617 33.6613 268.248 32.4401 270.09 31.6298C272.235 30.718 274.55 30.2748 276.88 30.3298C279.22 30.2772 281.544 30.7203 283.7 31.6298C285.563 32.4383 287.218 33.6589 288.54 35.1998C289.853 36.7687 290.823 38.5943 291.39 40.5598C292.022 42.7126 292.335 44.9462 292.32 47.1897C292.339 49.4138 292.025 51.6283 291.39 53.7597C290.814 55.7034 289.844 57.5075 288.54 59.0598C287.221 60.5942 285.564 61.8024 283.7 62.5898C281.538 63.4774 279.217 63.9097 276.88 63.8598V63.8598ZM276.88 57.1597C277.87 57.2387 278.862 57.04 279.746 56.586C280.629 56.132 281.368 55.4407 281.88 54.5898C282.893 52.8764 283.4 50.4064 283.4 47.1798C283.4 43.9531 282.893 41.4831 281.88 39.7698C281.368 38.9188 280.629 38.2275 279.746 37.7735C278.862 37.3195 277.87 37.1208 276.88 37.1998C275.909 37.1379 274.94 37.345 274.079 37.7984C273.218 38.2519 272.498 38.934 272 39.7698C270.987 41.4831 270.48 43.9531 270.48 47.1798C270.48 50.4064 270.987 52.8764 272 54.5898C272.498 55.4263 273.217 56.109 274.078 56.5626C274.939 57.0161 275.909 57.2228 276.88 57.1597V57.1597Z" fill="#FFCC00"/>
<path d="M321.58 26.23H310.48C310.228 24.9421 310.104 23.6324 310.11 22.32C310.108 21.0509 310.232 19.7848 310.48 18.54H341.8C342.048 19.7848 342.172 21.0509 342.17 22.32C342.176 23.6324 342.052 24.9421 341.8 26.23H330.7V63.11C329.953 63.19 329.21 63.2634 328.47 63.33C327.73 63.3967 327.007 63.4267 326.3 63.42C325.6 63.42 324.847 63.4 324.04 63.36C323.233 63.32 322.417 63.2367 321.59 63.11L321.58 26.23Z" fill="#FFCC00"/>
<path d="M347.81 17.7899C349.264 17.5455 350.736 17.4217 352.21 17.4199C353.664 17.4234 355.116 17.5472 356.55 17.7899V50.3399C356.533 51.3777 356.606 52.415 356.77 53.4399C356.863 54.0917 357.095 54.7159 357.45 55.2699C357.745 55.6937 358.169 56.0097 358.66 56.1699C359.263 56.3513 359.891 56.4357 360.52 56.4199C360.884 56.4188 361.248 56.3988 361.61 56.3599C361.997 56.3193 362.381 56.2559 362.76 56.1699C363.207 57.7993 363.435 59.4805 363.44 61.1699V61.9999C363.437 62.3037 363.396 62.6059 363.32 62.8999C362.541 63.1267 361.74 63.2708 360.93 63.3299C359.997 63.4099 359.14 63.4499 358.36 63.4499C355.564 63.5885 352.821 62.6469 350.7 60.8199C348.78 59.0599 347.82 56.1966 347.82 52.2299L347.81 17.7899Z" fill="#FFCC00"/>
<path d="M384.14 42.0003C384.173 41.165 384.001 40.3342 383.64 39.5803C383.328 38.9789 382.858 38.4741 382.28 38.1203C381.621 37.7435 380.894 37.5021 380.14 37.4103C379.206 37.2791 378.263 37.2156 377.32 37.2203C374.888 37.2552 372.478 37.6945 370.19 38.5203C369.659 37.5654 369.224 36.5606 368.89 35.5203C368.581 34.4108 368.436 33.2619 368.46 32.1103C370.238 31.5024 372.065 31.0474 373.92 30.7503C375.6 30.4747 377.298 30.3309 379 30.3203C383.3 30.3203 386.66 31.3536 389.08 33.4203C391.5 35.487 392.71 38.7936 392.71 43.3403V61.9403C390.977 62.4658 389.218 62.8997 387.44 63.2403C385.133 63.6753 382.788 63.8829 380.44 63.8603C378.493 63.8759 376.549 63.6882 374.64 63.3003C373.021 62.9876 371.481 62.3553 370.11 61.4403C368.869 60.5919 367.867 59.4382 367.2 58.0903C366.485 56.5234 366.142 54.8119 366.2 53.0903C366.137 51.3365 366.578 49.6013 367.47 48.0903C368.295 46.7707 369.423 45.6669 370.76 44.8703C372.153 44.0434 373.674 43.4553 375.26 43.1303C376.903 42.7779 378.579 42.6002 380.26 42.6003C381.46 42.6003 382.793 42.6636 384.26 42.7903L384.14 42.0003ZM384.14 48.3903C383.647 48.3103 383.11 48.237 382.53 48.1703C382.015 48.1133 381.498 48.0833 380.98 48.0803C379.312 47.9953 377.651 48.3688 376.18 49.1603C375.595 49.5276 375.121 50.0476 374.809 50.6643C374.497 51.281 374.359 51.9711 374.41 52.6603C374.352 53.5398 374.592 54.4133 375.09 55.1403C375.518 55.6985 376.083 56.1361 376.73 56.4103C377.367 56.6786 378.042 56.8472 378.73 56.9103C379.45 56.9703 380.08 57.0003 380.62 57.0003C381.243 56.9989 381.866 56.9454 382.48 56.8403L384.09 56.5603L384.14 48.3903Z" fill="#FFCC00"/>
<path d="M419.6 63.3599L417.43 63.6099C416.586 63.6959 415.738 63.7359 414.89 63.7299C412.834 63.7365 410.787 63.4538 408.81 62.8899C406.91 62.3552 405.145 61.4248 403.63 60.1599C402.061 58.8207 400.828 57.1321 400.03 55.2299C399.076 52.8479 398.623 50.2947 398.7 47.7299C398.692 45.4309 399.106 43.1499 399.92 40.9999C400.691 38.928 401.883 37.0382 403.42 35.4499C405.025 33.8291 406.944 32.553 409.06 31.6999C411.486 30.735 414.08 30.2625 416.69 30.3099C418.774 30.2936 420.856 30.4273 422.92 30.7099C424.76 30.9765 426.59 31.3099 428.41 31.7099V77.8099C427.682 77.9324 426.947 78.0159 426.21 78.0599C425.483 78.0999 424.77 78.1199 424.07 78.1199C423.37 78.1199 422.647 78.0999 421.9 78.0599C421.153 78.0171 420.408 77.9336 419.67 77.8099L419.6 63.3599ZM419.6 37.8799C418.647 37.7132 418.007 37.6099 417.68 37.5699C417.248 37.5242 416.814 37.5042 416.38 37.5099C415.165 37.4262 413.947 37.6423 412.835 38.1393C411.722 38.6362 410.749 39.3987 410 40.3599C408.497 42.5188 407.745 45.1118 407.86 47.7399C407.822 49.1793 408.022 50.6152 408.45 51.9899C408.771 53.011 409.322 53.9449 410.06 54.7199C410.75 55.4089 411.603 55.9113 412.54 56.1799C413.577 56.4772 414.652 56.622 415.73 56.6099C416.371 56.6135 417.012 56.5835 417.65 56.5199C418.301 56.4435 418.943 56.3097 419.57 56.1199L419.6 37.8799Z" fill="#FFCC00"/>
<path d="M436.34 31.0603C439.252 30.5645 442.228 30.5645 445.14 31.0603V48.0003C445.109 49.4078 445.243 50.8141 445.54 52.1903C445.74 53.1434 446.165 54.0348 446.78 54.7903C447.334 55.4275 448.054 55.8983 448.86 56.1503C449.803 56.435 450.785 56.5699 451.77 56.5503C453.063 56.5794 454.355 56.4348 455.61 56.1203V31.0603C457.044 30.8175 458.496 30.6938 459.95 30.6903C461.424 30.6921 462.896 30.8159 464.35 31.0603V61.8703C462.634 62.4259 460.883 62.8701 459.11 63.2003C456.874 63.6407 454.599 63.8584 452.32 63.8503C450.283 63.8549 448.249 63.6876 446.24 63.3503C444.391 63.0601 442.637 62.3371 441.12 61.2403C439.544 60.0208 438.333 58.3915 437.62 56.5303C436.655 53.8907 436.214 51.0886 436.32 48.2803L436.34 31.0603Z" fill="#FFCC00"/>
<path d="M479.37 49.7802C479.36 50.8181 479.589 51.8443 480.04 52.7791C480.491 53.7139 481.151 54.5322 481.97 55.1702C483.811 56.3619 485.98 56.946 488.17 56.8402C489.616 56.8379 491.058 56.704 492.48 56.4402C493.908 56.1816 495.31 55.7968 496.67 55.2902C497.174 56.2431 497.57 57.2494 497.85 58.2902C498.185 59.4996 498.37 60.7456 498.4 62.0002C494.909 63.287 491.21 63.9176 487.49 63.8602C484.882 63.9224 482.285 63.502 479.83 62.6202C477.85 61.8937 476.066 60.716 474.62 59.1802C473.245 57.6764 472.221 55.8869 471.62 53.9402C470.948 51.7947 470.611 49.5585 470.62 47.3102C470.607 45.0617 470.944 42.8249 471.62 40.6802C472.231 38.7054 473.23 36.8727 474.56 35.2902C475.889 33.7419 477.541 32.503 479.4 31.6602C481.52 30.7318 483.817 30.2779 486.13 30.3302C488.192 30.287 490.238 30.6895 492.13 31.5102C493.816 32.2605 495.326 33.3577 496.56 34.7302C497.808 36.1446 498.748 37.8031 499.32 39.6002C499.946 41.5382 500.26 43.5636 500.25 45.6002C500.25 46.3869 500.22 47.1636 500.16 47.9302C500.1 48.6969 500.047 49.3136 500 49.7802H479.37ZM492 43.6502C492.004 41.909 491.427 40.2163 490.36 38.8402C489.837 38.2216 489.177 37.7333 488.432 37.414C487.688 37.0946 486.879 36.953 486.07 37.0002C485.207 36.9407 484.34 37.065 483.528 37.365C482.716 37.6649 481.977 38.1336 481.36 38.7402C480.196 40.1163 479.521 41.8395 479.44 43.6402L492 43.6502Z" fill="#FFCC00"/>
<path d="M507 30.9997C507.564 30.8775 508.135 30.7939 508.71 30.7497C509.27 30.7097 509.9 30.6897 510.6 30.6897C511.786 30.6925 512.969 30.8165 514.13 31.0597C514.283 31.343 514.398 31.6458 514.47 31.9597C514.57 32.353 514.673 32.7763 514.78 33.2297C514.88 33.6897 514.97 34.1297 515.03 34.5597L515.18 35.6397C515.57 34.9319 516.025 34.2623 516.54 33.6397C517.116 32.9714 517.79 32.3948 518.54 31.9297C519.34 31.416 520.204 31.0092 521.11 30.7197C522.133 30.4009 523.199 30.2456 524.27 30.2597C525.987 30.2485 527.689 30.5888 529.27 31.2597C530.838 31.9314 532.228 32.9584 533.33 34.2597C534.563 35.7426 535.482 37.4608 536.03 39.3097C536.726 41.6418 537.063 44.0662 537.03 46.4997C537.067 48.9572 536.667 51.4018 535.85 53.7197C535.123 55.7537 533.959 57.6037 532.44 59.1397C530.889 60.6664 529.027 61.8398 526.98 62.5797C524.633 63.4197 522.153 63.8296 519.66 63.7897C518.953 63.7897 518.26 63.7597 517.58 63.6997C516.9 63.6397 516.33 63.5663 515.87 63.4797V77.8097C515.083 77.9363 514.33 78.0197 513.61 78.0597C512.89 78.0997 512.177 78.1197 511.47 78.1197C510.763 78.1197 510.05 78.0997 509.33 78.0597C508.61 78.0197 507.833 77.9363 507 77.8097V30.9997ZM515.8 56.2997C517.049 56.65 518.343 56.8184 519.64 56.7997C520.746 56.8676 521.854 56.6791 522.875 56.249C523.897 55.8188 524.805 55.1586 525.53 54.3197C526.863 52.6663 527.53 50.1663 527.53 46.8197C527.538 45.6226 527.434 44.4275 527.22 43.2497C527.051 42.2517 526.695 41.2948 526.17 40.4297C525.697 39.6678 525.049 39.03 524.28 38.5697C523.438 38.1374 522.507 37.9045 521.56 37.8889C520.614 37.8733 519.676 38.0754 518.82 38.4797C518.106 38.8618 517.498 39.415 517.05 40.0897C516.573 40.8181 516.234 41.6283 516.05 42.4797C515.838 43.435 515.734 44.4111 515.74 45.3897L515.8 56.2997Z" fill="#FFCC00"/>
<path d="M559.85 42.0004C559.883 41.165 559.711 40.3342 559.35 39.5804C559.035 38.9949 558.569 38.5045 558 38.1604C557.341 37.7836 556.614 37.5422 555.86 37.4504C554.926 37.3192 553.983 37.2557 553.04 37.2603C550.608 37.2952 548.198 37.7346 545.91 38.5604C545.379 37.6055 544.944 36.6006 544.61 35.5604C544.301 34.4508 544.156 33.3019 544.18 32.1504C545.958 31.5424 547.785 31.0874 549.64 30.7904C551.32 30.5147 553.018 30.3709 554.72 30.3604C559.02 30.3604 562.38 31.3937 564.8 33.4604C567.22 35.527 568.43 38.8337 568.43 43.3804V61.9804C566.697 62.5058 564.938 62.9398 563.16 63.2803C560.853 63.7153 558.508 63.923 556.16 63.9004C554.213 63.9159 552.269 63.7282 550.36 63.3404C548.741 63.0276 547.201 62.3953 545.83 61.4804C544.589 60.6319 543.586 59.4783 542.92 58.1304C542.205 56.5634 541.862 54.8519 541.92 53.1304C541.857 51.3766 542.298 49.6414 543.19 48.1304C544.015 46.8108 545.143 45.7069 546.48 44.9104C547.873 44.0835 549.394 43.4953 550.98 43.1703C552.623 42.8179 554.299 42.6403 555.98 42.6404C557.18 42.6404 558.513 42.7037 559.98 42.8304L559.85 42.0004ZM559.85 48.3904C559.357 48.3104 558.82 48.237 558.24 48.1703C557.725 48.1134 557.208 48.0833 556.69 48.0804C555.021 47.9954 553.361 48.3689 551.89 49.1604C551.305 49.5276 550.831 50.0476 550.519 50.6643C550.207 51.2811 550.069 51.9712 550.12 52.6604C550.062 53.5399 550.302 54.4133 550.8 55.1404C551.228 55.6985 551.793 56.1362 552.44 56.4104C553.077 56.6786 553.752 56.8472 554.44 56.9104C555.16 56.9704 555.79 57.0004 556.33 57.0004C556.953 56.999 557.576 56.9454 558.19 56.8404L559.8 56.5604L559.85 48.3904Z" fill="#FFCC00"/>
<path d="M595.31 63.3599L593.14 63.6099C592.296 63.6959 591.448 63.7359 590.6 63.7299C588.544 63.7365 586.497 63.4538 584.52 62.8899C582.62 62.3552 580.855 61.4248 579.34 60.1599C577.771 58.8207 576.538 57.1321 575.74 55.2299C574.786 52.8479 574.333 50.2947 574.41 47.7299C574.399 45.4315 574.809 43.1506 575.62 40.9999C576.391 38.928 577.583 37.0382 579.12 35.4499C580.725 33.8291 582.644 32.553 584.76 31.6999C587.186 30.735 589.78 30.2625 592.39 30.3099C594.474 30.2936 596.556 30.4273 598.62 30.7099C600.46 30.9765 602.29 31.3099 604.11 31.7099V77.8099C603.382 77.9324 602.647 78.0159 601.91 78.0599C601.183 78.0999 600.47 78.1199 599.77 78.1199C599.07 78.1199 598.347 78.0999 597.6 78.0599C596.853 78.0171 596.108 77.9336 595.37 77.8099L595.31 63.3599ZM595.31 37.8799C594.357 37.7132 593.717 37.6099 593.39 37.5699C592.958 37.5242 592.524 37.5042 592.09 37.5099C590.879 37.4312 589.668 37.6498 588.561 38.1465C587.454 38.6433 586.486 39.4031 585.74 40.3599C584.237 42.5188 583.485 45.1118 583.6 47.7399C583.562 49.1793 583.762 50.6152 584.19 51.9899C584.511 53.011 585.062 53.9449 585.8 54.7199C586.49 55.4089 587.343 55.9113 588.28 56.1799C589.317 56.4772 590.391 56.622 591.47 56.6099C592.111 56.6135 592.752 56.5835 593.39 56.5199C594.041 56.4435 594.683 56.3097 595.31 56.1199V37.8799Z" fill="#FFCC00"/>
<path d="M612 31.0603C614.912 30.5645 617.888 30.5645 620.8 31.0603V48.0003C620.769 49.4078 620.903 50.8141 621.2 52.1903C621.4 53.1434 621.825 54.0348 622.44 54.7903C622.994 55.4275 623.714 55.8983 624.52 56.1503C625.463 56.435 626.445 56.5699 627.43 56.5503C628.724 56.5794 630.015 56.4348 631.27 56.1203V31.0603C632.704 30.8175 634.156 30.6938 635.61 30.6903C637.084 30.6921 638.556 30.8159 640.01 31.0603V61.8703C638.294 62.4259 636.544 62.8701 634.77 63.2003C632.534 63.6407 630.259 63.8584 627.98 63.8503C625.943 63.8549 623.909 63.6876 621.9 63.3503C620.051 63.0601 618.297 62.3371 616.78 61.2403C615.204 60.0208 613.993 58.3915 613.28 56.5303C612.325 53.8957 611.89 51.1006 612 48.3003V31.0603Z" fill="#FFCC00"/>
<path d="M655.08 49.78C655.07 50.8178 655.299 51.8441 655.75 52.7789C656.201 53.7137 656.861 54.5319 657.68 55.17C659.521 56.3617 661.689 56.9457 663.88 56.84C665.326 56.8377 666.768 56.7038 668.19 56.44C669.618 56.1814 671.02 55.7966 672.38 55.29C672.884 56.2429 673.28 57.2491 673.56 58.29C673.899 59.5021 674.088 60.7516 674.12 62.01C670.629 63.2968 666.93 63.9273 663.21 63.87C660.602 63.9321 658.005 63.5118 655.55 62.63C653.57 61.9035 651.786 60.7257 650.34 59.19C648.965 57.6862 647.941 55.8967 647.34 53.95C646.668 51.8045 646.331 49.5682 646.34 47.32C646.327 45.0715 646.664 42.8346 647.34 40.69C647.951 38.7152 648.95 36.8825 650.28 35.3C651.609 33.7517 653.261 32.5128 655.12 31.67C657.24 30.7416 659.536 30.2877 661.85 30.34C663.912 30.2967 665.958 30.6992 667.85 31.52C669.536 32.2703 671.046 33.3674 672.28 34.74C673.511 36.1521 674.437 37.8032 675 39.59C675.626 41.528 675.94 43.5533 675.93 45.59C675.93 46.3767 675.9 47.1533 675.84 47.92C675.78 48.6867 675.707 49.2967 675.62 49.75L655.08 49.78ZM667.67 43.64C667.663 41.8987 667.076 40.2094 666 38.84C665.483 38.2297 664.833 37.7464 664.099 37.4274C663.366 37.1084 662.569 36.9621 661.77 37C660.906 36.9405 660.04 37.0648 659.228 37.3647C658.416 37.6647 657.677 38.1334 657.06 38.74C655.896 40.1161 655.22 41.8393 655.14 43.64H667.67Z" fill="#FFCC00"/>
<path d="M36 35.4397C32.1263 37.6689 28.3865 40.1231 24.8 42.7897C24.8 38.6597 24.71 34.5297 24.46 30.3897C24.22 25.7497 23.92 21.1097 23.3 16.4697C22.67 21.1097 22.38 25.7497 22.13 30.3897C21.89 34.5197 21.83 38.6597 21.79 42.7897C18.2072 40.1226 14.4707 37.6684 10.6 35.4397C14.0858 38.9031 17.8045 42.1239 21.73 45.0797C17.803 48.0337 14.0842 51.2546 10.6 54.7197C14.4798 52.4917 18.2231 50.034 21.81 47.3597C21.81 50.9897 21.91 54.6097 22.12 58.2397L22.55 65.2397C22.8 67.5597 22.95 69.8797 23.3 72.2397C23.64 69.9197 23.79 67.5997 24.05 65.2397L24.47 58.2397C24.69 54.6097 24.75 50.9897 24.79 47.3597C28.3779 50.0324 32.1212 52.49 36 54.7197C32.5176 51.2526 28.7987 48.0315 24.87 45.0797C28.7971 42.126 32.5159 38.905 36 35.4397" fill="#FFCC00"/>
<path d="M37.24 34.8098C33.3697 37.0393 29.6333 39.4935 26.05 42.1598C26.05 38.0298 25.96 33.8998 25.71 29.7598C25.47 25.1198 25.17 20.4798 24.55 15.8398C23.92 20.4798 23.63 25.1198 23.38 29.7598C23.14 33.8898 23.08 38.0298 23.04 42.1598C19.4572 39.4927 15.7207 37.0385 11.85 34.8098C15.3423 38.2739 19.0676 41.4948 23 44.4498C19.073 47.4038 15.3542 50.6248 11.87 54.0898C15.7498 51.8618 19.4931 49.4041 23.08 46.7298C23.08 50.3598 23.18 53.9798 23.39 57.6098L23.82 64.6098C24.07 66.9298 24.22 69.2498 24.57 71.6098C24.91 69.2898 25.06 66.9698 25.32 64.6098L25.74 57.6098C25.96 53.9798 26.02 50.3598 26.06 46.7298C29.6447 49.4022 33.3846 51.8598 37.26 54.0898C33.7776 50.6227 30.0587 47.4016 26.13 44.4498C30.0571 41.4961 33.7759 38.2751 37.26 34.8098" fill="#6FD5CA"/>
<path d="M718 35.4397C714.13 37.6692 710.393 40.1234 706.81 42.7897C706.81 38.6597 706.72 34.5297 706.47 30.3897C706.23 25.7497 705.93 21.1097 705.31 16.4697C704.68 21.1097 704.39 25.7497 704.14 30.3897C703.9 34.5197 703.84 38.6597 703.8 42.7897C700.217 40.1226 696.481 37.6684 692.61 35.4397C696.096 38.9031 699.814 42.1239 703.74 45.0797C699.813 48.0337 696.094 51.2546 692.61 54.7197C696.49 52.4917 700.233 50.034 703.82 47.3597C703.82 50.9897 703.92 54.6097 704.13 58.2397L704.56 65.2397C704.81 67.5597 704.96 69.8797 705.31 72.2397C705.65 69.9197 705.8 67.5997 706.06 65.2397L706.48 58.2397C706.7 54.6097 706.76 50.9897 706.8 47.3597C710.385 50.0321 714.124 52.4897 718 54.7197C714.518 51.2526 710.799 48.0315 706.87 45.0797C710.797 42.126 714.516 38.905 718 35.4397" fill="#FFCC00"/>
<path d="M719.26 34.8098C715.39 37.0393 711.653 39.4935 708.07 42.1598C708.07 38.0298 707.98 33.8998 707.73 29.7598C707.49 25.1198 707.19 20.4798 706.57 15.8398C705.94 20.4798 705.65 25.1198 705.4 29.7598C705.16 33.8898 705.1 38.0298 705.06 42.1598C701.477 39.4927 697.741 37.0385 693.87 34.8098C697.356 38.2732 701.075 41.494 705 44.4498C701.073 47.4038 697.354 50.6248 693.87 54.0898C697.75 51.8618 701.493 49.4041 705.08 46.7298C705.08 50.3598 705.18 53.9798 705.39 57.6098L705.82 64.6098C706.07 66.9298 706.22 69.2498 706.57 71.6098C706.91 69.2898 707.06 66.9698 707.32 64.6098L707.74 57.6098C707.96 53.9798 708.02 50.3598 708.06 46.7298C711.645 49.4022 715.385 51.8598 719.26 54.0898C715.778 50.6227 712.059 47.4016 708.13 44.4498C712.057 41.4961 715.776 38.2751 719.26 34.8098" fill="#6FD5CA"/>
</svg>
