<svg viewBox="0 0 658 57" fill="none" xmlns="http://www.w3.org/2000/svg">
<path d="M54.7811 38.8299C54.4278 40.8299 54.0945 42.7765 53.7811 44.6699C53.4678 46.5632 53.2078 48.3165 53.0011 49.9299C52.7811 51.5632 52.6111 53.0199 52.4911 54.2999C52.432 54.6948 52.2246 55.0524 51.9111 55.2999C51.4354 55.4668 50.9169 55.4668 50.4411 55.2999C49.7745 55.1532 49.0845 54.9665 48.3711 54.7399C47.7131 54.5427 47.0713 54.2953 46.4511 53.9999C45.8494 53.7568 45.3243 53.3561 44.9311 52.8399C44.6389 52.2954 44.5301 51.6711 44.6211 51.0599C44.6211 49.8999 44.6745 48.4799 44.7811 46.7999C44.8878 45.1199 45.0378 43.2999 45.2311 41.3399C45.4245 39.3799 45.6411 37.3432 45.8811 35.2299C46.1211 33.1165 46.3778 31.0399 46.6511 28.9999C46.9311 26.9465 47.2145 25.0065 47.5011 23.1799C47.7878 21.3532 48.0611 19.7399 48.3211 18.3399C48.3749 17.9645 48.5034 17.6038 48.6993 17.2791C48.8951 16.9545 49.1542 16.6725 49.4611 16.4499C50.1955 16.1719 50.9954 16.1163 51.7611 16.2899C53.1348 16.4816 54.4968 16.7487 55.8411 17.0899C56.9545 17.3899 58.0778 17.7465 59.2111 18.1599C59.8122 18.3699 60.381 18.6627 60.9011 19.0299C61.2912 19.3012 61.6298 19.6398 61.9011 20.0299C62.1399 20.4079 62.3123 20.8238 62.4111 21.2599C62.5178 21.7065 62.6278 22.2132 62.7411 22.7799C62.7441 23.1143 62.7675 23.4483 62.8111 23.7799C62.8578 24.1532 62.9478 24.8199 63.0811 25.7799C63.2145 26.7399 63.4145 28.0932 63.6811 29.8399C63.9478 31.5932 64.3178 33.9999 64.7911 37.0599C65.2645 35.9932 65.8211 34.8199 66.4611 33.5399C67.1011 32.2599 67.7678 30.9532 68.4611 29.6199C69.1278 28.2865 69.8345 26.9532 70.5811 25.6199C71.3278 24.2865 72.0345 23.0232 72.7011 21.8299C73.3678 20.4965 73.9611 19.3732 74.4811 18.4599C74.8873 17.7117 75.4144 17.036 76.0411 16.4599C76.5451 16.0123 77.1797 15.7389 77.8511 15.6799C78.719 15.6477 79.5858 15.7695 80.4111 16.0399C81.6311 16.3665 82.9178 16.7532 84.2711 17.1999C85.6318 17.647 86.9671 18.1677 88.2711 18.7599C88.9742 19.0265 89.5544 19.5427 89.9011 20.2099C90.1156 20.9719 90.0591 21.7848 89.7411 22.5099C89.2945 23.9099 88.7878 25.5132 88.2211 27.3199C87.6545 29.1265 87.0678 31.0199 86.4611 32.9999C85.8811 34.9999 85.3011 37.0199 84.7211 39.0599C84.1411 41.0999 83.5911 43.0599 83.0711 44.9399C82.5511 46.8132 82.0845 48.5365 81.6711 50.1099C81.2578 51.6832 80.9245 52.9899 80.6711 54.0299C80.5381 54.4621 80.309 54.8586 80.0011 55.1899C79.7345 55.4299 79.2145 55.4599 78.4411 55.2799C77.6678 55.0999 76.9678 54.9232 76.3411 54.7499C75.6817 54.5717 75.0444 54.3201 74.4411 53.9999C74.1445 53.9048 73.8703 53.7503 73.6355 53.5457C73.4006 53.3411 73.2099 53.0908 73.0751 52.8099C72.9403 52.5291 72.8643 52.2238 72.8515 51.9125C72.8388 51.6013 72.8897 51.2907 73.0011 50.9999C73.1211 50.1065 73.3145 48.9532 73.5811 47.5399C73.8478 46.1265 74.1611 44.5665 74.5211 42.8599C74.8811 41.1532 75.2745 39.3632 75.7011 37.4899C76.1278 35.6165 76.5945 33.8032 77.1011 32.0499C76.2078 33.5965 75.2645 35.2632 74.2711 37.0499C73.2778 38.8365 72.3111 40.6199 71.3711 42.3999C70.4378 44.1532 69.5745 45.8199 68.7811 47.3999C67.9878 48.9799 67.3578 50.2799 66.8911 51.2999C66.7445 51.6265 66.6178 51.8865 66.5111 52.0799C66.4249 52.2517 66.2936 52.3969 66.1311 52.4999C65.9533 52.5985 65.7544 52.6534 65.5511 52.6599C65.2342 52.6668 64.9179 52.6298 64.6111 52.5499C63.5558 52.347 62.5139 52.0798 61.4911 51.7499C61.1978 51.6469 60.9135 51.5198 60.6411 51.3699C60.4015 51.2316 60.191 51.0482 60.0211 50.8299C59.8263 50.5803 59.668 50.3041 59.5511 50.0099C59.3903 49.6005 59.2501 49.1833 59.1311 48.7599C58.5378 46.6199 57.9645 44.1532 57.4111 41.3599C56.8578 38.5665 56.3545 35.7032 55.9011 32.7699C55.5145 34.7899 55.1411 36.8099 54.7811 38.8299Z" fill="white"/>
<path d="M94.8405 17.9999C96.4005 17.6399 98.0338 17.3065 99.7405 16.9999C101.447 16.6932 103.2 16.4332 105 16.2199C106.8 15.9932 108.59 15.8532 110.37 15.7999C111.06 15.7043 111.762 15.8516 112.354 16.2165C112.947 16.5814 113.395 17.1412 113.62 17.7999C113.964 18.4121 114.232 19.0635 114.42 19.7399C114.567 20.3199 114.717 20.9499 114.87 21.6299C114.947 21.8886 114.971 22.1602 114.94 22.4283C114.909 22.6964 114.824 22.9554 114.69 23.1899C114.215 23.5514 113.638 23.7543 113.04 23.7699L107.51 24.3899C105.61 24.5965 103.61 24.8499 101.51 25.1499C101.064 26.4832 100.647 27.8732 100.26 29.3199C99.8738 30.7665 99.4538 32.2599 99.0005 33.7999C99.8938 33.6799 100.784 33.5899 101.67 33.5299C102.557 33.4699 103.507 33.4265 104.52 33.3999C105.195 33.3436 105.874 33.4183 106.52 33.6199C107.047 33.849 107.474 34.261 107.72 34.7799C108.056 35.3353 108.331 35.9254 108.54 36.5399C108.734 37.1199 108.904 37.7065 109.05 38.2999C109.197 38.8932 109.22 39.3532 109.12 39.6799C108.676 40.0273 108.142 40.2422 107.58 40.2999C105.8 40.6265 103.98 40.9399 102.12 41.2399C100.26 41.5399 98.4705 41.8732 96.7505 42.2399C96.5105 43.1932 96.2871 44.0932 96.0805 44.9399C95.8738 45.7865 95.6505 46.6265 95.4105 47.4599C96.8038 47.2199 98.1371 47.0265 99.4105 46.8799C100.684 46.7332 102.057 46.6132 103.53 46.5199C104.183 46.4416 104.844 46.503 105.47 46.6999C105.972 46.9152 106.387 47.2917 106.65 47.7699C106.974 48.3006 107.248 48.8596 107.47 49.4399C107.664 49.9599 107.88 50.4865 108.12 51.0199C108.278 51.4147 108.278 51.855 108.12 52.2499C107.974 52.4699 107.497 52.6565 106.69 52.8099L100.9 53.9199C98.9405 54.3065 97.0671 54.6632 95.2805 54.9899C94.409 55.2694 93.4836 55.3379 92.5805 55.1899C92.0197 55.0475 91.486 54.8144 91.0005 54.4999C90.4938 54.1732 90.0105 53.8399 89.5505 53.4999C89.0905 53.1599 88.5471 52.7199 87.9205 52.1799C87.428 51.7785 87.0259 51.2775 86.7405 50.7099C86.4468 50.0691 86.3327 49.3605 86.4105 48.6599L90.5805 18.9999C91.8538 18.6732 93.2738 18.3399 94.8405 17.9999Z" fill="white"/>
<path d="M121.401 49.3499L120.401 54.2499C120.321 54.6254 120.108 54.9593 119.801 55.1899C119.347 55.3454 118.855 55.3454 118.401 55.1899C117.601 54.9833 116.888 54.8199 116.261 54.6999C115.64 54.5825 115.04 54.3736 114.481 54.0799C113.98 53.8188 113.574 53.4058 113.321 52.8999C113.097 52.3107 113.021 51.6753 113.101 51.0499C113.161 50.4233 113.244 49.5166 113.351 48.3299C113.458 47.1433 113.584 45.8099 113.731 44.3299C113.878 42.8299 114.048 41.2166 114.241 39.4899C114.434 37.7633 114.641 36.0399 114.861 34.3199C115.081 32.5999 115.328 30.9333 115.601 29.3199C115.874 27.7066 116.158 26.2499 116.451 24.9499C116.693 23.8537 117.028 22.7798 117.451 21.7399C117.646 21.1098 118.034 20.5569 118.561 20.1599C120.401 19.3266 122.324 18.5099 124.331 17.7099C126.243 16.9332 128.23 16.3567 130.261 15.9899C132.086 15.6498 133.956 15.6193 135.791 15.8999C137.523 16.1793 139.122 16.9982 140.361 18.2399C141.402 19.3702 142.349 20.5843 143.191 21.8699C144.116 23.3318 144.792 24.9369 145.191 26.6199C145.612 28.2562 145.453 29.9877 144.741 31.5199C143.502 33.7917 141.736 35.7328 139.591 37.1799C136.899 39.0745 134.021 40.6895 131.001 41.9999C131.668 42.7733 132.418 43.5899 133.251 44.4499C134.084 45.3099 134.911 46.1599 135.731 46.9999C136.591 47.8599 137.444 48.6933 138.291 49.4999C139.138 50.3066 139.931 51.0066 140.671 51.5999C141.264 52.1066 141.531 52.5066 141.471 52.7999C141.339 53.1945 141.069 53.5282 140.711 53.7399C140.318 54.0839 139.853 54.3366 139.351 54.4799L138.001 54.6999C137.297 54.8839 136.565 54.9381 135.841 54.8599C134.866 54.729 133.931 54.3878 133.101 53.8599C132.434 53.3866 131.648 52.7933 130.741 52.0799C129.834 51.3666 128.921 50.5599 128.001 49.6599C127.048 48.7999 126.098 47.8999 125.151 46.9599C124.236 46.0657 123.371 45.1208 122.561 44.1299C122.134 45.9499 121.748 47.6899 121.401 49.3499ZM125.921 30.8999C125.474 32.6266 124.968 34.4699 124.401 36.4299C126.315 35.8096 128.148 34.9637 129.861 33.9099C131.292 33.0479 132.633 32.0427 133.861 30.9099C134.787 30.072 135.57 29.0892 136.181 27.9999C136.607 27.3735 136.768 26.6047 136.631 25.8599C136.278 25.0266 135.221 24.6099 133.461 24.6099C132.503 24.6198 131.549 24.7236 130.611 24.9199C129.466 25.1645 128.357 25.5544 127.311 26.0799C126.838 27.5666 126.378 29.1733 125.931 30.8999H125.921Z" fill="white"/>
<path d="M169.77 46.5899C169.761 47.4125 169.522 48.2161 169.08 48.9099C168.533 49.9853 167.832 50.9756 167 51.8499C166.243 52.6744 165.405 53.4214 164.5 54.0799C164.027 54.3773 163.529 54.6316 163.01 54.8399C162.417 55.0818 161.805 55.2758 161.18 55.4199C160.522 55.5702 159.853 55.6738 159.18 55.7299C158.515 55.7869 157.846 55.7869 157.18 55.7299C155.896 55.659 154.624 55.4409 153.39 55.0799C152.264 54.7399 151.264 54.4066 150.39 54.0799C149.525 53.7158 148.714 53.2347 147.98 52.6499C147.21 52.0633 146.573 51.3204 146.11 50.4699C145.289 49.0934 144.727 47.5786 144.45 45.9999C144.133 44.1613 144.023 42.2931 144.12 40.4299C144.221 38.3707 144.512 36.3253 144.99 34.3199C145.473 32.221 146.142 30.1695 146.99 28.1899C147.843 26.2161 148.881 24.3277 150.09 22.5499C151.256 20.8244 152.641 19.2579 154.21 17.8899C155.295 16.9073 156.592 16.1886 158 15.7899C159.175 15.4709 160.395 15.3493 161.61 15.4299C162.483 15.5265 163.349 15.6836 164.2 15.8999C165.078 16.1169 165.943 16.384 166.79 16.6999C167.594 16.9916 168.382 17.3254 169.15 17.6999C169.838 18.0421 170.505 18.4227 171.15 18.8399C171.66 19.2615 172.129 19.7302 172.55 20.2399C172.901 20.6696 173.2 21.1396 173.44 21.6399C173.663 22.1132 173.821 22.6144 173.91 23.1299C174.003 23.6825 174.064 24.2401 174.09 24.7999C174.127 25.5128 174.127 26.227 174.09 26.9399C174.044 27.6799 173.977 28.4166 173.89 29.1499C173.804 29.8832 173.684 30.5799 173.53 31.2399C173.398 31.8512 173.234 32.4553 173.04 33.0499C172.954 33.2899 172.864 33.5132 172.77 33.7199C172.691 33.915 172.559 34.0844 172.39 34.2099C172.183 34.3425 171.945 34.4184 171.7 34.4299C171.298 34.4522 170.895 34.422 170.5 34.3399C169.657 34.1933 168.834 33.9448 168.05 33.5999C167.428 33.3282 166.857 32.9528 166.36 32.4899C165.916 32.0623 165.553 31.5574 165.29 30.9999C165.001 30.3648 164.806 29.6911 164.71 28.9999C164.626 28.4237 164.582 27.8422 164.58 27.2599C164.615 26.3977 164.572 25.5342 164.45 24.6799C164.43 24.3522 164.32 24.0366 164.131 23.7681C163.942 23.4997 163.682 23.2891 163.38 23.1599C162.787 22.9799 162.087 23.3132 161.28 24.1599C160.351 25.1967 159.53 26.3259 158.83 27.5299C157.952 29.0012 157.171 30.5277 156.49 32.0999C155.818 33.6081 155.243 35.158 154.77 36.7399C154.389 38.2005 154.098 39.6833 153.9 41.1799C153.714 42.5046 153.647 43.8433 153.7 45.1799C153.728 46.2211 153.924 47.251 154.28 48.2299C154.38 48.5788 154.562 48.8987 154.811 49.1631C155.06 49.4275 155.368 49.6287 155.71 49.7499C156.897 50.1366 158.71 49.0799 161.15 46.5799C162.897 44.8599 165.18 44.4032 168 45.2099C169.134 45.5032 169.724 45.9632 169.77 46.5899Z" fill="white"/>
<path d="M187.419 47.0599C185.446 47.3256 183.489 47.7063 181.559 48.1999C180.966 49.3599 180.446 50.4366 179.999 51.4299C179.553 52.4233 179.123 53.3966 178.709 54.3499C178.638 54.5529 178.524 54.7378 178.373 54.8915C178.223 55.0453 178.041 55.1642 177.839 55.2399C177.314 55.3025 176.781 55.2194 176.299 54.9999L174.999 54.4999C174.539 54.3066 174.073 54.0899 173.599 53.8499L172.659 53.2499C172.39 53.0994 172.167 52.8783 172.014 52.6106C171.86 52.3428 171.783 52.0384 171.789 51.7299C171.797 51.2235 171.881 50.7211 172.039 50.2399C172.753 48.1933 173.683 45.7866 174.829 43.0199C175.976 40.2533 177.209 37.3999 178.529 34.4599C179.863 31.5199 181.216 28.6166 182.589 25.7499C183.963 22.8833 185.276 20.3366 186.529 18.1099C186.948 17.3187 187.544 16.6344 188.269 16.1099C189.226 15.5523 190.347 15.3471 191.439 15.5299C192.659 15.5899 193.743 15.6866 194.689 15.8199C195.636 15.9533 196.506 16.1099 197.299 16.2899C198.086 16.4699 198.813 16.6633 199.479 16.8699C200.146 17.0766 200.813 17.2699 201.479 17.4499C202.213 17.6324 202.845 18.0957 203.239 18.7399C203.51 19.4048 203.596 20.1302 203.489 20.8399C203.309 22.9533 203.159 25.3766 203.039 28.1099C202.919 30.8433 202.829 33.6966 202.769 36.6699C202.709 39.6433 202.673 42.6233 202.659 45.6099C202.646 48.5966 202.646 51.3666 202.659 53.9199C202.681 54.1176 202.663 54.3177 202.607 54.5083C202.55 54.6989 202.456 54.8763 202.329 55.0299C201.88 55.2935 201.357 55.4025 200.839 55.3399C200.066 55.3399 199.353 55.3166 198.699 55.2699C198.017 55.2196 197.344 55.0784 196.699 54.8499C196.138 54.726 195.623 54.4491 195.209 54.0499C194.857 53.5343 194.65 52.9333 194.609 52.3099C194.489 51.4499 194.386 50.5066 194.299 49.4799C194.213 48.4533 194.123 47.3299 194.029 46.1099L187.419 47.0599ZM189.599 39.3699C190.933 39.2233 192.293 39.1033 193.679 39.0099C193.619 36.5766 193.576 34.1466 193.549 31.7199C193.523 29.2933 193.523 26.8933 193.549 24.5199C192.363 26.6866 191.076 29.0866 189.689 31.7199C188.303 34.3533 186.913 37.0799 185.519 39.8999C186.893 39.6933 188.253 39.5166 189.599 39.3699Z" fill="white"/>
<path d="M212.202 17.4998C213.787 16.9361 215.421 16.5177 217.082 16.2498C218.827 15.9673 220.596 15.8634 222.362 15.9398C224.143 16.0021 225.904 16.3395 227.582 16.9398C229.288 17.5634 230.867 18.4918 232.242 19.6798C233.768 21.0326 234.998 22.6875 235.852 24.5398C236.694 26.181 237.223 27.9648 237.412 29.7998C237.617 31.7582 237.506 33.7369 237.082 35.6598C236.619 37.756 235.861 39.776 234.832 41.6598C233.712 43.7194 232.308 45.6113 230.662 47.2798C228.847 49.1129 226.8 50.6998 224.572 51.9998C222.064 53.4618 219.374 54.5849 216.572 55.3398C215.792 55.6041 214.966 55.7049 214.145 55.6361C213.325 55.5673 212.527 55.3303 211.802 54.9398C211.054 54.5686 210.326 54.158 209.622 53.7098C208.995 53.3098 208.282 52.8132 207.482 52.2198L206.632 51.4398C206.362 51.1833 206.13 50.8905 205.942 50.5698C205.735 50.1998 205.606 49.7915 205.562 49.3698C205.49 48.762 205.49 48.1477 205.562 47.5398L208.152 19.2298C209.454 18.5462 210.808 17.9677 212.202 17.4998ZM220.202 44.8298C221.754 43.5662 223.132 42.1036 224.302 40.4798C225.311 39.0813 226.122 37.5502 226.712 35.9298C227.214 34.5686 227.53 33.1457 227.652 31.6998C227.835 30.2564 227.62 28.7905 227.032 27.4598C226.411 26.3794 225.409 25.5699 224.222 25.1898C222.615 24.6912 220.887 24.7547 219.322 25.3698C218.282 29.2632 217.362 33.1032 216.562 36.8898C215.762 40.6765 214.988 44.5032 214.242 48.3698C216.377 47.4837 218.371 46.2912 220.162 44.8298H220.202Z" fill="white"/>
<path d="M266.761 22.2702C267.308 23.3757 267.692 24.5546 267.901 25.7702C268.232 28.1117 268.306 30.4825 268.121 32.8402C267.94 35.4044 267.501 37.9439 266.811 40.4202C266.143 42.8877 265.2 45.2727 264.001 47.5302C262.869 49.6656 261.365 51.5823 259.561 53.1902C258.446 54.059 257.156 54.6765 255.781 55.0002C254.303 55.3203 252.781 55.3879 251.281 55.2001C250.112 55.0739 248.95 54.887 247.801 54.6402C246.671 54.4072 245.578 54.0238 244.551 53.5002C243.707 53.0569 242.915 52.5202 242.191 51.9002C241.444 51.2799 240.823 50.5231 240.361 49.6702C239.615 48.2051 239.076 46.6435 238.761 45.0302C238.398 43.2403 238.234 41.416 238.271 39.5902C238.344 35.6033 239.186 31.668 240.751 28.0002C241.564 26.1247 242.569 24.3385 243.751 22.6702C244.918 21.0002 246.289 19.4819 247.831 18.1502C248.943 17.3099 250.206 16.6889 251.551 16.3202C252.884 15.9135 254.291 15.8077 255.671 16.0102C257.321 16.2667 258.942 16.6854 260.511 17.2602C261.881 17.738 263.167 18.4299 264.321 19.3102C265.332 20.1157 266.163 21.124 266.761 22.2702ZM255.001 24.5902C254.101 25.4856 253.321 26.494 252.681 27.5902C251.863 28.9272 251.141 30.3207 250.521 31.7602C249.883 33.204 249.339 34.687 248.891 36.2002C248.473 37.6057 248.175 39.0442 248.001 40.5002C247.826 41.8896 247.766 43.2909 247.821 44.6902C247.848 45.8229 248.057 46.9439 248.441 48.0102C248.549 48.3958 248.747 48.7506 249.018 49.0459C249.289 49.3411 249.626 49.5687 250.001 49.7102C250.341 49.8152 250.702 49.8336 251.051 49.7637C251.401 49.6939 251.727 49.538 252.001 49.3102C252.788 48.7006 253.465 47.9597 254.001 47.1202C254.791 45.9827 255.461 44.7662 256.001 43.4902C256.638 41.9629 257.166 40.3923 257.581 38.7902C257.992 37.2751 258.306 35.7353 258.521 34.1802C258.75 32.6238 258.87 31.0533 258.881 29.4802C258.905 28.1974 258.764 26.9168 258.461 25.6702C258.181 24.6168 257.744 24.0002 257.151 23.8202C256.557 23.6402 255.841 23.8968 255.001 24.5902Z" fill="white"/>
<path d="M311.999 23.6499L307.769 24.0699L305.829 31.83C305.162 34.4966 304.515 37.1633 303.889 39.8299C303.262 42.4966 302.675 45.06 302.129 47.52C301.582 50.0133 301.099 52.3466 300.679 54.5199C300.674 54.6791 300.633 54.8352 300.561 54.977C300.488 55.1187 300.385 55.2427 300.259 55.3399C299.979 55.4857 299.663 55.5482 299.349 55.5199C298.894 55.4913 298.444 55.4073 298.009 55.2699L296.319 54.7799C295.745 54.6181 295.181 54.4244 294.629 54.1999C294.167 54.0181 293.737 53.7613 293.359 53.4399C293.033 53.1731 292.779 52.8295 292.619 52.4399C292.481 51.9664 292.481 51.4635 292.619 50.9899C292.705 49.5633 292.885 47.8099 293.159 45.7299C293.432 43.65 293.765 41.45 294.159 39.13C294.532 36.81 294.942 34.4766 295.389 32.1299C295.835 29.7833 296.282 27.5899 296.729 25.5499C295.869 25.6966 295.035 25.8233 294.229 25.9299C293.554 26.0107 292.886 26.1377 292.229 26.3099C291.634 26.4863 291.005 26.5103 290.399 26.3799C289.776 26.1439 289.225 25.7512 288.799 25.2399C288.08 24.514 287.473 23.6848 286.999 22.7799C286.479 21.8266 286.055 21.0233 285.729 20.3699C285.402 19.7166 285.312 19.2599 285.459 18.9999C285.765 18.7075 286.152 18.5127 286.569 18.4399C288.322 18.0866 290.322 17.7533 292.569 17.4399C294.815 17.1266 297.075 16.8599 299.349 16.6399C301.649 16.3999 303.909 16.1999 306.129 16.0399C308.349 15.8799 310.349 15.7699 312.129 15.7099C312.805 15.6747 313.482 15.7593 314.129 15.9599C314.529 16.1448 314.873 16.4309 315.129 16.7899C315.69 17.4621 316.161 18.2052 316.529 18.9999C316.897 19.7576 317.195 20.5476 317.419 21.3599C317.594 21.8102 317.594 22.3097 317.419 22.7599C317.252 23.0133 316.709 23.1699 315.789 23.2299L311.999 23.6499Z" fill="white"/>
<path d="M328.101 53.83C326.101 54.2034 324.221 54.5667 322.461 54.92C321.922 55.0763 321.37 55.1801 320.811 55.23C320.423 55.2623 320.032 55.2387 319.651 55.16C319.366 55.0995 319.09 55.002 318.831 54.87C318.606 54.7511 318.389 54.6174 318.181 54.47C317.702 54.1631 317.242 53.8293 316.801 53.47C316.388 53.13 315.838 52.69 315.151 52.15C314.672 51.768 314.277 51.2914 313.991 50.75C313.714 50.1606 313.637 49.4972 313.771 48.86C313.858 47.7 314.008 46.3267 314.221 44.74C314.434 43.1534 314.688 41.4367 314.981 39.59C315.281 37.75 315.614 35.84 315.981 33.86C316.348 31.88 316.724 29.9267 317.111 28C317.524 26.04 317.948 24.1534 318.381 22.34C318.814 20.5267 319.238 18.86 319.651 17.34C319.944 16.48 320.324 15.9667 320.791 15.8C321.482 15.6495 322.202 15.7052 322.861 15.96C323.881 16.2285 324.884 16.5625 325.861 16.96C326.845 17.3465 327.786 17.8324 328.671 18.41C329.261 18.7816 329.758 19.2847 330.121 19.88C330.308 20.4662 330.269 21.1014 330.011 21.66C329.418 23.44 328.814 25.4 328.201 27.54C327.588 29.68 326.978 31.88 326.371 34.14C325.764 36.4 325.184 38.65 324.631 40.89C324.078 43.13 323.564 45.2767 323.091 47.33C324.458 47.09 325.734 46.91 326.921 46.79C328.108 46.67 329.401 46.5667 330.801 46.48C331.435 46.4041 332.078 46.4585 332.691 46.64C333.191 46.8668 333.605 47.2491 333.871 47.73C334.216 48.2423 334.507 48.7885 334.741 49.36C334.951 49.8729 335.122 50.4011 335.251 50.94C335.438 51.3286 335.494 51.767 335.411 52.19C335.304 52.3967 334.791 52.59 333.871 52.77L328.101 53.83Z" fill="white"/>
<path d="M352.439 47.0599C350.466 47.3256 348.509 47.7063 346.579 48.1999C345.986 49.3599 345.466 50.4366 345.019 51.4299C344.573 52.4233 344.143 53.3966 343.729 54.3499C343.658 54.5529 343.544 54.7378 343.393 54.8915C343.243 55.0453 343.061 55.1642 342.859 55.2399C342.336 55.3087 341.803 55.2326 341.319 55.0199L339.999 54.4999C339.539 54.3066 339.073 54.0899 338.599 53.8499L337.659 53.2499C337.39 53.0994 337.167 52.8783 337.014 52.6106C336.86 52.3428 336.783 52.0384 336.789 51.7299C336.797 51.2235 336.881 50.7211 337.039 50.2399C337.753 48.1933 338.683 45.7866 339.829 43.0199C340.976 40.2533 342.209 37.3999 343.529 34.4599C344.863 31.5199 346.216 28.6166 347.589 25.7499C348.963 22.8833 350.276 20.3366 351.529 18.1099C351.948 17.3187 352.544 16.6344 353.269 16.1099C354.226 15.5523 355.347 15.3471 356.439 15.5299C357.659 15.5899 358.743 15.6866 359.689 15.8199C360.636 15.9533 361.506 16.1099 362.299 16.2899C363.086 16.4699 363.813 16.6633 364.479 16.8699C365.146 17.0766 365.813 17.2699 366.479 17.4499C367.213 17.6324 367.845 18.0957 368.239 18.7399C368.51 19.4048 368.596 20.1302 368.489 20.8399C368.309 22.9533 368.159 25.3766 368.039 28.1099C367.919 30.8433 367.829 33.6966 367.769 36.6699C367.709 39.6433 367.673 42.6233 367.659 45.6099C367.646 48.5966 367.646 51.3666 367.659 53.9199C367.681 54.1176 367.663 54.3177 367.607 54.5083C367.55 54.6989 367.456 54.8763 367.329 55.0299C366.88 55.2935 366.357 55.4025 365.839 55.3399C365.066 55.3399 364.353 55.3166 363.699 55.2699C363.017 55.2196 362.344 55.0784 361.699 54.8499C361.138 54.726 360.623 54.4491 360.209 54.0499C359.857 53.5343 359.65 52.9333 359.609 52.3099C359.489 51.4499 359.386 50.5066 359.299 49.4799C359.213 48.4533 359.123 47.3299 359.029 46.1099L352.439 47.0599ZM354.619 39.3699C355.953 39.2233 357.313 39.1033 358.699 39.0099C358.639 36.5766 358.596 34.1466 358.569 31.7199C358.543 29.2933 358.543 26.8933 358.569 24.5199C357.383 26.6866 356.096 29.0866 354.709 31.7199C353.323 34.3533 351.933 37.0799 350.539 39.8999C351.906 39.6933 353.266 39.5166 354.619 39.3699Z" fill="white"/>
<path d="M397.79 54.0799C397.73 54.3799 397.417 54.6633 396.85 54.9299C396.343 55.215 395.806 55.4463 395.25 55.6199C394.717 55.7799 394.184 55.9199 393.65 56.0399C393.051 56.1573 392.434 56.1421 391.841 55.9952C391.249 55.8484 390.695 55.5735 390.22 55.1899C390.096 55.0606 389.962 54.9403 389.82 54.8299C389.692 54.7332 389.558 54.6431 389.42 54.5599C388.564 54.9519 387.641 55.1792 386.7 55.2299C385.675 55.2887 384.646 55.2887 383.62 55.2299C382.435 55.1393 381.258 54.9588 380.1 54.6899C378.986 54.4388 377.908 54.0491 376.89 53.5299C376.046 53.0867 375.255 52.55 374.53 51.9299C373.784 51.3097 373.163 50.5529 372.7 49.6999C371.955 48.2349 371.416 46.6733 371.1 45.0599C370.737 43.2704 370.58 41.4452 370.63 39.6199C370.681 37.664 370.906 35.7163 371.3 33.7999C372.114 29.8125 373.737 26.0345 376.07 22.6999C377.244 21.0223 378.628 19.5031 380.19 18.1799C381.285 17.3344 382.535 16.7126 383.87 16.3499C385.204 15.9433 386.611 15.8374 387.99 16.0399C389.641 16.2965 391.262 16.7152 392.83 17.2899C394.201 17.7678 395.487 18.4597 396.64 19.3399C397.656 20.1224 398.485 21.1195 399.07 22.2599C399.588 23.373 399.954 24.55 400.16 25.7599C400.464 27.721 400.575 29.7072 400.49 31.6899C400.412 33.8613 400.151 36.0223 399.71 38.1499C399.268 40.3115 398.636 42.4298 397.82 44.4799C397.046 46.4459 396.017 48.3017 394.76 49.9999C395.206 50.469 395.62 50.9667 396 51.4899C396.35 51.9743 396.731 52.4353 397.14 52.8699C397.634 53.3766 397.85 53.7799 397.79 54.0799ZM383.73 48.6399L383.22 47.9699C382.447 47.1366 382.61 46.4699 383.71 45.9699C384.272 45.6805 384.862 45.4493 385.47 45.2799C386.211 45.0714 386.962 44.9012 387.72 44.7699C388.707 42.8831 389.411 40.8615 389.81 38.7699C390.127 37.6787 390.381 36.5702 390.57 35.4499C390.777 34.2433 390.934 33.0466 391.04 31.8599C391.143 30.733 391.173 29.6007 391.13 28.4699C391.104 27.5418 390.994 26.618 390.8 25.7099C390.723 25.0481 390.402 24.4388 389.9 23.9999C389.691 23.8595 389.449 23.7772 389.198 23.7614C388.946 23.7455 388.695 23.7968 388.47 23.9099C387.808 24.2282 387.221 24.6852 386.75 25.2499C386.098 25.9939 385.513 26.7936 385 27.6399C383.769 29.6004 382.762 31.6937 382 33.8799C381.253 36.0616 380.678 38.2985 380.28 40.5699C380.163 41.6358 380.109 42.7077 380.12 43.7799C380.128 44.6986 380.212 45.6151 380.37 46.5199C380.483 47.24 380.724 47.9342 381.08 48.5699C381.359 49.0782 381.799 49.4793 382.33 49.7099C382.673 49.8224 383.04 49.8399 383.392 49.7607C383.745 49.6814 384.069 49.5084 384.33 49.2599C384.111 49.0725 383.911 48.8649 383.73 48.6399Z" fill="white"/>
<path d="M401.831 46.2998C401.538 44.7337 401.398 43.143 401.411 41.5498C401.42 39.7175 401.54 37.8875 401.771 36.0698C402.011 34.1365 402.324 32.1765 402.711 30.1898C403.098 28.2031 403.534 26.2031 404.021 24.1898C404.514 22.1898 405.028 20.2365 405.561 18.3298C405.801 17.4698 406.134 16.9498 406.561 16.7698C407.273 16.6089 408.018 16.6862 408.681 16.9898C409.562 17.2462 410.419 17.5809 411.241 17.9898C412.072 18.4161 412.868 18.9076 413.621 19.4598C414.358 19.9085 414.923 20.5932 415.222 21.4027C415.522 22.2122 415.539 23.0992 415.271 23.9198C414.798 25.4665 414.301 27.1331 413.781 28.9198C413.261 30.7065 412.778 32.5265 412.331 34.3798C411.884 36.2198 411.504 38.0165 411.191 39.7698C410.901 41.3332 410.708 42.9128 410.611 44.4998C410.519 45.6644 410.593 46.8361 410.831 47.9798C410.875 48.3506 411.022 48.7017 411.255 48.9934C411.489 49.285 411.799 49.5054 412.151 49.6298C412.951 49.8365 413.738 49.4498 414.511 48.4698C415.433 47.2189 416.177 45.8457 416.721 44.3898C417.495 42.4271 418.162 40.4242 418.721 38.3898C419.388 36.1031 419.981 33.7498 420.501 31.3298C421.021 28.9098 421.521 26.5231 422.001 24.1698C422.448 21.8231 422.848 19.7265 423.201 17.8798C423.261 16.9865 423.594 16.4531 424.201 16.2798C424.914 16.1045 425.661 16.1287 426.361 16.3498C427.303 16.6095 428.215 16.9682 429.081 17.4198C430.048 17.9131 430.931 18.3965 431.731 18.8698C432.09 19.0799 432.425 19.328 432.731 19.6098C432.934 19.8042 433.095 20.0393 433.201 20.2998C433.292 20.5491 433.323 20.8163 433.291 21.0798C433.251 21.4164 433.191 21.7503 433.111 22.0798C432.218 26.3331 431.318 30.2331 430.411 33.7798C429.617 36.9703 428.659 40.1178 427.541 43.2098C426.692 45.6121 425.586 47.9155 424.241 50.0798C423.249 51.7155 421.877 53.0877 420.241 54.0798C419.25 54.5506 418.201 54.8869 417.121 55.0798C415.942 55.2811 414.743 55.3348 413.551 55.2398C411.254 55.1638 409.002 54.587 406.951 53.5498C406.206 53.132 405.506 52.6394 404.861 52.0798C404.19 51.4863 403.626 50.7829 403.191 49.9998C402.528 48.8542 402.067 47.6024 401.831 46.2998Z" fill="white"/>
<path d="M439.628 17.9999C441.188 17.6399 442.822 17.3065 444.528 16.9999C446.235 16.6932 447.988 16.4332 449.788 16.2199C451.588 15.9932 453.378 15.8532 455.158 15.7999C455.848 15.7043 456.549 15.8516 457.142 16.2165C457.735 16.5814 458.183 17.1412 458.408 17.7999C458.752 18.4121 459.02 19.0635 459.208 19.7399C459.355 20.3199 459.505 20.9499 459.658 21.6299C459.735 21.8886 459.759 22.1602 459.728 22.4283C459.697 22.6964 459.612 22.9554 459.478 23.1899C459.003 23.5514 458.425 23.7543 457.828 23.7699L452.298 24.3899C450.398 24.5965 448.398 24.8499 446.298 25.1499C445.852 26.4832 445.435 27.8732 445.048 29.3199C444.662 30.7665 444.232 32.2732 443.758 33.8399C444.652 33.7199 445.542 33.6299 446.428 33.5699C447.315 33.5099 448.265 33.4665 449.278 33.4399C449.953 33.3836 450.632 33.4583 451.278 33.6599C451.805 33.889 452.231 34.301 452.478 34.8199C452.814 35.3753 453.089 35.9654 453.298 36.5799C453.492 37.1599 453.662 37.7465 453.808 38.3399C453.955 38.9332 453.978 39.3932 453.878 39.7199C453.433 40.0673 452.9 40.2822 452.338 40.3399C450.558 40.6665 448.738 40.9799 446.878 41.2799C445.018 41.5799 443.228 41.9132 441.508 42.2799C441.268 43.2332 441.045 44.1332 440.838 44.9799C440.632 45.8265 440.408 46.6665 440.168 47.4999C441.562 47.2599 442.895 47.0665 444.168 46.9199C445.442 46.7732 446.815 46.6532 448.288 46.5599C448.94 46.4816 449.602 46.543 450.228 46.7399C450.73 46.9552 451.145 47.3317 451.408 47.8099C451.732 48.3406 452.006 48.8996 452.228 49.4799C452.422 49.9999 452.638 50.5265 452.878 51.0599C453.036 51.4547 453.036 51.895 452.878 52.2899C452.732 52.5099 452.255 52.6965 451.448 52.8499L445.658 53.9599C443.698 54.3465 441.825 54.7032 440.038 55.0299C439.167 55.3094 438.241 55.3779 437.338 55.2299C436.778 55.0875 436.244 54.8544 435.758 54.5399C435.252 54.2132 434.768 53.8799 434.308 53.5399C433.848 53.1999 433.305 52.7599 432.678 52.2199C432.186 51.8185 431.784 51.3175 431.498 50.7499C431.205 50.1091 431.09 49.4005 431.168 48.6999L435.368 18.9999C436.648 18.6732 438.068 18.3399 439.628 17.9999Z" fill="white"/>
<path d="M466.512 49.8898C466.198 51.4632 465.925 53.0098 465.692 54.5298C465.611 54.9102 465.39 55.246 465.072 55.4698C464.564 55.6276 464.02 55.6276 463.512 55.4698L461.262 54.8698C460.587 54.6964 459.935 54.4411 459.322 54.1098C458.781 53.8422 458.324 53.4304 458.002 52.9198C457.708 52.3409 457.65 51.6703 457.842 51.0498C458.21 49.8746 458.458 48.6651 458.582 47.4398C458.802 45.7465 459.002 43.8232 459.182 41.6698C459.362 39.5165 459.538 37.2798 459.712 34.9598C459.892 32.6398 460.072 30.4998 460.252 28.5398C460.432 26.5798 460.632 24.9365 460.852 23.6098C461.072 22.2765 461.332 21.5398 461.632 21.3998C462.758 20.8065 464.005 20.1898 465.372 19.5498C466.738 18.9098 468.148 18.3298 469.602 17.8098C471.043 17.2961 472.512 16.8654 474.002 16.5198C475.413 16.1976 476.854 16.0234 478.302 15.9998C479.588 15.9611 480.873 16.1196 482.112 16.4698C483.258 16.7969 484.305 17.4014 485.162 18.2298C486.181 19.3684 487.114 20.5818 487.952 21.8598C488.876 23.3217 489.552 24.9268 489.952 26.6098C490.353 28.2398 490.173 29.9588 489.442 31.4698C489.087 32.1821 488.654 32.8528 488.152 33.4698C487.615 34.1419 487.041 34.783 486.432 35.3898C485.318 36.4835 484.103 37.468 482.802 38.3298C481.314 39.3192 479.764 40.211 478.162 40.9998C476.459 41.8477 474.709 42.5989 472.922 43.2498C471.095 43.9165 469.288 44.4898 467.502 44.9698C467.168 46.6765 466.838 48.3165 466.512 49.8898ZM475.002 34.1698C476.411 33.3295 477.714 32.3222 478.882 31.1698C479.771 30.3082 480.497 29.2916 481.022 28.1698C481.419 27.4314 481.516 26.5679 481.292 25.7598C481.205 25.4065 480.872 25.1332 480.292 24.9398C479.613 24.7285 478.901 24.6438 478.192 24.6898C477.231 24.7346 476.277 24.8685 475.342 25.0898C474.234 25.3458 473.153 25.704 472.112 26.1598C471.638 27.7665 471.185 29.4332 470.752 31.1598C470.318 32.8865 469.882 34.6832 469.442 36.5498C471.387 35.991 473.255 35.1915 475.002 34.1698Z" fill="white"/>
<path d="M502.75 47.0602C500.776 47.3259 498.819 47.7065 496.89 48.2002C496.296 49.3602 495.776 50.4368 495.33 51.4302C494.883 52.4235 494.44 53.3968 494 54.3502C493.929 54.5531 493.814 54.738 493.664 54.8918C493.513 55.0456 493.331 55.1645 493.13 55.2402C492.606 55.309 492.073 55.2329 491.59 55.0202L490.32 54.5102C489.86 54.3168 489.393 54.1002 488.92 53.8602L487.98 53.2602C487.711 53.1096 487.487 52.8886 487.334 52.6208C487.181 52.3531 487.103 52.0486 487.11 51.7402C487.117 51.2337 487.201 50.7313 487.36 50.2502C488.073 48.2035 489.003 45.7968 490.15 43.0302C491.296 40.2635 492.53 37.4102 493.85 34.4702C495.183 31.5302 496.536 28.6268 497.91 25.7602C499.283 22.8935 500.596 20.3468 501.85 18.1202C502.269 17.3289 502.864 16.6446 503.59 16.1202C504.546 15.5626 505.668 15.3574 506.76 15.5402C507.98 15.6002 509.063 15.6968 510.01 15.8302C510.956 15.9635 511.826 16.1202 512.62 16.3002C513.406 16.4802 514.133 16.6735 514.8 16.8802C515.466 17.0868 516.133 17.2802 516.8 17.4602C517.533 17.6427 518.165 18.106 518.56 18.7502C518.83 19.4151 518.916 20.1404 518.81 20.8502C518.63 22.9635 518.48 25.3868 518.36 28.1202C518.24 30.8535 518.15 33.7068 518.09 36.6802C518.03 39.6535 517.993 42.6335 517.98 45.6202C517.966 48.6068 517.966 51.3768 517.98 53.9302C518.002 54.1279 517.984 54.3279 517.927 54.5185C517.87 54.7092 517.776 54.8865 517.65 55.0402C517.2 55.3038 516.677 55.4127 516.16 55.3502C515.386 55.3502 514.673 55.3268 514.02 55.2802C513.337 55.2299 512.665 55.0886 512.02 54.8602C511.459 54.7363 510.943 54.4594 510.53 54.0602C510.177 53.5445 509.97 52.9435 509.93 52.3202C509.81 51.4602 509.706 50.5168 509.62 49.4902C509.533 48.4635 509.443 47.3402 509.35 46.1202L502.75 47.0602ZM504.93 39.3702C506.263 39.2235 507.623 39.1035 509.01 39.0102C508.95 36.5768 508.906 34.1468 508.88 31.7202C508.853 29.2935 508.853 26.8935 508.88 24.5202C507.693 26.6868 506.406 29.0868 505.02 31.7202C503.633 34.3535 502.26 37.0802 500.9 39.9002C502.233 39.6935 503.576 39.5168 504.93 39.3702Z" fill="white"/>
<path d="M548.101 54.0802C548.041 54.3802 547.728 54.6635 547.161 54.9302C546.653 55.2153 546.117 55.4466 545.561 55.6202C545.028 55.7802 544.495 55.9202 543.961 56.0402C543.362 56.1576 542.744 56.1423 542.152 55.9955C541.559 55.8486 541.006 55.5738 540.531 55.1902C540.407 55.0609 540.273 54.9406 540.131 54.8302C540.002 54.7335 539.869 54.6434 539.731 54.5602C538.875 54.9521 537.952 55.1794 537.011 55.2302C535.985 55.289 534.957 55.289 533.931 55.2302C532.746 55.1395 531.569 54.959 530.411 54.6902C529.297 54.4391 528.219 54.0493 527.201 53.5302C526.357 53.0869 525.565 52.5502 524.841 51.9302C524.092 51.3139 523.468 50.5604 523.001 49.7102C522.255 48.2452 521.717 46.6836 521.401 45.0702C521.038 43.2806 520.88 41.4555 520.931 39.6302C520.982 37.6742 521.206 35.7266 521.601 33.8102C522.415 29.8227 524.038 26.0447 526.371 22.7102C527.544 21.0325 528.929 19.5133 530.491 18.1902C531.586 17.3446 532.836 16.7228 534.171 16.3602C535.505 15.9536 536.912 15.8477 538.291 16.0502C539.942 16.3068 541.563 16.7255 543.131 17.3002C544.501 17.778 545.787 18.4699 546.941 19.3502C547.956 20.1326 548.786 21.1297 549.371 22.2702C549.888 23.3833 550.255 24.5603 550.461 25.7702C550.765 27.7313 550.876 29.7175 550.791 31.7002C550.713 33.8716 550.452 36.0325 550.011 38.1602C549.569 40.3218 548.937 42.44 548.121 44.4902C547.349 46.4521 546.324 48.3045 545.071 50.0002C545.512 50.4631 545.923 50.9542 546.301 51.4702C546.651 51.9545 547.032 52.4155 547.441 52.8502C547.941 53.3702 548.161 53.7802 548.101 54.0802ZM534.001 48.6402L533.491 47.9702C532.718 47.1369 532.881 46.4702 533.981 45.9702C534.543 45.6808 535.132 45.4495 535.741 45.2802C536.482 45.0717 537.233 44.9015 537.991 44.7702C538.978 42.8834 539.682 40.8618 540.081 38.7702C540.398 37.6789 540.651 36.5704 540.841 35.4502C541.048 34.2435 541.204 33.0469 541.311 31.8602C541.414 30.7333 541.444 29.601 541.401 28.4702C541.375 27.5421 541.265 26.6183 541.071 25.7102C541.008 25.032 540.69 24.403 540.181 23.9502C539.972 23.8098 539.73 23.7274 539.478 23.7116C539.227 23.6958 538.976 23.7471 538.751 23.8602C538.088 24.1785 537.502 24.6354 537.031 25.2002C536.356 25.9544 535.751 26.7677 535.221 27.6302C534.017 29.5943 533.038 31.6874 532.301 33.8702C531.554 36.0519 530.979 38.2887 530.581 40.5602C530.463 41.626 530.41 42.698 530.421 43.7702C530.429 44.6889 530.512 45.6053 530.671 46.5102C530.784 47.2303 531.025 47.9244 531.381 48.5602C531.66 49.0684 532.099 49.4695 532.631 49.7002C532.974 49.8126 533.341 49.8302 533.693 49.7509C534.045 49.6717 534.369 49.4987 534.631 49.2502C534.402 49.0674 534.191 48.8631 534.001 48.6402Z" fill="white"/>
<path d="M552.14 46.3001C551.847 44.7339 551.706 43.1432 551.72 41.5501C551.728 39.7178 551.848 37.8877 552.08 36.0701C552.32 34.1367 552.633 32.1767 553.02 30.1901C553.406 28.2034 553.843 26.2034 554.33 24.1901C554.823 22.1901 555.336 20.2367 555.87 18.3301C556.11 17.4701 556.443 16.9501 556.87 16.7701C557.586 16.61 558.334 16.6909 559 17.0001C559.881 17.2565 560.738 17.5912 561.56 18.0001C562.412 18.4299 563.228 18.9282 564 19.4901C564.737 19.9388 565.301 20.6234 565.601 21.433C565.9 22.2425 565.917 23.1295 565.65 23.9501C565.176 25.4967 564.68 27.1634 564.16 28.9501C563.64 30.7367 563.156 32.5567 562.71 34.4101C562.263 36.2501 561.883 38.0467 561.57 39.8001C561.28 41.3634 561.086 42.9431 560.99 44.5301C560.897 45.6946 560.972 46.8664 561.21 48.0101C561.254 48.3809 561.401 48.732 561.634 49.0236C561.867 49.3152 562.178 49.5357 562.53 49.6601C563.33 49.8667 564.116 49.4801 564.89 48.5001C565.812 47.2492 566.556 45.876 567.1 44.4201C567.873 42.4574 568.541 40.4545 569.1 38.4201C569.766 36.1334 570.36 33.7801 570.88 31.3601C571.4 28.9401 571.896 26.5534 572.37 24.2001C572.816 21.8534 573.216 19.7567 573.57 17.9101C573.63 17.0167 573.963 16.4834 574.57 16.3101C575.282 16.1348 576.03 16.159 576.73 16.3801C577.671 16.6398 578.583 16.9985 579.45 17.4501C580.416 17.9434 581.3 18.4267 582.1 18.9001C582.459 19.1102 582.794 19.3583 583.1 19.6401C583.303 19.8345 583.463 20.0696 583.57 20.3301C583.66 20.5794 583.691 20.8466 583.66 21.1101C583.619 21.4467 583.559 21.7806 583.48 22.1101C582.586 26.3634 581.686 30.2634 580.78 33.8101C579.986 37.0006 579.028 40.1481 577.91 43.2401C577.061 45.6424 575.954 47.9458 574.61 50.1101C573.617 51.7458 572.245 53.118 570.61 54.1101C569.619 54.5808 568.57 54.9171 567.49 55.1101C566.311 55.3113 565.112 55.3651 563.92 55.2701C561.623 55.194 559.37 54.6173 557.32 53.5801C556.575 53.1622 555.875 52.6697 555.23 52.1101C554.535 51.5126 553.949 50.7985 553.5 50.0001C552.836 48.8545 552.376 47.6026 552.14 46.3001Z" fill="white"/>
<path d="M589.939 17.9999C591.499 17.6399 593.132 17.3065 594.839 16.9999C596.545 16.6932 598.299 16.4332 600.099 16.2199C601.899 15.9932 603.689 15.8532 605.469 15.7999C606.158 15.7043 606.86 15.8516 607.453 16.2165C608.046 16.5814 608.493 17.1412 608.719 17.7999C609.062 18.4121 609.331 19.0635 609.519 19.7399C609.665 20.3199 609.815 20.9499 609.969 21.6299C610.045 21.8886 610.069 22.1602 610.038 22.4283C610.007 22.6964 609.922 22.9554 609.789 23.1899C609.313 23.5514 608.736 23.7543 608.139 23.7699L602.609 24.3899C600.709 24.5965 598.709 24.8499 596.609 25.1499C596.162 26.4832 595.745 27.8732 595.359 29.3199C594.972 30.7665 594.542 32.2732 594.069 33.8399C594.962 33.7199 595.852 33.6299 596.739 33.5699C597.625 33.5099 598.575 33.4665 599.589 33.4399C600.263 33.3836 600.942 33.4583 601.589 33.6599C602.116 33.889 602.542 34.301 602.789 34.8199C603.125 35.3753 603.4 35.9654 603.609 36.5799C603.802 37.1599 603.972 37.7465 604.119 38.3399C604.265 38.9332 604.289 39.3932 604.189 39.7199C603.744 40.0673 603.21 40.2822 602.649 40.3399C600.869 40.6665 599.049 40.9799 597.189 41.2799C595.329 41.5799 593.539 41.9132 591.819 42.2799C591.579 43.2332 591.355 44.1332 591.149 44.9799C590.942 45.8265 590.719 46.6665 590.479 47.4999C591.872 47.2599 593.205 47.0665 594.479 46.9199C595.752 46.7732 597.125 46.6532 598.599 46.5599C599.251 46.4816 599.912 46.543 600.539 46.7399C601.04 46.9552 601.455 47.3317 601.719 47.8099C602.042 48.3406 602.316 48.8996 602.539 49.4799C602.732 49.9999 602.949 50.5265 603.189 51.0599C603.346 51.4547 603.346 51.895 603.189 52.2899C603.042 52.5099 602.565 52.6965 601.759 52.8499L595.969 53.9599C594.009 54.3465 592.135 54.7032 590.349 55.0299C589.477 55.3094 588.552 55.3779 587.649 55.2299C587.088 55.0875 586.554 54.8544 586.069 54.5399C585.562 54.2132 585.079 53.8799 584.619 53.5399C584.159 53.1999 583.619 52.7399 582.999 52.1599C582.506 51.7585 582.104 51.2575 581.819 50.6899C581.525 50.0491 581.411 49.3405 581.489 48.6399L585.679 18.9999C586.959 18.6732 588.379 18.3399 589.939 17.9999Z" fill="white"/>
<path d="M57.7911 36.8299C57.4378 38.8299 57.1045 40.7765 56.7911 42.6699C56.4778 44.5632 56.2145 46.3165 56.0011 47.9299C55.7811 49.5632 55.6111 51.0199 55.4911 52.2999C55.432 52.6948 55.2246 53.0524 54.9111 53.2999C54.4354 53.4668 53.9169 53.4668 53.4411 53.2999C52.7745 53.1532 52.0845 52.9665 51.3711 52.7399C50.7131 52.5427 50.0713 52.2953 49.4511 51.9999C48.8494 51.7568 48.3243 51.3561 47.9311 50.8399C47.6389 50.2954 47.5301 49.6711 47.6211 49.0599C47.6211 47.8999 47.6745 46.4799 47.7811 44.7999C47.8878 43.1199 48.0378 41.2999 48.2311 39.3399C48.4245 37.3799 48.6411 35.3432 48.8811 33.2299C49.1211 31.1165 49.3778 29.0399 49.6511 26.9999C49.9311 24.9465 50.2145 23.0065 50.5011 21.1799C50.7878 19.3532 51.0611 17.7399 51.3211 16.3399C51.3749 15.9645 51.5034 15.6038 51.6993 15.2791C51.8951 14.9545 52.1542 14.6725 52.4611 14.4499C53.1955 14.1719 53.9954 14.1163 54.7611 14.2899C56.1348 14.4816 57.4968 14.7487 58.8411 15.0899C59.9545 15.3899 61.0778 15.7465 62.2111 16.1599C62.8122 16.3699 63.381 16.6627 63.9011 17.0299C64.2912 17.3012 64.6298 17.6398 64.9011 18.0299C65.1399 18.4079 65.3123 18.8238 65.4111 19.2599C65.5178 19.7065 65.6278 20.2132 65.7411 20.7799C65.7441 21.1143 65.7675 21.4483 65.8111 21.7799C65.8578 22.1532 65.9478 22.8199 66.0811 23.7799C66.2145 24.7399 66.4145 26.0932 66.6811 27.8399C66.9478 29.5932 67.3178 31.9999 67.7911 35.0599C68.2645 33.9932 68.8211 32.8199 69.4611 31.5399C70.1011 30.2599 70.7678 28.9532 71.4611 27.6199C72.1278 26.2865 72.8345 24.9532 73.5811 23.6199C74.3278 22.2865 75.0345 21.0232 75.7011 19.8299C76.3678 18.4965 76.9611 17.3732 77.4811 16.4599C77.8873 15.7117 78.4144 15.036 79.0411 14.4599C79.5451 14.0123 80.1797 13.7389 80.8511 13.6799C81.719 13.6477 82.5858 13.7695 83.4111 14.0399C84.6311 14.3665 85.9178 14.7532 87.2711 15.1999C88.6318 15.647 89.9671 16.1677 91.2711 16.7599C91.9742 17.0265 92.5544 17.5427 92.9011 18.2099C93.1156 18.9719 93.0591 19.7848 92.7411 20.5099C92.2945 21.9099 91.7878 23.5132 91.2211 25.3199C90.6545 27.1265 90.0678 29.0199 89.4611 30.9999C88.8811 32.9999 88.3011 35.0199 87.7211 37.0599C87.1411 39.0999 86.5911 41.0599 86.0711 42.9399C85.5511 44.8132 85.0845 46.5365 84.6711 48.1099C84.2578 49.6832 83.9245 50.9899 83.6711 52.0299C83.5381 52.4621 83.309 52.8586 83.0011 53.1899C82.7345 53.4299 82.2145 53.4599 81.4411 53.2799C80.6678 53.0999 79.9678 52.9232 79.3411 52.7499C78.6817 52.5717 78.0444 52.3201 77.4411 51.9999C77.1445 51.9048 76.8703 51.7503 76.6355 51.5457C76.4006 51.3411 76.2099 51.0908 76.0751 50.8099C75.9403 50.5291 75.8643 50.2238 75.8515 49.9125C75.8388 49.6013 75.8897 49.2907 76.0011 48.9999C76.1211 48.1065 76.3145 46.9532 76.5811 45.5399C76.8478 44.1265 77.1611 42.5665 77.5211 40.8599C77.8811 39.1532 78.2745 37.3632 78.7011 35.4899C79.1278 33.6165 79.5945 31.8032 80.1011 30.0499C79.2078 31.5965 78.2645 33.2632 77.2711 35.0499C76.2778 36.8365 75.3111 38.6199 74.3711 40.3999C73.4378 42.1532 72.5745 43.8199 71.7811 45.3999C70.9878 46.9799 70.3578 48.2799 69.8911 49.2999C69.7445 49.6265 69.6178 49.8865 69.5111 50.0799C69.4249 50.2517 69.2936 50.3969 69.1311 50.4999C68.9533 50.5985 68.7544 50.6534 68.5511 50.6599C68.2342 50.6668 67.9179 50.6298 67.6111 50.5499C66.5558 50.347 65.5139 50.0798 64.4911 49.7499C64.1978 49.6469 63.9135 49.5198 63.6411 49.3699C63.4015 49.2316 63.191 49.0482 63.0211 48.8299C62.8263 48.5803 62.668 48.3041 62.5511 48.0099C62.3903 47.6005 62.2501 47.1833 62.1311 46.7599C61.5378 44.6199 60.9645 42.1532 60.4111 39.3599C59.8578 36.5665 59.3545 33.7032 58.9011 30.7699C58.5145 32.7899 58.1445 34.8099 57.7911 36.8299Z" fill="#FFCC00"/>
<path d="M97.8405 15.9999C99.4005 15.6399 101.034 15.3065 102.74 14.9999C104.447 14.6932 106.2 14.4332 108 14.2199C109.8 13.9932 111.59 13.8532 113.37 13.7999C114.06 13.7043 114.762 13.8516 115.354 14.2165C115.947 14.5814 116.395 15.1412 116.62 15.7999C116.964 16.4121 117.232 17.0635 117.42 17.7399C117.567 18.3199 117.717 18.9499 117.87 19.6299C117.947 19.8886 117.971 20.1602 117.94 20.4283C117.909 20.6964 117.824 20.9554 117.69 21.1899C117.215 21.5514 116.638 21.7543 116.04 21.7699L110.51 22.3899C108.61 22.5965 106.61 22.8499 104.51 23.1499C104.064 24.4832 103.647 25.8732 103.26 27.3199C102.874 28.7665 102.454 30.2565 102 31.7899C102.894 31.6699 103.784 31.5799 104.67 31.5199C105.557 31.4599 106.507 31.4165 107.52 31.3899C108.195 31.3336 108.874 31.4083 109.52 31.6099C110.047 31.839 110.474 32.251 110.72 32.7699C111.056 33.3253 111.331 33.9154 111.54 34.5299C111.734 35.1099 111.904 35.6965 112.05 36.2899C112.197 36.8832 112.22 37.3432 112.12 37.6699C111.676 38.0173 111.142 38.2322 110.58 38.2899C108.8 38.6165 106.98 38.9299 105.12 39.2299C103.26 39.5299 101.47 39.8632 99.7505 40.2299C99.5105 41.1832 99.2871 42.0832 99.0805 42.9299C98.8738 43.7765 98.6505 44.6165 98.4105 45.4499C99.8038 45.2099 101.137 45.0165 102.41 44.8699C103.684 44.7232 105.057 44.6032 106.53 44.5099C107.183 44.4316 107.844 44.493 108.47 44.6899C108.972 44.9051 109.387 45.2817 109.65 45.7599C109.974 46.2906 110.248 46.8496 110.47 47.4299C110.664 47.9499 110.88 48.4765 111.12 49.0099C111.278 49.4047 111.278 49.845 111.12 50.2399C110.974 50.4599 110.497 50.6465 109.69 50.7999L103.9 51.9099C101.94 52.2965 100.067 52.6532 98.2805 52.9799C97.409 53.2594 96.4836 53.3279 95.5805 53.1799C95.0197 53.0375 94.486 52.8044 94.0005 52.4899C93.4938 52.1632 93.0105 51.8299 92.5505 51.4899C92.0905 51.1499 91.5471 50.7099 90.9205 50.1699C90.428 49.7685 90.0259 49.2675 89.7405 48.6999C89.4468 48.0591 89.3327 47.3505 89.4105 46.6499L93.5805 16.9999C94.8605 16.6732 96.2805 16.3399 97.8405 15.9999Z" fill="#FFCC00"/>
<path d="M124.409 47.3499L123.409 52.2499C123.329 52.6254 123.116 52.9593 122.809 53.1899C122.355 53.3454 121.863 53.3454 121.409 53.1899C120.609 52.9833 119.896 52.8199 119.269 52.6999C118.648 52.5825 118.048 52.3736 117.489 52.0799C116.987 51.8188 116.581 51.4058 116.329 50.8999C116.105 50.3107 116.029 49.6753 116.109 49.0499C116.169 48.4233 116.252 47.5166 116.359 46.3299C116.466 45.1433 116.592 43.8099 116.739 42.3299C116.886 40.8299 117.056 39.2166 117.249 37.4899C117.442 35.7633 117.649 34.0399 117.869 32.3199C118.089 30.5999 118.336 28.9333 118.609 27.3199C118.882 25.7066 119.166 24.2499 119.459 22.9499C119.701 21.8537 120.036 20.7798 120.459 19.7399C120.654 19.1098 121.042 18.5569 121.569 18.1599C123.409 17.3266 125.332 16.5099 127.339 15.7099C129.251 14.9332 131.238 14.3567 133.269 13.9899C135.094 13.6498 136.964 13.6193 138.799 13.8999C140.531 14.1793 142.13 14.9982 143.369 16.2399C144.41 17.3702 145.357 18.5843 146.199 19.8699C147.124 21.3318 147.799 22.9369 148.199 24.6199C148.62 26.2562 148.461 27.9877 147.749 29.5199C146.51 31.7917 144.744 33.7328 142.599 35.1799C139.904 37.0751 137.022 38.6901 133.999 39.9999C134.666 40.7733 135.416 41.5899 136.249 42.4499C137.082 43.3099 137.912 44.1599 138.739 44.9999C139.599 45.8599 140.452 46.6933 141.299 47.4999C142.146 48.3066 142.939 49.0066 143.679 49.5999C144.272 50.1066 144.539 50.5066 144.479 50.7999C144.347 51.1945 144.077 51.5282 143.719 51.7399C143.326 52.0839 142.861 52.3366 142.359 52.4799L140.999 52.6999C140.295 52.8839 139.563 52.9381 138.839 52.8599C137.864 52.729 136.929 52.3878 136.099 51.8599C135.432 51.3866 134.646 50.7933 133.739 50.0799C132.832 49.3666 131.919 48.5599 130.999 47.6599C130.046 46.7999 129.096 45.8999 128.149 44.9599C127.233 44.0657 126.369 43.1208 125.559 42.1299C125.132 43.9433 124.749 45.6833 124.409 47.3499ZM128.929 28.8999C128.482 30.6266 127.976 32.4699 127.409 34.4299C129.322 33.8096 131.155 32.9637 132.869 31.9099C134.3 31.0479 135.64 30.0427 136.869 28.9099C137.791 28.0712 138.571 27.0884 139.179 25.9999C139.604 25.3735 139.766 24.6047 139.629 23.8599C139.276 23.0266 138.219 22.6099 136.459 22.6099C135.501 22.6198 134.546 22.7236 133.609 22.9199C132.464 23.1645 131.355 23.5544 130.309 24.0799C129.836 25.5666 129.376 27.1733 128.929 28.8999Z" fill="#FFCC00"/>
<path d="M172.77 44.5899C172.761 45.4125 172.522 46.2161 172.08 46.9099C171.533 47.9853 170.832 48.9756 170 49.8499C169.243 50.6744 168.405 51.4214 167.5 52.0799C167.027 52.3773 166.529 52.6316 166.01 52.8399C165.417 53.0818 164.805 53.2758 164.18 53.4199C163.522 53.5702 162.853 53.6738 162.18 53.7299C161.515 53.7869 160.846 53.7869 160.18 53.7299C158.896 53.659 157.624 53.4409 156.39 53.0799C155.264 52.7399 154.264 52.4066 153.39 52.0799C152.525 51.7158 151.714 51.2347 150.98 50.6499C150.21 50.0633 149.573 49.3204 149.11 48.4699C148.289 47.0934 147.727 45.5786 147.45 43.9999C147.133 42.1613 147.023 40.2931 147.12 38.4299C147.221 36.3707 147.512 34.3253 147.99 32.3199C148.473 30.221 149.142 28.1695 149.99 26.1899C150.843 24.2161 151.881 22.3277 153.09 20.5499C154.256 18.8244 155.641 17.2579 157.21 15.8899C158.295 14.9073 159.592 14.1886 161 13.7899C162.175 13.4709 163.395 13.3493 164.61 13.4299C165.483 13.5265 166.349 13.6836 167.2 13.8999C168.078 14.1169 168.943 14.384 169.79 14.6999C170.594 14.9916 171.382 15.3254 172.15 15.6999C172.838 16.0421 173.505 16.4227 174.15 16.8399C174.66 17.2615 175.129 17.7302 175.55 18.2399C175.901 18.6696 176.2 19.1396 176.44 19.6399C176.663 20.1132 176.821 20.6144 176.91 21.1299C177.003 21.6825 177.064 22.2401 177.09 22.7999C177.127 23.5128 177.127 24.227 177.09 24.9399C177.044 25.6799 176.977 26.4166 176.89 27.1499C176.804 27.8832 176.684 28.5799 176.53 29.2399C176.398 29.8512 176.234 30.4553 176.04 31.0499C175.954 31.2899 175.864 31.5132 175.77 31.7199C175.691 31.915 175.559 32.0844 175.39 32.2099C175.183 32.3425 174.945 32.4184 174.7 32.4299C174.298 32.4522 173.895 32.422 173.5 32.3399C172.657 32.1933 171.834 31.9448 171.05 31.5999C170.428 31.3282 169.857 30.9528 169.36 30.4899C168.916 30.0623 168.553 29.5574 168.29 28.9999C168.001 28.3648 167.806 27.6911 167.71 26.9999C167.626 26.4237 167.582 25.8422 167.58 25.2599C167.615 24.3977 167.572 23.5342 167.45 22.6799C167.43 22.3522 167.32 22.0366 167.131 21.7681C166.942 21.4997 166.682 21.2891 166.38 21.1599C165.787 20.9799 165.087 21.3132 164.28 22.1599C163.351 23.1967 162.53 24.3259 161.83 25.5299C160.952 27.0012 160.171 28.5277 159.49 30.0999C158.818 31.6081 158.243 33.158 157.77 34.7399C157.389 36.2005 157.098 37.6833 156.9 39.1799C156.714 40.5046 156.647 41.8433 156.7 43.1799C156.728 44.2211 156.924 45.251 157.28 46.2299C157.38 46.5788 157.562 46.8987 157.811 47.1631C158.06 47.4275 158.368 47.6287 158.71 47.7499C159.897 48.1366 161.71 47.0799 164.15 44.5799C165.897 42.8599 168.18 42.4032 171 43.2099C172.134 43.5032 172.724 43.9632 172.77 44.5899Z" fill="#FFCC00"/>
<path d="M190.419 45.0599C188.446 45.3256 186.489 45.7063 184.559 46.1999C183.966 47.3599 183.446 48.4366 182.999 49.4299C182.553 50.4233 182.123 51.3966 181.709 52.3499C181.638 52.5529 181.524 52.7378 181.373 52.8915C181.223 53.0453 181.041 53.1642 180.839 53.2399C180.314 53.3025 179.781 53.2194 179.299 52.9999L177.999 52.4999C177.539 52.3066 177.073 52.0899 176.599 51.8499L175.659 51.2499C175.39 51.0994 175.167 50.8783 175.014 50.6106C174.86 50.3428 174.783 50.0384 174.789 49.7299C174.797 49.2235 174.881 48.7211 175.039 48.2399C175.753 46.1933 176.683 43.7866 177.829 41.0199C178.976 38.2533 180.209 35.3999 181.529 32.4599C182.863 29.5199 184.216 26.6166 185.589 23.7499C186.963 20.8833 188.276 18.3366 189.529 16.1099C189.948 15.3187 190.544 14.6344 191.269 14.1099C192.226 13.5523 193.347 13.3471 194.439 13.5299C195.659 13.5899 196.743 13.6866 197.689 13.8199C198.636 13.9533 199.506 14.1099 200.299 14.2899C201.086 14.4699 201.813 14.6633 202.479 14.8699C203.146 15.0766 203.813 15.2699 204.479 15.4499C205.213 15.6324 205.845 16.0957 206.239 16.7399C206.51 17.4048 206.596 18.1302 206.489 18.8399C206.309 20.9533 206.159 23.3766 206.039 26.1099C205.919 28.8433 205.829 31.6966 205.769 34.6699C205.709 37.6433 205.673 40.6233 205.659 43.6099C205.646 46.5966 205.646 49.3666 205.659 51.9199C205.681 52.1176 205.663 52.3177 205.607 52.5083C205.55 52.6989 205.456 52.8763 205.329 53.0299C204.88 53.2935 204.357 53.4025 203.839 53.3399C203.066 53.3399 202.353 53.3166 201.699 53.2699C201.017 53.2196 200.344 53.0784 199.699 52.8499C199.138 52.726 198.623 52.4491 198.209 52.0499C197.857 51.5343 197.65 50.9333 197.609 50.3099C197.489 49.4499 197.386 48.5066 197.299 47.4799C197.213 46.4533 197.123 45.3299 197.029 44.1099L190.419 45.0599ZM192.599 37.3699C193.933 37.2233 195.293 37.1033 196.679 37.0099C196.619 34.5766 196.576 32.1466 196.549 29.7199C196.523 27.2933 196.523 24.8933 196.549 22.5199C195.363 24.6866 194.076 27.0866 192.689 29.7199C191.303 32.3533 189.913 35.0799 188.519 37.8999C189.893 37.6933 191.256 37.5166 192.609 37.3699H192.599Z" fill="#FFCC00"/>
<path d="M215.21 15.4998C216.795 14.9361 218.428 14.5177 220.09 14.2498C221.834 13.9673 223.604 13.8634 225.37 13.9398C227.151 14.0021 228.912 14.3395 230.59 14.9398C232.296 15.5634 233.875 16.4918 235.25 17.6798C236.776 19.0326 238.006 20.6875 238.86 22.5398C239.702 24.181 240.231 25.9648 240.42 27.7998C240.625 29.7582 240.514 31.7369 240.09 33.6598C239.626 35.756 238.869 37.776 237.84 39.6598C236.72 41.7194 235.316 43.6113 233.67 45.2798C231.855 47.113 229.807 48.6999 227.58 49.9998C225.072 51.4618 222.382 52.5849 219.58 53.3398C218.8 53.6041 217.974 53.7049 217.153 53.6361C216.332 53.5673 215.535 53.3303 214.81 52.9398C214.062 52.5686 213.334 52.158 212.63 51.7098C212.003 51.3098 211.29 50.8132 210.49 50.2198L209.64 49.4398C209.37 49.1833 209.138 48.8905 208.95 48.5698C208.743 48.1998 208.613 47.7915 208.57 47.3698C208.498 46.762 208.498 46.1477 208.57 45.5398L211.16 17.2298C212.461 16.5462 213.816 15.9677 215.21 15.4998ZM223.21 42.8298C224.761 41.5662 226.14 40.1036 227.31 38.4798C228.318 37.0813 229.129 35.5502 229.72 33.9298C230.222 32.5686 230.538 31.1457 230.66 29.6998C230.842 28.2564 230.628 26.7905 230.04 25.4598C229.419 24.3794 228.416 23.5699 227.23 23.1898C225.623 22.6912 223.895 22.7547 222.33 23.3698C221.29 27.2632 220.37 31.1032 219.57 34.8898C218.77 38.6765 217.996 42.5032 217.25 46.3698C219.381 45.4828 221.372 44.2903 223.16 42.8298H223.21Z" fill="#FFCC00"/>
<path d="M269.771 20.2702C270.318 21.3757 270.702 22.5546 270.911 23.7702C271.242 26.1117 271.316 28.4825 271.131 30.8402C270.95 33.4044 270.511 35.9439 269.821 38.4202C269.149 40.8847 268.203 43.2663 267.001 45.5202C265.869 47.6556 264.365 49.5723 262.561 51.1802C261.447 52.0526 260.157 52.6735 258.781 53.0002C257.303 53.3203 255.781 53.3879 254.281 53.2001C253.112 53.0739 251.95 52.887 250.801 52.6402C249.671 52.4072 248.578 52.0238 247.551 51.5002C246.707 51.0569 245.915 50.5202 245.191 49.9002C244.444 49.2799 243.823 48.5231 243.361 47.6702C242.615 46.2051 242.076 44.6435 241.761 43.0302C241.398 41.2403 241.234 39.416 241.271 37.5902C241.347 33.6026 242.193 29.6673 243.761 26.0002C244.574 24.1247 245.579 22.3385 246.761 20.6702C247.928 19.0002 249.299 17.4819 250.841 16.1502C251.953 15.3099 253.216 14.6889 254.561 14.3202C255.894 13.9135 257.301 13.8077 258.681 14.0102C260.331 14.2667 261.952 14.6854 263.521 15.2602C264.891 15.738 266.177 16.4299 267.331 17.3102C268.342 18.1157 269.173 19.124 269.771 20.2702ZM258.001 22.5902C257.101 23.4856 256.321 24.494 255.681 25.5902C254.863 26.9272 254.141 28.3207 253.521 29.7602C252.883 31.204 252.339 32.687 251.891 34.2002C251.473 35.6057 251.175 37.0442 251.001 38.5002C250.826 39.8896 250.766 41.2909 250.821 42.6902C250.848 43.8229 251.057 44.9439 251.441 46.0102C251.549 46.3958 251.747 46.7506 252.018 47.0459C252.289 47.3411 252.626 47.5687 253.001 47.7102C253.341 47.8152 253.702 47.8336 254.051 47.7637C254.401 47.6939 254.727 47.538 255.001 47.3102C255.788 46.7006 256.465 45.9597 257.001 45.1202C257.791 43.9827 258.462 42.7662 259.001 41.4902C259.638 39.9629 260.166 38.3923 260.581 36.7902C260.992 35.2751 261.306 33.7353 261.521 32.1802C261.75 30.6238 261.87 29.0533 261.881 27.4802C261.905 26.1974 261.764 24.9168 261.461 23.6702C261.181 22.6168 260.744 22.0002 260.151 21.8202C259.557 21.6402 258.841 21.8968 258.001 22.5902Z" fill="#FFCC00"/>
<path d="M315.002 21.6499L310.772 22.0699L308.832 29.83C308.165 32.4966 307.519 35.1633 306.892 37.8299C306.265 40.4966 305.679 43.06 305.132 45.52C304.585 48.0133 304.102 50.3466 303.682 52.5199C303.677 52.6791 303.636 52.8352 303.564 52.977C303.491 53.1187 303.388 53.2427 303.262 53.3399C302.982 53.4857 302.666 53.5482 302.352 53.5199C301.897 53.4913 301.447 53.4073 301.012 53.2699L299.322 52.7799C298.748 52.6181 298.184 52.4244 297.632 52.1999C297.17 52.0181 296.741 51.7613 296.362 51.4399C296.036 51.1731 295.782 50.8295 295.622 50.4399C295.484 49.9664 295.484 49.4635 295.622 48.9899C295.709 47.5633 295.889 45.8099 296.162 43.7299C296.435 41.65 296.769 39.45 297.162 37.13C297.535 34.81 297.945 32.4766 298.392 30.1299C298.839 27.7833 299.285 25.5899 299.732 23.5499C298.872 23.6966 298.039 23.8233 297.232 23.9299C296.557 24.0107 295.889 24.1377 295.232 24.3099C294.637 24.4863 294.008 24.5103 293.402 24.3799C292.779 24.1439 292.228 23.7512 291.802 23.2399C291.083 22.514 290.476 21.6848 290.002 20.7799C289.482 19.8266 289.059 19.0233 288.732 18.3699C288.405 17.7166 288.319 17.2599 288.472 16.9999C288.778 16.7075 289.165 16.5127 289.582 16.4399C291.335 16.0866 293.335 15.7533 295.582 15.4399C297.829 15.1266 300.089 14.8599 302.362 14.6399C304.662 14.3999 306.922 14.1999 309.142 14.0399C311.362 13.8799 313.362 13.7699 315.142 13.7099C315.818 13.6747 316.495 13.7593 317.142 13.9599C317.542 14.1448 317.887 14.4309 318.142 14.7899C318.7 15.4627 319.167 16.2057 319.532 16.9999C319.9 17.7576 320.198 18.5476 320.422 19.3599C320.597 19.8102 320.597 20.3097 320.422 20.7599C320.255 21.0133 319.712 21.1699 318.792 21.2299L315.002 21.6499Z" fill="#FFCC00"/>
<path d="M331.101 51.83C329.101 52.2034 327.221 52.5667 325.461 52.92C324.922 53.0763 324.37 53.1801 323.811 53.23C323.423 53.2623 323.032 53.2387 322.651 53.16C322.366 53.0995 322.09 53.002 321.831 52.87C321.606 52.7511 321.389 52.6174 321.181 52.47C320.702 52.1631 320.242 51.8293 319.801 51.47C319.388 51.13 318.838 50.69 318.151 50.15C317.672 49.768 317.277 49.2914 316.991 48.75C316.714 48.1606 316.637 47.4972 316.771 46.86C316.858 45.7 317.008 44.3267 317.221 42.74C317.434 41.1534 317.688 39.4367 317.981 37.59C318.281 35.75 318.614 33.84 318.981 31.86C319.348 29.88 319.724 27.9267 320.111 26C320.524 24.04 320.948 22.1534 321.381 20.34C321.814 18.5267 322.238 16.86 322.651 15.34C322.944 14.48 323.324 13.9667 323.791 13.8C324.482 13.6495 325.202 13.7052 325.861 13.96C326.881 14.2285 327.884 14.5625 328.861 14.96C329.845 15.3465 330.786 15.8324 331.671 16.41C332.261 16.7816 332.758 17.2847 333.121 17.88C333.308 18.4662 333.269 19.1014 333.011 19.66C332.418 21.44 331.814 23.4 331.201 25.54C330.588 27.68 329.978 29.88 329.371 32.14C328.764 34.4 328.184 36.65 327.631 38.89C327.078 41.13 326.564 43.2767 326.091 45.33C327.458 45.09 328.734 44.91 329.921 44.79C331.108 44.67 332.401 44.5667 333.801 44.48C334.435 44.4041 335.078 44.4585 335.691 44.64C336.191 44.8668 336.605 45.2491 336.871 45.73C337.216 46.2423 337.507 46.7885 337.741 47.36C337.951 47.8729 338.122 48.4011 338.251 48.94C338.438 49.3286 338.494 49.767 338.411 50.19C338.304 50.3967 337.791 50.59 336.871 50.77L331.101 51.83Z" fill="#FFCC00"/>
<path d="M355.439 45.0599C353.466 45.3256 351.509 45.7063 349.579 46.1999C348.986 47.3599 348.466 48.4366 348.019 49.4299C347.573 50.4233 347.143 51.3966 346.729 52.3499C346.658 52.5529 346.544 52.7378 346.393 52.8915C346.243 53.0453 346.061 53.1642 345.859 53.2399C345.336 53.3087 344.803 53.2326 344.319 53.0199L342.999 52.4999C342.539 52.3066 342.073 52.0899 341.599 51.8499L340.659 51.2499C340.39 51.0994 340.167 50.8783 340.014 50.6106C339.86 50.3428 339.783 50.0384 339.789 49.7299C339.797 49.2235 339.881 48.7211 340.039 48.2399C340.753 46.1933 341.683 43.7866 342.829 41.0199C343.976 38.2533 345.209 35.3999 346.529 32.4599C347.863 29.5199 349.216 26.6166 350.589 23.7499C351.963 20.8833 353.276 18.3366 354.529 16.1099C354.948 15.3187 355.544 14.6344 356.269 14.1099C357.226 13.5523 358.347 13.3471 359.439 13.5299C360.659 13.5899 361.743 13.6866 362.689 13.8199C363.636 13.9533 364.506 14.1099 365.299 14.2899C366.086 14.4699 366.813 14.6633 367.479 14.8699C368.146 15.0766 368.813 15.2699 369.479 15.4499C370.213 15.6324 370.845 16.0957 371.239 16.7399C371.51 17.4048 371.596 18.1302 371.489 18.8399C371.309 20.9533 371.159 23.3766 371.039 26.1099C370.919 28.8433 370.829 31.6966 370.769 34.6699C370.709 37.6433 370.673 40.6233 370.659 43.6099C370.646 46.5966 370.646 49.3666 370.659 51.9199C370.681 52.1176 370.663 52.3177 370.607 52.5083C370.55 52.6989 370.456 52.8763 370.329 53.0299C369.88 53.2935 369.357 53.4025 368.839 53.3399C368.066 53.3399 367.353 53.3166 366.699 53.2699C366.017 53.2196 365.344 53.0784 364.699 52.8499C364.138 52.726 363.623 52.4491 363.209 52.0499C362.857 51.5343 362.65 50.9333 362.609 50.3099C362.489 49.4499 362.386 48.5066 362.299 47.4799C362.213 46.4533 362.123 45.3299 362.029 44.1099L355.439 45.0599ZM357.619 37.3699C358.953 37.2233 360.313 37.1033 361.699 37.0099C361.639 34.5766 361.596 32.1466 361.569 29.7199C361.543 27.2933 361.543 24.8933 361.569 22.5199C360.383 24.6866 359.096 27.0866 357.709 29.7199C356.323 32.3533 354.933 35.0799 353.539 37.8999C354.913 37.6933 356.273 37.5166 357.619 37.3699Z" fill="#FFCC00"/>
<path d="M400.798 52.0799C400.738 52.3799 400.425 52.6633 399.858 52.9299C399.35 53.215 398.814 53.4463 398.258 53.6199C397.725 53.7799 397.192 53.9199 396.658 54.0399C396.059 54.1573 395.442 54.1421 394.849 53.9952C394.256 53.8484 393.703 53.5735 393.228 53.1899C393.104 53.0606 392.97 52.9403 392.828 52.8299C392.699 52.7332 392.566 52.6431 392.428 52.5599C391.572 52.9519 390.649 53.1792 389.708 53.2299C388.682 53.2887 387.654 53.2887 386.628 53.2299C385.443 53.1393 384.266 52.9588 383.108 52.6899C381.994 52.4388 380.916 52.0491 379.898 51.5299C379.054 51.0867 378.262 50.55 377.538 49.9299C376.792 49.3097 376.171 48.5529 375.708 47.6999C374.962 46.2349 374.424 44.6733 374.108 43.0599C373.745 41.2704 373.587 39.4452 373.638 37.6199C373.689 35.664 373.913 33.7163 374.308 31.7999C375.122 27.8125 376.745 24.0345 379.078 20.6999C380.251 19.0223 381.636 17.5031 383.198 16.1799C384.293 15.3344 385.543 14.7126 386.878 14.3499C388.212 13.9433 389.619 13.8374 390.998 14.0399C392.649 14.2965 394.27 14.7152 395.838 15.2899C397.208 15.7678 398.494 16.4597 399.648 17.3399C400.663 18.1224 401.493 19.1195 402.078 20.2599C402.595 21.373 402.962 22.55 403.168 23.7599C403.472 25.721 403.583 27.7072 403.498 29.6899C403.42 31.8613 403.159 34.0223 402.718 36.1499C402.276 38.3115 401.644 40.4298 400.828 42.4799C400.051 44.4464 399.019 46.3023 397.758 47.9999C398.204 48.469 398.618 48.9667 398.998 49.4899C399.348 49.9743 399.729 50.4353 400.138 50.8699C400.632 51.3766 400.851 51.7799 400.798 52.0799ZM386.738 46.6399L386.228 45.9699C385.455 45.1366 385.618 44.4699 386.718 43.9699C387.28 43.6805 387.87 43.4493 388.478 43.2799C389.219 43.0714 389.97 42.9012 390.728 42.7699C391.715 40.8831 392.419 38.8615 392.818 36.7699C393.135 35.6787 393.388 34.5702 393.578 33.4499C393.785 32.2433 393.941 31.0466 394.048 29.8599C394.151 28.733 394.181 27.6007 394.138 26.4699C394.112 25.5418 394.002 24.618 393.808 23.7099C393.745 23.0318 393.427 22.4028 392.918 21.9499C392.709 21.8095 392.467 21.7272 392.215 21.7114C391.964 21.6955 391.713 21.7468 391.488 21.8599C390.825 22.1782 390.239 22.6352 389.768 23.1999C389.107 23.959 388.514 24.7755 387.998 25.6399C386.767 27.6004 385.76 29.6937 384.998 31.8799C384.251 34.0616 383.676 36.2985 383.278 38.5699C383.16 39.6358 383.107 40.7077 383.118 41.7799C383.126 42.6986 383.209 43.6151 383.368 44.5199C383.481 45.24 383.722 45.9342 384.078 46.5699C384.357 47.0782 384.796 47.4793 385.328 47.7099C385.671 47.8224 386.038 47.8399 386.39 47.7607C386.742 47.6814 387.066 47.5084 387.328 47.2599C387.109 47.0725 386.908 46.8649 386.728 46.6399H386.738Z" fill="#FFCC00"/>
<path d="M404.831 44.2998C404.538 42.7337 404.398 41.143 404.411 39.5498C404.42 37.7175 404.54 35.8875 404.771 34.0698C405.011 32.1365 405.324 30.1765 405.711 28.1898C406.098 26.2031 406.534 24.2031 407.021 22.1898C407.514 20.1898 408.028 18.2365 408.561 16.3298C408.801 15.4698 409.134 14.9498 409.561 14.7698C410.273 14.6089 411.018 14.6862 411.681 14.9898C412.562 15.2462 413.419 15.5809 414.241 15.9898C415.072 16.4161 415.868 16.9076 416.621 17.4598C417.358 17.9085 417.923 18.5932 418.222 19.4027C418.522 20.2122 418.539 21.0992 418.271 21.9198C417.798 23.4665 417.301 25.1331 416.781 26.9198C416.261 28.7065 415.778 30.5265 415.331 32.3798C414.884 34.2198 414.504 36.0165 414.191 37.7698C413.901 39.3332 413.708 40.9128 413.611 42.4998C413.519 43.6644 413.593 44.8361 413.831 45.9798C413.875 46.3506 414.022 46.7017 414.255 46.9934C414.489 47.285 414.799 47.5054 415.151 47.6298C415.951 47.8365 416.738 47.4498 417.511 46.4698C418.433 45.2189 419.177 43.8457 419.721 42.3898C420.495 40.4271 421.162 38.4242 421.721 36.3898C422.388 34.1031 422.981 31.7498 423.501 29.3298C424.021 26.9098 424.521 24.5231 425.001 22.1698C425.448 19.8231 425.848 17.7265 426.201 15.8798C426.261 14.9865 426.594 14.4531 427.201 14.2798C427.914 14.1045 428.661 14.1287 429.361 14.3498C430.303 14.6095 431.215 14.9682 432.081 15.4198C433.048 15.9131 433.931 16.3965 434.731 16.8698C435.09 17.0799 435.425 17.328 435.731 17.6098C435.934 17.8042 436.095 18.0393 436.201 18.2998C436.292 18.5491 436.323 18.8163 436.291 19.0798C436.251 19.4164 436.191 19.7503 436.111 20.0798C435.218 24.3331 434.318 28.2331 433.411 31.7798C432.617 34.9703 431.659 38.1178 430.541 41.2098C429.692 43.6121 428.586 45.9155 427.241 48.0798C426.249 49.7155 424.877 51.0877 423.241 52.0798C422.25 52.5506 421.201 52.8869 420.121 53.0798C418.942 53.2811 417.743 53.3348 416.551 53.2398C414.254 53.1638 412.002 52.587 409.951 51.5498C409.206 51.1319 408.506 50.6394 407.861 50.0798C407.19 49.4863 406.626 48.7829 406.191 47.9998C405.528 46.8542 405.067 45.6024 404.831 44.2998Z" fill="#FFCC00"/>
<path d="M442.628 15.9999C444.188 15.6399 445.822 15.3065 447.528 14.9999C449.235 14.6932 450.988 14.4332 452.788 14.2199C454.588 13.9932 456.378 13.8532 458.158 13.7999C458.848 13.7043 459.549 13.8516 460.142 14.2165C460.735 14.5814 461.183 15.1412 461.408 15.7999C461.752 16.4121 462.02 17.0635 462.208 17.7399C462.355 18.3199 462.505 18.9499 462.658 19.6299C462.735 19.8886 462.759 20.1602 462.728 20.4283C462.697 20.6964 462.612 20.9554 462.478 21.1899C462.003 21.5514 461.425 21.7543 460.828 21.7699L455.298 22.3899C453.398 22.5965 451.398 22.8499 449.298 23.1499C448.852 24.4832 448.435 25.8732 448.048 27.3199C447.662 28.7665 447.232 30.2732 446.758 31.8399C447.652 31.7199 448.542 31.6299 449.428 31.5699C450.315 31.5099 451.265 31.4665 452.278 31.4399C452.953 31.3836 453.632 31.4583 454.278 31.6599C454.805 31.889 455.231 32.301 455.478 32.8199C455.814 33.3753 456.089 33.9654 456.298 34.5799C456.492 35.1599 456.662 35.7465 456.808 36.3399C456.955 36.9332 456.978 37.3932 456.878 37.7199C456.433 38.0673 455.9 38.2822 455.338 38.3399C453.558 38.6665 451.738 38.9799 449.878 39.2799C448.018 39.5799 446.228 39.9132 444.508 40.2799C444.268 41.2332 444.045 42.1332 443.838 42.9799C443.632 43.8265 443.408 44.6665 443.168 45.4999C444.562 45.2599 445.895 45.0665 447.168 44.9199C448.442 44.7732 449.815 44.6532 451.288 44.5599C451.94 44.4816 452.602 44.543 453.228 44.7399C453.73 44.9552 454.145 45.3317 454.408 45.8099C454.732 46.3406 455.006 46.8996 455.228 47.4799C455.422 47.9999 455.638 48.5265 455.878 49.0599C456.036 49.4547 456.036 49.895 455.878 50.2899C455.732 50.5099 455.255 50.6965 454.448 50.8499L448.658 51.9599C446.698 52.3465 444.825 52.7032 443.038 53.0299C442.167 53.3094 441.241 53.3779 440.338 53.2299C439.778 53.0875 439.244 52.8544 438.758 52.5399C438.252 52.2132 437.768 51.8799 437.308 51.5399C436.848 51.1999 436.305 50.7599 435.678 50.2199C435.186 49.8185 434.784 49.3175 434.498 48.7499C434.205 48.1091 434.09 47.4005 434.168 46.6999L438.368 16.9999C439.648 16.6732 441.068 16.3399 442.628 15.9999Z" fill="#FFCC00"/>
<path d="M469.512 47.8898C469.198 49.4632 468.925 51.0098 468.692 52.5298C468.611 52.9102 468.39 53.246 468.072 53.4698C467.564 53.6276 467.02 53.6276 466.512 53.4698L464.262 52.8698C463.587 52.6964 462.935 52.4411 462.322 52.1098C461.781 51.8422 461.324 51.4304 461.002 50.9198C460.708 50.3409 460.65 49.6703 460.842 49.0498C461.21 47.8746 461.458 46.6651 461.582 45.4398C461.802 43.7465 462.002 41.8232 462.182 39.6698C462.362 37.5165 462.538 35.2798 462.712 32.9598C462.892 30.6398 463.072 28.4998 463.252 26.5398C463.432 24.5798 463.632 22.9365 463.852 21.6098C464.072 20.2765 464.332 19.5398 464.632 19.3998C465.758 18.8065 467.005 18.1898 468.372 17.5498C469.738 16.9098 471.148 16.3298 472.602 15.8098C474.043 15.2961 475.512 14.8654 477.002 14.5198C478.413 14.1976 479.854 14.0234 481.302 13.9998C482.588 13.9611 483.873 14.1196 485.112 14.4698C486.258 14.7969 487.305 15.4014 488.162 16.2298C489.197 17.3571 490.146 18.5605 491.002 19.8298C491.926 21.2917 492.602 22.8968 493.002 24.5798C493.403 26.2098 493.223 27.9288 492.492 29.4398C492.137 30.1521 491.704 30.8228 491.202 31.4398C490.665 32.1119 490.091 32.753 489.482 33.3598C488.368 34.4535 487.153 35.438 485.852 36.2998C484.352 37.3009 482.789 38.2029 481.172 38.9998C479.469 39.8477 477.719 40.5989 475.932 41.2498C474.105 41.9165 472.298 42.4898 470.512 42.9698C470.172 44.6698 469.838 46.3098 469.512 47.8898ZM478.002 32.1698C479.411 31.3295 480.714 30.3222 481.882 29.1698C482.771 28.3082 483.497 27.2916 484.022 26.1698C484.419 25.4314 484.516 24.5679 484.292 23.7598C484.205 23.4065 483.872 23.1332 483.292 22.9398C482.613 22.7285 481.901 22.6438 481.192 22.6898C480.231 22.7346 479.277 22.8685 478.342 23.0898C477.234 23.3458 476.153 23.704 475.112 24.1598C474.638 25.7665 474.185 27.4332 473.752 29.1598C473.318 30.8865 472.882 32.6832 472.442 34.5498C474.387 33.991 476.255 33.1915 478.002 32.1698Z" fill="#FFCC00"/>
<path d="M505.75 45.0599C503.776 45.3256 501.819 45.7063 499.89 46.1999C499.296 47.3599 498.776 48.4366 498.33 49.4299C497.883 50.4233 497.44 51.3933 497 52.3399C496.929 52.5429 496.814 52.7278 496.664 52.8815C496.513 53.0353 496.331 53.1542 496.13 53.2299C495.606 53.2987 495.073 53.2226 494.59 53.0099L493.32 52.4999C492.86 52.3066 492.393 52.0899 491.92 51.8499L490.98 51.2499C490.711 51.0994 490.487 50.8783 490.334 50.6106C490.181 50.3428 490.103 50.0384 490.11 49.7299C490.117 49.2235 490.201 48.7211 490.36 48.2399C491.073 46.1933 492.003 43.7866 493.15 41.0199C494.296 38.2533 495.53 35.3999 496.85 32.4599C498.183 29.5199 499.536 26.6166 500.91 23.7499C502.283 20.8833 503.596 18.3366 504.85 16.1099C505.269 15.3187 505.864 14.6344 506.59 14.1099C507.546 13.5523 508.668 13.3471 509.76 13.5299C510.98 13.5899 512.063 13.6866 513.01 13.8199C513.956 13.9533 514.826 14.1099 515.62 14.2899C516.406 14.4699 517.133 14.6633 517.8 14.8699C518.466 15.0766 519.133 15.2699 519.8 15.4499C520.533 15.6324 521.165 16.0957 521.56 16.7399C521.83 17.4048 521.916 18.1302 521.81 18.8399C521.63 20.9533 521.48 23.3766 521.36 26.1099C521.24 28.8433 521.15 31.6966 521.09 34.6699C521.03 37.6433 520.993 40.6233 520.98 43.6099C520.966 46.5966 520.966 49.3666 520.98 51.9199C521.002 52.1176 520.984 52.3177 520.927 52.5083C520.87 52.6989 520.776 52.8763 520.65 53.0299C520.2 53.2935 519.677 53.4025 519.16 53.3399C518.386 53.3399 517.673 53.3166 517.02 53.2699C516.337 53.2196 515.665 53.0784 515.02 52.8499C514.459 52.726 513.943 52.4491 513.53 52.0499C513.177 51.5343 512.97 50.9333 512.93 50.3099C512.81 49.4499 512.706 48.5066 512.62 47.4799C512.533 46.4533 512.443 45.3299 512.35 44.1099L505.75 45.0599ZM507.93 37.3699C509.263 37.2233 510.623 37.1033 512.01 37.0099C511.95 34.5766 511.906 32.1466 511.88 29.7199C511.853 27.2933 511.853 24.8933 511.88 22.5199C510.693 24.6866 509.406 27.0866 508.02 29.7199C506.633 32.3533 505.26 35.0799 503.9 37.8999C505.24 37.6933 506.583 37.5166 507.93 37.3699Z" fill="#FFCC00"/>
<path d="M551.111 52.0802C551.051 52.3802 550.738 52.6635 550.171 52.9302C549.663 53.2153 549.127 53.4466 548.571 53.6202C548.038 53.7802 547.504 53.9202 546.971 54.0402C546.372 54.1576 545.755 54.1423 545.162 53.9955C544.569 53.8486 544.016 53.5738 543.541 53.1902C543.417 53.0609 543.283 52.9406 543.141 52.8302C543.012 52.7335 542.879 52.6434 542.741 52.5602C541.885 52.9521 540.962 53.1794 540.021 53.2302C538.995 53.289 537.967 53.289 536.941 53.2302C535.756 53.1395 534.579 52.959 533.421 52.6902C532.307 52.4391 531.229 52.0493 530.211 51.5302C529.367 51.0869 528.575 50.5502 527.851 49.9302C527.099 49.3148 526.471 48.5613 526.001 47.7102C525.255 46.2452 524.717 44.6836 524.401 43.0702C524.038 41.2806 523.88 39.4555 523.931 37.6302C523.982 35.6742 524.206 33.7266 524.601 31.8102C525.415 27.8227 527.038 24.0447 529.371 20.7102C530.544 19.0325 531.929 17.5133 533.491 16.1902C534.586 15.3446 535.836 14.7228 537.171 14.3602C538.505 13.9536 539.912 13.8477 541.291 14.0502C542.942 14.3068 544.563 14.7255 546.131 15.3002C547.501 15.778 548.787 16.4699 549.941 17.3502C550.956 18.1326 551.786 19.1297 552.371 20.2702C552.888 21.3833 553.255 22.5603 553.461 23.7702C553.765 25.7313 553.876 27.7175 553.791 29.7002C553.713 31.8716 553.452 34.0325 553.011 36.1602C552.569 38.3218 551.937 40.44 551.121 42.4902C550.349 44.4521 549.324 46.3045 548.071 48.0002C548.512 48.4631 548.923 48.9542 549.301 49.4702C549.651 49.9545 550.032 50.4155 550.441 50.8502C550.941 51.3702 551.164 51.7802 551.111 52.0802ZM537.001 46.6402L536.491 45.9702C535.718 45.1369 535.881 44.4702 536.981 43.9702C537.543 43.6808 538.132 43.4495 538.741 43.2802C539.482 43.0717 540.233 42.9015 540.991 42.7702C541.978 40.8834 542.682 38.8618 543.081 36.7702C543.398 35.6789 543.651 34.5704 543.841 33.4502C544.048 32.2435 544.204 31.0469 544.311 29.8602C544.414 28.7333 544.444 27.601 544.401 26.4702C544.375 25.5421 544.265 24.6183 544.071 23.7102C544.008 23.032 543.69 22.403 543.181 21.9502C542.972 21.8098 542.73 21.7274 542.478 21.7116C542.227 21.6958 541.976 21.7471 541.751 21.8602C541.088 22.1785 540.502 22.6354 540.031 23.2002C539.356 23.9544 538.751 24.7677 538.221 25.6302C537.017 27.5943 536.038 29.6874 535.301 31.8702C534.554 34.0519 533.979 36.2887 533.581 38.5602C533.463 39.626 533.41 40.698 533.421 41.7702C533.429 42.6889 533.512 43.6053 533.671 44.5102C533.784 45.2303 534.025 45.9244 534.381 46.5602C534.66 47.0684 535.099 47.4695 535.631 47.7002C535.974 47.8126 536.341 47.8302 536.693 47.7509C537.045 47.6717 537.369 47.4987 537.631 47.2502C537.402 47.0674 537.191 46.8631 537.001 46.6402Z" fill="#FFCC00"/>
<path d="M555.14 44.3001C554.847 42.7339 554.706 41.1432 554.72 39.5501C554.728 37.7178 554.848 35.8877 555.08 34.0701C555.32 32.1367 555.633 30.1767 556.02 28.1901C556.406 26.2034 556.843 24.2034 557.33 22.1901C557.823 20.1901 558.336 18.2367 558.87 16.3301C559.11 15.4701 559.443 14.9501 559.87 14.7701C560.586 14.61 561.334 14.6909 562 15.0001C562.881 15.2565 563.738 15.5912 564.56 16.0001C565.412 16.4299 566.228 16.9282 567 17.4901C567.737 17.9388 568.301 18.6234 568.601 19.433C568.9 20.2425 568.917 21.1295 568.65 21.9501C568.176 23.4967 567.68 25.1634 567.16 26.9501C566.64 28.7367 566.156 30.5567 565.71 32.4101C565.263 34.2501 564.883 36.0467 564.57 37.8001C564.28 39.3634 564.086 40.9431 563.99 42.5301C563.897 43.6946 563.972 44.8664 564.21 46.0101C564.254 46.3809 564.401 46.732 564.634 47.0236C564.867 47.3152 565.178 47.5357 565.53 47.6601C566.33 47.8667 567.116 47.4801 567.89 46.5001C568.812 45.2492 569.556 43.876 570.1 42.4201C570.873 40.4574 571.541 38.4545 572.1 36.4201C572.766 34.1334 573.36 31.7801 573.88 29.3601C574.4 26.9401 574.896 24.5534 575.37 22.2001C575.816 19.8534 576.216 17.7567 576.57 15.9101C576.63 15.0167 576.963 14.4834 577.57 14.3101C578.282 14.1348 579.03 14.159 579.73 14.3801C580.671 14.6398 581.583 14.9985 582.45 15.4501C583.416 15.9434 584.3 16.4267 585.1 16.9001C585.459 17.1102 585.794 17.3583 586.1 17.6401C586.303 17.8345 586.463 18.0696 586.57 18.3301C586.66 18.5794 586.691 18.8466 586.66 19.1101C586.619 19.4467 586.559 19.7806 586.48 20.1101C585.586 24.3634 584.686 28.2634 583.78 31.8101C582.986 35.0006 582.028 38.1481 580.91 41.2401C580.061 43.6424 578.954 45.9458 577.61 48.1101C576.617 49.7458 575.245 51.118 573.61 52.1101C572.619 52.5808 571.57 52.9171 570.49 53.1101C569.311 53.3113 568.112 53.3651 566.92 53.2701C564.623 53.194 562.37 52.6173 560.32 51.5801C559.575 51.1622 558.875 50.6697 558.23 50.1101C557.535 49.5126 556.949 48.7985 556.5 48.0001C555.836 46.8545 555.376 45.6026 555.14 44.3001Z" fill="#FFCC00"/>
<path d="M592.939 15.9999C594.499 15.6399 596.132 15.3065 597.839 14.9999C599.545 14.6932 601.299 14.4332 603.099 14.2199C604.899 13.9932 606.689 13.8532 608.469 13.7999C609.158 13.7043 609.86 13.8516 610.453 14.2165C611.046 14.5814 611.493 15.1412 611.719 15.7999C612.062 16.4121 612.331 17.0635 612.519 17.7399C612.665 18.3199 612.815 18.9499 612.969 19.6299C613.045 19.8886 613.069 20.1602 613.038 20.4283C613.007 20.6964 612.922 20.9554 612.789 21.1899C612.313 21.5514 611.736 21.7543 611.139 21.7699L605.609 22.3899C603.709 22.5965 601.709 22.8499 599.609 23.1499C599.162 24.4832 598.745 25.8732 598.359 27.3199C597.972 28.7665 597.542 30.2732 597.069 31.8399C597.962 31.7199 598.852 31.6299 599.739 31.5699C600.625 31.5099 601.575 31.4665 602.589 31.4399C603.263 31.3836 603.942 31.4583 604.589 31.6599C605.116 31.889 605.542 32.301 605.789 32.8199C606.125 33.3753 606.4 33.9654 606.609 34.5799C606.802 35.1599 606.972 35.7465 607.119 36.3399C607.265 36.9332 607.289 37.3932 607.189 37.7199C606.744 38.0673 606.21 38.2822 605.649 38.3399C603.869 38.6665 602.049 38.9799 600.189 39.2799C598.329 39.5799 596.539 39.9132 594.819 40.2799C594.579 41.2332 594.355 42.1332 594.149 42.9799C593.942 43.8265 593.719 44.6665 593.479 45.4999C594.872 45.2599 596.205 45.0665 597.479 44.9199C598.752 44.7732 600.125 44.6532 601.599 44.5599C602.251 44.4816 602.912 44.543 603.539 44.7399C604.04 44.9552 604.455 45.3317 604.719 45.8099C605.042 46.3406 605.316 46.8996 605.539 47.4799C605.732 47.9999 605.949 48.5265 606.189 49.0599C606.346 49.4547 606.346 49.895 606.189 50.2899C606.042 50.5099 605.565 50.6965 604.759 50.8499L598.969 51.9599C597.009 52.3465 595.135 52.7032 593.349 53.0299C592.477 53.3094 591.552 53.3779 590.649 53.2299C590.088 53.0875 589.554 52.8544 589.069 52.5399C588.562 52.2132 588.079 51.8799 587.619 51.5399C587.159 51.1999 586.619 50.7399 585.999 50.1599C585.506 49.7585 585.104 49.2575 584.819 48.6899C584.525 48.0491 584.411 47.3405 584.489 46.6399L588.679 16.9999C589.959 16.6732 591.379 16.3399 592.939 15.9999Z" fill="#FFCC00"/>
<path d="M26.1495 20.0001C22.2917 22.2471 18.5686 24.718 14.9995 27.4001C14.9995 23.2701 14.9095 19.1401 14.6595 15.0001C14.4195 10.3601 14.1195 5.72008 13.4995 1.08008C12.8695 5.72008 12.5795 10.3601 12.3295 15.0001C12.0895 19.1301 12.0295 23.2701 11.9895 27.4001C8.39832 24.7149 4.65181 22.2439 0.769531 20.0001C4.2554 23.4634 7.97408 26.6843 11.8995 29.6401C7.97257 32.594 4.25377 35.815 0.769531 39.2801C4.65415 37.0786 8.40413 34.6477 11.9995 32.0001C11.9995 35.6301 12.0995 39.2501 12.3095 42.8801L12.7395 49.8801C12.9895 52.2001 13.1395 54.5201 13.4895 56.8801C13.8295 54.5601 13.9795 52.2401 14.2395 49.8801L14.6595 42.8801C14.8795 39.2501 14.9395 35.6301 14.9795 32.0001C18.5643 34.6724 22.3041 37.13 26.1795 39.3601C22.6825 35.8774 18.9467 32.6429 14.9995 29.6801C18.9348 26.7142 22.6604 23.4799 26.1495 20.0001Z" fill="#FFCC00"/>
<path d="M28.4 19.4202C24.5297 21.6497 20.7933 24.1039 17.21 26.7702C17.21 22.6402 17.12 18.5102 16.87 14.3702C16.63 9.7302 16.33 5.0902 15.71 0.450195C15.08 5.0902 14.79 9.7302 14.54 14.3702C14.3 18.5002 14.24 22.6402 14.2 26.7702C10.614 24.1028 6.87418 21.6485 3 19.4202C6.48587 22.8835 10.2045 26.1044 14.13 29.0602C10.203 32.0141 6.48424 35.2351 3 38.7002C6.87983 36.4722 10.6232 34.0145 14.21 31.3402C14.21 34.9702 14.31 38.5902 14.52 42.2202L14.95 49.2202C15.2 51.5402 15.35 53.8602 15.7 56.2202C16.04 53.9002 16.19 51.5802 16.45 49.2202L16.87 42.2202C17.09 38.5902 17.15 34.9702 17.19 31.3402C20.778 34.0129 24.5212 36.4705 28.4 38.7002C24.9177 35.2331 21.1987 32.012 17.27 29.0602C21.1971 26.1065 24.916 22.8855 28.4 19.4202Z" fill="white"/>
<path d="M655.618 19.9998C651.748 22.2293 648.012 24.6835 644.428 27.3498C644.428 23.2198 644.338 19.0898 644.088 14.9498C643.848 10.3098 643.548 5.66979 642.928 1.02979C642.298 5.66979 642.008 10.3098 641.758 14.9498C641.518 19.0798 641.458 23.2198 641.418 27.3498C637.839 24.683 634.106 22.2288 630.238 19.9998C633.724 23.4631 637.443 26.684 641.368 29.6398C637.441 32.5937 633.723 35.8147 630.238 39.2798C634.116 37.0777 637.859 34.6467 641.448 31.9998C641.448 35.6298 641.548 39.2498 641.758 42.8798L642.188 49.8798C642.438 52.1998 642.588 54.5198 642.938 56.8798C643.278 54.5598 643.428 52.2398 643.688 49.8798L644.108 42.8798C644.328 39.2498 644.388 35.6298 644.428 31.9998C648.013 34.6721 651.753 37.1298 655.628 39.3598C652.146 35.8927 648.427 32.6716 644.498 29.7198C648.425 26.74 652.14 23.4923 655.618 19.9998Z" fill="#FFCC00"/>
<path d="M657.87 19.4202C654 21.6497 650.264 24.1039 646.68 26.7702C646.68 22.6402 646.591 18.5102 646.341 14.3702C646.101 9.7302 645.8 5.0902 645.18 0.450195C644.55 5.0902 644.26 9.7302 644.01 14.3702C643.77 18.5002 643.71 22.6402 643.67 26.7702C640.088 24.1031 636.351 21.6489 632.48 19.4202C635.966 22.8835 639.685 26.1044 643.61 29.0602C639.684 32.0141 635.965 35.2351 632.48 38.7002C636.36 36.4722 640.104 34.0145 643.69 31.3402C643.69 34.9702 643.79 38.5902 644 42.2202L644.43 49.2202C644.68 51.5402 644.83 53.8602 645.18 56.2202C645.52 53.9002 645.67 51.5802 645.93 49.2202L646.35 42.2202C646.57 38.5902 646.63 34.9702 646.67 31.3402C650.255 34.0125 653.995 36.4702 657.87 38.7002C654.388 35.2331 650.669 32.012 646.74 29.0602C650.668 26.1065 654.386 22.8855 657.87 19.4202Z" fill="white"/>
</svg>
