<svg viewBox="0 0 681 52" fill="none" xmlns="http://www.w3.org/2000/svg">
<path d="M12.7102 31.2C12.2902 33.6067 11.9002 35.94 11.5402 38.2C11.1902 40.43 10.8802 42.53 10.6102 44.48C10.3402 46.43 10.1402 48.17 10.0002 49.69C9.94501 50.1844 9.69708 50.6372 9.31021 50.95C8.74014 51.1473 8.12028 51.1473 7.55021 50.95C6.73021 50.77 5.91021 50.55 5.08021 50.29C4.2851 50.0373 3.50967 49.7265 2.76021 49.36C2.06629 49.0656 1.46008 48.5972 1.00021 48C0.65118 47.3482 0.521436 46.6013 0.630207 45.87C0.630207 44.49 0.690208 42.79 0.820208 40.79C0.950208 38.79 1.12021 36.61 1.35021 34.27C1.58021 31.93 1.84021 29.5 2.12021 26.98C2.40021 24.46 2.71021 21.98 3.05021 19.53C3.39021 17.08 3.72021 14.76 4.05021 12.53C4.38021 10.3 4.72021 8.42998 5.05021 6.75998C5.11207 6.31197 5.26347 5.88098 5.4954 5.49271C5.72734 5.10444 6.03505 4.76683 6.40021 4.49998C7.27516 4.16938 8.228 4.10331 9.14021 4.30998C10.7817 4.54771 12.4078 4.88162 14.0102 5.30998C15.3502 5.65998 16.6802 6.08998 18.0102 6.58998C18.7198 6.82949 19.3928 7.16601 20.0102 7.58998C20.4675 7.9303 20.8632 8.34629 21.1802 8.81998C21.4621 9.26998 21.6682 9.76321 21.7902 10.28C21.9102 10.81 22.0502 11.42 22.1902 12.09C22.191 12.4714 22.2177 12.8522 22.2702 13.23C22.2702 13.68 22.4302 14.47 22.5902 15.6C22.7502 16.73 22.9902 18.35 23.3002 20.45C23.6102 22.55 24.0702 25.45 24.6302 29.07C25.1969 27.79 25.8635 26.3867 26.6302 24.86C27.3969 23.3333 28.1869 21.7733 29.0002 20.18C29.8202 18.58 30.6602 16.99 31.5302 15.39C32.4002 13.79 33.2402 12.29 34.0602 10.87C34.8702 9.22998 35.5802 7.86998 36.1802 6.86998C36.6677 5.97285 37.2995 5.16203 38.0502 4.46998C38.648 3.93654 39.4021 3.61036 40.2002 3.53998C41.2377 3.49893 42.2742 3.64457 43.2602 3.96998C44.7202 4.35998 46.2602 4.81998 47.8702 5.34998C49.4895 5.88298 51.0785 6.5039 52.6302 7.20998C53.4668 7.52986 54.157 8.14538 54.5702 8.93998C54.8311 9.84641 54.7674 10.8155 54.3902 11.68C53.8502 13.3467 53.2469 15.2633 52.5802 17.43C51.9135 19.5967 51.2469 21.8667 50.5802 24.24C49.8902 26.62 49.1902 29.03 48.5002 31.48C47.8102 33.93 47.1502 36.27 46.5002 38.48C45.8502 40.69 45.3202 42.77 44.8302 44.65C44.3402 46.53 43.9402 48.09 43.6502 49.34C43.4771 49.8594 43.1862 50.3317 42.8002 50.72C42.4802 51 41.8602 51.04 40.9402 50.83C40.0202 50.62 39.2902 50.43 38.4402 50.19C37.6618 49.9716 36.9104 49.6664 36.2002 49.28C35.8506 49.1707 35.5268 48.9919 35.248 48.7543C34.9692 48.5168 34.7412 48.2254 34.5778 47.8976C34.4144 47.5698 34.3189 47.2124 34.2969 46.8468C34.275 46.4812 34.3271 46.1149 34.4502 45.77C34.5902 44.7 34.8202 43.33 35.1402 41.64C35.4602 39.95 35.8302 38.1 36.2602 36.06C36.6902 34.02 37.1502 31.88 37.6702 29.64C38.1902 27.4 38.7402 25.24 39.3402 23.15C38.2802 25.0033 37.1535 27.0033 35.9602 29.15C34.7802 31.32 33.6202 33.45 32.5102 35.54C31.4002 37.63 30.3602 39.61 29.4202 41.48C28.4802 43.35 27.7202 44.89 27.1602 46.13C26.9802 46.52 26.8302 46.83 26.7002 47.06C26.5998 47.268 26.4441 47.4444 26.2502 47.57C26.0386 47.6873 25.8021 47.7525 25.5602 47.76C25.1824 47.7623 24.8059 47.7152 24.4402 47.62C23.1796 47.3686 21.9369 47.0346 20.7202 46.62C20.3747 46.4986 20.0402 46.3481 19.7202 46.17C19.4288 46.0106 19.1734 45.7927 18.9702 45.53C18.7358 45.2257 18.5471 44.8888 18.4102 44.53C18.2162 44.0429 18.0493 43.5455 17.9102 43.04C17.2002 40.48 16.5102 37.54 15.8602 34.2C15.2102 30.86 14.5802 27.51 14.0002 24C13.5669 26.3866 13.1369 28.7867 12.7102 31.2Z" fill="white"/>
<path d="M60.5302 6.28992C62.3902 5.85992 64.3502 5.46992 66.3902 5.11992C68.4302 4.76992 70.5202 4.44992 72.6702 4.18992C74.8202 3.92992 76.9502 3.74992 79.0802 3.67992C81.2102 3.60992 82.4002 4.42992 82.9702 6.01992C83.3997 6.74816 83.7357 7.52764 83.9702 8.33992C84.1502 9.02992 84.3302 9.77992 84.5102 10.5999C84.6036 10.9084 84.6323 11.2328 84.5944 11.5529C84.5566 11.873 84.453 12.1817 84.2902 12.4599C83.7149 12.8986 83.0137 13.1406 82.2902 13.1499L75.6902 13.8999C73.4235 14.1532 71.0302 14.4532 68.5102 14.7999C67.9769 16.3999 67.4802 18.0666 67.0202 19.7999C66.5602 21.5199 66.0202 23.3199 65.4802 25.1999C66.5402 25.0599 67.6002 24.9499 68.6702 24.8799C69.7402 24.8099 70.8702 24.7599 72.0702 24.7199C72.8575 24.6698 73.6472 24.7647 74.4002 24.9999C75.028 25.2719 75.536 25.7622 75.8302 26.3799C76.2427 27.0429 76.5782 27.7508 76.8302 28.4899C77.0602 29.1799 77.2602 29.8799 77.4402 30.5899C77.6202 31.2999 77.7502 31.9499 77.5202 32.2399C76.9896 32.6564 76.3514 32.9131 75.6802 32.9799C73.5602 33.3699 71.3802 33.7499 69.1602 34.0999C66.9402 34.4499 64.8102 34.8499 62.7502 35.2699C62.4702 36.4099 62.2002 37.4799 61.9502 38.4899C61.7002 39.4999 61.4402 40.4899 61.1502 41.4899C62.8235 41.1966 64.4135 40.9666 65.9202 40.7999C67.4302 40.6199 69.0702 40.4799 70.8402 40.3699C71.6197 40.2783 72.4098 40.3498 73.1602 40.5799C73.7567 40.8421 74.2517 41.2914 74.5702 41.8599C74.9621 42.4957 75.2968 43.165 75.5702 43.8599C75.8002 44.4799 76.0602 45.1099 76.3402 45.7499C76.5242 46.2192 76.5242 46.7406 76.3402 47.2099C76.1602 47.4799 75.6002 47.6999 74.6402 47.8799C72.3735 48.2999 70.0669 48.7432 67.7202 49.2099C65.3735 49.6766 63.1335 50.0932 61.0002 50.4599C59.9621 50.7992 58.8571 50.8816 57.7802 50.6999C57.1131 50.5306 56.4781 50.2536 55.9002 49.8799C55.2902 49.4899 54.7202 49.0899 54.1702 48.6799C53.6202 48.2699 52.9702 47.7499 52.1702 47.1099C51.5822 46.6284 51.1019 46.0288 50.7602 45.3499C50.4115 44.5869 50.2734 43.7444 50.3602 42.9099L55.4202 7.50992C57.0002 7.11992 58.6702 6.70992 60.5302 6.28992Z" fill="white"/>
<path d="M92.2501 43.7598C91.8401 45.7598 91.4501 47.6998 91.0501 49.6098C90.9591 50.0577 90.7063 50.4564 90.3401 50.7298C89.7962 50.9196 89.204 50.9196 88.6601 50.7298C87.6601 50.4798 86.8501 50.2798 86.1101 50.1398C85.3741 49.9986 84.6631 49.7493 84.0001 49.3998C83.3931 49.0951 82.8991 48.6047 82.5901 47.9998C82.3231 47.2957 82.2338 46.5366 82.3301 45.7898C82.4001 45.0398 82.5001 43.9598 82.6201 42.5398C82.7401 41.1198 82.8901 39.5398 83.0701 37.7298C83.2501 35.9198 83.4501 34.0098 83.6801 31.9498C83.9101 29.8898 84.1601 27.8398 84.4301 25.7798C84.7001 23.7198 84.9901 21.7298 85.3101 19.7798C85.6301 17.8298 85.9601 16.1098 86.3101 14.5698C86.5865 13.2579 86.978 11.9729 87.4801 10.7298C87.7165 9.97699 88.1813 9.31643 88.8101 8.83979C91.0101 7.83979 93.3101 6.83979 95.7001 5.91979C97.9834 4.99509 100.356 4.30812 102.78 3.86979C104.958 3.46026 107.19 3.42307 109.38 3.75979C111.447 4.09332 113.355 5.07362 114.83 6.55979C116.078 7.90443 117.209 9.35301 118.21 10.8898C119.308 12.6357 120.109 14.5517 120.58 16.5598C121.088 18.5155 120.9 20.5869 120.05 22.4198C118.572 25.1309 116.462 27.4462 113.9 29.1698C110.692 31.4317 107.261 33.3585 103.66 34.9198C104.47 35.8498 105.37 36.8198 106.35 37.8498C107.33 38.8798 108.35 39.9098 109.35 40.9398C110.35 41.9698 111.35 42.9398 112.41 43.9398C113.47 44.9398 114.41 45.7298 115.26 46.4398C115.967 47.0398 116.3 47.5198 116.26 47.8798C116.105 48.3496 115.78 48.7451 115.35 48.9898C114.883 49.4006 114.329 49.7013 113.73 49.8698C113.29 49.9598 112.73 50.0598 112.11 50.1598C111.269 50.3829 110.394 50.4473 109.53 50.3498C108.36 50.1729 107.241 49.7466 106.25 49.0998C105.417 48.5198 104.467 47.8198 103.4 46.9998C102.333 46.1798 101.233 45.2398 100.1 44.1798C98.9701 43.1798 97.8301 42.0798 96.7001 40.9598C95.606 39.8934 94.5743 38.7649 93.6101 37.5798C93.1101 39.7065 92.6568 41.7665 92.2501 43.7598ZM97.6501 21.7598C97.1168 23.8198 96.5134 26.0198 95.8401 28.3598C98.1267 27.6269 100.316 26.6196 102.36 25.3598C104.067 24.3152 105.665 23.1025 107.13 21.7398C108.235 20.733 109.17 19.5545 109.9 18.2498C110.4 17.5004 110.59 16.5864 110.43 15.6998C110 14.6998 108.74 14.2098 106.65 14.2098C105.504 14.2203 104.362 14.3442 103.24 14.5798C101.874 14.8739 100.551 15.3375 99.3001 15.9598C98.7401 17.7298 98.1901 19.6698 97.6501 21.7198V21.7598Z" fill="white"/>
<path d="M150 40.4602C149.983 41.4391 149.696 42.3943 149.17 43.2202C148.528 44.506 147.703 45.6917 146.72 46.7402C145.812 47.7257 144.807 48.6169 143.72 49.4002C143.157 49.7559 142.561 50.0572 141.94 50.3002C141.234 50.5932 140.505 50.8273 139.76 51.0002C138.969 51.1774 138.167 51.301 137.36 51.3702C136.555 51.44 135.745 51.44 134.94 51.3702C133.409 51.282 131.893 51.0238 130.42 50.6002C129.07 50.1902 127.86 49.8102 126.8 49.4502C125.768 49.0161 124.799 48.4442 123.92 47.7502C123.004 47.044 122.245 46.1552 121.69 45.1402C120.717 43.4746 120.06 41.6441 119.75 39.7402C119.364 37.5459 119.23 35.3148 119.35 33.0902C119.453 30.6308 119.788 28.1866 120.35 25.7902C120.933 23.285 121.743 20.8382 122.77 18.4802C123.788 16.1219 125.027 13.8652 126.47 11.7402C127.859 9.67869 129.513 7.80925 131.39 6.18018C132.687 5.01345 134.233 4.15836 135.91 3.68018C137.313 3.30187 138.77 3.15992 140.22 3.26018C141.262 3.37088 142.294 3.55466 143.31 3.81018C144.357 4.08897 145.388 4.42277 146.4 4.81018C147.38 5.1572 148.341 5.5544 149.28 6.00018C150.101 6.40579 150.899 6.85647 151.67 7.35018C152.282 7.84416 152.845 8.39678 153.35 9.00018C153.771 9.51457 154.127 10.0788 154.41 10.6802C154.682 11.2434 154.87 11.8429 154.97 12.4602C155.083 13.1219 155.156 13.7898 155.19 14.4602C155.19 15.2735 155.19 16.1235 155.19 17.0102C155.19 17.9002 155.06 18.7802 154.95 19.6402C154.84 20.5002 154.7 21.3502 154.52 22.1502C154.364 22.8765 154.171 23.5941 153.94 24.3002C153.83 24.5902 153.73 24.8502 153.62 25.1002C153.524 25.3301 153.369 25.5303 153.17 25.6802C152.924 25.8468 152.637 25.9404 152.34 25.9502C151.857 25.9796 151.373 25.9426 150.9 25.8402C149.903 25.6771 148.93 25.395 148 25.0002C147.266 24.6669 146.591 24.2178 146 23.6702C145.472 23.1548 145.042 22.5484 144.73 21.8802C144.388 21.1376 144.156 20.3494 144.04 19.5402C143.936 18.855 143.883 18.1632 143.88 17.4702C143.918 16.4375 143.864 15.4035 143.72 14.3802C143.693 13.9901 143.56 13.6148 143.334 13.2955C143.108 12.9763 142.799 12.7253 142.44 12.5702C141.73 12.3602 140.9 12.7602 139.94 13.7902C138.829 15.0193 137.847 16.3597 137.01 17.7902C135.964 19.5488 135.033 21.3725 134.22 23.2502C133.433 25.0476 132.765 26.895 132.22 28.7802C131.778 30.5247 131.444 32.2947 131.22 34.0802C130.998 35.6666 130.918 37.2696 130.98 38.8702C131.013 40.1127 131.246 41.3419 131.67 42.5102C131.789 42.927 132.006 43.309 132.304 43.6241C132.602 43.9391 132.971 44.1779 133.38 44.3202C134.79 44.7802 136.96 43.5202 139.87 40.5402C141.957 38.4069 144.687 37.8235 148.06 38.7902C149.24 39.1602 149.94 39.7102 150 40.4602Z" fill="white"/>
<path d="M171.07 41.0002C168.713 41.3156 166.376 41.7663 164.07 42.3502C163.36 43.7402 162.74 45.0202 162.21 46.2102C161.68 47.4002 161.16 48.5602 160.67 49.7002C160.59 49.9387 160.459 50.1569 160.286 50.3399C160.114 50.5229 159.903 50.6663 159.67 50.7602C159.044 50.8435 158.408 50.7535 157.83 50.5002L156.32 49.8802C155.77 49.6502 155.21 49.4002 154.64 49.1102L153.52 48.3902C153.221 48.2155 152.967 47.9721 152.78 47.6802C152.586 47.3457 152.483 46.9667 152.48 46.5802C152.491 45.9753 152.592 45.3754 152.78 44.8002C153.627 42.3469 154.733 39.4735 156.1 36.1802C157.467 32.8869 158.927 29.4935 160.48 26.0002C162.06 22.4935 163.673 19.0269 165.32 15.6002C166.967 12.1735 168.527 9.12355 170 6.45021C170.508 5.52318 171.219 4.72317 172.08 4.11021C173.219 3.43996 174.558 3.19545 175.86 3.42021C177.31 3.49021 178.61 3.60021 179.74 3.76021C180.87 3.92021 181.92 4.11021 182.86 4.32021C183.8 4.53021 184.67 4.76021 185.46 5.01021C186.25 5.26021 187.07 5.49021 187.89 5.70021C188.767 5.91895 189.522 6.47625 189.99 7.25021C190.312 8.04182 190.412 8.906 190.28 9.75021C190.073 12.2702 189.897 15.1602 189.75 18.4202C189.61 21.6902 189.5 25.0902 189.43 28.6402C189.36 32.1902 189.31 35.7502 189.3 39.3102C189.29 42.8702 189.3 46.1902 189.3 49.2402C189.327 49.4774 189.305 49.7177 189.237 49.9463C189.168 50.175 189.053 50.3872 188.9 50.5702C188.364 50.8874 187.738 51.0175 187.12 50.9402C186.2 50.9402 185.35 50.9402 184.57 50.8602C183.751 50.8005 182.944 50.6324 182.17 50.3602C181.495 50.1989 180.879 49.8526 180.39 49.3602C179.965 48.7452 179.716 48.0261 179.67 47.2802C179.53 46.2802 179.4 45.1302 179.3 43.9002C179.2 42.6702 179.08 41.3402 178.98 39.9002C176.37 40.2802 173.72 40.6402 171.07 41.0002ZM173.68 31.8202C175.29 31.6402 176.92 31.5002 178.55 31.3902C178.48 28.4802 178.42 25.5802 178.39 22.6902C178.36 19.8002 178.39 16.9302 178.44 14.0902C177.02 16.6835 175.487 19.5502 173.84 22.6902C172.193 25.8302 170.527 29.0835 168.84 32.4502C170.46 32.2302 172.06 32.0002 173.68 31.8402V31.8202Z" fill="white"/>
<path d="M200.66 5.73021C202.554 5.05703 204.506 4.55829 206.49 4.24021C208.575 3.90031 210.69 3.77632 212.8 3.87021C214.917 3.95999 217.007 4.37137 219 5.09021C221.038 5.83823 222.924 6.94578 224.57 8.36021C226.39 9.98086 227.857 11.9585 228.88 14.1702C229.884 16.1301 230.515 18.2597 230.74 20.4502C230.984 22.7899 230.849 25.1536 230.34 27.4502C229.786 29.9519 228.88 32.3625 227.65 34.6102C226.307 37.0708 224.624 39.3298 222.65 41.3202C220.498 43.516 218.071 45.4251 215.43 47.0002C212.445 48.7511 209.24 50.0962 205.9 51.0002C204.969 51.3142 203.984 51.4337 203.005 51.3511C202.027 51.2685 201.075 50.9857 200.21 50.5202C199.313 50.0619 198.442 49.5544 197.6 49.0002C196.86 48.5202 196.01 47.9302 195.05 47.2202C194.69 46.9002 194.36 46.5902 194.05 46.2802C193.728 45.9876 193.448 45.6509 193.22 45.2802C192.973 44.8362 192.82 44.346 192.77 43.8402C192.705 43.114 192.721 42.3827 192.82 41.6602L195.91 7.86021C197.436 7.0289 199.024 6.31678 200.66 5.73021V5.73021ZM210.16 38.3602C212.014 36.853 213.662 35.1079 215.06 33.1702C216.263 31.5012 217.229 29.6739 217.93 27.7402C218.529 26.1114 218.905 24.4095 219.05 22.6802C219.254 20.9764 218.995 19.2492 218.3 17.6802C217.589 16.3739 216.41 15.3845 215 14.9102C213.083 14.3154 211.02 14.3894 209.15 15.1202C207.9 19.7702 206.81 24.3602 205.85 28.8802C204.89 33.4002 203.92 38.0002 203 42.5902C205.58 41.5357 207.992 40.1107 210.16 38.3602V38.3602Z" fill="white"/>
<path d="M265.8 11.4301C266.455 12.746 266.914 14.151 267.16 15.6001C267.557 18.3952 267.648 21.2254 267.43 24.0401C267.207 27.1012 266.681 30.1326 265.86 33.0901C265.042 36.0348 263.899 38.8791 262.45 41.5701C261.104 44.1209 259.312 46.4103 257.16 48.3301C255.844 49.3818 254.316 50.1358 252.68 50.5401C250.917 50.9302 249.1 51.0114 247.31 50.7801C245.916 50.6329 244.531 50.4126 243.16 50.1201C241.809 49.8415 240.501 49.3841 239.27 48.7601C238.264 48.2225 237.319 47.5788 236.45 46.8401C235.559 46.1018 234.819 45.1987 234.27 44.1801C233.379 42.4338 232.733 40.573 232.35 38.6501C231.919 36.5112 231.725 34.3315 231.77 32.1501C231.874 27.3904 232.893 22.6952 234.77 18.3201C235.724 16.0986 236.904 13.9808 238.29 12.0001C239.678 10.0013 241.315 8.18675 243.16 6.60012C244.488 5.59622 245.995 4.85311 247.6 4.41012C249.196 3.92571 250.88 3.79938 252.53 4.04012C254.497 4.3485 256.43 4.84752 258.3 5.53012C259.936 6.1029 261.471 6.92969 262.85 7.98012C264.064 8.91101 265.069 10.0864 265.8 11.4301V11.4301ZM251.8 14.1901C250.719 15.2449 249.777 16.4347 249 17.7301C248.023 19.334 247.161 21.0048 246.42 22.7301C245.667 24.4446 245.022 26.2047 244.49 28.0001C243.988 29.6969 243.63 31.4331 243.42 33.1901C243.216 34.8484 243.146 36.5205 243.21 38.1901C243.239 39.5555 243.493 40.9069 243.96 42.1901C244.09 42.6469 244.326 43.0664 244.649 43.4141C244.973 43.7618 245.374 44.0277 245.82 44.1901C246.22 44.3072 246.642 44.3247 247.05 44.2411C247.458 44.1574 247.839 43.9751 248.16 43.7101C249.124 42.995 249.953 42.1147 250.61 41.1101C251.526 39.7458 252.3 38.2916 252.92 36.7701C253.686 34.9453 254.318 33.067 254.81 31.1501C255.303 29.3431 255.677 27.5059 255.93 25.6501C256.207 23.7895 256.351 21.9113 256.36 20.0301C256.388 18.4978 256.217 16.9683 255.85 15.4801C255.51 14.2201 254.99 13.4801 254.28 13.2701C253.57 13.0601 252.7 13.3201 251.78 14.1901H251.8Z" fill="white"/>
<path d="M319.85 13.0702L314.79 13.5802C314.05 16.5602 313.28 19.6468 312.48 22.8402C311.68 26.0335 310.907 29.2002 310.16 32.3402C309.42 35.4802 308.72 38.5402 308.06 41.5202C307.4 44.5202 306.83 47.2902 306.33 49.8802C306.326 50.0735 306.279 50.2637 306.193 50.4367C306.106 50.6097 305.982 50.7612 305.83 50.8802C305.491 51.0535 305.109 51.1263 304.73 51.0902C304.189 51.0642 303.655 50.9667 303.14 50.8002L301.14 50.2202C300.462 50.021 299.794 49.7874 299.14 49.5202C298.587 49.3117 298.076 49.007 297.63 48.6202C297.234 48.2865 296.93 47.8558 296.75 47.3702C296.566 46.8109 296.545 46.2108 296.69 45.6402C296.8 43.9402 297.01 41.8402 297.33 39.3602C297.65 36.8802 298.03 34.2502 298.48 31.4802C298.93 28.7102 299.41 25.9202 299.94 23.1002C300.47 20.2802 301.01 17.6602 301.54 15.2502C300.54 15.4302 299.54 15.5802 298.54 15.7002C297.73 15.7992 296.929 15.9528 296.14 16.1602C295.43 16.3652 294.681 16.3893 293.96 16.2302C293.196 15.9564 292.519 15.4834 292 14.8602C291.204 14.0038 290.531 13.0413 290 12.0002C289.38 10.8602 288.87 9.90016 288.48 9.12016C288.09 8.34016 287.95 7.77016 288.16 7.50016C288.526 7.14896 288.99 6.91559 289.49 6.83016C291.583 6.41016 293.953 6.02016 296.6 5.66016C299.247 5.30016 301.94 4.98349 304.68 4.71016C307.433 4.42349 310.13 4.18349 312.77 3.99016C315.41 3.79683 317.78 3.6635 319.88 3.59016C320.681 3.55039 321.482 3.64848 322.25 3.88016C322.749 4.09412 323.181 4.43976 323.5 4.88016C324.202 5.68264 324.791 6.57765 325.25 7.54016C325.697 8.44332 326.055 9.38775 326.32 10.3602C326.526 10.8977 326.526 11.4926 326.32 12.0302C326.12 12.3402 325.47 12.5202 324.37 12.5902C323 12.7602 321.48 12.9202 319.85 13.0702Z" fill="white"/>
<path d="M339 49.1098C336.64 49.5498 334.397 49.9831 332.27 50.4098C331.618 50.6008 330.947 50.7247 330.27 50.7798C329.845 50.8118 329.418 50.7849 329 50.6998C328.653 50.6311 328.317 50.5168 328 50.3598C327.727 50.2064 327.467 50.0464 327.22 49.8798C326.648 49.5104 326.097 49.1098 325.57 48.6798C325.08 48.2698 324.42 47.7498 323.57 47.1098C323.002 46.6483 322.532 46.0769 322.19 45.4298C321.859 44.7253 321.764 43.9325 321.92 43.1698C322.027 41.7898 322.207 40.1498 322.46 38.2498C322.713 36.3498 323.013 34.2998 323.36 32.0998C323.72 29.8998 324.11 27.6198 324.53 25.2598C324.95 22.8998 325.413 20.5664 325.92 18.2598C326.41 15.9198 326.92 13.6698 327.43 11.4998C327.94 9.32978 328.43 7.34978 328.95 5.49978C329.3 4.49978 329.76 3.85978 330.31 3.65978C331.134 3.48179 331.993 3.54782 332.78 3.84978C333.994 4.17304 335.187 4.57386 336.35 5.04977C337.523 5.51021 338.645 6.08992 339.7 6.77978C340.403 7.22275 340.995 7.82152 341.43 8.52978C341.656 9.23088 341.609 9.99136 341.3 10.6598C340.587 12.7931 339.867 15.1264 339.14 17.6598C338.41 20.2098 337.69 22.8398 336.96 25.5398C336.23 28.2398 335.54 30.9198 334.88 33.5998C334.22 36.2798 333.61 38.8398 333.05 41.2898C334.68 41.0098 336.21 40.7898 337.62 40.6498C339.03 40.5098 340.62 40.3798 342.25 40.2798C343.011 40.1876 343.783 40.2488 344.52 40.4598C345.117 40.7352 345.611 41.1941 345.93 41.7698C346.324 42.383 346.659 43.0327 346.93 43.7098C347.174 44.3258 347.378 44.9572 347.54 45.5998C347.763 46.063 347.826 46.5868 347.72 47.0898C347.6 47.3431 346.99 47.5731 345.89 47.7798L339 49.1098Z" fill="white"/>
<path d="M368.09 41.0002C365.733 41.3156 363.395 41.7663 361.09 42.3502C360.38 43.7402 359.76 45.0202 359.23 46.2102C358.7 47.4002 358.18 48.5602 357.69 49.7002C357.61 49.9387 357.479 50.157 357.306 50.34C357.134 50.523 356.923 50.6663 356.69 50.7602C356.064 50.8435 355.428 50.7536 354.85 50.5002L353.34 49.8802C352.79 49.6502 352.23 49.4002 351.66 49.1102L350.54 48.3902C350.241 48.2155 349.987 47.9721 349.8 47.6802C349.605 47.3466 349.505 46.9664 349.51 46.5802C349.516 45.9757 349.614 45.3756 349.8 44.8002C350.653 42.3469 351.763 39.4736 353.13 36.1802C354.497 32.8869 355.953 29.4936 357.5 26.0002C359.08 22.4936 360.693 19.0269 362.34 15.6002C363.987 12.1736 365.56 9.13023 367.06 6.47023C367.562 5.54202 368.27 4.74144 369.13 4.13023C370.269 3.45998 371.608 3.21547 372.91 3.44023C374.36 3.51023 375.66 3.62023 376.8 3.78023C377.94 3.94023 378.97 4.13023 379.91 4.34023C380.85 4.55023 381.72 4.78023 382.52 5.03023C383.32 5.28023 384.12 5.51023 384.94 5.72023C385.817 5.93897 386.572 6.49627 387.04 7.27023C387.362 8.06183 387.462 8.92602 387.33 9.77023C387.123 12.2902 386.947 15.1802 386.8 18.4402C386.66 21.7102 386.55 25.1102 386.48 28.6602C386.41 32.2102 386.37 35.7702 386.35 39.3302C386.33 42.8902 386.35 46.2102 386.35 49.2602C386.375 49.4974 386.352 49.737 386.283 49.9654C386.215 50.1937 386.101 50.4061 385.95 50.5902C385.41 50.9053 384.781 51.0353 384.16 50.9602C383.24 50.9602 382.39 50.9602 381.61 50.8802C380.791 50.8205 379.984 50.6524 379.21 50.3802C378.535 50.2189 377.919 49.8726 377.43 49.3802C377.005 48.7653 376.756 48.0461 376.71 47.3002C376.57 46.3002 376.45 45.1502 376.34 43.9202C376.23 42.6902 376.13 41.3602 376.02 39.9202C373.39 40.2802 370.74 40.6402 368.09 41.0002ZM370.7 31.8202C372.32 31.6402 373.94 31.5002 375.57 31.3902C375.503 28.4836 375.45 25.5836 375.41 22.6902C375.41 19.8002 375.41 16.9302 375.41 14.0902C374.003 16.6836 372.47 19.5502 370.81 22.6902C369.15 25.8302 367.483 29.0836 365.81 32.4502C367.48 32.2302 369.09 32.0002 370.7 31.8402V31.8202Z" fill="white"/>
<path d="M422.25 49.4001C422.17 49.7501 421.8 50.0901 421.13 50.4001C420.521 50.7404 419.877 51.0152 419.21 51.2201C418.57 51.4201 417.93 51.5901 417.3 51.7301C416.585 51.8724 415.848 51.8566 415.139 51.6839C414.431 51.5111 413.769 51.1856 413.2 50.7301C413.049 50.5774 412.888 50.4338 412.72 50.3001L412.24 49.9801C411.217 50.4492 410.114 50.7207 408.99 50.7801C407.768 50.8502 406.542 50.8502 405.32 50.7801C403.905 50.6774 402.501 50.4634 401.12 50.1401C399.788 49.8393 398.499 49.3758 397.28 48.7601C396.274 48.2225 395.329 47.5788 394.46 46.8401C393.569 46.1018 392.829 45.1987 392.28 44.1801C391.388 42.4353 390.745 40.5738 390.37 38.6501C389.931 36.5126 389.743 34.3312 389.81 32.1501C389.87 29.8182 390.135 27.496 390.6 25.2101C391.581 20.4646 393.52 15.9694 396.3 12.0001C397.697 9.99299 399.351 8.17754 401.22 6.60012C402.526 5.59064 404.018 4.84665 405.61 4.41012C407.206 3.92571 408.889 3.79938 410.54 4.04012C412.507 4.3485 414.44 4.84752 416.31 5.53012C417.946 6.1029 419.481 6.92969 420.86 7.98012C422.075 8.91219 423.066 10.1047 423.76 11.4701C424.38 12.7957 424.821 14.1981 425.07 15.6401C425.428 17.982 425.562 20.3528 425.47 22.7201C425.377 25.3155 425.063 27.8983 424.53 30.4401C424.004 33.0226 423.248 35.5527 422.27 38.0001C421.347 40.3484 420.124 42.5669 418.63 44.6001C419.153 45.152 419.641 45.7365 420.09 46.3501C420.506 46.9297 420.961 47.4809 421.45 48.0001C422.05 48.5701 422.32 49.0001 422.25 49.4001ZM405.45 42.9101L404.84 42.1101C403.92 41.1101 404.11 40.3201 405.43 39.7101C406.1 39.3644 406.803 39.0896 407.53 38.8901C408.415 38.6367 409.313 38.4331 410.22 38.2801C411.397 36.0347 412.239 33.6293 412.72 31.1401C413.095 29.8247 413.395 28.4893 413.62 27.1401C413.87 25.7001 414.06 24.2701 414.18 22.8501C414.303 21.5206 414.34 20.1844 414.29 18.8501C414.258 17.7402 414.124 16.6356 413.89 15.5501C413.814 14.7395 413.431 13.9885 412.82 13.4501C412.572 13.2819 412.284 13.183 411.985 13.1637C411.686 13.1443 411.387 13.2052 411.12 13.3401C410.331 13.7228 409.633 14.2681 409.07 14.9401C408.267 15.8395 407.547 16.8102 406.92 17.8401C405.484 20.1863 404.313 22.685 403.43 25.2901C402.54 27.8996 401.855 30.5743 401.38 33.2901C401.244 34.5621 401.184 35.841 401.2 37.1201C401.202 38.2198 401.299 39.3172 401.49 40.4001C401.629 41.26 401.917 42.089 402.34 42.8501C402.676 43.4503 403.2 43.9243 403.83 44.2001C404.231 44.3323 404.661 44.3528 405.073 44.2595C405.486 44.1661 405.865 43.9624 406.17 43.6701C405.911 43.4351 405.671 43.1811 405.45 42.9101V42.9101Z" fill="white"/>
<path d="M427.06 40.1099C426.71 38.2405 426.542 36.3416 426.56 34.4399C426.575 32.253 426.722 30.069 427 27.8999C427.287 25.5932 427.66 23.2599 428.12 20.8999C428.58 18.5399 429.103 16.1532 429.69 13.7399C430.27 11.3499 430.89 9.01986 431.53 6.73986C431.584 6.35533 431.724 5.98805 431.941 5.66581C432.157 5.34357 432.444 5.0748 432.78 4.87986C433.627 4.69433 434.511 4.78909 435.3 5.14986C436.354 5.46517 437.378 5.87344 438.36 6.36986C439.355 6.88066 440.308 7.46915 441.21 8.12986C442.095 8.66054 442.774 9.47516 443.137 10.4411C443.501 11.4071 443.526 12.4675 443.21 13.4499C442.64 15.2999 442.05 17.2899 441.43 19.4499C440.81 21.6099 440.23 23.7699 439.7 25.9699C439.17 28.1699 438.7 30.3099 438.34 32.4099C437.982 34.2568 437.735 36.1235 437.6 37.9999C437.492 39.3885 437.58 40.7855 437.86 42.1499C437.904 42.5979 438.076 43.024 438.354 43.3782C438.632 43.7324 439.005 44.0001 439.43 44.1499C440.43 44.3999 441.33 43.9399 442.26 42.7699C443.356 41.2747 444.24 39.636 444.89 37.8999C445.816 35.5368 446.617 33.1268 447.29 30.6799C448.05 27.9532 448.757 25.1432 449.41 22.2499C450.07 19.3599 450.66 16.5099 451.2 13.7099C451.74 10.9099 452.2 8.39986 452.63 6.19986C452.7 5.13986 453.09 4.49986 453.8 4.28986C454.654 4.07384 455.551 4.10156 456.39 4.36986C457.512 4.67672 458.598 5.10246 459.63 5.63986C460.79 6.22986 461.84 6.80986 462.8 7.36986C463.21 7.62256 463.592 7.91751 463.94 8.24986C464.187 8.48027 464.379 8.76416 464.5 9.07986C464.61 9.37678 464.647 9.69552 464.61 10.0099C464.61 10.3499 464.5 10.7399 464.4 11.2099C463.327 16.2765 462.253 20.9432 461.18 25.2099C460.226 29.0163 459.078 32.7712 457.74 36.4599C456.73 39.329 455.409 42.0788 453.8 44.6599C452.631 46.6138 451.009 48.2569 449.07 49.4499C447.888 50.0311 446.633 50.4515 445.34 50.6999C443.936 50.936 442.509 50.9998 441.09 50.8899C438.349 50.8033 435.66 50.1209 433.21 48.8899C432.318 48.3943 431.481 47.8079 430.71 47.1399C429.909 46.4229 429.234 45.5781 428.71 44.6399C427.902 43.2366 427.344 41.7039 427.06 40.1099V40.1099Z" fill="white"/>
<path d="M472.19 6.28992C474.05 5.85992 476.01 5.46992 478.05 5.11992C480.09 4.76992 482.18 4.44992 484.33 4.18992C486.48 3.92992 488.61 3.74992 490.74 3.67992C492.87 3.60992 494.06 4.42992 494.63 6.01992C495.059 6.74816 495.395 7.52764 495.63 8.33992C495.81 9.02992 495.99 9.77992 496.17 10.5999C496.263 10.9084 496.292 11.2328 496.254 11.5529C496.216 11.873 496.113 12.1817 495.95 12.4599C495.375 12.8986 494.673 13.1406 493.95 13.1499L487.35 13.8999C485.083 14.1532 482.69 14.4532 480.17 14.7999C479.643 16.3999 479.147 18.0666 478.68 19.7999C478.22 21.5199 477.68 23.3199 477.14 25.1999C478.2 25.0599 479.26 24.9499 480.33 24.8799C481.4 24.8099 482.53 24.7599 483.74 24.7199C484.53 24.6646 485.323 24.7561 486.08 24.9899C486.708 25.2619 487.216 25.7522 487.51 26.3699C487.922 27.0329 488.258 27.7408 488.51 28.4799C488.74 29.1699 488.94 29.8699 489.12 30.5799C489.3 31.2899 489.43 31.9399 489.2 32.2299C488.669 32.6464 488.031 32.9031 487.36 32.9699C485.24 33.3599 483.06 33.7399 480.84 34.0899C478.62 34.4399 476.49 34.8399 474.43 35.2599C474.15 36.3999 473.88 37.4699 473.63 38.4799C473.38 39.4899 473.12 40.4799 472.83 41.4799C474.503 41.1866 476.093 40.9566 477.6 40.7899C479.11 40.6099 480.75 40.4699 482.52 40.3599C483.299 40.2677 484.09 40.3392 484.84 40.5699C485.436 40.8321 485.931 41.2814 486.25 41.8499C486.642 42.4857 486.976 43.155 487.25 43.8499C487.48 44.4699 487.74 45.0999 488.02 45.7399C488.204 46.2092 488.204 46.7306 488.02 47.1999C487.85 47.4699 487.28 47.6899 486.32 47.8699C484.053 48.2899 481.747 48.7332 479.4 49.1999C477.053 49.6666 474.817 50.0899 472.69 50.4699C471.652 50.8092 470.547 50.8916 469.47 50.7099C468.803 50.5406 468.168 50.2636 467.59 49.8899C466.98 49.4999 466.41 49.0999 465.86 48.6899C465.31 48.2799 464.66 47.7599 463.91 47.1199C463.322 46.6384 462.842 46.0388 462.5 45.3599C462.151 44.5969 462.013 43.7544 462.1 42.9199L467.16 7.51992C468.63 7.11992 470.33 6.70992 472.19 6.28992Z" fill="white"/>
<path d="M504.28 44.4001C503.907 46.2801 503.573 48.1234 503.28 49.9301C503.18 50.3845 502.912 50.7844 502.53 51.0501C501.925 51.2411 501.275 51.2411 500.67 51.0501L498 50.3301C497.194 50.1272 496.418 49.8213 495.69 49.4201C495.065 49.0919 494.54 48.6014 494.17 48.0001C493.825 47.3078 493.76 46.5088 493.99 45.7701C494.427 44.3671 494.718 42.9228 494.86 41.4601C495.127 39.4601 495.367 37.1634 495.58 34.5701C495.793 31.9768 496.007 29.3101 496.22 26.5701C496.43 23.8001 496.65 21.2401 496.86 18.9001C497.07 16.5601 497.31 14.6001 497.58 13.0201C497.85 11.4401 498.15 10.5701 498.51 10.3901C499.843 9.67676 501.333 8.9401 502.98 8.1801C504.61 7.4201 506.3 6.7201 508.04 6.1001C509.755 5.48648 511.505 4.97229 513.28 4.5601C514.946 4.16385 516.648 3.93934 518.36 3.8901C519.896 3.84976 521.429 4.0385 522.91 4.4501C524.282 4.84124 525.536 5.56616 526.56 6.5601C527.773 7.91851 528.883 9.36589 529.88 10.8901C530.974 12.6382 531.774 14.5535 532.25 16.5601C532.733 18.5051 532.518 20.5582 531.64 22.3601C531.219 23.2315 530.703 24.0533 530.1 24.8101C529.458 25.6094 528.773 26.3738 528.05 27.1001C526.719 28.4069 525.266 29.5824 523.71 30.6101C521.945 31.7935 520.105 32.8592 518.2 33.8001C516.186 34.8132 514.116 35.7113 512 36.4901C509.82 37.2901 507.663 37.9568 505.53 38.4901C505.06 40.5601 504.66 42.5201 504.28 44.4001ZM514.37 25.6401C516.048 24.6357 517.602 23.4375 519 22.0701C520.062 21.0584 520.927 19.858 521.55 18.5301C522.028 17.6522 522.143 16.6218 521.87 15.6601C521.77 15.2334 521.39 14.9001 520.73 14.6601C519.922 14.4096 519.074 14.3113 518.23 14.3701C517.08 14.4191 515.938 14.5798 514.82 14.8501C513.509 15.1597 512.23 15.5916 511 16.1401C510.44 18.0501 509.89 20.0401 509.38 22.1401C508.87 24.2401 508.38 26.3401 507.81 28.5801C510.11 27.8749 512.313 26.8874 514.37 25.6401V25.6401Z" fill="white"/>
<path d="M547.55 41.0002C545.193 41.3156 542.855 41.7663 540.55 42.3502C539.84 43.7402 539.22 45.0202 538.69 46.2102C538.16 47.4002 537.64 48.5602 537.15 49.7002C537.07 49.9387 536.939 50.157 536.766 50.34C536.594 50.523 536.383 50.6663 536.15 50.7602C535.524 50.8435 534.888 50.7536 534.31 50.5002L532.8 49.8802C532.25 49.6502 531.69 49.4002 531.12 49.1102L530 48.4102C529.701 48.2355 529.447 47.9921 529.26 47.7002C529.066 47.3658 528.963 46.9867 528.96 46.6002C528.976 45.9958 529.077 45.3966 529.26 44.8202C530.113 42.3669 531.22 39.4936 532.58 36.2002C533.94 32.9069 535.413 29.5069 537 26.0002C538.58 22.4936 540.193 19.0269 541.84 15.6002C543.487 12.1736 545.057 9.13023 546.55 6.47023C547.058 5.5432 547.769 4.74319 548.63 4.13023C549.769 3.45998 551.108 3.21547 552.41 3.44023C553.86 3.51023 555.16 3.62023 556.29 3.78023C557.42 3.94023 558.47 4.13023 559.41 4.34023C560.35 4.55023 561.22 4.78023 562.01 5.03023C562.8 5.28023 563.62 5.51023 564.44 5.72023C565.317 5.93897 566.072 6.49627 566.54 7.27023C566.862 8.06183 566.962 8.92602 566.83 9.77023C566.623 12.2902 566.447 15.1802 566.3 18.4402C566.16 21.7102 566.05 25.1102 565.98 28.6602C565.91 32.2102 565.86 35.7702 565.85 39.3302C565.84 42.8902 565.85 46.2102 565.85 49.2602C565.877 49.4975 565.855 49.7377 565.787 49.9664C565.718 50.195 565.603 50.4073 565.45 50.5902C564.914 50.9074 564.288 51.0375 563.67 50.9602C562.75 50.9602 561.9 50.9602 561.12 50.8802C560.301 50.8205 559.494 50.6524 558.72 50.3802C558.045 50.2189 557.429 49.8726 556.94 49.3802C556.515 48.7653 556.266 48.0461 556.22 47.3002C556.08 46.3002 555.95 45.1502 555.85 43.9202C555.75 42.6902 555.64 41.3602 555.53 39.9202C552.85 40.2802 550.2 40.6402 547.55 41.0002ZM550.16 31.8202C551.77 31.6402 553.4 31.5002 555.03 31.3902C554.963 28.4836 554.91 25.5836 554.87 22.6902C554.83 19.7969 554.83 16.9302 554.87 14.0902C553.45 16.6836 551.917 19.5502 550.27 22.6902C548.623 25.8302 546.957 29.0836 545.27 32.4502C546.94 32.2302 548.55 32.0002 550.16 31.8402V31.8202Z" fill="white"/>
<path d="M601.7 49.4002C601.63 49.7502 601.26 50.0902 600.59 50.4002C599.981 50.7404 599.337 51.0153 598.67 51.2202C598.003 51.4202 597.363 51.5902 596.75 51.7302C596.037 51.8709 595.301 51.8544 594.595 51.6817C593.888 51.509 593.228 51.1843 592.66 50.7302C592.509 50.5774 592.348 50.4338 592.18 50.3002L591.7 50.0002C590.676 50.4677 589.574 50.7391 588.45 50.8002C587.228 50.8702 586.002 50.8702 584.78 50.8002C583.365 50.6975 581.961 50.4835 580.58 50.1602C579.248 49.861 577.958 49.3975 576.74 48.7802C575.733 48.2448 574.787 47.601 573.92 46.8602C573.029 46.1219 572.289 45.2187 571.74 44.2002C570.849 42.4539 570.203 40.593 569.82 38.6702C569.39 36.5315 569.205 34.3507 569.27 32.1702C569.33 29.8382 569.595 27.516 570.06 25.2302C571.038 20.4776 572.978 15.9754 575.76 12.0002C577.157 9.99304 578.811 8.17759 580.68 6.60017C581.986 5.59069 583.478 4.8467 585.07 4.41017C586.663 3.91235 588.346 3.77235 590 4.00017C591.967 4.30855 593.9 4.80756 595.77 5.49017C597.406 6.06294 598.941 6.88973 600.32 7.94017C601.533 8.87491 602.523 10.0668 603.22 11.4302C603.841 12.7545 604.279 14.1575 604.52 15.6002C604.888 17.941 605.022 20.3127 604.92 22.6802C604.834 25.275 604.526 27.8578 604 30.4002C603.473 32.9965 602.713 35.5401 601.73 38.0002C600.803 40.3466 599.58 42.5646 598.09 44.6002C598.613 45.1521 599.101 45.7366 599.55 46.3502C599.966 46.9297 600.421 47.481 600.91 48.0002C601.51 48.5702 601.77 49.0002 601.7 49.4002ZM584.91 42.9102L584.3 42.1102C583.38 41.1102 583.57 40.3202 584.89 39.7102C585.56 39.3645 586.263 39.0896 586.99 38.8902C587.875 38.6368 588.773 38.4331 589.68 38.2802C590.857 36.0348 591.699 33.6293 592.18 31.1402C592.555 29.8248 592.855 28.4893 593.08 27.1402C593.33 25.7002 593.52 24.2702 593.64 22.8502C593.758 21.5203 593.795 20.1845 593.75 18.8502C593.713 17.7406 593.579 16.6364 593.35 15.5502C593.27 14.7407 592.888 13.991 592.28 13.4502C592.032 13.282 591.744 13.1831 591.445 13.1637C591.146 13.1444 590.847 13.2053 590.58 13.3402C589.791 13.7228 589.093 14.2681 588.53 14.9402C587.727 15.8396 587.007 16.8102 586.38 17.8402C584.944 20.1864 583.773 22.6851 582.89 25.2902C582.017 27.901 581.349 30.5757 580.89 33.2902C580.756 34.5623 580.692 35.841 580.7 37.1202C580.71 38.2199 580.81 39.3169 581 40.4002C581.139 41.26 581.427 42.0891 581.85 42.8502C582.186 43.4504 582.71 43.9244 583.34 44.2002C583.741 44.3324 584.171 44.3529 584.583 44.2595C584.996 44.1661 585.375 43.9624 585.68 43.6702C585.404 43.4371 585.147 43.183 584.91 42.9102Z" fill="white"/>
<path d="M606.52 40.1099C606.166 38.241 605.996 36.342 606.01 34.4399C606.022 32.2533 606.166 30.0693 606.44 27.8999C606.72 25.5899 607.1 23.2499 607.56 20.8999C608.02 18.5499 608.56 16.1399 609.13 13.7399C609.7 11.3399 610.33 9.01993 610.96 6.73993C611.25 5.73993 611.66 5.09993 612.22 4.87993C613.067 4.6944 613.952 4.78916 614.74 5.14993C615.794 5.46524 616.818 5.87351 617.8 6.36993C618.795 6.88073 619.748 7.46922 620.65 8.12993C621.535 8.66061 622.215 9.47523 622.578 10.4412C622.941 11.4072 622.966 12.4676 622.65 13.4499C622.08 15.2999 621.49 17.2899 620.87 19.4499C620.25 21.6099 619.67 23.7699 619.14 25.9699C618.61 28.1699 618.14 30.3099 617.78 32.4099C617.437 34.2744 617.207 36.1578 617.09 38.0499C616.982 39.4386 617.07 40.8355 617.35 42.1999C617.395 42.648 617.566 43.0741 617.844 43.4283C618.122 43.7825 618.495 44.0501 618.92 44.1999C619.92 44.4499 620.82 43.9899 621.75 42.8199C622.842 41.3224 623.727 39.6843 624.38 37.9499C625.307 35.5882 626.105 33.178 626.77 30.7299C627.537 28.0033 628.247 25.1933 628.9 22.2999C629.56 19.4099 630.15 16.5599 630.69 13.7599C631.23 10.9599 631.69 8.44993 632.12 6.24993C632.19 5.18993 632.58 4.54993 633.29 4.33993C634.141 4.12421 635.035 4.15193 635.87 4.41993C636.996 4.72494 638.086 5.15075 639.12 5.68993C640.27 6.27993 641.33 6.85993 642.29 7.41993C642.698 7.67524 643.08 7.96998 643.43 8.29993C643.674 8.53295 643.866 8.8161 643.99 9.12993C644.1 9.42685 644.138 9.74559 644.1 10.0599C644.049 10.4637 643.976 10.8644 643.88 11.2599C642.82 16.3266 641.747 20.9933 640.66 25.2599C639.714 29.0673 638.569 32.8225 637.23 36.5099C636.22 39.3791 634.899 42.1288 633.29 44.7099C632.119 46.6617 630.497 48.3042 628.56 49.4999C627.378 50.0797 626.123 50.5001 624.83 50.7499C623.423 50.9864 621.993 51.0502 620.57 50.9399C617.833 50.8536 615.147 50.171 612.7 48.9399C611.809 48.4444 610.971 47.858 610.2 47.1899C609.397 46.4757 608.721 45.6304 608.2 44.6899C607.376 43.2733 606.808 41.7231 606.52 40.1099V40.1099Z" fill="white"/>
<path d="M651.65 6.28992C653.51 5.85992 655.47 5.46992 657.51 5.11992C659.55 4.76992 661.64 4.44992 663.79 4.18992C665.94 3.92992 668.07 3.74992 670.2 3.67992C672.33 3.60992 673.52 4.42992 674.08 6.01992C674.509 6.74854 674.845 7.52792 675.08 8.33992C675.26 9.02992 675.44 9.77992 675.61 10.5999C675.704 10.9078 675.734 11.2318 675.698 11.5517C675.662 11.8717 675.561 12.1808 675.4 12.4599C674.825 12.8986 674.123 13.1406 673.4 13.1499L666.8 13.8999C664.533 14.1532 662.14 14.4532 659.62 14.7999C659.093 16.3999 658.597 18.0666 658.13 19.7999C657.663 21.5333 657.147 23.3333 656.58 25.1999C657.65 25.0599 658.71 24.9499 659.78 24.8799C660.85 24.8099 661.98 24.7599 663.18 24.7199C663.973 24.6641 664.77 24.7556 665.53 24.9899C666.169 25.2489 666.692 25.7326 667 26.3499C667.412 27.0129 667.748 27.7208 668 28.4599C668.23 29.1499 668.43 29.8499 668.61 30.5599C668.79 31.2699 668.92 31.9199 668.69 32.2099C668.159 32.6264 667.521 32.8831 666.85 32.9499C664.72 33.3399 662.55 33.7199 660.33 34.0699C658.11 34.4199 655.98 34.8199 653.92 35.2399C653.64 36.3799 653.37 37.4499 653.12 38.4599C652.87 39.4699 652.61 40.4599 652.32 41.4599C653.987 41.1666 655.577 40.9366 657.09 40.7699C658.59 40.5899 660.23 40.4499 662.01 40.3399C662.786 40.2476 663.573 40.3192 664.32 40.5499C664.916 40.8121 665.411 41.2614 665.73 41.8299C666.125 42.4637 666.46 43.1333 666.73 43.8299C666.96 44.4499 667.22 45.0799 667.5 45.7199C667.684 46.1892 667.684 46.7106 667.5 47.1799C667.32 47.4499 666.76 47.6699 665.8 47.8499C663.533 48.2699 661.227 48.7132 658.88 49.1799C656.533 49.6466 654.297 50.0699 652.17 50.4499C651.132 50.7888 650.027 50.8712 648.95 50.6899C648.28 50.5186 647.642 50.2418 647.06 49.8699C646.46 49.4799 645.88 49.0799 645.33 48.6699C644.78 48.2599 644.14 47.7399 643.39 47.0999C642.802 46.6184 642.322 46.0188 641.98 45.3399C641.631 44.5769 641.493 43.7344 641.58 42.8999L646.64 7.49992C648.09 7.11992 649.79 6.70992 651.65 6.28992Z" fill="white"/>
<path d="M17.5002 28.3601C17.0735 30.7735 16.6802 33.1068 16.3202 35.3601C15.9702 37.5901 15.6602 39.6901 15.3902 41.6401C15.1202 43.5901 14.9202 45.3301 14.7802 46.8501C14.725 47.3446 14.4771 47.7973 14.0902 48.1101C13.5201 48.3075 12.9003 48.3075 12.3302 48.1101C11.5102 47.9301 10.6902 47.7101 9.86019 47.4501C9.06508 47.1975 8.28965 46.8866 7.54019 46.5201C6.82463 46.2249 6.20009 45.7453 5.73019 45.1301C5.38116 44.4783 5.25142 43.7314 5.36019 43.0001C5.36019 41.6201 5.42019 39.9201 5.55019 37.9201C5.68019 35.9201 5.85019 33.7401 6.08019 31.4001C6.31019 29.0601 6.57019 26.6301 6.85019 24.1101C7.13019 21.5901 7.44019 19.1101 7.78019 16.6601C8.12019 14.2101 8.46019 11.8901 8.78019 9.71012C9.10019 7.53012 9.45019 5.61012 9.78019 3.94012C9.84204 3.4921 9.99345 3.06112 10.2254 2.67285C10.4573 2.28458 10.765 1.94696 11.1302 1.68012C12.0084 1.3487 12.9647 1.28263 13.8802 1.49012C15.5215 1.72883 17.1476 2.06273 18.7502 2.49012C20.0802 2.84012 21.4202 3.27012 22.7502 3.77012C23.4598 4.00963 24.1328 4.34615 24.7502 4.77012C25.2361 5.10328 25.6592 5.51968 26.0002 6.00012C26.2821 6.45011 26.4881 6.94334 26.6102 7.46012C26.7302 7.99012 26.8702 8.60012 27.0102 9.27012C27.016 9.6513 27.0427 10.0319 27.0902 10.4101C27.1402 10.8601 27.2502 11.6501 27.4102 12.7801C27.5702 13.9101 27.8102 15.5301 28.1302 17.6301C28.4502 19.7301 28.8902 22.6301 29.4602 26.2501C30.0202 24.9701 30.6902 23.5701 31.4602 22.0401C32.2302 20.5101 33.0102 18.9601 33.8302 17.3601C34.6502 15.7601 35.4902 14.1701 36.3602 12.5701C37.2302 10.9701 38.0002 9.45012 38.8402 8.00012C39.6469 6.36012 40.3569 5.02679 40.9702 4.00012C41.4511 3.10139 42.0799 2.29005 42.8302 1.60012C43.4347 1.06635 44.1963 0.743474 45.0002 0.680121C46.0377 0.639063 47.0742 0.784709 48.0602 1.11012C49.5202 1.50012 51.0602 1.96012 52.6702 2.49012C54.2895 3.02311 55.8785 3.64403 57.4302 4.35012C58.2667 4.67 58.957 5.28551 59.3702 6.08012C59.6311 6.98655 59.5674 7.95561 59.1902 8.82012C58.6502 10.4868 58.0469 12.4035 57.3802 14.5701C56.7135 16.7368 56.0469 19.0068 55.3802 21.3801C54.6902 23.7601 53.9902 26.1701 53.3002 28.6201C52.6102 31.0701 51.9502 33.4101 51.3002 35.6201C50.6502 37.8301 50.1202 39.9101 49.6302 41.7901C49.1402 43.6701 48.7402 45.2301 48.4602 46.4801C48.28 46.9985 47.9862 47.47 47.6002 47.8601C47.2902 48.1401 46.6602 48.1801 45.7402 47.9701C44.8202 47.7601 44.0902 47.5701 43.2402 47.3301C42.4621 47.124 41.7105 46.8287 41.0002 46.4501C40.6497 46.3419 40.3248 46.1638 40.0449 45.9267C39.765 45.6896 39.536 45.3984 39.3716 45.0705C39.2072 44.7426 39.1108 44.3848 39.0882 44.0187C39.0656 43.6526 39.1173 43.2857 39.2402 42.9401C39.3802 41.8701 39.6102 40.5001 39.9302 38.8101C40.2502 37.1201 40.6202 35.2701 41.0502 33.2301C41.4802 31.1901 41.9402 29.0501 42.4602 26.8101C42.9802 24.5701 43.5302 22.4101 44.1302 20.3201C43.0702 22.1701 41.9402 24.1701 40.7602 26.3201C39.5802 28.4701 38.4102 30.6201 37.3002 32.7101C36.1902 34.8001 35.1502 36.7801 34.2102 38.6401C33.2702 40.5001 32.5202 42.0601 31.9502 43.3001C31.7702 43.6935 31.6202 44.0035 31.5002 44.2301C31.393 44.4367 31.2346 44.6123 31.0402 44.7401C30.8292 44.859 30.5923 44.9242 30.3502 44.9301C29.9723 44.9324 29.5958 44.8853 29.2302 44.7901C27.9696 44.5388 26.7269 44.2047 25.5102 43.7901C25.1647 43.6688 24.8301 43.5182 24.5102 43.3401C24.2188 43.1808 23.9634 42.9629 23.7602 42.7001C23.5258 42.3959 23.3371 42.059 23.2002 41.7001C23.0062 41.213 22.8393 40.7156 22.7002 40.2101C21.9902 37.6501 21.3002 34.7101 20.7002 31.3701C20.1002 28.0301 19.4502 24.6001 18.9202 21.0501C18.3935 23.5101 17.9202 25.9468 17.5002 28.3601Z" fill="#7ADBD4"/>
<path d="M65.31 3.45007C67.17 3.02007 69.13 2.63007 71.17 2.28007C73.21 1.93007 75.3 1.61007 77.45 1.35007C79.6 1.09007 81.73 0.910074 83.86 0.840074C85.99 0.770074 87.18 1.59007 87.75 3.18007C88.1795 3.90831 88.5154 4.68779 88.75 5.50007C88.93 6.19007 89.11 6.94007 89.29 7.76007C89.3834 8.06854 89.412 8.39298 89.3742 8.71304C89.3363 9.03311 89.2328 9.34191 89.07 9.62007C88.4947 10.0588 87.7934 10.3007 87.07 10.3101L80.47 11.0601C78.2033 11.3134 75.81 11.6134 73.29 11.9601C72.7566 13.5601 72.26 15.2267 71.8 16.9601C71.34 18.6801 70.8 20.4801 70.26 22.3601C71.32 22.2201 72.38 22.1101 73.45 22.0401C74.52 21.9701 75.65 21.9201 76.86 21.8801C77.6499 21.8248 78.4433 21.9163 79.2 22.1501C79.8299 22.419 80.3388 22.9101 80.63 23.5301C81.0425 24.1931 81.378 24.901 81.63 25.6401C81.86 26.3301 82.06 27.0301 82.24 27.7401C82.42 28.4501 82.55 29.1001 82.32 29.3901C81.7894 29.8065 81.1511 30.0632 80.48 30.1301C78.36 30.5201 76.18 30.9001 73.96 31.2501C71.74 31.6001 69.61 32.0001 67.55 32.4201C67.27 33.5601 67 34.6301 66.75 35.6401C66.5 36.6501 66.24 37.6401 65.95 38.6401C67.6233 38.3534 69.2133 38.1234 70.72 37.9501C72.23 37.7701 73.87 37.6301 75.64 37.5201C76.4195 37.4279 77.2097 37.4994 77.96 37.7301C78.5439 37.995 79.0275 38.4401 79.34 39.0001C79.7319 39.6358 80.0665 40.3051 80.34 41.0001C80.57 41.6201 80.83 42.2501 81.11 42.8901C81.2939 43.3594 81.2939 43.8808 81.11 44.3501C80.94 44.6201 80.37 44.8401 79.41 45.0101C77.14 45.4401 74.83 45.8801 72.49 46.3501C70.15 46.8201 67.91 47.2301 65.78 47.6201C64.7452 47.9589 63.6436 48.0413 62.57 47.8601C61.8896 47.6824 61.244 47.3916 60.66 47.0001C60.05 46.6101 59.48 46.2101 58.93 45.8001C58.38 45.3901 57.73 44.8701 56.93 44.2301C56.342 43.7485 55.8616 43.1489 55.52 42.4701C55.1712 41.707 55.0331 40.8645 55.12 40.0301L60.18 4.63007C61.7466 4.27007 63.4566 3.87674 65.31 3.45007Z" fill="#7ADBD4"/>
<path d="M97.0001 40.9202C96.5901 42.9202 96.2001 44.8602 95.8101 46.7702C95.7122 47.2178 95.4567 47.6154 95.0901 47.8902C94.5462 48.08 93.954 48.08 93.4101 47.8902C92.4101 47.6402 91.6001 47.4402 90.8601 47.3002C90.1172 47.161 89.3993 46.9116 88.7301 46.5602C88.129 46.2496 87.6422 45.7558 87.3401 45.1502C87.0731 44.4462 86.9838 43.6871 87.0801 42.9402C87.1501 42.1902 87.2401 41.1102 87.3701 39.6902C87.5001 38.2702 87.6401 36.6902 87.8201 34.8802C88.0001 33.0702 88.2001 31.1602 88.4301 29.1002C88.6601 27.0402 88.9101 24.9902 89.1801 22.9302C89.4501 20.8702 89.7401 18.9302 90.0601 16.9302C90.3801 14.9302 90.7101 13.2602 91.0601 11.7202C91.3365 10.4083 91.728 9.12337 92.2301 7.88024C92.4753 7.12388 92.9552 6.46534 93.6001 6.00024C95.8001 5.00024 98.1001 4.00024 100.49 3.08024C102.775 2.17261 105.148 1.50241 107.57 1.08024C109.748 0.670714 111.98 0.633519 114.17 0.97024C116.237 1.30377 118.145 2.28407 119.62 3.77024C120.862 5.10171 121.993 6.53321 123 8.05024C124.087 9.80105 124.883 11.7156 125.36 13.7202C125.868 15.676 125.68 17.7473 124.83 19.5802C123.352 22.2914 121.242 24.6067 118.68 26.3302C115.472 28.5921 112.041 30.5189 108.44 32.0802C109.25 33.0102 110.15 33.9802 111.13 35.0102C112.11 36.0402 113.13 37.0702 114.13 38.1002C115.13 39.1302 116.18 40.1002 117.19 41.1002C118.2 42.1002 119.19 42.8902 120.04 43.6002C120.75 44.2002 121.04 44.6802 121.04 45.0302C120.887 45.5038 120.562 45.9032 120.13 46.1502C119.663 46.561 119.109 46.8618 118.51 47.0302C118.07 47.1202 117.51 47.2202 116.89 47.3202C116.049 47.5433 115.174 47.6078 114.31 47.5102C113.128 47.3315 111.999 46.8982 111 46.2402C110.187 45.6736 109.247 44.9636 108.18 44.1102C107.113 43.2569 106.013 42.3169 104.88 41.2902C103.75 40.2902 102.61 39.1902 101.48 38.0702C100.386 37.0039 99.3543 35.8753 98.3901 34.6902C97.8901 36.8502 97.4268 38.9269 97.0001 40.9202ZM102.4 18.9202C101.867 20.9802 101.263 23.1802 100.59 25.5202C102.875 24.7831 105.064 23.776 107.11 22.5202C108.817 21.4757 110.415 20.263 111.88 18.9002C112.982 17.8935 113.915 16.7149 114.64 15.4102C115.147 14.6636 115.34 13.7482 115.18 12.8602C114.75 11.8602 113.49 11.3702 111.4 11.3702C110.254 11.3807 109.112 11.5046 107.99 11.7402C106.627 12.0329 105.307 12.4966 104.06 13.1202C103.52 14.8902 103 16.8302 102.43 18.8802L102.4 18.9202Z" fill="#7ADBD4"/>
<path d="M154.78 37.6202C154.768 38.5998 154.48 39.5563 153.95 40.3802C153.308 41.6659 152.483 42.8516 151.5 43.9002C150.592 44.8857 149.587 45.7769 148.5 46.5602C147.936 46.9159 147.34 47.2172 146.72 47.4602C146.015 47.7543 145.286 47.9852 144.54 48.1502C143.75 48.3365 142.948 48.4635 142.14 48.5302C141.335 48.6 140.525 48.6 139.72 48.5302C138.189 48.442 136.673 48.1837 135.2 47.7602C133.85 47.3502 132.64 46.9702 131.58 46.6102C130.55 46.1781 129.584 45.6061 128.71 44.9102C127.788 44.207 127.025 43.3177 126.47 42.3002C125.497 40.6346 124.839 38.804 124.53 36.9002C124.144 34.7059 124.01 32.4748 124.13 30.2502C124.238 27.7912 124.573 25.3475 125.13 22.9502C125.713 20.445 126.523 17.9982 127.55 15.6402C128.568 13.2819 129.807 11.0252 131.25 8.90015C132.638 6.83867 134.293 4.96923 136.17 3.34015C137.466 2.17342 139.012 1.31833 140.69 0.840154C142.093 0.462206 143.55 0.32027 145 0.420154C146.041 0.530851 147.074 0.714637 148.09 0.970154C149.137 1.24745 150.169 1.58127 151.18 1.97015C152.142 2.3279 153.083 2.73853 154 3.20016C154.821 3.60576 155.619 4.05645 156.39 4.55015C157.004 5.05359 157.566 5.61631 158.07 6.23015C158.491 6.74454 158.847 7.30879 159.13 7.91015C159.401 8.47336 159.59 9.07291 159.69 9.69016C159.803 10.3519 159.876 11.0197 159.91 11.6902C159.91 12.5035 159.91 13.3535 159.91 14.2402C159.86 15.1302 159.78 16.0102 159.67 16.8702C159.56 17.7302 159.42 18.5802 159.24 19.3802C159.084 20.1065 158.891 20.8241 158.66 21.5302C158.55 21.8202 158.45 22.0802 158.34 22.3302C158.244 22.5601 158.089 22.7603 157.89 22.9102C157.644 23.0768 157.356 23.1704 157.06 23.1802C156.58 23.2098 156.099 23.1728 155.63 23.0702C154.621 22.9003 153.638 22.6082 152.7 22.2002C151.964 21.8703 151.288 21.4209 150.7 20.8702C150.162 20.3329 149.731 19.6983 149.43 19.0002C149.088 18.2575 148.856 17.4694 148.74 16.6602C148.636 15.975 148.583 15.2831 148.58 14.5902C148.617 13.5575 148.564 12.5235 148.42 11.5002C148.393 11.11 148.26 10.7348 148.034 10.4155C147.808 10.0962 147.499 9.84529 147.14 9.69016C146.43 9.48016 145.6 9.88015 144.64 10.9102C143.528 12.1392 142.546 13.4797 141.71 14.9102C140.664 16.6687 139.732 18.4925 138.92 20.3702C138.133 22.1676 137.464 24.0149 136.92 25.9002C136.478 27.6446 136.144 29.4147 135.92 31.2002C135.698 32.7865 135.618 34.3895 135.68 35.9902C135.712 37.2327 135.945 38.4619 136.37 39.6302C136.472 40.0494 136.674 40.4381 136.957 40.7634C137.241 41.0888 137.598 41.3414 138 41.5002C139.41 41.9602 141.58 40.7002 144.49 37.7202C146.583 35.5935 149.313 35.0102 152.68 35.9702C154 36.3202 154.72 36.8702 154.78 37.6202Z" fill="#7ADBD4"/>
<path d="M175.85 38.1799C173.493 38.4953 171.156 38.946 168.85 39.5299C168.14 40.9199 167.52 42.1999 166.99 43.3899C166.46 44.5799 165.94 45.7399 165.45 46.8799C165.37 47.1184 165.239 47.3366 165.066 47.5196C164.894 47.7026 164.684 47.846 164.45 47.9399C163.825 48.0231 163.188 47.9332 162.61 47.6799L161.1 47.0599C160.55 46.8299 159.99 46.5799 159.42 46.2899L158.3 45.5699C158.001 45.3951 157.747 45.1518 157.56 44.8599C157.366 44.5263 157.265 44.1461 157.27 43.7599C157.277 43.1553 157.374 42.5552 157.56 41.9799C158.414 39.5332 159.52 36.6599 160.88 33.3599C162.24 30.0599 163.714 26.6532 165.3 23.1399C166.88 19.6332 168.494 16.1665 170.14 12.7399C171.787 9.31321 173.36 6.26988 174.86 3.60988C175.362 2.68167 176.07 1.88109 176.93 1.26988C178.069 0.599628 179.408 0.355121 180.71 0.579881C182.16 0.649881 183.46 0.759882 184.59 0.919882C185.72 1.07988 186.77 1.26988 187.71 1.47988C188.65 1.68988 189.52 1.91988 190.31 2.16988C191.1 2.41988 191.92 2.64988 192.74 2.85988C193.618 3.07862 194.373 3.63591 194.84 4.40988C195.162 5.20148 195.262 6.06567 195.13 6.90988C194.917 9.42988 194.74 12.3199 194.6 15.5799C194.46 18.8499 194.35 22.2499 194.28 25.7999C194.21 29.3499 194.16 32.9099 194.15 36.4699C194.14 40.0299 194.15 43.3499 194.15 46.3999C194.176 46.6363 194.154 46.8755 194.088 47.1037C194.021 47.3319 193.909 47.5447 193.76 47.7299C193.22 48.045 192.591 48.1749 191.97 48.0999C191.05 48.0999 190.2 48.0999 189.42 48.0199C188.602 47.9602 187.795 47.7921 187.02 47.5199C186.345 47.3586 185.729 47.0123 185.24 46.5199C184.816 45.9049 184.567 45.1858 184.52 44.4399C184.38 43.4399 184.26 42.2899 184.15 41.0599C184.04 39.8299 183.94 38.4999 183.83 37.0599C181.15 37.4399 178.5 37.7999 175.85 38.1799ZM178.46 28.9999C180.08 28.8199 181.7 28.6799 183.33 28.5699C183.257 25.6565 183.204 22.7565 183.17 19.8699C183.137 16.9832 183.154 14.1165 183.22 11.2699C181.8 13.8632 180.267 16.7299 178.62 19.8699C176.974 23.0099 175.307 26.2632 173.62 29.6299C175.24 29.3899 176.84 29.1699 178.46 28.9999Z" fill="#7ADBD4"/>
<path d="M205.44 2.88987C207.334 2.21669 209.286 1.71796 211.27 1.39987C213.355 1.05998 215.47 0.935988 217.58 1.02987C219.704 1.11274 221.802 1.52429 223.8 2.24987C225.838 2.99789 227.724 4.10545 229.37 5.51987C231.193 7.1378 232.661 9.11611 233.68 11.3299C234.684 13.2898 235.315 15.4193 235.54 17.6099C235.784 19.9495 235.649 22.3132 235.14 24.6099C234.591 27.1129 233.685 29.5242 232.45 31.7699C231.107 34.2305 229.424 36.4894 227.45 38.4799C225.28 40.665 222.836 42.5607 220.18 44.1199C217.195 45.8707 213.99 47.2159 210.65 48.1199C209.719 48.4339 208.734 48.5533 207.755 48.4708C206.777 48.3882 205.825 48.1054 204.96 47.6399C204.064 47.201 203.193 46.7136 202.35 46.1799C201.61 45.6999 200.76 45.1099 199.8 44.3999C199.44 44.0799 199.11 43.7699 198.8 43.4599C198.478 43.1672 198.198 42.8306 197.97 42.4599C197.723 42.0159 197.57 41.5257 197.52 41.0199C197.455 40.2936 197.471 39.5623 197.57 38.8399L200.68 4.99987C202.21 4.17495 203.802 3.46951 205.44 2.88987V2.88987ZM214.94 35.5099C216.796 34.0086 218.444 32.2666 219.84 30.3299C221.043 28.6609 222.009 26.8336 222.71 24.8999C223.309 23.2711 223.685 21.5691 223.83 19.8399C224.041 18.1206 223.785 16.3764 223.09 14.7899C222.347 13.4972 221.149 12.5276 219.73 12.0699C217.813 11.4751 215.75 11.5491 213.88 12.2799C212.64 16.9465 211.54 21.5332 210.58 26.0399C209.58 30.5699 208.7 35.1299 207.81 39.7499C210.382 38.6933 212.784 37.2647 214.94 35.5099V35.5099Z" fill="#7ADBD4"/>
<path d="M270.59 8.58002C271.24 9.90064 271.695 11.3087 271.94 12.76C272.337 15.5551 272.427 18.3853 272.21 21.2C271.988 24.2449 271.462 27.2599 270.64 30.2C269.822 33.1447 268.678 35.989 267.23 38.68C265.884 41.2308 264.092 43.5202 261.94 45.44C260.626 46.4896 259.101 47.2434 257.47 47.65C255.703 48.035 253.884 48.1161 252.09 47.89C250.696 47.7428 249.311 47.5225 247.94 47.23C246.589 46.9498 245.281 46.4925 244.05 45.87C243.046 45.3481 242.101 44.7213 241.23 44C240.339 43.2617 239.599 42.3586 239.05 41.34C238.157 39.5952 237.515 37.7337 237.14 35.81C236.701 33.6722 236.503 31.4919 236.55 29.31C236.594 26.9764 236.862 24.6525 237.35 22.37C237.842 20.0057 238.573 17.6973 239.53 15.48C240.488 13.2438 241.674 11.1125 243.07 9.12002C244.458 7.12116 246.094 5.30665 247.94 3.72002C249.268 2.71612 250.775 1.97301 252.38 1.53002C253.976 1.04594 255.659 0.919607 257.31 1.16002C259.277 1.4684 261.209 1.96742 263.08 2.65002C264.716 3.2228 266.251 4.04959 267.63 5.10002C268.845 6.04412 269.853 7.22881 270.59 8.58002V8.58002ZM256.59 11.35C255.522 12.4096 254.592 13.5989 253.82 14.89C252.843 16.4939 251.981 18.1647 251.24 19.89C250.482 21.6108 249.834 23.3776 249.3 25.18C248.796 26.8759 248.441 28.6125 248.24 30.37C248.027 32.0277 247.954 33.7001 248.02 35.37C248.049 36.7354 248.302 38.0868 248.77 39.37C248.899 39.8268 249.136 40.2463 249.459 40.594C249.782 40.9417 250.184 41.2076 250.63 41.37C251.029 41.4871 251.452 41.5046 251.859 41.421C252.267 41.3373 252.649 41.155 252.97 40.89C253.934 40.1749 254.763 39.2946 255.42 38.29C256.339 36.9262 257.116 35.472 257.74 33.95C258.498 32.1233 259.126 30.2453 259.62 28.33C260.117 26.5242 260.492 24.6866 260.74 22.83C261.017 20.9694 261.161 19.0912 261.17 17.21C261.198 15.6777 261.026 14.1482 260.66 12.66C260.32 11.4 259.8 10.66 259.09 10.45C258.38 10.24 257.48 10.48 256.56 11.35H256.59Z" fill="#7ADBD4"/>
<path d="M324.63 10.2298L319.57 10.7398C318.83 13.7198 318.06 16.8065 317.26 19.9998C316.46 23.1932 315.687 26.3598 314.94 29.4998C314.2 32.6398 313.5 35.6998 312.84 38.6798C312.18 41.6798 311.61 44.4498 311.11 47.0398C311.106 47.2332 311.059 47.4233 310.973 47.5963C310.886 47.7693 310.762 47.9209 310.61 48.0398C310.271 48.2132 309.889 48.286 309.51 48.2498C308.969 48.2239 308.435 48.1264 307.92 47.9598L305.92 47.3798C305.242 47.1807 304.574 46.9471 303.92 46.6798C303.367 46.4714 302.856 46.1667 302.41 45.7798C302.014 45.4462 301.71 45.0155 301.53 44.5298C301.346 43.9706 301.325 43.3705 301.47 42.7998C301.58 41.0998 301.8 38.9998 302.11 36.5198C302.42 34.0398 302.81 31.4098 303.26 28.6398C303.71 25.8698 304.19 23.0798 304.72 20.2598C305.25 17.4398 305.79 14.8198 306.32 12.4098C305.32 12.5898 304.32 12.7398 303.32 12.8598C302.51 12.9589 301.709 13.1125 300.92 13.3198C300.21 13.5249 299.461 13.549 298.74 13.3898C297.981 13.1083 297.311 12.6283 296.8 11.9998C295.987 11.1614 295.297 10.212 294.75 9.17985C294.13 8.03985 293.62 7.07985 293.23 6.29985C292.84 5.51985 292.7 4.94985 292.91 4.67985C293.276 4.32865 293.74 4.09528 294.24 4.00985C296.327 3.58985 298.697 3.19985 301.35 2.83985C304.003 2.47985 306.697 2.16318 309.43 1.88985C312.183 1.60318 314.88 1.36318 317.52 1.16985C320.16 0.976516 322.53 0.843183 324.63 0.769849C325.431 0.730075 326.232 0.828168 327 1.05985C327.499 1.27381 327.931 1.61945 328.25 2.05985C328.95 2.86794 329.538 3.76588 330 4.72985C330.44 5.63509 330.794 6.57912 331.06 7.54985C331.266 8.08739 331.266 8.6823 331.06 9.21985C330.86 9.52985 330.21 9.70985 329.06 9.77985C327.77 9.91985 326.26 10.0798 324.63 10.2298Z" fill="#7ADBD4"/>
<path d="M343.82 46.2699C341.46 46.7099 339.213 47.1433 337.08 47.5699C336.428 47.7609 335.757 47.8849 335.08 47.9399C334.619 47.9826 334.153 47.9557 333.7 47.8599C333.353 47.7913 333.017 47.677 332.7 47.5199C332.433 47.3666 332.173 47.2066 331.92 47.0399C331.348 46.6706 330.797 46.27 330.27 45.8399C329.78 45.4299 329.12 44.9099 328.27 44.2699C327.741 43.798 327.31 43.2273 327 42.5899C326.669 41.8854 326.574 41.0927 326.73 40.3299C326.843 38.9499 327.023 37.3099 327.27 35.4099C327.517 33.5099 327.817 31.4599 328.17 29.2599C328.53 27.0599 328.92 24.7799 329.34 22.4199C329.76 20.0599 330.223 17.7266 330.73 15.4199C331.22 13.0799 331.73 10.8299 332.24 8.65993C332.75 6.48993 333.24 4.50993 333.76 2.65993C334.12 1.65993 334.57 1.01993 335.12 0.819932C335.944 0.641948 336.803 0.707972 337.59 1.00993C338.804 1.33319 339.997 1.73402 341.16 2.20993C342.334 2.66827 343.457 3.24809 344.51 3.93993C345.213 4.38291 345.805 4.98167 346.24 5.68993C346.466 6.39103 346.42 7.15151 346.11 7.81993C345.403 9.95326 344.683 12.2866 343.95 14.8199C343.22 17.3699 342.5 19.9999 341.77 22.6999C341.04 25.3999 340.35 28.0799 339.69 30.7599C339.03 33.4399 338.43 35.9999 337.86 38.4499C339.49 38.1699 341.02 37.9499 342.44 37.8099C343.86 37.6699 345.44 37.5399 347.06 37.4399C347.821 37.3477 348.593 37.4089 349.33 37.6199C349.927 37.9188 350.411 38.4029 350.71 38.9999C351.104 39.6132 351.439 40.2628 351.71 40.9399C351.959 41.5544 352.163 42.186 352.32 42.8299C352.543 43.2932 352.606 43.817 352.5 44.3199C352.38 44.5733 351.77 44.8033 350.67 45.0099L343.82 46.2699Z" fill="#7ADBD4"/>
<path d="M372.87 38.1799C370.512 38.4938 368.175 38.9445 365.87 39.5299C365.16 40.9199 364.53 42.1999 364 43.3899C363.47 44.5799 363 45.7399 362.46 46.8799C362.38 47.1184 362.249 47.3366 362.076 47.5196C361.904 47.7026 361.693 47.846 361.46 47.9399C360.834 48.0231 360.198 47.9332 359.62 47.6799L358.11 47.0599C357.56 46.8299 357 46.5799 356.43 46.2899C356.01 46.0099 355.63 45.7699 355.31 45.5699C355.013 45.3922 354.76 45.1494 354.57 44.8599C354.375 44.5263 354.275 44.1461 354.28 43.7599C354.286 43.1553 354.384 42.5552 354.57 41.9799C355.417 39.5332 356.527 36.6599 357.9 33.3599C359.273 30.0599 360.743 26.6532 362.31 23.1399C363.89 19.6332 365.507 16.1665 367.16 12.7399C368.813 9.31321 370.383 6.26988 371.87 3.60988C372.372 2.68167 373.08 1.88109 373.94 1.26988C375.079 0.599628 376.418 0.355121 377.72 0.579881C379.18 0.649881 380.47 0.759882 381.61 0.919882C382.75 1.07988 383.78 1.26988 384.72 1.47988C385.66 1.68988 386.53 1.91988 387.33 2.16988C388.13 2.41988 388.93 2.64988 389.75 2.85988C390.627 3.07862 391.382 3.63591 391.85 4.40988C392.172 5.20148 392.272 6.06567 392.14 6.90988C391.927 9.42988 391.75 12.3199 391.61 15.5799C391.47 18.8499 391.36 22.2499 391.29 25.7999C391.22 29.3499 391.18 32.9099 391.16 36.4699C391.14 40.0299 391.16 43.3499 391.16 46.3999C391.185 46.637 391.162 46.8767 391.093 47.105C391.025 47.3333 390.911 47.5457 390.76 47.7299C390.22 48.0464 389.591 48.1764 388.97 48.0999C388.05 48.0999 387.2 48.0999 386.42 48.0199C385.601 47.9602 384.794 47.7921 384.02 47.5199C383.345 47.3586 382.729 47.0123 382.24 46.5199C381.815 45.9049 381.566 45.1858 381.52 44.4399C381.38 43.4399 381.26 42.2899 381.15 41.0599C381.04 39.8299 380.94 38.4999 380.83 37.0599C378.17 37.4399 375.52 37.7999 372.87 38.1799ZM375.48 28.9999C377.1 28.8199 378.72 28.6799 380.35 28.5699C380.277 25.6565 380.223 22.7565 380.19 19.8699C380.19 16.9799 380.19 14.1099 380.25 11.2699C378.83 13.8632 377.293 16.7299 375.64 19.8699C373.987 23.0099 372.32 26.2632 370.64 29.6299C372.26 29.3899 373.87 29.1699 375.48 28.9999Z" fill="#7ADBD4"/>
<path d="M427 46.56C426.92 46.91 426.55 47.25 425.88 47.56C425.27 47.9003 424.627 48.1751 423.96 48.38C423.32 48.58 422.68 48.75 422.05 48.89C421.335 49.0323 420.597 49.0165 419.889 48.8438C419.181 48.671 418.519 48.3455 417.95 47.89C417.798 47.7373 417.638 47.5937 417.47 47.46L416.99 47.14C415.967 47.6091 414.864 47.8806 413.74 47.94C412.517 48.0101 411.292 48.0101 410.07 47.94C408.655 47.8373 407.251 47.6233 405.87 47.3C404.541 47.0009 403.254 46.5373 402.04 45.92C401.04 45.383 400.101 44.7392 399.24 44C398.349 43.2617 397.609 42.3586 397.06 41.34C396.167 39.5952 395.525 37.7337 395.15 35.81C394.711 33.6725 394.523 31.4911 394.59 29.31C394.649 26.9775 394.917 24.6548 395.39 22.37C395.863 20.0043 396.583 17.6949 397.54 15.48C398.498 13.2438 399.684 11.1125 401.08 9.12002C402.477 7.11289 404.131 5.29744 406 3.72002C407.306 2.71054 408.798 1.96656 410.39 1.53002C411.986 1.04594 413.669 0.919607 415.32 1.16002C417.287 1.4684 419.219 1.96742 421.09 2.65002C422.726 3.2228 424.261 4.04959 425.64 5.10002C426.852 6.03093 427.843 7.21956 428.54 8.58002C429.159 9.90963 429.599 11.3151 429.85 12.76C430.208 15.1019 430.342 17.4727 430.25 19.84C430.157 22.4354 429.842 25.0182 429.31 27.56C428.784 30.1425 428.027 32.6726 427.05 35.12C426.127 37.4683 424.904 39.6868 423.41 41.72C423.933 42.2719 424.421 42.8564 424.87 43.47C425.286 44.0496 425.74 44.6008 426.23 45.12C426.83 45.72 427.1 46.2 427 46.56ZM410.2 40.07L409.59 39.27C408.67 38.27 408.87 37.48 410.18 36.87C410.849 36.5243 411.553 36.2495 412.28 36.05C413.164 35.7966 414.062 35.593 414.97 35.44C416.147 33.1946 416.989 30.7892 417.47 28.3C417.849 26.9859 418.15 25.6501 418.37 24.3C418.62 22.86 418.81 21.43 418.93 20.01C419.053 18.6805 419.09 17.3443 419.04 16.01C419.008 14.9001 418.874 13.7955 418.64 12.71C418.563 11.8994 418.181 11.1484 417.57 10.61C417.322 10.4418 417.034 10.3429 416.735 10.3236C416.436 10.3042 416.137 10.3651 415.87 10.5C415.099 10.8886 414.418 11.4335 413.87 12.1C413.063 13.0011 412.337 13.9715 411.7 15C410.262 17.3452 409.091 19.8441 408.21 22.45C407.337 25.0609 406.668 27.7356 406.21 30.45C406.073 31.722 406.013 33.0009 406.03 34.28C406.032 35.3797 406.129 36.4771 406.32 37.56C406.459 38.4199 406.746 39.2489 407.17 40.01C407.506 40.6102 408.029 41.0842 408.66 41.36C409.061 41.4922 409.491 41.5127 409.903 41.4194C410.315 41.326 410.694 41.1223 411 40.83C410.724 40.5969 410.466 40.3428 410.23 40.07H410.2Z" fill="#7ADBD4"/>
<path d="M431.84 37.2702C431.495 35.4002 431.327 33.5018 431.34 31.6002C431.348 29.4138 431.489 27.2298 431.76 25.0602C432.053 22.7469 432.427 20.4136 432.88 18.0602C433.333 15.7069 433.857 13.3202 434.45 10.9002C435.03 8.51022 435.65 6.18022 436.29 3.90022C436.338 3.50862 436.476 3.13338 436.692 2.80379C436.909 2.4742 437.199 2.19919 437.54 2.00022C438.387 1.81469 439.271 1.90945 440.06 2.27022C441.114 2.58554 442.138 2.9938 443.12 3.49022C444.125 4.00284 445.089 4.59471 446 5.26022C446.885 5.79091 447.564 6.60553 447.928 7.5715C448.291 8.53747 448.316 9.59791 448 10.5802C447.43 12.4302 446.84 14.4202 446.22 16.5802C445.6 18.7402 445.02 20.9002 444.49 23.1002C443.96 25.3002 443.49 27.4402 443.13 29.5402C442.787 31.4047 442.557 33.2881 442.44 35.1802C442.33 36.5693 442.421 37.9671 442.71 39.3302C442.751 39.7795 442.921 40.2072 443.2 40.5621C443.478 40.9169 443.853 41.1837 444.28 41.3302C445.227 41.5836 446.167 41.1236 447.1 39.9502C448.181 38.4268 449.046 36.761 449.67 35.0002C450.6 32.6388 451.401 30.2286 452.07 27.7802C452.83 25.0536 453.537 22.2436 454.19 19.3502C454.85 16.4602 455.44 13.6102 455.98 10.8102C456.52 8.01022 456.98 5.50022 457.42 3.30022C457.49 2.24022 457.88 1.60022 458.59 1.39022C459.441 1.17451 460.335 1.20223 461.17 1.47022C462.292 1.77709 463.378 2.20283 464.41 2.74022C465.57 3.33022 466.62 3.91022 467.58 4.47022C467.99 4.72293 468.372 5.01787 468.72 5.35022C468.967 5.58064 469.159 5.86452 469.28 6.18022C469.39 6.47715 469.427 6.79589 469.39 7.11022C469.39 7.45022 469.28 7.84022 469.18 8.31022C468.113 13.3836 467.04 18.0502 465.96 22.3102C465.007 26.1166 463.858 29.8716 462.52 33.5602C461.509 36.4272 460.192 39.1765 458.59 41.7602C457.418 43.7148 455.792 45.358 453.85 46.5502C452.668 47.1315 451.414 47.5519 450.12 47.8002C448.716 48.0364 447.289 48.1002 445.87 47.9902C443.133 47.9054 440.448 47.2263 438 46.0002C437.109 45.5047 436.271 44.9183 435.5 44.2502C434.696 43.5364 434.02 42.691 433.5 41.7502C432.69 40.365 432.128 38.8489 431.84 37.2702V37.2702Z" fill="#7ADBD4"/>
<path d="M477 3.44984C478.867 3.02318 480.82 2.63318 482.86 2.27984C484.9 1.92651 486.993 1.61651 489.14 1.34984C491.28 1.07651 493.417 0.90651 495.55 0.839844C497.55 0.839844 498.847 1.61984 499.44 3.17984C499.87 3.90808 500.206 4.68756 500.44 5.49984C500.62 6.18984 500.8 6.93984 500.98 7.75984C501.074 8.06831 501.102 8.39275 501.064 8.71281C501.026 9.03288 500.923 9.34168 500.76 9.61984C500.185 10.0586 499.484 10.3005 498.76 10.3098L492.16 11.0598C489.893 11.3132 487.5 11.6132 484.98 11.9598C484.447 13.5598 483.95 15.2265 483.49 16.9598C483.03 18.6798 482.49 20.4798 481.95 22.3598C483.01 22.2198 484.07 22.1098 485.14 22.0398C486.21 21.9698 487.34 21.9198 488.55 21.8798C489.34 21.8245 490.134 21.9161 490.89 22.1498C491.52 22.4187 492.029 22.9099 492.32 23.5298C492.733 24.1928 493.068 24.9007 493.32 25.6398C493.55 26.3298 493.75 27.0298 493.93 27.7398C494.11 28.4498 494.24 29.0998 494.01 29.3898C493.48 29.8063 492.841 30.063 492.17 30.1298C490.05 30.5198 487.87 30.8998 485.65 31.2498C483.43 31.5998 481.3 31.9998 479.24 32.4198C478.96 33.5598 478.69 34.6298 478.44 35.6398C478.19 36.6498 477.93 37.6398 477.65 38.6398C479.31 38.3498 480.9 38.1198 482.41 37.9498C483.92 37.7798 485.56 37.6298 487.33 37.5198C488.11 37.4276 488.9 37.4992 489.65 37.7298C490.223 38.0001 490.695 38.4446 491 38.9998C491.392 39.6356 491.727 40.3049 492 40.9998C492.23 41.6198 492.49 42.2498 492.77 42.8898C492.954 43.3591 492.954 43.8806 492.77 44.3498C492.6 44.6198 492.03 44.8398 491.07 45.0098C488.8 45.4398 486.49 45.8798 484.15 46.3498C481.81 46.8198 479.57 47.2298 477.44 47.6198C476.405 47.9587 475.304 48.0411 474.23 47.8598C473.559 47.6924 472.921 47.4154 472.34 47.0398C471.73 46.6498 471.16 46.2498 470.61 45.8398C470.06 45.4298 469.41 44.9098 468.66 44.2698C468.072 43.7883 467.592 43.1887 467.25 42.5098C466.9 41.7473 466.765 40.9035 466.86 40.0698L471.91 4.66984C473.43 4.28318 475.127 3.87651 477 3.44984Z" fill="#7ADBD4"/>
<path d="M509.07 41.56C508.69 43.44 508.357 45.2834 508.07 47.09C507.973 47.5432 507.709 47.9432 507.33 48.21C506.721 48.4012 506.069 48.4012 505.46 48.21L502.77 47.49C501.965 47.2853 501.189 46.9796 500.46 46.58C499.858 46.246 499.355 45.7598 499 45.17C498.655 44.4777 498.59 43.6788 498.82 42.94C499.257 41.5364 499.551 40.0925 499.7 38.63C499.96 36.63 500.197 34.3334 500.41 31.74C500.623 29.1467 500.837 26.48 501.05 23.74C501.26 20.97 501.48 18.41 501.69 16.07C501.9 13.73 502.14 11.77 502.41 10.19C502.68 8.61002 502.98 7.74002 503.34 7.56002C504.673 6.84669 506.163 6.11002 507.81 5.35002C509.44 4.59002 511.13 3.89002 512.87 3.27002C514.586 2.65765 516.335 2.14349 518.11 1.73002C519.776 1.33377 521.478 1.10926 523.19 1.06002C524.726 1.01968 526.26 1.20842 527.74 1.62002C529.112 2.01117 530.366 2.73608 531.39 3.73002C532.603 5.0908 533.716 6.53794 534.72 8.06002C535.777 9.81277 536.547 11.7237 537 13.72C537.484 15.665 537.268 17.7182 536.39 19.52C535.981 20.4005 535.474 21.2323 534.88 22C534.254 22.798 533.586 23.5624 532.88 24.29C531.55 25.5968 530.096 26.7723 528.54 27.8C526.767 28.9902 524.917 30.0593 523 31C520.97 32.0166 518.883 32.9148 516.75 33.69C514.57 34.49 512.413 35.1734 510.28 35.74C509.84 37.72 509.44 39.68 509.07 41.56ZM519.15 22.8C520.828 21.7957 522.382 20.5974 523.78 19.23C524.842 18.2157 525.709 17.016 526.34 15.69C526.808 14.8089 526.922 13.7826 526.66 12.82C526.55 12.39 526.17 12.06 525.51 11.82C524.702 11.5696 523.854 11.4712 523.01 11.53C521.86 11.579 520.718 11.7398 519.6 12.01C518.279 12.3126 516.989 12.7412 515.75 13.29C515.177 15.1967 514.633 17.1967 514.12 19.29C513.61 21.34 513.12 23.49 512.55 25.73C514.863 25.0311 517.08 24.0468 519.15 22.8V22.8Z" fill="#7ADBD4"/>
<path d="M552.33 38.1799C549.972 38.4938 547.635 38.9446 545.33 39.5299C544.61 40.9199 543.99 42.1999 543.46 43.3899C542.93 44.5799 542.41 45.7399 541.92 46.8799C541.84 47.1184 541.709 47.3366 541.536 47.5196C541.364 47.7026 541.153 47.846 540.92 47.9399C540.294 48.0232 539.658 47.9332 539.08 47.6799L537.57 47.0599C537.02 46.8299 536.46 46.5799 535.89 46.2899L534.77 45.5699C534.471 45.3951 534.217 45.1518 534.03 44.8599C533.835 44.5263 533.735 44.1461 533.74 43.7599C533.739 43.1636 533.826 42.5704 534 41.9999C534.853 39.5532 535.963 36.6799 537.33 33.3799C538.697 30.0799 540.167 26.6732 541.74 23.1599C543.32 19.6532 544.937 16.1866 546.59 12.7599C548.243 9.33323 549.813 6.2899 551.3 3.6299C551.802 2.70169 552.51 1.90111 553.37 1.2899C554.508 0.619648 555.848 0.375141 557.15 0.599901C558.6 0.669901 559.9 0.779901 561.03 0.939901C562.16 1.0999 563.21 1.2899 564.15 1.4999C565.09 1.7099 565.96 1.9399 566.76 2.1899C567.56 2.4399 568.36 2.6699 569.18 2.8799C570.057 3.09863 570.812 3.65593 571.28 4.4299C571.602 5.2215 571.702 6.08569 571.57 6.9299C571.357 9.4499 571.18 12.3399 571.04 15.5999C570.9 18.8699 570.79 22.2699 570.72 25.8199C570.65 29.3699 570.6 32.9299 570.59 36.4899C570.58 40.0499 570.59 43.3699 570.59 46.4199C570.616 46.6563 570.594 46.8955 570.527 47.1237C570.46 47.3519 570.349 47.5647 570.2 47.7499C569.66 48.065 569.031 48.1949 568.41 48.1199C567.49 48.1199 566.64 48.1199 565.86 48.0399C565.041 47.9802 564.234 47.8121 563.46 47.5399C562.785 47.3786 562.169 47.0323 561.68 46.5399C561.255 45.9249 561.006 45.2058 560.96 44.4599C560.82 43.4599 560.7 42.3099 560.59 41.0799C560.48 39.8499 560.38 38.5199 560.27 37.0799C557.63 37.4399 555 37.7999 552.33 38.1799ZM554.94 28.9999C556.56 28.8199 558.18 28.6799 559.81 28.5699C559.743 25.6566 559.69 22.7566 559.65 19.8699C559.61 16.9832 559.627 14.1166 559.7 11.2699C558.28 13.8632 556.747 16.7299 555.1 19.8699C553.453 23.0099 551.787 26.2632 550.1 29.6299C551.72 29.3899 553.33 29.1699 554.94 28.9999Z" fill="#7ADBD4"/>
<path d="M606.49 46.5602C606.41 46.9102 606.04 47.2502 605.37 47.5602C604.76 47.9005 604.117 48.1753 603.45 48.3802C602.783 48.5802 602.143 48.7502 601.53 48.8902C600.816 49.031 600.081 49.0145 599.374 48.8417C598.668 48.669 598.008 48.3443 597.44 47.8902C597.289 47.7375 597.128 47.5939 596.96 47.4602L596.48 47.1402C595.457 47.6094 594.354 47.8808 593.23 47.9402C592.007 48.0103 590.782 48.0103 589.56 47.9402C588.145 47.8376 586.741 47.6236 585.36 47.3002C584.028 47.0011 582.738 46.5375 581.52 45.9202C580.514 45.3826 579.569 44.7389 578.7 44.0002C577.809 43.2619 577.069 42.3588 576.52 41.3402C575.629 39.594 574.982 37.7331 574.6 35.8102C574.169 33.6716 573.985 31.4908 574.05 29.3102C574.11 26.9783 574.375 24.6561 574.84 22.3702C575.815 17.6107 577.755 13.1014 580.54 9.12024C581.937 7.11311 583.591 5.29766 585.46 3.72024C586.766 2.71076 588.258 1.96677 589.85 1.53024C591.446 1.04583 593.129 0.919495 594.78 1.16024C596.747 1.46862 598.679 1.96764 600.55 2.65024C602.186 3.22301 603.721 4.04981 605.1 5.10024C606.312 6.03115 607.303 7.21978 608 8.58024C608.619 9.90984 609.059 11.3153 609.31 12.7602C609.67 15.102 609.8 17.4732 609.7 19.8402C609.615 22.4358 609.304 25.0189 608.77 27.5602C608.244 30.1427 607.487 32.6728 606.51 35.1202C605.583 37.4666 604.36 39.6847 602.87 41.7202C603.393 42.2721 603.881 42.8567 604.33 43.4702C604.746 44.0498 605.2 44.601 605.69 45.1202C606.29 45.7202 606.56 46.2002 606.49 46.5602ZM589.69 40.0702L589.08 39.2702C588.16 38.2702 588.35 37.4802 589.67 36.8702C590.339 36.5245 591.043 36.2497 591.77 36.0502C592.654 35.7968 593.552 35.5932 594.46 35.4402C595.651 33.1971 596.506 30.7915 597 28.3002C597.375 26.9848 597.675 25.6494 597.9 24.3002C598.15 22.8602 598.34 21.4302 598.46 20.0102C598.583 18.6807 598.62 17.3445 598.57 16.0102C598.538 14.9003 598.404 13.7957 598.17 12.7102C598.093 11.8996 597.711 11.1486 597.1 10.6102C596.852 10.442 596.564 10.3431 596.265 10.3238C595.966 10.3044 595.667 10.3654 595.4 10.5002C594.611 10.8829 593.913 11.4282 593.35 12.1002C592.55 13.0022 591.83 13.9725 591.2 15.0002C589.762 17.3454 588.591 19.8443 587.71 22.4502C586.837 25.0611 586.168 27.7358 585.71 30.4502C585.575 31.7224 585.512 33.001 585.52 34.2802C585.529 35.38 585.63 36.477 585.82 37.5602C585.959 38.4201 586.246 39.2491 586.67 40.0102C587.006 40.6105 587.529 41.0845 588.16 41.3602C588.561 41.4924 588.991 41.5129 589.403 41.4196C589.815 41.3262 590.194 41.1225 590.5 40.8302C590.21 40.5988 589.939 40.3446 589.69 40.0702V40.0702Z" fill="#7ADBD4"/>
<path d="M611.3 37.27C610.95 35.4006 610.782 33.5017 610.8 31.6C610.808 29.4135 610.949 27.2295 611.22 25.06C611.507 22.7466 611.88 20.4133 612.34 18.06C612.8 15.7066 613.323 13.32 613.91 10.9C614.49 8.50996 615.11 6.17996 615.75 3.89996C616.03 2.89996 616.44 2.25996 617 2.03996C617.847 1.85443 618.732 1.94919 619.52 2.30996C620.574 2.62527 621.598 3.03354 622.58 3.52996C623.575 4.04075 624.528 4.62925 625.43 5.28996C626.315 5.82064 626.995 6.63526 627.358 7.60123C627.721 8.5672 627.746 9.62764 627.43 10.61C626.86 12.46 626.27 14.45 625.65 16.61C625.03 18.77 624.45 20.93 623.92 23.13C623.39 25.33 622.92 27.47 622.56 29.57C622.217 31.4344 621.987 33.3178 621.87 35.21C621.762 36.5986 621.85 37.9956 622.13 39.36C622.175 39.808 622.346 40.2341 622.624 40.5883C622.902 40.9425 623.275 41.2102 623.7 41.36C624.7 41.61 625.6 41.15 626.53 39.98C627.624 38.449 628.499 36.7728 629.13 35C630.057 32.6382 630.854 30.228 631.52 27.78C632.287 25.0533 632.997 22.2433 633.65 19.35C634.31 16.46 634.9 13.61 635.44 10.81C635.98 8.00996 636.44 5.49996 636.87 3.29996C636.94 2.23996 637.34 1.59996 638.04 1.38996C638.894 1.17394 639.791 1.20166 640.63 1.46996C641.752 1.77682 642.838 2.20256 643.87 2.73996C645.02 3.32996 646.08 3.90996 647.04 4.46996C647.448 4.72526 647.83 5.02001 648.18 5.34996C648.428 5.58037 648.619 5.86426 648.74 6.17996C648.85 6.47688 648.888 6.79562 648.85 7.10996C648.85 7.44996 648.74 7.83996 648.64 8.30996C647.573 13.3833 646.5 18.05 645.42 22.31C644.474 26.1194 643.332 29.8776 642 33.57C640.99 36.4391 639.669 39.1889 638.06 41.77C636.892 43.7239 635.269 45.367 633.33 46.56C632.148 47.1412 630.894 47.5616 629.6 47.81C628.196 48.0461 626.769 48.1099 625.35 48C622.609 47.9134 619.92 47.231 617.47 46C616.579 45.5044 615.741 44.918 614.97 44.25C614.17 43.533 613.494 42.6882 612.97 41.75C612.161 40.3634 611.596 38.848 611.3 37.27V37.27Z" fill="#7ADBD4"/>
<path d="M656.43 3.45007C658.29 3.02007 660.25 2.63007 662.29 2.28007C664.33 1.93007 666.42 1.61007 668.57 1.35007C670.72 1.09007 672.85 0.910074 674.98 0.840074C677.11 0.770074 678.3 1.59007 678.86 3.18007C679.293 3.90656 679.629 4.68649 679.86 5.50007C680.04 6.19007 680.22 6.94007 680.39 7.76007C680.484 8.06795 680.514 8.39192 680.478 8.71188C680.442 9.03185 680.34 9.34097 680.18 9.62007C679.605 10.0588 678.903 10.3007 678.18 10.3101L671.58 11.0601C669.307 11.3134 666.913 11.6134 664.4 11.9601C663.873 13.5601 663.377 15.2267 662.91 16.9601C662.443 18.6934 661.927 20.4934 661.36 22.3601C662.43 22.2201 663.49 22.1101 664.56 22.0401C665.63 21.9701 666.76 21.9201 667.96 21.8801C668.753 21.8242 669.55 21.9158 670.31 22.1501C670.938 22.4221 671.446 22.9123 671.74 23.5301C672.152 24.1931 672.488 24.901 672.74 25.6401C672.97 26.3301 673.17 27.0301 673.35 27.7401C673.53 28.4501 673.66 29.1001 673.43 29.3901C672.899 29.8065 672.261 30.0632 671.59 30.1301C669.46 30.5201 667.29 30.9001 665.07 31.2501C662.85 31.6001 660.72 32.0001 658.66 32.4201C658.38 33.5601 658.11 34.6301 657.86 35.6401C657.61 36.6501 657.35 37.6401 657.06 38.6401C658.733 38.3534 660.323 38.1234 661.83 37.9501C663.34 37.7701 664.98 37.6301 666.75 37.5201C667.529 37.4279 668.32 37.4994 669.07 37.7301C669.658 37.9933 670.145 38.4385 670.46 39.0001C670.852 39.6358 671.186 40.3051 671.46 41.0001C671.69 41.6201 671.95 42.2501 672.23 42.8901C672.414 43.3594 672.414 43.8808 672.23 44.3501C672.05 44.6201 671.49 44.8401 670.53 45.0101C668.26 45.4401 665.95 45.8801 663.61 46.3501C661.27 46.8201 659.03 47.2301 656.9 47.6201C655.865 47.9589 654.764 48.0413 653.69 47.8601C653.017 47.6906 652.375 47.4137 651.79 47.0401C651.19 46.6501 650.61 46.2501 650.07 45.8401C649.53 45.4301 648.87 44.9101 648.12 44.2701C647.532 43.7885 647.052 43.1889 646.71 42.5101C646.361 41.747 646.223 40.9045 646.31 40.0701L651.37 4.67007C652.87 4.28007 654.57 3.87007 656.43 3.45007Z" fill="#7ADBD4"/>
</svg>
