<svg viewBox="0 0 356 65" fill="none" xmlns="http://www.w3.org/2000/svg">
<path d="M34.2314 24.3178C35.5366 18.701 36.8308 13.525 38.1141 8.7898C38.4682 7.512 39.0103 6.71612 39.7405 6.40214C40.4707 6.08817 41.5431 6.11007 42.9578 6.46786C43.6205 6.6504 44.2174 6.80556 44.7486 6.93334C45.2816 7.0674 45.8027 7.24506 46.3066 7.46454C46.8141 7.68724 47.3562 7.95284 47.933 8.26134C48.5099 8.56984 49.1734 8.96778 49.9237 9.45517C51.2015 10.2511 51.9207 11.0588 52.0813 11.8784C52.242 12.698 52.1425 13.682 51.7829 14.8301C50.7643 18.105 49.7028 21.8206 48.5984 25.9771C47.494 30.1336 46.3988 34.3586 45.3126 38.652C44.2283 42.9436 43.1888 47.1348 42.1939 51.2256C41.199 55.3164 40.3475 58.9106 39.6392 62.0084C39.3745 63.6896 38.0474 64.2646 35.6579 63.7334C33.5392 63.3127 31.4543 62.7361 29.4204 62.0084C28.4947 61.6704 27.6505 61.1412 26.9428 60.4552C26.2351 59.7692 25.6799 58.9419 25.3132 58.0271C24.6926 56.6562 24.0619 55.0635 23.4212 53.2491C22.7804 51.4346 22.126 49.4768 21.4579 47.3757C20.7935 45.2747 20.1299 43.0842 19.4673 40.8042C18.8047 38.5242 18.1849 36.2351 17.6081 33.9369C17.1207 36.6751 16.6233 39.4132 16.1158 42.1514C15.6083 44.8895 15.1219 47.5108 14.6564 50.0153C14.1927 52.5143 13.7729 54.8363 13.3968 56.9812C13.0208 59.126 12.7223 60.9953 12.5015 62.5889C12.3189 63.3409 12.0314 63.8165 11.6389 64.0154C11.2465 64.2144 10.4725 64.1587 9.31699 63.8484C8.25459 63.5837 7.18215 63.3099 6.09967 63.027C4.98842 62.7255 3.92681 62.2644 2.94806 61.6579C1.97511 61.1723 1.32252 60.6083 0.99029 59.9657C0.658062 59.3232 0.53667 58.4278 0.626116 57.2796C0.715562 56.0858 0.858859 54.3827 1.05601 52.1702C1.25315 49.9578 1.51875 47.4478 1.85281 44.6403C2.18503 41.831 2.56107 38.819 2.98092 35.6045C3.40077 32.3899 3.85713 29.1954 4.34999 26.0209C4.83738 22.8356 5.33481 19.7615 5.84228 16.7989C6.34975 13.8362 6.84718 11.2039 7.33457 8.90207C7.64307 7.57498 8.19617 6.74532 8.99389 6.41309C9.7916 6.08087 10.875 6.09182 12.2441 6.44595C13.887 6.93334 15.4796 7.41982 17.0221 7.90538C18.6786 8.43297 20.297 9.07337 21.8659 9.82208C23.2368 10.3971 24.2098 11.1163 24.7848 11.9797C25.3598 12.8432 25.7796 14.1146 26.0443 15.794C26.2652 17.0718 26.5527 18.7083 26.9068 20.7035C27.261 22.6987 27.6553 24.8627 28.0897 27.1956C28.5315 29.5176 28.996 31.9061 29.4834 34.3613C29.9708 36.8165 30.4582 39.1741 30.9456 41.434C31.8309 35.6401 32.9262 29.9347 34.2314 24.3178Z" fill="#FFA600"/>
<path d="M89.8337 15.0626C90.6457 16.706 91.2157 18.4583 91.5258 20.265C92.0207 23.7481 92.1318 27.275 91.8572 30.7823C91.5856 34.5989 90.9296 38.3784 89.8994 42.0634C88.8859 45.7447 87.4614 49.3002 85.6525 52.6628C83.9704 55.8422 81.7348 58.6962 79.0509 61.0908C77.4118 62.3985 75.5105 63.338 73.476 63.8454C71.5283 64.309 69.2939 64.4085 66.773 64.1438C65.0349 63.96 63.3075 63.6858 61.5979 63.3224C59.9149 62.9774 58.2858 62.4083 56.7541 61.6302C55.4961 60.966 54.3167 60.1623 53.2384 59.2343C52.1282 58.3114 51.2045 57.185 50.5167 55.9157C49.405 53.7374 48.6014 51.4151 48.129 49.0156C47.5892 46.3526 47.344 43.6382 47.3979 40.9216C47.5166 34.9862 48.7781 29.1293 51.1136 23.6713C52.3079 20.8797 53.7871 18.2187 55.5275 15.7307C57.2641 13.2426 59.3032 10.98 61.5979 8.99484C63.2558 7.74581 65.1354 6.82228 67.1372 6.27312C69.1212 5.6666 71.215 5.50762 73.2679 5.80764C75.7227 6.18949 78.1338 6.81223 80.4665 7.66684C82.5069 8.37862 84.4218 9.40906 86.1399 10.7199C87.8284 12.0889 89.0597 13.5365 89.8337 15.0626ZM72.3506 18.5126C71.0112 19.829 69.847 21.3125 68.8869 22.9265C67.6685 24.9157 66.5933 26.9892 65.6695 29.1312C64.7225 31.2778 63.914 33.4828 63.249 35.7328C62.6219 37.8476 62.1776 40.0123 61.921 42.2031C61.6592 44.2712 61.5677 46.3574 61.6472 48.4406C61.6937 50.1279 62.0118 51.7967 62.5891 53.3829C63.1203 54.7538 63.8943 55.5944 64.9111 55.9047C65.8402 56.2151 66.8132 56.0161 67.8299 55.3078C68.8467 54.5996 69.8644 53.5162 70.883 52.0576C72.0322 50.3561 73.0021 48.5402 73.7772 46.6389C74.7272 44.3639 75.5142 42.0241 76.132 39.6374C76.7429 37.3805 77.2084 35.0867 77.5257 32.7702C77.8661 30.4516 78.0436 28.1121 78.0569 25.7687C78.0918 23.8584 77.8802 21.9515 77.4271 20.0953C77.0055 18.5327 76.3492 17.6145 75.4584 17.3407C74.5366 17.0395 73.5006 17.4302 72.3506 18.5126Z" fill="#FFA600"/>
<path d="M92.0596 49.0026C92.9374 48.8711 93.8262 48.8271 94.7128 48.8712C95.5786 48.9133 96.4362 49.0585 97.2675 49.3038C98.0559 49.5339 98.8054 49.881 99.4909 50.3334C103.251 52.679 106.525 54.1832 109.313 54.8458C112.1 55.5085 114.112 55.3286 115.347 54.3064C115.879 53.9523 116 53.5206 115.712 53.0113C115.266 52.3321 114.705 51.737 114.052 51.2534C113.233 50.5907 112.215 49.8606 110.999 49.0629C109.784 48.2651 108.489 47.4437 107.117 46.5985C105.746 45.7588 104.377 44.8854 103.009 43.9781C101.716 43.1376 100.471 42.2234 99.2828 41.24C98.0458 40.267 96.9412 39.1366 95.997 37.8775C95.0561 36.6364 94.3067 35.2611 93.7736 33.7977C93.2358 32.3031 92.9444 30.731 92.9111 29.1429C92.8861 27.3854 93.1554 25.6362 93.7079 23.9678C94.1717 22.2095 94.8514 20.5154 95.7314 18.9241C96.7084 17.1152 97.8408 15.3947 99.1158 13.7819C100.424 12.1151 101.866 10.5583 103.428 9.12701C104.915 7.7537 106.525 6.52085 108.239 5.44421C108.88 4.98329 109.57 4.59397 110.296 4.28324C111.208 3.8894 112.167 3.61337 113.149 3.46179C114.289 3.28085 115.446 3.22484 116.599 3.29477C117.905 3.37272 119.198 3.6062 120.449 3.99025C122.514 4.73569 124.524 5.6288 126.462 6.66268C128.29 7.59849 129.995 8.75735 131.538 10.1127C132.34 10.8518 133.032 11.7009 133.594 12.6346C134.051 13.4038 134.398 14.2334 134.624 15.0989C134.819 15.8696 134.93 16.6591 134.955 17.4537C134.977 18.2277 134.988 18.9469 134.988 19.6114C134.806 20.7614 134.562 22.0666 134.257 23.5269C133.952 24.9873 133.587 26.4695 133.162 27.9737C132.74 29.4778 132.298 30.9153 131.834 32.2862C131.447 33.471 130.97 34.6244 130.407 35.7363C129.876 36.6216 129.334 37.1857 128.781 37.4285C128.228 37.6713 127.4 37.5471 126.297 37.0561C120.237 35.0226 117.45 32.1019 117.938 28.294C118.048 27.3774 118.214 26.4685 118.436 25.5723C118.679 24.5555 118.923 23.5269 119.167 22.4864C119.412 21.4459 119.621 20.4611 119.794 19.532C119.958 18.8029 120.014 18.0539 119.961 17.3086C119.896 16.761 119.675 16.4287 119.299 16.3119C118.923 16.1951 118.315 16.4497 117.475 17.0758C116.575 17.5808 115.739 18.1931 114.986 18.8995C114.046 19.7537 113.181 20.6862 112.398 21.6869C111.572 22.7366 110.848 23.8625 110.235 25.0493C109.636 26.185 109.212 27.4044 108.976 28.6664C108.753 29.8532 108.776 31.0729 109.042 32.2506C109.336 33.4753 110.006 34.5772 110.958 35.4023C112.294 36.684 113.737 37.8492 115.271 38.8852C116.863 39.9695 118.444 41.02 120.016 42.0368C121.588 43.0535 123.07 44.0575 124.463 45.0487C125.727 45.9298 126.885 46.9543 127.913 48.1018C128.761 49.0304 129.355 50.1621 129.638 51.3875C129.881 52.5376 129.649 53.7761 128.942 55.1032C128.418 56.1629 127.795 57.1712 127.083 58.1152C126.193 59.2861 125.117 60.3035 123.899 61.1271C122.407 62.1356 120.775 62.9181 119.055 63.4491C117.153 64.0679 114.871 64.4001 112.21 64.4458C108.631 64.537 105.072 63.8843 101.758 62.5291C98.3737 61.1582 94.8899 58.7915 91.3066 55.429C89.3607 53.7862 88.343 52.5257 88.2535 51.6477C88.1659 50.808 88.5858 50.1691 89.5131 49.731C90.3248 49.3735 91.1816 49.1284 92.0596 49.0026Z" fill="#FFA600"/>
<path d="M173.24 15.0623C174.052 16.7058 174.622 18.4581 174.932 20.2647C175.427 23.7478 175.538 27.2747 175.263 30.782C174.992 34.5986 174.336 38.3781 173.306 42.0631C172.292 45.7443 170.867 49.2998 169.059 52.6625C167.376 55.8418 165.141 58.6957 162.457 61.0905C160.818 62.3981 158.917 63.3376 156.882 63.8451C154.935 64.3087 152.7 64.4082 150.179 64.1435C148.441 63.9596 146.714 63.6854 145.004 63.3221C143.321 62.9771 141.692 62.408 140.16 61.6299C138.902 60.9656 137.723 60.1619 136.645 59.234C135.534 58.3111 134.611 57.1847 133.923 55.9154C132.811 53.737 132.008 51.4148 131.535 49.0153C130.995 46.3523 130.75 43.6379 130.804 40.9213C130.923 34.9859 132.185 29.129 134.52 23.671C135.713 20.8795 137.191 18.2185 138.931 15.7304C140.669 13.241 142.71 10.9775 145.007 8.99181C146.666 7.74247 148.546 6.81893 150.549 6.27009C152.536 5.66225 154.632 5.50326 156.688 5.80461C159.143 6.18642 161.554 6.80916 163.886 7.66381C165.927 8.37551 167.842 9.40595 169.56 10.7168C171.237 12.0877 172.464 13.5362 173.24 15.0623ZM155.754 18.5123C154.42 19.8288 153.26 21.3113 152.304 22.9235C151.086 24.9127 150.011 26.9861 149.087 29.1281C148.139 31.2748 147.33 33.4798 146.663 35.7298C146.036 37.8445 145.592 40.0092 145.335 42.2C145.074 44.2682 144.982 46.3544 145.062 48.4375C145.104 50.1241 145.417 51.7929 145.99 53.3799C146.521 54.7508 147.295 55.5914 148.312 55.9017C149.241 56.212 150.214 56.0131 151.231 55.3048C152.247 54.5965 153.265 53.5131 154.284 52.0546C155.434 50.354 156.404 48.539 157.181 46.6386C158.131 44.3635 158.918 42.0238 159.536 39.6371C160.146 37.3802 160.612 35.0864 160.929 32.7699C161.27 30.4513 161.447 28.1118 161.46 25.7684C161.495 23.8581 161.284 21.9512 160.831 20.095C160.409 18.5251 159.756 17.6069 158.873 17.3404C157.944 17.0392 156.904 17.4299 155.754 18.5123Z" fill="#FFA600"/>
<path d="M215.41 17.1166C213.375 17.3156 211.276 17.5255 209.113 17.7464L206.227 29.2931C205.232 33.2744 204.27 37.2228 203.341 41.1383C202.411 45.0539 201.538 48.869 200.72 52.5838C199.901 56.3004 199.181 59.7687 198.562 62.9887C198.472 63.6076 198.264 64.0183 197.933 64.2154C197.512 64.4368 197.037 64.5319 196.564 64.4892C195.888 64.449 195.219 64.3267 194.573 64.1251C193.821 63.9024 192.98 63.6587 192.051 63.394C191.195 63.1539 190.353 62.866 189.529 62.5315C188.841 62.2614 188.202 61.8803 187.637 61.4034C187.145 60.986 186.768 60.4496 186.542 59.8454C186.316 59.147 186.293 58.3986 186.476 57.6877C186.61 55.5647 186.875 52.9544 187.273 49.8566C187.671 46.7588 188.147 43.4858 188.7 40.0376C189.247 36.5875 189.855 33.1037 190.523 29.5861C191.191 26.0685 191.856 22.8074 192.517 19.8027C191.239 20.0254 190 20.2134 188.801 20.3668C187.792 20.4867 186.792 20.6761 185.808 20.9336C184.702 21.1983 183.795 21.2311 183.086 21.0322C182.378 20.8332 181.582 20.2691 180.699 19.34C179.684 18.2955 178.823 17.1116 178.141 15.8242C177.367 14.4095 176.737 13.2147 176.249 12.24C175.718 11.2232 175.586 10.5487 175.852 10.2165C176.119 9.88425 176.672 9.61044 177.512 9.39504C180.12 8.86384 183.073 8.37736 186.37 7.9356C189.666 7.49385 193.028 7.09591 196.454 6.74177C199.89 6.38216 203.255 6.08097 206.55 5.83819C209.845 5.5954 212.797 5.42929 215.408 5.33984C216.778 5.33984 217.762 5.46123 218.359 5.70402C218.98 5.96558 219.519 6.38927 219.92 6.93071C220.795 7.93415 221.532 9.05028 222.111 10.2493C222.661 11.3823 223.106 12.5638 223.439 13.7788C223.703 14.7974 223.714 15.4938 223.471 15.868C223.229 16.2422 222.421 16.4741 221.048 16.5635C219.323 16.7333 217.444 16.9176 215.41 17.1166Z" fill="#FFA600"/>
<path d="M231.564 55.3719C231.055 57.849 230.557 60.2823 230.072 62.6718C229.851 63.3783 229.552 63.8428 229.176 64.0655C228.8 64.2882 228.104 64.2882 227.087 64.0655C225.893 63.7552 224.832 63.5115 223.903 63.3345C222.977 63.1588 222.083 62.8459 221.249 62.4062C220.503 62.0173 219.899 61.4019 219.524 60.6483C219.216 59.9638 219.106 59.0456 219.193 57.8938C219.283 56.9646 219.404 55.6156 219.557 53.8468C219.711 52.0779 219.899 50.0764 220.121 47.842C220.344 45.6095 220.599 43.21 220.885 40.6435C221.172 38.0769 221.48 35.5113 221.811 32.9465C222.143 30.3818 222.508 27.8937 222.906 25.4823C223.304 23.071 223.724 20.9042 224.166 18.982C224.517 17.351 225.005 15.7527 225.625 14.2039C226.156 12.9426 226.709 12.1576 227.284 11.8491C230.022 10.6115 232.887 9.39483 235.877 8.19917C238.722 7.04532 241.68 6.18919 244.702 5.64449C247.413 5.14078 250.19 5.09635 252.916 5.51305C255.5 5.92327 257.887 7.14052 259.737 8.9905C261.287 10.6747 262.697 12.4834 263.951 14.3983C265.212 16.3223 266.196 18.6781 266.903 21.4655C267.478 24.43 267.257 26.8633 266.24 28.7654C264.692 31.8175 262.136 34.6268 258.573 37.1934C255.01 39.7599 250.752 42.1485 245.8 44.3591C246.816 45.5091 247.934 46.7258 249.151 48.0091C250.369 49.2923 251.616 50.5738 252.891 51.8534C254.169 53.1312 255.442 54.3698 256.708 55.5691C257.975 56.7684 259.162 57.808 260.268 58.6878C261.152 59.4399 261.549 60.0368 261.462 60.4786C261.374 60.9203 260.998 61.3849 260.334 61.8723C259.538 62.4929 258.863 62.858 258.31 62.9675C257.757 63.0771 257.081 63.2012 256.281 63.3399C255.232 63.6109 254.142 63.6897 253.064 63.5727C251.892 63.4613 250.532 62.942 248.984 62.0147C247.966 61.3082 246.794 60.4238 245.468 59.3614C244.143 58.299 242.774 57.1271 241.361 55.8456C239.945 54.5678 238.529 53.2298 237.114 51.8315C235.755 50.4994 234.47 49.0926 233.267 47.6175C232.639 50.31 232.072 52.8948 231.564 55.3719ZM238.3 27.9001C237.635 30.4667 236.883 33.2048 236.044 36.1146C238.893 35.1922 241.622 33.9338 244.173 32.366C246.301 31.067 248.291 29.5551 250.112 27.8536C251.704 26.3275 252.854 24.879 253.562 23.5081C254.271 22.1372 254.491 21.0758 254.225 20.3237C253.694 19.086 252.123 18.4663 249.513 18.4645C248.085 18.4805 246.663 18.6364 245.266 18.93C243.563 19.294 241.913 19.8737 240.356 20.655C239.648 22.9204 238.963 25.3354 238.3 27.9001Z" fill="#FFA600"/>
<path d="M307.804 15.0626C308.616 16.7061 309.186 18.4584 309.497 20.2651C309.991 23.7481 310.103 27.275 309.828 30.7823C309.556 34.599 308.9 38.3785 307.87 42.0635C306.858 45.7446 305.434 49.3001 303.626 52.6628C301.944 55.8422 299.708 58.6962 297.024 61.0908C295.385 62.3985 293.484 63.338 291.449 63.8454C289.502 64.3091 287.268 64.4085 284.749 64.1439C283.011 63.96 281.284 63.6858 279.574 63.3224C277.891 62.9774 276.262 62.4083 274.73 61.6302C273.471 60.9661 272.291 60.1624 271.212 59.2344C270.104 58.3073 269.184 57.1772 268.501 55.9048C267.389 53.7265 266.586 51.4043 266.113 49.0047C265.574 46.3416 265.328 43.6273 265.382 40.9107C265.501 34.9753 266.763 29.1183 269.098 23.6604C270.293 20.8689 271.772 18.208 273.512 15.7198C275.248 13.2317 277.288 10.9691 279.582 8.98393C281.24 7.73491 283.12 6.81137 285.122 6.26222C287.108 5.65447 289.205 5.49548 291.26 5.79673C293.715 6.17855 296.126 6.80129 298.459 7.65593C300.5 8.36772 302.414 9.39816 304.133 10.709C305.806 12.0853 307.03 13.5366 307.804 15.0626ZM290.321 18.5127C288.987 19.829 287.827 21.3116 286.871 22.9238C285.653 24.913 284.578 26.9865 283.654 29.1285C282.707 31.2751 281.899 33.4802 281.233 35.7301C280.606 37.8449 280.162 40.0096 279.905 42.2004C279.644 44.2685 279.552 46.3547 279.632 48.4379C279.674 50.1245 279.987 51.7933 280.56 53.3802C281.091 54.7511 281.865 55.5917 282.882 55.902C283.811 56.2124 284.784 56.0134 285.801 55.3051C286.817 54.5969 287.835 53.5135 288.854 52.0549C290.003 50.3543 290.973 48.5393 291.748 46.6389C292.698 44.3639 293.485 42.0242 294.103 39.6375C294.714 37.3805 295.179 35.0867 295.496 32.7702C295.837 30.4517 296.014 28.1121 296.028 25.7688C296.063 23.8584 295.851 21.9514 295.398 20.0953C294.976 18.5255 294.324 17.6073 293.44 17.3408C292.513 17.0396 291.473 17.4302 290.321 18.5127Z" fill="#FFA600"/>
<path d="M310.028 48.9999C310.905 48.8684 311.794 48.8244 312.681 48.8684C313.547 48.9105 314.404 49.0558 315.235 49.3011C316.024 49.5312 316.773 49.8782 317.459 50.3306C321.219 52.6763 324.493 54.1804 327.281 54.8431C330.068 55.5057 332.081 55.3286 333.318 54.3119C333.849 53.9577 333.971 53.526 333.682 53.0167C333.237 52.3376 332.675 51.7424 332.023 51.2588C331.203 50.5962 330.186 49.866 328.97 49.0683C327.754 48.2706 326.46 47.4492 325.087 46.604C323.716 45.7643 322.347 44.8908 320.98 43.9836C319.69 43.1373 318.449 42.2176 317.264 41.229C316.028 40.2594 314.924 39.1328 313.979 37.8775C313.038 36.6364 312.288 35.2612 311.755 33.7977C311.217 32.3031 310.926 30.731 310.893 29.1429C310.868 27.3854 311.137 25.6362 311.69 23.9678C312.153 22.2095 312.833 20.5154 313.713 18.9241C314.69 17.1152 315.822 15.3947 317.097 13.7819C318.406 12.1152 319.848 10.5584 321.41 9.12701C322.897 7.75363 324.507 6.52077 326.221 5.44421C326.862 4.98334 327.552 4.59403 328.277 4.28324C329.19 3.88943 330.148 3.61339 331.13 3.46179C332.271 3.28085 333.428 3.22484 334.58 3.29477C335.886 3.37288 337.177 3.60636 338.428 3.99025C340.491 4.73512 342.497 5.62732 344.432 6.65995C346.261 7.59575 347.966 8.75461 349.509 10.11C350.31 10.8491 351.002 11.6982 351.565 12.6318C352.022 13.4011 352.368 14.2306 352.595 15.0962C352.789 15.8669 352.901 16.6564 352.926 17.451C352.948 18.225 352.959 18.9442 352.959 19.6086C352.776 20.7587 352.533 22.0638 352.228 23.5242C351.923 24.9845 351.558 26.4668 351.133 27.9709C350.711 29.4751 350.268 30.9126 349.805 32.2835C349.418 33.4683 348.941 34.6216 348.378 35.7336C347.847 36.6189 347.305 37.183 346.752 37.4257C346.198 37.6685 345.37 37.5444 344.265 37.0534C338.205 35.0198 335.418 32.0991 335.906 28.2913C336.016 27.3747 336.182 26.4657 336.404 25.5696C336.647 24.5528 336.891 23.5242 337.135 22.4837C337.38 21.4432 337.593 20.4584 337.776 19.5292C337.94 18.8002 337.996 18.0512 337.943 17.3059C337.877 16.7582 337.656 16.426 337.28 16.3092C336.904 16.1923 336.296 16.447 335.457 17.0731C334.556 17.5781 333.721 18.1904 332.968 18.8967C332.028 19.751 331.162 20.6835 330.38 21.6841C329.556 22.7305 328.834 23.8527 328.222 25.0356C327.624 26.1713 327.199 27.3907 326.963 28.6527C326.74 29.8395 326.763 31.0592 327.029 32.237C327.323 33.4616 327.994 34.5635 328.945 35.3886C330.281 36.6703 331.724 37.8355 333.258 38.8715C334.85 39.9558 336.431 41.0063 338.003 42.0231C339.575 43.0398 341.057 44.0438 342.45 45.035C343.714 45.9162 344.872 46.9407 345.9 48.0881C346.748 49.0167 347.342 50.1484 347.625 51.3738C347.868 52.5239 347.636 53.7624 346.93 55.0895C346.405 56.1492 345.782 57.1575 345.07 58.1015C344.182 59.2853 343.106 60.3149 341.883 61.149C340.392 62.1575 338.76 62.9399 337.039 63.471C335.137 64.0898 332.855 64.422 330.194 64.4677C326.615 64.5589 323.056 63.9062 319.742 62.551C316.358 61.1801 312.874 58.8134 309.291 55.4509C307.345 53.8081 306.327 52.5476 306.238 51.6696C306.15 50.8299 306.57 50.191 307.497 49.7529C308.303 49.3883 309.154 49.135 310.028 48.9999Z" fill="#FFA600"/>
<path d="M37.1872 21.4965C38.4905 15.887 39.7829 10.7183 41.0644 5.9904C41.4167 4.7126 41.9579 3.91763 42.6881 3.60548C43.4183 3.29333 44.4898 3.31524 45.9027 3.67119C46.5653 3.85374 47.1613 4.00799 47.6907 4.13394C48.2237 4.26789 48.7448 4.44556 49.2487 4.66514C49.7562 4.88602 50.2974 5.15071 50.8724 5.4592C51.4474 5.7677 52.1091 6.16838 52.8576 6.66125C54.1354 7.45714 54.8537 8.26306 55.0125 9.07903C55.1713 9.895 55.0718 10.878 54.714 12.028C53.6973 15.2974 52.6367 19.0085 51.5323 23.1613C50.4279 27.3142 49.3327 31.5327 48.2465 35.817C47.164 40.1031 46.1263 44.2888 45.1333 48.3741C44.1402 52.4595 43.2896 56.0483 42.5813 59.1405C42.3166 60.8181 40.9913 61.3922 38.6055 60.8628C36.4895 60.4428 34.4075 59.8671 32.3762 59.1405C31.4507 58.8036 30.6066 58.2754 29.8989 57.5903C29.1913 56.9053 28.6359 56.0788 28.269 55.1647C27.6502 53.7957 27.0204 52.2057 26.3797 50.3949C25.739 48.5841 25.0873 46.629 24.4247 44.5298C23.762 42.4324 23.0994 40.2419 22.4368 37.9582C21.7741 35.6746 21.1553 33.3928 20.5803 31.1129C20.0929 33.851 19.5955 36.5892 19.088 39.3273L17.6395 47.1858C17.1759 49.6812 16.756 52.0004 16.38 54.1434C16.004 56.2865 15.7091 58.1493 15.4956 59.732C15.313 60.4822 15.0255 60.9568 14.6331 61.1558C14.2406 61.3548 13.4675 61.3 12.3138 60.9915C11.2533 60.7268 10.1817 60.453 9.09927 60.1701C7.98982 59.8684 6.93006 59.4072 5.95314 58.801C4.98201 58.3154 4.33033 57.7523 3.9981 57.1116C3.66587 56.4708 3.54448 55.5764 3.63393 54.4282C3.72337 53.2362 3.86667 51.5358 4.06382 49.327C4.26096 47.1183 4.52565 44.611 4.85788 41.8053C5.18828 38.9997 5.56341 35.9959 5.98326 32.7941C6.40311 29.5923 6.85946 26.3978 7.35233 23.2106C7.83972 20.0307 8.33715 16.9603 8.84462 13.9995C9.35209 11.0386 9.84313 8.41001 10.3177 6.11362C10.6262 4.78836 11.1739 3.96052 11.9606 3.63012C12.7474 3.29972 13.8344 3.31341 15.2218 3.67119C16.8646 4.15858 18.4546 4.64415 19.9916 5.12789C21.6462 5.65558 23.2628 6.29598 24.8299 7.04459C26.199 7.6196 27.171 8.33699 27.746 9.19677C28.321 10.0565 28.7409 11.327 29.0056 13.0083C29.2265 14.2861 29.514 15.9207 29.8681 17.9123C30.2222 19.9038 30.6202 22.0569 31.0619 24.3716C31.5037 26.6899 31.9673 29.0757 32.4529 31.5291C32.9385 33.9825 33.424 36.3345 33.9096 38.5853C34.7913 32.8041 35.8838 27.1079 37.1872 21.4965Z" fill="white"/>
<path d="M92.7099 12.2533C93.5212 13.8968 94.0903 15.6492 94.3993 17.4558C94.8936 20.9343 95.0047 24.4566 94.7306 27.9593C94.4591 31.7704 93.8041 35.5443 92.7756 39.224C91.7621 42.8948 90.3394 46.4402 88.5342 49.7933C86.8539 52.9676 84.6211 55.8169 81.9408 58.2076C80.303 59.5088 78.4045 60.4427 76.3741 60.9457C74.43 61.4094 72.1993 61.5089 69.6821 61.2442C67.9458 61.0602 66.2203 60.786 64.5125 60.4228C62.8314 60.0784 61.2042 59.5102 59.6742 58.7333C58.4174 58.0726 57.239 57.2726 56.1611 56.3484C55.0533 55.4268 54.1314 54.3023 53.4449 53.0352C52.3345 50.8595 51.5319 48.54 51.06 46.1433C50.5216 43.4838 50.2774 40.7732 50.3316 38.0603C50.45 32.1325 51.7097 26.283 54.0418 20.8319C55.2372 18.0486 56.7163 15.3959 58.4557 12.9159C60.1867 10.4325 62.2194 8.17362 64.507 6.19106C66.1633 4.94402 68.0411 4.02233 70.0408 3.47482C72.0249 2.86858 74.1189 2.71052 76.1715 3.01207C78.6234 3.3932 81.0319 4.01502 83.3618 4.86854C85.3993 5.57887 87.3114 6.60747 89.0271 7.91609C90.7119 9.28516 91.9395 10.7309 92.7099 12.2533ZM75.2542 15.6979C73.9207 17.0134 72.7621 18.495 71.8069 20.1063C70.5895 22.0928 69.5153 24.1635 68.5923 26.3027C67.6465 28.4467 66.8389 30.649 66.1745 32.8962C65.5488 35.0074 65.1054 37.1684 64.8493 39.3555C64.5878 41.4209 64.4962 43.5043 64.5754 45.5847C64.6188 47.2668 64.9322 48.9309 65.5037 50.5134C66.033 51.8825 66.8061 52.7222 67.8229 53.0325C68.7502 53.3428 69.7222 53.1439 70.739 52.4356C71.7558 51.7273 72.7716 50.6448 73.7866 49.1881C74.9309 47.4923 75.8971 45.6828 76.6698 43.7885C77.6174 41.5188 78.4025 39.1846 79.0192 36.8035C79.6284 34.5538 80.093 32.2673 80.4101 29.9582C80.7504 27.6433 80.9279 25.3074 80.9413 22.9677C80.976 21.06 80.7643 19.1559 80.3116 17.3025C79.8917 15.7344 79.24 14.8217 78.3565 14.5643C77.4365 14.2394 76.4024 14.6172 75.2542 15.6979Z" fill="white"/>
<path d="M94.9345 46.1479C95.8115 46.0165 96.6994 45.9724 97.585 46.0165C98.4498 46.0577 99.3065 46.2021 100.137 46.4464C100.924 46.6759 101.673 47.022 102.358 47.4732C106.111 49.8152 109.375 51.3166 112.152 51.9774C114.928 52.6382 116.936 52.4612 118.176 51.4462C118.705 51.0939 118.827 50.6631 118.54 50.1538C118.1 49.4769 117.544 48.8828 116.897 48.3987C116.079 47.736 115.064 47.0059 113.85 46.2082C112.636 45.4104 111.343 44.589 109.972 43.7438C108.603 42.906 107.234 42.0334 105.865 41.1262C104.577 40.2851 103.338 39.3709 102.155 38.388C100.919 37.4203 99.8143 36.2955 98.8692 35.042C97.9293 33.8027 97.1808 32.4292 96.6486 30.9676C96.1125 29.4782 95.8212 27.9118 95.7861 26.3292C95.7656 24.5778 96.0377 22.8352 96.5911 21.1733C97.0547 19.418 97.7334 17.7267 98.6118 16.1379C99.5873 14.331 100.718 12.6123 101.991 11.0011C103.298 9.34021 104.738 7.78891 106.298 6.36268C107.782 4.99138 109.39 3.76036 111.101 2.68535C111.741 2.22551 112.429 1.83712 113.154 1.52711C114.066 1.13333 115.023 0.857293 116.005 0.705669C117.143 0.526037 118.298 0.47095 119.449 0.54138C120.75 0.620342 122.037 0.853813 123.283 1.23687C125.342 1.97576 127.346 2.86154 129.279 3.88739C131.104 4.82176 132.807 5.97877 134.347 7.33198C135.148 8.07023 135.839 8.91839 136.401 9.85107C136.857 10.6204 137.202 11.45 137.428 12.3154C137.623 13.0852 137.734 13.8738 137.759 14.6675C137.781 15.4415 137.792 16.1588 137.792 16.8197C137.609 17.9697 137.367 19.273 137.064 20.7297C136.761 22.1864 136.396 23.6659 135.968 25.1683C135.549 26.6706 135.107 28.1063 134.643 29.4754C134.257 30.6582 133.781 31.8098 133.219 32.9199C132.69 33.8034 132.149 34.3666 131.596 34.6094C131.042 34.8522 130.22 34.7226 129.128 34.2206C123.075 32.1889 120.292 29.2736 120.78 25.4749C120.89 24.5602 121.057 23.653 121.278 22.7587C121.521 21.7437 121.764 20.7169 122.007 19.6783C122.249 18.6396 122.459 17.6566 122.636 16.7293C122.799 16.0011 122.855 15.2529 122.801 14.5087C122.735 13.961 122.514 13.6297 122.138 13.5147C121.762 13.3997 121.153 13.6525 120.312 14.2732C119.412 14.778 118.577 15.3904 117.825 16.0968C116.887 16.9494 116.022 17.8801 115.241 18.8787C114.418 19.9235 113.697 21.0439 113.086 22.2247C112.487 23.3586 112.062 24.5761 111.826 25.8364C111.604 27.0213 111.627 28.2391 111.892 29.4151C112.187 30.6383 112.857 31.7384 113.809 32.5612C115.142 33.8419 116.583 35.0062 118.116 36.0414C119.706 37.1239 121.285 38.1726 122.853 39.1876C124.421 40.2025 125.9 41.2065 127.291 42.1995C128.553 43.079 129.709 44.1016 130.736 45.2471C131.584 46.1755 132.177 47.3074 132.458 48.5328C132.701 49.6829 132.469 50.9196 131.763 52.243C131.239 53.3027 130.618 54.3111 129.906 55.255C129.017 56.4259 127.942 57.4433 126.724 58.2669C125.241 59.2785 123.616 60.0656 121.903 60.6026C120.002 61.2214 117.727 61.5527 115.076 61.5965C111.502 61.6868 107.948 61.0342 104.639 59.6798C101.26 58.3108 97.7813 55.9477 94.2034 52.5908C92.2594 50.9479 91.2435 49.6893 91.1559 48.8149C91.0683 47.977 91.4881 47.3381 92.4154 46.8982C93.2174 46.5354 94.0648 46.283 94.9345 46.1479Z" fill="white"/>
<path d="M176.006 12.2531C176.817 13.8966 177.386 15.649 177.695 17.4556C178.19 20.9341 178.301 24.4563 178.027 27.9591C177.755 31.7702 177.1 35.5442 176.072 39.2238C175.063 42.8941 173.645 46.4394 171.844 49.7931C170.164 52.9674 167.931 55.8168 165.251 58.2074C163.613 59.5086 161.714 60.4425 159.684 60.9455C157.74 61.4092 155.509 61.5087 152.992 61.244C151.257 61.0599 149.532 60.7858 147.825 60.4225C146.144 60.0783 144.517 59.5101 142.987 58.7331C141.73 58.0724 140.552 57.2724 139.474 56.3482C138.366 55.4267 137.444 54.3022 136.757 53.035C135.647 50.8592 134.845 48.5398 134.372 46.1431C133.834 43.4836 133.59 40.773 133.644 38.0601C133.759 32.1339 135.015 26.2854 137.343 20.8344C138.536 18.0505 140.012 15.397 141.749 12.9157C143.483 10.4317 145.52 8.17273 147.811 6.19085C149.468 4.9437 151.345 4.022 153.345 3.47461C155.328 2.86868 157.421 2.71063 159.473 3.01186C161.925 3.39309 164.333 4.01491 166.663 4.86832C168.701 5.5787 170.613 6.6073 172.329 7.91588C174.014 9.28495 175.239 10.7307 176.006 12.2531ZM158.548 15.6977C157.214 17.0132 156.055 18.4948 155.1 20.1061C153.883 22.0926 152.809 24.1634 151.886 26.3025C150.94 28.4464 150.132 30.6488 149.468 32.896C148.842 35.0072 148.399 37.1682 148.143 39.3553C147.881 41.4207 147.79 43.5041 147.869 45.5845C147.912 47.2666 148.225 48.9307 148.797 50.5132C149.326 51.8823 150.099 52.722 151.116 53.0323C152.044 53.3426 153.016 53.1436 154.032 52.4354C155.049 51.7271 156.065 50.6446 157.08 49.1879C158.224 47.4921 159.19 45.6826 159.963 43.7883C160.912 41.5169 161.698 39.1808 162.315 36.7978C162.924 34.548 163.389 32.2616 163.706 29.9525C164.046 27.6376 164.224 25.3017 164.237 22.962C164.272 21.0543 164.06 19.1502 163.608 17.2968C163.188 15.7287 162.536 14.816 161.653 14.5586C160.731 14.2373 159.696 14.617 158.548 15.6977Z" fill="white"/>
<path d="M218.118 14.3095C216.087 14.5085 213.987 14.7184 211.821 14.9393L208.937 26.4696C207.944 30.4454 206.983 34.3884 206.054 38.2984C205.125 42.2085 204.252 46.0182 203.436 49.7274C202.619 53.4385 201.901 56.9069 201.284 60.1324C201.195 60.7512 200.985 61.1601 200.654 61.3591C200.234 61.5804 199.759 61.6755 199.285 61.6329C198.61 61.5925 197.943 61.4702 197.298 61.2687C196.545 61.0478 195.706 60.8051 194.778 60.5404C193.923 60.3003 193.082 60.0123 192.259 59.6779C191.572 59.4085 190.934 59.0283 190.37 58.5525C189.878 58.1353 189.501 57.5989 189.275 56.9945C189.049 56.2978 189.027 55.5514 189.209 54.8423C189.342 52.7212 189.607 50.1144 190.003 47.0222C190.399 43.9299 190.874 40.6605 191.427 37.2141C191.975 33.7677 192.582 30.2894 193.248 26.7791C193.914 23.2688 194.577 20.0113 195.236 17.0066C193.958 17.2275 192.721 17.4155 191.526 17.5707C190.52 17.6901 189.524 17.8786 188.544 18.1347C187.439 18.3994 186.534 18.4323 185.827 18.2333C185.121 18.0343 184.331 17.463 183.459 16.5192C182.446 15.4756 181.586 14.2926 180.907 13.0062C180.135 11.5933 179.505 10.4004 179.018 9.42743C178.488 8.41249 178.356 7.73891 178.621 7.40668C178.885 7.07445 179.438 6.80064 180.277 6.58524C182.884 6.05586 185.833 5.5703 189.124 5.12854C192.415 4.68679 195.772 4.28885 199.195 3.93471C202.618 3.5824 205.975 3.28395 209.266 3.03934C212.557 2.79473 215.508 2.63318 218.118 2.55469C219.487 2.55469 220.47 2.67608 221.067 2.91886C221.687 3.18061 222.225 3.60431 222.625 4.14555C223.5 5.14706 224.237 6.26137 224.816 7.4587C225.365 8.58631 225.809 9.76234 226.141 10.9717C226.406 11.9885 226.417 12.684 226.174 13.0582C225.931 13.4324 225.125 13.6643 223.756 13.7537C222.028 13.9253 220.148 14.1106 218.118 14.3095Z" fill="white"/>
<path d="M234.248 52.5067C233.739 54.982 233.242 57.4117 232.756 59.7957C232.535 60.5021 232.237 60.9658 231.861 61.1867C231.485 61.4075 230.789 61.4075 229.774 61.1867C228.582 60.8763 227.522 60.6336 226.593 60.4583C225.668 60.2827 224.774 59.9698 223.942 59.5301C223.197 59.1417 222.594 58.5273 222.22 57.7749C221.911 57.0904 221.801 56.1777 221.888 55.0368C221.978 54.1095 222.099 52.7623 222.253 50.9953C222.406 49.2283 222.594 47.2294 222.817 44.9988C223.038 42.7681 223.291 40.3713 223.578 37.8084C223.864 35.2455 224.174 32.6835 224.506 30.1224C224.837 27.5668 225.202 25.0824 225.601 22.6692C226.001 20.256 226.421 18.091 226.861 16.1743C227.211 14.5461 227.698 12.9505 228.318 11.4045C228.847 10.1449 229.395 9.36088 229.96 9.05239C232.699 7.81657 235.559 6.60175 238.542 5.40792C241.384 4.25528 244.338 3.40006 247.356 2.85596C250.067 2.35153 252.844 2.3071 255.57 2.72453C258.144 3.14046 260.52 4.35842 262.361 6.20472C263.914 7.88038 265.326 9.68084 266.583 11.5879C267.843 13.5101 268.826 15.8622 269.532 18.6441C270.105 21.605 269.884 24.0346 268.87 25.933C267.322 28.9815 264.766 31.7863 261.203 34.3474C257.639 36.9084 253.387 39.2943 248.446 41.5049C249.461 42.6549 250.576 43.8697 251.792 45.1494C253.007 46.429 254.255 47.7068 255.535 48.9828C256.813 50.2606 258.082 51.4973 259.344 52.6929C260.605 53.8886 261.787 54.9264 262.889 55.8062C263.773 56.5583 264.171 57.1543 264.083 57.5942C263.996 58.0341 263.62 58.4978 262.955 58.9852C262.159 59.604 261.486 59.9691 260.934 60.0805C260.383 60.1918 259.71 60.3132 258.914 60.4446C257.865 60.7155 256.776 60.7944 255.699 60.6774C254.527 60.566 253.169 60.0467 251.625 59.1194C250.608 58.4129 249.437 57.5294 248.112 56.4688C246.786 55.4083 245.417 54.2373 244.004 52.9558C242.59 51.678 241.176 50.3418 239.763 48.9472C238.408 47.6166 237.128 46.2116 235.93 44.7386C235.316 47.4439 234.756 50.0333 234.248 52.5067ZM240.973 25.0733C240.311 27.6289 239.56 30.367 238.72 33.2877C241.565 32.3667 244.29 31.1102 246.838 29.5447C248.963 28.2471 250.95 26.737 252.769 25.0377C254.359 23.5134 255.507 22.0668 256.214 20.6977C256.92 19.3286 257.141 18.2681 256.876 17.516C256.347 16.2802 254.779 15.6614 252.172 15.6595C250.747 15.6748 249.326 15.8298 247.931 16.1223C246.232 16.488 244.587 17.0686 243.035 17.85C242.325 20.1026 241.639 22.5104 240.976 25.0733H240.973Z" fill="white"/>
<path d="M310.393 12.253C311.205 13.8964 311.774 15.6488 312.083 17.4555C312.577 20.934 312.688 24.4563 312.414 27.959C312.143 31.7701 311.488 35.5441 310.459 39.2238C309.446 42.8946 308.023 46.44 306.218 49.793C304.537 52.9672 302.305 55.8166 299.624 58.2073C297.987 59.5086 296.088 60.4424 294.058 60.9455C292.114 61.4091 289.883 61.5086 287.366 61.2439C285.629 61.0599 283.904 60.7858 282.196 60.4225C280.515 60.0781 278.888 59.5099 277.358 58.733C276.101 58.0722 274.923 57.2722 273.845 56.3481C272.737 55.4266 271.815 54.3021 271.128 53.035C270.018 50.8592 269.216 48.5397 268.744 46.1431C268.205 43.4836 267.961 40.7729 268.015 38.0601C268.133 32.1321 269.393 26.2825 271.725 20.8316C272.918 18.0477 274.394 15.3942 276.131 12.9129C277.865 10.4299 279.9 8.17191 282.191 6.19079C283.847 4.94386 285.725 4.02219 287.724 3.47455C289.708 2.86871 291.801 2.71066 293.852 3.0118C296.304 3.39289 298.713 4.01472 301.043 4.86826C303.08 5.57873 304.992 6.60731 306.708 7.91582C308.386 9.28489 309.614 10.7306 310.393 12.253ZM292.924 15.6976C291.592 17.0124 290.434 18.4931 289.48 20.1033C288.262 22.0899 287.188 24.1606 286.265 26.2997C285.319 28.4438 284.512 30.6461 283.847 32.8932C282.643 37.0107 282.106 41.2944 282.256 45.5817C282.3 47.2637 282.613 48.9278 283.185 50.5104C283.714 51.8795 284.487 52.7192 285.504 53.0295C286.431 53.3398 287.403 53.1408 288.42 52.4326C289.437 51.7243 290.452 50.6418 291.467 49.1851C292.612 47.4893 293.578 45.6798 294.351 43.7855C295.299 41.5141 296.085 39.178 296.703 36.795C297.312 34.5453 297.777 32.2588 298.094 29.9497C298.432 27.6337 298.608 25.2969 298.619 22.9564C298.654 21.0488 298.443 19.1446 297.99 17.2912C297.57 15.7232 296.918 14.8105 296.035 14.5531C295.111 14.2355 294.074 14.617 292.924 15.6976Z" fill="white"/>
<path d="M312.602 46.1472C313.479 46.0158 314.367 45.9717 315.253 46.0158C316.117 46.0571 316.974 46.2014 317.805 46.4457C318.592 46.6752 319.34 47.0213 320.025 47.4725C323.78 49.8145 327.05 51.3168 329.833 51.9795C332.617 52.6421 334.625 52.465 335.857 51.4483C336.388 51.096 336.51 50.6652 336.221 50.1559C335.777 49.4778 335.216 48.8836 334.565 48.4007C333.747 47.7381 332.731 47.0079 331.517 46.2102C330.303 45.4125 329.011 44.5911 327.64 43.7459C326.271 42.908 324.902 42.0355 323.533 41.1282C322.245 40.2873 321.006 39.373 319.823 38.3901C318.587 37.4222 317.482 36.2974 316.537 35.0441C315.597 33.8047 314.848 32.4313 314.316 30.9697C313.78 29.4804 313.488 27.9139 313.454 26.3313C313.428 24.5758 313.696 22.8285 314.248 21.1617C314.711 19.4062 315.39 17.7149 316.269 16.1262C317.244 14.3192 318.374 12.6005 319.647 10.9895C320.954 9.32845 322.395 7.77713 323.954 6.35104C325.439 4.97974 327.046 3.74872 328.757 2.67371C329.397 2.21382 330.086 1.82543 330.811 1.51547C331.722 1.12166 332.68 0.845624 333.661 0.694029C334.8 0.514267 335.955 0.45918 337.106 0.52974C338.407 0.608857 339.693 0.842325 340.939 1.22523C342.999 1.96404 345.003 2.84983 346.936 3.87575C348.761 4.81002 350.463 5.96705 352.004 7.32034C352.804 8.05859 353.496 8.90675 354.058 9.83943C354.514 10.6087 354.859 11.4382 355.084 12.3038C355.279 13.0736 355.39 13.8622 355.416 14.6558C355.438 15.4298 355.449 16.1472 355.449 16.808C355.266 17.958 355.023 19.2614 354.72 20.7181C354.417 22.1748 354.052 23.6543 353.625 25.1566C353.205 26.6589 352.763 28.0946 352.3 29.4637C351.914 30.6465 351.438 31.798 350.876 32.9083C350.356 33.7827 349.822 34.3431 349.274 34.5895C348.726 34.836 347.899 34.7146 346.791 34.2253C340.738 32.1936 337.955 29.2784 338.442 25.4797C338.551 24.565 338.717 23.6578 338.938 22.7635C339.18 21.7485 339.423 20.7217 339.666 19.6831C339.909 18.6444 340.119 17.6614 340.296 16.7341C340.46 16.006 340.516 15.2578 340.463 14.5134C340.397 13.9658 340.175 13.629 339.8 13.5195C339.425 13.41 338.817 13.6646 337.977 14.2807C337.078 14.7858 336.244 15.3982 335.493 16.1043C334.554 16.9568 333.69 17.8875 332.908 18.8863C332.086 19.9309 331.364 21.0513 330.753 22.2323C330.154 23.3661 329.73 24.5836 329.494 25.8439C329.272 27.0288 329.294 28.2467 329.559 29.4226C329.855 30.6454 330.525 31.7453 331.476 32.5688C332.81 33.8493 334.251 35.0136 335.783 36.049C337.373 37.1314 338.952 38.1801 340.52 39.1951C342.088 40.21 343.568 41.214 344.959 42.207C346.221 43.0865 347.377 44.1092 348.403 45.2546C349.251 46.1831 349.844 47.315 350.126 48.5404C350.368 49.6904 350.137 50.9271 349.43 52.2506C348.907 53.3102 348.285 54.3185 347.574 55.2625C346.685 56.4335 345.61 57.451 344.392 58.2745C342.902 59.2818 341.272 60.0633 339.554 60.5937C337.653 61.2125 335.378 61.5438 332.727 61.5876C329.153 61.6779 325.599 61.0253 322.29 59.6709C318.911 58.3019 315.432 55.9388 311.852 52.5819C309.908 50.939 308.892 49.6803 308.804 48.806C308.717 47.9681 309.137 47.3292 310.064 46.8893C310.872 46.5277 311.726 46.278 312.602 46.1472Z" fill="white"/>
</svg>
