<svg viewBox="0 0 575 60" fill="none" xmlns="http://www.w3.org/2000/svg">
<path d="M31.6546 22.6363C32.8429 17.5146 34.0229 12.7955 35.1946 8.4788C35.5179 7.31213 36.0121 6.5863 36.6771 6.3013C37.3421 6.0163 38.3204 6.0363 39.6121 6.3613C40.2171 6.52796 40.7621 6.6688 41.2471 6.7838C41.7338 6.90613 42.2095 7.06834 42.6696 7.2688C43.1329 7.47046 43.6271 7.71213 44.1521 7.9938C44.6771 8.27546 45.2821 8.6388 45.9671 9.0838C47.1338 9.81046 47.7896 10.5463 47.9346 11.2913C48.0796 12.0363 47.9888 12.9338 47.6621 13.9838C46.7288 16.9705 45.7579 20.3588 44.7496 24.1488C43.7413 27.9388 42.7413 31.7905 41.7496 35.7038C40.7613 39.6171 39.8138 43.4388 38.9071 47.1688C38.0004 50.8988 37.2263 54.1755 36.5846 56.9988C36.3429 58.5305 35.1329 59.0546 32.9546 58.5713C31.0227 58.1877 29.1217 57.6621 27.2671 56.9988C26.4221 56.6911 25.6514 56.2089 25.0053 55.5834C24.3591 54.958 23.8521 54.2034 23.5171 53.3688C22.9521 52.1188 22.3771 50.6671 21.7921 49.0138C21.2071 47.3605 20.6096 45.5763 19.9996 43.6613C19.3946 41.7463 18.7896 39.7463 18.1846 37.6613C17.5796 35.5763 17.0146 33.493 16.4896 31.4113C16.0446 33.9113 15.5904 36.4113 15.1271 38.9113C14.6638 41.4113 14.2204 43.8013 13.7971 46.0813C13.3738 48.3613 12.9904 50.4788 12.6471 52.4338C12.3038 54.3888 12.0313 56.093 11.8296 57.5463C11.6629 58.2313 11.4004 58.6646 11.0421 58.8463C10.6838 59.028 9.97793 58.978 8.9246 58.6963C7.95626 58.4546 6.97793 58.2046 5.9896 57.9463C4.9758 57.671 4.00736 57.2499 3.1146 56.6963C2.22793 56.253 1.63293 55.7388 1.3296 55.1538C1.02626 54.5688 0.916263 53.753 0.999596 52.7063C1.08126 51.618 1.2121 50.0655 1.3921 48.0488C1.5721 46.0321 1.81376 43.743 2.1171 41.1813C2.41876 38.6196 2.76126 35.8771 3.1446 32.9538C3.52793 30.0305 3.9446 27.1138 4.3946 24.2038C4.84126 21.3038 5.29293 18.503 5.7496 15.8013C6.20626 13.0996 6.66043 10.6996 7.1121 8.6013C7.39376 7.3913 7.89376 6.63463 8.6121 6.3313C9.33043 6.02796 10.3188 6.03796 11.5771 6.3613C13.0771 6.8063 14.5288 7.24963 15.9321 7.6913C17.4428 8.17316 18.9187 8.75786 20.3496 9.4413C21.5996 9.9663 22.4871 10.6221 23.0121 11.4088C23.5371 12.1955 23.9204 13.3555 24.1621 14.8888C24.3638 16.0555 24.6263 17.548 24.9496 19.3663C25.2729 21.1846 25.6363 23.1513 26.0396 25.2663C26.4429 27.383 26.8663 29.5613 27.3096 31.8013C27.7529 34.0413 28.2029 36.1905 28.6596 38.2488C29.4646 32.9638 30.4629 27.7596 31.6546 22.6363Z" fill="white"/>
<path d="M44.1189 46.8064C43.7204 44.6824 43.5278 42.5249 43.5439 40.3639C43.554 37.8755 43.7159 35.39 44.0289 32.9214C44.3439 30.3064 44.7672 27.6447 45.2989 24.9364C45.8306 22.2281 46.4256 19.5156 47.0839 16.7989C47.7506 14.0756 48.4464 11.4239 49.1714 8.84389C49.4931 7.67722 49.9672 6.97139 50.5939 6.72639C51.2206 6.48139 52.1789 6.58222 53.4689 7.02889C54.6674 7.38805 55.8312 7.85408 56.9464 8.42139C58.077 9.00105 59.1595 9.66983 60.1839 10.4214C62.3622 11.9947 63.1122 14.0114 62.4339 16.4714C61.7872 18.5697 61.1114 20.8389 60.4064 23.2789C59.7014 25.7189 59.0456 28.1897 58.4389 30.6914C57.8339 33.1914 57.3197 35.6314 56.8964 38.0114C56.5036 40.1309 56.2406 42.2724 56.1089 44.4239C56.0072 46.3206 56.1081 47.8939 56.4114 49.1439C56.7147 50.3939 57.3097 51.1439 58.1964 51.3939C59.2847 51.6772 60.3539 51.1531 61.4039 49.8214C62.4539 48.4897 63.4539 46.6447 64.4039 44.2864C65.4588 41.6051 66.3676 38.8686 67.1264 36.0889C67.9931 32.9839 68.7997 29.7872 69.5464 26.4989C70.2931 23.2106 70.9689 19.9739 71.5739 16.7889C72.1656 13.5956 72.7039 10.7489 73.1889 8.24889C73.2689 7.03889 73.7122 6.31306 74.5189 6.07139C75.3256 5.82972 76.3039 5.85972 77.4539 6.16139C78.7316 6.5142 79.9685 7.00107 81.1439 7.61389C82.4539 8.28056 83.6539 8.93639 84.7439 9.58139C85.2106 9.86898 85.6462 10.2041 86.0439 10.5814C86.3178 10.8391 86.5342 11.1517 86.6789 11.4989C86.8012 11.838 86.8423 12.201 86.7989 12.5589C86.7428 13.0168 86.6593 13.471 86.5489 13.9189C85.3506 19.6922 84.1339 24.9881 82.8989 29.8064C81.8202 34.1355 80.5193 38.4061 79.0014 42.6014C77.6297 46.3131 76.1372 49.4189 74.5239 51.9189C72.9106 54.4189 71.1156 56.2339 69.1389 57.3639C67.7974 58.0258 66.373 58.5042 64.9039 58.7864C63.3056 59.0575 61.6798 59.1288 60.0639 58.9989C56.4339 58.7572 53.4489 57.9906 51.1089 56.6989C50.096 56.1304 49.1436 55.4603 48.2664 54.6989C47.3428 53.8899 46.5649 52.9284 45.9664 51.8564C45.0624 50.2929 44.4372 48.5841 44.1189 46.8064Z" fill="white"/>
<path d="M94.2713 8.36082C96.3896 7.87749 98.608 7.43416 100.926 7.03082C103.245 6.62749 105.624 6.27416 108.064 5.97082C110.504 5.66916 112.934 5.47749 115.354 5.39583C117.652 5.35583 119.125 6.24332 119.771 8.05833C120.239 8.88883 120.605 9.77271 120.861 10.6908C121.063 11.4775 121.265 12.335 121.466 13.2633C121.633 14.3133 121.55 15.0192 121.216 15.3808C120.883 15.7425 120.133 16.005 118.966 16.1683C116.546 16.4517 114.046 16.7342 111.466 17.0158C108.886 17.2975 106.164 17.64 103.299 18.0433C102.694 19.8583 102.129 21.7442 101.604 23.7008C101.079 25.6575 100.495 27.7042 99.8538 29.8408C101.064 29.6742 102.274 29.5533 103.484 29.4783C104.694 29.4033 105.985 29.3425 107.356 29.2958C108.485 29.2558 109.372 29.3567 110.019 29.5983C110.665 29.84 111.21 30.3642 111.654 31.1708C112.113 31.9244 112.488 32.7258 112.774 33.5608C113.035 34.3475 113.267 35.1442 113.469 35.9508C113.79 36.8792 113.82 37.5042 113.559 37.8258C113.297 38.1475 112.601 38.43 111.471 38.6733C109.051 39.1183 106.581 39.5417 104.061 39.9433C101.541 40.345 99.1113 40.7883 96.7713 41.2733C96.448 42.565 96.1455 43.785 95.8638 44.9333C95.5822 46.0817 95.2797 47.2208 94.9563 48.3508C96.8513 48.0292 98.6563 47.7667 100.371 47.5633C102.086 47.36 103.952 47.1983 105.969 47.0783C107.097 46.9983 107.975 47.0817 108.601 47.3283C109.282 47.6204 109.846 48.1316 110.204 48.7808C110.645 49.5011 111.02 50.26 111.324 51.0483C111.585 51.755 111.878 52.4708 112.201 53.1958C112.403 54.0025 112.403 54.5567 112.201 54.8583C112 55.16 111.355 55.41 110.266 55.6083C107.685 56.0917 105.063 56.5958 102.401 57.1208C99.7396 57.6458 97.1988 58.13 94.7788 58.5733C93.1655 58.9767 91.9455 59.0675 91.1188 58.8458C90.3568 58.6522 89.6314 58.3355 88.9713 57.9083C88.2846 57.465 87.6288 57.0108 87.0038 56.5458C86.3788 56.0808 85.643 55.4858 84.7963 54.7608C84.1268 54.2149 83.5806 53.5333 83.1938 52.7608C82.7985 51.8927 82.6456 50.9338 82.7513 49.9858L88.5013 9.75082C90.2296 9.30916 92.153 8.84582 94.2713 8.36082Z" fill="white"/>
<path d="M117.049 45.1433C117.849 45.0233 118.66 44.9831 119.469 45.0233C120.258 45.061 121.041 45.1927 121.799 45.4158C122.518 45.6254 123.201 45.9414 123.826 46.3533C127.255 48.4917 130.24 49.8633 132.781 50.4683C135.323 51.0733 137.156 50.9117 138.281 49.9833C138.765 49.6617 138.875 49.2683 138.614 48.8033C138.212 48.1853 137.704 47.6428 137.114 47.2008C136.367 46.5958 135.44 45.9292 134.331 45.2008C133.223 44.4725 132.043 43.7225 130.791 42.9508C129.54 42.1858 128.29 41.3892 127.041 40.5608C125.865 39.793 124.734 38.9583 123.654 38.0608C122.525 37.1771 121.517 36.1501 120.654 35.0058C119.796 33.8742 119.112 32.6202 118.626 31.2858C118.137 29.9259 117.871 28.4958 117.839 27.0508C117.816 25.4481 118.061 23.8527 118.564 22.3308C118.988 20.7335 119.606 19.1944 120.406 17.7483C121.299 16.0949 122.334 14.5223 123.499 13.0483C124.69 11.5322 126.002 10.1158 127.424 8.81333C128.779 7.56128 130.247 6.43732 131.809 5.45583C132.393 5.03509 133.022 4.67964 133.684 4.39583C134.516 4.03632 135.39 3.7843 136.286 3.64583C137.326 3.48182 138.381 3.43153 139.431 3.49583C140.619 3.56793 141.794 3.78109 142.931 4.13083C144.812 4.80538 146.642 5.61413 148.406 6.55083C150.073 7.4038 151.627 8.4602 153.034 9.69583C153.765 10.3697 154.396 11.1441 154.909 11.9958C155.325 12.6983 155.641 13.4557 155.846 14.2458C156.024 14.9487 156.126 15.6687 156.149 16.3933C156.169 17.1 156.179 17.7558 156.179 18.3608C156.012 19.4108 155.79 20.6008 155.514 21.9308C155.237 23.2608 154.904 24.6117 154.514 25.9833C154.13 27.355 153.727 28.6658 153.304 29.9158C152.951 30.9958 152.517 32.0472 152.004 33.0608C151.52 33.8675 151.026 34.3817 150.521 34.6033C150.016 34.825 149.265 34.7067 148.266 34.2483C142.74 32.3933 140.199 29.7317 140.644 26.2633C140.744 25.4282 140.895 24.5999 141.096 23.7833C141.318 22.8567 141.54 21.9192 141.761 20.9708C141.983 20.0225 142.175 19.125 142.336 18.2783C142.49 17.6133 142.545 16.9293 142.499 16.2483C142.439 15.7483 142.237 15.4458 141.894 15.3408C141.55 15.2358 140.996 15.4675 140.231 16.0358C139.41 16.4968 138.648 17.0559 137.961 17.7008C137.101 18.4813 136.308 19.3335 135.591 20.2483C134.84 21.2023 134.182 22.2252 133.624 23.3033C133.077 24.3386 132.69 25.4502 132.474 26.6008C132.271 27.6827 132.291 28.7946 132.534 29.8683C132.803 30.9857 133.415 31.9909 134.284 32.7433C135.502 33.9118 136.817 34.974 138.216 35.9183C139.668 36.9067 141.11 37.865 142.541 38.7933C143.973 39.7217 145.324 40.6383 146.594 41.5433C147.75 42.3456 148.808 43.2794 149.749 44.3258C150.523 45.1735 151.065 46.207 151.321 47.3258C151.543 48.3758 151.331 49.505 150.686 50.7133C150.208 51.6809 149.641 52.6016 148.991 53.4633C148.18 54.5324 147.198 55.4614 146.086 56.2133C144.726 57.133 143.238 57.8466 141.669 58.3308C139.934 58.8958 137.856 59.1983 135.436 59.2383C132.174 59.3206 128.929 58.7247 125.909 57.4883C122.822 56.2383 119.645 54.0808 116.379 51.0158C114.604 49.5158 113.676 48.3667 113.596 47.5683C113.516 46.8033 113.9 46.22 114.746 45.8183C115.48 45.4903 116.254 45.2632 117.049 45.1433Z" fill="white"/>
<path d="M188.678 16.0752C186.821 16.2568 184.904 16.4485 182.928 16.6502L180.3 27.1752C179.394 30.8052 178.516 34.4052 177.668 37.9752C176.819 41.5452 176.023 45.0243 175.278 48.4127C174.531 51.801 173.875 54.9677 173.31 57.9127C173.229 58.4777 173.037 58.851 172.735 59.0327C172.351 59.2347 171.917 59.3216 171.485 59.2827C170.869 59.2458 170.26 59.1341 169.67 58.9502C168.984 58.7485 168.217 58.5268 167.37 58.2852C166.589 58.066 165.822 57.8031 165.07 57.4977C164.443 57.2517 163.86 56.9046 163.345 56.4702C162.896 56.0894 162.551 55.5996 162.345 55.0477C162.139 54.4108 162.118 53.7284 162.285 53.0802C162.405 51.1435 162.647 48.7635 163.01 45.9402C163.374 43.1168 163.807 40.1318 164.31 36.9852C164.81 33.8385 165.365 30.6618 165.975 27.4552C166.585 24.2485 167.19 21.2743 167.79 18.5327C166.624 18.7343 165.494 18.906 164.403 19.0477C163.484 19.1567 162.575 19.3287 161.68 19.5627C160.672 19.8043 159.845 19.8343 159.2 19.6527C158.555 19.471 157.829 18.9568 157.023 18.1102C156.097 17.1573 155.313 16.0773 154.693 14.9027C153.988 13.6127 153.413 12.5235 152.968 11.6352C152.484 10.7085 152.364 10.0935 152.605 9.79016C152.847 9.48682 153.351 9.23682 154.118 9.04016C156.498 8.55682 159.19 8.11349 162.195 7.71016C165.2 7.30682 168.265 6.94349 171.39 6.62016C174.515 6.29849 177.581 6.02599 180.588 5.80266C183.594 5.57932 186.287 5.42766 188.665 5.34766C189.915 5.34766 190.813 5.45849 191.358 5.68016C191.924 5.91903 192.415 6.3059 192.78 6.80016C193.579 7.71451 194.252 8.73191 194.78 9.82516C195.284 10.8504 195.691 11.92 195.998 13.0202C196.239 13.9485 196.249 14.5835 196.028 14.9252C195.806 15.2668 195.07 15.4785 193.82 15.5602C192.247 15.7218 190.533 15.8935 188.678 16.0752Z" fill="white"/>
<path d="M203.413 50.9501C202.948 53.2101 202.494 55.4284 202.051 57.6051C201.849 58.2501 201.576 58.6734 201.233 58.8751C200.89 59.0767 200.255 59.0767 199.328 58.8751C198.24 58.5917 197.271 58.3701 196.423 58.2101C195.579 58.0497 194.763 57.764 194.003 57.3626C193.323 57.0079 192.772 56.4469 192.431 55.7601C192.149 55.1351 192.048 54.3017 192.128 53.2601C192.21 52.4134 192.321 51.1834 192.461 49.5701C192.601 47.9567 192.772 46.1317 192.976 44.0951C193.179 42.0584 193.411 39.8701 193.671 37.5301C193.931 35.1901 194.213 32.8459 194.518 30.4976C194.82 28.1642 195.153 25.8951 195.518 23.6901C195.883 21.4851 196.266 19.5084 196.668 17.7601C196.989 16.2751 197.435 14.8199 198.001 13.4101C198.486 12.2601 198.99 11.5442 199.513 11.2626C202.013 10.1342 204.625 9.02506 207.348 7.93506C209.943 6.88267 212.64 6.10184 215.396 5.60506C217.871 5.14451 220.407 5.10394 222.896 5.48506C225.245 5.86412 227.415 6.97527 229.096 8.66007C230.509 10.1953 231.795 11.8442 232.938 13.5901C234.088 15.3451 234.986 17.4926 235.631 20.0326C236.154 22.7359 235.952 24.9542 235.026 26.6876C233.612 29.4709 231.279 32.0317 228.026 34.3701C224.772 36.7084 220.89 38.8867 216.378 40.9051C217.305 41.9551 218.323 43.0642 219.433 44.2326C220.543 45.4009 221.682 46.5676 222.851 47.7326C224.017 48.8992 225.176 50.0284 226.328 51.1201C227.48 52.2117 228.559 53.1592 229.566 53.9626C230.372 54.6492 230.736 55.1934 230.656 55.5951C230.576 55.9967 230.232 56.4201 229.626 56.8651C228.899 57.4301 228.284 57.7634 227.781 57.8651C227.277 57.9667 226.662 58.0776 225.936 58.1976C224.978 58.4448 223.984 58.5168 223.001 58.4101C221.931 58.3084 220.691 57.8342 219.281 56.9876C218.352 56.3426 217.283 55.5359 216.073 54.5676C214.863 53.5992 213.613 52.5301 212.323 51.3601C211.031 50.1934 209.741 48.9734 208.451 47.7001C207.213 46.4853 206.045 45.2025 204.951 43.8576C204.389 46.3276 203.876 48.6917 203.413 50.9501ZM209.553 25.9026C208.948 28.2359 208.262 30.7359 207.496 33.4026C210.093 32.5657 212.581 31.4226 214.908 29.9976C216.848 28.8128 218.662 27.4341 220.323 25.8826C221.775 24.4909 222.823 23.1701 223.468 21.9201C224.113 20.6701 224.315 19.6959 224.073 18.9976C223.59 17.8692 222.158 17.3042 219.778 17.3026C218.476 17.3239 217.179 17.473 215.906 17.7476C214.352 18.0793 212.848 18.6077 211.428 19.3201C210.783 21.3701 210.158 23.5642 209.553 25.9026Z" fill="white"/>
<path d="M253.018 47.8362C250.339 48.196 247.683 48.711 245.063 49.3787C244.256 50.9521 243.551 52.4137 242.946 53.7637C242.341 55.1137 241.757 56.4346 241.196 57.7262C240.872 58.4112 240.479 58.8146 240.016 58.9362C239.552 59.0579 238.856 58.9571 237.928 58.6337C237.403 58.4321 236.828 58.2004 236.203 57.9387C235.578 57.6771 234.943 57.3846 234.298 57.0612C233.815 56.7396 233.391 56.4671 233.028 56.2437C232.663 56.0401 232.361 55.7411 232.153 55.3786C231.945 55.0162 231.84 54.604 231.848 54.1862C231.856 53.4975 231.968 52.814 232.181 52.1587C233.149 49.3754 234.41 46.1087 235.963 42.3587C237.516 38.6087 239.189 34.7387 240.981 30.7487C242.774 26.7487 244.607 22.8062 246.481 18.9212C248.354 15.0362 250.139 11.5779 251.836 8.54622C252.41 7.49138 253.217 6.58095 254.196 5.88373C255.164 5.19873 256.596 4.93623 258.491 5.09623C260.144 5.17789 261.616 5.30872 262.908 5.48872C264.2 5.66872 265.38 5.88039 266.448 6.12373C267.516 6.36539 268.505 6.62789 269.413 6.91123C270.321 7.19456 271.238 7.45706 272.163 7.69872C273.413 8.14372 274.21 8.72706 274.553 9.44872C274.896 10.1704 275.007 11.1179 274.886 12.2912C274.644 15.1562 274.442 18.4437 274.281 22.1537C274.119 25.8637 273.998 29.7354 273.918 33.7687C273.836 37.8021 273.786 41.8454 273.768 45.8987C273.75 49.9521 273.76 53.7129 273.798 57.1812C273.798 57.9079 273.646 58.4121 273.343 58.6937C273.04 58.9754 272.364 59.1162 271.316 59.1162C270.266 59.1162 269.297 59.0862 268.411 59.0262C267.482 58.9568 266.566 58.7634 265.688 58.4512C264.72 58.1679 264.044 57.8046 263.661 57.3612C263.277 56.9179 263.005 56.1312 262.843 55.0012C262.676 53.8346 262.536 52.5537 262.421 51.1587C262.306 49.7637 262.185 48.2412 262.058 46.5912C259.036 46.9979 256.023 47.4129 253.018 47.8362ZM255.983 37.3987C257.816 37.1971 259.661 37.0354 261.518 36.9137C261.436 33.6071 261.376 30.3096 261.336 27.0212C261.296 23.7329 261.316 20.4754 261.398 17.2487C259.785 20.1937 258.041 23.4504 256.166 27.0187C254.291 30.5871 252.401 34.2896 250.498 38.1262C252.32 37.8446 254.148 37.6021 255.983 37.3987Z" fill="white"/>
<path d="M338.234 23.4857C337.104 27.2373 335.985 31.089 334.876 35.0407C333.768 38.9923 332.699 42.9248 331.669 46.8382C330.641 50.7515 329.724 54.3815 328.919 57.7282C328.919 58.2932 328.767 58.6665 328.464 58.8482C328.08 59.0503 327.646 59.1371 327.214 59.0982C326.59 59.0619 325.972 58.9605 325.369 58.7957C324.662 58.614 323.906 58.4223 323.101 58.2207C321.446 57.7373 320.156 57.1423 319.229 56.4357C318.302 55.729 318.02 54.6498 318.381 53.1982C318.548 51.7465 318.79 50.0723 319.106 48.1757C319.423 46.279 319.806 44.1615 320.256 41.8232C318.563 42.0648 316.896 42.2965 315.256 42.5182C313.616 42.7398 311.95 42.9898 310.256 43.2682C309.611 46.0515 309.087 48.6632 308.684 51.1032C308.281 53.5432 307.917 55.7315 307.594 57.6682C307.427 58.3532 307.177 58.7965 306.844 58.9982C306.511 59.1998 305.815 59.1798 304.756 58.9382C303.748 58.6548 302.71 58.3723 301.641 58.0907C300.68 57.8511 299.756 57.4846 298.891 57.0007C297.965 56.5573 297.298 56.0432 296.891 55.4582C296.485 54.8732 296.401 54.0565 296.641 53.0082C297.246 50.2248 297.811 46.9748 298.336 43.2582C298.861 39.5415 299.366 35.6698 299.849 31.6432C300.332 27.6098 300.806 23.5865 301.271 19.5732C301.736 15.5598 302.211 11.859 302.694 8.47068C303.016 7.18068 303.48 6.41401 304.086 6.17068C304.693 5.92734 305.581 6.02818 306.749 6.47318C308.16 6.87952 309.545 7.37468 310.894 7.95568C312.24 8.51642 313.53 9.20103 314.749 10.0007C315.257 10.293 315.734 10.6373 316.171 11.0282C316.475 11.2995 316.721 11.6283 316.896 11.9957C317.04 12.3399 317.092 12.7155 317.046 13.0857C316.992 13.5546 316.909 14.0197 316.796 14.4782C316.15 16.7765 315.474 19.479 314.769 22.5857L312.501 32.5682C314.195 32.3665 315.861 32.2048 317.501 32.0832C319.141 31.9615 320.725 31.8407 322.251 31.7207C323.251 27.4457 324.23 23.2007 325.186 18.9857C326.143 14.7707 327.081 10.9465 327.999 7.51318C328.362 6.22318 328.876 5.48734 329.541 5.30568C330.206 5.12401 331.164 5.21484 332.414 5.57818C333.66 5.92954 334.874 6.38446 336.044 6.93818C337.276 7.51384 338.469 8.17113 339.614 8.90568C340.662 9.67234 341.297 10.339 341.519 10.9057C341.741 11.4723 341.69 12.279 341.366 13.3257C340.406 16.349 339.362 19.7357 338.234 23.4857Z" fill="white"/>
<path d="M357.382 11.9977C357.604 12.5627 357.574 13.3893 357.292 14.4777C356.727 16.2927 356.112 18.3702 355.447 20.7102C354.782 23.0502 354.116 25.521 353.447 28.1227C352.781 30.7243 352.125 33.386 351.48 36.1077C350.835 38.8293 350.21 41.491 349.605 44.0927C349 46.6943 348.446 49.1543 347.942 51.4727C347.439 53.791 347.006 55.8577 346.642 57.6727C346.439 58.3577 346.166 58.801 345.825 59.0027C345.483 59.2043 344.787 59.1843 343.737 58.9427C342.687 58.6593 341.687 58.3768 340.737 58.0952C339.806 57.8201 338.905 57.4551 338.045 57.0052C337.118 56.5618 336.503 56.0477 336.2 55.4627C335.896 54.8777 335.806 54.061 335.927 53.0127C336.009 51.601 336.181 49.776 336.442 47.5377C336.704 45.2993 337.026 42.8493 337.41 40.1877C337.793 37.521 338.226 34.7177 338.71 31.7777C339.193 28.8377 339.687 25.9535 340.192 23.1252C340.692 20.3018 341.206 17.6293 341.735 15.1077C342.263 12.586 342.747 10.3777 343.187 8.48267C343.551 7.316 344.045 6.60017 344.67 6.33517C345.295 6.07017 346.232 6.12017 347.482 6.48517C348.87 6.858 350.226 7.34378 351.535 7.93767C352.864 8.51538 354.142 9.2045 355.355 9.99767C356.483 10.761 357.159 11.4277 357.382 11.9977Z" fill="white"/>
<path d="M354.688 45.1426C355.488 45.0225 356.299 44.9823 357.108 45.0226C357.897 45.0602 358.679 45.192 359.438 45.4151C360.157 45.6246 360.84 45.9406 361.465 46.3526C364.894 48.4909 367.879 49.8626 370.42 50.4676C372.962 51.0726 374.795 50.9109 375.92 49.9826C376.404 49.6609 376.514 49.2676 376.253 48.8026C375.851 48.1845 375.343 47.6421 374.753 47.2001C374.006 46.5951 373.079 45.9284 371.97 45.2001C370.862 44.4717 369.682 43.7217 368.43 42.9501C367.179 42.1851 365.929 41.3884 364.68 40.5601C363.504 39.7922 362.373 38.9575 361.293 38.0601C360.164 37.1763 359.156 36.1494 358.293 35.0051C357.435 33.8734 356.751 32.6195 356.265 31.285C355.776 29.9251 355.51 28.495 355.478 27.0501C355.454 25.4473 355.699 23.8519 356.203 22.3301C356.626 20.7327 357.245 19.1936 358.045 17.7476C358.936 16.0987 359.968 14.5304 361.13 13.0601C362.323 11.5436 363.639 10.1272 365.063 8.82505C366.418 7.573 367.886 6.44904 369.448 5.46755C370.032 5.04681 370.661 4.69135 371.323 4.40755C372.155 4.04804 373.029 3.79601 373.925 3.65755C374.965 3.49354 376.02 3.44325 377.07 3.50755C378.258 3.57965 379.433 3.79281 380.57 4.14255C382.451 4.8171 384.28 5.62584 386.045 6.56255C387.712 7.41552 389.266 8.47192 390.673 9.70755C391.404 10.3814 392.035 11.1558 392.548 12.0076C392.964 12.71 393.279 13.4674 393.485 14.2576C393.663 14.9604 393.764 15.6804 393.788 16.405C393.808 17.1117 393.818 17.7675 393.818 18.3726C393.651 19.4225 393.429 20.6126 393.153 21.9426C392.876 23.2726 392.543 24.6234 392.153 25.9951C391.769 27.3667 391.366 28.6776 390.943 29.9276C390.59 31.0075 390.156 32.0589 389.643 33.0726C389.159 33.8792 388.665 34.3934 388.16 34.6151C387.655 34.8367 386.899 34.7259 385.893 34.2826C380.366 32.4276 377.825 29.7659 378.27 26.2976C378.37 25.4624 378.521 24.6342 378.723 23.8176C378.944 22.8909 379.166 21.9534 379.388 21.0051C379.609 20.0567 379.801 19.1592 379.963 18.3126C380.113 17.6478 380.164 16.9647 380.115 16.2851C380.055 15.7851 379.854 15.4825 379.51 15.3775C379.167 15.2725 378.613 15.5042 377.848 16.0726C377.026 16.5335 376.264 17.0926 375.578 17.7375C374.726 18.507 373.941 19.3467 373.23 20.2476C372.479 21.2015 371.821 22.2244 371.263 23.3026C370.716 24.3378 370.328 25.4494 370.113 26.6001C369.91 27.6819 369.93 28.7938 370.173 29.8676C370.442 30.9849 371.054 31.9901 371.923 32.7425C373.141 33.911 374.456 34.9732 375.855 35.9175C377.307 36.9059 378.749 37.8642 380.18 38.7925C381.612 39.7209 382.963 40.6375 384.233 41.5425C385.385 42.3455 386.44 43.2792 387.378 44.3251C388.152 45.1728 388.693 46.2062 388.95 47.3251C389.172 48.3751 388.96 49.5042 388.315 50.7126C387.837 51.6801 387.27 52.6008 386.62 53.4626C385.808 54.5317 384.827 55.4606 383.715 56.2126C382.355 57.1322 380.866 57.8458 379.298 58.3301C377.563 58.8951 375.485 59.1976 373.065 59.2376C369.802 59.3198 366.558 58.7239 363.538 57.4876C360.451 56.2376 357.274 54.0801 354.008 51.0151C352.233 49.5151 351.305 48.3659 351.225 47.5676C351.145 46.8026 351.529 46.2192 352.375 45.8176C353.112 45.4886 353.89 45.2616 354.688 45.1426Z" fill="white"/>
<path d="M426.323 16.0727C424.467 16.2543 422.55 16.446 420.573 16.6477L417.941 27.1752C417.034 30.8052 416.157 34.4052 415.308 37.9752C414.46 41.5452 413.663 45.0243 412.918 48.4127C412.172 51.801 411.516 54.9677 410.951 57.9127C410.869 58.4777 410.678 58.851 410.376 59.0327C409.992 59.2347 409.558 59.3216 409.126 59.2827C408.51 59.2458 407.9 59.1341 407.311 58.9502C406.624 58.7485 405.858 58.5268 405.011 58.2852C404.23 58.066 403.462 57.8031 402.711 57.4977C402.084 57.2517 401.501 56.9046 400.986 56.4702C400.536 56.0894 400.192 55.5996 399.986 55.0477C399.779 54.4108 399.759 53.7284 399.926 53.0802C400.046 51.1435 400.287 48.7635 400.651 45.9402C401.014 43.1168 401.448 40.1318 401.951 36.9852C402.451 33.8385 403.006 30.6618 403.616 27.4552C404.226 24.2485 404.831 21.2743 405.431 18.5327C404.264 18.7343 403.135 18.906 402.043 19.0477C401.125 19.1567 400.215 19.3287 399.321 19.5627C398.313 19.8043 397.486 19.8343 396.841 19.6527C396.196 19.471 395.47 18.9568 394.663 18.1102C393.738 17.1573 392.953 16.0773 392.333 14.9027C391.628 13.6127 391.053 12.5235 390.608 11.6352C390.125 10.7085 390.004 10.0935 390.246 9.79016C390.487 9.48682 390.992 9.23682 391.758 9.04016C394.138 8.55682 396.831 8.11349 399.836 7.71016C402.841 7.30682 405.906 6.94349 409.031 6.62016C412.156 6.29849 415.222 6.02599 418.228 5.80266C421.235 5.57932 423.927 5.42766 426.306 5.34766C427.556 5.34766 428.453 5.45849 428.998 5.68016C429.564 5.91903 430.056 6.3059 430.421 6.80016C431.22 7.71451 431.892 8.73191 432.421 9.82516C432.922 10.8547 433.327 11.9284 433.631 13.0327C433.873 13.961 433.883 14.596 433.661 14.9377C433.439 15.2793 432.703 15.491 431.453 15.5727C429.888 15.7243 428.178 15.891 426.323 16.0727Z" fill="white"/>
<path d="M467.732 14.1961C468.472 15.6968 468.992 17.2967 469.274 18.9461C469.726 22.1221 469.827 25.338 469.577 28.5361C469.329 32.0157 468.731 35.4615 467.792 38.8211C466.867 42.1727 465.568 45.4096 463.919 48.4711C462.385 51.3693 460.347 53.9708 457.899 56.1536C456.404 57.3417 454.671 58.1943 452.817 58.6536C451.042 59.077 449.005 59.1678 446.707 58.9261C445.122 58.7581 443.548 58.5077 441.989 58.1761C440.455 57.8618 438.969 57.343 437.572 56.6336C436.425 56.0303 435.349 55.2999 434.364 54.4561C433.353 53.6148 432.511 52.5881 431.884 51.4311C430.871 49.4446 430.138 47.3268 429.707 45.1386C429.215 42.7104 428.992 40.2356 429.042 37.7586C429.15 32.3464 430.3 27.0056 432.429 22.0286C433.518 19.4869 434.866 17.0641 436.452 14.7986C438.039 12.5307 439.903 10.4691 441.999 8.66114C443.512 7.52251 445.226 6.68097 447.052 6.18114C448.859 5.62605 450.766 5.47834 452.637 5.74864C454.876 6.09671 457.075 6.66445 459.202 7.44364C461.062 8.09223 462.808 9.03137 464.374 10.2261C465.906 11.4828 467.025 12.8061 467.732 14.1961ZM451.789 17.3411C450.573 18.5416 449.516 19.8935 448.644 21.3636C447.533 23.1773 446.552 25.068 445.709 27.0211C444.846 28.9786 444.109 30.9894 443.502 33.0411C442.931 34.9688 442.526 36.9418 442.292 38.9386C442.053 40.8244 441.97 42.7267 442.042 44.6261C442.081 46.1619 442.368 47.6813 442.889 49.1261C443.374 50.3761 444.08 51.1428 445.007 51.4261C445.854 51.7095 446.741 51.5278 447.669 50.8811C448.598 50.2345 449.525 49.2461 450.452 47.9161C451.499 46.3722 452.383 44.7243 453.092 42.9986C453.958 40.9247 454.676 38.7919 455.239 36.6161C455.796 34.562 456.22 32.4744 456.509 30.3661C456.82 28.2526 456.982 26.1199 456.994 23.9836C457.026 22.2419 456.833 20.5034 456.419 18.8111C456.036 17.3795 455.441 16.5461 454.634 16.3111C453.786 16.0111 452.838 16.3553 451.789 17.3436V17.3411Z" fill="white"/>
<path d="M481.886 50.9512C481.421 53.2112 480.967 55.4295 480.523 57.6062C480.322 58.2512 480.049 58.6745 479.706 58.8762C479.362 59.0778 478.727 59.0778 477.801 58.8762C476.712 58.5928 475.744 58.3712 474.896 58.2112C474.051 58.0508 473.236 57.7651 472.476 57.3637C471.796 57.0089 471.245 56.448 470.903 55.7612C470.622 55.1362 470.521 54.3028 470.601 53.2612C470.682 52.4145 470.793 51.1845 470.933 49.5712C471.073 47.9578 471.245 46.1328 471.448 44.0962C471.652 42.0595 471.883 39.8712 472.143 37.5312C472.403 35.1912 472.688 32.847 472.998 30.4987C473.3 28.1653 473.633 25.8962 473.998 23.6912C474.363 21.4862 474.747 19.5095 475.148 17.7612C475.468 16.2746 475.913 14.8177 476.478 13.4062C476.963 12.2562 477.467 11.5403 477.991 11.2587C480.491 10.1303 483.102 9.02116 485.826 7.93116C488.421 6.87877 491.118 6.09794 493.873 5.60116C496.349 5.1406 498.884 5.10003 501.373 5.48116C503.723 5.86022 505.892 6.97136 507.573 8.65616C508.987 10.1914 510.272 11.8403 511.416 13.5862C512.566 15.3412 513.463 17.4887 514.108 20.0287C514.632 22.732 514.43 24.9503 513.503 26.6837C512.09 29.467 509.757 32.0278 506.503 34.3662C503.25 36.7045 499.367 38.8828 494.856 40.9012C495.782 41.9512 496.801 43.0603 497.911 44.2287C499.021 45.397 500.16 46.5637 501.328 47.7287C502.495 48.8953 503.654 50.0245 504.806 51.1162C505.957 52.2078 507.037 53.1553 508.043 53.9587C508.85 54.6453 509.213 55.1895 509.133 55.5912C509.053 55.9928 508.71 56.4162 508.103 56.8612C507.377 57.4262 506.762 57.7595 506.258 57.8612C505.755 57.9628 505.14 58.0737 504.413 58.1937C503.456 58.4409 502.461 58.5129 501.478 58.4062C500.408 58.3045 499.168 57.8303 497.758 56.9837C496.83 56.3387 495.761 55.532 494.551 54.5637C493.341 53.5953 492.091 52.5262 490.801 51.3562C489.509 50.1895 488.218 48.9695 486.928 47.6962C485.691 46.4814 484.523 45.1986 483.428 43.8537C482.863 46.327 482.349 48.6928 481.886 50.9512ZM488.026 25.9037C487.421 28.237 486.735 30.737 485.968 33.4037C488.566 32.5669 491.055 31.4239 493.383 29.9987C495.323 28.8139 497.137 27.4352 498.798 25.8837C500.25 24.492 501.298 23.1712 501.943 21.9212C502.588 20.6712 502.79 19.697 502.548 18.9987C502.065 17.8703 500.633 17.3053 498.253 17.3037C496.951 17.325 495.654 17.474 494.381 17.7487C492.827 18.0804 491.323 18.6088 489.903 19.3212C489.258 21.3712 488.633 23.5653 488.028 25.9037H488.026Z" fill="white"/>
<path d="M532.999 11.9977C533.221 12.5627 533.191 13.3893 532.909 14.4777C532.344 16.2927 531.729 18.3702 531.064 20.7102C530.399 23.0502 529.733 25.521 529.064 28.1227C528.398 30.7243 527.743 33.386 527.099 36.1077C526.456 38.8293 525.831 41.491 525.224 44.0927C524.619 46.6943 524.064 49.1543 523.559 51.4727C523.054 53.791 522.621 55.8577 522.259 57.6727C522.058 58.3577 521.785 58.801 521.442 59.0027C521.099 59.2043 520.403 59.1843 519.354 58.9427C518.304 58.6593 517.304 58.3768 516.354 58.0952C515.424 57.8202 514.522 57.4551 513.662 57.0052C512.735 56.5618 512.12 56.0477 511.817 55.4627C511.514 54.8777 511.423 54.061 511.544 53.0127C511.626 51.601 511.798 49.776 512.059 47.5377C512.321 45.2993 512.644 42.8493 513.027 40.1877C513.41 37.521 513.844 34.7177 514.327 31.7777C514.81 28.8377 515.304 25.9535 515.809 23.1252C516.309 20.3018 516.824 17.6293 517.352 15.1077C517.88 12.586 518.364 10.3777 518.804 8.48267C519.168 7.316 519.662 6.60017 520.287 6.33517C520.912 6.07017 521.849 6.12017 523.099 6.48517C524.488 6.85798 525.843 7.34376 527.152 7.93767C528.485 8.51487 529.766 9.20401 530.982 9.99767C532.112 10.761 532.784 11.4277 532.999 11.9977Z" fill="white"/>
<path d="M549.225 47.8362C546.546 48.196 543.89 48.711 541.27 49.3787C540.464 50.9521 539.758 52.4137 539.153 53.7637C538.548 55.1137 537.964 56.4346 537.403 57.7262C537.079 58.4112 536.686 58.8146 536.223 58.9362C535.759 59.0579 535.064 58.9571 534.135 58.6337C533.61 58.4321 533.035 58.2004 532.41 57.9387C531.785 57.6771 531.15 57.3846 530.505 57.0612C530.022 56.7396 529.598 56.4671 529.235 56.2437C528.87 56.0401 528.568 55.7411 528.36 55.3786C528.152 55.0162 528.047 54.604 528.055 54.1862C528.063 53.4975 528.175 52.814 528.388 52.1587C529.356 49.3754 530.617 46.1087 532.17 42.3587C533.723 38.6087 535.395 34.7387 537.185 30.7487C538.979 26.7487 540.812 22.8062 542.685 18.9212C544.559 15.0362 546.343 11.5779 548.04 8.54622C548.615 7.49138 549.422 6.58095 550.4 5.88373C551.369 5.19873 552.8 4.93623 554.695 5.09623C556.349 5.17789 557.821 5.30872 559.113 5.48872C560.404 5.66872 561.584 5.88039 562.653 6.12373C563.721 6.36539 564.709 6.62789 565.618 6.91123C566.526 7.19456 567.443 7.45706 568.368 7.69872C569.618 8.14372 570.414 8.72706 570.758 9.44872C571.101 10.1704 571.212 11.1179 571.09 12.2912C570.849 15.1562 570.647 18.4437 570.485 22.1537C570.323 25.8637 570.203 29.7354 570.123 33.7687C570.041 37.8021 569.991 41.8454 569.973 45.8987C569.954 49.9521 569.964 53.7129 570.003 57.1812C570.003 57.9079 569.851 58.4121 569.548 58.6937C569.244 58.9754 568.569 59.1162 567.52 59.1162C566.47 59.1162 565.502 59.0862 564.615 59.0262C563.686 58.9568 562.77 58.7634 561.893 58.4512C560.924 58.1679 560.248 57.8046 559.865 57.3612C559.482 56.9179 559.209 56.1312 559.048 55.0012C558.881 53.8346 558.74 52.5537 558.625 51.1587C558.51 49.7637 558.389 48.2412 558.263 46.5912C555.243 46.9979 552.23 47.4129 549.225 47.8362ZM552.19 37.3987C554.024 37.1971 555.868 37.0354 557.725 36.9137C557.643 33.6071 557.583 30.3096 557.543 27.0212C557.503 23.7329 557.523 20.4762 557.603 17.2512C555.989 20.1962 554.245 23.4529 552.37 27.0212C550.495 30.5896 548.609 34.2904 546.713 38.1237C548.529 37.8437 550.355 37.6021 552.19 37.3987Z" fill="white"/>
<path d="M34.6536 20.1363C35.8436 15.0146 37.0236 10.2955 38.1936 5.9788C38.5153 4.81213 39.0095 4.0863 39.6761 3.8013C40.3428 3.5163 41.3211 3.5363 42.6111 3.8613C43.2161 4.02796 43.7603 4.1688 44.2436 4.2838C44.7303 4.40609 45.2061 4.56831 45.6661 4.7688C46.1295 4.97046 46.6236 5.21213 47.1486 5.4938C47.6736 5.77546 48.2786 6.1388 48.9636 6.5838C50.1303 7.31046 50.7861 8.0463 50.9311 8.7913C51.0761 9.5363 50.9853 10.4338 50.6586 11.4838C49.7286 14.4688 48.7586 17.8571 47.7486 21.6488C46.7386 25.4405 45.7386 29.2921 44.7486 33.2038C43.7603 37.1171 42.8128 40.9388 41.9061 44.6688C40.9995 48.3988 40.2261 51.6755 39.5861 54.4988C39.3445 56.0305 38.1345 56.5546 35.9561 56.0713C34.0242 55.6877 32.1232 55.1621 30.2686 54.4988C29.4236 54.1911 28.6529 53.7089 28.0068 53.0834C27.3607 52.458 26.8536 51.7034 26.5186 50.8688C25.9536 49.6188 25.3786 48.1671 24.7936 46.5138C24.2086 44.8605 23.6103 43.0755 22.9986 41.1588C22.3936 39.2438 21.7886 37.2438 21.1836 35.1588C20.5786 33.0738 20.0136 30.9905 19.4886 28.9088C19.0436 31.4088 18.5895 33.9088 18.1261 36.4088L16.7961 43.5788C16.3728 45.8588 15.9895 47.9763 15.6461 49.9313C15.3028 51.8863 15.0303 53.5905 14.8286 55.0438C14.662 55.7288 14.3995 56.1621 14.0411 56.3438C13.6828 56.5255 12.977 56.4755 11.9236 56.1938C10.9553 55.9521 9.97697 55.7021 8.98864 55.4438C7.9757 55.1683 7.00811 54.7473 6.11614 54.1938C5.22947 53.7505 4.63447 53.2363 4.33114 52.6513C4.02781 52.0663 3.91697 51.2505 3.99864 50.2038C4.08031 49.1155 4.21114 47.563 4.39114 45.5463C4.57114 43.5296 4.81281 41.2405 5.11614 38.6788C5.41781 36.1171 5.76031 33.3746 6.14364 30.4513C6.52697 27.528 6.94364 24.6113 7.39364 21.7013C7.84197 18.803 8.29364 16.0021 8.74864 13.2988C9.20364 10.5955 9.65697 8.19546 10.1086 6.0988C10.3903 4.8888 10.8903 4.13213 11.6086 3.8288C12.327 3.52546 13.3153 3.53546 14.5736 3.8588C16.0736 4.3038 17.5253 4.74713 18.9286 5.1888C20.4394 5.67059 21.9153 6.25529 23.3461 6.9388C24.5961 7.4638 25.4836 8.11963 26.0086 8.9063C26.5336 9.69296 26.917 10.853 27.1586 12.3863C27.3603 13.553 27.6228 15.0455 27.9461 16.8638C28.2695 18.6821 28.6328 20.6488 29.0361 22.7638C29.4395 24.8805 29.8628 27.0588 30.3061 29.2988C30.7495 31.5388 31.2003 33.6888 31.6586 35.7488C32.4653 30.4621 33.4636 25.258 34.6536 20.1363Z" fill="#6FD5CA"/>
<path d="M47.1189 44.3064C46.7204 42.1824 46.5278 40.0249 46.5439 37.8639C46.554 35.3755 46.7159 32.89 47.0289 30.4214C47.3522 27.7997 47.7756 25.1381 48.2989 22.4364C48.8222 19.7347 49.4172 17.0222 50.0839 14.2989C50.7506 11.5756 51.4464 8.92389 52.1714 6.34389C52.4931 5.17722 52.9672 4.47139 53.5939 4.22639C54.2206 3.98139 55.1789 4.08222 56.4689 4.52889C57.6683 4.88792 58.8329 5.35396 59.9489 5.92139C61.0795 6.50105 62.162 7.16983 63.1864 7.92139C65.3647 9.49472 66.1147 11.5114 65.4364 13.9714C64.7914 16.0697 64.1156 18.3389 63.4089 20.7789C62.7022 23.2189 62.0472 25.6897 61.4439 28.1914C60.8389 30.6914 60.3247 33.1314 59.9014 35.5114C59.5087 37.6309 59.2458 39.7724 59.1139 41.9239C59.0122 43.8206 59.1131 45.3939 59.4164 46.6439C59.7197 47.8939 60.3147 48.6439 61.2014 48.8939C62.2897 49.1772 63.3589 48.6531 64.4089 47.3214C65.4589 45.9897 66.4589 44.1447 67.4089 41.7864C68.4637 39.105 69.3725 36.3685 70.1314 33.5889C70.9981 30.4839 71.8047 27.2872 72.5514 23.9989C73.2981 20.7106 73.9739 17.4739 74.5789 14.2889C75.1689 11.0956 75.7056 8.24889 76.1889 5.74889C76.2689 4.53889 76.7122 3.81306 77.5189 3.57139C78.3256 3.32972 79.3039 3.35972 80.4539 3.66139C81.7316 4.0142 82.9685 4.50108 84.1439 5.11389C85.4539 5.78056 86.6539 6.43639 87.7439 7.08139C88.2105 7.3691 88.6461 7.70421 89.0439 8.08139C89.3187 8.3389 89.5359 8.65156 89.6814 8.99889C89.8037 9.33798 89.8448 9.70104 89.8014 10.0589C89.7453 10.5168 89.6618 10.971 89.5514 11.4189C88.3514 17.1906 87.1347 22.4856 85.9014 27.3039C84.8219 31.6338 83.5201 35.9053 82.0014 40.1014C80.6297 43.8131 79.1372 46.9189 77.5239 49.4189C75.9106 51.9189 74.1156 53.7339 72.1389 54.8639C70.7974 55.5258 69.373 56.0043 67.9039 56.2864C66.3056 56.5575 64.6798 56.6289 63.0639 56.4989C59.4339 56.2572 56.4489 55.4906 54.1089 54.1989C53.096 53.6304 52.1436 52.9603 51.2664 52.1989C50.343 51.3897 49.5651 50.4283 48.9664 49.3564C48.0625 47.7929 47.4373 46.0841 47.1189 44.3064Z" fill="#6FD5CA"/>
<path d="M97.2713 5.86083C99.3879 5.37749 101.606 4.93416 103.926 4.53083C106.246 4.12749 108.626 3.77416 111.066 3.47082C113.506 3.16916 115.936 2.97749 118.356 2.89583C120.655 2.85583 122.127 3.74332 122.774 5.55833C123.242 6.38878 123.608 7.27267 123.864 8.19082C124.065 8.97749 124.267 9.83499 124.469 10.7633C124.635 11.8133 124.552 12.5192 124.219 12.8808C123.885 13.2425 123.135 13.505 121.969 13.6683C119.549 13.9517 117.049 14.2342 114.469 14.5158C111.889 14.7975 109.166 15.14 106.301 15.5433C105.706 17.3483 105.146 19.2325 104.621 21.1958C104.096 23.1592 103.513 25.2058 102.871 27.3358C104.081 27.1692 105.291 27.0483 106.501 26.9733C107.711 26.8983 109.002 26.8375 110.374 26.7908C111.502 26.7508 112.39 26.8517 113.036 27.0933C113.683 27.335 114.227 27.8592 114.669 28.6658C115.128 29.4194 115.503 30.2208 115.789 31.0558C116.05 31.8425 116.282 32.6392 116.484 33.4458C116.805 34.3742 116.835 34.9992 116.574 35.3208C116.312 35.6425 115.616 35.925 114.486 36.1683C112.066 36.6133 109.596 37.0367 107.076 37.4383C104.556 37.84 102.126 38.2833 99.7863 38.7683C99.4629 40.06 99.1604 41.28 98.8788 42.4283C98.5971 43.5767 98.2946 44.7158 97.9713 45.8458C99.8663 45.5242 101.671 45.2617 103.386 45.0583C105.101 44.855 106.967 44.6933 108.984 44.5733C110.112 44.4933 110.99 44.5767 111.616 44.8233C112.297 45.1154 112.861 45.6266 113.219 46.2758C113.66 46.9961 114.035 47.755 114.339 48.5433C114.6 49.25 114.893 49.9658 115.216 50.6908C115.418 51.4975 115.418 52.0517 115.216 52.3533C115.015 52.655 114.37 52.905 113.281 53.1033C110.7 53.5867 108.078 54.0908 105.416 54.6158C102.755 55.1408 100.214 55.625 97.7938 56.0683C96.1804 56.4717 94.9605 56.5625 94.1338 56.3408C93.3718 56.1471 92.6464 55.8305 91.9863 55.4033C91.2946 54.9683 90.6321 54.5167 89.9988 54.0483C89.3655 53.58 88.6338 52.9808 87.8038 52.2508C87.1342 51.705 86.588 51.0233 86.2013 50.2508C85.8038 49.386 85.6474 48.4297 85.7488 47.4833L91.4988 7.25082C93.2288 6.80749 95.1529 6.34416 97.2713 5.86083Z" fill="#6FD5CA"/>
<path d="M120.049 42.6433C120.849 42.5233 121.66 42.4831 122.469 42.5233C123.258 42.561 124.041 42.6928 124.799 42.9158C125.518 43.1254 126.201 43.4414 126.826 43.8533C130.255 45.9917 133.24 47.3633 135.781 47.9683C138.323 48.5733 140.156 48.4117 141.281 47.4833C141.765 47.1617 141.875 46.7683 141.614 46.3033C141.212 45.6853 140.704 45.1428 140.114 44.7008C139.367 44.0958 138.44 43.4292 137.331 42.7008C136.223 41.9725 135.043 41.2225 133.791 40.4508C132.541 39.6858 131.291 38.8892 130.041 38.0608C128.865 37.293 127.734 36.4583 126.654 35.5608C125.525 34.6771 124.517 33.6501 123.654 32.5058C122.796 31.3742 122.112 30.1203 121.626 28.7858C121.137 27.426 120.871 25.9958 120.839 24.5508C120.815 22.9481 121.06 21.3527 121.564 19.8308C121.987 18.2281 122.607 16.6839 123.409 15.2333C124.301 13.5851 125.335 12.0175 126.499 10.5483C127.692 9.03184 129.007 7.61545 130.431 6.31333C131.786 5.06128 133.254 3.93732 134.816 2.95583C135.401 2.53509 136.029 2.17964 136.691 1.89583C137.523 1.5363 138.398 1.28427 139.294 1.14583C140.334 0.981823 141.388 0.931527 142.439 0.995832C143.627 1.06793 144.801 1.28109 145.939 1.63083C147.819 2.30537 149.649 3.11412 151.414 4.05083C153.08 4.90382 154.635 5.96022 156.041 7.19583C156.772 7.86987 157.403 8.64427 157.916 9.49583C158.333 10.1982 158.648 10.9556 158.854 11.7458C159.032 12.4487 159.133 13.1687 159.156 13.8933C159.176 14.6 159.186 15.2558 159.186 15.8608C159.02 16.9108 158.798 18.1008 158.521 19.4308C158.245 20.7608 157.911 22.1117 157.521 23.4833C157.138 24.855 156.735 26.1658 156.311 27.4158C155.959 28.4958 155.524 29.5472 155.011 30.5608C154.528 31.3675 154.034 31.8817 153.529 32.1033C153.024 32.325 152.27 32.2075 151.266 31.7508C145.74 29.8958 143.199 27.2342 143.644 23.7658C143.744 22.9307 143.895 22.1024 144.096 21.2858C144.318 20.3592 144.54 19.4217 144.761 18.4733C144.983 17.525 145.175 16.6275 145.336 15.7808C145.49 15.1158 145.544 14.4318 145.499 13.7508C145.439 13.2508 145.237 12.9483 144.894 12.8433C144.55 12.7383 143.995 12.97 143.229 13.5383C142.407 13.9993 141.645 14.5584 140.959 15.2033C140.1 15.9839 139.309 16.8362 138.594 17.7508C137.843 18.7047 137.184 19.7276 136.626 20.8058C136.08 21.8411 135.692 22.9527 135.476 24.1033C135.274 25.1852 135.294 26.2971 135.536 27.3708C135.806 28.4882 136.418 29.4934 137.286 30.2458C138.504 31.4142 139.82 32.4764 141.219 33.4208C142.67 34.4092 144.112 35.3675 145.544 36.2958C146.975 37.2242 148.326 38.1408 149.596 39.0458C150.751 39.8475 151.809 40.7804 152.749 41.8258C153.523 42.6736 154.064 43.707 154.321 44.8258C154.543 45.8758 154.331 47.005 153.686 48.2133C153.208 49.1809 152.641 50.1016 151.991 50.9633C151.18 52.0325 150.198 52.9614 149.086 53.7133C147.726 54.633 146.238 55.3466 144.669 55.8308C142.934 56.3958 140.856 56.6983 138.436 56.7383C135.174 56.8206 131.929 56.2247 128.909 54.9883C125.824 53.7383 122.647 51.5808 119.379 48.5158C117.604 47.0158 116.676 45.8667 116.596 45.0683C116.516 44.3033 116.9 43.72 117.746 43.3183C118.48 42.9903 119.254 42.7632 120.049 42.6433Z" fill="#6FD5CA"/>
<path d="M191.68 13.5727C189.825 13.7543 187.909 13.946 185.93 14.1477L183.3 24.6752C182.394 28.3052 181.516 31.9052 180.668 35.4752C179.819 39.0452 179.023 42.5243 178.278 45.9127C177.531 49.301 176.875 52.4677 176.31 55.4127C176.229 55.9777 176.037 56.351 175.735 56.5327C175.351 56.7347 174.917 56.8216 174.485 56.7827C173.869 56.7458 173.26 56.6341 172.67 56.4502C171.984 56.2485 171.217 56.0268 170.37 55.7852C169.589 55.566 168.821 55.3031 168.07 54.9977C167.443 54.7518 166.86 54.4047 166.345 53.9702C165.896 53.5893 165.551 53.0995 165.345 52.5477C165.139 51.9108 165.118 51.2284 165.285 50.5802C165.407 48.6435 165.649 46.2635 166.01 43.4402C166.372 40.6168 166.805 37.6318 167.31 34.4852C167.81 31.3385 168.365 28.1618 168.975 24.9552C169.585 21.7485 170.19 18.7743 170.79 16.0327C169.624 16.2343 168.494 16.406 167.403 16.5477C166.484 16.6567 165.575 16.8288 164.68 17.0627C163.672 17.3043 162.845 17.3343 162.2 17.1527C161.555 16.971 160.829 16.4568 160.023 15.6102C159.097 14.6573 158.313 13.5772 157.693 12.4027C156.988 11.1127 156.413 10.0235 155.968 9.13516C155.484 8.20849 155.364 7.59349 155.605 7.29016C155.847 6.98682 156.351 6.73682 157.118 6.54016C159.498 6.05682 162.19 5.61349 165.195 5.21016C168.2 4.80682 171.265 4.44349 174.39 4.12016C177.515 3.79849 180.58 3.52599 183.585 3.30266C186.59 3.07932 189.283 2.92766 191.663 2.84766C192.913 2.84766 193.81 2.95849 194.355 3.18016C194.921 3.41914 195.413 3.80599 195.778 4.30016C196.576 5.21463 197.249 6.23202 197.778 7.32516C198.282 8.34956 198.69 9.41825 198.998 10.5177C199.239 11.446 199.249 12.081 199.028 12.4227C198.806 12.7643 198.07 12.976 196.82 13.0577C195.249 13.2193 193.535 13.391 191.68 13.5727Z" fill="#6FD5CA"/>
<path d="M206.413 48.4501C205.95 50.7101 205.496 52.9284 205.051 55.1051C204.849 55.7501 204.576 56.1734 204.233 56.3751C203.89 56.5767 203.255 56.5767 202.328 56.3751C201.24 56.0917 200.271 55.8701 199.423 55.7101C198.579 55.5496 197.763 55.264 197.003 54.8626C196.323 54.508 195.772 53.947 195.431 53.2601C195.149 52.6351 195.048 51.8017 195.128 50.7601C195.21 49.9134 195.321 48.6834 195.461 47.0701C195.601 45.4567 195.772 43.6317 195.976 41.5951C196.177 39.5584 196.409 37.3701 196.671 35.0301C196.932 32.6901 197.216 30.3467 197.521 28.0001C197.822 25.6667 198.156 23.3976 198.521 21.1926C198.886 18.9876 199.269 17.0109 199.671 15.2626C199.991 13.7769 200.436 12.3209 201.001 10.9101C201.484 9.76006 201.988 9.04423 202.513 8.76256C205.013 7.63423 207.625 6.52506 210.348 5.43506C212.943 4.38271 215.64 3.60188 218.396 3.10506C220.871 2.64451 223.407 2.60394 225.896 2.98506C228.246 3.36362 230.417 4.4748 232.098 6.16006C233.512 7.69532 234.797 9.3442 235.941 11.0901C237.091 12.8451 237.988 14.9926 238.633 17.5326C239.156 20.2359 238.955 22.4542 238.028 24.1876C236.616 26.9709 234.283 29.5317 231.028 31.8701C227.773 34.2084 223.891 36.3867 219.383 38.4051C220.31 39.4551 221.328 40.5642 222.438 41.7326C223.548 42.9009 224.687 44.0676 225.856 45.2326C227.022 46.3992 228.182 47.5284 229.336 48.6201C230.489 49.7117 231.568 50.6592 232.573 51.4626C233.38 52.1492 233.743 52.6934 233.663 53.0951C233.583 53.4967 233.241 53.9201 232.636 54.3651C231.909 54.9301 231.294 55.2634 230.791 55.3651C230.287 55.4667 229.672 55.5776 228.946 55.6976C227.988 55.9448 226.994 56.0168 226.011 55.9101C224.942 55.8084 223.702 55.3342 222.291 54.4876C221.362 53.8426 220.293 53.0359 219.083 52.0676C217.873 51.0992 216.623 50.0301 215.333 48.8601C214.041 47.6934 212.751 46.4734 211.461 45.2001C210.223 43.9852 209.055 42.7024 207.961 41.3576C207.392 43.8276 206.876 46.1917 206.413 48.4501ZM212.553 23.4026C211.948 25.7359 211.262 28.2359 210.496 30.9026C213.093 30.0664 215.581 28.9242 217.908 27.5001C219.848 26.3154 221.662 24.9366 223.323 23.3851C224.775 21.9934 225.823 20.6726 226.468 19.4226C227.113 18.1726 227.316 17.1984 227.076 16.5001C226.592 15.3717 225.161 14.8067 222.781 14.8051C221.479 14.819 220.182 14.9605 218.908 15.2276C217.355 15.5592 215.85 16.0877 214.431 16.8001C213.784 18.8634 213.159 21.0651 212.556 23.4051L212.553 23.4026Z" fill="#6FD5CA"/>
<path d="M256.022 45.3337C253.343 45.6935 250.687 46.2085 248.067 46.8762C247.26 48.4496 246.555 49.9112 245.95 51.2612C245.345 52.6112 244.761 53.9321 244.2 55.2237C243.876 55.9087 243.483 56.3121 243.02 56.4337C242.556 56.5554 241.86 56.4546 240.932 56.1312C240.407 55.9296 239.832 55.6979 239.207 55.4362C238.582 55.1746 237.947 54.8821 237.302 54.5587C236.819 54.2371 236.395 53.9646 236.032 53.7412C235.667 53.5378 235.364 53.2388 235.156 52.8763C234.949 52.5138 234.843 52.1015 234.852 51.6837C234.86 50.995 234.972 50.3115 235.185 49.6562C236.153 46.8729 237.414 43.6062 238.967 39.8562C240.52 36.1062 242.192 32.2371 243.982 28.2487C245.777 24.2487 247.61 20.3062 249.482 16.4212C251.354 12.5362 253.139 9.07789 254.837 6.04622C255.412 4.99138 256.219 4.08095 257.197 3.38373C258.165 2.69873 259.597 2.43623 261.492 2.59623C263.145 2.67789 264.618 2.80872 265.91 2.98872C267.201 3.16872 268.381 3.38039 269.45 3.62373C270.518 3.86539 271.506 4.12789 272.415 4.41123C273.323 4.69456 274.24 4.95706 275.165 5.19872C276.415 5.64372 277.211 6.22706 277.555 6.94872C277.898 7.67039 278.009 8.61789 277.887 9.79122C277.645 12.6562 277.444 15.9437 277.282 19.6537C277.12 23.3637 277 27.2354 276.92 31.2687C276.838 35.3021 276.788 39.3454 276.77 43.3987C276.751 47.4521 276.761 51.2129 276.8 54.6812C276.8 55.4079 276.648 55.9121 276.345 56.1937C276.041 56.4754 275.365 56.6162 274.317 56.6162C273.267 56.6162 272.299 56.5862 271.412 56.5262C270.483 56.4568 269.567 56.2634 268.69 55.9512C267.721 55.6679 267.045 55.3046 266.662 54.8612C266.279 54.4179 266.006 53.6312 265.845 52.5012C265.678 51.3346 265.537 50.0537 265.422 48.6587C265.307 47.2637 265.186 45.7412 265.06 44.0912C262.04 44.4962 259.027 44.9104 256.022 45.3337ZM258.987 34.8962C260.82 34.6946 262.665 34.5329 264.522 34.4112C264.44 31.1046 264.38 27.8071 264.34 24.5187C264.3 21.2304 264.32 17.9737 264.4 14.7487C262.786 17.6937 261.042 20.9504 259.167 24.5187C257.292 28.0871 255.403 31.7887 253.5 35.6237C255.323 35.3421 257.152 35.1004 258.987 34.8987V34.8962Z" fill="#6FD5CA"/>
<path d="M341.236 20.9826C340.106 24.7342 338.987 28.5859 337.879 32.5376C336.771 36.4892 335.701 40.4217 334.671 44.3351C333.643 48.2484 332.726 51.8784 331.921 55.2251C331.921 55.7901 331.77 56.1634 331.466 56.3451C331.083 56.5471 330.648 56.634 330.216 56.5951C329.593 56.5588 328.974 56.4574 328.371 56.2925C327.665 56.1109 326.908 55.9192 326.101 55.7176C324.446 55.2342 323.156 54.6392 322.229 53.9326C321.302 53.2259 321.02 52.1467 321.381 50.695C321.548 49.2434 321.79 47.5692 322.106 45.6726C322.423 43.7759 322.806 41.6584 323.256 39.32C321.563 39.5617 319.896 39.7934 318.256 40.0151C316.616 40.2367 314.95 40.4867 313.256 40.7651C312.611 43.5484 312.087 46.1601 311.684 48.6001C311.281 51.0401 310.917 53.2284 310.594 55.1651C310.427 55.8501 310.177 56.2934 309.844 56.4951C309.511 56.6967 308.815 56.6767 307.756 56.4351C306.748 56.1517 305.71 55.8692 304.641 55.5876C303.68 55.348 302.756 54.9814 301.891 54.4976C300.965 54.0542 300.298 53.5401 299.891 52.9551C299.485 52.3701 299.401 51.5534 299.641 50.5051C300.246 47.7217 300.811 44.4717 301.336 40.7551C301.861 37.0384 302.361 33.1667 302.836 29.1401C303.32 25.1067 303.794 21.0834 304.259 17.0701C304.724 13.0567 305.198 9.35589 305.681 5.96755C306.003 4.67755 306.467 3.91089 307.074 3.66755C307.681 3.42422 308.568 3.52505 309.736 3.97005C311.148 4.37641 312.532 4.87156 313.881 5.45255C315.232 6.01251 316.528 6.69713 317.751 7.49755C318.26 7.78977 318.737 8.13413 319.174 8.52505C319.477 8.79631 319.724 9.12518 319.899 9.49255C320.042 9.83679 320.094 10.2124 320.049 10.5826C319.995 11.0515 319.911 11.5166 319.799 11.9751C319.154 14.2734 318.478 16.9759 317.771 20.0826L315.504 30.0651C317.197 29.8634 318.864 29.7017 320.504 29.5801C322.144 29.4584 323.727 29.3376 325.254 29.2176C326.254 24.9426 327.232 20.6976 328.189 16.4826C329.146 12.2676 330.083 8.43922 331.001 4.99755C331.365 3.70755 331.879 2.97172 332.544 2.79005C333.209 2.60839 334.167 2.69922 335.419 3.06255C336.665 3.41405 337.879 3.86896 339.049 4.42255C340.281 4.9982 341.474 5.6555 342.619 6.39005C343.667 7.15672 344.302 7.82339 344.524 8.39005C344.746 8.95672 344.695 9.76339 344.371 10.8101C343.411 13.8401 342.366 17.2309 341.236 20.9826Z" fill="#6FD5CA"/>
<path d="M360.382 9.49767C360.604 10.0627 360.574 10.8893 360.292 11.9777C359.727 13.7927 359.112 15.8702 358.447 18.2102C357.782 20.5502 357.116 23.021 356.447 25.6227C355.781 28.2243 355.126 30.886 354.482 33.6077C353.839 36.3293 353.214 38.991 352.607 41.5927C352.002 44.1943 351.447 46.6543 350.942 48.9727C350.437 51.291 350.004 53.3577 349.642 55.1727C349.441 55.8577 349.168 56.301 348.825 56.5027C348.481 56.7043 347.786 56.6843 346.737 56.4427C345.687 56.1593 344.687 55.8768 343.737 55.5952C342.806 55.3202 341.905 54.9551 341.045 54.5052C340.118 54.0618 339.503 53.5477 339.2 52.9627C338.896 52.3777 338.806 51.561 338.927 50.5127C339.009 49.101 339.181 47.276 339.442 45.0377C339.704 42.7993 340.026 40.3493 340.41 37.6877C340.793 35.021 341.226 32.2177 341.71 29.2777C342.193 26.3377 342.687 23.4535 343.192 20.6252C343.692 17.8018 344.206 15.1293 344.735 12.6077C345.263 10.086 345.747 7.87767 346.187 5.98267C346.551 4.816 347.045 4.10017 347.67 3.83517C348.295 3.57017 349.232 3.62017 350.482 3.98517C351.87 4.35799 353.226 4.84377 354.535 5.43767C355.865 6.01525 357.144 6.70438 358.357 7.49767C359.486 8.25934 360.161 8.926 360.382 9.49767Z" fill="#6FD5CA"/>
<path d="M357.689 42.6419C358.49 42.5219 359.3 42.4817 360.109 42.5219C360.899 42.5596 361.681 42.6913 362.439 42.9144C363.158 43.124 363.841 43.44 364.467 43.8519C367.895 45.9903 370.88 47.3619 373.422 47.9669C375.963 48.5719 377.797 48.4103 378.922 47.4819C379.405 47.1603 379.516 46.7669 379.254 46.3019C378.852 45.6838 378.344 45.1414 377.754 44.6994C377.007 44.0944 376.08 43.4278 374.972 42.6994C373.863 41.9711 372.683 41.2211 371.432 40.4494C370.182 39.6844 368.932 38.8878 367.682 38.0594C366.506 37.2916 365.375 36.4569 364.294 35.5594C363.166 34.6757 362.157 33.6487 361.294 32.5044C360.436 31.3728 359.753 30.1189 359.267 28.7844C358.777 27.4246 358.511 25.9944 358.479 24.5494C358.456 22.9467 358.701 21.3513 359.204 19.8294C359.627 18.2267 360.247 16.6825 361.049 15.2319C361.94 13.583 362.972 12.0146 364.134 10.5444C365.327 9.02793 366.643 7.61155 368.067 6.30943C369.422 5.05738 370.889 3.93342 372.452 2.95193C373.036 2.53118 373.665 2.17573 374.327 1.89193C375.159 1.53239 376.033 1.28036 376.929 1.14193C377.969 0.977917 379.023 0.927621 380.074 0.991925C381.262 1.06402 382.437 1.27719 383.574 1.62693C385.455 2.30147 387.284 3.11021 389.049 4.04693C390.716 4.89991 392.27 5.95631 393.677 7.19193C394.407 7.86596 395.039 8.64036 395.552 9.49193C395.968 10.1943 396.283 10.9517 396.489 11.7419C396.667 12.4448 396.768 13.1648 396.792 13.8894C396.812 14.5961 396.822 15.2519 396.822 15.8569C396.655 16.9069 396.433 18.0969 396.157 19.4269C395.88 20.7569 395.547 22.1078 395.157 23.4794C394.773 24.8511 394.37 26.1619 393.947 27.4119C393.594 28.4919 393.159 29.5433 392.647 30.5569C392.163 31.3636 391.669 31.8778 391.164 32.0994C390.659 32.3211 389.903 32.2103 388.897 31.7669C383.37 29.9119 380.829 27.2503 381.274 23.7819C381.374 22.9467 381.525 22.1185 381.727 21.3019C381.948 20.3753 382.17 19.4378 382.392 18.4894C382.613 17.5411 382.805 16.6436 382.967 15.7969C383.116 15.1322 383.168 14.4491 383.119 13.7694C383.059 13.2694 382.857 12.9669 382.514 12.8619C382.171 12.7569 381.616 12.9886 380.849 13.5569C380.028 14.0179 379.266 14.577 378.579 15.2219C377.728 15.997 376.943 16.8425 376.234 17.7494C375.483 18.7033 374.824 19.7262 374.267 20.8044C373.72 21.8397 373.332 22.9513 373.117 24.1019C372.914 25.1838 372.934 26.2957 373.177 27.3694C373.446 28.4868 374.058 29.492 374.927 30.2444C376.145 31.4128 377.46 32.475 378.859 33.4194C380.311 34.4078 381.752 35.3661 383.184 36.2944C384.616 37.2228 385.967 38.1394 387.237 39.0444C388.389 39.8473 389.444 40.7811 390.382 41.8269C391.156 42.6747 391.697 43.7081 391.954 44.8269C392.176 45.8769 391.964 47.0061 391.319 48.2144C390.841 49.182 390.274 50.1026 389.624 50.9644C388.812 52.0336 387.831 52.9625 386.719 53.7144C385.359 54.6341 383.87 55.3477 382.302 55.8319C380.567 56.3969 378.489 56.6994 376.069 56.7394C372.806 56.8217 369.562 56.2258 366.542 54.9894C363.457 53.7394 360.28 51.5819 357.012 48.5169C355.237 47.0169 354.309 45.8678 354.229 45.0694C354.149 44.3044 354.532 43.7211 355.379 43.3194C356.115 42.9899 356.892 42.7619 357.689 42.6419Z" fill="#6FD5CA"/>
<path d="M429.323 13.572C427.468 13.7537 425.552 13.9454 423.573 14.147L420.941 24.6745C420.034 28.3045 419.157 31.9045 418.308 35.4745C417.46 39.0445 416.663 42.5237 415.918 45.912C415.172 49.3004 414.516 52.467 413.951 55.412C413.869 55.977 413.678 56.3504 413.376 56.532C412.992 56.7341 412.558 56.8209 412.126 56.782C411.51 56.7452 410.9 56.6335 410.311 56.4495C409.624 56.2479 408.858 56.0262 408.011 55.7845C407.23 55.5654 406.462 55.3025 405.711 54.997C405.084 54.7511 404.501 54.404 403.986 53.9695C403.536 53.5887 403.192 53.0989 402.986 52.547C402.78 51.9102 402.759 51.2278 402.926 50.5795C403.047 48.6429 403.289 46.2629 403.651 43.4395C404.012 40.6162 404.446 37.6312 404.951 34.4845C405.451 31.3379 406.006 28.1612 406.616 24.9545C407.226 21.7479 407.831 18.7737 408.431 16.032C407.264 16.2337 406.135 16.4054 405.043 16.547C404.125 16.6561 403.215 16.8282 402.321 17.062C401.313 17.3037 400.486 17.3337 399.841 17.152C399.196 16.9704 398.47 16.4562 397.663 15.6095C396.738 14.6567 395.953 13.5766 395.333 12.402C394.628 11.112 394.053 10.0229 393.608 9.13453C393.125 8.20786 393.004 7.59286 393.246 7.28953C393.487 6.9862 393.992 6.7362 394.758 6.53953C397.138 6.0562 399.831 5.61286 402.836 5.20953C405.841 4.8062 408.906 4.44286 412.031 4.11953C415.177 3.7862 418.251 3.5087 421.251 3.28703C424.251 3.06536 426.943 2.9137 429.328 2.83203C430.578 2.83203 431.476 2.94286 432.021 3.16453C432.587 3.40351 433.078 3.79036 433.443 4.28453C434.242 5.19901 434.915 6.21639 435.443 7.30953C435.945 8.33911 436.35 9.41285 436.653 10.517C436.895 11.4454 436.905 12.0804 436.683 12.422C436.462 12.7637 435.726 12.9754 434.476 13.057C432.896 13.2187 431.178 13.3904 429.323 13.572Z" fill="#6FD5CA"/>
<path d="M470.734 11.6963C471.475 13.1969 471.995 14.7968 472.277 16.4463C472.728 19.6223 472.83 22.8382 472.579 26.0363C472.332 29.5159 471.734 32.9617 470.794 36.3213C469.869 39.6729 468.57 42.9099 466.922 45.9713C465.388 48.8695 463.349 51.471 460.902 53.6538C459.407 54.8419 457.673 55.6945 455.819 56.1538C454.044 56.5772 452.008 56.668 449.709 56.4263C448.124 56.2583 446.549 56.008 444.989 55.6763C443.455 55.362 441.969 54.8432 440.572 54.1338C439.425 53.5305 438.349 52.8 437.364 51.9563C436.353 51.115 435.511 50.0883 434.884 48.9313C433.871 46.9448 433.138 44.827 432.707 42.6388C432.215 40.2106 431.992 37.7358 432.042 35.2588C432.15 29.8465 433.3 24.5057 435.429 19.5288C436.518 16.9871 437.866 14.5643 439.452 12.2988C441.039 10.0309 442.903 7.96924 444.999 6.16133C446.512 5.02275 448.226 4.18122 450.052 3.68133C451.86 3.12595 453.768 2.97824 455.639 3.24883C457.878 3.59679 460.077 4.16453 462.204 4.94383C464.065 5.59246 465.81 6.53159 467.377 7.72633C468.909 8.98133 470.028 10.3047 470.734 11.6963ZM454.792 14.8413C453.575 16.0418 452.518 17.3937 451.647 18.8638C450.535 20.6776 449.555 22.5682 448.712 24.5213C447.848 26.4789 447.111 28.4896 446.504 30.5413C445.933 32.4689 445.528 34.442 445.294 36.4388C445.056 38.3246 444.972 40.2268 445.044 42.1263C445.084 43.662 445.37 45.1814 445.892 46.6263C446.375 47.8763 447.081 48.643 448.009 48.9263C448.856 49.2097 449.744 49.028 450.672 48.3813C451.6 47.7347 452.528 46.7463 453.454 45.4163C454.5 43.8722 455.384 42.2243 456.092 40.4988C456.958 38.4249 457.676 36.2921 458.239 34.1163C458.796 32.0622 459.22 29.9746 459.509 27.8663C459.822 25.7471 459.986 23.6085 459.999 21.4663C460.031 19.7246 459.838 17.9861 459.424 16.2938C459.041 14.8622 458.446 14.0288 457.639 13.7938C456.789 13.5055 455.84 13.8547 454.792 14.8413Z" fill="#6FD5CA"/>
<path d="M484.89 48.4487C484.426 50.7087 483.972 52.927 483.527 55.1037C483.325 55.7487 483.053 56.172 482.71 56.3737C482.366 56.5753 481.731 56.5753 480.805 56.3737C479.716 56.0903 478.748 55.8687 477.9 55.7087C477.055 55.5482 476.24 55.2626 475.48 54.8612C474.799 54.5066 474.249 53.9456 473.907 53.2587C473.625 52.6337 473.525 51.8003 473.605 50.7587C473.686 49.912 473.797 48.682 473.937 47.0687C474.077 45.4553 474.249 43.6303 474.452 41.5937C474.654 39.557 474.885 37.3687 475.147 35.0287C475.409 32.6887 475.693 30.3453 476 27.9987C476.301 25.6653 476.635 23.3962 477 21.1912C477.365 18.9862 477.748 17.0095 478.15 15.2612C478.47 13.7746 478.914 12.3178 479.48 10.9062C479.963 9.75616 480.467 9.04033 480.992 8.75866C483.492 7.63033 486.104 6.52116 488.827 5.43116C491.422 4.3788 494.119 3.59797 496.875 3.10116C499.35 2.6406 501.886 2.60003 504.375 2.98116C506.725 3.35972 508.896 4.47089 510.577 6.15616C511.991 7.69141 513.276 9.3403 514.42 11.0862C515.57 12.8412 516.467 14.9887 517.112 17.5287C517.635 20.232 517.434 22.4503 516.507 24.1837C515.096 26.967 512.762 29.5278 509.507 31.8662C506.252 34.2045 502.37 36.3828 497.862 38.4012C498.789 39.4512 499.807 40.5603 500.917 41.7287C502.027 42.897 503.166 44.0637 504.335 45.2287C505.501 46.3953 506.661 47.5245 507.815 48.6162C508.968 49.7078 510.047 50.6553 511.052 51.4587C511.859 52.1453 512.222 52.6895 512.142 53.0912C512.062 53.4928 511.72 53.9162 511.115 54.3612C510.388 54.9262 509.773 55.2595 509.27 55.3612C508.766 55.4628 508.151 55.5737 507.425 55.6937C506.467 55.9409 505.473 56.0129 504.49 55.9062C503.421 55.8045 502.181 55.3303 500.77 54.4837C499.841 53.8387 498.772 53.032 497.562 52.0637C496.352 51.0953 495.102 50.0262 493.812 48.8562C492.52 47.6895 491.23 46.4695 489.94 45.1962C488.703 43.9813 487.534 42.6985 486.44 41.3537C485.87 43.8253 485.353 46.1903 484.89 48.4487ZM491.03 23.4012C490.425 25.7345 489.739 28.2345 488.972 30.9012C491.569 30.065 494.058 28.9228 496.385 27.4987C498.324 26.314 500.139 24.9352 501.8 23.3837C503.251 21.992 504.3 20.6712 504.945 19.4212C505.59 18.1712 505.792 17.197 505.552 16.4987C505.069 15.3703 503.637 14.8053 501.257 14.8037C499.956 14.8176 498.659 14.9591 497.385 15.2262C495.831 15.5578 494.327 16.0862 492.907 16.7987C492.26 18.862 491.635 21.0637 491.032 23.4037L491.03 23.4012Z" fill="#6FD5CA"/>
<path d="M535.999 9.49767C536.221 10.0627 536.191 10.8893 535.909 11.9777C535.344 13.7927 534.729 15.8702 534.064 18.2102C533.399 20.5502 532.733 23.021 532.064 25.6227C531.398 28.2243 530.743 30.886 530.099 33.6077C529.456 36.3293 528.831 38.991 528.224 41.5927C527.619 44.1943 527.064 46.6543 526.559 48.9727C526.054 51.291 525.621 53.3577 525.259 55.1727C525.058 55.8577 524.785 56.301 524.442 56.5027C524.099 56.7043 523.403 56.6843 522.354 56.4427C521.304 56.1593 520.304 55.8768 519.354 55.5952C518.424 55.3202 517.522 54.9551 516.662 54.5052C515.735 54.0618 515.12 53.5477 514.817 52.9627C514.514 52.3777 514.423 51.561 514.544 50.5127C514.626 49.101 514.798 47.276 515.059 45.0377C515.321 42.7993 515.644 40.3493 516.027 37.6877C516.41 35.021 516.844 32.2177 517.327 29.2777C517.81 26.3377 518.304 23.4535 518.809 20.6252C519.309 17.8018 519.824 15.1293 520.352 12.6077C520.88 10.086 521.364 7.87767 521.804 5.98267C522.168 4.816 522.662 4.10017 523.287 3.83517C523.912 3.57017 524.849 3.62017 526.099 3.98517C527.488 4.35799 528.843 4.84377 530.152 5.43767C531.485 6.01475 532.767 6.70388 533.984 7.49767C535.113 8.25934 535.784 8.926 535.999 9.49767Z" fill="#6FD5CA"/>
<path d="M552.225 45.3337C549.546 45.6935 546.89 46.2085 544.27 46.8762C543.464 48.4496 542.758 49.9112 542.153 51.2612C541.548 52.6112 540.964 53.9321 540.403 55.2237C540.079 55.9087 539.686 56.3121 539.223 56.4337C538.759 56.5554 538.064 56.4546 537.135 56.1312C536.61 55.9296 536.035 55.6979 535.41 55.4362C534.785 55.1746 534.15 54.8821 533.505 54.5587C533.022 54.2371 532.599 53.9646 532.235 53.7412C531.87 53.5378 531.567 53.2388 531.36 52.8763C531.152 52.5138 531.046 52.1015 531.055 51.6837C531.063 50.995 531.176 50.3115 531.388 49.6562C532.356 46.8729 533.617 43.6062 535.17 39.8562C536.724 36.1062 538.395 32.2371 540.185 28.2487C541.98 24.2487 543.814 20.3062 545.685 16.4212C547.557 12.5362 549.342 9.07789 551.04 6.04622C551.615 4.99138 552.422 4.08095 553.4 3.38373C554.369 2.69873 555.8 2.43623 557.695 2.59623C559.349 2.67789 560.821 2.80872 562.113 2.98872C563.404 3.16872 564.584 3.38039 565.653 3.62373C566.721 3.86539 567.709 4.12789 568.618 4.41123C569.526 4.69456 570.443 4.95706 571.368 5.19872C572.618 5.64372 573.414 6.22706 573.758 6.94872C574.101 7.67039 574.212 8.61789 574.09 9.79122C573.849 12.6562 573.647 15.9437 573.485 19.6537C573.324 23.3637 573.203 27.2354 573.123 31.2687C573.041 35.3021 572.991 39.3454 572.973 43.3987C572.954 47.4521 572.964 51.2129 573.003 54.6812C573.003 55.4079 572.851 55.9121 572.548 56.1937C572.244 56.4754 571.569 56.6162 570.52 56.6162C569.47 56.6162 568.502 56.5862 567.615 56.5262C566.686 56.4568 565.771 56.2634 564.893 55.9512C563.924 55.6679 563.249 55.3046 562.865 54.8612C562.482 54.4179 562.209 53.6312 562.048 52.5012C561.881 51.3346 561.74 50.0537 561.625 48.6587C561.51 47.2637 561.389 45.7412 561.263 44.0912C558.241 44.4962 555.229 44.9104 552.225 45.3337ZM555.19 34.8962C557.024 34.6946 558.869 34.5329 560.725 34.4112C560.644 31.1046 560.583 27.8071 560.543 24.5187C560.503 21.2304 560.523 17.9737 560.603 14.7487C558.989 17.6937 557.245 20.9504 555.37 24.5187C553.495 28.0871 551.609 31.7879 549.713 35.6212C551.528 35.3412 553.353 35.1004 555.188 34.8987L555.19 34.8962Z" fill="#6FD5CA"/>
</svg>
