<svg viewBox="0 0 575 60" fill="#ffffff" xmlns="http://www.w3.org/2000/svg">
<path d="M31.6546 22.6363C32.8429 17.5146 34.0229 12.7955 35.1946 8.4788C35.5179 7.31213 36.0121 6.5863 36.6771 6.3013C37.3421 6.0163 38.3204 6.0363 39.6121 6.3613C40.2171 6.52796 40.7621 6.6688 41.2471 6.7838C41.7338 6.90613 42.2095 7.06834 42.6696 7.2688C43.1329 7.47046 43.6271 7.71213 44.1521 7.9938C44.6771 8.27546 45.2821 8.6388 45.9671 9.0838C47.1338 9.81046 47.7896 10.5463 47.9346 11.2913C48.0796 12.0363 47.9888 12.9338 47.6621 13.9838C46.7288 16.9705 45.7579 20.3588 44.7496 24.1488C43.7413 27.9388 42.7413 31.7905 41.7496 35.7038C40.7613 39.6171 39.8138 43.4388 38.9071 47.1688C38.0004 50.8988 37.2263 54.1755 36.5846 56.9988C36.3429 58.5305 35.1329 59.0546 32.9546 58.5713C31.0227 58.1877 29.1217 57.6621 27.2671 56.9988C26.4221 56.6911 25.6514 56.2089 25.0053 55.5834C24.3591 54.958 23.8521 54.2034 23.5171 53.3688C22.9521 52.1188 22.3771 50.6671 21.7921 49.0138C21.2071 47.3605 20.6096 45.5763 19.9996 43.6613C19.3946 41.7463 18.7896 39.7463 18.1846 37.6613C17.5796 35.5763 17.0146 33.493 16.4896 31.4113C16.0446 33.9113 15.5904 36.4113 15.1271 38.9113C14.6638 41.4113 14.2204 43.8013 13.7971 46.0813C13.3738 48.3613 12.9904 50.4788 12.6471 52.4338C12.3038 54.3888 12.0313 56.093 11.8296 57.5463C11.6629 58.2313 11.4004 58.6646 11.0421 58.8463C10.6838 59.028 9.97793 58.978 8.9246 58.6963C7.95626 58.4546 6.97793 58.2046 5.9896 57.9463C4.9758 57.671 4.00736 57.2499 3.1146 56.6963C2.22793 56.253 1.63293 55.7388 1.3296 55.1538C1.02626 54.5688 0.916263 53.753 0.999596 52.7063C1.08126 51.618 1.2121 50.0655 1.3921 48.0488C1.5721 46.0321 1.81376 43.743 2.1171 41.1813C2.41876 38.6196 2.76126 35.8771 3.1446 32.9538C3.52793 30.0305 3.9446 27.1138 4.3946 24.2038C4.84126 21.3038 5.29293 18.503 5.7496 15.8013C6.20626 13.0996 6.66043 10.6996 7.1121 8.6013C7.39376 7.3913 7.89376 6.63463 8.6121 6.3313C9.33043 6.02796 10.3188 6.03796 11.5771 6.3613C13.0771 6.8063 14.5288 7.24963 15.9321 7.6913C17.4428 8.17316 18.9187 8.75786 20.3496 9.4413C21.5996 9.9663 22.4871 10.6221 23.0121 11.4088C23.5371 12.1955 23.9204 13.3555 24.1621 14.8888C24.3638 16.0555 24.6263 17.548 24.9496 19.3663C25.2729 21.1846 25.6363 23.1513 26.0396 25.2663C26.4429 27.383 26.8663 29.5613 27.3096 31.8013C27.7529 34.0413 28.2029 36.1905 28.6596 38.2488C29.4646 32.9638 30.4629 27.7596 31.6546 22.6363Z" />
<path d="M44.1189 46.8064C43.7204 44.6824 43.5278 42.5249 43.5439 40.3639C43.554 37.8755 43.7159 35.39 44.0289 32.9214C44.3439 30.3064 44.7672 27.6447 45.2989 24.9364C45.8306 22.2281 46.4256 19.5156 47.0839 16.7989C47.7506 14.0756 48.4464 11.4239 49.1714 8.84389C49.4931 7.67722 49.9672 6.97139 50.5939 6.72639C51.2206 6.48139 52.1789 6.58222 53.4689 7.02889C54.6674 7.38805 55.8312 7.85408 56.9464 8.42139C58.077 9.00105 59.1595 9.66983 60.1839 10.4214C62.3622 11.9947 63.1122 14.0114 62.4339 16.4714C61.7872 18.5697 61.1114 20.8389 60.4064 23.2789C59.7014 25.7189 59.0456 28.1897 58.4389 30.6914C57.8339 33.1914 57.3197 35.6314 56.8964 38.0114C56.5036 40.1309 56.2406 42.2724 56.1089 44.4239C56.0072 46.3206 56.1081 47.8939 56.4114 49.1439C56.7147 50.3939 57.3097 51.1439 58.1964 51.3939C59.2847 51.6772 60.3539 51.1531 61.4039 49.8214C62.4539 48.4897 63.4539 46.6447 64.4039 44.2864C65.4588 41.6051 66.3676 38.8686 67.1264 36.0889C67.9931 32.9839 68.7997 29.7872 69.5464 26.4989C70.2931 23.2106 70.9689 19.9739 71.5739 16.7889C72.1656 13.5956 72.7039 10.7489 73.1889 8.24889C73.2689 7.03889 73.7122 6.31306 74.5189 6.07139C75.3256 5.82972 76.3039 5.85972 77.4539 6.16139C78.7316 6.5142 79.9685 7.00107 81.1439 7.61389C82.4539 8.28056 83.6539 8.93639 84.7439 9.58139C85.2106 9.86898 85.6462 10.2041 86.0439 10.5814C86.3178 10.8391 86.5342 11.1517 86.6789 11.4989C86.8012 11.838 86.8423 12.201 86.7989 12.5589C86.7428 13.0168 86.6593 13.471 86.5489 13.9189C85.3506 19.6922 84.1339 24.9881 82.8989 29.8064C81.8202 34.1355 80.5193 38.4061 79.0014 42.6014C77.6297 46.3131 76.1372 49.4189 74.5239 51.9189C72.9106 54.4189 71.1156 56.2339 69.1389 57.3639C67.7974 58.0258 66.373 58.5042 64.9039 58.7864C63.3056 59.0575 61.6798 59.1288 60.0639 58.9989C56.4339 58.7572 53.4489 57.9906 51.1089 56.6989C50.096 56.1304 49.1436 55.4603 48.2664 54.6989C47.3428 53.8899 46.5649 52.9284 45.9664 51.8564C45.0624 50.2929 44.4372 48.5841 44.1189 46.8064Z" />
<path d="M94.2713 8.36081C96.3896 7.87748 98.608 7.43415 100.926 7.03081C103.245 6.62748 105.624 6.27415 108.064 5.97081C110.504 5.66915 112.934 5.47749 115.354 5.39583C117.652 5.35583 119.125 6.24331 119.771 8.05832C120.239 8.88882 120.605 9.7727 120.861 10.6908C121.063 11.4775 121.265 12.335 121.466 13.2633C121.633 14.3133 121.55 15.0192 121.216 15.3808C120.883 15.7425 120.133 16.005 118.966 16.1683C116.546 16.4517 114.046 16.7342 111.466 17.0158C108.886 17.2975 106.164 17.64 103.299 18.0433C102.694 19.8583 102.129 21.7442 101.604 23.7008C101.079 25.6575 100.495 27.7042 99.8538 29.8408C101.064 29.6742 102.274 29.5533 103.484 29.4783C104.694 29.4033 105.985 29.3425 107.356 29.2958C108.485 29.2558 109.372 29.3567 110.019 29.5983C110.665 29.84 111.21 30.3642 111.654 31.1708C112.113 31.9244 112.488 32.7258 112.774 33.5608C113.035 34.3475 113.267 35.1442 113.469 35.9508C113.79 36.8792 113.82 37.5042 113.559 37.8258C113.297 38.1475 112.601 38.43 111.471 38.6733C109.051 39.1183 106.581 39.5417 104.061 39.9433C101.541 40.345 99.1113 40.7883 96.7713 41.2733C96.448 42.565 96.1455 43.785 95.8638 44.9333C95.5822 46.0817 95.2797 47.2208 94.9563 48.3508C96.8513 48.0292 98.6563 47.7667 100.371 47.5633C102.086 47.36 103.952 47.1983 105.969 47.0783C107.097 46.9983 107.975 47.0817 108.601 47.3283C109.282 47.6204 109.846 48.1316 110.204 48.7808C110.645 49.5011 111.02 50.26 111.324 51.0483C111.585 51.755 111.878 52.4708 112.201 53.1958C112.403 54.0025 112.403 54.5567 112.201 54.8583C112 55.16 111.355 55.41 110.266 55.6083C107.685 56.0917 105.063 56.5958 102.401 57.1208C99.7396 57.6458 97.1988 58.13 94.7788 58.5733C93.1655 58.9767 91.9455 59.0675 91.1188 58.8458C90.3568 58.6522 89.6314 58.3355 88.9713 57.9083C88.2846 57.465 87.6288 57.0108 87.0038 56.5458C86.3788 56.0808 85.643 55.4858 84.7963 54.7608C84.1268 54.2149 83.5806 53.5333 83.1938 52.7608C82.7985 51.8927 82.6456 50.9338 82.7513 49.9858L88.5013 9.75081C90.2296 9.30915 92.153 8.84581 94.2713 8.36081Z" />
<path d="M117.049 45.1433C117.849 45.0233 118.66 44.9831 119.469 45.0233C120.258 45.061 121.041 45.1927 121.799 45.4158C122.518 45.6254 123.201 45.9414 123.826 46.3533C127.255 48.4917 130.24 49.8633 132.781 50.4683C135.323 51.0733 137.156 50.9117 138.281 49.9833C138.765 49.6617 138.875 49.2683 138.614 48.8033C138.212 48.1853 137.704 47.6428 137.114 47.2008C136.367 46.5958 135.44 45.9292 134.331 45.2008C133.223 44.4725 132.043 43.7225 130.791 42.9508C129.54 42.1858 128.29 41.3892 127.041 40.5608C125.865 39.793 124.734 38.9583 123.654 38.0608C122.525 37.1771 121.517 36.1501 120.654 35.0058C119.796 33.8742 119.112 32.6202 118.626 31.2858C118.137 29.9259 117.871 28.4958 117.839 27.0508C117.816 25.4481 118.061 23.8527 118.564 22.3308C118.988 20.7335 119.606 19.1944 120.406 17.7483C121.299 16.0949 122.334 14.5223 123.499 13.0483C124.69 11.5322 126.002 10.1158 127.424 8.81333C128.779 7.56128 130.247 6.43732 131.809 5.45583C132.393 5.03509 133.022 4.67964 133.684 4.39583C134.516 4.03632 135.39 3.7843 136.286 3.64583C137.326 3.48182 138.381 3.43153 139.431 3.49583C140.619 3.56793 141.794 3.78109 142.931 4.13083C144.812 4.80538 146.642 5.61413 148.406 6.55083C150.073 7.4038 151.627 8.4602 153.034 9.69583C153.765 10.3697 154.396 11.1441 154.909 11.9958C155.325 12.6983 155.641 13.4557 155.846 14.2458C156.024 14.9487 156.126 15.6687 156.149 16.3933C156.169 17.1 156.179 17.7558 156.179 18.3608C156.012 19.4108 155.79 20.6008 155.514 21.9308C155.237 23.2608 154.904 24.6117 154.514 25.9833C154.13 27.355 153.727 28.6658 153.304 29.9158C152.951 30.9958 152.517 32.0472 152.004 33.0608C151.52 33.8675 151.026 34.3817 150.521 34.6033C150.016 34.825 149.265 34.7067 148.266 34.2483C142.74 32.3933 140.199 29.7317 140.644 26.2633C140.744 25.4282 140.895 24.5999 141.096 23.7833C141.318 22.8567 141.54 21.9192 141.761 20.9708C141.983 20.0225 142.175 19.125 142.336 18.2783C142.49 17.6133 142.545 16.9293 142.499 16.2483C142.439 15.7483 142.237 15.4458 141.894 15.3408C141.55 15.2358 140.996 15.4675 140.231 16.0358C139.41 16.4968 138.648 17.0559 137.961 17.7008C137.101 18.4813 136.308 19.3335 135.591 20.2483C134.84 21.2023 134.182 22.2252 133.624 23.3033C133.077 24.3386 132.69 25.4502 132.474 26.6008C132.271 27.6827 132.291 28.7946 132.534 29.8683C132.803 30.9857 133.415 31.9909 134.284 32.7433C135.502 33.9118 136.817 34.974 138.216 35.9183C139.668 36.9067 141.11 37.865 142.541 38.7933C143.973 39.7217 145.324 40.6383 146.594 41.5433C147.75 42.3456 148.808 43.2794 149.749 44.3258C150.523 45.1735 151.065 46.207 151.321 47.3258C151.543 48.3758 151.331 49.505 150.686 50.7133C150.208 51.6809 149.641 52.6016 148.991 53.4633C148.18 54.5324 147.198 55.4614 146.086 56.2133C144.726 57.133 143.238 57.8466 141.669 58.3308C139.934 58.8958 137.856 59.1983 135.436 59.2383C132.174 59.3206 128.929 58.7247 125.909 57.4883C122.822 56.2383 119.645 54.0808 116.379 51.0158C114.604 49.5158 113.676 48.3667 113.596 47.5683C113.516 46.8033 113.9 46.22 114.746 45.8183C115.48 45.4903 116.254 45.2632 117.049 45.1433Z" />
<path d="M188.678 16.0752C186.821 16.2568 184.904 16.4485 182.928 16.6502L180.3 27.1752C179.394 30.8052 178.516 34.4052 177.668 37.9752C176.819 41.5452 176.023 45.0243 175.278 48.4127C174.531 51.801 173.875 54.9677 173.31 57.9127C173.229 58.4777 173.037 58.851 172.735 59.0327C172.351 59.2347 171.917 59.3216 171.485 59.2827C170.869 59.2458 170.26 59.1341 169.67 58.9502C168.984 58.7485 168.217 58.5268 167.37 58.2852C166.589 58.066 165.822 57.8031 165.07 57.4977C164.443 57.2517 163.86 56.9046 163.345 56.4702C162.896 56.0894 162.551 55.5996 162.345 55.0477C162.139 54.4108 162.118 53.7284 162.285 53.0802C162.405 51.1435 162.647 48.7635 163.01 45.9402C163.374 43.1168 163.807 40.1318 164.31 36.9852C164.81 33.8385 165.365 30.6618 165.975 27.4552C166.585 24.2485 167.19 21.2743 167.79 18.5327C166.624 18.7343 165.494 18.906 164.403 19.0477C163.484 19.1567 162.575 19.3287 161.68 19.5627C160.672 19.8043 159.845 19.8343 159.2 19.6527C158.555 19.471 157.829 18.9568 157.023 18.1102C156.097 17.1573 155.313 16.0773 154.693 14.9027C153.988 13.6127 153.413 12.5235 152.968 11.6352C152.484 10.7085 152.364 10.0935 152.605 9.79016C152.847 9.48682 153.351 9.23682 154.118 9.04016C156.498 8.55682 159.19 8.11349 162.195 7.71016C165.2 7.30682 168.265 6.94349 171.39 6.62016C174.515 6.29849 177.581 6.02599 180.588 5.80266C183.594 5.57932 186.287 5.42766 188.665 5.34766C189.915 5.34766 190.813 5.45849 191.358 5.68016C191.924 5.91903 192.415 6.3059 192.78 6.80016C193.579 7.71451 194.252 8.73191 194.78 9.82516C195.284 10.8504 195.691 11.92 195.998 13.0202C196.239 13.9485 196.249 14.5835 196.028 14.9252C195.806 15.2668 195.07 15.4785 193.82 15.5602C192.247 15.7218 190.533 15.8935 188.678 16.0752Z" />
<path d="M203.413 50.9501C202.948 53.2101 202.494 55.4284 202.051 57.6051C201.849 58.2501 201.576 58.6734 201.233 58.8751C200.89 59.0767 200.255 59.0767 199.328 58.8751C198.24 58.5917 197.271 58.3701 196.423 58.2101C195.579 58.0497 194.763 57.764 194.003 57.3626C193.323 57.0079 192.772 56.4469 192.431 55.7601C192.149 55.1351 192.048 54.3017 192.128 53.2601C192.21 52.4134 192.321 51.1834 192.461 49.5701C192.601 47.9567 192.772 46.1317 192.976 44.0951C193.179 42.0584 193.411 39.8701 193.671 37.5301C193.931 35.1901 194.213 32.8459 194.518 30.4976C194.82 28.1642 195.153 25.8951 195.518 23.6901C195.883 21.4851 196.266 19.5084 196.668 17.7601C196.989 16.2751 197.435 14.8199 198.001 13.4101C198.486 12.2601 198.99 11.5442 199.513 11.2626C202.013 10.1342 204.625 9.02506 207.348 7.93506C209.943 6.88267 212.64 6.10184 215.396 5.60506C217.871 5.14451 220.407 5.10394 222.896 5.48506C225.245 5.86412 227.415 6.97527 229.096 8.66007C230.509 10.1953 231.795 11.8442 232.938 13.5901C234.088 15.3451 234.986 17.4926 235.631 20.0326C236.154 22.7359 235.952 24.9542 235.026 26.6876C233.612 29.4709 231.279 32.0317 228.026 34.3701C224.772 36.7084 220.89 38.8867 216.378 40.9051C217.305 41.9551 218.323 43.0642 219.433 44.2326C220.543 45.4009 221.682 46.5676 222.851 47.7326C224.017 48.8992 225.176 50.0284 226.328 51.1201C227.48 52.2117 228.559 53.1592 229.566 53.9626C230.372 54.6492 230.736 55.1934 230.656 55.5951C230.576 55.9967 230.232 56.4201 229.626 56.8651C228.899 57.4301 228.284 57.7634 227.781 57.8651C227.277 57.9667 226.662 58.0776 225.936 58.1976C224.978 58.4448 223.984 58.5168 223.001 58.4101C221.931 58.3084 220.691 57.8342 219.281 56.9876C218.352 56.3426 217.283 55.5359 216.073 54.5676C214.863 53.5992 213.613 52.5301 212.323 51.3601C211.031 50.1934 209.741 48.9734 208.451 47.7001C207.213 46.4853 206.045 45.2025 204.951 43.8576C204.389 46.3276 203.876 48.6917 203.413 50.9501ZM209.553 25.9026C208.948 28.2359 208.262 30.7359 207.496 33.4026C210.093 32.5657 212.581 31.4226 214.908 29.9976C216.848 28.8128 218.662 27.4341 220.323 25.8826C221.775 24.4909 222.823 23.1701 223.468 21.9201C224.113 20.6701 224.315 19.6959 224.073 18.9976C223.59 17.8692 222.158 17.3042 219.778 17.3026C218.476 17.3239 217.179 17.473 215.906 17.7476C214.352 18.0793 212.848 18.6077 211.428 19.3201C210.783 21.3701 210.158 23.5642 209.553 25.9026Z" />
<path d="M253.018 47.8362C250.339 48.196 247.683 48.711 245.063 49.3787C244.256 50.9521 243.551 52.4137 242.946 53.7637C242.341 55.1137 241.757 56.4346 241.196 57.7262C240.872 58.4112 240.479 58.8146 240.016 58.9362C239.552 59.0579 238.856 58.9571 237.928 58.6337C237.403 58.4321 236.828 58.2004 236.203 57.9387C235.578 57.6771 234.943 57.3846 234.298 57.0612C233.815 56.7396 233.391 56.4671 233.028 56.2437C232.663 56.0401 232.361 55.7411 232.153 55.3786C231.945 55.0162 231.84 54.604 231.848 54.1862C231.856 53.4975 231.968 52.814 232.181 52.1587C233.149 49.3754 234.41 46.1087 235.963 42.3587C237.516 38.6087 239.189 34.7387 240.981 30.7487C242.774 26.7487 244.607 22.8062 246.481 18.9212C248.354 15.0362 250.139 11.5779 251.836 8.54621C252.41 7.49137 253.217 6.58094 254.196 5.88372C255.164 5.19872 256.596 4.93623 258.491 5.09623C260.144 5.17789 261.616 5.30871 262.908 5.48871C264.2 5.66871 265.38 5.88039 266.448 6.12373C267.516 6.36539 268.505 6.62789 269.413 6.91123C270.321 7.19456 271.238 7.45705 272.163 7.69871C273.413 8.14371 274.21 8.72706 274.553 9.44872C274.896 10.1704 275.007 11.1179 274.886 12.2912C274.644 15.1562 274.442 18.4437 274.281 22.1537C274.119 25.8637 273.998 29.7354 273.918 33.7687C273.836 37.8021 273.786 41.8454 273.768 45.8987C273.75 49.9521 273.76 53.7129 273.798 57.1812C273.798 57.9079 273.646 58.4121 273.343 58.6937C273.04 58.9754 272.364 59.1162 271.316 59.1162C270.266 59.1162 269.297 59.0862 268.411 59.0262C267.482 58.9568 266.566 58.7634 265.688 58.4512C264.72 58.1679 264.044 57.8046 263.661 57.3612C263.277 56.9179 263.005 56.1312 262.843 55.0012C262.676 53.8346 262.536 52.5537 262.421 51.1587C262.306 49.7637 262.185 48.2412 262.058 46.5912C259.036 46.9979 256.023 47.4129 253.018 47.8362ZM255.983 37.3987C257.816 37.1971 259.661 37.0354 261.518 36.9137C261.436 33.6071 261.376 30.3096 261.336 27.0212C261.296 23.7329 261.316 20.4754 261.398 17.2487C259.785 20.1937 258.041 23.4504 256.166 27.0187C254.291 30.5871 252.401 34.2896 250.498 38.1262C252.32 37.8446 254.148 37.6021 255.983 37.3987Z" />
<path d="M338.234 23.4857C337.104 27.2373 335.985 31.089 334.876 35.0407C333.768 38.9923 332.699 42.9248 331.669 46.8382C330.641 50.7515 329.724 54.3815 328.919 57.7282C328.919 58.2932 328.767 58.6665 328.464 58.8482C328.08 59.0503 327.646 59.1371 327.214 59.0982C326.59 59.0619 325.972 58.9605 325.369 58.7957C324.662 58.614 323.906 58.4223 323.101 58.2207C321.446 57.7373 320.156 57.1423 319.229 56.4357C318.302 55.729 318.02 54.6498 318.381 53.1982C318.548 51.7465 318.79 50.0723 319.106 48.1757C319.423 46.279 319.806 44.1615 320.256 41.8232C318.563 42.0648 316.896 42.2965 315.256 42.5182C313.616 42.7398 311.95 42.9898 310.256 43.2682C309.611 46.0515 309.087 48.6632 308.684 51.1032C308.281 53.5432 307.917 55.7315 307.594 57.6682C307.427 58.3532 307.177 58.7965 306.844 58.9982C306.511 59.1998 305.815 59.1798 304.756 58.9382C303.748 58.6548 302.71 58.3723 301.641 58.0907C300.68 57.8511 299.756 57.4846 298.891 57.0007C297.965 56.5573 297.298 56.0432 296.891 55.4582C296.485 54.8732 296.401 54.0565 296.641 53.0082C297.246 50.2248 297.811 46.9748 298.336 43.2582C298.861 39.5415 299.366 35.6698 299.849 31.6432C300.332 27.6098 300.806 23.5865 301.271 19.5732C301.736 15.5598 302.211 11.859 302.694 8.47068C303.016 7.18068 303.48 6.41401 304.086 6.17068C304.693 5.92734 305.581 6.02818 306.749 6.47318C308.16 6.87952 309.545 7.37468 310.894 7.95568C312.24 8.51642 313.53 9.20103 314.749 10.0007C315.257 10.293 315.734 10.6373 316.171 11.0282C316.475 11.2995 316.721 11.6283 316.896 11.9957C317.04 12.3399 317.092 12.7155 317.046 13.0857C316.992 13.5546 316.909 14.0197 316.796 14.4782C316.15 16.7765 315.474 19.479 314.769 22.5857L312.501 32.5682C314.195 32.3665 315.861 32.2048 317.501 32.0832C319.141 31.9615 320.725 31.8407 322.251 31.7207C323.251 27.4457 324.23 23.2007 325.186 18.9857C326.143 14.7707 327.081 10.9465 327.999 7.51318C328.362 6.22318 328.876 5.48734 329.541 5.30568C330.206 5.12401 331.164 5.21484 332.414 5.57818C333.66 5.92954 334.874 6.38446 336.044 6.93818C337.276 7.51384 338.469 8.17113 339.614 8.90568C340.662 9.67234 341.297 10.339 341.519 10.9057C341.741 11.4723 341.69 12.279 341.366 13.3257C340.406 16.349 339.362 19.7357 338.234 23.4857Z" />
<path d="M357.382 11.9977C357.604 12.5627 357.574 13.3893 357.292 14.4777C356.727 16.2927 356.112 18.3702 355.447 20.7102C354.782 23.0502 354.116 25.521 353.447 28.1227C352.781 30.7243 352.125 33.386 351.48 36.1077C350.835 38.8293 350.21 41.491 349.605 44.0927C349 46.6943 348.446 49.1543 347.942 51.4727C347.439 53.791 347.006 55.8577 346.642 57.6727C346.439 58.3577 346.166 58.801 345.825 59.0027C345.483 59.2043 344.787 59.1843 343.737 58.9427C342.687 58.6593 341.687 58.3768 340.737 58.0952C339.806 57.8201 338.905 57.4551 338.045 57.0052C337.118 56.5618 336.503 56.0477 336.2 55.4627C335.896 54.8777 335.806 54.061 335.927 53.0127C336.009 51.601 336.181 49.776 336.442 47.5377C336.704 45.2993 337.026 42.8493 337.41 40.1877C337.793 37.521 338.226 34.7177 338.71 31.7777C339.193 28.8377 339.687 25.9535 340.192 23.1252C340.692 20.3018 341.206 17.6293 341.735 15.1077C342.263 12.586 342.747 10.3777 343.187 8.48267C343.551 7.316 344.045 6.60017 344.67 6.33517C345.295 6.07017 346.232 6.12017 347.482 6.48517C348.87 6.858 350.226 7.34378 351.535 7.93767C352.864 8.51538 354.142 9.2045 355.355 9.99767C356.483 10.761 357.159 11.4277 357.382 11.9977Z" />
<path d="M354.688 45.1426C355.488 45.0225 356.299 44.9823 357.108 45.0226C357.897 45.0602 358.679 45.192 359.438 45.4151C360.157 45.6246 360.84 45.9406 361.465 46.3526C364.894 48.4909 367.879 49.8626 370.42 50.4676C372.962 51.0726 374.795 50.9109 375.92 49.9826C376.404 49.6609 376.514 49.2676 376.253 48.8026C375.851 48.1845 375.343 47.6421 374.753 47.2001C374.006 46.5951 373.079 45.9284 371.97 45.2001C370.862 44.4717 369.682 43.7217 368.43 42.9501C367.179 42.1851 365.929 41.3884 364.68 40.5601C363.504 39.7922 362.373 38.9575 361.293 38.0601C360.164 37.1763 359.156 36.1494 358.293 35.0051C357.435 33.8734 356.751 32.6195 356.265 31.285C355.776 29.9251 355.51 28.495 355.478 27.0501C355.454 25.4473 355.699 23.8519 356.203 22.3301C356.626 20.7327 357.245 19.1936 358.045 17.7476C358.936 16.0987 359.968 14.5304 361.13 13.0601C362.323 11.5436 363.639 10.1272 365.063 8.82505C366.418 7.573 367.886 6.44904 369.448 5.46755C370.032 5.04681 370.661 4.69135 371.323 4.40755C372.155 4.04804 373.029 3.79601 373.925 3.65755C374.965 3.49354 376.02 3.44325 377.07 3.50755C378.258 3.57965 379.433 3.79281 380.57 4.14255C382.451 4.8171 384.28 5.62584 386.045 6.56255C387.712 7.41552 389.266 8.47192 390.673 9.70755C391.404 10.3814 392.035 11.1558 392.548 12.0076C392.964 12.71 393.279 13.4674 393.485 14.2576C393.663 14.9604 393.764 15.6804 393.788 16.405C393.808 17.1117 393.818 17.7675 393.818 18.3726C393.651 19.4225 393.429 20.6126 393.153 21.9426C392.876 23.2726 392.543 24.6234 392.153 25.9951C391.769 27.3667 391.366 28.6776 390.943 29.9276C390.59 31.0075 390.156 32.0589 389.643 33.0726C389.159 33.8792 388.665 34.3934 388.16 34.6151C387.655 34.8367 386.899 34.7259 385.893 34.2826C380.366 32.4276 377.825 29.7659 378.27 26.2976C378.37 25.4624 378.521 24.6342 378.723 23.8176C378.944 22.8909 379.166 21.9534 379.388 21.0051C379.609 20.0567 379.801 19.1592 379.963 18.3126C380.113 17.6478 380.164 16.9647 380.115 16.2851C380.055 15.7851 379.854 15.4825 379.51 15.3775C379.167 15.2725 378.613 15.5042 377.848 16.0726C377.026 16.5335 376.264 17.0926 375.578 17.7375C374.726 18.507 373.941 19.3467 373.23 20.2476C372.479 21.2015 371.821 22.2244 371.263 23.3026C370.716 24.3378 370.328 25.4494 370.113 26.6001C369.91 27.6819 369.93 28.7938 370.173 29.8676C370.442 30.9849 371.054 31.9901 371.923 32.7425C373.141 33.911 374.456 34.9732 375.855 35.9175C377.307 36.9059 378.749 37.8642 380.18 38.7925C381.612 39.7209 382.963 40.6375 384.233 41.5425C385.385 42.3455 386.44 43.2792 387.378 44.3251C388.152 45.1728 388.693 46.2062 388.95 47.3251C389.172 48.3751 388.96 49.5042 388.315 50.7126C387.837 51.6801 387.27 52.6008 386.62 53.4626C385.808 54.5317 384.827 55.4606 383.715 56.2126C382.355 57.1322 380.866 57.8458 379.298 58.3301C377.563 58.8951 375.485 59.1976 373.065 59.2376C369.802 59.3198 366.558 58.7239 363.538 57.4876C360.451 56.2376 357.274 54.0801 354.008 51.0151C352.233 49.5151 351.305 48.3659 351.225 47.5676C351.145 46.8026 351.529 46.2192 352.375 45.8176C353.112 45.4886 353.89 45.2616 354.688 45.1426Z" />
<path d="M426.323 16.0727C424.467 16.2543 422.55 16.446 420.573 16.6477L417.941 27.1752C417.034 30.8052 416.157 34.4052 415.308 37.9752C414.46 41.5452 413.663 45.0243 412.918 48.4127C412.172 51.801 411.516 54.9677 410.951 57.9127C410.869 58.4777 410.678 58.851 410.376 59.0327C409.992 59.2347 409.558 59.3216 409.126 59.2827C408.51 59.2458 407.9 59.1341 407.311 58.9502C406.624 58.7485 405.858 58.5268 405.011 58.2852C404.23 58.066 403.462 57.8031 402.711 57.4977C402.084 57.2517 401.501 56.9046 400.986 56.4702C400.536 56.0894 400.192 55.5996 399.986 55.0477C399.779 54.4108 399.759 53.7284 399.926 53.0802C400.046 51.1435 400.287 48.7635 400.651 45.9402C401.014 43.1168 401.448 40.1318 401.951 36.9852C402.451 33.8385 403.006 30.6618 403.616 27.4552C404.226 24.2485 404.831 21.2743 405.431 18.5327C404.264 18.7343 403.135 18.906 402.043 19.0477C401.125 19.1567 400.215 19.3287 399.321 19.5627C398.313 19.8043 397.486 19.8343 396.841 19.6527C396.196 19.471 395.47 18.9568 394.663 18.1102C393.738 17.1573 392.953 16.0773 392.333 14.9027C391.628 13.6127 391.053 12.5235 390.608 11.6352C390.125 10.7085 390.004 10.0935 390.246 9.79016C390.487 9.48682 390.992 9.23682 391.758 9.04016C394.138 8.55682 396.831 8.11349 399.836 7.71016C402.841 7.30682 405.906 6.94349 409.031 6.62016C412.156 6.29849 415.222 6.02599 418.228 5.80266C421.235 5.57932 423.927 5.42766 426.306 5.34766C427.556 5.34766 428.453 5.45849 428.998 5.68016C429.564 5.91903 430.056 6.3059 430.421 6.80016C431.22 7.71451 431.892 8.73191 432.421 9.82516C432.922 10.8547 433.327 11.9284 433.631 13.0327C433.873 13.961 433.883 14.596 433.661 14.9377C433.439 15.2793 432.703 15.491 431.453 15.5727C429.888 15.7243 428.178 15.891 426.323 16.0727Z" />
<path d="M467.732 14.1961C468.472 15.6968 468.992 17.2967 469.274 18.9461C469.726 22.1221 469.827 25.338 469.577 28.5361C469.329 32.0157 468.731 35.4615 467.792 38.8211C466.867 42.1727 465.568 45.4096 463.919 48.4711C462.385 51.3693 460.347 53.9708 457.899 56.1536C456.404 57.3417 454.671 58.1943 452.817 58.6536C451.042 59.077 449.005 59.1678 446.707 58.9261C445.122 58.7581 443.548 58.5077 441.989 58.1761C440.455 57.8618 438.969 57.343 437.572 56.6336C436.425 56.0303 435.349 55.2999 434.364 54.4561C433.353 53.6148 432.511 52.5881 431.884 51.4311C430.871 49.4446 430.138 47.3268 429.707 45.1386C429.215 42.7104 428.992 40.2356 429.042 37.7586C429.15 32.3464 430.3 27.0056 432.429 22.0286C433.518 19.4869 434.866 17.0641 436.452 14.7986C438.039 12.5307 439.903 10.4691 441.999 8.66114C443.512 7.52251 445.226 6.68097 447.052 6.18114C448.859 5.62605 450.766 5.47834 452.637 5.74864C454.876 6.09671 457.075 6.66445 459.202 7.44364C461.062 8.09223 462.808 9.03137 464.374 10.2261C465.906 11.4828 467.025 12.8061 467.732 14.1961ZM451.789 17.3411C450.573 18.5416 449.516 19.8935 448.644 21.3636C447.533 23.1773 446.552 25.068 445.709 27.0211C444.846 28.9786 444.109 30.9894 443.502 33.0411C442.931 34.9688 442.526 36.9418 442.292 38.9386C442.053 40.8244 441.97 42.7267 442.042 44.6261C442.081 46.1619 442.368 47.6813 442.889 49.1261C443.374 50.3761 444.08 51.1428 445.007 51.4261C445.854 51.7095 446.741 51.5278 447.669 50.8811C448.598 50.2345 449.525 49.2461 450.452 47.9161C451.499 46.3722 452.383 44.7243 453.092 42.9986C453.958 40.9247 454.676 38.7919 455.239 36.6161C455.796 34.562 456.22 32.4744 456.509 30.3661C456.82 28.2526 456.982 26.1199 456.994 23.9836C457.026 22.2419 456.833 20.5034 456.419 18.8111C456.036 17.3795 455.441 16.5461 454.634 16.3111C453.786 16.0111 452.838 16.3553 451.789 17.3436V17.3411Z" />
<path d="M481.886 50.9512C481.421 53.2112 480.967 55.4295 480.523 57.6062C480.322 58.2512 480.049 58.6745 479.706 58.8762C479.362 59.0778 478.727 59.0778 477.801 58.8762C476.712 58.5928 475.744 58.3712 474.896 58.2112C474.051 58.0508 473.236 57.7651 472.476 57.3637C471.796 57.0089 471.245 56.448 470.903 55.7612C470.622 55.1362 470.521 54.3028 470.601 53.2612C470.682 52.4145 470.793 51.1845 470.933 49.5712C471.073 47.9578 471.245 46.1328 471.448 44.0962C471.652 42.0595 471.883 39.8712 472.143 37.5312C472.403 35.1912 472.688 32.847 472.998 30.4987C473.3 28.1653 473.633 25.8962 473.998 23.6912C474.363 21.4862 474.747 19.5095 475.148 17.7612C475.468 16.2746 475.913 14.8177 476.478 13.4062C476.963 12.2562 477.467 11.5403 477.991 11.2587C480.491 10.1303 483.102 9.02116 485.826 7.93116C488.421 6.87877 491.118 6.09794 493.873 5.60116C496.349 5.1406 498.884 5.10003 501.373 5.48116C503.723 5.86022 505.892 6.97136 507.573 8.65616C508.987 10.1914 510.272 11.8403 511.416 13.5862C512.566 15.3412 513.463 17.4887 514.108 20.0287C514.632 22.732 514.43 24.9503 513.503 26.6837C512.09 29.467 509.757 32.0278 506.503 34.3662C503.25 36.7045 499.367 38.8828 494.856 40.9012C495.782 41.9512 496.801 43.0603 497.911 44.2287C499.021 45.397 500.16 46.5637 501.328 47.7287C502.495 48.8953 503.654 50.0245 504.806 51.1162C505.957 52.2078 507.037 53.1553 508.043 53.9587C508.85 54.6453 509.213 55.1895 509.133 55.5912C509.053 55.9928 508.71 56.4162 508.103 56.8612C507.377 57.4262 506.762 57.7595 506.258 57.8612C505.755 57.9628 505.14 58.0737 504.413 58.1937C503.456 58.4409 502.461 58.5129 501.478 58.4062C500.408 58.3045 499.168 57.8303 497.758 56.9837C496.83 56.3387 495.761 55.532 494.551 54.5637C493.341 53.5953 492.091 52.5262 490.801 51.3562C489.509 50.1895 488.218 48.9695 486.928 47.6962C485.691 46.4814 484.523 45.1986 483.428 43.8537C482.863 46.327 482.349 48.6928 481.886 50.9512ZM488.026 25.9037C487.421 28.237 486.735 30.737 485.968 33.4037C488.566 32.5669 491.055 31.4239 493.383 29.9987C495.323 28.8139 497.137 27.4352 498.798 25.8837C500.25 24.492 501.298 23.1712 501.943 21.9212C502.588 20.6712 502.79 19.697 502.548 18.9987C502.065 17.8703 500.633 17.3053 498.253 17.3037C496.951 17.325 495.654 17.474 494.381 17.7487C492.827 18.0804 491.323 18.6088 489.903 19.3212C489.258 21.3712 488.633 23.5653 488.028 25.9037H488.026Z" />
<path d="M532.999 11.9977C533.221 12.5627 533.191 13.3893 532.909 14.4777C532.344 16.2927 531.729 18.3702 531.064 20.7102C530.399 23.0502 529.733 25.521 529.064 28.1227C528.398 30.7243 527.743 33.386 527.099 36.1077C526.456 38.8293 525.831 41.491 525.224 44.0927C524.619 46.6943 524.064 49.1543 523.559 51.4727C523.054 53.791 522.621 55.8577 522.259 57.6727C522.058 58.3577 521.785 58.801 521.442 59.0027C521.099 59.2043 520.403 59.1843 519.354 58.9427C518.304 58.6593 517.304 58.3768 516.354 58.0952C515.424 57.8202 514.522 57.4551 513.662 57.0052C512.735 56.5618 512.12 56.0477 511.817 55.4627C511.514 54.8777 511.423 54.061 511.544 53.0127C511.626 51.601 511.798 49.776 512.059 47.5377C512.321 45.2993 512.644 42.8493 513.027 40.1877C513.41 37.521 513.844 34.7177 514.327 31.7777C514.81 28.8377 515.304 25.9535 515.809 23.1252C516.309 20.3018 516.824 17.6293 517.352 15.1077C517.88 12.586 518.364 10.3777 518.804 8.48267C519.168 7.316 519.662 6.60017 520.287 6.33517C520.912 6.07017 521.849 6.12017 523.099 6.48517C524.488 6.85798 525.843 7.34376 527.152 7.93767C528.485 8.51487 529.766 9.20401 530.982 9.99767C532.112 10.761 532.784 11.4277 532.999 11.9977Z" />
<path d="M549.225 47.8362C546.546 48.196 543.89 48.711 541.27 49.3787C540.464 50.9521 539.758 52.4137 539.153 53.7637C538.548 55.1137 537.964 56.4346 537.403 57.7262C537.079 58.4112 536.686 58.8146 536.223 58.9362C535.759 59.0579 535.064 58.9571 534.135 58.6337C533.61 58.4321 533.035 58.2004 532.41 57.9387C531.785 57.6771 531.15 57.3846 530.505 57.0612C530.022 56.7396 529.598 56.4671 529.235 56.2437C528.87 56.0401 528.568 55.7411 528.36 55.3786C528.152 55.0162 528.047 54.604 528.055 54.1862C528.063 53.4975 528.175 52.814 528.388 52.1587C529.356 49.3754 530.617 46.1087 532.17 42.3587C533.723 38.6087 535.395 34.7387 537.185 30.7487C538.979 26.7487 540.812 22.8062 542.685 18.9212C544.559 15.0362 546.343 11.5779 548.04 8.54621C548.615 7.49137 549.422 6.58094 550.4 5.88372C551.369 5.19872 552.8 4.93623 554.695 5.09623C556.349 5.17789 557.821 5.30871 559.113 5.48871C560.404 5.66871 561.584 5.88039 562.653 6.12373C563.721 6.36539 564.709 6.62789 565.618 6.91123C566.526 7.19456 567.443 7.45705 568.368 7.69871C569.618 8.14371 570.414 8.72706 570.758 9.44872C571.101 10.1704 571.212 11.1179 571.09 12.2912C570.849 15.1562 570.647 18.4437 570.485 22.1537C570.323 25.8637 570.203 29.7354 570.123 33.7687C570.041 37.8021 569.991 41.8454 569.973 45.8987C569.954 49.9521 569.964 53.7129 570.003 57.1812C570.003 57.9079 569.851 58.4121 569.548 58.6937C569.244 58.9754 568.569 59.1162 567.52 59.1162C566.47 59.1162 565.502 59.0862 564.615 59.0262C563.686 58.9568 562.77 58.7634 561.893 58.4512C560.924 58.1679 560.248 57.8046 559.865 57.3612C559.482 56.9179 559.209 56.1312 559.048 55.0012C558.881 53.8346 558.74 52.5537 558.625 51.1587C558.51 49.7637 558.389 48.2412 558.263 46.5912C555.243 46.9979 552.23 47.4129 549.225 47.8362ZM552.19 37.3987C554.024 37.1971 555.868 37.0354 557.725 36.9137C557.643 33.6071 557.583 30.3096 557.543 27.0212C557.503 23.7329 557.523 20.4762 557.603 17.2512C555.989 20.1962 554.245 23.4529 552.37 27.0212C550.495 30.5896 548.609 34.2904 546.713 38.1237C548.529 37.8437 550.355 37.6021 552.19 37.3987Z" />
</svg>
