<svg xmlns="http://www.w3.org/2000/svg" viewBox="0 0 988 232"><defs><style>.cls-1{fill:#fd1717;}.cls-2{fill:#fff;}.cls-3{fill:#ffa600;}</style></defs><title>pag web reemplazar</title><g id="Capa_2" data-name="Capa 2"><path class="cls-1" d="M97.36,84.17a327,327,0,0,0-30.77,27.77c-.1-15.61-.24-31.21-.92-46.83-.66-17.53-1.48-35.05-3.2-52.58-1.73,17.53-2.53,35.05-3.21,52.58-.67,15.62-.81,31.22-.92,46.83A325.7,325.7,0,0,0,27.57,84.17c9.28,13,19.78,24.89,30.62,36.41C47.34,132.1,36.83,144,27.57,157a321.14,321.14,0,0,0,30.82-27.8c.1,13.7.27,27.39.86,41.1l1.17,26.28c.69,8.77,1.1,17.54,2.05,26.3.94-8.76,1.36-17.53,2.05-26.3l1.16-26.28c.6-13.71.76-27.4.87-41.1A323.58,323.58,0,0,0,97.36,157c-9.26-13-19.75-24.9-30.6-36.42C77.6,109.05,88.09,97.2,97.36,84.17"/><path class="cls-1" d="M956.45,84.17a327,327,0,0,0-30.77,27.77c-.1-15.61-.24-31.21-.92-46.83-.66-17.53-1.48-35.05-3.2-52.58-1.73,17.53-2.53,35.05-3.21,52.58-.67,15.62-.81,31.22-.92,46.83a325.7,325.7,0,0,0-30.77-27.77c9.28,13,19.78,24.89,30.62,36.41C906.43,132.1,895.92,144,886.66,157a321.14,321.14,0,0,0,30.82-27.8c.1,13.7.27,27.39.86,41.1l1.17,26.28c.69,8.77,1.1,17.54,2.05,26.3.94-8.76,1.36-17.53,2.05-26.3l1.16-26.28c.6-13.71.76-27.4.87-41.1A323.58,323.58,0,0,0,956.45,157c-9.26-13-19.75-24.9-30.6-36.42,10.84-11.53,21.34-23.38,30.6-36.41"/><path class="cls-2" d="M172.72,158.59q-1.24,6.25-2.18,12.25a4.06,4.06,0,0,1-1.65,2.47q-1.06.59-4.12,0l-6-1.59a22.52,22.52,0,0,1-5.13-2,8.66,8.66,0,0,1-3.36-3.12,6.61,6.61,0,0,1-.41-4.95,48.13,48.13,0,0,0,1.94-9.54q.88-6.72,1.59-15.26t1.41-17.73q.71-9.19,1.41-17t1.59-13q.88-5.24,2.06-5.83,4.48-2.36,9.9-4.89T181,73.82a105.76,105.76,0,0,1,11.61-3.42,55.11,55.11,0,0,1,11.25-1.47A33.38,33.38,0,0,1,214,70.17,19.17,19.17,0,0,1,222,74.82a81,81,0,0,1,7.36,9.6A41.35,41.35,0,0,1,234.64,97a19,19,0,0,1-1.36,12.84,28.48,28.48,0,0,1-3.42,5.42,59.81,59.81,0,0,1-4.54,5.07,64.42,64.42,0,0,1-9.6,7.78,109,109,0,0,1-12.19,7.07,133.38,133.38,0,0,1-13.84,5.95q-7.25,2.65-14.31,4.54Q174,152.35,172.72,158.59Zm22.33-41.53a53.87,53.87,0,0,0,10.25-7.89,26.93,26.93,0,0,0,5.66-7.83q1.65-3.77.71-6.36-.35-1.41-2.53-2.18a15.35,15.35,0,0,0-5.54-.65,41.33,41.33,0,0,0-7.54,1.06A48.51,48.51,0,0,0,187.51,96q-1.89,6.36-3.59,13.2t-3.48,14.26A64.19,64.19,0,0,0,195.05,117.06Z"/><path class="cls-2" d="M253.08,157.18q-1.36,6.6-2.65,13a4.19,4.19,0,0,1-1.59,2.47q-1,.59-3.71,0-3.18-.83-5.65-1.3a16.79,16.79,0,0,1-4.71-1.65,7.07,7.07,0,0,1-3.06-3.12,10.15,10.15,0,0,1-.59-4.89q.24-2.47.65-7.19t1-10.66q.59-5.95,1.36-12.78t1.65-13.67q.88-6.83,1.94-13.25t2.24-11.55a52.58,52.58,0,0,1,2.59-8.48q1.42-3.36,2.95-4.18,7.3-3.3,15.26-6.48a79,79,0,0,1,15.67-4.54A43.7,43.7,0,0,1,291,68.63a22,22,0,0,1,12.08,6.19,74.19,74.19,0,0,1,7.48,9.6A41.35,41.35,0,0,1,315.82,97q1.53,7.89-1.18,13-4.13,8.13-13.61,15a128.18,128.18,0,0,1-22.68,12.72q2.71,3.07,5.95,6.48t6.66,6.83q3.42,3.42,6.78,6.6t6.3,5.54q2.36,2,2.12,3.18a4.56,4.56,0,0,1-2,2.47,9.33,9.33,0,0,1-3.59,1.94q-1.48.3-3.59.65a16,16,0,0,1-5.71.41A17.93,17.93,0,0,1,284,169q-2.71-1.88-6.24-4.71t-7.3-6.24q-3.77-3.42-7.54-7.13a91.1,91.1,0,0,1-6.83-7.48Q254.43,150.58,253.08,157.18Zm12-48.78q-1.77,6.83-4,14.61a67,67,0,0,0,14.43-6.66,65.36,65.36,0,0,0,10.54-8,30.49,30.49,0,0,0,6.13-7.72Q294,97,293.31,95q-1.42-3.3-8.37-3.3a38.79,38.79,0,0,0-7.54.82,36.38,36.38,0,0,0-8.72,3.06Q266.8,101.57,265,108.4Z"/><path class="cls-2" d="M388.45,85.6a33.74,33.74,0,0,1,3,9.25,85.43,85.43,0,0,1,.59,18.67,101.14,101.14,0,0,1-3.48,20A90.3,90.3,0,0,1,381,152.35a53.72,53.72,0,0,1-11.72,15,25.94,25.94,0,0,1-9.9,4.89,35.42,35.42,0,0,1-11.9.53,89.5,89.5,0,0,1-9.19-1.47,34.12,34.12,0,0,1-8.6-3,33.7,33.7,0,0,1-6.24-4.24,20.14,20.14,0,0,1-4.83-5.89,46.89,46.89,0,0,1-4.24-12.25,65.8,65.8,0,0,1-1.3-14.37,82,82,0,0,1,6.6-30.63,78.36,78.36,0,0,1,7.83-14.08,65,65,0,0,1,10.78-12A29.16,29.16,0,0,1,348.16,70a24.91,24.91,0,0,1,10.9-.82,67.19,67.19,0,0,1,12.78,3.3,36.35,36.35,0,0,1,10.07,5.42A24.44,24.44,0,0,1,388.45,85.6Zm-31,6.13a38.81,38.81,0,0,0-6.13,7.83,87.23,87.23,0,0,0-5.71,11,97.71,97.71,0,0,0-4.3,11.72,68.36,68.36,0,0,0-2.36,11.49,67.62,67.62,0,0,0-.47,11.08,27.89,27.89,0,0,0,1.65,8.78q1.41,3.65,4.12,4.48a5.66,5.66,0,0,0,5.18-1.06,22.83,22.83,0,0,0,5.42-5.77,52.76,52.76,0,0,0,5.13-9.6,92.18,92.18,0,0,0,4.18-12.43,97.4,97.4,0,0,0,2.47-12.19,89.16,89.16,0,0,0,.94-12.43,39.42,39.42,0,0,0-1.12-10.07q-1.12-4.18-3.47-4.89T357.41,91.73Z"/><path class="cls-2" d="M410.13,73a73.08,73.08,0,0,1,12.9-3.3,68.76,68.76,0,0,1,14-.82,45.77,45.77,0,0,1,13.79,2.71,39.75,39.75,0,0,1,12.31,7.25,38.93,38.93,0,0,1,9.54,12.84,39.22,39.22,0,0,1,4.12,13.9,48.42,48.42,0,0,1-.88,15.49,60.15,60.15,0,0,1-6,15.85,66.13,66.13,0,0,1-11,14.85,77.9,77.9,0,0,1-16.08,12.49,86.78,86.78,0,0,1-21.09,8.84q-6,2.12-12.61-1.06a61.78,61.78,0,0,1-5.77-3.24q-2.47-1.59-5.66-3.95-1.18-1.06-2.24-2.06a10.46,10.46,0,0,1-1.83-2.3,8.24,8.24,0,0,1-1-3.18,20.56,20.56,0,0,1,.12-4.83l6.83-74.82A72.72,72.72,0,0,1,410.13,73Zm21,72.22A60.22,60.22,0,0,0,442,133.73a49.49,49.49,0,0,0,6.36-12,42.54,42.54,0,0,0,2.47-11.19q.47-7.19-1.65-11.19a13.22,13.22,0,0,0-7.42-6q-5.3-2-13,.47-4.12,15.44-7.3,30.46t-6.13,30.34A62.88,62.88,0,0,0,431.16,145.22Z"/><path class="cls-2" d="M477.64,149.11a65.47,65.47,0,0,1-1.12-12.55,119,119,0,0,1,.94-14.49q.94-7.66,2.47-15.55t3.47-15.85q1.95-8,4.07-15.49.94-3.42,2.77-4.12t5.6.59a40.76,40.76,0,0,1,6.77,2.71,46.52,46.52,0,0,1,6.3,3.89q6.36,4.59,4.36,11.78-1.89,6.13-3.95,13.25t-3.83,14.43q-1.77,7.31-3,14.26A103,103,0,0,0,501,144.45a32.56,32.56,0,0,0,.59,9.19q.88,3.65,3.48,4.36,3.18.83,6.24-3.06a44.34,44.34,0,0,0,5.83-10.78,155.54,155.54,0,0,0,5.3-16q2.53-9.07,4.71-18.67t3.95-18.91q1.77-9.31,3.18-16.61.23-3.53,2.59-4.24a10.6,10.6,0,0,1,5.71.18,36.69,36.69,0,0,1,7.19,2.83q3.83,1.94,7,3.83a15.52,15.52,0,0,1,2.53,1.94,5.2,5.2,0,0,1,1.24,1.83,4.49,4.49,0,0,1,.24,2.06,23,23,0,0,1-.47,2.65q-3.54,16.85-7.13,30.93a253,253,0,0,1-7.6,24.92,93.34,93.34,0,0,1-8.72,18.14q-4.71,7.31-10.49,10.6a32.48,32.48,0,0,1-8.25,2.77,38.09,38.09,0,0,1-9.43.41q-10.61-.71-17.44-4.48a33.3,33.3,0,0,1-5.54-3.89,20.9,20.9,0,0,1-4.48-5.54A30.33,30.33,0,0,1,477.64,149.11Z"/><path class="cls-2" d="M619.73,149.87A11.69,11.69,0,0,1,617.9,156a33,33,0,0,1-5.42,7.78,44.69,44.69,0,0,1-6.6,5.89,24.75,24.75,0,0,1-3.95,2,31.75,31.75,0,0,1-4.83,1.53,37.68,37.68,0,0,1-5.3.82,30.66,30.66,0,0,1-5.36,0,44.36,44.36,0,0,1-10-1.71q-4.48-1.36-8-2.53a27,27,0,0,1-6.36-3.77,18.16,18.16,0,0,1-4.95-5.77,34.79,34.79,0,0,1-4.3-12,66.33,66.33,0,0,1-.88-14.73,88.43,88.43,0,0,1,2.3-16.14,95.64,95.64,0,0,1,5.36-16.2,89.85,89.85,0,0,1,8.19-14.9A63.16,63.16,0,0,1,578.67,74a25.11,25.11,0,0,1,10-5.54,29.2,29.2,0,0,1,9.54-.94,50.27,50.27,0,0,1,6.83,1.24,62.82,62.82,0,0,1,6.83,2.12,65,65,0,0,1,6.24,2.71,55,55,0,0,1,5.3,3,27.76,27.76,0,0,1,3.71,3.71A18.49,18.49,0,0,1,629.51,84,15.48,15.48,0,0,1,630.74,88a37,37,0,0,1,.47,4.42,55.06,55.06,0,0,1-.06,5.66q-.18,2.95-.53,5.83t-.94,5.54a48.44,48.44,0,0,1-1.3,4.77q-.35.94-.71,1.77a3.05,3.05,0,0,1-1,1.3,3.71,3.71,0,0,1-1.83.59,12.24,12.24,0,0,1-3.18-.24,28.13,28.13,0,0,1-6.48-1.94,15.8,15.8,0,0,1-4.48-2.95,13.44,13.44,0,0,1-2.83-3.95,19.06,19.06,0,0,1-1.53-5.18A32.53,32.53,0,0,1,606,99a37.83,37.83,0,0,0-.35-6.83,4.68,4.68,0,0,0-2.83-4q-2.36-.71-5.54,2.71a54,54,0,0,0-6.48,8.9,104.9,104.9,0,0,0-6.19,12.08,101.81,101.81,0,0,0-4.54,12.25,96,96,0,0,0-2.3,11.72,59.24,59.24,0,0,0-.53,10.6,25.58,25.58,0,0,0,1.53,8.07q1.29,3.3,3.77,4,4.71,1.53,14.38-8.37,6.95-7.07,18.14-3.89Q619.55,147.4,619.73,149.87Z"/><path class="cls-2" d="M698.26,89.25l-11.19,1.12-5.12,20.5q-2.65,10.6-5.12,21t-4.65,20.32q-2.18,9.9-3.83,18.5a2.85,2.85,0,0,1-1.12,2.18,4.35,4.35,0,0,1-2.41.47,14.84,14.84,0,0,1-3.54-.65l-4.48-1.3a42.24,42.24,0,0,1-4.48-1.53,12,12,0,0,1-3.36-2,6.71,6.71,0,0,1-1.94-2.77,6.87,6.87,0,0,1-.12-3.83q.35-5.66,1.41-13.9T650.83,130q1.47-9.19,3.24-18.56T657.61,94q-3.42.59-6.6,1a39.3,39.3,0,0,0-5.3,1,9.78,9.78,0,0,1-4.83.18,10.23,10.23,0,0,1-4.24-3A27.21,27.21,0,0,1,632.1,87q-2.06-3.77-3.36-6.36T628,77A5.65,5.65,0,0,1,631,75.53q6.95-1.41,15.73-2.59t17.91-2.12q9.13-.94,17.91-1.59t15.73-.88a15.19,15.19,0,0,1,5.24.65,6.68,6.68,0,0,1,2.77,2.18,26.45,26.45,0,0,1,3.89,5.89,36.06,36.06,0,0,1,2.36,6.24q.71,2.71.06,3.71t-4.3,1.24Z"/><path class="cls-2" d="M778.9,85.6a33.8,33.8,0,0,1,3,9.25,85.31,85.31,0,0,1,.59,18.67,101.07,101.07,0,0,1-3.47,20,90.41,90.41,0,0,1-7.54,18.79,53.76,53.76,0,0,1-11.72,15,25.94,25.94,0,0,1-9.9,4.89,35.42,35.42,0,0,1-11.9.53,89.5,89.5,0,0,1-9.19-1.47,34.1,34.1,0,0,1-8.6-3,33.63,33.63,0,0,1-6.24-4.24,20.14,20.14,0,0,1-4.83-5.89,46.79,46.79,0,0,1-4.24-12.25,65.8,65.8,0,0,1-1.3-14.37,82.05,82.05,0,0,1,6.6-30.63A78.43,78.43,0,0,1,718,86.78a65,65,0,0,1,10.78-12A29.16,29.16,0,0,1,738.61,70a24.91,24.91,0,0,1,10.9-.82,67.19,67.19,0,0,1,12.78,3.3,36.35,36.35,0,0,1,10.07,5.42A24.49,24.49,0,0,1,778.9,85.6Zm-31,6.13a38.88,38.88,0,0,0-6.13,7.83,87.1,87.1,0,0,0-5.71,11,97.38,97.38,0,0,0-4.3,11.72,68.46,68.46,0,0,0-2.36,11.49,67.72,67.72,0,0,0-.47,11.08,27.89,27.89,0,0,0,1.65,8.78q1.41,3.65,4.12,4.48a5.67,5.67,0,0,0,5.18-1.06,22.86,22.86,0,0,0,5.42-5.77,52.82,52.82,0,0,0,5.13-9.6,92.45,92.45,0,0,0,4.18-12.43A97.06,97.06,0,0,0,757,117.06a88.88,88.88,0,0,0,.94-12.43,39.42,39.42,0,0,0-1.12-10.07q-1.12-4.18-3.48-4.89T747.86,91.73Z"/><path class="cls-2" d="M782.85,145.87a23.81,23.81,0,0,1,4.71-.24,19.33,19.33,0,0,1,4.54.77,14.57,14.57,0,0,1,3.95,1.83q10,6.25,17.44,8t10.72-.94a1.56,1.56,0,0,0,.65-2.3,12.22,12.22,0,0,0-2.95-3.12q-2.18-1.77-5.42-3.89t-6.89-4.36q-3.65-2.24-7.3-4.65a71.57,71.57,0,0,1-6.6-4.89,32.11,32.11,0,0,1-5.83-5.95,27.69,27.69,0,0,1-3.95-7.25,26,26,0,0,1-1.53-8.25,28,28,0,0,1,1.41-9.19,39.1,39.1,0,0,1,3.59-9,62.9,62.9,0,0,1,6-9.13,69,69,0,0,1,7.66-8.25,58.18,58.18,0,0,1,8.54-6.54,19.13,19.13,0,0,1,3.65-2.06A20.77,20.77,0,0,1,820.31,65a28.21,28.21,0,0,1,6.13-.29A29.23,29.23,0,0,1,833.27,66a81.38,81.38,0,0,1,10.66,4.71,44.14,44.14,0,0,1,9,6.13,20.52,20.52,0,0,1,3.65,4.48,17,17,0,0,1,1.83,4.36,19.75,19.75,0,0,1,.59,4.18q.06,2.06.06,3.83-.47,3.07-1.29,7t-1.95,7.89q-1.12,4-2.36,7.66a43.32,43.32,0,0,1-2.53,6.13,7.09,7.09,0,0,1-2.89,3q-1.47.65-4.42-.65-16.14-5.42-14.85-15.55a40,40,0,0,1,.88-4.83q.65-2.71,1.3-5.48t1.12-5.24a13.62,13.62,0,0,0,.29-3.95c-.12-1-.51-1.57-1.18-1.77s-1.75.26-3.24,1.35a22.55,22.55,0,0,0-4.42,3.24,39.91,39.91,0,0,0-4.6,4.95,37.39,37.39,0,0,0-3.83,5.95,22.77,22.77,0,0,0-2.24,6.42,15.74,15.74,0,0,0,.12,6.36,10.72,10.72,0,0,0,3.42,5.6,57.68,57.68,0,0,0,7.66,6.19q4.24,2.89,8.42,5.6t7.89,5.36a35.42,35.42,0,0,1,6.13,5.42,13,13,0,0,1,3.06,5.83,9.64,9.64,0,0,1-1.24,6.6,33.76,33.76,0,0,1-3.3,5.36,23.94,23.94,0,0,1-5.66,5.36,32.43,32.43,0,0,1-8.6,4.12,41.74,41.74,0,0,1-12.14,1.77,45.94,45.94,0,0,1-18.56-3.42q-9-3.65-18.56-12.61-5.18-4.36-5.42-6.72t2.24-3.42A17.33,17.33,0,0,1,782.85,145.87Z"/><path class="cls-3" d="M178.62,153.59q-1.24,6.25-2.18,12.25a4.06,4.06,0,0,1-1.65,2.47q-1.06.59-4.12,0l-6-1.59a22.49,22.49,0,0,1-5.12-2,8.65,8.65,0,0,1-3.36-3.12,6.6,6.6,0,0,1-.41-4.95,48.2,48.2,0,0,0,1.94-9.54q.88-6.72,1.59-15.26t1.41-17.73q.71-9.19,1.41-17t1.59-13q.88-5.24,2.06-5.83,4.48-2.36,9.9-4.89t11.19-4.59a105.76,105.76,0,0,1,11.61-3.42,55.12,55.12,0,0,1,11.25-1.47,33.38,33.38,0,0,1,10.07,1.24,19.17,19.17,0,0,1,8.07,4.65,80.84,80.84,0,0,1,7.36,9.6A41.35,41.35,0,0,1,240.54,92a19,19,0,0,1-1.36,12.84,28.49,28.49,0,0,1-3.42,5.42,60,60,0,0,1-4.54,5.07,64.52,64.52,0,0,1-9.6,7.78,109,109,0,0,1-12.2,7.07,133.45,133.45,0,0,1-13.84,5.95q-7.25,2.65-14.31,4.54Q179.86,147.34,178.62,153.59ZM201,112.05a53.9,53.9,0,0,0,10.25-7.89,26.9,26.9,0,0,0,5.66-7.83q1.65-3.77.71-6.36-.35-1.41-2.53-2.18a15.35,15.35,0,0,0-5.54-.65A41.33,41.33,0,0,0,202,88.2,48.48,48.48,0,0,0,193.41,91q-1.89,6.36-3.59,13.2t-3.47,14.26A64.19,64.19,0,0,0,201,112.05Z"/><path class="cls-3" d="M259,152.17q-1.36,6.6-2.65,13a4.19,4.19,0,0,1-1.59,2.47q-1,.59-3.71,0-3.18-.83-5.66-1.3a16.82,16.82,0,0,1-4.71-1.65,7.07,7.07,0,0,1-3.06-3.12,10.14,10.14,0,0,1-.59-4.89q.24-2.47.65-7.19t1-10.66q.59-5.95,1.36-12.78t1.65-13.67q.88-6.83,1.94-13.25t2.24-11.55a52.39,52.39,0,0,1,2.59-8.48q1.41-3.36,2.95-4.18,7.3-3.3,15.26-6.48a79,79,0,0,1,15.67-4.54,43.7,43.7,0,0,1,14.61-.24A22,22,0,0,1,309,69.82a74.11,74.11,0,0,1,7.48,9.6A41.35,41.35,0,0,1,321.72,92q1.53,7.89-1.18,13-4.12,8.13-13.61,15a128.15,128.15,0,0,1-22.68,12.72q2.71,3.07,6,6.48t6.66,6.83q3.42,3.42,6.78,6.6t6.3,5.54q2.36,2,2.12,3.18a4.56,4.56,0,0,1-2,2.47,9.32,9.32,0,0,1-3.59,1.94q-1.48.3-3.59.65a16,16,0,0,1-5.71.41A17.92,17.92,0,0,1,289.9,164q-2.71-1.88-6.24-4.71t-7.3-6.24q-3.77-3.42-7.54-7.13a90.94,90.94,0,0,1-6.83-7.48Q260.33,145.58,259,152.17Zm12-48.78q-1.77,6.83-4,14.61a67,67,0,0,0,14.43-6.66,65.32,65.32,0,0,0,10.54-8A30.49,30.49,0,0,0,298,95.62Q299.92,92,299.21,90q-1.41-3.3-8.37-3.3a38.79,38.79,0,0,0-7.54.82,36.35,36.35,0,0,0-8.72,3.06Q272.7,96.56,270.94,103.4Z"/><path class="cls-3" d="M394.35,80.6a33.74,33.74,0,0,1,3,9.25,85.37,85.37,0,0,1,.59,18.67,101.14,101.14,0,0,1-3.48,20,90.35,90.35,0,0,1-7.54,18.79,53.76,53.76,0,0,1-11.72,15,25.94,25.94,0,0,1-9.9,4.89,35.42,35.42,0,0,1-11.9.53,89.5,89.5,0,0,1-9.19-1.47,34.1,34.1,0,0,1-8.6-3,33.63,33.63,0,0,1-6.24-4.24,20.14,20.14,0,0,1-4.83-5.89,46.86,46.86,0,0,1-4.24-12.25,65.8,65.8,0,0,1-1.3-14.37,82,82,0,0,1,6.6-30.63,78.36,78.36,0,0,1,7.83-14.08,65,65,0,0,1,10.78-12A29.15,29.15,0,0,1,354.06,65a24.91,24.91,0,0,1,10.9-.82,67.19,67.19,0,0,1,12.78,3.3,36.33,36.33,0,0,1,10.07,5.42A24.44,24.44,0,0,1,394.35,80.6Zm-31,6.13a38.85,38.85,0,0,0-6.13,7.83,87.36,87.36,0,0,0-5.71,11,97.7,97.7,0,0,0-4.3,11.72,71.4,71.4,0,0,0-2.83,22.56,27.92,27.92,0,0,0,1.65,8.78q1.41,3.65,4.12,4.48a5.67,5.67,0,0,0,5.18-1.06,22.84,22.84,0,0,0,5.42-5.77,52.82,52.82,0,0,0,5.13-9.6A92.18,92.18,0,0,0,370,124.25a97,97,0,0,0,2.47-12.19,89,89,0,0,0,.94-12.43,39.42,39.42,0,0,0-1.12-10.07q-1.12-4.18-3.48-4.89T363.3,86.72Z"/><path class="cls-3" d="M416,68a73.09,73.09,0,0,1,12.9-3.3,68.75,68.75,0,0,1,14-.82,45.76,45.76,0,0,1,13.79,2.71A39.74,39.74,0,0,1,469,73.82a38.94,38.94,0,0,1,9.54,12.84,39.2,39.2,0,0,1,4.13,13.9,48.42,48.42,0,0,1-.88,15.49,60.11,60.11,0,0,1-5.95,15.85,66.1,66.1,0,0,1-11,14.85,77.88,77.88,0,0,1-16.08,12.49,86.77,86.77,0,0,1-21.09,8.84q-6,2.12-12.61-1.06a61.53,61.53,0,0,1-5.77-3.24q-2.48-1.59-5.66-3.95-1.17-1.06-2.24-2.06a10.43,10.43,0,0,1-1.83-2.3,8.24,8.24,0,0,1-1-3.18,20.57,20.57,0,0,1,.12-4.83l6.83-74.82A72.77,72.77,0,0,1,416,68Zm21,72.22a60.23,60.23,0,0,0,10.84-11.49,49.45,49.45,0,0,0,6.36-12,42.5,42.5,0,0,0,2.47-11.19q.47-7.19-1.65-11.19a13.22,13.22,0,0,0-7.42-6q-5.3-2-13,.47-4.13,15.44-7.3,30.46t-6.13,30.34A62.88,62.88,0,0,0,437.06,140.21Z"/><path class="cls-3" d="M483.54,144.1a65.47,65.47,0,0,1-1.12-12.55,118.82,118.82,0,0,1,.94-14.49q.94-7.66,2.47-15.55t3.48-15.85q1.95-8,4.06-15.49.94-3.42,2.77-4.12t5.6.59a40.72,40.72,0,0,1,6.77,2.71,46.54,46.54,0,0,1,6.3,3.89q6.36,4.59,4.36,11.78-1.89,6.13-3.95,13.25T511.4,112.7q-1.77,7.31-3,14.26a103.34,103.34,0,0,0-1.53,12.49,32.49,32.49,0,0,0,.59,9.19q.88,3.65,3.47,4.36,3.18.83,6.24-3.06A44.21,44.21,0,0,0,523,139.15a155,155,0,0,0,5.3-16q2.53-9.07,4.71-18.67T537,85.6q1.77-9.31,3.18-16.61.24-3.53,2.59-4.24a10.59,10.59,0,0,1,5.71.18,36.65,36.65,0,0,1,7.19,2.83q3.83,1.94,7,3.83a15.44,15.44,0,0,1,2.53,1.94,5.21,5.21,0,0,1,1.24,1.83,4.49,4.49,0,0,1,.23,2.06,22.21,22.21,0,0,1-.47,2.65q-3.53,16.85-7.13,30.93a253.51,253.51,0,0,1-7.6,24.92,93.34,93.34,0,0,1-8.72,18.14q-4.71,7.31-10.49,10.6a32.5,32.5,0,0,1-8.25,2.77,38.08,38.08,0,0,1-9.43.41q-10.6-.71-17.44-4.48a33.34,33.34,0,0,1-5.54-3.89,20.92,20.92,0,0,1-4.48-5.54A30.35,30.35,0,0,1,483.54,144.1Z"/><path class="cls-3" d="M625.63,144.87A11.69,11.69,0,0,1,623.8,151a33,33,0,0,1-5.42,7.78,44.64,44.64,0,0,1-6.6,5.89,24.75,24.75,0,0,1-3.95,2A31.74,31.74,0,0,1,603,168.2a37.67,37.67,0,0,1-5.3.82,30.65,30.65,0,0,1-5.36,0,44.38,44.38,0,0,1-10-1.71q-4.48-1.36-8-2.53A27,27,0,0,1,568,161a18.15,18.15,0,0,1-4.95-5.77,34.79,34.79,0,0,1-4.3-12,66.33,66.33,0,0,1-.88-14.73,88.26,88.26,0,0,1,2.3-16.14,95.64,95.64,0,0,1,5.36-16.2,89.85,89.85,0,0,1,8.19-14.9A63.22,63.22,0,0,1,584.57,69a25.11,25.11,0,0,1,10-5.54,29.2,29.2,0,0,1,9.54-.94A50.33,50.33,0,0,1,611,63.75a63,63,0,0,1,6.83,2.12A65.17,65.17,0,0,1,624,68.58a55,55,0,0,1,5.3,3,27.77,27.77,0,0,1,3.71,3.71A18.48,18.48,0,0,1,635.41,79,15.4,15.4,0,0,1,636.64,83a37.17,37.17,0,0,1,.47,4.42,55.33,55.33,0,0,1-.06,5.66q-.18,2.95-.53,5.83t-.94,5.54a48.71,48.71,0,0,1-1.3,4.77q-.35.94-.71,1.77a3,3,0,0,1-1,1.3,3.7,3.7,0,0,1-1.83.59,12.24,12.24,0,0,1-3.18-.24,28.13,28.13,0,0,1-6.48-1.94,15.81,15.81,0,0,1-4.48-2.95,13.44,13.44,0,0,1-2.83-3.95,19.09,19.09,0,0,1-1.53-5.18A32.67,32.67,0,0,1,611.9,94a37.65,37.65,0,0,0-.35-6.83,4.68,4.68,0,0,0-2.83-4q-2.36-.71-5.54,2.71a54,54,0,0,0-6.48,8.9,104.74,104.74,0,0,0-6.19,12.08A102,102,0,0,0,586,119.06a96.13,96.13,0,0,0-2.3,11.72,59.25,59.25,0,0,0-.53,10.6,25.58,25.58,0,0,0,1.53,8.07q1.29,3.3,3.77,4,4.71,1.53,14.37-8.37,7-7.07,18.14-3.89Q625.45,142.39,625.63,144.87Z"/><path class="cls-3" d="M704.16,84.25,693,85.37l-5.12,20.5q-2.65,10.6-5.12,21t-4.65,20.32q-2.18,9.9-3.83,18.5a2.85,2.85,0,0,1-1.12,2.18,4.36,4.36,0,0,1-2.42.47,14.85,14.85,0,0,1-3.54-.65l-4.48-1.3a42.22,42.22,0,0,1-4.48-1.53,12,12,0,0,1-3.36-2,6.72,6.72,0,0,1-1.94-2.77,6.88,6.88,0,0,1-.12-3.83q.35-5.66,1.41-13.9T656.73,125q1.47-9.19,3.24-18.56T663.51,89q-3.42.59-6.6,1a39.28,39.28,0,0,0-5.3,1,9.78,9.78,0,0,1-4.83.18,10.23,10.23,0,0,1-4.24-3A27.19,27.19,0,0,1,638,82q-2.06-3.77-3.36-6.36T633.93,72a5.65,5.65,0,0,1,2.95-1.47q7-1.41,15.73-2.59t17.91-2.12q9.13-.94,17.91-1.59t15.73-.88a15.19,15.19,0,0,1,5.24.65,6.67,6.67,0,0,1,2.77,2.18,26.46,26.46,0,0,1,3.89,5.89,36.06,36.06,0,0,1,2.36,6.24q.71,2.71.06,3.71t-4.3,1.24Z"/><path class="cls-3" d="M784.8,80.6a33.77,33.77,0,0,1,3,9.25,85.37,85.37,0,0,1,.59,18.67,101,101,0,0,1-3.48,20,90.4,90.4,0,0,1-7.54,18.79,53.74,53.74,0,0,1-11.72,15,25.94,25.94,0,0,1-9.9,4.89,35.42,35.42,0,0,1-11.9.53,89.54,89.54,0,0,1-9.19-1.47,34.1,34.1,0,0,1-8.6-3,33.67,33.67,0,0,1-6.25-4.24,20.14,20.14,0,0,1-4.83-5.89,46.86,46.86,0,0,1-4.24-12.25,65.8,65.8,0,0,1-1.3-14.37,82.05,82.05,0,0,1,6.6-30.63,78.37,78.37,0,0,1,7.84-14.08,65,65,0,0,1,10.78-12A29.16,29.16,0,0,1,744.51,65a24.91,24.91,0,0,1,10.9-.82,67.17,67.17,0,0,1,12.78,3.3,36.35,36.35,0,0,1,10.07,5.42A24.47,24.47,0,0,1,784.8,80.6Zm-31,6.13a38.81,38.81,0,0,0-6.13,7.83,87.23,87.23,0,0,0-5.71,11,97.54,97.54,0,0,0-4.3,11.72,68.46,68.46,0,0,0-2.36,11.49,67.62,67.62,0,0,0-.47,11.08,27.91,27.91,0,0,0,1.65,8.78q1.41,3.65,4.12,4.48a5.67,5.67,0,0,0,5.18-1.06,22.88,22.88,0,0,0,5.42-5.77,52.88,52.88,0,0,0,5.13-9.6,92.45,92.45,0,0,0,4.18-12.43,97.06,97.06,0,0,0,2.47-12.19,89,89,0,0,0,.94-12.43,39.41,39.41,0,0,0-1.12-10.07q-1.12-4.18-3.48-4.89T753.76,86.72Z"/><path class="cls-3" d="M788.75,140.86a23.81,23.81,0,0,1,4.71-.24,19.34,19.34,0,0,1,4.54.77,14.58,14.58,0,0,1,3.95,1.83q10,6.25,17.44,8t10.72-.94a1.56,1.56,0,0,0,.65-2.3,12.24,12.24,0,0,0-2.95-3.12q-2.18-1.77-5.42-3.89t-6.89-4.36q-3.65-2.24-7.3-4.65a71.59,71.59,0,0,1-6.6-4.89,32.14,32.14,0,0,1-5.83-5.95,27.66,27.66,0,0,1-3.95-7.25,26,26,0,0,1-1.53-8.25,28,28,0,0,1,1.41-9.19,39.14,39.14,0,0,1,3.59-9,62.91,62.91,0,0,1,6-9.13A68.9,68.9,0,0,1,809,70.11a58.23,58.23,0,0,1,8.54-6.54,19.19,19.19,0,0,1,3.65-2.06A20.78,20.78,0,0,1,826.21,60a28.21,28.21,0,0,1,6.13-.29A29.25,29.25,0,0,1,839.17,61a81.31,81.31,0,0,1,10.66,4.71,44.12,44.12,0,0,1,9,6.13,20.48,20.48,0,0,1,3.65,4.48,17,17,0,0,1,1.83,4.36,19.69,19.69,0,0,1,.59,4.18q.06,2.06.06,3.83-.47,3.07-1.3,7t-1.94,7.89q-1.12,4-2.36,7.66a43.21,43.21,0,0,1-2.53,6.13,7.09,7.09,0,0,1-2.89,3q-1.48.65-4.42-.65-16.14-5.42-14.84-15.55a39.84,39.84,0,0,1,.88-4.83q.65-2.71,1.3-5.48T838,88.55a13.58,13.58,0,0,0,.29-3.95c-.12-1-.51-1.57-1.18-1.77s-1.75.26-3.24,1.35a22.61,22.61,0,0,0-4.42,3.24,39.91,39.91,0,0,0-4.6,4.95A37.45,37.45,0,0,0,821,98.33a22.74,22.74,0,0,0-2.24,6.42,15.74,15.74,0,0,0,.12,6.36,10.72,10.72,0,0,0,3.42,5.6,57.61,57.61,0,0,0,7.66,6.19q4.24,2.89,8.42,5.6t7.89,5.36a35.38,35.38,0,0,1,6.13,5.42,13,13,0,0,1,3.06,5.83,9.65,9.65,0,0,1-1.24,6.6,33.69,33.69,0,0,1-3.3,5.36,24,24,0,0,1-5.66,5.36,32.44,32.44,0,0,1-8.6,4.12,41.73,41.73,0,0,1-12.14,1.77A45.94,45.94,0,0,1,806,164.9q-9-3.65-18.56-12.61-5.18-4.36-5.42-6.72t2.24-3.42A17.32,17.32,0,0,1,788.75,140.86Z"/></g></svg>